<?xml version="1.0" standalone="no"?>
<!DOCTYPE svg PUBLIC "-//W3C//DTD SVG 1.1//EN" "http://www.w3.org/Graphics/SVG/1.1/DTD/svg11.dtd" >
<svg xmlns="http://www.w3.org/2000/svg" xmlns:xlink="http://www.w3.org/1999/xlink" version="1.1">
<metadata>
Created by FontForge 20161003 at Thu Jul 19 08:55:14 2018
 By www-data
Copyright (c) 2008 by Silas Dilworth. All rights reserved.
</metadata>
<defs>
<font id="HeroicCondensedLight" horiz-adv-x="340" >
  <font-face 
    font-family="HeroicCondensedLight"
    font-weight="400"
    font-stretch="normal"
    units-per-em="1000"
    panose-1="2 0 5 6 4 0 0 2 0 4"
    ascent="750"
    descent="-250"
    x-height="500"
    cap-height="700"
    bbox="-34 -210 558 893"
    underline-thickness="50"
    underline-position="-150"
    unicode-range="U+0020-2265"
  />
<missing-glyph horiz-adv-x="200" 
 />
    <glyph glyph-name=".notdef" horiz-adv-x="200" 
 />
    <glyph glyph-name=".null" horiz-adv-x="0" 
 />
    <glyph glyph-name="nonmarkingreturn" horiz-adv-x="333" 
 />
    <glyph glyph-name="space" unicode=" " horiz-adv-x="180" 
 />
    <glyph glyph-name="exclam" unicode="!" horiz-adv-x="168" 
d="M61 55h45v-55h-45v55zM61 700h45l-10 -470h-24z" />
    <glyph glyph-name="quotedbl" unicode="&#x22;" horiz-adv-x="251" 
d="M49 710h48l-13 -188h-21zM154 710h48l-14 -188h-21z" />
    <glyph glyph-name="numbersign" unicode="#" horiz-adv-x="356" 
d="M154 700l-9 -153h80l8 153h27l-8 -153h59v-26h-61l-10 -193h61v-26h-63l-8 -152h-27l8 152h-80l-8 -152h-28l9 152h-59v26h60l12 193h-62v26h63l9 153h27zM144 521l-11 -193h80l10 193h-79z" />
    <glyph glyph-name="dollar" unicode="$" horiz-adv-x="336" 
d="M235 211v39q0 37 -17 60t-41.5 35t-49 25t-41.5 41t-17 72v23q0 53 19 81t67 32v81h26v-81q48 -4 66.5 -32t18.5 -81v-45h-31v45q0 44 -14.5 64.5t-52.5 20.5q-37 0 -52 -21t-15 -64v-23q0 -39 17 -63.5t41.5 -36.5t48.5 -25t41 -39t17 -68v-39q0 -54 -18.5 -81.5
t-66.5 -31.5v-99h-26v99q-49 4 -67.5 31.5t-18.5 81.5v58h32v-60q0 -44 13.5 -63.5t53.5 -19.5q38 0 52.5 20t14.5 64z" />
    <glyph glyph-name="percent" unicode="%" horiz-adv-x="446" 
d="M386 700l-295 -700h-31l296 700h30zM133 435q-44 0 -60.5 23.5t-16.5 76.5v74q0 54 16.5 77.5t60.5 23.5t60.5 -23.5t16.5 -77.5v-74q0 -53 -16.5 -76.5t-60.5 -23.5zM133 684q-27 0 -37.5 -16t-10.5 -58v-75q0 -42 10.5 -58t37.5 -16t37.5 16t10.5 58v75q0 42 -10.5 58
t-37.5 16zM314 -10q-44 0 -60.5 23.5t-16.5 76.5v74q0 54 16.5 77.5t60.5 23.5t60.5 -23.5t16.5 -77.5v-74q0 -53 -16.5 -76.5t-60.5 -23.5zM314 239q-27 0 -37.5 -16t-10.5 -58v-75q0 -42 10.5 -58t37.5 -16t37.5 16t10.5 58v75q0 42 -10.5 58t-37.5 16z" />
    <glyph glyph-name="ampersand" unicode="&#x26;" horiz-adv-x="402" 
d="M69 108v142q0 88 73 103q-73 15 -73 104v131q0 59 24.5 90.5t83.5 31.5q108 0 108 -122v-78h-33v78q0 92 -75 92t-75 -92v-135q0 -42 19 -63.5t64 -21.5h168v-30h-68v-243q0 -65 68 -65v-30q-67 0 -85 50q-17 -60 -92 -60q-59 0 -83 29.5t-24 88.5zM177 19q41 0 58 23.5
t17 67.5v228h-67q-48 0 -65.5 -22.5t-17.5 -68.5v-137q0 -45 16.5 -68t58.5 -23z" />
    <glyph glyph-name="quotesingle" unicode="'" horiz-adv-x="137" 
d="M44 710h48l-13 -188h-21z" />
    <glyph glyph-name="parenleft" unicode="(" horiz-adv-x="241" 
d="M181 -30h-25q-97 201 -97 379q0 179 97 381h25q-91 -216 -91 -381t91 -379z" />
    <glyph glyph-name="parenright" unicode=")" horiz-adv-x="241" 
d="M84 -30h-25q91 214 91 379t-91 381h25q97 -202 97 -381q0 -178 -97 -379z" />
    <glyph glyph-name="asterisk" unicode="*" horiz-adv-x="355" 
d="M184 579l118 55l13 -41l-128 -26l89 -95l-35 -26l-64 114l-64 -114l-35 26l89 95l-128 26l13 41l119 -55l-16 131h44z" />
    <glyph glyph-name="plus" unicode="+" horiz-adv-x="386" 
d="M59 267v26h120v132h28v-132h120v-26h-120v-132h-28v132h-120z" />
    <glyph glyph-name="comma" unicode="," horiz-adv-x="140" 
d="M49 55h46l-24 -143h-22v143z" />
    <glyph glyph-name="hyphen" unicode="-" horiz-adv-x="269" 
d="M49 265v30h170v-30h-170z" />
    <glyph glyph-name="period" unicode="." horiz-adv-x="144" 
d="M49 55h45v-55h-45v55z" />
    <glyph glyph-name="slash" unicode="/" horiz-adv-x="267" 
d="M39 -30l157 760h31l-157 -760h-31z" />
    <glyph glyph-name="zero" unicode="0" 
d="M170 19q75 0 75 92v477q0 45 -16.5 68.5t-58.5 23.5q-75 0 -75 -92v-477q0 -92 75 -92zM170 710q59 0 83.5 -31.5t24.5 -90.5v-477q0 -59 -24.5 -90t-83.5 -31t-83.5 31t-24.5 90v477q0 59 24.5 90.5t83.5 31.5z" />
    <glyph glyph-name="one" unicode="1" horiz-adv-x="244" 
d="M141 700v-669h61v-31h-155v31h61v578h-66v22q42 0 58 15.5t16 53.5h25z" />
    <glyph glyph-name="two" unicode="2" horiz-adv-x="315" 
d="M52 0v100q0 64 18.5 114t45 82t52.5 61.5t44.5 69.5t18.5 89v72q0 45 -15.5 68.5t-57.5 23.5q-43 0 -58 -23.5t-15 -68.5v-78h-33v78q0 60 22.5 91t83.5 31t83.5 -31t22.5 -91v-70q0 -54 -18.5 -97.5t-45 -74t-52.5 -61.5t-44.5 -78t-18.5 -107v-69h183v-31h-216z" />
    <glyph glyph-name="three" unicode="3" horiz-adv-x="329" 
d="M267 251v-140q0 -59 -24.5 -90t-83.5 -31t-83 31t-24 90v89h33v-89q0 -92 74 -92q75 0 75 92v139q0 43 -16.5 65.5t-58.5 22.5h-29v30h29q40 0 55 21.5t15 63.5v138q0 89 -72 89t-72 -89v-81h-32v81q0 58 23.5 88.5t80.5 30.5t81 -31t24 -88v-136q0 -83 -59 -102
q64 -17 64 -102z" />
    <glyph glyph-name="four" unicode="4" horiz-adv-x="315" 
d="M202 0v167h-170v37l161 496h42v-503h48v-30h-48v-167h-33zM61 197h141q0 130 0.5 267t0.5 178z" />
    <glyph glyph-name="five" unicode="5" horiz-adv-x="330" 
d="M173 392q-50 0 -80 -46h-28l16 354h181v-31h-151l-13 -287q34 39 81 39q52 0 73 -29t21 -90v-191q0 -59 -24.5 -90t-83.5 -31t-83.5 31t-24.5 90v89h33v-89q0 -92 75 -92t75 92v191q0 47 -14 68.5t-53 21.5z" />
    <glyph glyph-name="six" unicode="6" 
d="M170 680q-75 0 -75 -92v-218q34 39 83 39q54 0 77 -28.5t23 -88.5v-181q0 -59 -24.5 -90t-83.5 -31t-83.5 31t-24.5 90v477q0 59 24.5 90.5t83.5 31.5t83.5 -31.5t24.5 -90.5v-78h-33v78q0 92 -75 92zM173 380q-51 0 -78 -47v-222q0 -92 75 -92t75 92v181q0 46 -16.5 67
t-55.5 21z" />
    <glyph glyph-name="seven" unicode="7" horiz-adv-x="262" 
d="M138 0h-36q0 208 22 356t84 313h-186v31h218v-25q-63 -180 -82.5 -310t-19.5 -365z" />
    <glyph glyph-name="eight" unicode="8" 
d="M170 710q57 0 80 -30.5t23 -88.5v-136q0 -83 -59 -102q37 -10 50.5 -37t13.5 -75v-130q0 -59 -24.5 -90t-83.5 -31t-83.5 31t-24.5 90v130q0 48 13.5 75t50.5 37q-58 18 -58 102v136q0 58 22.5 88.5t79.5 30.5zM170 19q43 0 59 25t16 74v127q0 47 -15 70.5t-60 23.5
t-60 -23.5t-15 -70.5v-127q0 -48 16 -73.5t59 -25.5zM170 680q-40 0 -55 -24.5t-15 -71.5v-125q0 -46 14 -69t56 -23t56 23t14 69v125q0 47 -14.5 71.5t-55.5 24.5z" />
    <glyph glyph-name="nine" unicode="9" 
d="M170 19q75 0 75 92v229q-33 -39 -83 -39q-54 0 -77 28.5t-23 88.5v170q0 59 24.5 90.5t83.5 31.5t83.5 -31.5t24.5 -90.5v-477q0 -59 -24.5 -90t-83.5 -31t-83.5 31t-24.5 90v89h33v-89q0 -92 75 -92zM167 329q52 0 78 47v212q0 45 -17 68.5t-58 23.5t-58 -23.5
t-17 -68.5v-171q0 -46 16.5 -67t55.5 -21z" />
    <glyph glyph-name="colon" unicode=":" horiz-adv-x="164" 
d="M59 381h45v-55h-45v55zM59 55h45v-55h-45v55z" />
    <glyph glyph-name="semicolon" unicode=";" horiz-adv-x="160" 
d="M59 381h45v-55h-45v55zM59 55h46l-24 -143h-22v143z" />
    <glyph glyph-name="less" unicode="&#x3c;" horiz-adv-x="288" 
d="M209 -30l-160 380l160 380h30l-160 -380l160 -380h-30z" />
    <glyph glyph-name="equal" unicode="=" horiz-adv-x="379" 
d="M319 191h-260v26h260v-26zM319 343h-260v26h260v-26z" />
    <glyph glyph-name="greater" unicode="&#x3e;" horiz-adv-x="288" 
d="M239 350l-160 -380h-30l160 380l-160 380h30z" />
    <glyph glyph-name="question" unicode="?" horiz-adv-x="330" 
d="M237 524v63q0 44 -15.5 68.5t-56.5 24.5q-43 0 -57.5 -23.5t-14.5 -69.5v-77h-34v77q0 61 21.5 92t84.5 31q62 0 83.5 -31t21.5 -92v-62q0 -48 -9.5 -79t-23 -47.5l-27 -33t-23 -50t-10.5 -85.5h-26q0 57 9 94t21.5 54.5t25 33t21.5 42.5t9 70zM142 55h45v-55h-45v55z
" />
    <glyph glyph-name="at" unicode="@" horiz-adv-x="536" 
d="M354 47h-18l-9 33q-17 -44 -64 -44q-86 0 -86 94v51q0 49 32.5 77.5t117.5 51.5v61q0 34 -12.5 52t-46.5 18t-47 -18t-13 -52v-19h-28v20q0 94 88 94q48 0 67 -25t19 -70v-324zM204 181v-51q0 -70 63 -70q30 0 45 20.5t15 52.5v155q-72 -20 -97.5 -44t-25.5 -63zM268 -86
q182 0 182 205v261q0 205 -182 205t-182 -205v-261q0 -205 182 -205zM268 -110q-209 0 -209 229v261q0 230 209 230q208 0 208 -230v-261q0 -229 -208 -229z" />
    <glyph glyph-name="A" unicode="A" horiz-adv-x="311" 
d="M175 700l104 -700h-35l-25 176h-127l-25 -176h-35l105 700h38zM156 635l-61 -429h120z" />
    <glyph glyph-name="B" unicode="B" horiz-adv-x="351" 
d="M72 0v700h95q66 0 91 -25.5t25 -82.5v-146q0 -77 -64 -93q70 -15 70 -95v-145q0 -58 -25 -85.5t-93 -27.5h-99zM105 338v-307h64q50 0 68.5 20t18.5 63v145q0 39 -19.5 59t-66.5 20h-65zM105 669v-301h58q48 0 67.5 19t19.5 58v144q0 42 -18 61t-66 19h-61z" />
    <glyph glyph-name="C" unicode="C" horiz-adv-x="330" 
d="M246 200h32v-89q0 -58 -24.5 -89.5t-83.5 -31.5t-83.5 31t-24.5 90v477q0 59 24.5 90.5t83.5 31.5q108 0 108 -122v-78h-32v78q0 92 -76 92q-75 0 -75 -92v-477q0 -92 75 -92q76 0 76 92v89z" />
    <glyph glyph-name="D" unicode="D" horiz-adv-x="346" 
d="M67 0v700h95q68 0 95 -31t27 -90v-458q0 -59 -26 -90t-94 -31h-97zM100 669v-638h63q49 0 68.5 23t19.5 67v458q0 44 -20 67t-70 23h-61z" />
    <glyph glyph-name="E" unicode="E" horiz-adv-x="300" 
d="M100 338v-307h153v-31h-186v700h186v-31h-153v-301h131v-30h-131z" />
    <glyph glyph-name="F" unicode="F" horiz-adv-x="277" 
d="M100 0h-33v700h178v-31h-145v-301h125v-30h-125v-338z" />
    <glyph glyph-name="G" unicode="G" 
d="M245 110v228h-75v30h108v-258q0 -58 -24 -89t-84 -31t-84 31t-24 89v480q0 58 24 89t84 31q59 0 83.5 -31t24.5 -89v-80h-33v80q0 90 -75 90t-75 -90v-480q0 -91 75 -91q41 0 58 23.5t17 67.5z" />
    <glyph glyph-name="H" unicode="H" horiz-adv-x="351" 
d="M100 338v-338h-33v700h33v-332h151v332h33v-700h-33v338h-151z" />
    <glyph glyph-name="I" unicode="I" horiz-adv-x="167" 
d="M67 0v700h33v-700h-33z" />
    <glyph glyph-name="J" unicode="J" horiz-adv-x="318" 
d="M218 700h33v-589q0 -62 -21.5 -91.5t-82.5 -29.5q-60 0 -82.5 31t-22.5 90v89h33v-89q0 -46 15 -69t57 -23t56.5 22.5t14.5 69.5v589z" />
    <glyph glyph-name="K" unicode="K" horiz-adv-x="323" 
d="M100 700v-332l151 332h38l-161 -346l168 -354h-38l-158 340v-340h-33v700h33z" />
    <glyph glyph-name="L" unicode="L" horiz-adv-x="257" 
d="M67 0v700h33v-669h125v-31h-158z" />
    <glyph glyph-name="M" unicode="M" horiz-adv-x="467" 
d="M233 75h1l117 625h49v-700h-32v249q0 221 4 403l-123 -652h-31l-123 652q4 -186 4 -403v-249h-32v700h49z" />
    <glyph glyph-name="N" unicode="N" horiz-adv-x="373" 
d="M97 623q0 -45 1 -126t1.5 -148t0.5 -127v-222h-33v700h37l172 -624q0 45 -1 126.5t-1.5 148t-0.5 126.5v223h33v-700h-36z" />
    <glyph glyph-name="O" unicode="O" 
d="M170 19q75 0 75 92v477q0 45 -16.5 68.5t-58.5 23.5q-75 0 -75 -92v-477q0 -92 75 -92zM170 710q59 0 83.5 -31.5t24.5 -90.5v-477q0 -59 -24.5 -90t-83.5 -31t-83.5 31t-24.5 90v477q0 59 24.5 90.5t83.5 31.5z" />
    <glyph glyph-name="P" unicode="P" horiz-adv-x="318" 
d="M67 0v700h89q68 0 94 -31t26 -90v-153q0 -57 -27.5 -88t-94.5 -31h-54v-307h-33zM100 669v-332h53q50 0 70 22.5t20 66.5v153q0 44 -19.5 67t-68.5 23h-55z" />
    <glyph glyph-name="Q" unicode="Q" 
d="M256 -89h-10q-45 0 -67 19t-23 61q-94 5 -94 120v477q0 59 24.5 90.5t83.5 31.5t83.5 -31.5t24.5 -90.5v-477q0 -115 -94 -120q2 -30 17 -43t45 -13h16zM170 19q75 0 75 92v477q0 45 -16.5 68.5t-58.5 23.5q-75 0 -75 -92v-477q0 -92 75 -92z" />
    <glyph glyph-name="R" unicode="R" horiz-adv-x="331" 
d="M67 0v700h89q68 0 94 -31t26 -90v-153q0 -106 -93 -118l121 -308h-36q-8 23 -57.5 151.5t-59.5 155.5h-51v-307h-33zM100 669v-332h53q50 0 70 22.5t20 66.5v153q0 44 -19.5 67t-68.5 23h-55z" />
    <glyph glyph-name="S" unicode="S" horiz-adv-x="316" 
d="M264 510h-33v77q0 46 -15.5 69.5t-57.5 23.5q-43 0 -58 -23.5t-15 -69.5v-57q0 -42 13.5 -71t33 -43.5t43 -32.5t43 -36.5t33 -56.5t13.5 -92v-85q0 -61 -22 -92t-84 -31t-84 31t-22 92v87h33v-87q0 -46 15.5 -70t57.5 -24q43 0 58 24t15 70v84q0 50 -13.5 85.5t-33 52.5
t-43 35t-43 33.5t-33 48t-13.5 79.5v56q0 61 22 92t84 31t84 -31t22 -92v-77z" />
    <glyph glyph-name="T" unicode="T" horiz-adv-x="264" 
d="M149 669v-669h-33v669h-89v31h210v-31h-88z" />
    <glyph glyph-name="U" unicode="U" horiz-adv-x="337" 
d="M242 700h33v-586q0 -61 -22.5 -92.5t-83.5 -31.5q-63 0 -85 31.5t-22 92.5v586h34v-586q0 -47 15 -71t58 -24t58 24t15 71v586z" />
    <glyph glyph-name="V" unicode="V" horiz-adv-x="311" 
d="M279 700l-105 -700h-36l-106 700h35l89 -624l88 624h35z" />
    <glyph glyph-name="W" unicode="W" horiz-adv-x="535" 
d="M360 0l-92 623l-92 -623h-35l-99 700h35l82 -621l92 621h34l91 -621l83 621h34l-98 -700h-35z" />
    <glyph glyph-name="X" unicode="X" horiz-adv-x="313" 
d="M74 700l82 -295l82 295h36l-100 -338l107 -362h-36l-89 318l-89 -318h-35l107 362l-100 338h35z" />
    <glyph glyph-name="Y" unicode="Y" horiz-adv-x="295" 
d="M164 0h-33v304l-104 396h35l85 -349l86 349h35l-104 -396v-304z" />
    <glyph glyph-name="Z" unicode="Z" horiz-adv-x="274" 
d="M237 0h-195v20l158 649h-156v31h192v-20l-157 -649h158v-31z" />
    <glyph glyph-name="bracketleft" unicode="[" horiz-adv-x="245" 
d="M79 -120v850h106v-26h-76v-798h76v-26h-106z" />
    <glyph glyph-name="backslash" unicode="\" horiz-adv-x="267" 
d="M70 730l157 -760h-31l-157 760h31z" />
    <glyph glyph-name="bracketright" unicode="]" horiz-adv-x="245" 
d="M165 730v-850h-106v26h77v798h-77v26h106z" />
    <glyph glyph-name="asciicircum" unicode="^" horiz-adv-x="255" 
d="M140 710l65 -200h-25l-53 168l-52 -168h-26l65 200h26z" />
    <glyph glyph-name="underscore" unicode="_" horiz-adv-x="389" 
d="M59 0v28h270v-28h-270z" />
    <glyph glyph-name="grave" unicode="`" horiz-adv-x="182" 
d="M49 672h35l49 -122h-24z" />
    <glyph glyph-name="a" unicode="a" horiz-adv-x="304" 
d="M252 0h-18l-10 38q-21 -48 -77 -48q-52 0 -76 27.5t-24 84.5v56q0 63 35.5 98.5t137.5 64.5v77q0 41 -15 62.5t-53 21.5q-41 0 -55 -21t-14 -64v-25h-32v26q0 55 21.5 83.5t79.5 28.5t79 -28t21 -84v-398zM79 158v-56q0 -43 16.5 -63.5t54.5 -20.5q35 0 52.5 23t17.5 61
v194q-86 -23 -113.5 -54t-27.5 -84z" />
    <glyph glyph-name="b" unicode="b" horiz-adv-x="314" 
d="M230 104v281q0 52 -15 74.5t-52 22.5q-74 0 -74 -93v-284q0 -39 19.5 -63t52.5 -24q69 0 69 86zM262 394v-291q0 -58 -22 -85.5t-74 -27.5q-58 0 -80 51l-10 -41h-19v710h32v-248q23 48 79 48q51 0 72.5 -28t21.5 -88z" />
    <glyph glyph-name="c" unicode="c" horiz-adv-x="304" 
d="M225 172h32v-65q0 -57 -22.5 -87t-79.5 -30q-58 0 -80.5 30t-22.5 87v285q0 57 23 87.5t80 30.5t79.5 -30.5t22.5 -87.5v-54h-32v54q0 45 -15 67.5t-55 22.5t-55.5 -22.5t-15.5 -67.5v-285q0 -44 15.5 -66.5t55.5 -22.5t55 22.5t15 66.5v65z" />
    <glyph glyph-name="d" unicode="d" horiz-adv-x="314" 
d="M84 394v-292q0 -84 70 -84q35 0 53 23.5t18 63.5v284q0 93 -73 93q-37 0 -52.5 -21.5t-15.5 -66.5zM52 103v291q0 60 21.5 88t73.5 28q55 0 78 -48v248h32v-710h-18l-10 41q-22 -51 -80 -51q-52 0 -74.5 27.5t-22.5 85.5z" />
    <glyph glyph-name="e" unicode="e" horiz-adv-x="309" 
d="M225 172h32v-65q0 -57 -22.5 -87t-79.5 -30q-58 0 -80.5 30t-22.5 87v285q0 57 23 87.5t80 30.5t79.5 -30.5t22.5 -87.5v-134h-173v-151q0 -44 15.5 -66.5t55.5 -22.5t55 22.5t15 66.5v65zM84 392v-107h141v101q0 49 -14.5 72.5t-55.5 23.5q-40 0 -55.5 -22.5
t-15.5 -67.5z" />
    <glyph glyph-name="f" unicode="f" horiz-adv-x="226" 
d="M170 720q20 0 34 -6v-28q-12 6 -33 6q-35 0 -47.5 -15.5t-12.5 -61.5v-115h81v-28h-81v-472h-32v472h-47v28h47v115q0 57 19.5 81t71.5 24z" />
    <glyph glyph-name="g" unicode="g" horiz-adv-x="313" 
d="M153 116q-48 0 -48 -31q0 -29 46 -30h2q118 0 118 -108v-13q0 -104 -117 -104t-117 104v13q0 83 71 102q-28 10 -28 36q0 27 29 37q-58 19 -58 112v158q0 58 22 88t80 30q25 0 46 -8q19 57 68 57q16 0 29 -5v-26q-15 5 -30 5q-36 0 -51 -38q41 -26 41 -103v-158
q0 -57 -22.5 -87.5t-80.5 -30.5zM153 143q41 0 56 23t15 68v158q0 45 -15 67.5t-56 22.5q-40 0 -55 -22.5t-15 -67.5v-158q0 -45 15 -68t55 -23zM154 -142q86 0 86 78v13q0 81 -87 81q-85 0 -85 -81v-13q0 -78 86 -78z" />
    <glyph glyph-name="h" unicode="h" horiz-adv-x="314" 
d="M262 0h-32v397q0 43 -16 64t-53 21q-35 0 -53.5 -24t-18.5 -63v-395h-32v710h32v-250q23 50 77 50q52 0 74 -27.5t22 -85.5v-397z" />
    <glyph glyph-name="i" unicode="i" horiz-adv-x="150" 
d="M59 500h32v-500h-32v500zM56 633h38v-48h-38v48z" />
    <glyph glyph-name="j" unicode="j" horiz-adv-x="150" 
d="M-34 -165v28q13 -5 33 -5q35 0 47.5 16t12.5 61v565h32v-566q0 -57 -19.5 -80.5t-71.5 -23.5q-19 0 -34 5zM56 633h38v-48h-38v48z" />
    <glyph glyph-name="k" unicode="k" horiz-adv-x="274" 
d="M89 710v-436l125 226h38l-136 -239l146 -261h-37l-136 247v-247h-32v710h32z" />
    <glyph glyph-name="l" unicode="l" horiz-adv-x="146" 
d="M57 710h32v-710h-32v710z" />
    <glyph glyph-name="m" unicode="m" horiz-adv-x="487" 
d="M262 0h-32v397q0 85 -69 85q-35 0 -53.5 -23.5t-18.5 -63.5v-395h-32v500h19l10 -42q23 52 80 52q67 0 85 -53q24 53 87 53q51 0 74 -27.5t23 -84.5v-398h-32v397q0 85 -70 85q-71 0 -71 -85v-397z" />
    <glyph glyph-name="n" unicode="n" horiz-adv-x="314" 
d="M262 0h-32v397q0 85 -69 85q-35 0 -53.5 -23.5t-18.5 -63.5v-395h-32v500h19l10 -42q23 52 80 52q52 0 74 -27.5t22 -85.5v-397z" />
    <glyph glyph-name="o" unicode="o" horiz-adv-x="309" 
d="M155 510q57 0 79.5 -30.5t22.5 -87.5v-285q0 -58 -22 -87.5t-80 -29.5t-80.5 30t-22.5 87v285q0 57 23 87.5t80 30.5zM155 18q40 0 55 22.5t15 66.5v285q0 45 -15 67.5t-55 22.5t-55.5 -22.5t-15.5 -67.5v-285q0 -44 15.5 -66.5t55.5 -22.5z" />
    <glyph glyph-name="p" unicode="p" horiz-adv-x="314" 
d="M230 105v267q0 54 -14.5 82t-54.5 28q-35 0 -53.5 -24t-18.5 -64v-284q0 -43 18.5 -67.5t55.5 -24.5t52 21.5t15 65.5zM262 397v-292q0 -59 -21.5 -87t-72.5 -28q-56 0 -79 48v-198h-32v660h19l10 -41q23 51 80 51q52 0 74 -27.5t22 -85.5z" />
    <glyph glyph-name="q" unicode="q" horiz-adv-x="314" 
d="M84 396v-267q0 -57 13.5 -84t53.5 -27q37 0 55.5 24.5t18.5 67.5v284q0 38 -19.5 63t-52.5 25q-69 0 -69 -86zM52 105v292q0 58 22 85.5t74 27.5q57 0 80 -51l10 41h19v-660h-32v198q-23 -48 -79 -48q-51 0 -72.5 28t-21.5 87z" />
    <glyph glyph-name="r" unicode="r" horiz-adv-x="198" 
d="M171 511v-32q-41 1 -61.5 -23t-20.5 -68v-388h-32v500h21l9 -41q25 52 84 52z" />
    <glyph glyph-name="s" unicode="s" horiz-adv-x="291" 
d="M213 102v38q0 36 -17 59t-41.5 35.5t-49 26t-41.5 41.5t-17 72v23q0 56 22 84.5t77 28.5t76.5 -28t21.5 -85v-59h-31v59q0 44 -14.5 64.5t-52.5 20.5t-52.5 -20.5t-14.5 -64.5v-23q0 -39 17 -64t41.5 -37.5t48.5 -25t41 -39t17 -68.5v-38q0 -57 -21 -84.5t-77 -27.5
t-77.5 27.5t-21.5 84.5v70h32v-70q0 -44 14 -64t53 -20q38 0 52.5 20t14.5 64z" />
    <glyph glyph-name="t" unicode="t" horiz-adv-x="232" 
d="M200 23v-27q-14 -6 -35 -6q-51 0 -70.5 23.5t-19.5 80.5v378h-48v28h48v133q8 3 32 9v-142h83v-28h-83v-378q0 -44 12.5 -60t46.5 -16q19 0 34 5z" />
    <glyph glyph-name="u" unicode="u" horiz-adv-x="319" 
d="M57 500h32v-397q0 -85 70 -85q35 0 53 23t18 63v396h32v-500h-18l-10 41q-23 -51 -80 -51q-52 0 -74.5 27.5t-22.5 85.5v397z" />
    <glyph glyph-name="v" unicode="v" horiz-adv-x="278" 
d="M251 500l-96 -500h-32l-96 500h34l78 -441l78 441h34z" />
    <glyph glyph-name="w" unicode="w" horiz-adv-x="454" 
d="M304 0q-29 173 -77 442q-29 -173 -77 -442h-34l-84 500h33l69 -445q22 123 76 445h34q22 -123 76 -445l69 445h33l-84 -500h-34z" />
    <glyph glyph-name="x" unicode="x" horiz-adv-x="273" 
d="M246 500l-94 -248l99 -252h-35l-80 217l-80 -217h-34l98 252l-93 248h34l75 -214l75 214h35z" />
    <glyph glyph-name="y" unicode="y" horiz-adv-x="308" 
d="M61 -170q-21 0 -34 5v29q13 -6 34 -6q54 0 69 69l15 72l-105 501h34l86 -437l87 437h34l-120 -576q-10 -49 -32.5 -71.5t-67.5 -22.5z" />
    <glyph glyph-name="z" unicode="z" horiz-adv-x="265" 
d="M228 0h-186v19l146 453h-139v28h174v-20l-146 -453h151v-27z" />
    <glyph glyph-name="braceleft" unicode="{" horiz-adv-x="287" 
d="M142 243q0 25 -11 37t-39 12h-33v26h33q27 0 38.5 12t11.5 36q0 52 -26 136t-26 133q0 51 27.5 73t90.5 22h19v-26h-19q-49 0 -68.5 -16.5t-19.5 -56.5q0 -47 24 -131t24 -133q0 -51 -37 -62q37 -14 37 -63t-24 -133t-24 -131q0 -40 19.5 -56t68.5 -16h19v-26h-19
q-63 0 -90.5 22t-27.5 73q0 49 26 133t26 135z" />
    <glyph glyph-name="bar" unicode="|" horiz-adv-x="187" 
d="M79 -120v850h28v-850h-28z" />
    <glyph glyph-name="braceright" unicode="}" horiz-adv-x="287" 
d="M144 243q0 -51 26 -135t26 -133q0 -51 -27 -73t-90 -22h-20v26h20q49 0 68 16t19 56q0 47 -24 131t-24 133t37 63q-37 11 -37 62q0 49 24 133t24 131q0 40 -19.5 56.5t-67.5 16.5h-20v26h20q63 0 90 -22t27 -73q0 -49 -26 -133t-26 -136q0 -24 11.5 -36t39.5 -12h32v-26
h-32q-28 0 -39.5 -12t-11.5 -37z" />
    <glyph glyph-name="asciitilde" unicode="~" horiz-adv-x="324" 
d="M201 632q-18 0 -31.5 8.5t-20.5 18t-18 18t-24 8.5q-20 0 -26 -10.5t-6 -32.5h-24q0 35 12.5 51.5t41.5 16.5q27 0 51.5 -26.5t43.5 -26.5q20 0 26 10t6 33h23q0 -35 -12.5 -51.5t-41.5 -16.5z" />
    <glyph glyph-name="nbspace" unicode="&#xa0;" horiz-adv-x="90" 
 />
    <glyph glyph-name="exclamdown" unicode="&#xa1;" horiz-adv-x="168" 
d="M106 445h-45v55h45v-55zM106 -200h-45l11 470h24z" />
    <glyph glyph-name="cent" unicode="&#xa2;" horiz-adv-x="343" 
d="M242 282h32v-65q0 -54 -20 -83.5t-70 -33.5v-100h-25v100q-51 4 -70.5 33t-19.5 84v285q0 54 19.5 83.5t70.5 33.5v81h25v-81q50 -4 70 -33.5t20 -83.5v-54h-32v54q0 45 -15 67.5t-55 22.5t-55.5 -22.5t-15.5 -67.5v-285q0 -44 15.5 -66.5t55.5 -22.5t55 22.5t15 66.5v65
z" />
    <glyph glyph-name="sterling" unicode="&#xa3;" horiz-adv-x="396" 
d="M52 341v24h72v222q0 61 22 92t85 31q61 0 83 -31.5t22 -91.5v-77h-33v77q0 46 -14.5 69.5t-57.5 23.5t-58.5 -23.5t-15.5 -69.5v-222h83v-24h-83v-218q0 -46 16 -69t59 -23h105v-31h-105q-73 0 -92 52q-19 -52 -91 -52v31q43 0 59 23t16 69v218h-72z" />
    <glyph glyph-name="currency" unicode="&#xa4;" horiz-adv-x="318" 
d="M170 562q-40 0 -55.5 -22.5t-15.5 -67.5v-225q0 -44 15.5 -66.5t55.5 -22.5t55 22.5t15 66.5v225q0 45 -15 67.5t-55 22.5zM83 700l36 -121q20 11 51 11t51 -11l36 121h33l-43 -138q25 -28 25 -90v-225q0 -62 -24 -90l49 -157h-33l-42 141q-20 -11 -52 -11t-52 11
l-42 -141h-32l47 157q-24 28 -24 90v225q0 61 25 90l-41 138h32z" />
    <glyph glyph-name="yen" unicode="&#xa5;" 
d="M186 0h-33v132h-90v23h90v88h-90v23h90v37q-8 30 -51.5 195.5t-52.5 201.5h35l85 -354l86 354h35q-7 -28 -51 -194t-53 -203v-37h92v-23h-92v-88h92v-23h-92v-132z" />
    <glyph glyph-name="brokenbar" unicode="&#xa6;" horiz-adv-x="187" 
d="M79 -120v378h28v-378h-28zM79 352v378h28v-378h-28z" />
    <glyph glyph-name="section" unicode="&#xa7;" horiz-adv-x="331" 
d="M272 255q0 -123 -71 -142q34 -20 52 -49.5t18 -86.5v-24q0 -59 -23.5 -91t-82.5 -32t-82 32t-23 91v67h33v-67q0 -47 15.5 -70.5t56.5 -23.5q42 0 57.5 23t15.5 71v26q0 41 -13.5 68t-33 38.5t-43 26.5t-43 30.5t-33 51.5t-13.5 90q0 124 70 142q-33 20 -51 49t-18 87v25
q0 59 23 91t82 32q60 0 83 -31.5t23 -91.5v-67h-33v67q0 46 -15.5 69.5t-57.5 23.5q-41 0 -56.5 -23.5t-15.5 -69.5v-27q0 -48 18.5 -76.5t44.5 -42.5t52.5 -30t45 -54.5t18.5 -101.5zM93 280q0 -65 19.5 -96t56.5 -52q23 2 38 13t21.5 31.5t8 37t1.5 41.5q0 67 -19.5 98.5
t-57.5 53.5q-24 -2 -39 -13.5t-20.5 -33.5t-7 -37.5t-1.5 -42.5z" />
    <glyph glyph-name="dieresis" unicode="&#xa8;" horiz-adv-x="246" 
d="M52 633h38v-48h-38v48zM155 633h38v-48h-38v48z" />
    <glyph glyph-name="copyright" unicode="&#xa9;" horiz-adv-x="538" 
d="M269 159q58 0 58 70v62h28v-62q0 -94 -86 -94t-86 95v239q0 95 86 95t86 -94v-51h-28v51q0 70 -58 70q-34 0 -46.5 -18t-12.5 -53v-239q0 -34 12.5 -52.5t46.5 -18.5zM269 -10q-210 0 -210 229v261q0 230 210 230q209 0 209 -230v-261q0 -229 -209 -229zM269 14
q183 0 183 205v261q0 205 -183 205t-183 -205v-261q0 -205 183 -205z" />
    <glyph glyph-name="ordfeminine" unicode="&#xaa;" horiz-adv-x="293" 
d="M234 203h-173v23h173v-23zM234 292h-19l-8 32q-19 -43 -66 -43q-44 0 -63 23t-19 72v52q0 49 32 77.5t115 51.5v60q0 35 -11.5 51.5t-46.5 16.5q-34 0 -46 -16.5t-12 -50.5v-20h-28v20q0 45 19 68.5t67 23.5q50 0 68 -23.5t18 -69.5v-325zM87 428v-52q0 -71 60 -71
q30 0 44.5 20.5t14.5 52.5v156q-71 -20 -95 -43t-24 -63z" />
    <glyph glyph-name="guillemotleft" unicode="&#xab;" horiz-adv-x="382" 
d="M49 250l107 185h37l-106 -185l106 -185h-37zM189 250l106 185h38l-106 -185l106 -185h-38z" />
    <glyph glyph-name="logicalnot" unicode="&#xac;" horiz-adv-x="379" 
d="M292 196v142h-233v26h260v-168h-27z" />
    <glyph glyph-name="uni00AD" unicode="&#xad;" horiz-adv-x="269" 
d="M49 265v30h170v-30h-170z" />
    <glyph glyph-name="registered" unicode="&#xae;" horiz-adv-x="538" 
d="M269 -10q-210 0 -210 229v261q0 230 210 230q209 0 209 -230v-261q0 -229 -209 -229zM269 14q183 0 183 205v261q0 205 -183 205t-183 -205v-261q0 -205 183 -205zM186 558h74q56 0 77 -24.5t21 -71.5v-49q0 -81 -72 -91l82 -178h-29l-80 176h-46v-176h-27v414zM213 533
v-188h46q41 0 56 17t15 51v49q0 35 -15 53t-56 18h-46z" />
    <glyph glyph-name="macron" unicode="&#xaf;" horiz-adv-x="269" 
d="M49 593v26h170v-26h-170z" />
    <glyph glyph-name="degree" unicode="&#xb0;" horiz-adv-x="265" 
d="M132 494q-47 0 -65 27.5t-18 80.5t18 80.5t65 27.5t65 -27.5t18 -80.5t-18 -80.5t-65 -27.5zM132 517q34 0 46 21.5t12 63.5t-12 63t-46 21q-33 0 -45 -21t-12 -63q0 -43 11.5 -64t45.5 -21z" />
    <glyph glyph-name="plusminus" unicode="&#xb1;" horiz-adv-x="386" 
d="M59 116h268v-26h-268v26zM59 325v26h120v132h28v-132h120v-26h-120v-132h-28v132h-120z" />
    <glyph glyph-name="acute" unicode="&#xb4;" horiz-adv-x="182" 
d="M98 672h35l-60 -122h-24z" />
    <glyph glyph-name="mu" unicode="&#xb5;" horiz-adv-x="324" 
d="M232 500h32v-397q0 -58 -22 -85.5t-74 -27.5q-54 0 -77 49v-199h-32v660h32v-396q0 -39 18.5 -62.5t53.5 -23.5q37 0 53 21t16 64v397z" />
    <glyph glyph-name="mu" unicode="&#x3bc;" horiz-adv-x="324" 
d="M232 500h32v-397q0 -58 -22 -85.5t-74 -27.5q-54 0 -77 49v-199h-32v660h32v-396q0 -39 18.5 -62.5t53.5 -23.5q37 0 53 21t16 64v397z" />
    <glyph glyph-name="paragraph" unicode="&#xb6;" horiz-adv-x="357" 
d="M288 700v-860h-33v350h-74q-68 0 -95 30.5t-27 88.5v270q0 59 26 90t94 31h109z" />
    <glyph glyph-name="periodcentered" unicode="&#xb7;" horiz-adv-x="164" 
d="M59 307h45v-55h-45v55z" />
    <glyph glyph-name="cedilla" unicode="&#xb8;" horiz-adv-x="229" 
d="M80 -65l18 65h21l-11 -44q70 -5 70 -63q0 -63 -84 -63h-42l6 23h35q56 0 56 41t-57 41h-12z" />
    <glyph glyph-name="ordmasculine" unicode="&#xba;" horiz-adv-x="291" 
d="M145 710q50 0 68 -25.5t18 -71.5v-236q0 -46 -18 -71.5t-68 -25.5t-68 25.5t-18 71.5v236q0 46 18 71.5t68 25.5zM145 304q34 0 46.5 19t12.5 54v236q0 35 -12 53.5t-47 18.5q-34 0 -46 -18.5t-12 -53.5v-236q0 -35 12 -54t46 -19zM231 203h-172v23h172v-23z" />
    <glyph glyph-name="guillemotright" unicode="&#xbb;" horiz-adv-x="382" 
d="M226 435l107 -185l-107 -185h-37l106 185l-106 185h37zM87 435l106 -185l-106 -185h-38l106 185l-106 185h38z" />
    <glyph glyph-name="onequarter" unicode="&#xbc;" horiz-adv-x="245" 
d="M49 359h147v-19h-147v19zM132 700v-275h27v-19h-74v19h27v232h-28v14q18 0 25 6.5t7 22.5h16zM137 0v66h-73v18q5 15 35 103t36 107h22v-209h20v-19h-20v-66h-20zM137 251l-54 -166h54v166z" />
    <glyph glyph-name="onehalf" unicode="&#xbd;" horiz-adv-x="245" 
d="M49 359h147v-19h-147v19zM76 0v40q0 32 11.5 57.5t26 39t26 34.5t11.5 44v28q0 36 -28 36t-28 -36v-37h-20v37q0 55 48 55t48 -55v-27q0 -42 -37.5 -87t-37.5 -89v-21h78v-19h-98zM132 700v-275h27v-19h-74v19h27v232h-28v14q18 0 25 6.5t7 22.5h16z" />
    <glyph glyph-name="threequarters" unicode="&#xbe;" horiz-adv-x="245" 
d="M49 359h147v-19h-147v19zM137 0v66h-73v18q5 15 35 103t36 107h22v-209h20v-19h-20v-66h-20zM137 251l-54 -166h54v166zM172 511v-55q0 -54 -48 -54q-49 0 -49 54v30h19v-27q0 -39 30 -39q29 0 29 36v52q0 37 -27 37h-18v19h18q24 0 24 32v51q0 38 -27 38q-29 0 -29 -35
v-34h-19v34q0 54 48 54q47 0 47 -54v-53q0 -32 -19 -42q21 -13 21 -44z" />
    <glyph glyph-name="questiondown" unicode="&#xbf;" horiz-adv-x="330" 
d="M92 -25v-62q0 -94 73 -94q43 0 57.5 23.5t14.5 70.5v77h33v-77q0 -61 -21.5 -92t-83.5 -31t-84 31t-22 92v62q0 48 9.5 78.5t23 47l27 33t23 50.5t10.5 86h26q0 -57 -9 -94.5t-21.5 -55t-25 -33t-21.5 -42.5t-9 -70zM188 445h-45v55h45v-55z" />
    <glyph glyph-name="Agrave" unicode="&#xc0;" horiz-adv-x="311" 
d="M175 700l104 -700h-35l-25 176h-127l-25 -176h-35l105 700h38zM156 635l-61 -429h120zM85 872h35l49 -122h-24z" />
    <glyph glyph-name="Aacute" unicode="&#xc1;" horiz-adv-x="311" 
d="M175 700l104 -700h-35l-25 176h-127l-25 -176h-35l105 700h38zM156 635l-61 -429h120zM193 872h35l-60 -122h-24z" />
    <glyph glyph-name="Acircumflex" unicode="&#xc2;" horiz-adv-x="311" 
d="M175 700l104 -700h-35l-25 176h-127l-25 -176h-35l105 700h38zM156 635l-61 -429h120zM139 872h32l56 -122h-26l-46 91l-47 -91h-25z" />
    <glyph glyph-name="Atilde" unicode="&#xc3;" horiz-adv-x="311" 
d="M175 700l104 -700h-35l-25 176h-127l-25 -176h-35l105 700h38zM156 635l-61 -429h120zM204 750q-28 0 -52.5 25.5t-42.5 25.5q-19 0 -25.5 -10t-6.5 -31h-25q0 35 12.5 51.5t43.5 16.5q27 0 51 -25.5t43 -25.5q20 0 26.5 10t6.5 31h24q0 -35 -12.5 -51.5t-42.5 -16.5z
" />
    <glyph glyph-name="Adieresis" unicode="&#xc4;" horiz-adv-x="311" 
d="M175 700l104 -700h-35l-25 176h-127l-25 -176h-35l105 700h38zM156 635l-61 -429h120zM85 798h38v-48h-38v48zM188 798h38v-48h-38v48z" />
    <glyph glyph-name="Aring" unicode="&#xc5;" horiz-adv-x="311" 
d="M175 700l104 -700h-35l-25 176h-127l-25 -176h-35l105 700h38zM156 635l-61 -429h120zM221 817q0 -74 -66 -74q-65 0 -65 74q0 76 65 76q66 0 66 -76zM196 817q0 54 -41 54q-40 0 -40 -54q0 -52 40 -52q41 0 41 52z" />
    <glyph glyph-name="AE" unicode="&#xc6;" horiz-adv-x="459" 
d="M34 0l178 700h201v-31h-152v-301h131v-30h-131v-307h152v-31h-185v176h-115l-44 -176h-35zM119 206h109v437z" />
    <glyph glyph-name="Ccedilla" unicode="&#xc7;" horiz-adv-x="330" 
d="M144 -65l14 55q-96 5 -96 121v477q0 59 24.5 90.5t83.5 31.5q108 0 108 -122v-78h-32v78q0 92 -76 92q-75 0 -75 -92v-477q0 -92 75 -92q76 0 76 92v89h32v-89q0 -116 -98 -121l-9 -34q70 -5 70 -63q0 -63 -84 -63h-42l6 23h35q57 0 57 41t-57 41h-12z" />
    <glyph glyph-name="Egrave" unicode="&#xc8;" horiz-adv-x="300" 
d="M100 338v-307h153v-31h-186v700h186v-31h-153v-301h131v-30h-131zM108 872h35l49 -122h-24z" />
    <glyph glyph-name="Eacute" unicode="&#xc9;" horiz-adv-x="300" 
d="M100 338v-307h153v-31h-186v700h186v-31h-153v-301h131v-30h-131zM197 872h35l-60 -122h-24z" />
    <glyph glyph-name="Ecircumflex" unicode="&#xca;" horiz-adv-x="300" 
d="M100 338v-307h153v-31h-186v700h186v-31h-153v-301h131v-30h-131zM144 872h32l56 -122h-26l-46 91l-47 -91h-25z" />
    <glyph glyph-name="Edieresis" unicode="&#xcb;" horiz-adv-x="300" 
d="M100 338v-307h153v-31h-186v700h186v-31h-153v-301h131v-30h-131zM89 798h38v-48h-38v48zM192 798h38v-48h-38v48z" />
    <glyph glyph-name="Igrave" unicode="&#xcc;" horiz-adv-x="167" 
d="M67 0v700h33v-700h-33zM10 872h35l49 -122h-24z" />
    <glyph glyph-name="Iacute" unicode="&#xcd;" horiz-adv-x="167" 
d="M67 0v700h33v-700h-33zM120 872h35l-60 -122h-24z" />
    <glyph glyph-name="Icircumflex" unicode="&#xce;" horiz-adv-x="167" 
d="M67 0v700h33v-700h-33zM68 872h32l56 -122h-26l-46 91l-47 -91h-25z" />
    <glyph glyph-name="Idieresis" unicode="&#xcf;" horiz-adv-x="167" 
d="M67 0v700h33v-700h-33zM13 798h38v-48h-38v48zM116 798h38v-48h-38v48z" />
    <glyph glyph-name="Eth" unicode="&#xd0;" horiz-adv-x="350" 
d="M15 341v25h54v334h95q68 0 95 -31t27 -90v-458q0 -59 -26 -90t-94 -31h-97v341h-54zM102 669v-303h60v-25h-60v-311h63q53 0 70.5 27.5t17.5 80.5v432q0 49 -19.5 74t-70.5 25h-61z" />
    <glyph glyph-name="Ntilde" unicode="&#xd1;" horiz-adv-x="373" 
d="M97 623q0 -45 1 -126t1.5 -148t0.5 -127v-222h-33v700h37l172 -624q0 45 -1 126.5t-1.5 148t-0.5 126.5v223h33v-700h-36zM235 750q-28 0 -52.5 25.5t-42.5 25.5q-19 0 -25.5 -10t-6.5 -31h-25q0 35 12.5 51.5t43.5 16.5q27 0 51 -25.5t43 -25.5q20 0 26.5 10t6.5 31h24
q0 -35 -12.5 -51.5t-42.5 -16.5z" />
    <glyph glyph-name="Ograve" unicode="&#xd2;" 
d="M170 19q75 0 75 92v477q0 45 -16.5 68.5t-58.5 23.5q-75 0 -75 -92v-477q0 -92 75 -92zM170 710q59 0 83.5 -31.5t24.5 -90.5v-477q0 -59 -24.5 -90t-83.5 -31t-83.5 31t-24.5 90v477q0 59 24.5 90.5t83.5 31.5zM101 872h35l49 -122h-24z" />
    <glyph glyph-name="Oacute" unicode="&#xd3;" 
d="M170 19q75 0 75 92v477q0 45 -16.5 68.5t-58.5 23.5q-75 0 -75 -92v-477q0 -92 75 -92zM170 710q59 0 83.5 -31.5t24.5 -90.5v-477q0 -59 -24.5 -90t-83.5 -31t-83.5 31t-24.5 90v477q0 59 24.5 90.5t83.5 31.5zM212 872h35l-60 -122h-24z" />
    <glyph glyph-name="Ocircumflex" unicode="&#xd4;" 
d="M170 19q75 0 75 92v477q0 45 -16.5 68.5t-58.5 23.5q-75 0 -75 -92v-477q0 -92 75 -92zM170 710q59 0 83.5 -31.5t24.5 -90.5v-477q0 -59 -24.5 -90t-83.5 -31t-83.5 31t-24.5 90v477q0 59 24.5 90.5t83.5 31.5zM154 872h32l56 -122h-26l-46 91l-47 -91h-25z" />
    <glyph glyph-name="Otilde" unicode="&#xd5;" 
d="M170 19q75 0 75 92v477q0 45 -16.5 68.5t-58.5 23.5q-75 0 -75 -92v-477q0 -92 75 -92zM170 710q59 0 83.5 -31.5t24.5 -90.5v-477q0 -59 -24.5 -90t-83.5 -31t-83.5 31t-24.5 90v477q0 59 24.5 90.5t83.5 31.5zM218 750q-28 0 -52.5 25.5t-42.5 25.5q-19 0 -25.5 -10
t-6.5 -31h-25q0 35 12.5 51.5t43.5 16.5q27 0 51 -25.5t43 -25.5q20 0 26.5 10t6.5 31h24q0 -35 -12.5 -51.5t-42.5 -16.5z" />
    <glyph glyph-name="Odieresis" unicode="&#xd6;" 
d="M170 19q75 0 75 92v477q0 45 -16.5 68.5t-58.5 23.5q-75 0 -75 -92v-477q0 -92 75 -92zM170 710q59 0 83.5 -31.5t24.5 -90.5v-477q0 -59 -24.5 -90t-83.5 -31t-83.5 31t-24.5 90v477q0 59 24.5 90.5t83.5 31.5zM99 798h38v-48h-38v48zM202 798h38v-48h-38v48z" />
    <glyph glyph-name="multiply" unicode="&#xd7;" horiz-adv-x="364" 
d="M78 157l-19 19l103 104l-103 103l19 19l104 -103l103 103l19 -19l-103 -103l103 -104l-19 -19l-103 103z" />
    <glyph glyph-name="Oslash" unicode="&#xd8;" 
d="M105 -30l4 33q-47 26 -47 108v477q0 59 24.5 90.5t83.5 31.5q18 0 42 -6l4 26h20q-4 -21 -5 -34q47 -26 47 -108v-477q0 -59 -24.5 -90t-83.5 -31q-18 0 -42 6l-4 -26h-19zM170 19q75 0 75 92v477q0 49 -20 72l-93 -634q18 -7 38 -7zM95 111q0 -49 19 -71l94 633
q-14 7 -38 7q-75 0 -75 -92v-477z" />
    <glyph glyph-name="Ugrave" unicode="&#xd9;" horiz-adv-x="337" 
d="M242 700h33v-586q0 -61 -22.5 -92.5t-83.5 -31.5q-63 0 -85 31.5t-22 92.5v586h34v-586q0 -47 15 -71t58 -24t58 24t15 71v586zM101 872h35l49 -122h-24z" />
    <glyph glyph-name="Uacute" unicode="&#xda;" horiz-adv-x="337" 
d="M242 700h33v-586q0 -61 -22.5 -92.5t-83.5 -31.5q-63 0 -85 31.5t-22 92.5v586h34v-586q0 -47 15 -71t58 -24t58 24t15 71v586zM208 872h35l-60 -122h-24z" />
    <glyph glyph-name="Ucircumflex" unicode="&#xdb;" horiz-adv-x="337" 
d="M242 700h33v-586q0 -61 -22.5 -92.5t-83.5 -31.5q-63 0 -85 31.5t-22 92.5v586h34v-586q0 -47 15 -71t58 -24t58 24t15 71v586zM152 872h32l56 -122h-26l-46 91l-47 -91h-25z" />
    <glyph glyph-name="Udieresis" unicode="&#xdc;" horiz-adv-x="337" 
d="M242 700h33v-586q0 -61 -22.5 -92.5t-83.5 -31.5q-63 0 -85 31.5t-22 92.5v586h34v-586q0 -47 15 -71t58 -24t58 24t15 71v586zM98 798h38v-48h-38v48zM201 798h38v-48h-38v48z" />
    <glyph glyph-name="Yacute" unicode="&#xdd;" horiz-adv-x="295" 
d="M164 0h-33v304l-104 396h35l85 -349l86 349h35l-104 -396v-304zM184 872h35l-60 -122h-24z" />
    <glyph glyph-name="Thorn" unicode="&#xde;" horiz-adv-x="318" 
d="M67 0v700h33v-144h56q68 0 94 -31t26 -90v-153q0 -58 -27 -88.5t-95 -30.5h-54v-163h-33zM100 525v-332h53q52 0 71 22.5t19 69.5v147q0 48 -18.5 70.5t-69.5 22.5h-55z" />
    <glyph glyph-name="germandbls" unicode="&#xdf;" horiz-adv-x="309" 
d="M155 386h-5v30q40 0 54 19.5t14 63.5v114q0 43 -16 61t-51 18q-36 0 -51.5 -18t-15.5 -61v-613h-32v613q0 55 23 81t76 26t76 -26t23 -81v-112q0 -41 -10 -64t-35 -35q52 -20 52 -100v-206q0 -56 -22.5 -81t-76.5 -25q-14 0 -30 4v28q9 -4 29 -4q38 0 53 16.5t15 59.5
v199q0 48 -14 70.5t-56 22.5z" />
    <glyph glyph-name="agrave" unicode="&#xe0;" horiz-adv-x="304" 
d="M252 0h-18l-10 38q-21 -48 -77 -48q-52 0 -76 27.5t-24 84.5v56q0 63 35.5 98.5t137.5 64.5v77q0 41 -15 62.5t-53 21.5q-41 0 -55 -21t-14 -64v-25h-32v26q0 55 21.5 83.5t79.5 28.5t79 -28t21 -84v-398zM79 158v-56q0 -43 16.5 -63.5t54.5 -20.5q35 0 52.5 23t17.5 61
v194q-86 -23 -113.5 -54t-27.5 -84zM88 672h35l49 -122h-24z" />
    <glyph glyph-name="aacute" unicode="&#xe1;" horiz-adv-x="304" 
d="M252 0h-18l-10 38q-21 -48 -77 -48q-52 0 -76 27.5t-24 84.5v56q0 63 35.5 98.5t137.5 64.5v77q0 41 -15 62.5t-53 21.5q-41 0 -55 -21t-14 -64v-25h-32v26q0 55 21.5 83.5t79.5 28.5t79 -28t21 -84v-398zM79 158v-56q0 -43 16.5 -63.5t54.5 -20.5q35 0 52.5 23t17.5 61
v194q-86 -23 -113.5 -54t-27.5 -84zM189 672h35l-60 -122h-24z" />
    <glyph glyph-name="acircumflex" unicode="&#xe2;" horiz-adv-x="304" 
d="M252 0h-18l-10 38q-21 -48 -77 -48q-52 0 -76 27.5t-24 84.5v56q0 63 35.5 98.5t137.5 64.5v77q0 41 -15 62.5t-53 21.5q-41 0 -55 -21t-14 -64v-25h-32v26q0 55 21.5 83.5t79.5 28.5t79 -28t21 -84v-398zM79 158v-56q0 -43 16.5 -63.5t54.5 -20.5q35 0 52.5 23t17.5 61
v194q-86 -23 -113.5 -54t-27.5 -84zM135 672h32l56 -122h-26l-46 91l-47 -91h-25z" />
    <glyph glyph-name="atilde" unicode="&#xe3;" horiz-adv-x="304" 
d="M252 0h-18l-10 38q-21 -48 -77 -48q-52 0 -76 27.5t-24 84.5v56q0 63 35.5 98.5t137.5 64.5v77q0 41 -15 62.5t-53 21.5q-41 0 -55 -21t-14 -64v-25h-32v26q0 55 21.5 83.5t79.5 28.5t79 -28t21 -84v-398zM79 158v-56q0 -43 16.5 -63.5t54.5 -20.5q35 0 52.5 23t17.5 61
v194q-86 -23 -113.5 -54t-27.5 -84zM200 560q-28 0 -52.5 25.5t-42.5 25.5q-19 0 -25.5 -10t-6.5 -31h-25q0 35 12.5 51.5t43.5 16.5q27 0 51 -25.5t43 -25.5q20 0 26.5 10t6.5 31h24q0 -35 -12.5 -51.5t-42.5 -16.5z" />
    <glyph glyph-name="adieresis" unicode="&#xe4;" horiz-adv-x="304" 
d="M252 0h-18l-10 38q-21 -48 -77 -48q-52 0 -76 27.5t-24 84.5v56q0 63 35.5 98.5t137.5 64.5v77q0 41 -15 62.5t-53 21.5q-41 0 -55 -21t-14 -64v-25h-32v26q0 55 21.5 83.5t79.5 28.5t79 -28t21 -84v-398zM79 158v-56q0 -43 16.5 -63.5t54.5 -20.5q35 0 52.5 23t17.5 61
v194q-86 -23 -113.5 -54t-27.5 -84zM81 633h38v-48h-38v48zM184 633h38v-48h-38v48z" />
    <glyph glyph-name="aring" unicode="&#xe5;" horiz-adv-x="304" 
d="M252 0h-18l-10 38q-21 -48 -77 -48q-52 0 -76 27.5t-24 84.5v56q0 63 35.5 98.5t137.5 64.5v77q0 41 -15 62.5t-53 21.5q-41 0 -55 -21t-14 -64v-25h-32v26q0 55 21.5 83.5t79.5 28.5t79 -28t21 -84v-398zM79 158v-56q0 -43 16.5 -63.5t54.5 -20.5q35 0 52.5 23t17.5 61
v194q-86 -23 -113.5 -54t-27.5 -84zM217 617q0 -74 -66 -74q-65 0 -65 74q0 76 65 76q66 0 66 -76zM192 617q0 54 -41 54q-40 0 -40 -54q0 -52 40 -52q41 0 41 52z" />
    <glyph glyph-name="ae" unicode="&#xe6;" horiz-adv-x="478" 
d="M395 172h31v-65q0 -57 -22.5 -87t-79.5 -30q-71 0 -87 53q-18 -53 -87 -53q-58 0 -80.5 30t-22.5 87v51q0 63 35.5 98.5t137.5 64.5v77q0 42 -14.5 63t-54.5 21q-39 0 -53.5 -21t-14.5 -64v-25h-32v26q0 55 21.5 83.5t77.5 28.5q71 0 87 -52q19 52 88 52q58 0 79.5 -30
t21.5 -88v-133h-173v-152q0 -45 15.5 -67t55.5 -22t55.5 22.5t15.5 66.5v65zM220 107v189q-86 -23 -113.5 -54t-27.5 -84v-51q0 -44 15.5 -66.5t55.5 -22.5t55 22.5t15 66.5zM253 392v-107h141v107q0 45 -15 67.5t-55 22.5t-55.5 -22.5t-15.5 -67.5z" />
    <glyph glyph-name="ccedilla" unicode="&#xe7;" horiz-adv-x="304" 
d="M129 -65l14 55q-51 3 -71 32.5t-20 84.5v285q0 57 23 87.5t80 30.5t79.5 -30.5t22.5 -87.5v-54h-32v54q0 45 -15 67.5t-55 22.5t-55.5 -22.5t-15.5 -67.5v-285q0 -44 15.5 -66.5t55.5 -22.5t55 22.5t15 66.5v65h32v-65q0 -55 -20 -84.5t-72 -32.5l-9 -34q70 -5 70 -63
q0 -63 -84 -63h-42l6 23h35q57 0 57 41t-57 41h-12z" />
    <glyph glyph-name="egrave" unicode="&#xe8;" horiz-adv-x="309" 
d="M225 172h32v-65q0 -57 -22.5 -87t-79.5 -30q-58 0 -80.5 30t-22.5 87v285q0 57 23 87.5t80 30.5t79.5 -30.5t22.5 -87.5v-134h-173v-151q0 -44 15.5 -66.5t55.5 -22.5t55 22.5t15 66.5v65zM84 392v-107h141v101q0 49 -14.5 72.5t-55.5 23.5q-40 0 -55.5 -22.5
t-15.5 -67.5zM111 672h35l49 -122h-24z" />
    <glyph glyph-name="eacute" unicode="&#xe9;" horiz-adv-x="309" 
d="M225 172h32v-65q0 -57 -22.5 -87t-79.5 -30q-58 0 -80.5 30t-22.5 87v285q0 57 23 87.5t80 30.5t79.5 -30.5t22.5 -87.5v-134h-173v-151q0 -44 15.5 -66.5t55.5 -22.5t55 22.5t15 66.5v65zM84 392v-107h141v101q0 49 -14.5 72.5t-55.5 23.5q-40 0 -55.5 -22.5
t-15.5 -67.5zM192 672h35l-60 -122h-24z" />
    <glyph glyph-name="ecircumflex" unicode="&#xea;" horiz-adv-x="309" 
d="M225 172h32v-65q0 -57 -22.5 -87t-79.5 -30q-58 0 -80.5 30t-22.5 87v285q0 57 23 87.5t80 30.5t79.5 -30.5t22.5 -87.5v-134h-173v-151q0 -44 15.5 -66.5t55.5 -22.5t55 22.5t15 66.5v65zM84 392v-107h141v101q0 49 -14.5 72.5t-55.5 23.5q-40 0 -55.5 -22.5
t-15.5 -67.5zM138 672h32l56 -122h-26l-46 91l-47 -91h-25z" />
    <glyph glyph-name="edieresis" unicode="&#xeb;" horiz-adv-x="309" 
d="M225 172h32v-65q0 -57 -22.5 -87t-79.5 -30q-58 0 -80.5 30t-22.5 87v285q0 57 23 87.5t80 30.5t79.5 -30.5t22.5 -87.5v-134h-173v-151q0 -44 15.5 -66.5t55.5 -22.5t55 22.5t15 66.5v65zM84 392v-107h141v101q0 49 -14.5 72.5t-55.5 23.5q-40 0 -55.5 -22.5
t-15.5 -67.5zM83 633h38v-48h-38v48zM186 633h38v-48h-38v48z" />
    <glyph glyph-name="igrave" unicode="&#xec;" horiz-adv-x="146" 
d="M57 500h32v-500h-32v500zM1 672h35l49 -122h-24z" />
    <glyph glyph-name="iacute" unicode="&#xed;" horiz-adv-x="146" 
d="M57 500h32v-500h-32v500zM111 672h35l-60 -122h-24z" />
    <glyph glyph-name="icircumflex" unicode="&#xee;" horiz-adv-x="146" 
d="M57 500h32v-500h-32v500zM57 672h32l56 -122h-26l-46 91l-47 -91h-25z" />
    <glyph glyph-name="idieresis" unicode="&#xef;" horiz-adv-x="146" 
d="M57 500h32v-500h-32v500zM3 633h38v-48h-38v48zM106 633h38v-48h-38v48z" />
    <glyph glyph-name="eth" unicode="&#xf0;" horiz-adv-x="335" 
d="M151 540l-11 21l52 24q-27 55 -79 115h38q48 -60 69 -102l52 25l11 -21l-53 -25q38 -84 38 -216v-250q0 -59 -24.5 -90t-83.5 -31t-83.5 31t-24.5 90v181q0 60 23 88.5t77 28.5q49 0 83 -39q0 113 -34 194zM157 380q-39 0 -55.5 -21t-16.5 -67v-181q0 -92 75 -92t75 92
v221q-25 48 -78 48z" />
    <glyph glyph-name="ntilde" unicode="&#xf1;" horiz-adv-x="316" 
d="M264 0h-32v397q0 85 -69 85q-35 0 -53.5 -23.5t-18.5 -63.5v-395h-32v500h19l10 -42q23 52 80 52q52 0 74 -27.5t22 -85.5v-397zM209 560q-28 0 -52.5 25.5t-42.5 25.5q-19 0 -25.5 -10t-6.5 -31h-25q0 35 12.5 51.5t43.5 16.5q27 0 51 -25.5t43 -25.5q20 0 26.5 10
t6.5 31h24q0 -35 -12.5 -51.5t-42.5 -16.5z" />
    <glyph glyph-name="ograve" unicode="&#xf2;" horiz-adv-x="309" 
d="M155 510q57 0 79.5 -30.5t22.5 -87.5v-285q0 -58 -22 -87.5t-80 -29.5t-80.5 30t-22.5 87v285q0 57 23 87.5t80 30.5zM155 18q40 0 55 22.5t15 66.5v285q0 45 -15 67.5t-55 22.5t-55.5 -22.5t-15.5 -67.5v-285q0 -44 15.5 -66.5t55.5 -22.5zM95 672h35l49 -122h-24z" />
    <glyph glyph-name="oacute" unicode="&#xf3;" horiz-adv-x="309" 
d="M155 510q57 0 79.5 -30.5t22.5 -87.5v-285q0 -58 -22 -87.5t-80 -29.5t-80.5 30t-22.5 87v285q0 57 23 87.5t80 30.5zM155 18q40 0 55 22.5t15 66.5v285q0 45 -15 67.5t-55 22.5t-55.5 -22.5t-15.5 -67.5v-285q0 -44 15.5 -66.5t55.5 -22.5zM192 672h35l-60 -122h-24z
" />
    <glyph glyph-name="ocircumflex" unicode="&#xf4;" horiz-adv-x="309" 
d="M155 510q57 0 79.5 -30.5t22.5 -87.5v-285q0 -58 -22 -87.5t-80 -29.5t-80.5 30t-22.5 87v285q0 57 23 87.5t80 30.5zM155 18q40 0 55 22.5t15 66.5v285q0 45 -15 67.5t-55 22.5t-55.5 -22.5t-15.5 -67.5v-285q0 -44 15.5 -66.5t55.5 -22.5zM138 672h32l56 -122h-26
l-46 91l-47 -91h-25z" />
    <glyph glyph-name="otilde" unicode="&#xf5;" horiz-adv-x="311" 
d="M157 510q57 0 79.5 -30.5t22.5 -87.5v-285q0 -58 -22 -87.5t-80 -29.5t-80.5 30t-22.5 87v285q0 57 23 87.5t80 30.5zM157 18q40 0 55 22.5t15 66.5v285q0 45 -15 67.5t-55 22.5t-55.5 -22.5t-15.5 -67.5v-285q0 -44 15.5 -66.5t55.5 -22.5zM204 560q-28 0 -52.5 25.5
t-42.5 25.5q-19 0 -25.5 -10t-6.5 -31h-25q0 35 12.5 51.5t43.5 16.5q27 0 51 -25.5t43 -25.5q20 0 26.5 10t6.5 31h24q0 -35 -12.5 -51.5t-42.5 -16.5z" />
    <glyph glyph-name="odieresis" unicode="&#xf6;" horiz-adv-x="309" 
d="M155 510q57 0 79.5 -30.5t22.5 -87.5v-285q0 -58 -22 -87.5t-80 -29.5t-80.5 30t-22.5 87v285q0 57 23 87.5t80 30.5zM155 18q40 0 55 22.5t15 66.5v285q0 45 -15 67.5t-55 22.5t-55.5 -22.5t-15.5 -67.5v-285q0 -44 15.5 -66.5t55.5 -22.5zM84 633h38v-48h-38v48z
M187 633h38v-48h-38v48z" />
    <glyph glyph-name="divide" unicode="&#xf7;" horiz-adv-x="409" 
d="M59 293h290v-26h-290v26zM182 183h45v-55h-45v55zM182 431h45v-55h-45v55z" />
    <glyph glyph-name="oslash" unicode="&#xf8;" horiz-adv-x="309" 
d="M155 510q23 0 42 -7l6 27h21l-8 -36q41 -25 41 -102v-285q0 -58 -22 -87.5t-80 -29.5q-28 0 -43 7l-6 -27h-20l7 35q-41 25 -41 102v285q0 57 23 87.5t80 30.5zM84 392v-285q0 -47 16 -68l92 435q-16 8 -37 8q-40 0 -55.5 -22.5t-15.5 -67.5zM155 18q40 0 55 22.5
t15 66.5v285q0 47 -16 68l-91 -435q13 -7 37 -7z" />
    <glyph glyph-name="ugrave" unicode="&#xf9;" horiz-adv-x="319" 
d="M57 500h32v-397q0 -85 70 -85q35 0 53 23t18 63v396h32v-500h-18l-10 41q-23 -51 -80 -51q-52 0 -74.5 27.5t-22.5 85.5v397zM117 672h35l49 -122h-24z" />
    <glyph glyph-name="uacute" unicode="&#xfa;" horiz-adv-x="319" 
d="M57 500h32v-397q0 -85 70 -85q35 0 53 23t18 63v396h32v-500h-18l-10 41q-23 -51 -80 -51q-52 0 -74.5 27.5t-22.5 85.5v397zM196 672h35l-60 -122h-24z" />
    <glyph glyph-name="ucircumflex" unicode="&#xfb;" horiz-adv-x="319" 
d="M57 500h32v-397q0 -85 70 -85q35 0 53 23t18 63v396h32v-500h-18l-10 41q-23 -51 -80 -51q-52 0 -74.5 27.5t-22.5 85.5v397zM143 672h32l56 -122h-26l-46 91l-47 -91h-25z" />
    <glyph glyph-name="udieresis" unicode="&#xfc;" horiz-adv-x="319" 
d="M57 500h32v-397q0 -85 70 -85q35 0 53 23t18 63v396h32v-500h-18l-10 41q-23 -51 -80 -51q-52 0 -74.5 27.5t-22.5 85.5v397zM89 633h38v-48h-38v48zM192 633h38v-48h-38v48z" />
    <glyph glyph-name="yacute" unicode="&#xfd;" horiz-adv-x="308" 
d="M61 -170q-21 0 -34 5v29q13 -6 34 -6q54 0 69 69l15 72l-105 501h34l86 -437l87 437h34l-120 -576q-10 -49 -32.5 -71.5t-67.5 -22.5zM200 672h35l-60 -122h-24z" />
    <glyph glyph-name="thorn" unicode="&#xfe;" horiz-adv-x="314" 
d="M230 105v280q0 51 -14 75t-53 24q-37 0 -55.5 -23.5t-18.5 -65.5v-274q0 -103 74 -103q38 0 52.5 21t14.5 66zM57 -160v870h32v-246q23 48 79 48q51 0 72.5 -28t21.5 -87v-292q0 -59 -22 -87t-72 -28q-56 0 -79 48v-198h-32z" />
    <glyph glyph-name="ydieresis" unicode="&#xff;" horiz-adv-x="308" 
d="M61 -170q-21 0 -34 5v29q13 -6 34 -6q54 0 69 69l15 72l-105 501h34l86 -437l87 437h34l-120 -576q-10 -49 -32.5 -71.5t-67.5 -22.5zM89 633h38v-48h-38v48zM192 633h38v-48h-38v48z" />
    <glyph glyph-name="Amacron" unicode="&#x100;" horiz-adv-x="311" 
d="M175 700l104 -700h-35l-25 176h-127l-25 -176h-35l105 700h38zM156 635l-61 -429h120zM70 750v26h170v-26h-170z" />
    <glyph glyph-name="amacron" unicode="&#x101;" horiz-adv-x="304" 
d="M252 0h-18l-10 38q-21 -48 -77 -48q-52 0 -76 27.5t-24 84.5v56q0 63 35.5 98.5t137.5 64.5v77q0 41 -15 62.5t-53 21.5q-41 0 -55 -21t-14 -64v-25h-32v26q0 55 21.5 83.5t79.5 28.5t79 -28t21 -84v-398zM79 158v-56q0 -43 16.5 -63.5t54.5 -20.5q35 0 52.5 23t17.5 61
v194q-86 -23 -113.5 -54t-27.5 -84zM66 593v26h170v-26h-170z" />
    <glyph glyph-name="Abreve" unicode="&#x102;" horiz-adv-x="311" 
d="M175 700l104 -700h-35l-25 176h-127l-25 -176h-35l105 700h38zM156 635l-61 -429h120zM205 838h25q0 -98 -75 -98t-75 98h24q0 -71 51 -71q50 0 50 71z" />
    <glyph glyph-name="abreve" unicode="&#x103;" horiz-adv-x="304" 
d="M252 0h-18l-10 38q-21 -48 -77 -48q-52 0 -76 27.5t-24 84.5v56q0 63 35.5 98.5t137.5 64.5v77q0 41 -15 62.5t-53 21.5q-41 0 -55 -21t-14 -64v-25h-32v26q0 55 21.5 83.5t79.5 28.5t79 -28t21 -84v-398zM79 158v-56q0 -43 16.5 -63.5t54.5 -20.5q35 0 52.5 23t17.5 61
v194q-86 -23 -113.5 -54t-27.5 -84zM201 650h25q0 -98 -75 -98t-75 98h24q0 -71 51 -71q50 0 50 71z" />
    <glyph glyph-name="Aogonek" unicode="&#x104;" horiz-adv-x="311" 
d="M279 -170h-12q-72 0 -72 62q0 56 50 101l-26 183h-127l-25 -176h-35l105 700h38l104 -700q-25 -19 -40.5 -47t-15.5 -54q0 -22 10.5 -31t32.5 -9h13v-29zM156 635l-61 -429h120z" />
    <glyph glyph-name="aogonek" unicode="&#x105;" horiz-adv-x="304" 
d="M252 -170h-12q-72 0 -72 62t65 113l-9 33q-21 -48 -77 -48q-52 0 -76 27.5t-24 84.5v56q0 63 35.5 98.5t137.5 64.5v77q0 41 -15 62.5t-53 21.5q-41 0 -55 -21t-14 -64v-25h-32v26q0 55 21.5 83.5t79.5 28.5t79 -28t21 -84v-398q-25 -19 -40 -47t-15 -54q0 -22 10 -31
t33 -9h12v-29zM79 158v-56q0 -43 16.5 -63.5t54.5 -20.5q35 0 52.5 23t17.5 61v194q-86 -23 -113.5 -54t-27.5 -84z" />
    <glyph glyph-name="Cacute" unicode="&#x106;" horiz-adv-x="330" 
d="M246 200h32v-89q0 -58 -24.5 -89.5t-83.5 -31.5t-83.5 31t-24.5 90v477q0 59 24.5 90.5t83.5 31.5q108 0 108 -122v-78h-32v78q0 92 -76 92q-75 0 -75 -92v-477q0 -92 75 -92q76 0 76 92v89zM205 872h35l-60 -122h-24z" />
    <glyph glyph-name="cacute" unicode="&#x107;" horiz-adv-x="304" 
d="M225 172h32v-65q0 -57 -22.5 -87t-79.5 -30q-58 0 -80.5 30t-22.5 87v285q0 57 23 87.5t80 30.5t79.5 -30.5t22.5 -87.5v-54h-32v54q0 45 -15 67.5t-55 22.5t-55.5 -22.5t-15.5 -67.5v-285q0 -44 15.5 -66.5t55.5 -22.5t55 22.5t15 66.5v65zM192 672h35l-60 -122h-24z
" />
    <glyph glyph-name="Ccircumflex" unicode="&#x108;" horiz-adv-x="330" 
d="M246 200h32v-89q0 -58 -24.5 -89.5t-83.5 -31.5t-83.5 31t-24.5 90v477q0 59 24.5 90.5t83.5 31.5q108 0 108 -122v-78h-32v78q0 92 -76 92q-75 0 -75 -92v-477q0 -92 75 -92q76 0 76 92v89zM153 872h32l56 -122h-26l-46 91l-47 -91h-25z" />
    <glyph glyph-name="ccircumflex" unicode="&#x109;" horiz-adv-x="304" 
d="M225 172h32v-65q0 -57 -22.5 -87t-79.5 -30q-58 0 -80.5 30t-22.5 87v285q0 57 23 87.5t80 30.5t79.5 -30.5t22.5 -87.5v-54h-32v54q0 45 -15 67.5t-55 22.5t-55.5 -22.5t-15.5 -67.5v-285q0 -44 15.5 -66.5t55.5 -22.5t55 22.5t15 66.5v65zM139 672h32l56 -122h-26
l-46 91l-47 -91h-25z" />
    <glyph glyph-name="Cdotaccent" unicode="&#x10a;" horiz-adv-x="330" 
d="M246 200h32v-89q0 -58 -24.5 -89.5t-83.5 -31.5t-83.5 31t-24.5 90v477q0 59 24.5 90.5t83.5 31.5q108 0 108 -122v-78h-32v78q0 92 -76 92q-75 0 -75 -92v-477q0 -92 75 -92q76 0 76 92v89zM150 798h38v-48h-38v48z" />
    <glyph glyph-name="cdotaccent" unicode="&#x10b;" horiz-adv-x="304" 
d="M225 172h32v-65q0 -57 -22.5 -87t-79.5 -30q-58 0 -80.5 30t-22.5 87v285q0 57 23 87.5t80 30.5t79.5 -30.5t22.5 -87.5v-54h-32v54q0 45 -15 67.5t-55 22.5t-55.5 -22.5t-15.5 -67.5v-285q0 -44 15.5 -66.5t55.5 -22.5t55 22.5t15 66.5v65zM136 633h38v-48h-38v48z" />
    <glyph glyph-name="Ccaron" unicode="&#x10c;" horiz-adv-x="330" 
d="M246 200h32v-89q0 -58 -24.5 -89.5t-83.5 -31.5t-83.5 31t-24.5 90v477q0 59 24.5 90.5t83.5 31.5q108 0 108 -122v-78h-32v78q0 92 -76 92q-75 0 -75 -92v-477q0 -92 75 -92q76 0 76 92v89zM186 750h-32l-56 122h25l47 -91l46 91h26z" />
    <glyph glyph-name="ccaron" unicode="&#x10d;" horiz-adv-x="304" 
d="M225 172h32v-65q0 -57 -22.5 -87t-79.5 -30q-58 0 -80.5 30t-22.5 87v285q0 57 23 87.5t80 30.5t79.5 -30.5t22.5 -87.5v-54h-32v54q0 45 -15 67.5t-55 22.5t-55.5 -22.5t-15.5 -67.5v-285q0 -44 15.5 -66.5t55.5 -22.5t55 22.5t15 66.5v65zM171 550h-32l-56 122h25
l47 -91l46 91h26z" />
    <glyph glyph-name="Dcaron" unicode="&#x10e;" horiz-adv-x="346" 
d="M67 0v700h95q68 0 95 -31t27 -90v-458q0 -59 -26 -90t-94 -31h-97zM100 669v-638h63q49 0 68.5 23t19.5 67v458q0 44 -20 67t-70 23h-61zM182 750h-32l-56 122h25l47 -91l46 91h26z" />
    <glyph glyph-name="dcaron" unicode="&#x10f;" horiz-adv-x="317" 
d="M84 394v-292q0 -84 70 -84q35 0 53 23.5t18 63.5v284q0 93 -73 93q-37 0 -52.5 -21.5t-15.5 -66.5zM52 103v291q0 60 21.5 88t73.5 28q55 0 78 -48v248h32v-710h-18l-10 41q-22 -51 -80 -51q-52 0 -74.5 27.5t-22.5 85.5zM297 710h39l-22 -160h-17v160z" />
    <glyph glyph-name="Dcroat" unicode="&#x110;" horiz-adv-x="350" 
d="M15 341v25h54v334h95q68 0 95 -31t27 -90v-458q0 -59 -26 -90t-94 -31h-97v341h-54zM102 669v-303h60v-25h-60v-311h63q53 0 70.5 27.5t17.5 80.5v432q0 49 -19.5 74t-70.5 25h-61z" />
    <glyph glyph-name="dcroat" unicode="&#x111;" horiz-adv-x="314" 
d="M142 593v26h83v91h32v-710h-18l-10 41q-22 -51 -80 -51q-52 0 -74.5 27.5t-22.5 85.5v291q0 60 21.5 88t73.5 28q55 0 78 -48v131h-83zM84 394v-286q0 -90 70 -90q35 0 53 23.5t18 63.5v284q0 93 -73 93q-37 0 -52.5 -21.5t-15.5 -66.5z" />
    <glyph glyph-name="Emacron" unicode="&#x112;" horiz-adv-x="300" 
d="M100 338v-307h153v-31h-186v700h186v-31h-153v-301h131v-30h-131zM75 750v26h170v-26h-170z" />
    <glyph glyph-name="emacron" unicode="&#x113;" horiz-adv-x="309" 
d="M225 172h32v-65q0 -57 -22.5 -87t-79.5 -30q-58 0 -80.5 30t-22.5 87v285q0 57 23 87.5t80 30.5t79.5 -30.5t22.5 -87.5v-134h-173v-151q0 -44 15.5 -66.5t55.5 -22.5t55 22.5t15 66.5v65zM84 392v-107h141v101q0 49 -14.5 72.5t-55.5 23.5q-40 0 -55.5 -22.5
t-15.5 -67.5zM69 593v26h170v-26h-170z" />
    <glyph glyph-name="Ebreve" unicode="&#x114;" horiz-adv-x="300" 
d="M100 338v-307h153v-31h-186v700h186v-31h-153v-301h131v-30h-131zM210 838h25q0 -98 -75 -98t-75 98h24q0 -71 51 -71q50 0 50 71z" />
    <glyph glyph-name="ebreve" unicode="&#x115;" horiz-adv-x="309" 
d="M225 172h32v-65q0 -57 -22.5 -87t-79.5 -30q-58 0 -80.5 30t-22.5 87v285q0 57 23 87.5t80 30.5t79.5 -30.5t22.5 -87.5v-134h-173v-151q0 -44 15.5 -66.5t55.5 -22.5t55 22.5t15 66.5v65zM84 392v-107h141v101q0 49 -14.5 72.5t-55.5 23.5q-40 0 -55.5 -22.5
t-15.5 -67.5zM204 650h25q0 -98 -75 -98t-75 98h24q0 -71 51 -71q50 0 50 71z" />
    <glyph glyph-name="Edotaccent" unicode="&#x116;" horiz-adv-x="300" 
d="M100 338v-307h153v-31h-186v700h186v-31h-153v-301h131v-30h-131zM144 798h38v-48h-38v48z" />
    <glyph glyph-name="edotaccent" unicode="&#x117;" horiz-adv-x="309" 
d="M225 172h32v-65q0 -57 -22.5 -87t-79.5 -30q-58 0 -80.5 30t-22.5 87v285q0 57 23 87.5t80 30.5t79.5 -30.5t22.5 -87.5v-134h-173v-151q0 -44 15.5 -66.5t55.5 -22.5t55 22.5t15 66.5v65zM84 392v-107h141v101q0 49 -14.5 72.5t-55.5 23.5q-40 0 -55.5 -22.5
t-15.5 -67.5zM135 633h38v-48h-38v48z" />
    <glyph glyph-name="Eogonek" unicode="&#x118;" horiz-adv-x="300" 
d="M253 -170h-12q-72 0 -72 62q0 28 16 57.5t42 50.5h-160v700h186v-31h-153v-301h131v-30h-131v-307h153v-31q-25 -19 -40.5 -47t-15.5 -54q0 -22 10.5 -31t32.5 -9h13v-29z" />
    <glyph glyph-name="eogonek" unicode="&#x119;" horiz-adv-x="309" 
d="M206 -170h-12q-72 0 -72 62q0 54 47 99q-2 0 -7 -0.5t-7 -0.5q-58 0 -80.5 30t-22.5 87v285q0 57 23 87.5t80 30.5t79.5 -30.5t22.5 -87.5v-134h-173v-151q0 -44 15.5 -66.5t55.5 -22.5t55 22.5t15 66.5v65h32v-65q0 -88 -53 -109q-24 -19 -38.5 -46t-14.5 -53
q0 -22 10 -31t33 -9h12v-29zM84 392v-107h141v101q0 49 -14.5 72.5t-55.5 23.5q-40 0 -55.5 -22.5t-15.5 -67.5z" />
    <glyph glyph-name="Ecaron" unicode="&#x11a;" horiz-adv-x="300" 
d="M100 338v-307h153v-31h-186v700h186v-31h-153v-301h131v-30h-131zM176 750h-32l-56 122h25l47 -91l46 91h26z" />
    <glyph glyph-name="ecaron" unicode="&#x11b;" horiz-adv-x="309" 
d="M225 172h32v-65q0 -57 -22.5 -87t-79.5 -30q-58 0 -80.5 30t-22.5 87v285q0 57 23 87.5t80 30.5t79.5 -30.5t22.5 -87.5v-134h-173v-151q0 -44 15.5 -66.5t55.5 -22.5t55 22.5t15 66.5v65zM84 392v-107h141v101q0 49 -14.5 72.5t-55.5 23.5q-40 0 -55.5 -22.5
t-15.5 -67.5zM170 550h-32l-56 122h25l47 -91l46 91h26z" />
    <glyph glyph-name="Gcircumflex" unicode="&#x11c;" 
d="M245 110v228h-75v30h108v-258q0 -58 -24 -89t-84 -31t-84 31t-24 89v480q0 58 24 89t84 31q59 0 83.5 -31t24.5 -89v-80h-33v80q0 90 -75 90t-75 -90v-480q0 -91 75 -91q41 0 58 23.5t17 67.5zM154 872h32l56 -122h-26l-46 91l-47 -91h-25z" />
    <glyph glyph-name="gcircumflex" unicode="&#x11d;" horiz-adv-x="313" 
d="M153 116q-48 0 -48 -31q0 -29 46 -30h2q118 0 118 -108v-13q0 -104 -117 -104t-117 104v13q0 83 71 102q-28 10 -28 36q0 27 29 37q-58 19 -58 112v158q0 58 22 88t80 30q25 0 46 -8q19 57 68 57q16 0 29 -5v-26q-15 5 -30 5q-36 0 -51 -38q41 -26 41 -103v-158
q0 -57 -22.5 -87.5t-80.5 -30.5zM153 143q41 0 56 23t15 68v158q0 45 -15 67.5t-56 22.5q-40 0 -55 -22.5t-15 -67.5v-158q0 -45 15 -68t55 -23zM154 -142q86 0 86 78v13q0 81 -87 81q-85 0 -85 -81v-13q0 -78 86 -78zM133 672h32l56 -122h-26l-46 91l-47 -91h-25z" />
    <glyph glyph-name="Gbreve" unicode="&#x11e;" 
d="M245 110v228h-75v30h108v-258q0 -58 -24 -89t-84 -31t-84 31t-24 89v480q0 58 24 89t84 31q59 0 83.5 -31t24.5 -89v-80h-33v80q0 90 -75 90t-75 -90v-480q0 -91 75 -91q41 0 58 23.5t17 67.5zM220 838h25q0 -98 -75 -98t-75 98h24q0 -71 51 -71q50 0 50 71z" />
    <glyph glyph-name="gbreve" unicode="&#x11f;" horiz-adv-x="313" 
d="M153 116q-48 0 -48 -31q0 -29 46 -30h2q118 0 118 -108v-13q0 -104 -117 -104t-117 104v13q0 83 71 102q-28 10 -28 36q0 27 29 37q-58 19 -58 112v158q0 58 22 88t80 30q25 0 46 -8q19 57 68 57q16 0 29 -5v-26q-15 5 -30 5q-36 0 -51 -38q41 -26 41 -103v-158
q0 -57 -22.5 -87.5t-80.5 -30.5zM153 143q41 0 56 23t15 68v158q0 45 -15 67.5t-56 22.5q-40 0 -55 -22.5t-15 -67.5v-158q0 -45 15 -68t55 -23zM154 -142q86 0 86 78v13q0 81 -87 81q-85 0 -85 -81v-13q0 -78 86 -78zM202 650h25q0 -98 -75 -98t-75 98h24q0 -71 51 -71
q50 0 50 71z" />
    <glyph glyph-name="Gdotaccent" unicode="&#x120;" 
d="M245 110v228h-75v30h108v-258q0 -58 -24 -89t-84 -31t-84 31t-24 89v480q0 58 24 89t84 31q59 0 83.5 -31t24.5 -89v-80h-33v80q0 90 -75 90t-75 -90v-480q0 -91 75 -91q41 0 58 23.5t17 67.5zM151 798h38v-48h-38v48z" />
    <glyph glyph-name="gdotaccent" unicode="&#x121;" horiz-adv-x="313" 
d="M153 116q-48 0 -48 -31q0 -29 46 -30h2q118 0 118 -108v-13q0 -104 -117 -104t-117 104v13q0 83 71 102q-28 10 -28 36q0 27 29 37q-58 19 -58 112v158q0 58 22 88t80 30q25 0 46 -8q19 57 68 57q16 0 29 -5v-26q-15 5 -30 5q-36 0 -51 -38q41 -26 41 -103v-158
q0 -57 -22.5 -87.5t-80.5 -30.5zM153 143q41 0 56 23t15 68v158q0 45 -15 67.5t-56 22.5q-40 0 -55 -22.5t-15 -67.5v-158q0 -45 15 -68t55 -23zM154 -142q86 0 86 78v13q0 81 -87 81q-85 0 -85 -81v-13q0 -78 86 -78zM133 633h38v-48h-38v48z" />
    <glyph glyph-name="Gcommaaccent" unicode="&#x122;" 
d="M245 110v228h-75v30h108v-258q0 -58 -24 -89t-84 -31t-84 31t-24 89v480q0 58 24 89t84 31q59 0 83.5 -31t24.5 -89v-80h-33v80q0 90 -75 90t-75 -90v-480q0 -91 75 -91q41 0 58 23.5t17 67.5zM153 -48h43l-20 -122h-23v122z" />
    <glyph glyph-name="gcommaaccent" unicode="&#x123;" horiz-adv-x="313" 
d="M153 116q-48 0 -48 -31q0 -29 46 -30h2q118 0 118 -108v-13q0 -104 -117 -104t-117 104v13q0 83 71 102q-28 10 -28 36q0 27 29 37q-58 19 -58 112v158q0 58 22 88t80 30q25 0 46 -8q19 57 68 57q16 0 29 -5v-26q-15 5 -30 5q-36 0 -51 -38q41 -26 41 -103v-158
q0 -57 -22.5 -87.5t-80.5 -30.5zM153 143q41 0 56 23t15 68v158q0 45 -15 67.5t-56 22.5q-40 0 -55 -22.5t-15 -67.5v-158q0 -45 15 -68t55 -23zM154 -142q86 0 86 78v13q0 81 -87 81q-85 0 -85 -81v-13q0 -78 86 -78zM171 548h-43l20 122h23v-122z" />
    <glyph glyph-name="Hcircumflex" unicode="&#x124;" horiz-adv-x="351" 
d="M100 338v-338h-33v700h33v-332h151v332h33v-700h-33v338h-151zM159 872h32l56 -122h-26l-46 91l-47 -91h-25z" />
    <glyph glyph-name="hcircumflex" unicode="&#x125;" horiz-adv-x="314" 
d="M262 0h-32v397q0 43 -16 64t-53 21q-35 0 -53.5 -24t-18.5 -63v-395h-32v710h32v-250q23 50 77 50q52 0 74 -27.5t22 -85.5v-397zM166 672h32l56 -122h-26l-46 91l-47 -91h-25z" />
    <glyph glyph-name="Hbar" unicode="&#x126;" horiz-adv-x="351" 
d="M28 518v22h39v160h33v-160h151v160h33v-160h39v-22h-39v-518h-33v338h-151v-338h-33v518h-39zM100 368h151v150h-151v-150z" />
    <glyph glyph-name="hbar" unicode="&#x127;" horiz-adv-x="314" 
d="M262 0h-32v397q0 85 -70 85q-37 0 -54 -28.5t-17 -72.5v-381h-32v710h32v-91h157v-26h-157v-133q23 50 77 50q52 0 74 -27.5t22 -85.5v-397z" />
    <glyph glyph-name="Itilde" unicode="&#x128;" horiz-adv-x="167" 
d="M67 0v700h33v-700h-33zM132 750q-28 0 -52.5 25.5t-42.5 25.5q-19 0 -25.5 -10t-6.5 -31h-25q0 35 12.5 51.5t43.5 16.5q27 0 51 -25.5t43 -25.5q20 0 26.5 10t6.5 31h24q0 -35 -12.5 -51.5t-42.5 -16.5z" />
    <glyph glyph-name="itilde" unicode="&#x129;" horiz-adv-x="146" 
d="M57 500h32v-500h-32v500zM122 560q-28 0 -52.5 25.5t-42.5 25.5q-19 0 -25.5 -10t-6.5 -31h-25q0 35 12.5 51.5t43.5 16.5q27 0 51 -25.5t43 -25.5q20 0 26.5 10t6.5 31h24q0 -35 -12.5 -51.5t-42.5 -16.5z" />
    <glyph glyph-name="Imacron" unicode="&#x12a;" horiz-adv-x="167" 
d="M67 0v700h33v-700h-33zM-1 750v26h170v-26h-170z" />
    <glyph glyph-name="imacron" unicode="&#x12b;" horiz-adv-x="146" 
d="M57 500h32v-500h-32v500zM-12 593v26h170v-26h-170z" />
    <glyph glyph-name="Ibreve" unicode="&#x12c;" horiz-adv-x="167" 
d="M67 0v700h33v-700h-33zM134 838h25q0 -98 -75 -98t-75 98h24q0 -71 51 -71q50 0 50 71z" />
    <glyph glyph-name="ibreve" unicode="&#x12d;" horiz-adv-x="146" 
d="M57 500h32v-500h-32v500zM123 650h25q0 -98 -75 -98t-75 98h24q0 -71 51 -71q50 0 50 71z" />
    <glyph glyph-name="Iogonek" unicode="&#x12e;" horiz-adv-x="167" 
d="M16 -108q0 56 51 102v706h33v-700q-25 -19 -40.5 -47t-15.5 -54q0 -22 10.5 -31t32.5 -9h13v-29h-12q-72 0 -72 62z" />
    <glyph glyph-name="iogonek" unicode="&#x12f;" horiz-adv-x="150" 
d="M91 -170h-12q-72 0 -72 62q0 57 52 103v505h32v-500q-25 -19 -40.5 -47t-15.5 -54q0 -22 10.5 -31t32.5 -9h13v-29zM57 649h36v-46h-36v46z" />
    <glyph glyph-name="Idotaccent" unicode="&#x130;" horiz-adv-x="167" 
d="M67 0v700h33v-700h-33zM65 798h38v-48h-38v48z" />
    <glyph glyph-name="dotlessi" unicode="&#x131;" horiz-adv-x="146" 
d="M57 500h32v-500h-32v500z" />
    <glyph glyph-name="Jcircumflex" unicode="&#x134;" horiz-adv-x="318" 
d="M218 700h33v-589q0 -62 -21.5 -91.5t-82.5 -29.5q-60 0 -82.5 31t-22.5 90v89h33v-89q0 -46 15 -69t57 -23t56.5 22.5t14.5 69.5v589zM216 872h32l56 -122h-26l-46 91l-47 -91h-25z" />
    <glyph glyph-name="jcircumflex" unicode="&#x135;" horiz-adv-x="156" 
d="M-28 -165v28q13 -5 33 -5q35 0 47.5 16t12.5 61v565h32v-566q0 -57 -19.5 -80.5t-71.5 -23.5q-19 0 -34 5zM64 672h32l56 -122h-26l-46 91l-47 -91h-25z" />
    <glyph glyph-name="Kcommaaccent" unicode="&#x136;" horiz-adv-x="323" 
d="M100 700v-332l151 332h38l-161 -346l168 -354h-38l-158 340v-340h-33v700h33zM142 -48h43l-20 -122h-23v122z" />
    <glyph glyph-name="kcommaaccent" unicode="&#x137;" horiz-adv-x="274" 
d="M89 710v-436l125 226h38l-136 -239l146 -261h-37l-136 247v-247h-32v710h32zM118 -48h43l-20 -122h-23v122z" />
    <glyph glyph-name="kgreenlandic" unicode="&#x138;" horiz-adv-x="274" 
d="M89 500v-226l126 226h37l-136 -239l146 -261h-37l-136 247v-247h-32v500h32z" />
    <glyph glyph-name="Lacute" unicode="&#x139;" horiz-adv-x="257" 
d="M67 0v700h33v-669h125v-31h-158zM124 872h35l-60 -122h-24z" />
    <glyph glyph-name="lacute" unicode="&#x13a;" horiz-adv-x="151" 
d="M59 710h32v-710h-32v710zM113 872h35l-60 -122h-24z" />
    <glyph glyph-name="Lcommaaccent" unicode="&#x13b;" horiz-adv-x="257" 
d="M67 0v700h33v-669h125v-31h-158zM120 -48h43l-20 -122h-23v122z" />
    <glyph glyph-name="lcommaaccent" unicode="&#x13c;" horiz-adv-x="151" 
d="M59 710h32v-710h-32v710zM53 -48h43l-20 -122h-23v122z" />
    <glyph glyph-name="Lcaron" unicode="&#x13d;" horiz-adv-x="257" 
d="M67 0v700h33v-669h125v-31h-158zM137 710h39l-22 -160h-17v160z" />
    <glyph glyph-name="lcaron" unicode="&#x13e;" horiz-adv-x="151" 
d="M59 710h32v-710h-32v710zM129 710h39l-22 -160h-17v160z" />
    <glyph glyph-name="Ldot" unicode="&#x13f;" horiz-adv-x="257" 
d="M67 0v700h33v-669h125v-31h-158zM140 307h45v-55h-45v55z" />
    <glyph glyph-name="ldot" unicode="&#x140;" horiz-adv-x="181" 
d="M59 710h32v-710h-32v710zM134 307h45v-55h-45v55z" />
    <glyph glyph-name="Lslash" unicode="&#x141;" horiz-adv-x="257" 
d="M13 245v26l54 23v406h33v-393l56 23v-26l-56 -23v-250h125v-31h-158v268z" />
    <glyph glyph-name="lslash" unicode="&#x142;" horiz-adv-x="151" 
d="M59 710h32v-403l56 23v-26l-56 -23v-281h-32v268l-55 -23v26l55 23v416z" />
    <glyph glyph-name="Nacute" unicode="&#x143;" horiz-adv-x="373" 
d="M97 623q0 -45 1 -126t1.5 -148t0.5 -127v-222h-33v700h37l172 -624q0 45 -1 126.5t-1.5 148t-0.5 126.5v223h33v-700h-36zM228 872h35l-60 -122h-24z" />
    <glyph glyph-name="nacute" unicode="&#x144;" horiz-adv-x="314" 
d="M262 0h-32v397q0 85 -69 85q-35 0 -53.5 -23.5t-18.5 -63.5v-395h-32v500h19l10 -42q23 52 80 52q52 0 74 -27.5t22 -85.5v-397zM199 672h35l-60 -122h-24z" />
    <glyph glyph-name="Ncommaaccent" unicode="&#x145;" horiz-adv-x="373" 
d="M97 623q0 -45 1 -126t1.5 -148t0.5 -127v-222h-33v700h37l172 -624q0 45 -1 126.5t-1.5 148t-0.5 126.5v223h33v-700h-36zM164 -48h43l-20 -122h-23v122z" />
    <glyph glyph-name="ncommaaccent" unicode="&#x146;" horiz-adv-x="314" 
d="M262 0h-32v397q0 85 -69 85q-35 0 -53.5 -23.5t-18.5 -63.5v-395h-32v500h19l10 -42q23 52 80 52q52 0 74 -27.5t22 -85.5v-397zM137 -48h43l-20 -122h-23v122z" />
    <glyph glyph-name="Ncaron" unicode="&#x147;" horiz-adv-x="373" 
d="M97 623q0 -45 1 -126t1.5 -148t0.5 -127v-222h-33v700h37l172 -624q0 45 -1 126.5t-1.5 148t-0.5 126.5v223h33v-700h-36zM202 750h-32l-56 122h25l47 -91l46 91h26z" />
    <glyph glyph-name="ncaron" unicode="&#x148;" horiz-adv-x="314" 
d="M262 0h-32v397q0 85 -69 85q-35 0 -53.5 -23.5t-18.5 -63.5v-395h-32v500h19l10 -42q23 52 80 52q52 0 74 -27.5t22 -85.5v-397zM175 550h-32l-56 122h25l47 -91l46 91h26z" />
    <glyph glyph-name="Eng" unicode="&#x14a;" horiz-adv-x="373" 
d="M180 -164v28q12 -6 33 -6q35 0 48 16t13 62v64h-3l-174 622q0 -39 1 -110.5t1.5 -130.5t0.5 -112v-269h-33v700h37l171 -616q-2 238 -2 346v270h33v-765q0 -57 -19.5 -81t-72.5 -24q-20 0 -34 6z" />
    <glyph glyph-name="eng" unicode="&#x14b;" horiz-adv-x="314" 
d="M136 -165v28q13 -5 34 -5q35 0 47.5 16t12.5 61v462q0 85 -70 85q-34 0 -52.5 -24.5t-18.5 -62.5v-395h-32v500h19l10 -42q23 52 80 52q52 0 74 -27.5t22 -85.5v-463q0 -57 -19.5 -80.5t-71.5 -23.5q-20 0 -35 5z" />
    <glyph glyph-name="Omacron" unicode="&#x14c;" 
d="M170 19q75 0 75 92v477q0 45 -16.5 68.5t-58.5 23.5q-75 0 -75 -92v-477q0 -92 75 -92zM170 710q59 0 83.5 -31.5t24.5 -90.5v-477q0 -59 -24.5 -90t-83.5 -31t-83.5 31t-24.5 90v477q0 59 24.5 90.5t83.5 31.5zM85 750v26h170v-26h-170z" />
    <glyph glyph-name="omacron" unicode="&#x14d;" horiz-adv-x="309" 
d="M155 510q57 0 79.5 -30.5t22.5 -87.5v-285q0 -58 -22 -87.5t-80 -29.5t-80.5 30t-22.5 87v285q0 57 23 87.5t80 30.5zM155 18q40 0 55 22.5t15 66.5v285q0 45 -15 67.5t-55 22.5t-55.5 -22.5t-15.5 -67.5v-285q0 -44 15.5 -66.5t55.5 -22.5zM69 593v26h170v-26h-170z" />
    <glyph glyph-name="Obreve" unicode="&#x14e;" 
d="M170 19q75 0 75 92v477q0 45 -16.5 68.5t-58.5 23.5q-75 0 -75 -92v-477q0 -92 75 -92zM170 710q59 0 83.5 -31.5t24.5 -90.5v-477q0 -59 -24.5 -90t-83.5 -31t-83.5 31t-24.5 90v477q0 59 24.5 90.5t83.5 31.5zM220 838h25q0 -98 -75 -98t-75 98h24q0 -71 51 -71
q50 0 50 71z" />
    <glyph glyph-name="obreve" unicode="&#x14f;" horiz-adv-x="309" 
d="M155 510q57 0 79.5 -30.5t22.5 -87.5v-285q0 -58 -22 -87.5t-80 -29.5t-80.5 30t-22.5 87v285q0 57 23 87.5t80 30.5zM155 18q40 0 55 22.5t15 66.5v285q0 45 -15 67.5t-55 22.5t-55.5 -22.5t-15.5 -67.5v-285q0 -44 15.5 -66.5t55.5 -22.5zM204 650h25q0 -98 -75 -98
t-75 98h24q0 -71 51 -71q50 0 50 71z" />
    <glyph glyph-name="Ohungarumlaut" unicode="&#x150;" 
d="M170 19q75 0 75 92v477q0 45 -16.5 68.5t-58.5 23.5q-75 0 -75 -92v-477q0 -92 75 -92zM170 710q59 0 83.5 -31.5t24.5 -90.5v-477q0 -59 -24.5 -90t-83.5 -31t-83.5 31t-24.5 90v477q0 59 24.5 90.5t83.5 31.5zM135 872h34l-34 -122h-24zM228 872h35l-45 -122h-23z" />
    <glyph glyph-name="ohungarumlaut" unicode="&#x151;" horiz-adv-x="309" 
d="M155 510q57 0 79.5 -30.5t22.5 -87.5v-285q0 -58 -22 -87.5t-80 -29.5t-80.5 30t-22.5 87v285q0 57 23 87.5t80 30.5zM155 18q40 0 55 22.5t15 66.5v285q0 45 -15 67.5t-55 22.5t-55.5 -22.5t-15.5 -67.5v-285q0 -44 15.5 -66.5t55.5 -22.5zM124 672h34l-34 -122h-24z
M217 672h35l-45 -122h-23z" />
    <glyph glyph-name="OE" unicode="&#x152;" horiz-adv-x="478" 
d="M170 19q75 0 75 92v477q0 45 -16.5 68.5t-58.5 23.5q-75 0 -75 -92v-477q0 -92 75 -92zM278 338v-307h153v-31h-186v20q-24 -30 -75 -30q-59 0 -83.5 31t-24.5 90v477q0 59 24.5 90.5t83.5 31.5q51 0 75 -31v21h186v-31h-153v-301h131v-30h-131z" />
    <glyph glyph-name="oe" unicode="&#x153;" horiz-adv-x="482" 
d="M398 172h32v-65q0 -57 -22.5 -87t-79.5 -30q-67 0 -86 50q-19 -50 -87 -50q-58 0 -80.5 30t-22.5 87v285q0 57 23 87.5t80 30.5q67 0 86 -52q20 52 87 52q57 0 79.5 -30.5t22.5 -87.5v-134h-173v-151q0 -44 15.5 -66.5t55.5 -22.5t55 22.5t15 66.5v65zM155 18
q40 0 55 22.5t15 66.5v285q0 45 -15 67.5t-55 22.5t-55.5 -22.5t-15.5 -67.5v-285q0 -44 15.5 -66.5t55.5 -22.5zM257 392v-107h141v101q0 49 -14.5 72.5t-55.5 23.5q-40 0 -55.5 -22.5t-15.5 -67.5z" />
    <glyph glyph-name="Racute" unicode="&#x154;" horiz-adv-x="331" 
d="M67 0v700h89q68 0 94 -31t26 -90v-153q0 -106 -93 -118l121 -308h-36q-8 23 -57.5 151.5t-59.5 155.5h-51v-307h-33zM100 669v-332h53q50 0 70 22.5t20 66.5v153q0 44 -19.5 67t-68.5 23h-55zM193 872h35l-60 -122h-24z" />
    <glyph glyph-name="racute" unicode="&#x155;" horiz-adv-x="198" 
d="M171 511v-32q-41 1 -61.5 -23t-20.5 -68v-388h-32v500h21l9 -41q25 52 84 52zM148 672h35l-60 -122h-24z" />
    <glyph glyph-name="Rcommaaccent" unicode="&#x156;" horiz-adv-x="331" 
d="M67 0v700h89q68 0 94 -31t26 -90v-153q0 -106 -93 -118l121 -308h-36q-8 23 -57.5 151.5t-59.5 155.5h-51v-307h-33zM100 669v-332h53q50 0 70 22.5t20 66.5v153q0 44 -19.5 67t-68.5 23h-55zM151 -48h43l-20 -122h-23v122z" />
    <glyph glyph-name="rcommaaccent" unicode="&#x157;" horiz-adv-x="198" 
d="M171 511v-32q-41 1 -61.5 -23t-20.5 -68v-388h-32v500h21l9 -41q25 52 84 52zM53 -48h43l-20 -122h-23v122z" />
    <glyph glyph-name="Rcaron" unicode="&#x158;" horiz-adv-x="331" 
d="M67 0v700h89q68 0 94 -31t26 -90v-153q0 -106 -93 -118l121 -308h-36q-8 23 -57.5 151.5t-59.5 155.5h-51v-307h-33zM100 669v-332h53q50 0 70 22.5t20 66.5v153q0 44 -19.5 67t-68.5 23h-55zM170 750h-32l-56 122h25l47 -91l46 91h26z" />
    <glyph glyph-name="rcaron" unicode="&#x159;" horiz-adv-x="198" 
d="M171 511v-32q-41 1 -61.5 -23t-20.5 -68v-388h-32v500h21l9 -41q25 52 84 52zM133 550h-32l-56 122h25l47 -91l46 91h26z" />
    <glyph glyph-name="Sacute" unicode="&#x15a;" horiz-adv-x="316" 
d="M264 510h-33v77q0 46 -15.5 69.5t-57.5 23.5q-43 0 -58 -23.5t-15 -69.5v-57q0 -42 13.5 -71t33 -43.5t43 -32.5t43 -36.5t33 -56.5t13.5 -92v-85q0 -61 -22 -92t-84 -31t-84 31t-22 92v87h33v-87q0 -46 15.5 -70t57.5 -24q43 0 58 24t15 70v84q0 50 -13.5 85.5t-33 52.5
t-43 35t-43 33.5t-33 48t-13.5 79.5v56q0 61 22 92t84 31t84 -31t22 -92v-77zM193 872h35l-60 -122h-24z" />
    <glyph glyph-name="sacute" unicode="&#x15b;" horiz-adv-x="291" 
d="M213 102v38q0 36 -17 59t-41.5 35.5t-49 26t-41.5 41.5t-17 72v23q0 56 22 84.5t77 28.5t76.5 -28t21.5 -85v-59h-31v59q0 44 -14.5 64.5t-52.5 20.5t-52.5 -20.5t-14.5 -64.5v-23q0 -39 17 -64t41.5 -37.5t48.5 -25t41 -39t17 -68.5v-38q0 -57 -21 -84.5t-77 -27.5
t-77.5 27.5t-21.5 84.5v70h32v-70q0 -44 14 -64t53 -20q38 0 52.5 20t14.5 64zM183 672h35l-60 -122h-24z" />
    <glyph glyph-name="Scircumflex" unicode="&#x15c;" horiz-adv-x="316" 
d="M264 510h-33v77q0 46 -15.5 69.5t-57.5 23.5q-43 0 -58 -23.5t-15 -69.5v-57q0 -42 13.5 -71t33 -43.5t43 -32.5t43 -36.5t33 -56.5t13.5 -92v-85q0 -61 -22 -92t-84 -31t-84 31t-22 92v87h33v-87q0 -46 15.5 -70t57.5 -24q43 0 58 24t15 70v84q0 50 -13.5 85.5t-33 52.5
t-43 35t-43 33.5t-33 48t-13.5 79.5v56q0 61 22 92t84 31t84 -31t22 -92v-77zM142 872h32l56 -122h-26l-46 91l-47 -91h-25z" />
    <glyph glyph-name="scircumflex" unicode="&#x15d;" horiz-adv-x="291" 
d="M213 102v38q0 36 -17 59t-41.5 35.5t-49 26t-41.5 41.5t-17 72v23q0 56 22 84.5t77 28.5t76.5 -28t21.5 -85v-59h-31v59q0 44 -14.5 64.5t-52.5 20.5t-52.5 -20.5t-14.5 -64.5v-23q0 -39 17 -64t41.5 -37.5t48.5 -25t41 -39t17 -68.5v-38q0 -57 -21 -84.5t-77 -27.5
t-77.5 27.5t-21.5 84.5v70h32v-70q0 -44 14 -64t53 -20q38 0 52.5 20t14.5 64zM129 672h32l56 -122h-26l-46 91l-47 -91h-25z" />
    <glyph glyph-name="Scedilla" unicode="&#x15e;" horiz-adv-x="316" 
d="M133 -64l14 54q-56 3 -75.5 33.5t-19.5 89.5v87h33v-87q0 -46 15.5 -70t57.5 -24q43 0 58 24t15 70v84q0 50 -13.5 85.5t-33 52.5t-43 35t-43 33.5t-33 48t-13.5 79.5v56q0 61 22 92t84 31t84 -31t22 -92v-77h-33v77q0 46 -15.5 69.5t-57.5 23.5q-43 0 -58 -23.5
t-15 -69.5v-57q0 -42 13.5 -71t33 -43.5t43 -32.5t43 -36.5t33 -56.5t13.5 -92v-85q0 -58 -19.5 -89t-75.5 -34l-8 -33q71 -6 71 -63q0 -64 -86 -64q-36 0 -43 3l4 24q8 -4 38 -4q58 0 58 42q0 41 -59 41h-11z" />
    <glyph glyph-name="scedilla" unicode="&#x15f;" horiz-adv-x="291" 
d="M118 -65l14 55q-48 4 -66.5 31t-18.5 81v70h32v-70q0 -44 14 -64t53 -20q38 0 52.5 20t14.5 64v38q0 36 -17 59t-41.5 35.5t-49 26t-41.5 41.5t-17 72v23q0 56 22 84.5t77 28.5t76.5 -28t21.5 -85v-59h-31v59q0 44 -14.5 64.5t-52.5 20.5t-52.5 -20.5t-14.5 -64.5v-23
q0 -39 17 -64t41.5 -37.5t48.5 -25t41 -39t17 -68.5v-38q0 -55 -19.5 -82.5t-70.5 -29.5l-9 -34q70 -5 70 -63q0 -63 -84 -63h-42l6 23h35q57 0 57 41t-57 41h-12z" />
    <glyph glyph-name="Scaron" unicode="&#x160;" horiz-adv-x="316" 
d="M264 510h-33v77q0 46 -15.5 69.5t-57.5 23.5q-43 0 -58 -23.5t-15 -69.5v-57q0 -42 13.5 -71t33 -43.5t43 -32.5t43 -36.5t33 -56.5t13.5 -92v-85q0 -61 -22 -92t-84 -31t-84 31t-22 92v87h33v-87q0 -46 15.5 -70t57.5 -24q43 0 58 24t15 70v84q0 50 -13.5 85.5t-33 52.5
t-43 35t-43 33.5t-33 48t-13.5 79.5v56q0 61 22 92t84 31t84 -31t22 -92v-77zM174 750h-32l-56 122h25l47 -91l46 91h26z" />
    <glyph glyph-name="scaron" unicode="&#x161;" horiz-adv-x="291" 
d="M213 102v38q0 36 -17 59t-41.5 35.5t-49 26t-41.5 41.5t-17 72v23q0 56 22 84.5t77 28.5t76.5 -28t21.5 -85v-59h-31v59q0 44 -14.5 64.5t-52.5 20.5t-52.5 -20.5t-14.5 -64.5v-23q0 -39 17 -64t41.5 -37.5t48.5 -25t41 -39t17 -68.5v-38q0 -57 -21 -84.5t-77 -27.5
t-77.5 27.5t-21.5 84.5v70h32v-70q0 -44 14 -64t53 -20q38 0 52.5 20t14.5 64zM161 550h-32l-56 122h25l47 -91l46 91h26z" />
    <glyph glyph-name="Tcommaaccent" unicode="&#x162;" horiz-adv-x="264" 
d="M149 669v-669h-33v669h-89v31h210v-31h-88zM114 -48h43l-20 -122h-23v122z" />
    <glyph glyph-name="tcommaaccent" unicode="&#x163;" horiz-adv-x="232" 
d="M200 23v-27q-14 -6 -35 -6q-51 0 -70.5 23.5t-19.5 80.5v378h-48v28h48v133q8 3 32 9v-142h83v-28h-83v-378q0 -44 12.5 -60t46.5 -16q19 0 34 5zM114 -48h43l-20 -122h-23v122z" />
    <glyph glyph-name="Tcaron" unicode="&#x164;" horiz-adv-x="264" 
d="M149 669v-669h-33v669h-89v31h210v-31h-88zM148 750h-32l-56 122h25l47 -91l46 91h26z" />
    <glyph glyph-name="tcaron" unicode="&#x165;" horiz-adv-x="232" 
d="M200 23v-27q-14 -6 -35 -6q-51 0 -70.5 23.5t-19.5 80.5v378h-48v28h48v133q8 3 32 9v-142h83v-28h-83v-378q0 -44 12.5 -60t46.5 -16q19 0 34 5zM172 710h39l-22 -160h-17v160z" />
    <glyph glyph-name="Tbar" unicode="&#x166;" horiz-adv-x="264" 
d="M60 341v25h56v303h-89v31h210v-31h-88v-303h56v-25h-56v-341h-33v341h-56z" />
    <glyph glyph-name="tbar" unicode="&#x167;" horiz-adv-x="232" 
d="M32 248v26h43v197h-48v29h48v133l32 9v-142h83v-29h-83v-197h64v-26h-64v-154q0 -44 12 -60t47 -16q19 0 34 5v-28q-15 -5 -35 -5q-52 0 -71 23.5t-19 80.5v154h-43z" />
    <glyph glyph-name="Utilde" unicode="&#x168;" horiz-adv-x="337" 
d="M242 700h33v-586q0 -61 -22.5 -92.5t-83.5 -31.5q-63 0 -85 31.5t-22 92.5v586h34v-586q0 -47 15 -71t58 -24t58 24t15 71v586zM217 750q-28 0 -52.5 25.5t-42.5 25.5q-19 0 -25.5 -10t-6.5 -31h-25q0 35 12.5 51.5t43.5 16.5q27 0 51 -25.5t43 -25.5q20 0 26.5 10
t6.5 31h24q0 -35 -12.5 -51.5t-42.5 -16.5z" />
    <glyph glyph-name="utilde" unicode="&#x169;" horiz-adv-x="321" 
d="M59 500h32v-397q0 -85 70 -85q35 0 53 23t18 63v396h32v-500h-18l-10 41q-23 -51 -80 -51q-52 0 -74.5 27.5t-22.5 85.5v397zM209 560q-28 0 -52.5 25.5t-42.5 25.5q-19 0 -25.5 -10t-6.5 -31h-25q0 35 12.5 51.5t43.5 16.5q27 0 51 -25.5t43 -25.5q20 0 26.5 10t6.5 31
h24q0 -35 -12.5 -51.5t-42.5 -16.5z" />
    <glyph glyph-name="Umacron" unicode="&#x16a;" horiz-adv-x="337" 
d="M242 700h33v-586q0 -61 -22.5 -92.5t-83.5 -31.5q-63 0 -85 31.5t-22 92.5v586h34v-586q0 -47 15 -71t58 -24t58 24t15 71v586zM83 750v26h170v-26h-170z" />
    <glyph glyph-name="umacron" unicode="&#x16b;" horiz-adv-x="319" 
d="M57 500h32v-397q0 -85 70 -85q35 0 53 23t18 63v396h32v-500h-18l-10 41q-23 -51 -80 -51q-52 0 -74.5 27.5t-22.5 85.5v397zM74 593v26h170v-26h-170z" />
    <glyph glyph-name="Ubreve" unicode="&#x16c;" horiz-adv-x="337" 
d="M242 700h33v-586q0 -61 -22.5 -92.5t-83.5 -31.5q-63 0 -85 31.5t-22 92.5v586h34v-586q0 -47 15 -71t58 -24t58 24t15 71v586zM218 838h25q0 -98 -75 -98t-75 98h24q0 -71 51 -71q50 0 50 71z" />
    <glyph glyph-name="ubreve" unicode="&#x16d;" horiz-adv-x="319" 
d="M57 500h32v-397q0 -85 70 -85q35 0 53 23t18 63v396h32v-500h-18l-10 41q-23 -51 -80 -51q-52 0 -74.5 27.5t-22.5 85.5v397zM209 650h25q0 -98 -75 -98t-75 98h24q0 -71 51 -71q50 0 50 71z" />
    <glyph glyph-name="Uring" unicode="&#x16e;" horiz-adv-x="337" 
d="M242 700h33v-586q0 -61 -22.5 -92.5t-83.5 -31.5q-63 0 -85 31.5t-22 92.5v586h34v-586q0 -47 15 -71t58 -24t58 24t15 71v586zM234 817q0 -74 -66 -74q-65 0 -65 74q0 76 65 76q66 0 66 -76zM209 817q0 54 -41 54q-40 0 -40 -54q0 -52 40 -52q41 0 41 52z" />
    <glyph glyph-name="uring" unicode="&#x16f;" horiz-adv-x="319" 
d="M57 500h32v-397q0 -85 70 -85q35 0 53 23t18 63v396h32v-500h-18l-10 41q-23 -51 -80 -51q-52 0 -74.5 27.5t-22.5 85.5v397zM225 617q0 -74 -66 -74q-65 0 -65 74q0 76 65 76q66 0 66 -76zM200 617q0 54 -41 54q-40 0 -40 -54q0 -52 40 -52q41 0 41 52z" />
    <glyph glyph-name="Uhungarumlaut" unicode="&#x170;" horiz-adv-x="337" 
d="M242 700h33v-586q0 -61 -22.5 -92.5t-83.5 -31.5q-63 0 -85 31.5t-22 92.5v586h34v-586q0 -47 15 -71t58 -24t58 24t15 71v586zM136 872h34l-34 -122h-24zM229 872h35l-45 -122h-23z" />
    <glyph glyph-name="uhungarumlaut" unicode="&#x171;" horiz-adv-x="319" 
d="M57 500h32v-397q0 -85 70 -85q35 0 53 23t18 63v396h32v-500h-18l-10 41q-23 -51 -80 -51q-52 0 -74.5 27.5t-22.5 85.5v397zM129 672h34l-34 -122h-24zM222 672h35l-45 -122h-23z" />
    <glyph glyph-name="Uogonek" unicode="&#x172;" horiz-adv-x="337" 
d="M221 -170h-12q-72 0 -72 62q0 54 47 99q-2 0 -7 -0.5t-8 -0.5q-63 0 -85 31.5t-22 92.5v586h34v-586q0 -47 15 -71t58 -24t58 24t15 71v586h33v-586q0 -96 -57 -117q-23 -18 -37.5 -45t-14.5 -53q0 -22 10 -31t33 -9h12v-29z" />
    <glyph glyph-name="uogonek" unicode="&#x173;" horiz-adv-x="319" 
d="M262 -170h-12q-72 0 -72 62q0 29 17.5 59.5t47.5 53.5l-9 36q-23 -51 -80 -51q-52 0 -74.5 27.5t-22.5 85.5v397h32v-397q0 -85 70 -85q35 0 53 23t18 63v396h32v-500q-25 -18 -40 -46t-15 -55q0 -22 10.5 -31t32.5 -9h12v-29z" />
    <glyph glyph-name="Wcircumflex" unicode="&#x174;" horiz-adv-x="535" 
d="M360 0l-92 623l-92 -623h-35l-99 700h35l82 -621l92 621h34l91 -621l83 621h34l-98 -700h-35zM251 872h32l56 -122h-26l-46 91l-47 -91h-25z" />
    <glyph glyph-name="wcircumflex" unicode="&#x175;" horiz-adv-x="454" 
d="M304 0q-29 173 -77 442q-29 -173 -77 -442h-34l-84 500h33l69 -445q22 123 76 445h34q22 -123 76 -445l69 445h33l-84 -500h-34zM211 672h32l56 -122h-26l-46 91l-47 -91h-25z" />
    <glyph glyph-name="Ycircumflex" unicode="&#x176;" horiz-adv-x="295" 
d="M164 0h-33v304l-104 396h35l85 -349l86 349h35l-104 -396v-304zM131 872h32l56 -122h-26l-46 91l-47 -91h-25z" />
    <glyph glyph-name="ycircumflex" unicode="&#x177;" horiz-adv-x="308" 
d="M61 -170q-21 0 -34 5v29q13 -6 34 -6q54 0 69 69l15 72l-105 501h34l86 -437l87 437h34l-120 -576q-10 -49 -32.5 -71.5t-67.5 -22.5zM144 672h32l56 -122h-26l-46 91l-47 -91h-25z" />
    <glyph glyph-name="Ydieresis" unicode="&#x178;" horiz-adv-x="295" 
d="M164 0h-33v304l-104 396h35l85 -349l86 349h35l-104 -396v-304zM77 798h38v-48h-38v48zM180 798h38v-48h-38v48z" />
    <glyph glyph-name="Zacute" unicode="&#x179;" horiz-adv-x="274" 
d="M237 0h-195v20l158 649h-156v31h192v-20l-157 -649h158v-31zM171 872h35l-60 -122h-24z" />
    <glyph glyph-name="zacute" unicode="&#x17a;" horiz-adv-x="265" 
d="M228 0h-186v19l146 453h-139v28h174v-20l-146 -453h151v-27zM171 672h35l-60 -122h-24z" />
    <glyph glyph-name="Zdotaccent" unicode="&#x17b;" horiz-adv-x="274" 
d="M237 0h-195v20l158 649h-156v31h192v-20l-157 -649h158v-31zM118 798h38v-48h-38v48z" />
    <glyph glyph-name="zdotaccent" unicode="&#x17c;" horiz-adv-x="265" 
d="M228 0h-186v19l146 453h-139v28h174v-20l-146 -453h151v-27zM115 633h38v-48h-38v48z" />
    <glyph glyph-name="Zcaron" unicode="&#x17d;" horiz-adv-x="274" 
d="M237 0h-195v20l158 649h-156v31h192v-20l-157 -649h158v-31zM153 750h-32l-56 122h25l47 -91l46 91h26z" />
    <glyph glyph-name="zcaron" unicode="&#x17e;" horiz-adv-x="265" 
d="M228 0h-186v19l146 453h-139v28h174v-20l-146 -453h151v-27zM151 550h-32l-56 122h25l47 -91l46 91h26z" />
    <glyph glyph-name="florin" unicode="&#x192;" horiz-adv-x="237" 
d="M-7 -112v27q13 -5 34 -5q35 0 47.5 16t12.5 61v485h-47v28h47v108q0 62 19 87t72 25q22 0 35 -6v-27q-13 5 -34 5q-35 0 -47.5 -16t-12.5 -61v-115h81v-28h-81v-477q0 -63 -19 -88t-73 -25q-20 0 -34 6z" />
    <glyph glyph-name="Scommaaccent" unicode="&#x218;" horiz-adv-x="316" 
d="M264 510h-33v77q0 46 -15.5 69.5t-57.5 23.5q-43 0 -58 -23.5t-15 -69.5v-57q0 -42 13.5 -71t33 -43.5t43 -32.5t43 -36.5t33 -56.5t13.5 -92v-85q0 -61 -22 -92t-84 -31t-84 31t-22 92v87h33v-87q0 -46 15.5 -70t57.5 -24q43 0 58 24t15 70v84q0 50 -13.5 85.5t-33 52.5
t-43 35t-43 33.5t-33 48t-13.5 79.5v56q0 61 22 92t84 31t84 -31t22 -92v-77zM135 -48h43l-20 -122h-23v122z" />
    <glyph glyph-name="scommaaccent" unicode="&#x219;" horiz-adv-x="291" 
d="M213 102v38q0 36 -17 59t-41.5 35.5t-49 26t-41.5 41.5t-17 72v23q0 56 22 84.5t77 28.5t76.5 -28t21.5 -85v-59h-31v59q0 44 -14.5 64.5t-52.5 20.5t-52.5 -20.5t-14.5 -64.5v-23q0 -39 17 -64t41.5 -37.5t48.5 -25t41 -39t17 -68.5v-38q0 -57 -21 -84.5t-77 -27.5
t-77.5 27.5t-21.5 84.5v70h32v-70q0 -44 14 -64t53 -20q38 0 52.5 20t14.5 64zM123 -48h43l-20 -122h-23v122z" />
    <glyph glyph-name="circumflex" unicode="&#x2c6;" horiz-adv-x="242" 
d="M105 672h32l56 -122h-26l-46 91l-47 -91h-25z" />
    <glyph glyph-name="caron" unicode="&#x2c7;" horiz-adv-x="242" 
d="M137 550h-32l-56 122h25l47 -91l46 91h26z" />
    <glyph glyph-name="breve" unicode="&#x2d8;" horiz-adv-x="248" 
d="M174 650h25q0 -98 -75 -98t-75 98h24q0 -71 51 -71q50 0 50 71z" />
    <glyph glyph-name="dotaccent" unicode="&#x2d9;" horiz-adv-x="143" 
d="M52 633h38v-48h-38v48z" />
    <glyph glyph-name="ring" unicode="&#x2da;" horiz-adv-x="229" 
d="M180 617q0 -74 -66 -74q-65 0 -65 74q0 76 65 76q66 0 66 -76zM155 617q0 54 -41 54q-40 0 -40 -54q0 -52 40 -52q41 0 41 52z" />
    <glyph glyph-name="ogonek" unicode="&#x2db;" horiz-adv-x="200" 
d="M143 -170h-12q-72 0 -72 62q0 28 16 57.5t42 50.5h26q-25 -19 -40.5 -47t-15.5 -54q0 -22 10.5 -31t32.5 -9h13v-29z" />
    <glyph glyph-name="tilde" unicode="&#x2dc;" horiz-adv-x="306" 
d="M201 560q-28 0 -52.5 25.5t-42.5 25.5q-19 0 -25.5 -10t-6.5 -31h-25q0 35 12.5 51.5t43.5 16.5q27 0 51 -25.5t43 -25.5q20 0 26.5 10t6.5 31h24q0 -35 -12.5 -51.5t-42.5 -16.5z" />
    <glyph glyph-name="hungarumlaut" unicode="&#x2dd;" horiz-adv-x="250" 
d="M73 672h34l-34 -122h-24zM166 672h35l-45 -122h-23z" />
    <glyph glyph-name="pi" unicode="&#x3c0;" horiz-adv-x="326" 
d="M292 500v-28h-48v-472h-32v472h-98v-472h-32v472h-48v28h258z" />
    <glyph glyph-name="Bdotaccent" unicode="&#x1e02;" horiz-adv-x="351" 
d="M72 0v700h95q66 0 91 -25.5t25 -82.5v-146q0 -77 -64 -93q70 -15 70 -95v-145q0 -58 -25 -85.5t-93 -27.5h-99zM105 338v-307h64q50 0 68.5 20t18.5 63v145q0 39 -19.5 59t-66.5 20h-65zM105 669v-301h58q48 0 67.5 19t19.5 58v144q0 42 -18 61t-66 19h-61zM156 798h38
v-48h-38v48z" />
    <glyph glyph-name="bdotaccent" unicode="&#x1e03;" horiz-adv-x="314" 
d="M230 104v281q0 52 -15 74.5t-52 22.5q-74 0 -74 -93v-284q0 -39 19.5 -63t52.5 -24q69 0 69 86zM262 394v-291q0 -58 -22 -85.5t-74 -27.5q-58 0 -80 51l-10 -41h-19v710h32v-248q23 48 79 48q51 0 72.5 -28t21.5 -88zM153 633h38v-48h-38v48z" />
    <glyph glyph-name="Ddotaccent" unicode="&#x1e0a;" horiz-adv-x="346" 
d="M67 0v700h95q68 0 95 -31t27 -90v-458q0 -59 -26 -90t-94 -31h-97zM100 669v-638h63q49 0 68.5 23t19.5 67v458q0 44 -20 67t-70 23h-61zM141 798h38v-48h-38v48z" />
    <glyph glyph-name="ddotaccent" unicode="&#x1e0b;" horiz-adv-x="314" 
d="M84 394v-292q0 -84 70 -84q35 0 53 23.5t18 63.5v284q0 93 -73 93q-37 0 -52.5 -21.5t-15.5 -66.5zM52 103v291q0 60 21.5 88t73.5 28q55 0 78 -48v248h32v-710h-18l-10 41q-22 -51 -80 -51q-52 0 -74.5 27.5t-22.5 85.5zM120 633h38v-48h-38v48z" />
    <glyph glyph-name="Fdotaccent" unicode="&#x1e1e;" horiz-adv-x="277" 
d="M100 0h-33v700h178v-31h-145v-301h125v-30h-125v-338zM140 798h38v-48h-38v48z" />
    <glyph glyph-name="fdotaccent" unicode="&#x1e1f;" horiz-adv-x="226" 
d="M170 720q20 0 34 -6v-28q-12 6 -33 6q-35 0 -47.5 -15.5t-12.5 -61.5v-115h81v-28h-81v-472h-32v472h-47v28h47v115q0 57 19.5 81t71.5 24zM124 833h38v-48h-38v48z" />
    <glyph glyph-name="Mdotaccent" unicode="&#x1e40;" horiz-adv-x="467" 
d="M233 75h1l117 625h49v-700h-32v249q0 221 4 403l-123 -652h-31l-123 652q4 -186 4 -403v-249h-32v700h49zM214 798h38v-48h-38v48z" />
    <glyph glyph-name="mdotaccent" unicode="&#x1e41;" horiz-adv-x="487" 
d="M262 0h-32v397q0 85 -69 85q-35 0 -53.5 -23.5t-18.5 -63.5v-395h-32v500h19l10 -42q23 52 80 52q67 0 85 -53q24 53 87 53q51 0 74 -27.5t23 -84.5v-398h-32v397q0 85 -70 85q-71 0 -71 -85v-397zM226 633h38v-48h-38v48z" />
    <glyph glyph-name="Pdotaccent" unicode="&#x1e56;" horiz-adv-x="318" 
d="M67 0v700h89q68 0 94 -31t26 -90v-153q0 -57 -27.5 -88t-94.5 -31h-54v-307h-33zM100 669v-332h53q50 0 70 22.5t20 66.5v153q0 44 -19.5 67t-68.5 23h-55zM140 798h38v-48h-38v48z" />
    <glyph glyph-name="pdotaccent" unicode="&#x1e57;" horiz-adv-x="314" 
d="M230 105v267q0 54 -14.5 82t-54.5 28q-35 0 -53.5 -24t-18.5 -64v-284q0 -43 18.5 -67.5t55.5 -24.5t52 21.5t15 65.5zM262 397v-292q0 -59 -21.5 -87t-72.5 -28q-56 0 -79 48v-198h-32v660h19l10 -41q23 51 80 51q52 0 74 -27.5t22 -85.5zM140 633h38v-48h-38v48z" />
    <glyph glyph-name="Sdotaccent" unicode="&#x1e60;" horiz-adv-x="316" 
d="M264 510h-33v77q0 46 -15.5 69.5t-57.5 23.5q-43 0 -58 -23.5t-15 -69.5v-57q0 -42 13.5 -71t33 -43.5t43 -32.5t43 -36.5t33 -56.5t13.5 -92v-85q0 -61 -22 -92t-84 -31t-84 31t-22 92v87h33v-87q0 -46 15.5 -70t57.5 -24q43 0 58 24t15 70v84q0 50 -13.5 85.5t-33 52.5
t-43 35t-43 33.5t-33 48t-13.5 79.5v56q0 61 22 92t84 31t84 -31t22 -92v-77zM139 798h38v-48h-38v48z" />
    <glyph glyph-name="sdotaccent" unicode="&#x1e61;" horiz-adv-x="291" 
d="M213 102v38q0 36 -17 59t-41.5 35.5t-49 26t-41.5 41.5t-17 72v23q0 56 22 84.5t77 28.5t76.5 -28t21.5 -85v-59h-31v59q0 44 -14.5 64.5t-52.5 20.5t-52.5 -20.5t-14.5 -64.5v-23q0 -39 17 -64t41.5 -37.5t48.5 -25t41 -39t17 -68.5v-38q0 -57 -21 -84.5t-77 -27.5
t-77.5 27.5t-21.5 84.5v70h32v-70q0 -44 14 -64t53 -20q38 0 52.5 20t14.5 64zM126 633h38v-48h-38v48z" />
    <glyph glyph-name="Tdotaccent" unicode="&#x1e6a;" horiz-adv-x="264" 
d="M149 669v-669h-33v669h-89v31h210v-31h-88zM113 798h38v-48h-38v48z" />
    <glyph glyph-name="tdotaccent" unicode="&#x1e6b;" horiz-adv-x="232" 
d="M200 23v-27q-14 -6 -35 -6q-51 0 -70.5 23.5t-19.5 80.5v378h-48v28h48v133q8 3 32 9v-142h83v-28h-83v-378q0 -44 12.5 -60t46.5 -16q19 0 34 5zM73 738h38v-48h-38v48z" />
    <glyph glyph-name="Wgrave" unicode="&#x1e80;" horiz-adv-x="535" 
d="M360 0l-92 623l-92 -623h-35l-99 700h35l82 -621l92 621h34l91 -621l83 621h34l-98 -700h-35zM195 872h35l49 -122h-24z" />
    <glyph glyph-name="wgrave" unicode="&#x1e81;" horiz-adv-x="454" 
d="M304 0q-29 173 -77 442q-29 -173 -77 -442h-34l-84 500h33l69 -445q22 123 76 445h34q22 -123 76 -445l69 445h33l-84 -500h-34zM177 672h35l49 -122h-24z" />
    <glyph glyph-name="Wacute" unicode="&#x1e82;" horiz-adv-x="535" 
d="M360 0l-92 623l-92 -623h-35l-99 700h35l82 -621l92 621h34l91 -621l83 621h34l-98 -700h-35zM306 872h35l-60 -122h-24z" />
    <glyph glyph-name="wacute" unicode="&#x1e83;" horiz-adv-x="454" 
d="M304 0q-29 173 -77 442q-29 -173 -77 -442h-34l-84 500h33l69 -445q22 123 76 445h34q22 -123 76 -445l69 445h33l-84 -500h-34zM264 672h35l-60 -122h-24z" />
    <glyph glyph-name="Wdieresis" unicode="&#x1e84;" horiz-adv-x="535" 
d="M360 0l-92 623l-92 -623h-35l-99 700h35l82 -621l92 621h34l91 -621l83 621h34l-98 -700h-35zM197 798h38v-48h-38v48zM300 798h38v-48h-38v48z" />
    <glyph glyph-name="wdieresis" unicode="&#x1e85;" horiz-adv-x="454" 
d="M304 0q-29 173 -77 442q-29 -173 -77 -442h-34l-84 500h33l69 -445q22 123 76 445h34q22 -123 76 -445l69 445h33l-84 -500h-34zM156 633h38v-48h-38v48zM259 633h38v-48h-38v48z" />
    <glyph glyph-name="Ygrave" unicode="&#x1ef2;" horiz-adv-x="295" 
d="M164 0h-33v304l-104 396h35l85 -349l86 349h35l-104 -396v-304zM77 872h35l49 -122h-24z" />
    <glyph glyph-name="ygrave" unicode="&#x1ef3;" horiz-adv-x="308" 
d="M61 -170q-21 0 -34 5v29q13 -6 34 -6q54 0 69 69l15 72l-105 501h34l86 -437l87 437h34l-120 -576q-10 -49 -32.5 -71.5t-67.5 -22.5zM110 672h35l49 -122h-24z" />
    <glyph glyph-name="endash" unicode="&#x2013;" horiz-adv-x="369" 
d="M49 265v30h270v-30h-270z" />
    <glyph glyph-name="emdash" unicode="&#x2014;" horiz-adv-x="529" 
d="M49 266v28h430v-28h-430z" />
    <glyph glyph-name="quoteleft" unicode="&#x2018;" horiz-adv-x="144" 
d="M47 710h48v-188h-20z" />
    <glyph glyph-name="quoteright" unicode="&#x2019;" horiz-adv-x="141" 
d="M49 710h48l-28 -188h-20v188z" />
    <glyph glyph-name="quotesinglbase" unicode="&#x201a;" horiz-adv-x="164" 
d="M59 98h48l-28 -187h-20v187z" />
    <glyph glyph-name="quotedblleft" unicode="&#x201c;" horiz-adv-x="249" 
d="M49 710h48v-188h-20zM152 710h47v-188h-20z" />
    <glyph glyph-name="quotedblright" unicode="&#x201d;" horiz-adv-x="249" 
d="M152 710h47l-27 -188h-20v188zM49 710h48l-28 -188h-20v188z" />
    <glyph glyph-name="quotedblbase" unicode="&#x201e;" horiz-adv-x="265" 
d="M160 98h47l-27 -187h-20v187zM57 98h48l-28 -187h-20v187z" />
    <glyph glyph-name="dagger" unicode="&#x2020;" horiz-adv-x="257" 
d="M49 586v21h68v103h23v-103h67v-21h-67v-238h-23v238h-68z" />
    <glyph glyph-name="daggerdbl" unicode="&#x2021;" horiz-adv-x="257" 
d="M49 450v21h68v115h-68v21h68v103h23v-103h67v-21h-67v-115h67v-21h-67v-102h-23v102h-68z" />
    <glyph glyph-name="bullet" unicode="&#x2022;" horiz-adv-x="269" 
d="M49 283q0 35 25 60t60 25t60 -25t25 -60t-25 -60t-60 -25t-60 25t-25 60z" />
    <glyph glyph-name="ellipsis" unicode="&#x2026;" horiz-adv-x="406" 
d="M59 55h45v-55h-45v55zM180 55h45v-55h-45v55zM301 55h45v-55h-45v55z" />
    <glyph glyph-name="perthousand" unicode="&#x2030;" horiz-adv-x="570" 
d="M385 700l-295 -700h-31l296 700h30zM132 435q-44 0 -60.5 23.5t-16.5 76.5v74q0 54 16.5 77.5t60.5 23.5t60.5 -23.5t16.5 -77.5v-74q0 -53 -16.5 -76.5t-60.5 -23.5zM132 684q-27 0 -37.5 -16t-10.5 -58v-75q0 -42 10.5 -58t37.5 -16t37.5 16t10.5 58v75q0 42 -10.5 58
t-37.5 16zM313 239q-27 0 -37.5 -16t-10.5 -58v-75q0 -42 10.5 -58t37.5 -16t37.5 16t10.5 58v75q0 42 -10.5 58t-37.5 16zM439 239q-27 0 -37.5 -16t-10.5 -58v-75q0 -42 10.5 -58t37.5 -16t37.5 16t10.5 58v75q0 42 -10.5 58t-37.5 16zM312 -10q-43 0 -59.5 23.5
t-16.5 76.5v74q0 54 16.5 77.5t59.5 23.5q49 0 64 -37q15 37 64 37q43 0 59.5 -23.5t16.5 -77.5v-74q0 -53 -16.5 -76.5t-59.5 -23.5q-50 0 -64 37q-14 -37 -64 -37z" />
    <glyph glyph-name="guilsinglleft" unicode="&#x2039;" horiz-adv-x="243" 
d="M49 250l107 185h37l-106 -185l106 -185h-37z" />
    <glyph glyph-name="guilsinglright" unicode="&#x203a;" horiz-adv-x="243" 
d="M87 435l106 -185l-106 -185h-38l106 185l-106 185h38z" />
    <glyph glyph-name="Euro" unicode="&#x20ac;" horiz-adv-x="374" 
d="M39 308h50v92h-50v23h50v165q0 59 24.5 90.5t83.5 31.5q108 0 108 -122v-78h-33v78q0 92 -75 92t-75 -92v-165h140l-6 -23h-134v-92h112q-3 -7 -6 -23h-106v-174q0 -45 16.5 -68.5t58.5 -23.5q75 0 75 92v89h33v-89q0 -58 -24.5 -89.5t-83.5 -31.5t-83.5 31t-24.5 90v174
h-50v23z" />
    <glyph glyph-name="trademark" unicode="&#x2122;" horiz-adv-x="358" 
d="M108 683v-183h-19v183h-40v17h98v-17h-39zM245 550h-15l-35 104v-154h-19v200h19l42 -122l43 122h19v-200h-19v154z" />
    <glyph glyph-name="onethird" unicode="&#x2153;" horiz-adv-x="245" 
d="M172 105v-55q0 -54 -48 -54q-49 0 -49 54v30h19v-27q0 -39 30 -39q29 0 29 36v52q0 37 -27 37h-18v19h18q24 0 24 32v51q0 38 -27 38q-29 0 -29 -35v-34h-19v34q0 54 48 54q47 0 47 -54v-53q0 -32 -19 -42q21 -13 21 -44zM49 359h147v-19h-147v19zM132 700v-275h27v-19
h-74v19h27v232h-28v14q18 0 25 6.5t7 22.5h16z" />
    <glyph glyph-name="twothirds" unicode="&#x2154;" horiz-adv-x="245" 
d="M49 359h147v-19h-147v19zM76 406v40q0 32 11.5 57.5t26 39t26 34.5t11.5 44v28q0 36 -28 36t-28 -36v-37h-20v37q0 55 48 55t48 -55v-27q0 -42 -37.5 -87t-37.5 -89v-21h78v-19h-98zM172 105v-55q0 -54 -48 -54q-49 0 -49 54v30h19v-27q0 -39 30 -39q29 0 29 36v52
q0 37 -27 37h-18v19h18q24 0 24 32v51q0 38 -27 38q-29 0 -29 -35v-34h-19v34q0 54 48 54q47 0 47 -54v-53q0 -32 -19 -42q21 -13 21 -44z" />
    <glyph glyph-name="oneeighth" unicode="&#x215b;" horiz-adv-x="245" 
d="M49 359h147v-19h-147v19zM123 -4q-49 0 -49 53v57q0 30 21 43q-19 11 -19 40v56q0 26 10 39.5t37 13.5q47 0 47 -53v-56q0 -30 -19 -40q21 -13 21 -43v-57q0 -53 -49 -53zM123 279q-27 0 -27 -37v-51q0 -35 27 -35t27 29v57q0 37 -27 37zM123 140q-30 0 -30 -37v-52
q0 -38 30 -38q29 0 29 38v52q0 37 -29 37zM132 700v-275h27v-19h-74v19h27v232h-28v14q18 0 25 6.5t7 22.5h16z" />
    <glyph glyph-name="threeeighths" unicode="&#x215c;" horiz-adv-x="245" 
d="M49 359h147v-19h-147v19zM123 -4q-49 0 -49 53v57q0 30 21 43q-19 11 -19 40v56q0 26 10 39.5t37 13.5q47 0 47 -53v-56q0 -30 -19 -40q21 -13 21 -43v-57q0 -53 -49 -53zM123 279q-27 0 -27 -37v-51q0 -35 27 -35t27 29v57q0 37 -27 37zM123 140q-30 0 -30 -37v-52
q0 -38 30 -38q29 0 29 38v52q0 37 -29 37zM172 511v-55q0 -54 -48 -54q-49 0 -49 54v30h19v-27q0 -39 30 -39q29 0 29 36v52q0 37 -27 37h-18v19h18q24 0 24 32v51q0 38 -27 38q-29 0 -29 -35v-34h-19v34q0 54 48 54q47 0 47 -54v-53q0 -32 -19 -42q21 -13 21 -44z" />
    <glyph glyph-name="fiveeighths" unicode="&#x215d;" horiz-adv-x="245" 
d="M49 359h147v-19h-147v19zM104 680q-6 -102 -6 -107q12 14 32 14q42 0 42 -54v-76q0 -55 -49 -55t-49 55v36h20v-36q0 -37 29 -37q28 0 28 37v76q0 35 -25 35q-20 0 -32 -18h-17l8 150h82v-20h-63zM123 -4q-49 0 -49 53v57q0 30 21 43q-19 11 -19 40v56q0 26 10 39.5
t37 13.5q47 0 47 -53v-56q0 -30 -19 -40q21 -13 21 -43v-57q0 -53 -49 -53zM123 279q-27 0 -27 -37v-51q0 -35 27 -35t27 29v57q0 37 -27 37zM123 140q-30 0 -30 -37v-52q0 -38 30 -38q29 0 29 38v52q0 37 -29 37z" />
    <glyph glyph-name="seveneighths" unicode="&#x215e;" horiz-adv-x="245" 
d="M49 359h147v-19h-147v19zM131 406h-24q0 84 9.5 144t35.5 130h-78v20h100v-15q-27 -76 -35 -127.5t-8 -151.5zM123 -4q-49 0 -49 53v57q0 30 21 43q-19 11 -19 40v56q0 26 10 39.5t37 13.5q47 0 47 -53v-56q0 -30 -19 -40q21 -13 21 -43v-57q0 -53 -49 -53zM123 279
q-27 0 -27 -37v-51q0 -35 27 -35t27 29v57q0 37 -27 37zM123 140q-30 0 -30 -37v-52q0 -38 30 -38q29 0 29 38v52q0 37 -29 37z" />
    <glyph glyph-name="partialdiff" unicode="&#x2202;" horiz-adv-x="335" 
d="M164 380q-39 0 -55.5 -21t-16.5 -67v-181q0 -92 75 -92t75 92v221q-25 48 -78 48zM242 370q-1 107 -28.5 180t-93.5 150h38q64 -76 90.5 -151.5t26.5 -184.5v-253q0 -59 -24.5 -90t-83.5 -31t-83.5 31t-24.5 90v181q0 60 23 88.5t77 28.5q49 0 83 -39z" />
    <glyph glyph-name="minus" unicode="&#x2212;" horiz-adv-x="379" 
d="M59 293h260v-26h-260v26z" />
    <glyph glyph-name="integral" unicode="&#x222b;" horiz-adv-x="238" 
d="M83 -5v620q0 57 19 81t72 24q22 0 35 -6v-27q-13 5 -34 5q-35 0 -47.5 -15.5t-12.5 -61.5v-620q0 -57 -19 -81t-73 -24q-20 0 -34 6v27q13 -5 34 -5q35 0 47.5 15.5t12.5 61.5z" />
    <glyph glyph-name="approxequal" unicode="&#x2248;" horiz-adv-x="379" 
d="M59 335v26q26 26 65 26q31 0 64 -19t66 -19q37 0 65 28v-26q-28 -28 -65 -28q-33 0 -66 19t-64 19q-39 0 -65 -26zM59 183v26q26 26 65 26q31 0 64 -19t66 -19q37 0 65 28v-26q-28 -28 -65 -28q-33 0 -66 19t-64 19q-39 0 -65 -26z" />
    <glyph glyph-name="notequal" unicode="&#x2260;" horiz-adv-x="379" 
d="M319 191h-145l-44 -145h-25l44 145h-90v26h98l39 126h-137v26h145l44 145h26l-45 -145h90v-26h-98l-39 -126h137v-26z" />
    <glyph glyph-name="lessequal" unicode="&#x2264;" horiz-adv-x="282" 
d="M52 116h171v-26h-171v26zM49 338l137 145h35l-137 -145l137 -145h-35z" />
    <glyph glyph-name="greaterequal" unicode="&#x2265;" horiz-adv-x="282" 
d="M59 116h171v-26h-171v26zM96 483l137 -145l-137 -145h-35l137 145l-137 145h35z" />
    <glyph glyph-name="CR" horiz-adv-x="0" 
 />
    <glyph glyph-name="at.case" horiz-adv-x="536" 
d="M354 147h-18l-9 33q-17 -44 -64 -44q-86 0 -86 94v51q0 49 32.5 77.5t117.5 51.5v61q0 34 -12.5 52t-46.5 18t-47 -18t-13 -52v-19h-28v20q0 94 88 94q48 0 67 -25t19 -70v-324zM204 281v-51q0 -70 63 -70q30 0 45 20.5t15 52.5v155q-72 -20 -97.5 -44t-25.5 -63zM268 4
q182 0 182 205v281q0 205 -182 205t-182 -205v-281q0 -205 182 -205zM268 -20q-209 0 -209 229v281q0 230 209 230q208 0 208 -230v-281q0 -229 -208 -229z" />
    <glyph glyph-name="caron.salt" horiz-adv-x="137" 
d="M49 710h39l-22 -160h-17v160z" />
    <glyph glyph-name="commaaccent" horiz-adv-x="142" 
d="M49 -48h43l-20 -122h-23v122z" />
    <glyph glyph-name="acute.case" horiz-adv-x="204" 
d="M109 872h35l-60 -122h-24z" />
    <glyph glyph-name="grave.case" horiz-adv-x="204" 
d="M60 872h35l49 -122h-24z" />
    <glyph glyph-name="circumflex.case" horiz-adv-x="204" 
d="M86 872h32l56 -122h-26l-46 91l-47 -91h-25z" />
    <glyph glyph-name="dieresis.case" horiz-adv-x="204" 
d="M32 798h38v-48h-38v48zM135 798h38v-48h-38v48z" />
    <glyph glyph-name="tilde.case" horiz-adv-x="204" 
d="M151 750q-28 0 -52.5 25.5t-42.5 25.5q-19 0 -25.5 -10t-6.5 -31h-25q0 35 12.5 51.5t43.5 16.5q27 0 51 -25.5t43 -25.5q20 0 26.5 10t6.5 31h24q0 -35 -12.5 -51.5t-42.5 -16.5z" />
    <glyph glyph-name="caron.case" horiz-adv-x="204" 
d="M118 750h-32l-56 122h25l47 -91l46 91h26z" />
    <glyph glyph-name="ring.case" horiz-adv-x="204" 
d="M168 817q0 -74 -66 -74q-65 0 -65 74q0 76 65 76q66 0 66 -76zM143 817q0 54 -41 54q-40 0 -40 -54q0 -52 40 -52q41 0 41 52z" />
    <glyph glyph-name="breve.case" horiz-adv-x="204" 
d="M152 838h25q0 -98 -75 -98t-75 98h24q0 -71 51 -71q50 0 50 71z" />
    <glyph glyph-name="macron.case" horiz-adv-x="204" 
d="M17 750v26h170v-26h-170z" />
    <glyph glyph-name="dotaccent.case" horiz-adv-x="204" 
d="M83 798h38v-48h-38v48z" />
    <glyph glyph-name="hungarumlaut.case" horiz-adv-x="204" 
d="M50 872h34l-34 -122h-24zM143 872h35l-45 -122h-23z" />
    <glyph glyph-name="one.tnum" 
d="M189 700v-669h61v-31h-155v31h61v578h-66v22q42 0 58 15.5t16 53.5h25z" />
    <glyph glyph-name="two.tnum" 
d="M62 0v100q0 64 18.5 114t45 82t52.5 61.5t44.5 69.5t18.5 89v72q0 45 -15.5 68.5t-57.5 23.5q-43 0 -58 -23.5t-15 -68.5v-78h-33v78q0 60 22.5 91t83.5 31t83.5 -31t22.5 -91v-70q0 -54 -18.5 -97.5t-45 -74t-52.5 -61.5t-44.5 -78t-18.5 -107v-69h183v-31h-216z" />
    <glyph glyph-name="three.tnum" 
d="M278 251v-140q0 -59 -24.5 -90t-83.5 -31t-83 31t-24 90v89h33v-89q0 -92 74 -92q75 0 75 92v139q0 43 -16.5 65.5t-58.5 22.5h-29v30h29q40 0 55 21.5t15 63.5v138q0 89 -72 89t-72 -89v-81h-32v81q0 58 23.5 88.5t80.5 30.5t81 -31t24 -88v-136q0 -83 -59 -102
q64 -17 64 -102z" />
    <glyph glyph-name="four.tnum" 
d="M212 0v167h-170v36l162 497h41v-503h48v-30h-48v-167h-33zM71 197h141v122q0 54 0.5 161.5t0.5 163.5z" />
    <glyph glyph-name="five.tnum" 
d="M179 392q-50 0 -80 -46h-28l16 354h181v-31h-151l-13 -287q34 39 81 39q52 0 73 -29t21 -90v-191q0 -59 -24.5 -90t-83.5 -31t-83.5 31t-24.5 90v89h33v-89q0 -92 75 -92t75 92v191q0 47 -14 68.5t-53 21.5z" />
    <glyph glyph-name="six.tnum" 
d="M175 680q-75 0 -75 -92v-218q34 39 83 39q54 0 77 -28.5t23 -88.5v-181q0 -59 -24.5 -90t-83.5 -31t-83.5 31t-24.5 90v477q0 59 24.5 90.5t83.5 31.5t83.5 -31.5t24.5 -90.5v-78h-33v78q0 92 -75 92zM178 380q-51 0 -78 -47v-222q0 -92 75 -92t75 92v181q0 46 -16.5 67
t-55.5 21z" />
    <glyph glyph-name="seven.tnum" 
d="M171 0h-36q0 201 24 351t88 318h-196v31h228v-25q-65 -185 -86.5 -315.5t-21.5 -359.5z" />
    <glyph glyph-name="eight.tnum" 
d="M175 710q57 0 80 -30.5t23 -88.5v-136q0 -83 -59 -102q37 -10 50.5 -37t13.5 -75v-130q0 -59 -24.5 -90t-83.5 -31t-83.5 31t-24.5 90v130q0 48 13.5 75t50.5 37q-58 18 -58 102v136q0 58 22.5 88.5t79.5 30.5zM175 19q43 0 59 25t16 74v127q0 47 -15 70.5t-60 23.5
t-60 -23.5t-15 -70.5v-127q0 -48 16 -73.5t59 -25.5zM175 680q-40 0 -55 -24.5t-15 -71.5v-125q0 -46 14 -69t56 -23t56 23t14 69v125q0 47 -14.5 71.5t-55.5 24.5z" />
    <glyph glyph-name="nine.tnum" 
d="M175 19q75 0 75 92v229q-33 -39 -83 -39q-54 0 -77 28.5t-23 88.5v170q0 59 24.5 90.5t83.5 31.5t83.5 -31.5t24.5 -90.5v-477q0 -59 -24.5 -90t-83.5 -31t-83.5 31t-24.5 90v89h33v-89q0 -92 75 -92zM172 329q52 0 78 47v212q0 45 -17 68.5t-58 23.5t-58 -23.5
t-17 -68.5v-171q0 -46 16.5 -67t55.5 -21z" />
    <glyph glyph-name="zero.tnum" 
d="M175 19q75 0 75 92v477q0 45 -16.5 68.5t-58.5 23.5q-75 0 -75 -92v-477q0 -92 75 -92zM175 710q59 0 83.5 -31.5t24.5 -90.5v-477q0 -59 -24.5 -90t-83.5 -31t-83.5 31t-24.5 90v477q0 59 24.5 90.5t83.5 31.5z" />
    <glyph glyph-name="a.smcp" horiz-adv-x="302" 
d="M168 595l102 -595h-34l-24 146h-122l-24 -146h-34l102 595h34zM151 538l-57 -363h114z" />
    <glyph glyph-name="b.smcp" horiz-adv-x="343" 
d="M72 0v595h92q62 0 86.5 -23.5t24.5 -72.5v-113q0 -73 -62 -86q68 -12 68 -88v-112q0 -50 -24 -75t-90 -25h-95zM104 286v-256h61q48 0 66 17t18 54v112q0 73 -83 73h-62zM104 565v-251h56q83 0 83 71v112q0 36 -17 52t-63 16h-59z" />
    <glyph glyph-name="c.smcp" horiz-adv-x="316" 
d="M233 170h31v-70q0 -109 -104 -109q-103 0 -103 109v394q0 109 103 109q104 0 104 -109v-61h-31v61q0 81 -73 81q-72 0 -72 -81v-394q0 -81 72 -81q73 0 73 81v70z" />
    <glyph glyph-name="d.smcp" horiz-adv-x="338" 
d="M67 0v595h92q65 0 91 -28t26 -79v-381q0 -51 -25.5 -79t-90.5 -28h-93zM99 565v-535h60q48 0 66.5 19.5t18.5 57.5v381q0 38 -19 57.5t-67 19.5h-59z" />
    <glyph glyph-name="e.smcp" horiz-adv-x="293" 
d="M99 285v-255h147v-30h-179v595h179v-30h-147v-250h126v-30h-126z" />
    <glyph glyph-name="f.smcp" horiz-adv-x="270" 
d="M99 0h-32v595h171v-30h-139v-250h120v-30h-120v-285z" />
    <glyph glyph-name="g.smcp" horiz-adv-x="331" 
d="M237 97v188h-72v30h104v-218q0 -106 -104 -106q-103 0 -103 106v400q0 51 23 78.5t80 27.5q104 0 104 -106v-64h-32v64q0 77 -72 77t-72 -77v-400q0 -77 72 -77t72 77z" />
    <glyph glyph-name="h.smcp" horiz-adv-x="343" 
d="M99 285v-285h-32v595h32v-280h145v280h32v-595h-32v285h-145z" />
    <glyph glyph-name="i.smcp" horiz-adv-x="166" 
d="M67 0v595h32v-595h-32z" />
    <glyph glyph-name="j.smcp" horiz-adv-x="309" 
d="M210 595h32v-497q0 -53 -21 -80t-79 -27q-57 0 -78.5 28t-21.5 79v72h31v-72q0 -39 15 -58.5t54 -19.5q40 0 54 19t14 59v497z" />
    <glyph glyph-name="k.smcp" horiz-adv-x="314" 
d="M99 595v-282l144 282h37l-154 -294l161 -301h-37l-151 289v-289h-32v595h32z" />
    <glyph glyph-name="l.smcp" horiz-adv-x="251" 
d="M67 0v595h32v-565h120v-30h-152z" />
    <glyph glyph-name="m.smcp" horiz-adv-x="453" 
d="M226 66h1l112 529h47v-595h-30v212q0 222 3 338l-118 -550h-29l-119 550q4 -158 4 -338v-212h-30v595h47z" />
    <glyph glyph-name="n.smcp" horiz-adv-x="364" 
d="M96 527q0 -39 1 -107t1.5 -124t0.5 -107v-189h-32v595h36l165 -527q0 38 -1 106.5t-1.5 124.5t-0.5 106v190h32v-595h-35z" />
    <glyph glyph-name="o.smcp" horiz-adv-x="331" 
d="M165 20q40 0 56 20t16 58v398q0 38 -16 58t-56 20q-72 0 -72 -78v-398q0 -78 72 -78zM165 603q104 0 104 -107v-398q0 -107 -104 -107q-103 0 -103 107v398q0 107 103 107z" />
    <glyph glyph-name="p.smcp" horiz-adv-x="310" 
d="M67 0v595h86q64 0 89.5 -28t25.5 -79v-124q0 -105 -117 -105h-52v-259h-32zM99 565v-277h51q48 0 67 19.5t19 56.5v124q0 38 -18.5 57.5t-65.5 19.5h-53z" />
    <glyph glyph-name="q.smcp" horiz-adv-x="331" 
d="M247 -80h-10q-82 0 -85 72q-90 5 -90 106v398q0 107 103 107q104 0 104 -107v-398q0 -101 -90 -106q2 -26 16 -36.5t43 -10.5h16zM165 20q40 0 56 20t16 58v398q0 38 -16 58t-56 20q-72 0 -72 -78v-398q0 -78 72 -78z" />
    <glyph glyph-name="r.smcp" horiz-adv-x="322" 
d="M67 0v595h86q64 0 89.5 -28t25.5 -79v-124q0 -95 -88 -104l115 -260h-35q-8 19 -55.5 127.5t-56.5 131.5h-49v-259h-32zM99 565v-277h51q48 0 67 19.5t19 56.5v124q0 38 -18.5 57.5t-65.5 19.5h-53z" />
    <glyph glyph-name="s.smcp" horiz-adv-x="307" 
d="M255 433h-31v62q0 39 -15 59t-55 20q-42 0 -56 -20t-14 -59v-40q0 -40 17.5 -67t43 -43.5t50.5 -35.5t42.5 -55.5t17.5 -90.5v-63q0 -52 -21 -80.5t-80 -28.5t-80.5 28.5t-21.5 80.5v70h32v-70q0 -39 14.5 -59.5t55.5 -20.5t55.5 20.5t14.5 59.5v62q0 41 -12.5 71
t-32 45.5t-41.5 32.5t-41.5 32t-32 44t-12.5 69v39q0 52 21 80t81 28q59 0 80 -28t21 -80v-62z" />
    <glyph glyph-name="t.smcp" horiz-adv-x="256" 
d="M144 565v-565h-32v565h-85v30h202v-30h-85z" />
    <glyph glyph-name="u.smcp" horiz-adv-x="328" 
d="M234 595h32v-494q0 -52 -21.5 -81t-80.5 -29t-80.5 28.5t-21.5 81.5v494h32v-494q0 -40 14.5 -60.5t55.5 -20.5q42 0 56 20.5t14 60.5v494z" />
    <glyph glyph-name="v.smcp" horiz-adv-x="301" 
d="M269 595l-100 -595h-36l-101 595h34l85 -534l84 534h34z" />
    <glyph glyph-name="w.smcp" horiz-adv-x="516" 
d="M346 0l-88 530l-87 -530h-35l-94 595h33l79 -528l87 528h35l86 -528l80 528h32l-93 -595h-35z" />
    <glyph glyph-name="x.smcp" horiz-adv-x="307" 
d="M74 595l79 -249l79 249h36l-98 -287l105 -308h-37l-85 268l-86 -268h-35l105 308l-98 287h35z" />
    <glyph glyph-name="y.smcp" horiz-adv-x="285" 
d="M158 0h-31v258l-100 337h34l81 -293l83 293h33l-100 -337v-258z" />
    <glyph glyph-name="z.smcp" horiz-adv-x="266" 
d="M229 0h-187v21l151 544h-150v30h185v-21l-151 -544h152v-30z" />
    <glyph glyph-name="one.smcp" horiz-adv-x="238" 
d="M137 595v-565h59v-30h-149v30h59v482h-64v21q40 0 55.5 14.5t15.5 47.5h24z" />
    <glyph glyph-name="two.smcp" horiz-adv-x="306" 
d="M52 0v85q0 54 17.5 96.5t43 70.5t51 53.5t43 59t17.5 74.5v57q0 38 -15 58t-55 20q-41 0 -55.5 -19.5t-14.5 -58.5v-63h-32v63q0 51 21.5 79t80.5 28q58 0 79.5 -28t21.5 -79v-56q0 -46 -17.5 -83t-43 -62.5t-50.5 -52.5t-42.5 -66.5t-17.5 -90.5v-55h175v-30h-207z" />
    <glyph glyph-name="three.smcp" horiz-adv-x="320" 
d="M258 208v-110q0 -107 -103 -107t-103 107v72h32v-72q0 -38 16 -58t55 -20q72 0 72 78v109q0 38 -16 58t-56 20h-28v30h28q38 0 52.5 19.5t14.5 55.5v108q0 76 -69 76t-69 -76v-65h-31v65q0 105 100 105q101 0 101 -105v-106q0 -76 -57 -92q61 -14 61 -92z" />
    <glyph glyph-name="four.smcp" horiz-adv-x="305" 
d="M195 0v138h-163v35l153 422h42v-428h46v-29h-46v-138h-32zM60 167h135v379z" />
    <glyph glyph-name="five.smcp" horiz-adv-x="321" 
d="M168 331q-47 0 -77 -39h-27l16 303h174v-30h-145l-12 -237q32 32 77 32q49 0 69.5 -26.5t20.5 -78.5v-157q0 -107 -104 -107q-103 0 -103 107v72h31v-72q0 -78 72 -78t72 78v157q0 39 -13.5 57.5t-50.5 18.5z" />
    <glyph glyph-name="six.smcp" horiz-adv-x="331" 
d="M165 574q-72 0 -72 -78v-182q34 36 80 36q51 0 73.5 -26t22.5 -78v-148q0 -107 -104 -107q-103 0 -103 107v398q0 107 103 107q104 0 104 -107v-63h-32v63q0 78 -72 78zM168 321q-49 0 -75 -40v-183q0 -78 72 -78t72 78v148q0 39 -16 57t-53 18z" />
    <glyph glyph-name="seven.smcp" horiz-adv-x="253" 
d="M134 0h-36q0 175 21 299.5t81 265.5h-178v30h209v-25q-60 -154 -78.5 -262.5t-18.5 -307.5z" />
    <glyph glyph-name="eight.smcp" horiz-adv-x="331" 
d="M165 603q55 0 77 -27.5t22 -77.5v-104q0 -78 -56 -94q61 -14 61 -102v-100q0 -107 -104 -107q-103 0 -103 107v100q0 88 61 102q-56 16 -56 94v104q0 50 22 77.5t76 27.5zM165 20q42 0 57 21.5t15 62.5v97q0 41 -14 63t-58 22q-43 0 -57.5 -22t-14.5 -63v-97
q0 -41 15.5 -62.5t56.5 -21.5zM165 574q-38 0 -52.5 -21t-14.5 -61v-95q0 -40 13.5 -61.5t53.5 -21.5t54 21.5t14 61.5v95q0 40 -14 61t-54 21z" />
    <glyph glyph-name="nine.smcp" horiz-adv-x="331" 
d="M165 20q72 0 72 78v191q-33 -35 -79 -35q-52 0 -74 25.5t-22 77.5v139q0 107 103 107q104 0 104 -107v-398q0 -107 -104 -107q-103 0 -103 107v72h31v-72q0 -78 72 -78zM163 282q50 0 74 40v174q0 38 -16 58t-56 20q-72 0 -72 -78v-140q0 -39 16 -56.5t54 -17.5z" />
    <glyph glyph-name="zero.smcp" horiz-adv-x="331" 
d="M165 20q40 0 56 20t16 58v398q0 38 -16 58t-56 20q-72 0 -72 -78v-398q0 -78 72 -78zM165 603q104 0 104 -107v-398q0 -107 -104 -107q-103 0 -103 107v398q0 107 103 107z" />
    <glyph glyph-name="exclam.smcp" horiz-adv-x="168" 
d="M61 55h45v-55h-45v55zM62 595h43l-10 -400h-23z" />
    <glyph glyph-name="exclamdown.smcp" horiz-adv-x="168" 
d="M106 540h-45v55h45v-55zM105 0h-43l10 400h23z" />
    <glyph glyph-name="question.smcp" horiz-adv-x="330" 
d="M236 445v41q0 88 -73 88q-71 0 -71 -88v-53h-32v53q0 54 22 85.5t81 31.5q104 0 104 -117v-40q0 -41 -9.5 -67t-22.5 -40t-26.5 -28.5t-23 -43t-10.5 -72.5h-25q0 49 9 80.5t21.5 46t25 28t21.5 36.5t9 59zM142 55h45v-55h-45v55z" />
    <glyph glyph-name="questiondown.smcp" horiz-adv-x="330" 
d="M91 150v-41q0 -88 73 -88q71 0 71 88v53h32v-53q0 -54 -22 -85.5t-81 -31.5q-104 0 -104 117v40q0 41 9.5 67t22.5 40t26.5 28.5t23 43t10.5 72.5h25q0 -49 -9 -80.5t-21.5 -46t-25 -28t-21.5 -36.5t-9 -59zM185 540h-45v55h45v-55z" />
    <glyph glyph-name="ampersand.smcp" horiz-adv-x="391" 
d="M69 96v111q0 81 70 93q-70 12 -70 94v102q0 107 104 107t104 -107v-63h-32v63q0 78 -72 78q-40 0 -56 -20t-16 -58v-105q0 -76 80 -76h161v-30h-65v-200q0 -28 18 -42t47 -14v-29q-63 0 -82 46q-17 -55 -88 -55q-57 0 -80 27.5t-23 77.5zM173 20q72 0 72 77v188h-64
q-46 0 -63 -20t-17 -60v-108q0 -38 16 -57.5t56 -19.5z" />
    <glyph glyph-name="slash.smcp" horiz-adv-x="255" 
d="M37 -26l151 646h30l-151 -646h-30z" />
    <glyph glyph-name="backslash.smcp" horiz-adv-x="255" 
d="M67 620l151 -646h-30l-151 646h30z" />
    <glyph glyph-name="dollar.smcp" horiz-adv-x="328" 
d="M229 181v30q0 30 -16.5 49t-40 30t-47 23.5t-40 37t-16.5 62.5v16q0 95 83 100v66h25v-66q45 -3 63 -28.5t18 -71.5v-37h-29v37q0 38 -14.5 55.5t-50.5 17.5t-50 -18t-14 -55v-16q0 -32 16.5 -52.5t39.5 -31.5t46 -23t39.5 -35t16.5 -59v-30q0 -46 -17.5 -72t-63.5 -29
v-81h-25v81q-47 3 -65 28.5t-18 72.5v47h31v-49q0 -37 13 -54.5t51 -17.5q36 0 50.5 18t14.5 55z" />
    <glyph glyph-name="cent.smcp" horiz-adv-x="335" 
d="M235 240h31v-52q0 -100 -86 -105v-83h-24v83q-87 5 -87 105v235q0 100 87 105v67h24v-67q86 -5 86 -105v-42h-31v42q0 38 -14.5 58t-52.5 20q-39 0 -53.5 -20t-14.5 -58v-235q0 -37 14.5 -57t53.5 -20q38 0 52.5 20t14.5 57v52z" />
    <glyph glyph-name="sterling.smcp" horiz-adv-x="385" 
d="M52 288v24h69v180q0 53 21.5 82t81.5 29q58 0 79.5 -29.5t21.5 -81.5v-59h-32v59q0 40 -14 61t-55 21t-56 -21t-15 -61v-180h79v-24h-79v-179q0 -39 15 -59t57 -20h101v-30h-101q-68 0 -89 48q-19 -48 -87 -48v30q42 0 57 20t15 59v179h-69z" />
    <glyph glyph-name="Euro.smcp" horiz-adv-x="363" 
d="M39 264h48v74h-48v24h48v134q0 107 103 107q104 0 104 -107v-63h-32v63q0 78 -72 78t-72 -78v-134h135l-6 -24h-129v-74h108l-6 -24h-102v-142q0 -78 72 -78t72 78v72h32v-72q0 -107 -104 -107q-103 0 -103 107v142h-48v24z" />
    <glyph glyph-name="yen.smcp" horiz-adv-x="330" 
d="M181 0h-32v112h-86v24h86v71h-86v23h86v28l-100 337h34l81 -298l83 298h33l-99 -337v-28h88v-23h-88v-71h88v-24h-88v-112z" />
    <glyph glyph-name="numbersign.smcp" horiz-adv-x="350" 
d="M89 0l8 168h-55v29h57l10 201h-56v29h58l9 168h27l-9 -168h87l9 168h27l-9 -168h56v-29h-58l-10 -201h57v-29h-59l-8 -168h-27l8 168h-87l-8 -168h-27zM223 398h-87l-10 -201h87z" />
    <glyph glyph-name="percent.smcp" horiz-adv-x="433" 
d="M370 595l-275 -595h-33l276 595h32zM132 350q-41 0 -57 21.5t-16 66.5v76q0 46 16 67.5t57 21.5q40 0 56 -21.5t16 -67.5v-76q0 -45 -16 -66.5t-56 -21.5zM301 -9q-41 0 -57 22t-16 67v76q0 46 16 67.5t57 21.5q40 0 56 -21.5t16 -67.5v-76q0 -45 -16 -67t-56 -22z
M132 581q-25 0 -35 -15.5t-10 -51.5v-76q0 -35 9.5 -50t35.5 -15q25 0 35 15t10 50v76q0 35 -10 51t-35 16zM301 222q-26 0 -35.5 -15t-9.5 -51v-76q0 -36 9.5 -51t35.5 -15q25 0 35 15.5t10 50.5v76q0 35 -10 50.5t-35 15.5z" />
    <glyph glyph-name="acute.smcp" horiz-adv-x="182" 
d="M98 762h35l-60 -122h-24z" />
    <glyph glyph-name="grave.smcp" horiz-adv-x="182" 
d="M49 762h35l49 -122h-24z" />
    <glyph glyph-name="circumflex.smcp" horiz-adv-x="242" 
d="M105 762h32l56 -122h-26l-46 91l-47 -91h-25z" />
    <glyph glyph-name="dieresis.smcp" horiz-adv-x="246" 
d="M52 723h38v-48h-38v48zM155 723h38v-48h-38v48z" />
    <glyph glyph-name="tilde.smcp" horiz-adv-x="306" 
d="M201 650q-28 0 -52.5 25.5t-42.5 25.5q-19 0 -25.5 -10t-6.5 -31h-25q0 35 12.5 51.5t43.5 16.5q27 0 51 -25.5t43 -25.5q20 0 26.5 10t6.5 31h24q0 -35 -12.5 -51.5t-42.5 -16.5z" />
    <glyph glyph-name="caron.smcp" horiz-adv-x="242" 
d="M137 640h-32l-56 122h25l47 -91l46 91h26z" />
    <glyph glyph-name="ring.smcp" horiz-adv-x="229" 
d="M180 707q0 -74 -66 -74q-65 0 -65 74q0 76 65 76q66 0 66 -76zM155 707q0 54 -41 54q-40 0 -40 -54q0 -52 40 -52q41 0 41 52z" />
    <glyph glyph-name="breve.smcp" horiz-adv-x="248" 
d="M174 740h25q0 -98 -75 -98t-75 98h24q0 -71 51 -71q50 0 50 71z" />
    <glyph glyph-name="macron.smcp" horiz-adv-x="269" 
d="M49 683v26h170v-26h-170z" />
    <glyph glyph-name="dotaccent.smcp" horiz-adv-x="143" 
d="M52 723h38v-48h-38v48z" />
    <glyph glyph-name="hungarumlaut.smcp" horiz-adv-x="250" 
d="M73 762h34l-34 -122h-24zM166 762h35l-45 -122h-23z" />
    <glyph glyph-name="aacute.smcp" horiz-adv-x="302" 
d="M168 595l102 -595h-34l-24 146h-122l-24 -146h-34l102 595h34zM151 538l-57 -363h114zM190 762h35l-60 -122h-24z" />
    <glyph glyph-name="agrave.smcp" horiz-adv-x="302" 
d="M168 595l102 -595h-34l-24 146h-122l-24 -146h-34l102 595h34zM151 538l-57 -363h114zM78 762h35l49 -122h-24z" />
    <glyph glyph-name="acircumflex.smcp" horiz-adv-x="302" 
d="M168 595l102 -595h-34l-24 146h-122l-24 -146h-34l102 595h34zM151 538l-57 -363h114zM137 762h32l56 -122h-26l-46 91l-47 -91h-25z" />
    <glyph glyph-name="adieresis.smcp" horiz-adv-x="302" 
d="M168 595l102 -595h-34l-24 146h-122l-24 -146h-34l102 595h34zM151 538l-57 -363h114zM82 723h38v-48h-38v48zM185 723h38v-48h-38v48z" />
    <glyph glyph-name="atilde.smcp" horiz-adv-x="302" 
d="M168 595l102 -595h-34l-24 146h-122l-24 -146h-34l102 595h34zM151 538l-57 -363h114zM201 650q-28 0 -52.5 25.5t-42.5 25.5q-19 0 -25.5 -10t-6.5 -31h-25q0 35 12.5 51.5t43.5 16.5q27 0 51 -25.5t43 -25.5q20 0 26.5 10t6.5 31h24q0 -35 -12.5 -51.5t-42.5 -16.5z
" />
    <glyph glyph-name="aring.smcp" horiz-adv-x="302" 
d="M168 595l102 -595h-34l-24 146h-122l-24 -146h-34l102 595h34zM151 538l-57 -363h114zM218 707q0 -74 -66 -74q-65 0 -65 74q0 76 65 76q66 0 66 -76zM193 707q0 54 -41 54q-40 0 -40 -54q0 -52 40 -52q41 0 41 52z" />
    <glyph glyph-name="amacron.smcp" horiz-adv-x="302" 
d="M168 595l102 -595h-34l-24 146h-122l-24 -146h-34l102 595h34zM151 538l-57 -363h114zM68 683v26h170v-26h-170z" />
    <glyph glyph-name="abreve.smcp" horiz-adv-x="302" 
d="M168 595l102 -595h-34l-24 146h-122l-24 -146h-34l102 595h34zM151 538l-57 -363h114zM203 740h25q0 -98 -75 -98t-75 98h24q0 -71 51 -71q50 0 50 71z" />
    <glyph glyph-name="aogonek.smcp" horiz-adv-x="302" 
d="M270 -170h-12q-72 0 -72 62q0 56 51 102l-25 152h-122l-24 -146h-34l102 595h34l102 -595q-25 -19 -40.5 -47t-15.5 -54q0 -22 10.5 -31t32.5 -9h13v-29zM151 538l-57 -363h114z" />
    <glyph glyph-name="ae.smcp" horiz-adv-x="428" 
d="M22 0l170 595h194v-30h-146v-250h125v-30h-125v-255h146v-30h-178v146h-112l-41 -146h-33zM103 175h105v375z" />
    <glyph glyph-name="bdotaccent.smcp" horiz-adv-x="343" 
d="M72 0v595h92q62 0 86.5 -23.5t24.5 -72.5v-113q0 -73 -62 -86q68 -12 68 -88v-112q0 -50 -24 -75t-90 -25h-95zM104 286v-256h61q48 0 66 17t18 54v112q0 73 -83 73h-62zM104 565v-251h56q83 0 83 71v112q0 36 -17 52t-63 16h-59zM149 723h38v-48h-38v48z" />
    <glyph glyph-name="cacute.smcp" horiz-adv-x="316" 
d="M233 170h31v-70q0 -109 -104 -109q-103 0 -103 109v394q0 109 103 109q104 0 104 -109v-61h-31v61q0 81 -73 81q-72 0 -72 -81v-394q0 -81 72 -81q73 0 73 81v70zM192 762h35l-60 -122h-24z" />
    <glyph glyph-name="ccircumflex.smcp" horiz-adv-x="316" 
d="M233 170h31v-70q0 -109 -104 -109q-103 0 -103 109v394q0 109 103 109q104 0 104 -109v-61h-31v61q0 81 -73 81q-72 0 -72 -81v-394q0 -81 72 -81q73 0 73 81v70zM136 762h32l56 -122h-26l-46 91l-47 -91h-25z" />
    <glyph glyph-name="ccaron.smcp" horiz-adv-x="316" 
d="M233 170h31v-70q0 -109 -104 -109q-103 0 -103 109v394q0 109 103 109q104 0 104 -109v-61h-31v61q0 81 -73 81q-72 0 -72 -81v-394q0 -81 72 -81q73 0 73 81v70zM173 640h-32l-56 122h25l47 -91l46 91h26z" />
    <glyph glyph-name="ccedilla.smcp" horiz-adv-x="316" 
d="M130 -65l15 57q-88 8 -88 108v394q0 109 103 109q104 0 104 -109v-61h-31v61q0 81 -73 81q-72 0 -72 -81v-394q0 -81 72 -81q73 0 73 81v70h31v-70q0 -105 -97 -109l-9 -35q70 -5 70 -63q0 -63 -84 -63h-42l6 23h35q56 0 56 41t-57 41h-12z" />
    <glyph glyph-name="cdotaccent.smcp" horiz-adv-x="316" 
d="M233 170h31v-70q0 -109 -104 -109q-103 0 -103 109v394q0 109 103 109q104 0 104 -109v-61h-31v61q0 81 -73 81q-72 0 -72 -81v-394q0 -81 72 -81q73 0 73 81v70zM133 723h38v-48h-38v48z" />
    <glyph glyph-name="dcaron.smcp" horiz-adv-x="338" 
d="M67 0v595h92q65 0 91 -28t26 -79v-381q0 -51 -25.5 -79t-90.5 -28h-93zM99 565v-535h60q48 0 66.5 19.5t18.5 57.5v381q0 38 -19 57.5t-67 19.5h-59zM175 640h-32l-56 122h25l47 -91l46 91h26z" />
    <glyph glyph-name="ddotaccent.smcp" horiz-adv-x="338" 
d="M67 0v595h92q65 0 91 -28t26 -79v-381q0 -51 -25.5 -79t-90.5 -28h-93zM99 565v-535h60q48 0 66.5 19.5t18.5 57.5v381q0 38 -19 57.5t-67 19.5h-59zM140 723h38v-48h-38v48z" />
    <glyph glyph-name="dcroat.smcp" horiz-adv-x="338" 
d="M21 284v26h46v285h92q65 0 91 -28t26 -79v-381q0 -51 -25.5 -79t-90.5 -28h-93v284h-46zM99 565v-255h72v-26h-72v-254h60q48 0 66.5 19.5t18.5 57.5v381q0 38 -19 57.5t-67 19.5h-59z" />
    <glyph glyph-name="eth.smcp" horiz-adv-x="338" 
d="M21 284v26h46v285h92q65 0 91 -28t26 -79v-381q0 -51 -25.5 -79t-90.5 -28h-93v284h-46zM99 565v-255h72v-26h-72v-254h60q48 0 66.5 19.5t18.5 57.5v381q0 38 -19 57.5t-67 19.5h-59z" />
    <glyph glyph-name="eacute.smcp" horiz-adv-x="293" 
d="M99 285v-255h147v-30h-179v595h179v-30h-147v-250h126v-30h-126zM194 762h35l-60 -122h-24z" />
    <glyph glyph-name="egrave.smcp" horiz-adv-x="293" 
d="M99 285v-255h147v-30h-179v595h179v-30h-147v-250h126v-30h-126zM102 762h35l49 -122h-24z" />
    <glyph glyph-name="ecircumflex.smcp" horiz-adv-x="293" 
d="M99 285v-255h147v-30h-179v595h179v-30h-147v-250h126v-30h-126zM146 762h32l56 -122h-26l-46 91l-47 -91h-25z" />
    <glyph glyph-name="edieresis.smcp" horiz-adv-x="293" 
d="M99 285v-255h147v-30h-179v595h179v-30h-147v-250h126v-30h-126zM89 723h38v-48h-38v48zM192 723h38v-48h-38v48z" />
    <glyph glyph-name="ecaron.smcp" horiz-adv-x="293" 
d="M99 285v-255h147v-30h-179v595h179v-30h-147v-250h126v-30h-126zM178 640h-32l-56 122h25l47 -91l46 91h26z" />
    <glyph glyph-name="emacron.smcp" horiz-adv-x="293" 
d="M99 285v-255h147v-30h-179v595h179v-30h-147v-250h126v-30h-126zM71 683v26h170v-26h-170z" />
    <glyph glyph-name="ebreve.smcp" horiz-adv-x="293" 
d="M99 285v-255h147v-30h-179v595h179v-30h-147v-250h126v-30h-126zM212 740h25q0 -98 -75 -98t-75 98h24q0 -71 51 -71q50 0 50 71z" />
    <glyph glyph-name="eogonek.smcp" horiz-adv-x="293" 
d="M246 -170h-12q-72 0 -72 62q0 28 16 57.5t42 50.5h-153v595h179v-30h-147v-250h126v-30h-126v-255h147v-30q-25 -19 -40.5 -47t-15.5 -54q0 -22 10.5 -31t32.5 -9h13v-29z" />
    <glyph glyph-name="edotaccent.smcp" horiz-adv-x="293" 
d="M99 285v-255h147v-30h-179v595h179v-30h-147v-250h126v-30h-126zM140 723h38v-48h-38v48z" />
    <glyph glyph-name="fdotaccent.smcp" horiz-adv-x="270" 
d="M99 0h-32v595h171v-30h-139v-250h120v-30h-120v-285zM133 723h38v-48h-38v48z" />
    <glyph glyph-name="gcircumflex.smcp" horiz-adv-x="331" 
d="M237 97v188h-72v30h104v-218q0 -106 -104 -106q-103 0 -103 106v400q0 51 23 78.5t80 27.5q104 0 104 -106v-64h-32v64q0 77 -72 77t-72 -77v-400q0 -77 72 -77t72 77zM149 762h32l56 -122h-26l-46 91l-47 -91h-25z" />
    <glyph glyph-name="gbreve.smcp" horiz-adv-x="331" 
d="M237 97v188h-72v30h104v-218q0 -106 -104 -106q-103 0 -103 106v400q0 51 23 78.5t80 27.5q104 0 104 -106v-64h-32v64q0 77 -72 77t-72 -77v-400q0 -77 72 -77t72 77zM215 740h25q0 -98 -75 -98t-75 98h24q0 -71 51 -71q50 0 50 71z" />
    <glyph glyph-name="gdotaccent.smcp" horiz-adv-x="331" 
d="M237 97v188h-72v30h104v-218q0 -106 -104 -106q-103 0 -103 106v400q0 51 23 78.5t80 27.5q104 0 104 -106v-64h-32v64q0 77 -72 77t-72 -77v-400q0 -77 72 -77t72 77zM146 723h38v-48h-38v48z" />
    <glyph glyph-name="gcommaaccent.smcp" horiz-adv-x="331" 
d="M237 97v188h-72v30h104v-218q0 -106 -104 -106q-103 0 -103 106v400q0 51 23 78.5t80 27.5q104 0 104 -106v-64h-32v64q0 77 -72 77t-72 -77v-400q0 -77 72 -77t72 77zM144 -48h43l-20 -122h-23v122z" />
    <glyph glyph-name="hcircumflex.smcp" horiz-adv-x="343" 
d="M99 285v-285h-32v595h32v-280h145v280h32v-595h-32v285h-145zM155 762h32l56 -122h-26l-46 91l-47 -91h-25z" />
    <glyph glyph-name="hbar.smcp" horiz-adv-x="343" 
d="M30 440v26h37v129h32v-129h145v129h32v-129h37v-26h-37v-440h-32v285h-145v-285h-32v440h-37zM99 315h145v125h-145v-125z" />
    <glyph glyph-name="iacute.smcp" horiz-adv-x="166" 
d="M67 0v595h32v-595h-32zM120 762h35l-60 -122h-24z" />
    <glyph glyph-name="igrave.smcp" horiz-adv-x="166" 
d="M67 0v595h32v-595h-32zM9 762h35l49 -122h-24z" />
    <glyph glyph-name="icircumflex.smcp" horiz-adv-x="166" 
d="M67 0v595h32v-595h-32zM67 762h32l56 -122h-26l-46 91l-47 -91h-25z" />
    <glyph glyph-name="idieresis.smcp" horiz-adv-x="166" 
d="M67 0v595h32v-595h-32zM13 723h38v-48h-38v48zM116 723h38v-48h-38v48z" />
    <glyph glyph-name="itilde.smcp" horiz-adv-x="166" 
d="M67 0v595h32v-595h-32zM132 650q-28 0 -52.5 25.5t-42.5 25.5q-19 0 -25.5 -10t-6.5 -31h-25q0 35 12.5 51.5t43.5 16.5q27 0 51 -25.5t43 -25.5q20 0 26.5 10t6.5 31h24q0 -35 -12.5 -51.5t-42.5 -16.5z" />
    <glyph glyph-name="imacron.smcp" horiz-adv-x="166" 
d="M67 0v595h32v-595h-32zM-2 683v26h170v-26h-170z" />
    <glyph glyph-name="ibreve.smcp" horiz-adv-x="166" 
d="M67 0v595h32v-595h-32zM133 740h25q0 -98 -75 -98t-75 98h24q0 -71 51 -71q50 0 50 71z" />
    <glyph glyph-name="iogonek.smcp" horiz-adv-x="166" 
d="M15 -108q0 57 52 103v600h32v-595q-25 -19 -40.5 -47t-15.5 -54q0 -22 10.5 -31t32.5 -9h13v-29h-12q-72 0 -72 62z" />
    <glyph glyph-name="jcircumflex.smcp" horiz-adv-x="309" 
d="M210 595h32v-497q0 -53 -21 -80t-79 -27q-57 0 -78.5 28t-21.5 79v72h31v-72q0 -39 15 -58.5t54 -19.5q40 0 54 19t14 59v497zM208 762h32l56 -122h-26l-46 91l-47 -91h-25z" />
    <glyph glyph-name="kcommaaccent.smcp" horiz-adv-x="314" 
d="M99 595v-282l144 282h37l-154 -294l161 -301h-37l-151 289v-289h-32v595h32zM135 -48h43l-20 -122h-23v122z" />
    <glyph glyph-name="lacute.smcp" horiz-adv-x="251" 
d="M67 0v595h32v-565h120v-30h-152zM122 762h35l-60 -122h-24z" />
    <glyph glyph-name="lcaron.smcp" horiz-adv-x="251" 
d="M67 0v595h32v-565h120v-30h-152zM143 595h36l-21 -157h-15v157z" />
    <glyph glyph-name="lcommaaccent.smcp" horiz-adv-x="251" 
d="M67 0v595h32v-565h120v-30h-152zM127 -48h43l-20 -122h-23v122z" />
    <glyph glyph-name="ldot.smcp" horiz-adv-x="251" 
d="M67 0v595h32v-565h120v-30h-152zM140 307h45v-55h-45v55z" />
    <glyph glyph-name="lslash.smcp" horiz-adv-x="251" 
d="M164 294l-65 -27v-237h120v-30h-152v254l-46 -19v26l46 19v315h32v-302l65 27v-26z" />
    <glyph glyph-name="mdotaccent.smcp" horiz-adv-x="453" 
d="M226 66h1l112 529h47v-595h-30v212q0 222 3 338l-118 -550h-29l-119 550q4 -158 4 -338v-212h-30v595h47zM202 723h38v-48h-38v48z" />
    <glyph glyph-name="nacute.smcp" horiz-adv-x="364" 
d="M96 527q0 -39 1 -107t1.5 -124t0.5 -107v-189h-32v595h36l165 -527q0 38 -1 106.5t-1.5 124.5t-0.5 106v190h32v-595h-35zM224 762h35l-60 -122h-24z" />
    <glyph glyph-name="ntilde.smcp" horiz-adv-x="364" 
d="M96 527q0 -39 1 -107t1.5 -124t0.5 -107v-189h-32v595h36l165 -527q0 38 -1 106.5t-1.5 124.5t-0.5 106v190h32v-595h-35zM232 650q-28 0 -52.5 25.5t-42.5 25.5q-19 0 -25.5 -10t-6.5 -31h-25q0 35 12.5 51.5t43.5 16.5q27 0 51 -25.5t43 -25.5q20 0 26.5 10t6.5 31h24
q0 -35 -12.5 -51.5t-42.5 -16.5z" />
    <glyph glyph-name="ncaron.smcp" horiz-adv-x="364" 
d="M96 527q0 -39 1 -107t1.5 -124t0.5 -107v-189h-32v595h36l165 -527q0 38 -1 106.5t-1.5 124.5t-0.5 106v190h32v-595h-35zM200 640h-32l-56 122h25l47 -91l46 91h26z" />
    <glyph glyph-name="ncommaaccent.smcp" horiz-adv-x="364" 
d="M96 527q0 -39 1 -107t1.5 -124t0.5 -107v-189h-32v595h36l165 -527q0 38 -1 106.5t-1.5 124.5t-0.5 106v190h32v-595h-35zM162 -48h43l-20 -122h-23v122z" />
    <glyph glyph-name="eng.smcp" horiz-adv-x="364" 
d="M176 -139v27q12 -5 31 -5q34 0 46.5 14t12.5 53v50h-3l-167 529q0 -34 1 -94.5t1.5 -110.5t0.5 -95v-229h-32v595h36l164 -524q-2 204 -2 294v230h32v-645q0 -50 -19.5 -72.5t-69.5 -22.5q-20 0 -32 6z" />
    <glyph glyph-name="oacute.smcp" horiz-adv-x="331" 
d="M165 20q40 0 56 20t16 58v398q0 38 -16 58t-56 20q-72 0 -72 -78v-398q0 -78 72 -78zM165 603q104 0 104 -107v-398q0 -107 -104 -107q-103 0 -103 107v398q0 107 103 107zM199 762h35l-60 -122h-24z" />
    <glyph glyph-name="ograve.smcp" horiz-adv-x="331" 
d="M165 20q40 0 56 20t16 58v398q0 38 -16 58t-56 20q-72 0 -72 -78v-398q0 -78 72 -78zM165 603q104 0 104 -107v-398q0 -107 -104 -107q-103 0 -103 107v398q0 107 103 107zM94 762h35l49 -122h-24z" />
    <glyph glyph-name="ocircumflex.smcp" horiz-adv-x="331" 
d="M165 20q40 0 56 20t16 58v398q0 38 -16 58t-56 20q-72 0 -72 -78v-398q0 -78 72 -78zM165 603q104 0 104 -107v-398q0 -107 -104 -107q-103 0 -103 107v398q0 107 103 107zM147 762h32l56 -122h-26l-46 91l-47 -91h-25z" />
    <glyph glyph-name="odieresis.smcp" horiz-adv-x="331" 
d="M165 20q40 0 56 20t16 58v398q0 38 -16 58t-56 20q-72 0 -72 -78v-398q0 -78 72 -78zM165 603q104 0 104 -107v-398q0 -107 -104 -107q-103 0 -103 107v398q0 107 103 107zM92 723h38v-48h-38v48zM195 723h38v-48h-38v48z" />
    <glyph glyph-name="otilde.smcp" horiz-adv-x="334" 
d="M168 20q40 0 56 20t16 58v398q0 38 -16 58t-56 20q-72 0 -72 -78v-398q0 -78 72 -78zM168 603q104 0 104 -107v-398q0 -107 -104 -107q-103 0 -103 107v398q0 107 103 107zM214 650q-28 0 -52.5 25.5t-42.5 25.5q-19 0 -25.5 -10t-6.5 -31h-25q0 35 12.5 51.5t43.5 16.5
q27 0 51 -25.5t43 -25.5q20 0 26.5 10t6.5 31h24q0 -35 -12.5 -51.5t-42.5 -16.5z" />
    <glyph glyph-name="obreve.smcp" horiz-adv-x="331" 
d="M165 20q40 0 56 20t16 58v398q0 38 -16 58t-56 20q-72 0 -72 -78v-398q0 -78 72 -78zM165 603q104 0 104 -107v-398q0 -107 -104 -107q-103 0 -103 107v398q0 107 103 107zM213 740h25q0 -98 -75 -98t-75 98h24q0 -71 51 -71q50 0 50 71z" />
    <glyph glyph-name="omacron.smcp" horiz-adv-x="331" 
d="M165 20q40 0 56 20t16 58v398q0 38 -16 58t-56 20q-72 0 -72 -78v-398q0 -78 72 -78zM165 603q104 0 104 -107v-398q0 -107 -104 -107q-103 0 -103 107v398q0 107 103 107zM78 683v26h170v-26h-170z" />
    <glyph glyph-name="ohungarumlaut.smcp" horiz-adv-x="331" 
d="M165 20q40 0 56 20t16 58v398q0 38 -16 58t-56 20q-72 0 -72 -78v-398q0 -78 72 -78zM165 603q104 0 104 -107v-398q0 -107 -104 -107q-103 0 -103 107v398q0 107 103 107zM132 762h34l-34 -122h-24zM225 762h35l-45 -122h-23z" />
    <glyph glyph-name="oslash.smcp" horiz-adv-x="331" 
d="M87 -30l8 40q-33 25 -33 88v398q0 107 103 107q27 0 49 -8l6 29h23l-8 -40q34 -26 34 -88v-398q0 -107 -104 -107q-28 0 -49 8l-6 -29h-23zM165 20q40 0 56 20t16 58v398q0 31 -10 50l-105 -517q16 -9 43 -9zM93 98q0 -30 10 -49l105 516q-16 9 -43 9q-72 0 -72 -78v-398
z" />
    <glyph glyph-name="oe.smcp" horiz-adv-x="458" 
d="M162 20q40 0 56 20t16 58v398q0 38 -16 58t-56 20q-72 0 -72 -78v-398q0 -78 72 -78zM266 285v-255h147v-30h-179v21q-24 -30 -72 -30q-103 0 -103 107v398q0 107 103 107q48 0 72 -30v22h179v-30h-147v-250h126v-30h-126z" />
    <glyph glyph-name="thorn.smcp" horiz-adv-x="310" 
d="M67 0v595h32v-129h54q64 0 89.5 -28t25.5 -79v-124q0 -105 -117 -105h-52v-130h-32zM99 436v-277h51q48 0 67 19.5t19 56.5v124q0 38 -18.5 57.5t-65.5 19.5h-53z" />
    <glyph glyph-name="pdotaccent.smcp" horiz-adv-x="310" 
d="M67 0v595h86q64 0 89.5 -28t25.5 -79v-124q0 -105 -117 -105h-52v-259h-32zM99 565v-277h51q48 0 67 19.5t19 56.5v124q0 38 -18.5 57.5t-65.5 19.5h-53zM138 723h38v-48h-38v48z" />
    <glyph glyph-name="racute.smcp" horiz-adv-x="322" 
d="M67 0v595h86q64 0 89.5 -28t25.5 -79v-124q0 -95 -88 -104l115 -260h-35q-8 19 -55.5 127.5t-56.5 131.5h-49v-259h-32zM99 565v-277h51q48 0 67 19.5t19 56.5v124q0 38 -18.5 57.5t-65.5 19.5h-53zM186 762h35l-60 -122h-24z" />
    <glyph glyph-name="rcaron.smcp" horiz-adv-x="322" 
d="M67 0v595h86q64 0 89.5 -28t25.5 -79v-124q0 -95 -88 -104l115 -260h-35q-8 19 -55.5 127.5t-56.5 131.5h-49v-259h-32zM99 565v-277h51q48 0 67 19.5t19 56.5v124q0 38 -18.5 57.5t-65.5 19.5h-53zM176 640h-32l-56 122h25l47 -91l46 91h26z" />
    <glyph glyph-name="rcommaaccent.smcp" horiz-adv-x="322" 
d="M67 0v595h86q64 0 89.5 -28t25.5 -79v-124q0 -95 -88 -104l115 -260h-35q-8 19 -55.5 127.5t-56.5 131.5h-49v-259h-32zM99 565v-277h51q48 0 67 19.5t19 56.5v124q0 38 -18.5 57.5t-65.5 19.5h-53zM150 -48h43l-20 -122h-23v122z" />
    <glyph glyph-name="sacute.smcp" horiz-adv-x="307" 
d="M255 433h-31v62q0 39 -15 59t-55 20q-42 0 -56 -20t-14 -59v-40q0 -40 17.5 -67t43 -43.5t50.5 -35.5t42.5 -55.5t17.5 -90.5v-63q0 -52 -21 -80.5t-80 -28.5t-80.5 28.5t-21.5 80.5v70h32v-70q0 -39 14.5 -59.5t55.5 -20.5t55.5 20.5t14.5 59.5v62q0 41 -12.5 71
t-32 45.5t-41.5 32.5t-41.5 32t-32 44t-12.5 69v39q0 52 21 80t81 28q59 0 80 -28t21 -80v-62zM194 762h35l-60 -122h-24z" />
    <glyph glyph-name="scircumflex.smcp" horiz-adv-x="307" 
d="M255 433h-31v62q0 39 -15 59t-55 20q-42 0 -56 -20t-14 -59v-40q0 -40 17.5 -67t43 -43.5t50.5 -35.5t42.5 -55.5t17.5 -90.5v-63q0 -52 -21 -80.5t-80 -28.5t-80.5 28.5t-21.5 80.5v70h32v-70q0 -39 14.5 -59.5t55.5 -20.5t55.5 20.5t14.5 59.5v62q0 41 -12.5 71
t-32 45.5t-41.5 32.5t-41.5 32t-32 44t-12.5 69v39q0 52 21 80t81 28q59 0 80 -28t21 -80v-62zM140 762h32l56 -122h-26l-46 91l-47 -91h-25z" />
    <glyph glyph-name="scaron.smcp" horiz-adv-x="307" 
d="M255 433h-31v62q0 39 -15 59t-55 20q-42 0 -56 -20t-14 -59v-40q0 -40 17.5 -67t43 -43.5t50.5 -35.5t42.5 -55.5t17.5 -90.5v-63q0 -52 -21 -80.5t-80 -28.5t-80.5 28.5t-21.5 80.5v70h32v-70q0 -39 14.5 -59.5t55.5 -20.5t55.5 20.5t14.5 59.5v62q0 41 -12.5 71
t-32 45.5t-41.5 32.5t-41.5 32t-32 44t-12.5 69v39q0 52 21 80t81 28q59 0 80 -28t21 -80v-62zM172 640h-32l-56 122h25l47 -91l46 91h26z" />
    <glyph glyph-name="sdotaccent.smcp" horiz-adv-x="307" 
d="M255 433h-31v62q0 39 -15 59t-55 20q-42 0 -56 -20t-14 -59v-40q0 -40 17.5 -67t43 -43.5t50.5 -35.5t42.5 -55.5t17.5 -90.5v-63q0 -52 -21 -80.5t-80 -28.5t-80.5 28.5t-21.5 80.5v70h32v-70q0 -39 14.5 -59.5t55.5 -20.5t55.5 20.5t14.5 59.5v62q0 41 -12.5 71
t-32 45.5t-41.5 32.5t-41.5 32t-32 44t-12.5 69v39q0 52 21 80t81 28q59 0 80 -28t21 -80v-62zM137 723h38v-48h-38v48z" />
    <glyph glyph-name="scedilla.smcp" horiz-adv-x="307" 
d="M123 -65l15 57q-50 3 -68 31t-18 77v70h32v-70q0 -39 14.5 -59.5t55.5 -20.5t55.5 20.5t14.5 59.5v62q0 41 -12.5 71t-32 45.5t-41.5 32.5t-41.5 32t-32 44t-12.5 69v39q0 52 21 80t81 28q59 0 80 -28t21 -80v-62h-31v62q0 39 -15 59t-55 20q-42 0 -56 -20t-14 -59v-40
q0 -40 17.5 -67t43 -43.5t50.5 -35.5t42.5 -55.5t17.5 -90.5v-63q0 -51 -20.5 -79.5t-75.5 -29.5l-8 -35q70 -5 70 -63q0 -63 -84 -63h-42l6 23h35q56 0 56 41t-57 41h-12z" />
    <glyph glyph-name="scommaaccent.smcp" horiz-adv-x="307" 
d="M255 433h-31v62q0 39 -15 59t-55 20q-42 0 -56 -20t-14 -59v-40q0 -40 17.5 -67t43 -43.5t50.5 -35.5t42.5 -55.5t17.5 -90.5v-63q0 -52 -21 -80.5t-80 -28.5t-80.5 28.5t-21.5 80.5v70h32v-70q0 -39 14.5 -59.5t55.5 -20.5t55.5 20.5t14.5 59.5v62q0 41 -12.5 71
t-32 45.5t-41.5 32.5t-41.5 32t-32 44t-12.5 69v39q0 52 21 80t81 28q59 0 80 -28t21 -80v-62zM134 -48h43l-20 -122h-23v122z" />
    <glyph glyph-name="germandbls.smcp" horiz-adv-x="610" 
d="M255 433h-31v62q0 39 -15 59t-55 20q-42 0 -56 -20t-14 -59v-40q0 -40 17.5 -67t43 -43.5t50.5 -35.5t42.5 -55.5t17.5 -90.5v-63q0 -52 -21 -80.5t-80 -28.5t-80.5 28.5t-21.5 80.5v70h32v-70q0 -39 14.5 -59.5t55.5 -20.5t55.5 20.5t14.5 59.5v62q0 41 -12.5 71
t-32 45.5t-41.5 32.5t-41.5 32t-32 44t-12.5 69v39q0 52 21 80t81 28q59 0 80 -28t21 -80v-62zM558 433h-31v62q0 39 -15 59t-55 20q-42 0 -56 -20t-14 -59v-40q0 -34 12.5 -59t31.5 -38t41.5 -30t41.5 -34.5t31.5 -51t12.5 -79.5v-63q0 -52 -21 -80.5t-80 -28.5t-80.5 28.5
t-21.5 80.5v70h32v-70q0 -39 14.5 -59.5t55.5 -20.5t55.5 20.5t14.5 59.5v62q0 41 -12.5 71t-32 45.5t-41.5 32.5t-41.5 32t-32 44t-12.5 69v39q0 52 21 80t81 28q59 0 80 -28t21 -80v-62z" />
    <glyph glyph-name="tcaron.smcp" horiz-adv-x="256" 
d="M144 565v-565h-32v565h-85v30h202v-30h-85zM146 640h-32l-56 122h25l47 -91l46 91h26z" />
    <glyph glyph-name="tdotaccent.smcp" horiz-adv-x="256" 
d="M144 565v-565h-32v565h-85v30h202v-30h-85zM111 723h38v-48h-38v48z" />
    <glyph glyph-name="tcommaaccent.smcp" horiz-adv-x="256" 
d="M144 565v-565h-32v565h-85v30h202v-30h-85zM109 -48h43l-20 -122h-23v122z" />
    <glyph glyph-name="tbar.smcp" horiz-adv-x="256" 
d="M54 270v26h58v269h-85v30h202v-30h-85v-269h60v-26h-60v-270h-32v270h-58z" />
    <glyph glyph-name="uacute.smcp" horiz-adv-x="328" 
d="M234 595h32v-494q0 -52 -21.5 -81t-80.5 -29t-80.5 28.5t-21.5 81.5v494h32v-494q0 -40 14.5 -60.5t55.5 -20.5q42 0 56 20.5t14 60.5v494zM209 762h35l-60 -122h-24z" />
    <glyph glyph-name="ugrave.smcp" horiz-adv-x="328" 
d="M234 595h32v-494q0 -52 -21.5 -81t-80.5 -29t-80.5 28.5t-21.5 81.5v494h32v-494q0 -40 14.5 -60.5t55.5 -20.5q42 0 56 20.5t14 60.5v494zM99 762h35l49 -122h-24z" />
    <glyph glyph-name="ucircumflex.smcp" horiz-adv-x="328" 
d="M234 595h32v-494q0 -52 -21.5 -81t-80.5 -29t-80.5 28.5t-21.5 81.5v494h32v-494q0 -40 14.5 -60.5t55.5 -20.5q42 0 56 20.5t14 60.5v494zM150 762h32l56 -122h-26l-46 91l-47 -91h-25z" />
    <glyph glyph-name="udieresis.smcp" horiz-adv-x="328" 
d="M234 595h32v-494q0 -52 -21.5 -81t-80.5 -29t-80.5 28.5t-21.5 81.5v494h32v-494q0 -40 14.5 -60.5t55.5 -20.5q42 0 56 20.5t14 60.5v494zM96 723h38v-48h-38v48zM199 723h38v-48h-38v48z" />
    <glyph glyph-name="utilde.smcp" horiz-adv-x="328" 
d="M234 595h32v-494q0 -52 -21.5 -81t-80.5 -29t-80.5 28.5t-21.5 81.5v494h32v-494q0 -40 14.5 -60.5t55.5 -20.5q42 0 56 20.5t14 60.5v494zM215 650q-28 0 -52.5 25.5t-42.5 25.5q-19 0 -25.5 -10t-6.5 -31h-25q0 35 12.5 51.5t43.5 16.5q27 0 51 -25.5t43 -25.5
q20 0 26.5 10t6.5 31h24q0 -35 -12.5 -51.5t-42.5 -16.5z" />
    <glyph glyph-name="uring.smcp" horiz-adv-x="328" 
d="M234 595h32v-494q0 -52 -21.5 -81t-80.5 -29t-80.5 28.5t-21.5 81.5v494h32v-494q0 -40 14.5 -60.5t55.5 -20.5q42 0 56 20.5t14 60.5v494zM232 707q0 -74 -66 -74q-65 0 -65 74q0 76 65 76q66 0 66 -76zM207 707q0 54 -41 54q-40 0 -40 -54q0 -52 40 -52q41 0 41 52z
" />
    <glyph glyph-name="ubreve.smcp" horiz-adv-x="328" 
d="M234 595h32v-494q0 -52 -21.5 -81t-80.5 -29t-80.5 28.5t-21.5 81.5v494h32v-494q0 -40 14.5 -60.5t55.5 -20.5q42 0 56 20.5t14 60.5v494zM216 740h25q0 -98 -75 -98t-75 98h24q0 -71 51 -71q50 0 50 71z" />
    <glyph glyph-name="umacron.smcp" horiz-adv-x="328" 
d="M234 595h32v-494q0 -52 -21.5 -81t-80.5 -29t-80.5 28.5t-21.5 81.5v494h32v-494q0 -40 14.5 -60.5t55.5 -20.5q42 0 56 20.5t14 60.5v494zM81 683v26h170v-26h-170z" />
    <glyph glyph-name="uhungarumlaut.smcp" horiz-adv-x="328" 
d="M234 595h32v-494q0 -52 -21.5 -81t-80.5 -29t-80.5 28.5t-21.5 81.5v494h32v-494q0 -40 14.5 -60.5t55.5 -20.5q42 0 56 20.5t14 60.5v494zM138 762h34l-34 -122h-24zM231 762h35l-45 -122h-23z" />
    <glyph glyph-name="uogonek.smcp" horiz-adv-x="328" 
d="M206 -170h-12q-72 0 -72 62q0 55 47 99h-5q-59 0 -80.5 28.5t-21.5 81.5v494h32v-494q0 -40 14.5 -60.5t55.5 -20.5q42 0 56 20.5t14 60.5v494h32v-494q0 -44 -14.5 -71.5t-53.5 -35.5q-48 -41 -48 -95q0 -22 10.5 -31t32.5 -9h13v-29z" />
    <glyph glyph-name="wacute.smcp" horiz-adv-x="516" 
d="M346 0l-88 530l-87 -530h-35l-94 595h33l79 -528l87 528h35l86 -528l80 528h32l-93 -595h-35zM292 762h35l-60 -122h-24z" />
    <glyph glyph-name="wgrave.smcp" horiz-adv-x="516" 
d="M346 0l-88 530l-87 -530h-35l-94 595h33l79 -528l87 528h35l86 -528l80 528h32l-93 -595h-35zM182 762h35l49 -122h-24z" />
    <glyph glyph-name="wcircumflex.smcp" horiz-adv-x="516" 
d="M346 0l-88 530l-87 -530h-35l-94 595h33l79 -528l87 528h35l86 -528l80 528h32l-93 -595h-35zM239 762h32l56 -122h-26l-46 91l-47 -91h-25z" />
    <glyph glyph-name="wdieresis.smcp" horiz-adv-x="516" 
d="M346 0l-88 530l-87 -530h-35l-94 595h33l79 -528l87 528h35l86 -528l80 528h32l-93 -595h-35zM185 723h38v-48h-38v48zM288 723h38v-48h-38v48z" />
    <glyph glyph-name="yacute.smcp" horiz-adv-x="285" 
d="M158 0h-31v258l-100 337h34l81 -293l83 293h33l-100 -337v-258zM182 762h35l-60 -122h-24z" />
    <glyph glyph-name="ygrave.smcp" horiz-adv-x="285" 
d="M158 0h-31v258l-100 337h34l81 -293l83 293h33l-100 -337v-258zM76 762h35l49 -122h-24z" />
    <glyph glyph-name="ycircumflex.smcp" horiz-adv-x="285" 
d="M158 0h-31v258l-100 337h34l81 -293l83 293h33l-100 -337v-258zM129 762h32l56 -122h-26l-46 91l-47 -91h-25z" />
    <glyph glyph-name="ydieresis.smcp" horiz-adv-x="285" 
d="M158 0h-31v258l-100 337h34l81 -293l83 293h33l-100 -337v-258zM74 723h38v-48h-38v48zM177 723h38v-48h-38v48z" />
    <glyph glyph-name="zacute.smcp" horiz-adv-x="266" 
d="M229 0h-187v21l151 544h-150v30h185v-21l-151 -544h152v-30zM166 762h35l-60 -122h-24z" />
    <glyph glyph-name="zcaron.smcp" horiz-adv-x="266" 
d="M229 0h-187v21l151 544h-150v30h185v-21l-151 -544h152v-30zM149 640h-32l-56 122h25l47 -91l46 91h26z" />
    <glyph glyph-name="zdotaccent.smcp" horiz-adv-x="266" 
d="M229 0h-187v21l151 544h-150v30h185v-21l-151 -544h152v-30zM114 723h38v-48h-38v48z" />
    </font>
</defs>
</svg>
