<?xml version="1.0" standalone="no"?>
<!DOCTYPE svg PUBLIC "-//W3C//DTD SVG 1.1//EN" "http://www.w3.org/Graphics/SVG/1.1/DTD/svg11.dtd" >
<svg xmlns="http://www.w3.org/2000/svg" xmlns:xlink="http://www.w3.org/1999/xlink" version="1.1">
<metadata>
Created by FontForge 20161003 at Thu Jul 19 08:56:48 2018
 By www-data
Copyright (c) 2008 by Silas Dilworth. All rights reserved.
</metadata>
<defs>
<font id="HeroicCondensedThin" horiz-adv-x="316" >
  <font-face 
    font-family="HeroicCondensedThin"
    font-weight="400"
    font-stretch="normal"
    units-per-em="1000"
    panose-1="2 0 5 8 8 0 0 2 0 4"
    ascent="750"
    descent="-250"
    x-height="500"
    cap-height="700"
    bbox="-35 -210 553 889"
    underline-thickness="50"
    underline-position="-150"
    unicode-range="U+0020-2265"
  />
<missing-glyph horiz-adv-x="200" 
 />
    <glyph glyph-name=".notdef" horiz-adv-x="200" 
 />
    <glyph glyph-name=".null" horiz-adv-x="0" 
 />
    <glyph glyph-name="nonmarkingreturn" horiz-adv-x="333" 
 />
    <glyph glyph-name="space" unicode=" " horiz-adv-x="180" 
 />
    <glyph glyph-name="exclam" unicode="!" horiz-adv-x="154" 
d="M60 44h34v-44h-34v44zM62 700h30l-8 -470h-14z" />
    <glyph glyph-name="quotedbl" unicode="&#x22;" horiz-adv-x="236" 
d="M50 710h36l-12 -180h-12zM150 710h36l-12 -180h-12z" />
    <glyph glyph-name="numbersign" unicode="#" horiz-adv-x="362" 
d="M312 542v-16h-63l-11 -202h64v-16h-65l-8 -158h-18l8 158h-90l-8 -158h-18l8 158h-61v16h62l11 202h-63v16h64l9 158h18l-9 -158h90l9 158h18l-9 -158h62zM141 526l-11 -202h90l11 202h-90z" />
    <glyph glyph-name="dollar" unicode="$" horiz-adv-x="328" 
d="M240 210v38q0 38 -17.5 61.5t-42.5 35.5t-50 25t-42.5 40.5t-17.5 71.5v25q0 54 18.5 81.5t66.5 30.5v81h18v-81q48 -3 66.5 -30.5t18.5 -81.5v-42h-18v42q0 49 -16 72.5t-60 23.5q-43 0 -59.5 -23.5t-16.5 -72.5v-25q0 -42 17.5 -67t42.5 -37l50 -24t42.5 -38t17.5 -68
v-38q0 -54 -18 -81.5t-67 -29.5v-99h-18v99q-49 2 -67 29.5t-18 81.5v56h18v-56q0 -50 15.5 -72.5t60.5 -22.5t60.5 22.5t15.5 72.5z" />
    <glyph glyph-name="percent" unicode="%" horiz-adv-x="439" 
d="M377 700l-295 -700h-20l295 700h20zM134 451q32 0 44 18t12 63v81q0 45 -12 63t-44 18t-44 -18t-12 -63v-81q0 -45 12 -63t44 -18zM134 435q-42 0 -58 22.5t-16 74.5v81q0 52 16 74.5t58 22.5t58 -22.5t16 -74.5v-81q0 -52 -16 -74.5t-58 -22.5zM305 6q32 0 44 18t12 63
v81q0 45 -12 63t-44 18t-44 -18t-12 -63v-81q0 -45 12 -63t44 -18zM305 -10q-42 0 -58 22.5t-16 74.5v81q0 52 16 74.5t58 22.5t58 -22.5t16 -74.5v-81q0 -52 -16 -74.5t-58 -22.5z" />
    <glyph glyph-name="ampersand" unicode="&#x26;" horiz-adv-x="399" 
d="M70 108v141q0 92 81 104q-44 7 -62.5 32.5t-18.5 72.5v131q0 58 23 89.5t80 31.5t80 -31.5t23 -89.5v-79h-18v79q0 51 -19 78t-66 27t-66 -27t-19 -78v-131q0 -49 21 -73t74 -24h166v-16h-73v-258q0 -36 20.5 -53.5t52.5 -17.5v-16q-68 0 -83 55q-16 -65 -93 -65
q-57 0 -80 30t-23 88zM173 6q47 0 66 25.5t19 76.5v237h-75q-53 0 -74 -23.5t-21 -72.5v-141q0 -51 19 -76.5t66 -25.5z" />
    <glyph glyph-name="quotesingle" unicode="'" horiz-adv-x="126" 
d="M45 710h36l-12 -180h-12z" />
    <glyph glyph-name="parenleft" unicode="(" horiz-adv-x="233" 
d="M173 -30h-16q-97 201 -97 379q0 179 97 381h16q-93 -221 -93 -381t93 -379z" />
    <glyph glyph-name="parenright" unicode=")" horiz-adv-x="233" 
d="M76 -30h-16q93 219 93 379t-93 381h16q97 -202 97 -381q0 -178 -97 -379z" />
    <glyph glyph-name="asterisk" unicode="*" horiz-adv-x="352" 
d="M181 578l121 52l10 -32l-128 -29l87 -99l-27 -20l-68 113l-68 -113l-27 20l87 99l-128 29l10 32l121 -52l-12 132h34z" />
    <glyph glyph-name="plus" unicode="+" horiz-adv-x="380" 
d="M60 272v16h121v137h18v-137h121v-16h-121v-137h-18v137h-121z" />
    <glyph glyph-name="comma" unicode="," horiz-adv-x="129" 
d="M50 44h34l-20 -132h-14v132z" />
    <glyph glyph-name="hyphen" unicode="-" horiz-adv-x="270" 
d="M50 272v16h170v-16h-170z" />
    <glyph glyph-name="period" unicode="." horiz-adv-x="134" 
d="M50 44h34v-44h-34v44z" />
    <glyph glyph-name="slash" unicode="/" horiz-adv-x="258" 
d="M40 -30l160 760h18l-160 -760h-18z" />
    <glyph glyph-name="zero" unicode="0" horiz-adv-x="326" 
d="M163 -10q-57 0 -80 31.5t-23 89.5v478q0 58 23 89.5t80 31.5t80 -31.5t23 -89.5v-478q0 -58 -23 -89.5t-80 -31.5zM163 6q47 0 66 27t19 78v478q0 51 -19 78t-66 27t-66 -27t-19 -78v-478q0 -51 19 -78t66 -27z" />
    <glyph glyph-name="one" unicode="1" horiz-adv-x="237" 
d="M131 700v-684h61v-16h-140v16h61v603h-68v12q43 0 58.5 14t15.5 55h12z" />
    <glyph glyph-name="two" unicode="2" horiz-adv-x="307" 
d="M55 0v100q0 63 19 112.5t46 82t54 62.5t46 70.5t19 90.5v69q0 53 -17 80t-66 27t-66 -27t-17 -80v-77h-18v77q0 61 20.5 92t80.5 31t80.5 -31t20.5 -92v-67q0 -54 -19 -97t-46 -73.5t-54 -62.5t-46 -79.5t-19 -108.5v-83h189v-16h-207z" />
    <glyph glyph-name="three" unicode="3" horiz-adv-x="326" 
d="M261 246v-135q0 -58 -23 -89.5t-80 -31.5t-80 31.5t-23 89.5v89h18v-89q0 -51 19 -78t66 -27t66 27t19 78v135q0 50 -17.5 74.5t-67.5 24.5h-27v16h27q46 0 62.5 24.5t16.5 73.5v132q0 51 -18.5 77t-63.5 26t-63.5 -26t-18.5 -77v-81h-18v81q0 58 22.5 88.5t77.5 30.5
t77.5 -30.5t22.5 -88.5v-132q0 -89 -61 -106q67 -15 67 -107z" />
    <glyph glyph-name="four" unicode="4" horiz-adv-x="311" 
d="M209 0v174h-174v21l173 505h19v-510h49v-16h-49v-174h-18zM52 190h157v465z" />
    <glyph glyph-name="five" unicode="5" horiz-adv-x="326" 
d="M248 111v189q0 54 -15.5 79t-58.5 25q-55 0 -89 -52h-17l16 348h171v-16h-154l-15 -309q39 45 89 45q51 0 71 -29t20 -91v-189q0 -58 -23 -89.5t-80 -31.5t-80 31.5t-23 89.5v89h18v-89q0 -51 19 -78t66 -27t66 27t19 78z" />
    <glyph glyph-name="six" unicode="6" horiz-adv-x="331" 
d="M83 589v-224q36 44 89 44q54 0 76.5 -28.5t22.5 -88.5v-181q0 -58 -23 -89.5t-80 -31.5t-80 31.5t-23 89.5v478q0 58 23 89.5t80 31.5t80 -31.5t23 -89.5v-79h-18v79q0 51 -19 78t-66 27t-66 -27t-19 -78zM172 393q-55 0 -89 -47v-235q0 -51 19 -78t66 -27t66 27t19 78
v181q0 54 -18.5 77.5t-62.5 23.5z" />
    <glyph glyph-name="seven" unicode="7" horiz-adv-x="272" 
d="M135 0h-20q0 216 22 365t87 319h-194v16h212v-12q-66 -181 -86.5 -315.5t-20.5 -372.5z" />
    <glyph glyph-name="eight" unicode="8" horiz-adv-x="326" 
d="M163 -10q-57 0 -80 31.5t-23 89.5v135q0 92 67 107q-61 17 -61 106v132q0 59 21.5 89t75.5 30t75.5 -30t21.5 -89v-132q0 -89 -61 -106q67 -15 67 -107v-135q0 -58 -23 -89.5t-80 -31.5zM163 694q-45 0 -62 -26t-17 -77v-132q0 -49 16.5 -73.5t62.5 -24.5t62.5 24.5
t16.5 73.5v132q0 51 -17 77t-62 26zM163 345q-50 0 -67.5 -24.5t-17.5 -74.5v-135q0 -51 19 -78t66 -27t66 27t19 78v135q0 50 -17.5 74.5t-67.5 24.5z" />
    <glyph glyph-name="nine" unicode="9" horiz-adv-x="326" 
d="M248 111v234q-36 -44 -89 -44q-54 0 -76.5 28.5t-22.5 88.5v171q0 58 23 89.5t80 31.5t80 -31.5t23 -89.5v-478q0 -58 -23 -89.5t-80 -31.5t-80 31.5t-23 89.5v89h18v-89q0 -51 19 -78t66 -27t66 27t19 78zM159 317q55 0 89 47v225q0 51 -19 78t-66 27t-66 -27t-19 -78
v-171q0 -54 18.5 -77.5t62.5 -23.5z" />
    <glyph glyph-name="colon" unicode=":" horiz-adv-x="154" 
d="M60 44h34v-44h-34v44zM60 376h34v-44h-34v44z" />
    <glyph glyph-name="semicolon" unicode=";" horiz-adv-x="149" 
d="M60 44h34l-20 -132h-14v132zM60 376h34v-44h-34v44z" />
    <glyph glyph-name="less" unicode="&#x3c;" horiz-adv-x="279" 
d="M210 -30l-160 380l160 380h19l-160 -380l160 -380h-19z" />
    <glyph glyph-name="equal" unicode="=" horiz-adv-x="380" 
d="M320 196h-260v16h260v-16zM320 348h-260v16h260v-16z" />
    <glyph glyph-name="greater" unicode="&#x3e;" horiz-adv-x="279" 
d="M229 350l-160 -380h-19l160 380l-160 380h19z" />
    <glyph glyph-name="question" unicode="?" horiz-adv-x="322" 
d="M244 525v62q0 53 -17 80t-66 27t-65.5 -26.5t-16.5 -80.5v-77h-19v77q0 61 20.5 92t80.5 31t80.5 -31t20.5 -92v-62q0 -48 -9.5 -79t-23 -47.5t-27.5 -33t-23.5 -50t-9.5 -85.5h-17q0 54 9.5 89.5t23 53t27 33.5t23 45t9.5 74zM144 44h34v-44h-34v44z" />
    <glyph glyph-name="at" unicode="@" horiz-adv-x="534" 
d="M353 47h-11l-7 37q-19 -49 -68 -49q-90 0 -90 96v46q0 49 35 78.5t123 52.5v63q0 41 -13.5 61t-54.5 20q-39 0 -54 -21t-15 -59v-18h-18v18q0 96 87 96q49 0 67.5 -25.5t18.5 -71.5v-324zM195 177v-46q0 -80 72 -80q34 0 51 24t17 60v158q-82 -22 -111 -48t-29 -68z
M267 -94q189 0 189 211v266q0 211 -189 211t-189 -211v-266q0 -211 189 -211zM267 -110q-207 0 -207 227v266q0 227 207 227t207 -227v-266q0 -227 -207 -227z" />
    <glyph glyph-name="A" unicode="A" horiz-adv-x="306" 
d="M162 700l109 -700h-20l-28 184h-140l-28 -184h-20l109 700h18zM153 647l-68 -447h135z" />
    <glyph glyph-name="B" unicode="B" horiz-adv-x="336" 
d="M70 0v700h85q65 0 90 -25.5t25 -81.5v-146q0 -40 -16 -63t-53 -31q41 -7 58 -30.5t17 -65.5v-145q0 -58 -25 -85t-93 -27h-88zM88 345v-329h70q58 0 79 23t21 73v145q0 44 -22.5 66t-76.5 22h-71zM88 684v-323h63q55 0 78 21.5t23 64.5v146q0 48 -20.5 69.5t-76.5 21.5
h-67z" />
    <glyph glyph-name="C" unicode="C" 
d="M248 200h18v-89q0 -58 -23 -89.5t-80 -31.5t-80 31.5t-23 89.5v478q0 58 23 89.5t80 31.5t80 -31.5t23 -89.5v-79h-18v79q0 51 -19 78t-66 27t-66 -27t-19 -78v-478q0 -51 19 -78t66 -27t66 27t19 78v89z" />
    <glyph glyph-name="D" unicode="D" horiz-adv-x="341" 
d="M70 0v700h84q68 0 95 -31t27 -90v-458q0 -59 -26 -90t-94 -31h-86zM88 684v-668h68q58 0 80 27t22 78v458q0 51 -23 78t-81 27h-66z" />
    <glyph glyph-name="E" unicode="E" horiz-adv-x="294" 
d="M88 345v-329h161v-16h-179v700h179v-16h-161v-323h138v-16h-138z" />
    <glyph glyph-name="F" unicode="F" horiz-adv-x="280" 
d="M88 0h-18v700h170v-16h-152v-323h132v-16h-132v-345z" />
    <glyph glyph-name="G" unicode="G" horiz-adv-x="331" 
d="M253 109v236h-85v16h103v-252q0 -58 -23 -88.5t-80 -30.5t-80 30.5t-23 88.5v482q0 58 23 88.5t80 30.5t80 -30.5t23 -88.5v-81h-18v81q0 51 -19 77t-66 26t-66 -26t-19 -77v-482q0 -51 19 -77t66 -26t66 26t19 77z" />
    <glyph glyph-name="H" unicode="H" horiz-adv-x="346" 
d="M88 345v-345h-18v700h18v-339h170v339h18v-700h-18v345h-170z" />
    <glyph glyph-name="I" unicode="I" horiz-adv-x="158" 
d="M70 0v700h18v-700h-18z" />
    <glyph glyph-name="J" unicode="J" horiz-adv-x="310" 
d="M222 700h18v-589q0 -62 -20.5 -91.5t-79.5 -29.5t-79.5 30.5t-20.5 90.5v89h18v-89q0 -54 17 -79.5t65 -25.5t65 25.5t17 79.5v589z" />
    <glyph glyph-name="K" unicode="K" horiz-adv-x="311" 
d="M88 700v-337l169 337h22l-175 -344l182 -356h-22l-176 348v-348h-18v700h18z" />
    <glyph glyph-name="L" unicode="L" horiz-adv-x="250" 
d="M70 0v700h18v-684h132v-16h-150z" />
    <glyph glyph-name="M" unicode="M" horiz-adv-x="432" 
d="M226 0h-20l-125 649v-649h-18v700h28l125 -659l125 659h28v-700h-18v649z" />
    <glyph glyph-name="N" unicode="N" horiz-adv-x="366" 
d="M88 655v-655h-18v700h24l184 -655v655h18v-700h-24z" />
    <glyph glyph-name="O" unicode="O" horiz-adv-x="326" 
d="M163 -10q-57 0 -80 31.5t-23 89.5v478q0 58 23 89.5t80 31.5t80 -31.5t23 -89.5v-478q0 -58 -23 -89.5t-80 -31.5zM163 6q47 0 66 27t19 78v478q0 51 -19 78t-66 27t-66 -27t-19 -78v-478q0 -51 19 -78t66 -27z" />
    <glyph glyph-name="P" unicode="P" horiz-adv-x="311" 
d="M70 0v700h76q68 0 94 -31t26 -90v-150q0 -58 -27 -88.5t-95 -30.5h-56v-310h-18zM88 684v-358h56q58 0 81 26.5t23 76.5v150q0 51 -22 78t-80 27h-58z" />
    <glyph glyph-name="Q" unicode="Q" horiz-adv-x="326" 
d="M248 -88h-8q-43 0 -63.5 18.5t-21.5 59.5q-52 2 -73.5 33t-21.5 88v478q0 58 23 89.5t80 31.5t80 -31.5t23 -89.5v-478q0 -57 -21.5 -88t-73.5 -33q2 -34 19 -48t50 -14h12zM163 6q47 0 66 27t19 78v478q0 51 -19 78t-66 27t-66 -27t-19 -78v-478q0 -51 19 -78t66 -27z
" />
    <glyph glyph-name="R" unicode="R" 
d="M70 0v700h76q68 0 94 -30.5t26 -89.5v-151q0 -54 -23 -84t-77 -35l125 -310h-19l-124 310h-60v-310h-18zM88 684v-358h56q58 0 81 26.5t23 76.5v151q0 51 -22 77.5t-80 26.5h-58z" />
    <glyph glyph-name="S" unicode="S" horiz-adv-x="312" 
d="M257 510h-18v77q0 54 -16.5 80.5t-65.5 26.5t-66 -27t-17 -80v-56q0 -50 19 -81.5t45.5 -49.5t53.5 -38t46 -60.5t19 -103.5v-85q0 -62 -20 -92.5t-80 -30.5t-80.5 31t-20.5 92v87h18v-87q0 -53 17 -80t66 -27t65 26.5t17 80.5v84q0 52 -13 88t-34 53.5t-44.5 35.5
t-44.5 33.5t-34 47.5t-13 78v54q0 61 20.5 92t80.5 31t80 -30.5t20 -92.5v-77z" />
    <glyph glyph-name="T" unicode="T" horiz-adv-x="260" 
d="M139 684v-684h-18v684h-91v16h200v-16h-91z" />
    <glyph glyph-name="U" unicode="U" horiz-adv-x="332" 
d="M249 700h18v-585q0 -62 -20.5 -93.5t-80.5 -31.5t-80.5 31.5t-20.5 93.5v585h18v-585q0 -54 17 -81.5t66 -27.5t66 27.5t17 81.5v585z" />
    <glyph glyph-name="V" unicode="V" horiz-adv-x="306" 
d="M271 700l-109 -700h-18l-109 700h20l98 -646l98 646h20z" />
    <glyph glyph-name="W" unicode="W" horiz-adv-x="522" 
d="M361 0l-100 644l-100 -644h-18l-103 700h20l92 -640l100 640h18l99 -640l93 640h20l-103 -700h-18z" />
    <glyph glyph-name="X" unicode="X" horiz-adv-x="298" 
d="M57 700l92 -311l92 311h20l-102 -339l109 -361h-20l-99 333l-99 -333h-20l109 361l-102 339h20z" />
    <glyph glyph-name="Y" unicode="Y" horiz-adv-x="293" 
d="M155 0h-18v310l-107 390h19l97 -364l98 364h19l-108 -390v-310z" />
    <glyph glyph-name="Z" unicode="Z" horiz-adv-x="266" 
d="M226 0h-186v10l165 674h-162v16h183v-10l-165 -674h165v-16z" />
    <glyph glyph-name="bracketleft" unicode="[" horiz-adv-x="236" 
d="M80 -120v850h96v-16h-78v-818h78v-16h-96z" />
    <glyph glyph-name="backslash" unicode="\" horiz-adv-x="258" 
d="M58 730l160 -760h-18l-160 760h18z" />
    <glyph glyph-name="bracketright" unicode="]" horiz-adv-x="236" 
d="M156 730v-850h-96v16h78v818h-78v16h96z" />
    <glyph glyph-name="asciicircum" unicode="^" horiz-adv-x="256" 
d="M137 710l69 -200h-18l-60 177l-60 -177h-18l69 200h18z" />
    <glyph glyph-name="underscore" unicode="_" horiz-adv-x="390" 
d="M60 0v16h270v-16h-270z" />
    <glyph glyph-name="grave" unicode="`" horiz-adv-x="177" 
d="M50 670h22l55 -120h-15z" />
    <glyph glyph-name="a" unicode="a" horiz-adv-x="301" 
d="M246 0h-10l-7 43q-22 -53 -80 -53q-52 0 -75.5 27.5t-23.5 84.5v51q0 66 35.5 102t142.5 65v79q0 48 -16 71.5t-62 23.5q-47 0 -62.5 -23t-15.5 -72v-27h-18v27q0 56 20 83.5t76 27.5t76 -27.5t20 -83.5v-399zM68 153v-51q0 -49 19 -72.5t62 -23.5q38 0 58.5 26.5
t20.5 68.5v204q-99 -25 -129.5 -59.5t-30.5 -92.5z" />
    <glyph glyph-name="b" unicode="b" horiz-adv-x="311" 
d="M238 102v293q0 52 -16.5 75.5t-59.5 23.5q-41 0 -62.5 -27.5t-21.5 -77.5v-285q0 -42 21 -70t59 -28q43 0 61.5 23.5t18.5 72.5zM256 395v-293q0 -57 -22 -84.5t-74 -27.5q-60 0 -83 56l-7 -46h-10v710h18v-254q23 54 84 54q52 0 73 -27.5t21 -87.5z" />
    <glyph glyph-name="c" unicode="c" horiz-adv-x="301" 
d="M233 172h18v-64q0 -58 -21 -88t-77 -30t-77 30t-21 88v284q0 58 21 88t77 30t77 -30t21 -88v-54h-18v54q0 51 -17 76.5t-63 25.5t-63 -25.5t-17 -76.5v-284q0 -51 17 -76.5t63 -25.5t63 25.5t17 76.5v64z" />
    <glyph glyph-name="d" unicode="d" 
d="M78 395v-293q0 -49 18.5 -72.5t61.5 -23.5q38 0 59 28t21 70v285q0 50 -21.5 77.5t-62.5 27.5q-43 0 -59.5 -23.5t-16.5 -75.5zM60 102v293q0 60 21 87.5t73 27.5q61 0 84 -54v254h18v-710h-10l-7 46q-23 -56 -83 -56q-52 0 -74 27.5t-22 84.5z" />
    <glyph glyph-name="e" unicode="e" horiz-adv-x="306" 
d="M233 172h18v-64q0 -58 -21 -88t-77 -30t-77 30t-21 88v284q0 58 21 88t77 30t77 -30t21 -88v-128h-178v-156q0 -51 17 -76.5t63 -25.5t63 25.5t17 76.5v64zM73 392v-112h160v112q0 51 -17 76.5t-63 25.5t-63 -25.5t-17 -76.5z" />
    <glyph glyph-name="f" unicode="f" horiz-adv-x="218" 
d="M193 715v-16q-12 5 -32 5q-39 0 -52.5 -17t-13.5 -68v-119h85v-16h-85v-484h-18v484h-47v16h47v119q0 57 17.5 79t66.5 22q19 0 32 -5z" />
    <glyph glyph-name="g" unicode="g" horiz-adv-x="326" 
d="M154 118h-6q-45 -3 -45 -32t46 -32h5q115 0 115 -107v-15q0 -102 -114 -102q-61 0 -87.5 26t-26.5 76v15q0 87 75 103q-29 11 -29 36t30 36q-61 18 -61 114v156q0 58 21 88t77 30q26 0 45 -8q19 56 67 56q17 0 30 -5v-16q-15 5 -30 5q-41 0 -55 -45q41 -24 41 -105v-156
q0 -58 -21 -88t-77 -30zM154 134q46 0 63 25.5t17 76.5v156q0 51 -17 76.5t-63 25.5t-63 -25.5t-17 -76.5v-156q0 -51 17 -76.5t63 -25.5zM155 -154q96 0 96 86v15q0 45 -22 68t-75 23q-95 0 -95 -91v-15q0 -43 22.5 -64.5t73.5 -21.5z" />
    <glyph glyph-name="h" unicode="h" 
d="M256 0h-18v398q0 49 -18.5 72.5t-61.5 23.5q-38 0 -59 -28t-21 -70v-396h-18v710h18v-256q23 56 82 56q52 0 74 -27.5t22 -84.5v-398z" />
    <glyph glyph-name="i" unicode="i" horiz-adv-x="144" 
d="M63 500h18v-500h-18v500zM57 623h30v-38h-30v38z" />
    <glyph glyph-name="j" unicode="j" horiz-adv-x="144" 
d="M-35 -165v16q12 -5 32 -5q39 0 52.5 17.5t13.5 68.5v568h18v-569q0 -57 -17.5 -79t-66.5 -22q-19 0 -32 5zM57 623h30v-38h-30v38z" />
    <glyph glyph-name="k" unicode="k" horiz-adv-x="271" 
d="M78 710v-440l141 230h22l-148 -238l158 -262h-22l-151 254v-254h-18v710h18z" />
    <glyph glyph-name="l" unicode="l" horiz-adv-x="138" 
d="M60 710h18v-710h-18v710z" />
    <glyph glyph-name="m" unicode="m" horiz-adv-x="494" 
d="M256 0h-18v398q0 49 -18.5 72.5t-61.5 23.5q-38 0 -59 -28t-21 -70v-396h-18v500h10l7 -46q23 56 83 56q72 0 89 -58q21 58 88 58q51 0 74 -27t23 -85v-398h-18v398q0 49 -19 72.5t-62 23.5q-38 0 -58.5 -25t-20.5 -71v-398z" />
    <glyph glyph-name="n" unicode="n" 
d="M256 0h-18v398q0 49 -18.5 72.5t-61.5 23.5q-38 0 -59 -28t-21 -70v-396h-18v500h10l7 -46q23 56 83 56q52 0 74 -27.5t22 -84.5v-398z" />
    <glyph glyph-name="o" unicode="o" horiz-adv-x="306" 
d="M153 6q46 0 63 25.5t17 76.5v284q0 51 -17 76.5t-63 25.5t-63 -25.5t-17 -76.5v-284q0 -51 17 -76.5t63 -25.5zM153 -10q-56 0 -77 30t-21 88v284q0 58 21 88t77 30t77 -30t21 -88v-284q0 -58 -21 -88t-77 -30z" />
    <glyph glyph-name="p" unicode="p" 
d="M238 105v293q0 49 -18.5 72.5t-61.5 23.5q-38 0 -59 -28t-21 -70v-285q0 -50 21.5 -77.5t62.5 -27.5q43 0 59.5 23.5t16.5 75.5zM256 398v-293q0 -60 -21 -87.5t-73 -27.5q-61 0 -84 54v-204h-18v660h10l7 -46q23 56 83 56q52 0 74 -27.5t22 -84.5z" />
    <glyph glyph-name="q" unicode="q" horiz-adv-x="311" 
d="M73 398v-293q0 -52 16.5 -75.5t59.5 -23.5q41 0 62.5 27.5t21.5 77.5v285q0 42 -21 70t-59 28q-43 0 -61.5 -23.5t-18.5 -72.5zM55 105v293q0 57 22 84.5t74 27.5q60 0 83 -56l7 46h10v-660h-18v204q-23 -54 -84 -54q-52 0 -73 27.5t-21 87.5z" />
    <glyph glyph-name="r" unicode="r" horiz-adv-x="192" 
d="M162 510v-17q-40 0 -62 -26.5t-22 -70.5v-396h-18v500h10l7 -46q23 56 85 56z" />
    <glyph glyph-name="s" unicode="s" horiz-adv-x="288" 
d="M220 101v38q0 38 -17.5 61.5t-42.5 35.5t-50 25t-42.5 40.5t-17.5 71.5v25q0 56 20.5 84t73.5 28t73.5 -27.5t20.5 -84.5v-60h-18v60q0 49 -16 72.5t-60 23.5q-43 0 -59.5 -23.5t-16.5 -72.5v-25q0 -42 17.5 -67t42.5 -37l50 -24t42.5 -38t17.5 -68v-38q0 -57 -19.5 -84
t-74.5 -27q-54 0 -74 27t-20 84v71h18v-71q0 -50 15.5 -72.5t60.5 -22.5t60.5 22.5t15.5 72.5z" />
    <glyph glyph-name="t" unicode="t" horiz-adv-x="228" 
d="M193 11v-16q-13 -5 -32 -5q-49 0 -66.5 22t-17.5 79v393h-47v16h47v135l18 5v-140h85v-16h-85v-393q0 -50 13.5 -67.5t52.5 -17.5q20 0 32 5z" />
    <glyph glyph-name="u" unicode="u" 
d="M60 500h18v-398q0 -49 18.5 -72.5t61.5 -23.5q38 0 59 28t21 70v396h18v-500h-10l-7 46q-23 -56 -83 -56q-52 0 -74 27.5t-22 84.5v398z" />
    <glyph glyph-name="v" unicode="v" horiz-adv-x="272" 
d="M242 500l-97 -500h-18l-97 500h20l86 -459l86 459h20z" />
    <glyph glyph-name="w" unicode="w" horiz-adv-x="446" 
d="M308 0l-85 462l-85 -462h-17l-86 500h19l76 -460l83 460h20l83 -460l76 460h19l-86 -500h-17z" />
    <glyph glyph-name="x" unicode="x" horiz-adv-x="266" 
d="M236 500l-94 -248l99 -252h-20l-88 231l-88 -231h-20l99 252l-94 248h20l83 -227l83 227h20z" />
    <glyph glyph-name="y" unicode="y" horiz-adv-x="305" 
d="M40 500h20l97 -458l98 458h20l-126 -583q-10 -45 -31 -66t-62 -21q-18 0 -31 5v17q12 -6 31 -6q61 0 76 75l16 79z" />
    <glyph glyph-name="z" unicode="z" horiz-adv-x="261" 
d="M221 0h-181v10l155 475h-147v15h167v-10l-155 -475h161v-15z" />
    <glyph glyph-name="braceleft" unicode="{" horiz-adv-x="285" 
d="M60 297v16h32q29 0 40.5 12.5t11.5 38.5q0 50 -26 136t-26 135q0 51 26 73t89 22h18v-16h-18q-54 0 -75.5 -18t-21.5 -61q0 -49 25.5 -135t25.5 -136q0 -48 -37 -59q37 -12 37 -59q0 -50 -25.5 -136t-25.5 -135q0 -43 21.5 -61t75.5 -18h18v-16h-18q-63 0 -89 22t-26 73
q0 49 26 135t26 136q0 26 -11.5 38.5t-40.5 12.5h-32z" />
    <glyph glyph-name="bar" unicode="|" horiz-adv-x="178" 
d="M80 -120v850h18v-850h-18z" />
    <glyph glyph-name="braceright" unicode="}" horiz-adv-x="285" 
d="M225 313v-16h-32q-29 0 -40.5 -12.5t-11.5 -38.5q0 -50 26 -136t26 -135q0 -51 -26 -73t-89 -22h-18v16h18q54 0 75.5 18t21.5 61q0 49 -25.5 135t-25.5 136q0 47 37 59q-37 11 -37 59q0 50 25.5 136t25.5 135q0 43 -21.5 61t-75.5 18h-18v16h18q63 0 89 -22t26 -73
q0 -49 -26 -135t-26 -136q0 -26 11.5 -38.5t40.5 -12.5h32z" />
    <glyph glyph-name="asciitilde" unicode="~" horiz-adv-x="321" 
d="M234 700h18q0 -32 -12 -47t-40 -15t-51.5 28t-43.5 28q-22 0 -28.5 -11t-6.5 -35h-18q0 62 52 62q22 0 36.5 -14t27.5 -28t31 -14q22 0 28.5 10.5t6.5 35.5z" />
    <glyph glyph-name="nbspace" unicode="&#xa0;" horiz-adv-x="90" 
 />
    <glyph glyph-name="exclamdown" unicode="&#xa1;" horiz-adv-x="154" 
d="M94 456h-34v44h34v-44zM92 -200h-30l8 470h14z" />
    <glyph glyph-name="cent" unicode="&#xa2;" horiz-adv-x="336" 
d="M248 282h18v-64q0 -56 -19.5 -85.5t-69.5 -32.5v-100h-18v100q-51 3 -70 32.5t-19 85.5v284q0 55 19 85t70 32v81h18v-81q50 -2 69.5 -32t19.5 -85v-54h-18v54q0 51 -17 76.5t-63 25.5t-63 -25.5t-17 -76.5v-284q0 -51 17 -76.5t63 -25.5t63 25.5t17 76.5v64z" />
    <glyph glyph-name="sterling" unicode="&#xa3;" horiz-adv-x="395" 
d="M54 345v17h79v225q0 61 20.5 92t80.5 31t80 -30.5t20 -92.5v-77h-18v77q0 54 -16.5 80.5t-65.5 26.5t-66 -27t-17 -80v-225h86v-17h-86v-221q0 -53 17 -80t66 -27h101v-17h-101q-76 0 -92 57q-18 -57 -92 -57v17q49 0 66 27t17 80v221h-79z" />
    <glyph glyph-name="currency" unicode="&#xa4;" horiz-adv-x="312" 
d="M167 146q46 0 63 25.5t17 76.5v224q0 51 -17 76.5t-63 25.5t-63 -25.5t-17 -76.5v-224q0 -51 17 -76.5t63 -25.5zM71 700l38 -124q22 14 58 14t58 -14l39 124h19l-43 -136q25 -28 25 -92v-224q0 -64 -24 -92l49 -156h-19l-45 144q-23 -14 -59 -14t-59 14l-44 -144h-19
l48 156q-24 27 -24 92v224q0 64 25 92l-42 136h19z" />
    <glyph glyph-name="yen" unicode="&#xa5;" horiz-adv-x="333" 
d="M175 0h-18v137h-95v16h95v96h-95v16h95v45l-107 390h19l97 -364l98 364h19l-108 -390v-45h97v-16h-97v-96h97v-16h-97v-137z" />
    <glyph glyph-name="brokenbar" unicode="&#xa6;" horiz-adv-x="178" 
d="M80 -120v378h18v-378h-18zM80 352v378h18v-378h-18z" />
    <glyph glyph-name="section" unicode="&#xa7;" horiz-adv-x="324" 
d="M264 259q0 -28 -2.5 -49t-10 -43t-24 -36t-41.5 -19q37 -20 57 -49t20 -88v-22q0 -60 -21 -91.5t-80 -31.5t-80 31.5t-21 91.5v67h18v-67q0 -52 17.5 -79.5t65.5 -27.5t65.5 27.5t17.5 79.5v24q0 37 -10 62t-26.5 38.5t-36 23.5t-39.5 22t-36.5 29.5t-26.5 50t-10 78.5
q0 28 2.5 49t10 43t23.5 36t41 19q-37 20 -56.5 48.5t-19.5 88.5v22q0 60 21 91.5t80 31.5t80 -31.5t21 -91.5v-67h-18v67q0 52 -17.5 79.5t-65.5 27.5t-65.5 -27.5t-17.5 -79.5v-24q0 -37 10 -62t26.5 -38.5t36 -23.5t39.5 -22t36.5 -29.5t26.5 -50t10 -78.5zM79 281
q0 -37 6.5 -64t20 -44.5t26 -27.5t31.5 -21q23 0 39 9t24 20.5t12.5 31.5t5.5 35t1 39q0 70 -22 102.5t-63 54.5q-22 0 -38 -9t-24 -20.5t-12.5 -32t-5.5 -35.5t-1 -38z" />
    <glyph glyph-name="dieresis" unicode="&#xa8;" horiz-adv-x="236" 
d="M54 623h30v-38h-30v38zM152 623h30v-38h-30v38z" />
    <glyph glyph-name="copyright" unicode="&#xa9;" horiz-adv-x="534" 
d="M267 6q189 0 189 211v266q0 211 -189 211t-189 -211v-266q0 -211 189 -211zM267 -10q-207 0 -207 227v266q0 227 207 227t207 -227v-266q0 -227 -207 -227zM334 291h18v-61q0 -96 -85 -96q-48 0 -66.5 25.5t-18.5 71.5v238q0 46 18.5 71.5t66.5 25.5q85 0 85 -96v-51h-18
v51q0 80 -67 80q-39 0 -53 -21t-14 -60v-238q0 -39 14 -60t53 -21q67 0 67 80v61z" />
    <glyph glyph-name="ordfeminine" unicode="&#xaa;" horiz-adv-x="292" 
d="M232 207h-172v16h172v-16zM232 290h-11l-7 37q-19 -48 -69 -48q-45 0 -65 23.5t-20 73.5v46q0 50 33.5 79.5t120.5 52.5v62q0 41 -12.5 59.5t-53.5 18.5q-39 0 -53 -19.5t-14 -57.5v-18h-18v18q0 45 18.5 69t66.5 24q49 0 66.5 -24t17.5 -70v-326zM78 422v-46
q0 -41 15.5 -61t52.5 -20q34 0 51 23.5t17 59.5v160q-82 -22 -109 -47.5t-27 -68.5z" />
    <glyph glyph-name="guillemotleft" unicode="&#xab;" horiz-adv-x="371" 
d="M50 250l107 185h26l-107 -185l107 -185h-26zM188 250l107 185h26l-107 -185l107 -185h-26z" />
    <glyph glyph-name="logicalnot" unicode="&#xac;" horiz-adv-x="380" 
d="M302 196v152h-242v16h260v-168h-18z" />
    <glyph glyph-name="uni00AD" unicode="&#xad;" horiz-adv-x="270" 
d="M50 272v16h170v-16h-170z" />
    <glyph glyph-name="registered" unicode="&#xae;" horiz-adv-x="534" 
d="M267 -10q-207 0 -207 227v266q0 227 207 227t207 -227v-266q0 -227 -207 -227zM267 6q189 0 189 211v266q0 211 -189 211t-189 -211v-266q0 -211 189 -211zM186 560h68q58 0 80 -25t22 -75v-39q0 -87 -79 -97l85 -180h-19l-84 179h-55v-179h-18v416zM204 544v-205h50
q48 0 66 21t18 61v39q0 41 -18 62.5t-66 21.5h-50z" />
    <glyph glyph-name="macron" unicode="&#xaf;" horiz-adv-x="270" 
d="M50 578v16h170v-16h-170z" />
    <glyph glyph-name="degree" unicode="&#xb0;" horiz-adv-x="266" 
d="M133 510q38 0 51.5 23t13.5 69t-13.5 69t-51.5 23t-51.5 -23t-13.5 -69t13.5 -69t51.5 -23zM133 494q-47 0 -65 27.5t-18 80.5t18 80.5t65 27.5t65 -27.5t18 -80.5t-18 -80.5t-65 -27.5z" />
    <glyph glyph-name="plusminus" unicode="&#xb1;" horiz-adv-x="380" 
d="M60 106h260v-16h-260v16zM60 330v16h121v137h18v-137h121v-16h-121v-137h-18v137h-121z" />
    <glyph glyph-name="acute" unicode="&#xb4;" horiz-adv-x="177" 
d="M105 670h22l-62 -120h-15z" />
    <glyph glyph-name="mu" unicode="&#xb5;" 
d="M238 500h18v-398q0 -57 -22 -84.5t-74 -27.5q-59 0 -82 56v-206h-18v660h18v-396q0 -42 21 -70t59 -28q43 0 61.5 23.5t18.5 72.5v398z" />
    <glyph glyph-name="mu" unicode="&#x3bc;" 
d="M238 500h18v-398q0 -57 -22 -84.5t-74 -27.5q-59 0 -82 56v-206h-18v660h18v-396q0 -42 21 -70t59 -28q43 0 61.5 23.5t18.5 72.5v398z" />
    <glyph glyph-name="paragraph" unicode="&#xb6;" horiz-adv-x="346" 
d="M276 700v-860h-18v350h-76q-68 0 -95 30.5t-27 88.5v270q0 59 26 90t94 31h96z" />
    <glyph glyph-name="periodcentered" unicode="&#xb7;" horiz-adv-x="154" 
d="M60 302h34v-44h-34v44z" />
    <glyph glyph-name="cedilla" unicode="&#xb8;" horiz-adv-x="228" 
d="M83 -61l17 61h15l-12 -46q73 -4 73 -62q0 -62 -82 -62h-40l4 16h36q64 0 64 46q0 47 -64 47h-11z" />
    <glyph glyph-name="ordmasculine" unicode="&#xba;" horiz-adv-x="290" 
d="M145 694q-40 0 -53.5 -22t-13.5 -61v-234q0 -39 13.5 -61t53.5 -22t53.5 22t13.5 61v234q0 39 -13.5 61t-53.5 22zM145 710q50 0 67.5 -26t17.5 -73v-234q0 -47 -17.5 -73t-67.5 -26t-67.5 26t-17.5 73v234q0 47 17.5 73t67.5 26zM230 207h-170v16h170v-16z" />
    <glyph glyph-name="guillemotright" unicode="&#xbb;" horiz-adv-x="371" 
d="M214 435l107 -185l-107 -185h-26l107 185l-107 185h26zM76 435l107 -185l-107 -185h-26l107 185l-107 185h26z" />
    <glyph glyph-name="onequarter" unicode="&#xbc;" horiz-adv-x="239" 
d="M45 358h149v-16h-149v16zM127 700v-279h27v-15h-70v15h27v239h-29v11q19 0 25.5 6t6.5 23h13zM136 0v68h-75v12l76 214h15v-211h20v-15h-20v-68h-16zM136 250l-59 -167h59v167z" />
    <glyph glyph-name="onehalf" unicode="&#xbd;" horiz-adv-x="239" 
d="M45 358h149v-16h-149v16zM74 0v43q0 31 12 56t26.5 38.5t26.5 34t12 44.5v26q0 41 -31 41t-31 -41v-38h-16v38q0 28 10 42t37 14q47 0 47 -56v-25q0 -28 -12 -50t-26.5 -35.5t-26.5 -37t-12 -52.5v-27h81v-15h-97zM127 700v-279h27v-15h-70v15h27v239h-29v11q19 0 25.5 6
t6.5 23h13z" />
    <glyph glyph-name="threequarters" unicode="&#xbe;" horiz-adv-x="239" 
d="M45 358h149v-16h-149v16zM136 0v68h-75v12l76 214h15v-211h20v-15h-20v-68h-16zM136 250l-59 -167h59v167zM169 509v-51q0 -56 -48 -56t-48 56v27h15v-27q0 -41 33 -41t33 41v51q0 19 -6 28.5t-24 9.5h-19v15h19q17 0 22 9t5 28v50q0 40 -31 40q-32 0 -32 -40v-34h-15v34
q0 55 47 55t47 -55v-50q0 -31 -19 -44q21 -13 21 -46z" />
    <glyph glyph-name="questiondown" unicode="&#xbf;" horiz-adv-x="322" 
d="M78 -25v-62q0 -53 17 -80t66 -27t65.5 26.5t16.5 80.5v77h19v-77q0 -61 -20.5 -92t-80.5 -31t-80.5 31t-20.5 92v62q0 48 9.5 79t23 47.5t27.5 33t23.5 50t9.5 85.5h17q0 -54 -9.5 -89.5t-23 -53t-27 -33.5t-23 -45t-9.5 -74zM178 456h-34v44h34v-44z" />
    <glyph glyph-name="Agrave" unicode="&#xc0;" horiz-adv-x="306" 
d="M162 700l109 -700h-20l-28 184h-140l-28 -184h-20l109 700h18zM153 647l-68 -447h135zM81 870h22l55 -120h-15z" />
    <glyph glyph-name="Aacute" unicode="&#xc1;" horiz-adv-x="306" 
d="M162 700l109 -700h-20l-28 184h-140l-28 -184h-20l109 700h18zM153 647l-68 -447h135zM200 870h22l-62 -120h-15z" />
    <glyph glyph-name="Acircumflex" unicode="&#xc2;" horiz-adv-x="306" 
d="M162 700l109 -700h-20l-28 184h-140l-28 -184h-20l109 700h18zM153 647l-68 -447h135zM142 870h22l56 -120h-16l-51 100l-51 -100h-16z" />
    <glyph glyph-name="Atilde" unicode="&#xc3;" horiz-adv-x="306" 
d="M162 700l109 -700h-20l-28 184h-140l-28 -184h-20l109 700h18zM153 647l-68 -447h135zM235 812h18q0 -32 -12 -47t-40 -15t-51.5 28t-43.5 28q-22 0 -28.5 -11t-6.5 -35h-18q0 62 52 62q22 0 36.5 -14t27.5 -28t31 -14q22 0 28.5 10.5t6.5 35.5z" />
    <glyph glyph-name="Adieresis" unicode="&#xc4;" horiz-adv-x="306" 
d="M162 700l109 -700h-20l-28 184h-140l-28 -184h-20l109 700h18zM153 647l-68 -447h135zM89 788h30v-38h-30v38zM187 788h30v-38h-30v38z" />
    <glyph glyph-name="Aring" unicode="&#xc5;" horiz-adv-x="306" 
d="M162 700l109 -700h-20l-28 184h-140l-28 -184h-20l109 700h18zM153 647l-68 -447h135zM199 814q0 59 -46 59t-46 -59q0 -58 46 -58t46 58zM217 814q0 -74 -64 -74t-64 74q0 75 64 75t64 -75z" />
    <glyph glyph-name="AE" unicode="&#xc6;" horiz-adv-x="449" 
d="M35 0l185 700h184v-16h-161v-323h138v-16h-138v-329h161v-16h-179v184h-122l-48 -184h-20zM107 200h118v454z" />
    <glyph glyph-name="Ccedilla" unicode="&#xc7;" 
d="M141 -61l14 51q-52 2 -73.5 33t-21.5 88v478q0 58 23 89.5t80 31.5t80 -31.5t23 -89.5v-79h-18v79q0 51 -19 78t-66 27t-66 -27t-19 -78v-478q0 -51 19 -78t66 -27t66 27t19 78v89h18v-89q0 -57 -21.5 -88t-74.5 -33l-9 -36q73 -4 73 -62q0 -62 -82 -62h-40l4 16h36
q64 0 64 46q0 47 -64 47h-11z" />
    <glyph glyph-name="Egrave" unicode="&#xc8;" horiz-adv-x="294" 
d="M88 345v-329h161v-16h-179v700h179v-16h-161v-323h138v-16h-138zM108 870h22l55 -120h-15z" />
    <glyph glyph-name="Eacute" unicode="&#xc9;" horiz-adv-x="294" 
d="M88 345v-329h161v-16h-179v700h179v-16h-161v-323h138v-16h-138zM203 870h22l-62 -120h-15z" />
    <glyph glyph-name="Ecircumflex" unicode="&#xca;" horiz-adv-x="294" 
d="M88 345v-329h161v-16h-179v700h179v-16h-161v-323h138v-16h-138zM149 870h22l56 -120h-16l-51 100l-51 -100h-16z" />
    <glyph glyph-name="Edieresis" unicode="&#xcb;" horiz-adv-x="294" 
d="M88 345v-329h161v-16h-179v700h179v-16h-161v-323h138v-16h-138zM96 788h30v-38h-30v38zM194 788h30v-38h-30v38z" />
    <glyph glyph-name="Igrave" unicode="&#xcc;" horiz-adv-x="158" 
d="M70 0v700h18v-700h-18zM9 870h22l55 -120h-15z" />
    <glyph glyph-name="Iacute" unicode="&#xcd;" horiz-adv-x="158" 
d="M70 0v700h18v-700h-18zM124 870h22l-62 -120h-15z" />
    <glyph glyph-name="Icircumflex" unicode="&#xce;" horiz-adv-x="158" 
d="M70 0v700h18v-700h-18zM68 870h22l56 -120h-16l-51 100l-51 -100h-16z" />
    <glyph glyph-name="Idieresis" unicode="&#xcf;" horiz-adv-x="158" 
d="M70 0v700h18v-700h-18zM15 788h30v-38h-30v38zM113 788h30v-38h-30v38z" />
    <glyph glyph-name="Eth" unicode="&#xd0;" horiz-adv-x="341" 
d="M27 346v16h43v338h84q68 0 95 -31t27 -90v-458q0 -59 -26 -90t-94 -31h-86v346h-43zM88 684v-322h79v-16h-79v-330h68q58 0 80 27t22 78v458q0 51 -23 78t-81 27h-66z" />
    <glyph glyph-name="Ntilde" unicode="&#xd1;" horiz-adv-x="366" 
d="M88 655v-655h-18v700h24l184 -655v655h18v-700h-24zM265 812h18q0 -32 -12 -47t-40 -15t-51.5 28t-43.5 28q-22 0 -28.5 -11t-6.5 -35h-18q0 62 52 62q22 0 36.5 -14t27.5 -28t31 -14q22 0 28.5 10.5t6.5 35.5z" />
    <glyph glyph-name="Ograve" unicode="&#xd2;" horiz-adv-x="326" 
d="M163 -10q-57 0 -80 31.5t-23 89.5v478q0 58 23 89.5t80 31.5t80 -31.5t23 -89.5v-478q0 -58 -23 -89.5t-80 -31.5zM163 6q47 0 66 27t19 78v478q0 51 -19 78t-66 27t-66 -27t-19 -78v-478q0 -51 19 -78t66 -27zM97 870h22l55 -120h-15z" />
    <glyph glyph-name="Oacute" unicode="&#xd3;" horiz-adv-x="326" 
d="M163 -10q-57 0 -80 31.5t-23 89.5v478q0 58 23 89.5t80 31.5t80 -31.5t23 -89.5v-478q0 -58 -23 -89.5t-80 -31.5zM163 6q47 0 66 27t19 78v478q0 51 -19 78t-66 27t-66 -27t-19 -78v-478q0 -51 19 -78t66 -27zM211 870h22l-62 -120h-15z" />
    <glyph glyph-name="Ocircumflex" unicode="&#xd4;" horiz-adv-x="326" 
d="M163 -10q-57 0 -80 31.5t-23 89.5v478q0 58 23 89.5t80 31.5t80 -31.5t23 -89.5v-478q0 -58 -23 -89.5t-80 -31.5zM163 6q47 0 66 27t19 78v478q0 51 -19 78t-66 27t-66 -27t-19 -78v-478q0 -51 19 -78t66 -27zM152 870h22l56 -120h-16l-51 100l-51 -100h-16z" />
    <glyph glyph-name="Otilde" unicode="&#xd5;" horiz-adv-x="326" 
d="M163 -10q-57 0 -80 31.5t-23 89.5v478q0 58 23 89.5t80 31.5t80 -31.5t23 -89.5v-478q0 -58 -23 -89.5t-80 -31.5zM163 6q47 0 66 27t19 78v478q0 51 -19 78t-66 27t-66 -27t-19 -78v-478q0 -51 19 -78t66 -27zM245 812h18q0 -32 -12 -47t-40 -15t-51.5 28t-43.5 28
q-22 0 -28.5 -11t-6.5 -35h-18q0 62 52 62q22 0 36.5 -14t27.5 -28t31 -14q22 0 28.5 10.5t6.5 35.5z" />
    <glyph glyph-name="Odieresis" unicode="&#xd6;" horiz-adv-x="326" 
d="M163 -10q-57 0 -80 31.5t-23 89.5v478q0 58 23 89.5t80 31.5t80 -31.5t23 -89.5v-478q0 -58 -23 -89.5t-80 -31.5zM163 6q47 0 66 27t19 78v478q0 51 -19 78t-66 27t-66 -27t-19 -78v-478q0 -51 19 -78t66 -27zM99 788h30v-38h-30v38zM197 788h30v-38h-30v38z" />
    <glyph glyph-name="multiply" unicode="&#xd7;" horiz-adv-x="358" 
d="M73 161l-13 13l106 106l-106 106l13 13l106 -106l106 106l13 -13l-106 -106l106 -106l-13 -13l-106 106z" />
    <glyph glyph-name="Oslash" unicode="&#xd8;" horiz-adv-x="326" 
d="M94 -30l5 36q-39 27 -39 105v478q0 58 23 89.5t80 31.5q25 0 46 -8l5 28h18l-6 -36q40 -27 40 -105v-478q0 -58 -23 -89.5t-80 -31.5q-26 0 -47 8l-4 -28h-18zM163 6q47 0 66 27t19 78v478q0 59 -25 85l-104 -660q18 -8 44 -8zM78 111q0 -60 24 -85l105 659q-18 9 -44 9
q-47 0 -66 -27t-19 -78v-478z" />
    <glyph glyph-name="Ugrave" unicode="&#xd9;" horiz-adv-x="332" 
d="M249 700h18v-585q0 -62 -20.5 -93.5t-80.5 -31.5t-80.5 31.5t-20.5 93.5v585h18v-585q0 -54 17 -81.5t66 -27.5t66 27.5t17 81.5v585zM102 870h22l55 -120h-15z" />
    <glyph glyph-name="Uacute" unicode="&#xda;" horiz-adv-x="332" 
d="M249 700h18v-585q0 -62 -20.5 -93.5t-80.5 -31.5t-80.5 31.5t-20.5 93.5v585h18v-585q0 -54 17 -81.5t66 -27.5t66 27.5t17 81.5v585zM214 870h22l-62 -120h-15z" />
    <glyph glyph-name="Ucircumflex" unicode="&#xdb;" horiz-adv-x="332" 
d="M249 700h18v-585q0 -62 -20.5 -93.5t-80.5 -31.5t-80.5 31.5t-20.5 93.5v585h18v-585q0 -54 17 -81.5t66 -27.5t66 27.5t17 81.5v585zM155 870h22l56 -120h-16l-51 100l-51 -100h-16z" />
    <glyph glyph-name="Udieresis" unicode="&#xdc;" horiz-adv-x="332" 
d="M249 700h18v-585q0 -62 -20.5 -93.5t-80.5 -31.5t-80.5 31.5t-20.5 93.5v585h18v-585q0 -54 17 -81.5t66 -27.5t66 27.5t17 81.5v585zM102 788h30v-38h-30v38zM200 788h30v-38h-30v38z" />
    <glyph glyph-name="Yacute" unicode="&#xdd;" horiz-adv-x="293" 
d="M155 0h-18v310l-107 390h19l97 -364l98 364h19l-108 -390v-310zM195 870h22l-62 -120h-15z" />
    <glyph glyph-name="Thorn" unicode="&#xde;" horiz-adv-x="311" 
d="M70 0v700h18v-145h58q68 0 94 -31t26 -90v-150q0 -58 -27 -88.5t-95 -30.5h-56v-165h-18zM88 539v-358h56q58 0 81 26.5t23 76.5v150q0 51 -22 78t-80 27h-58z" />
    <glyph glyph-name="germandbls" unicode="&#xdf;" horiz-adv-x="294" 
d="M150 394h-6v16q45 0 60.5 22.5t15.5 72.5v111q0 50 -17.5 69t-58.5 19t-58.5 -19t-17.5 -69v-616h-18v616q0 55 22 79.5t72 24.5t72 -24.5t22 -79.5v-111q0 -82 -43 -102q49 -19 49 -104v-208q0 -55 -22 -78t-72 -23q-19 0 -32 5v16q12 -5 32 -5q41 0 58.5 17.5
t17.5 67.5v208q0 50 -15.5 72.5t-60.5 22.5z" />
    <glyph glyph-name="agrave" unicode="&#xe0;" horiz-adv-x="301" 
d="M246 0h-10l-7 43q-22 -53 -80 -53q-52 0 -75.5 27.5t-23.5 84.5v51q0 66 35.5 102t142.5 65v79q0 48 -16 71.5t-62 23.5q-47 0 -62.5 -23t-15.5 -72v-27h-18v27q0 56 20 83.5t76 27.5t76 -27.5t20 -83.5v-399zM68 153v-51q0 -49 19 -72.5t62 -23.5q38 0 58.5 26.5
t20.5 68.5v204q-99 -25 -129.5 -59.5t-30.5 -92.5zM83 670h22l55 -120h-15z" />
    <glyph glyph-name="aacute" unicode="&#xe1;" horiz-adv-x="301" 
d="M246 0h-10l-7 43q-22 -53 -80 -53q-52 0 -75.5 27.5t-23.5 84.5v51q0 66 35.5 102t142.5 65v79q0 48 -16 71.5t-62 23.5q-47 0 -62.5 -23t-15.5 -72v-27h-18v27q0 56 20 83.5t76 27.5t76 -27.5t20 -83.5v-399zM68 153v-51q0 -49 19 -72.5t62 -23.5q38 0 58.5 26.5
t20.5 68.5v204q-99 -25 -129.5 -59.5t-30.5 -92.5zM200 670h22l-62 -120h-15z" />
    <glyph glyph-name="acircumflex" unicode="&#xe2;" horiz-adv-x="301" 
d="M246 0h-10l-7 43q-22 -53 -80 -53q-52 0 -75.5 27.5t-23.5 84.5v51q0 66 35.5 102t142.5 65v79q0 48 -16 71.5t-62 23.5q-47 0 -62.5 -23t-15.5 -72v-27h-18v27q0 56 20 83.5t76 27.5t76 -27.5t20 -83.5v-399zM68 153v-51q0 -49 19 -72.5t62 -23.5q38 0 58.5 26.5
t20.5 68.5v204q-99 -25 -129.5 -59.5t-30.5 -92.5zM139 670h22l56 -120h-16l-51 100l-51 -100h-16z" />
    <glyph glyph-name="atilde" unicode="&#xe3;" horiz-adv-x="301" 
d="M246 0h-10l-7 43q-22 -53 -80 -53q-52 0 -75.5 27.5t-23.5 84.5v51q0 66 35.5 102t142.5 65v79q0 48 -16 71.5t-62 23.5q-47 0 -62.5 -23t-15.5 -72v-27h-18v27q0 56 20 83.5t76 27.5t76 -27.5t20 -83.5v-399zM68 153v-51q0 -49 19 -72.5t62 -23.5q38 0 58.5 26.5
t20.5 68.5v204q-99 -25 -129.5 -59.5t-30.5 -92.5zM232 622h18q0 -32 -12 -47t-40 -15t-51.5 28t-43.5 28q-22 0 -28.5 -11t-6.5 -35h-18q0 62 52 62q22 0 36.5 -14t27.5 -28t31 -14q22 0 28.5 10.5t6.5 35.5z" />
    <glyph glyph-name="adieresis" unicode="&#xe4;" horiz-adv-x="301" 
d="M246 0h-10l-7 43q-22 -53 -80 -53q-52 0 -75.5 27.5t-23.5 84.5v51q0 66 35.5 102t142.5 65v79q0 48 -16 71.5t-62 23.5q-47 0 -62.5 -23t-15.5 -72v-27h-18v27q0 56 20 83.5t76 27.5t76 -27.5t20 -83.5v-399zM68 153v-51q0 -49 19 -72.5t62 -23.5q38 0 58.5 26.5
t20.5 68.5v204q-99 -25 -129.5 -59.5t-30.5 -92.5zM86 623h30v-38h-30v38zM184 623h30v-38h-30v38z" />
    <glyph glyph-name="aring" unicode="&#xe5;" horiz-adv-x="301" 
d="M246 0h-10l-7 43q-22 -53 -80 -53q-52 0 -75.5 27.5t-23.5 84.5v51q0 66 35.5 102t142.5 65v79q0 48 -16 71.5t-62 23.5q-47 0 -62.5 -23t-15.5 -72v-27h-18v27q0 56 20 83.5t76 27.5t76 -27.5t20 -83.5v-399zM68 153v-51q0 -49 19 -72.5t62 -23.5q38 0 58.5 26.5
t20.5 68.5v204q-99 -25 -129.5 -59.5t-30.5 -92.5zM196 615q0 59 -46 59t-46 -59q0 -58 46 -58t46 58zM214 615q0 -74 -64 -74t-64 74q0 75 64 75t64 -75z" />
    <glyph glyph-name="ae" unicode="&#xe6;" horiz-adv-x="474" 
d="M406 172h18v-64q0 -58 -21 -88t-77 -30q-74 0 -89 63q-15 -63 -89 -63q-56 0 -77 30t-21 88v45q0 66 35.5 102t142.5 65v79q0 48 -16 71.5t-62 23.5q-47 0 -62.5 -23t-15.5 -72v-27h-18v27q0 56 20 83.5t76 27.5q75 0 88 -60q15 60 88 60q56 0 77 -30t21 -88v-128h-178
v-156q0 -51 17 -76.5t63 -25.5t63 25.5t17 76.5v64zM228 108v197q-99 -25 -129.5 -59.5t-30.5 -92.5v-45q0 -51 17 -76.5t63 -25.5t63 25.5t17 76.5zM246 392v-112h160v112q0 51 -17 76.5t-63 25.5t-63 -25.5t-17 -76.5z" />
    <glyph glyph-name="ccedilla" unicode="&#xe7;" horiz-adv-x="301" 
d="M131 -61l14 51q-51 2 -70.5 32t-19.5 86v284q0 58 21 88t77 30t77 -30t21 -88v-54h-18v54q0 51 -17 76.5t-63 25.5t-63 -25.5t-17 -76.5v-284q0 -51 17 -76.5t63 -25.5t63 25.5t17 76.5v64h18v-64q0 -56 -20 -86t-71 -32l-9 -36q73 -4 73 -62q0 -62 -82 -62h-40l4 16h36
q64 0 64 46q0 47 -64 47h-11z" />
    <glyph glyph-name="egrave" unicode="&#xe8;" horiz-adv-x="306" 
d="M233 172h18v-64q0 -58 -21 -88t-77 -30t-77 30t-21 88v284q0 58 21 88t77 30t77 -30t21 -88v-128h-178v-156q0 -51 17 -76.5t63 -25.5t63 25.5t17 76.5v64zM73 392v-112h160v112q0 51 -17 76.5t-63 25.5t-63 -25.5t-17 -76.5zM114 670h22l55 -120h-15z" />
    <glyph glyph-name="eacute" unicode="&#xe9;" horiz-adv-x="306" 
d="M233 172h18v-64q0 -58 -21 -88t-77 -30t-77 30t-21 88v284q0 58 21 88t77 30t77 -30t21 -88v-128h-178v-156q0 -51 17 -76.5t63 -25.5t63 25.5t17 76.5v64zM73 392v-112h160v112q0 51 -17 76.5t-63 25.5t-63 -25.5t-17 -76.5zM202 670h22l-62 -120h-15z" />
    <glyph glyph-name="ecircumflex" unicode="&#xea;" horiz-adv-x="306" 
d="M233 172h18v-64q0 -58 -21 -88t-77 -30t-77 30t-21 88v284q0 58 21 88t77 30t77 -30t21 -88v-128h-178v-156q0 -51 17 -76.5t63 -25.5t63 25.5t17 76.5v64zM73 392v-112h160v112q0 51 -17 76.5t-63 25.5t-63 -25.5t-17 -76.5zM142 670h22l56 -120h-16l-51 100l-51 -100
h-16z" />
    <glyph glyph-name="edieresis" unicode="&#xeb;" horiz-adv-x="306" 
d="M233 172h18v-64q0 -58 -21 -88t-77 -30t-77 30t-21 88v284q0 58 21 88t77 30t77 -30t21 -88v-128h-178v-156q0 -51 17 -76.5t63 -25.5t63 25.5t17 76.5v64zM73 392v-112h160v112q0 51 -17 76.5t-63 25.5t-63 -25.5t-17 -76.5zM89 623h30v-38h-30v38zM187 623h30v-38h-30
v38z" />
    <glyph glyph-name="igrave" unicode="&#xec;" horiz-adv-x="144" 
d="M63 500h18v-500h-18v500zM4 670h22l55 -120h-15z" />
    <glyph glyph-name="iacute" unicode="&#xed;" horiz-adv-x="144" 
d="M63 500h18v-500h-18v500zM120 670h22l-62 -120h-15z" />
    <glyph glyph-name="icircumflex" unicode="&#xee;" horiz-adv-x="144" 
d="M63 500h18v-500h-18v500zM61 670h22l56 -120h-16l-51 100l-51 -100h-16z" />
    <glyph glyph-name="idieresis" unicode="&#xef;" horiz-adv-x="144" 
d="M63 500h18v-500h-18v500zM8 623h30v-38h-30v38zM106 623h30v-38h-30v38z" />
    <glyph glyph-name="eth" unicode="&#xf0;" horiz-adv-x="327" 
d="M159 547l-7 13l53 25q-27 55 -79 115h22q51 -63 73 -108l53 26l7 -12l-54 -26q39 -88 39 -215v-254q0 -58 -23 -89.5t-80 -31.5t-80 31.5t-23 89.5v181q0 60 22.5 88.5t76.5 28.5q53 0 89 -44q0 121 -37 207zM159 393q-44 0 -62.5 -23.5t-18.5 -77.5v-181q0 -51 19 -78
t66 -27t66 27t19 78v235q-34 47 -89 47z" />
    <glyph glyph-name="ntilde" unicode="&#xf1;" 
d="M256 0h-18v398q0 49 -18.5 72.5t-61.5 23.5q-38 0 -59 -28t-21 -70v-396h-18v500h10l7 -46q23 56 83 56q52 0 74 -27.5t22 -84.5v-398zM240 622h18q0 -32 -12 -47t-40 -15t-51.5 28t-43.5 28q-22 0 -28.5 -11t-6.5 -35h-18q0 62 52 62q22 0 36.5 -14t27.5 -28t31 -14
q22 0 28.5 10.5t6.5 35.5z" />
    <glyph glyph-name="ograve" unicode="&#xf2;" horiz-adv-x="306" 
d="M153 6q46 0 63 25.5t17 76.5v284q0 51 -17 76.5t-63 25.5t-63 -25.5t-17 -76.5v-284q0 -51 17 -76.5t63 -25.5zM153 -10q-56 0 -77 30t-21 88v284q0 58 21 88t77 30t77 -30t21 -88v-284q0 -58 -21 -88t-77 -30zM92 670h22l55 -120h-15z" />
    <glyph glyph-name="oacute" unicode="&#xf3;" horiz-adv-x="306" 
d="M153 6q46 0 63 25.5t17 76.5v284q0 51 -17 76.5t-63 25.5t-63 -25.5t-17 -76.5v-284q0 -51 17 -76.5t63 -25.5zM153 -10q-56 0 -77 30t-21 88v284q0 58 21 88t77 30t77 -30t21 -88v-284q0 -58 -21 -88t-77 -30zM201 670h22l-62 -120h-15z" />
    <glyph glyph-name="ocircumflex" unicode="&#xf4;" horiz-adv-x="306" 
d="M153 6q46 0 63 25.5t17 76.5v284q0 51 -17 76.5t-63 25.5t-63 -25.5t-17 -76.5v-284q0 -51 17 -76.5t63 -25.5zM153 -10q-56 0 -77 30t-21 88v284q0 58 21 88t77 30t77 -30t21 -88v-284q0 -58 -21 -88t-77 -30zM142 670h22l56 -120h-16l-51 100l-51 -100h-16z" />
    <glyph glyph-name="otilde" unicode="&#xf5;" horiz-adv-x="306" 
d="M153 6q46 0 63 25.5t17 76.5v284q0 51 -17 76.5t-63 25.5t-63 -25.5t-17 -76.5v-284q0 -51 17 -76.5t63 -25.5zM153 -10q-56 0 -77 30t-21 88v284q0 58 21 88t77 30t77 -30t21 -88v-284q0 -58 -21 -88t-77 -30zM235 622h18q0 -32 -12 -47t-40 -15t-51.5 28t-43.5 28
q-22 0 -28.5 -11t-6.5 -35h-18q0 62 52 62q22 0 36.5 -14t27.5 -28t31 -14q22 0 28.5 10.5t6.5 35.5z" />
    <glyph glyph-name="odieresis" unicode="&#xf6;" horiz-adv-x="306" 
d="M153 6q46 0 63 25.5t17 76.5v284q0 51 -17 76.5t-63 25.5t-63 -25.5t-17 -76.5v-284q0 -51 17 -76.5t63 -25.5zM153 -10q-56 0 -77 30t-21 88v284q0 58 21 88t77 30t77 -30t21 -88v-284q0 -58 -21 -88t-77 -30zM89 623h30v-38h-30v38zM187 623h30v-38h-30v38z" />
    <glyph glyph-name="divide" unicode="&#xf7;" horiz-adv-x="410" 
d="M188 179h34v-44h-34v44zM188 425h34v-44h-34v44zM60 288h290v-16h-290v16z" />
    <glyph glyph-name="oslash" unicode="&#xf8;" horiz-adv-x="306" 
d="M74 -30l10 41q-29 28 -29 97v284q0 58 21 88t77 30q33 0 53 -11l8 31h18l-11 -42q30 -26 30 -96v-284q0 -58 -21 -88t-77 -30q-32 0 -54 11l-7 -31h-18zM153 6q46 0 63 25.5t17 76.5v284q0 52 -17 76l-112 -450q16 -12 49 -12zM73 392v-284q0 -54 16 -76l113 450
q-18 12 -49 12q-46 0 -63 -25.5t-17 -76.5z" />
    <glyph glyph-name="ugrave" unicode="&#xf9;" 
d="M60 500h18v-398q0 -49 18.5 -72.5t61.5 -23.5q38 0 59 28t21 70v396h18v-500h-10l-7 46q-23 -56 -83 -56q-52 0 -74 27.5t-22 84.5v398zM119 670h22l55 -120h-15z" />
    <glyph glyph-name="uacute" unicode="&#xfa;" 
d="M60 500h18v-398q0 -49 18.5 -72.5t61.5 -23.5q38 0 59 28t21 70v396h18v-500h-10l-7 46q-23 -56 -83 -56q-52 0 -74 27.5t-22 84.5v398zM206 670h22l-62 -120h-15z" />
    <glyph glyph-name="ucircumflex" unicode="&#xfb;" 
d="M60 500h18v-398q0 -49 18.5 -72.5t61.5 -23.5q38 0 59 28t21 70v396h18v-500h-10l-7 46q-23 -56 -83 -56q-52 0 -74 27.5t-22 84.5v398zM147 670h22l56 -120h-16l-51 100l-51 -100h-16z" />
    <glyph glyph-name="udieresis" unicode="&#xfc;" 
d="M60 500h18v-398q0 -49 18.5 -72.5t61.5 -23.5q38 0 59 28t21 70v396h18v-500h-10l-7 46q-23 -56 -83 -56q-52 0 -74 27.5t-22 84.5v398zM94 623h30v-38h-30v38zM192 623h30v-38h-30v38z" />
    <glyph glyph-name="yacute" unicode="&#xfd;" horiz-adv-x="305" 
d="M40 500h20l97 -458l98 458h20l-126 -583q-10 -45 -31 -66t-62 -21q-18 0 -31 5v17q12 -6 31 -6q61 0 76 75l16 79zM210 670h22l-62 -120h-15z" />
    <glyph glyph-name="thorn" unicode="&#xfe;" 
d="M238 105v293q0 52 -16.5 75.5t-59.5 23.5q-41 0 -62.5 -27t-21.5 -74v-285q0 -50 21.5 -77.5t62.5 -27.5q43 0 59.5 23.5t16.5 75.5zM60 -160v870h18v-251q23 54 84 54q52 0 73 -27.5t21 -87.5v-293q0 -60 -21 -87.5t-73 -27.5q-61 0 -84 54v-204h-18z" />
    <glyph glyph-name="ydieresis" unicode="&#xff;" horiz-adv-x="305" 
d="M40 500h20l97 -458l98 458h20l-126 -583q-10 -45 -31 -66t-62 -21q-18 0 -31 5v17q12 -6 31 -6q61 0 76 75l16 79zM93 623h30v-38h-30v38zM191 623h30v-38h-30v38z" />
    <glyph glyph-name="Amacron" unicode="&#x100;" horiz-adv-x="306" 
d="M162 700l109 -700h-20l-28 184h-140l-28 -184h-20l109 700h18zM153 647l-68 -447h135zM68 750v16h170v-16h-170z" />
    <glyph glyph-name="amacron" unicode="&#x101;" horiz-adv-x="301" 
d="M246 0h-10l-7 43q-22 -53 -80 -53q-52 0 -75.5 27.5t-23.5 84.5v51q0 66 35.5 102t142.5 65v79q0 48 -16 71.5t-62 23.5q-47 0 -62.5 -23t-15.5 -72v-27h-18v27q0 56 20 83.5t76 27.5t76 -27.5t20 -83.5v-399zM68 153v-51q0 -49 19 -72.5t62 -23.5q38 0 58.5 26.5
t20.5 68.5v204q-99 -25 -129.5 -59.5t-30.5 -92.5zM65 578v16h170v-16h-170z" />
    <glyph glyph-name="Abreve" unicode="&#x102;" horiz-adv-x="306" 
d="M162 700l109 -700h-20l-28 184h-140l-28 -184h-20l109 700h18zM153 647l-68 -447h135zM210 836h16q0 -96 -73 -96t-73 96h16q0 -78 57 -78t57 78z" />
    <glyph glyph-name="abreve" unicode="&#x103;" horiz-adv-x="301" 
d="M246 0h-10l-7 43q-22 -53 -80 -53q-52 0 -75.5 27.5t-23.5 84.5v51q0 66 35.5 102t142.5 65v79q0 48 -16 71.5t-62 23.5q-47 0 -62.5 -23t-15.5 -72v-27h-18v27q0 56 20 83.5t76 27.5t76 -27.5t20 -83.5v-399zM68 153v-51q0 -49 19 -72.5t62 -23.5q38 0 58.5 26.5
t20.5 68.5v204q-99 -25 -129.5 -59.5t-30.5 -92.5zM207 636h16q0 -96 -73 -96t-73 96h16q0 -78 57 -78t57 78z" />
    <glyph glyph-name="Aogonek" unicode="&#x104;" horiz-adv-x="306" 
d="M271 -170h-12q-33 0 -49 13.5t-16 45.5q0 27 15.5 58t41.5 53l-28 184h-140l-28 -184h-20l109 700h18l109 -700q-26 -19 -43 -50t-17 -60q0 -25 11.5 -34.5t35.5 -9.5h13v-16zM153 647l-68 -447h135z" />
    <glyph glyph-name="aogonek" unicode="&#x105;" horiz-adv-x="301" 
d="M246 -170h-12q-66 0 -66 59q0 28 17.5 60t49.5 59l-6 35q-22 -53 -80 -53q-52 0 -75.5 27.5t-23.5 84.5v51q0 66 35.5 102t142.5 65v79q0 48 -16 71.5t-62 23.5q-47 0 -62.5 -23t-15.5 -72v-27h-18v27q0 56 20 83.5t76 27.5t76 -27.5t20 -83.5v-399q-26 -19 -43 -50
t-17 -60q0 -25 11.5 -34.5t35.5 -9.5h13v-16zM68 153v-51q0 -49 19 -72.5t62 -23.5q38 0 58.5 26.5t20.5 68.5v204q-99 -25 -129.5 -59.5t-30.5 -92.5z" />
    <glyph glyph-name="Cacute" unicode="&#x106;" 
d="M248 200h18v-89q0 -58 -23 -89.5t-80 -31.5t-80 31.5t-23 89.5v478q0 58 23 89.5t80 31.5t80 -31.5t23 -89.5v-79h-18v79q0 51 -19 78t-66 27t-66 -27t-19 -78v-478q0 -51 19 -78t66 -27t66 27t19 78v89zM212 870h22l-62 -120h-15z" />
    <glyph glyph-name="cacute" unicode="&#x107;" horiz-adv-x="301" 
d="M233 172h18v-64q0 -58 -21 -88t-77 -30t-77 30t-21 88v284q0 58 21 88t77 30t77 -30t21 -88v-54h-18v54q0 51 -17 76.5t-63 25.5t-63 -25.5t-17 -76.5v-284q0 -51 17 -76.5t63 -25.5t63 25.5t17 76.5v64zM201 670h22l-62 -120h-15z" />
    <glyph glyph-name="Ccircumflex" unicode="&#x108;" 
d="M248 200h18v-89q0 -58 -23 -89.5t-80 -31.5t-80 31.5t-23 89.5v478q0 58 23 89.5t80 31.5t80 -31.5t23 -89.5v-79h-18v79q0 51 -19 78t-66 27t-66 -27t-19 -78v-478q0 -51 19 -78t66 -27t66 27t19 78v89zM152 870h22l56 -120h-16l-51 100l-51 -100h-16z" />
    <glyph glyph-name="ccircumflex" unicode="&#x109;" horiz-adv-x="301" 
d="M233 172h18v-64q0 -58 -21 -88t-77 -30t-77 30t-21 88v284q0 58 21 88t77 30t77 -30t21 -88v-54h-18v54q0 51 -17 76.5t-63 25.5t-63 -25.5t-17 -76.5v-284q0 -51 17 -76.5t63 -25.5t63 25.5t17 76.5v64zM139 670h22l56 -120h-16l-51 100l-51 -100h-16z" />
    <glyph glyph-name="Cdotaccent" unicode="&#x10a;" 
d="M248 200h18v-89q0 -58 -23 -89.5t-80 -31.5t-80 31.5t-23 89.5v478q0 58 23 89.5t80 31.5t80 -31.5t23 -89.5v-79h-18v79q0 51 -19 78t-66 27t-66 -27t-19 -78v-478q0 -51 19 -78t66 -27t66 27t19 78v89zM148 788h30v-38h-30v38z" />
    <glyph glyph-name="cdotaccent" unicode="&#x10b;" horiz-adv-x="301" 
d="M233 172h18v-64q0 -58 -21 -88t-77 -30t-77 30t-21 88v284q0 58 21 88t77 30t77 -30t21 -88v-54h-18v54q0 51 -17 76.5t-63 25.5t-63 -25.5t-17 -76.5v-284q0 -51 17 -76.5t63 -25.5t63 25.5t17 76.5v64zM140 623h30v-38h-30v38z" />
    <glyph glyph-name="Ccaron" unicode="&#x10c;" 
d="M248 200h18v-89q0 -58 -23 -89.5t-80 -31.5t-80 31.5t-23 89.5v478q0 58 23 89.5t80 31.5t80 -31.5t23 -89.5v-79h-18v79q0 51 -19 78t-66 27t-66 -27t-19 -78v-478q0 -51 19 -78t66 -27t66 27t19 78v89zM174 750h-22l-56 120h16l51 -100l51 100h16z" />
    <glyph glyph-name="ccaron" unicode="&#x10d;" horiz-adv-x="301" 
d="M233 172h18v-64q0 -58 -21 -88t-77 -30t-77 30t-21 88v284q0 58 21 88t77 30t77 -30t21 -88v-54h-18v54q0 51 -17 76.5t-63 25.5t-63 -25.5t-17 -76.5v-284q0 -51 17 -76.5t63 -25.5t63 25.5t17 76.5v64zM161 550h-22l-56 120h16l51 -100l51 100h16z" />
    <glyph glyph-name="Dcaron" unicode="&#x10e;" horiz-adv-x="341" 
d="M70 0v700h84q68 0 95 -31t27 -90v-458q0 -59 -26 -90t-94 -31h-86zM88 684v-668h68q58 0 80 27t22 78v458q0 51 -23 78t-81 27h-66zM169 750h-22l-56 120h16l51 -100l51 100h16z" />
    <glyph glyph-name="dcaron" unicode="&#x10f;" 
d="M78 395v-293q0 -49 18.5 -72.5t61.5 -23.5q38 0 59 28t21 70v285q0 50 -21.5 77.5t-62.5 27.5q-43 0 -59.5 -23.5t-16.5 -75.5zM60 102v293q0 60 21 87.5t73 27.5q61 0 84 -54v254h18v-710h-10l-7 46q-23 -56 -83 -56q-52 0 -74 27.5t-22 84.5zM300 710h31l-19 -160h-12
v160z" />
    <glyph glyph-name="Dcroat" unicode="&#x110;" horiz-adv-x="341" 
d="M27 346v16h43v338h84q68 0 95 -31t27 -90v-458q0 -59 -26 -90t-94 -31h-86v346h-43zM88 684v-322h79v-16h-79v-330h68q58 0 80 27t22 78v458q0 51 -23 78t-81 27h-66z" />
    <glyph glyph-name="dcroat" unicode="&#x111;" 
d="M151 598v16h87v96h18v-710h-10l-7 46q-23 -56 -83 -56q-52 0 -74 27.5t-22 84.5v293q0 60 21 87.5t73 27.5q61 0 84 -54v142h-87zM78 395v-293q0 -49 18.5 -72.5t61.5 -23.5q38 0 59 28t21 70v285q0 50 -21.5 77.5t-62.5 27.5q-43 0 -59.5 -23.5t-16.5 -75.5z" />
    <glyph glyph-name="Emacron" unicode="&#x112;" horiz-adv-x="294" 
d="M88 345v-329h161v-16h-179v700h179v-16h-161v-323h138v-16h-138zM74 750v16h170v-16h-170z" />
    <glyph glyph-name="emacron" unicode="&#x113;" horiz-adv-x="306" 
d="M233 172h18v-64q0 -58 -21 -88t-77 -30t-77 30t-21 88v284q0 58 21 88t77 30t77 -30t21 -88v-128h-178v-156q0 -51 17 -76.5t63 -25.5t63 25.5t17 76.5v64zM73 392v-112h160v112q0 51 -17 76.5t-63 25.5t-63 -25.5t-17 -76.5zM68 578v16h170v-16h-170z" />
    <glyph glyph-name="Ebreve" unicode="&#x114;" horiz-adv-x="294" 
d="M88 345v-329h161v-16h-179v700h179v-16h-161v-323h138v-16h-138zM214 836h16q0 -96 -73 -96t-73 96h16q0 -78 57 -78t57 78z" />
    <glyph glyph-name="ebreve" unicode="&#x115;" horiz-adv-x="306" 
d="M233 172h18v-64q0 -58 -21 -88t-77 -30t-77 30t-21 88v284q0 58 21 88t77 30t77 -30t21 -88v-128h-178v-156q0 -51 17 -76.5t63 -25.5t63 25.5t17 76.5v64zM73 392v-112h160v112q0 51 -17 76.5t-63 25.5t-63 -25.5t-17 -76.5zM210 636h16q0 -96 -73 -96t-73 96h16
q0 -78 57 -78t57 78z" />
    <glyph glyph-name="Edotaccent" unicode="&#x116;" horiz-adv-x="294" 
d="M88 345v-329h161v-16h-179v700h179v-16h-161v-323h138v-16h-138zM145 788h30v-38h-30v38z" />
    <glyph glyph-name="edotaccent" unicode="&#x117;" horiz-adv-x="306" 
d="M233 172h18v-64q0 -58 -21 -88t-77 -30t-77 30t-21 88v284q0 58 21 88t77 30t77 -30t21 -88v-128h-178v-156q0 -51 17 -76.5t63 -25.5t63 25.5t17 76.5v64zM73 392v-112h160v112q0 51 -17 76.5t-63 25.5t-63 -25.5t-17 -76.5zM138 623h30v-38h-30v38z" />
    <glyph glyph-name="Eogonek" unicode="&#x118;" horiz-adv-x="294" 
d="M249 -170h-12q-66 0 -66 59q0 27 16 58t42 53h-159v700h179v-16h-161v-323h138v-16h-138v-329h161v-16q-26 -19 -43 -50t-17 -60q0 -25 11.5 -34.5t35.5 -9.5h13v-16z" />
    <glyph glyph-name="eogonek" unicode="&#x119;" horiz-adv-x="306" 
d="M202 -170h-12q-66 0 -66 59q0 56 48 102q-3 0 -9.5 -0.5t-9.5 -0.5q-56 0 -77 30t-21 88v284q0 58 21 88t77 30t77 -30t21 -88v-128h-178v-156q0 -51 17 -76.5t63 -25.5t63 25.5t17 76.5v64h18v-64q0 -90 -52 -110q-25 -20 -41 -50t-16 -58q0 -25 11.5 -34.5t35.5 -9.5
h13v-16zM73 392v-112h160v112q0 51 -17 76.5t-63 25.5t-63 -25.5t-17 -76.5z" />
    <glyph glyph-name="Ecaron" unicode="&#x11a;" horiz-adv-x="294" 
d="M88 345v-329h161v-16h-179v700h179v-16h-161v-323h138v-16h-138zM171 750h-22l-56 120h16l51 -100l51 100h16z" />
    <glyph glyph-name="ecaron" unicode="&#x11b;" horiz-adv-x="306" 
d="M233 172h18v-64q0 -58 -21 -88t-77 -30t-77 30t-21 88v284q0 58 21 88t77 30t77 -30t21 -88v-128h-178v-156q0 -51 17 -76.5t63 -25.5t63 25.5t17 76.5v64zM73 392v-112h160v112q0 51 -17 76.5t-63 25.5t-63 -25.5t-17 -76.5zM164 550h-22l-56 120h16l51 -100l51 100h16z
" />
    <glyph glyph-name="Gcircumflex" unicode="&#x11c;" horiz-adv-x="331" 
d="M253 109v236h-85v16h103v-252q0 -58 -23 -88.5t-80 -30.5t-80 30.5t-23 88.5v482q0 58 23 88.5t80 30.5t80 -30.5t23 -88.5v-81h-18v81q0 51 -19 77t-66 26t-66 -26t-19 -77v-482q0 -51 19 -77t66 -26t66 26t19 77zM154 870h22l56 -120h-16l-51 100l-51 -100h-16z" />
    <glyph glyph-name="gcircumflex" unicode="&#x11d;" horiz-adv-x="326" 
d="M154 118h-6q-45 -3 -45 -32t46 -32h5q115 0 115 -107v-15q0 -102 -114 -102q-61 0 -87.5 26t-26.5 76v15q0 87 75 103q-29 11 -29 36t30 36q-61 18 -61 114v156q0 58 21 88t77 30q26 0 45 -8q19 56 67 56q17 0 30 -5v-16q-15 5 -30 5q-41 0 -55 -45q41 -24 41 -105v-156
q0 -58 -21 -88t-77 -30zM154 134q46 0 63 25.5t17 76.5v156q0 51 -17 76.5t-63 25.5t-63 -25.5t-17 -76.5v-156q0 -51 17 -76.5t63 -25.5zM155 -154q96 0 96 86v15q0 45 -22 68t-75 23q-95 0 -95 -91v-15q0 -43 22.5 -64.5t73.5 -21.5zM138 670h22l56 -120h-16l-51 100
l-51 -100h-16z" />
    <glyph glyph-name="Gbreve" unicode="&#x11e;" horiz-adv-x="331" 
d="M253 109v236h-85v16h103v-252q0 -58 -23 -88.5t-80 -30.5t-80 30.5t-23 88.5v482q0 58 23 88.5t80 30.5t80 -30.5t23 -88.5v-81h-18v81q0 51 -19 77t-66 26t-66 -26t-19 -77v-482q0 -51 19 -77t66 -26t66 26t19 77zM222 836h16q0 -96 -73 -96t-73 96h16q0 -78 57 -78
t57 78z" />
    <glyph glyph-name="gbreve" unicode="&#x11f;" horiz-adv-x="326" 
d="M154 118h-6q-45 -3 -45 -32t46 -32h5q115 0 115 -107v-15q0 -102 -114 -102q-61 0 -87.5 26t-26.5 76v15q0 87 75 103q-29 11 -29 36t30 36q-61 18 -61 114v156q0 58 21 88t77 30q26 0 45 -8q19 56 67 56q17 0 30 -5v-16q-15 5 -30 5q-41 0 -55 -45q41 -24 41 -105v-156
q0 -58 -21 -88t-77 -30zM154 134q46 0 63 25.5t17 76.5v156q0 51 -17 76.5t-63 25.5t-63 -25.5t-17 -76.5v-156q0 -51 17 -76.5t63 -25.5zM155 -154q96 0 96 86v15q0 45 -22 68t-75 23q-95 0 -95 -91v-15q0 -43 22.5 -64.5t73.5 -21.5zM210 636h16q0 -96 -73 -96t-73 96h16
q0 -78 57 -78t57 78z" />
    <glyph glyph-name="Gdotaccent" unicode="&#x120;" horiz-adv-x="331" 
d="M253 109v236h-85v16h103v-252q0 -58 -23 -88.5t-80 -30.5t-80 30.5t-23 88.5v482q0 58 23 88.5t80 30.5t80 -30.5t23 -88.5v-81h-18v81q0 51 -19 77t-66 26t-66 -26t-19 -77v-482q0 -51 19 -77t66 -26t66 26t19 77zM150 788h30v-38h-30v38z" />
    <glyph glyph-name="gdotaccent" unicode="&#x121;" horiz-adv-x="326" 
d="M154 118h-6q-45 -3 -45 -32t46 -32h5q115 0 115 -107v-15q0 -102 -114 -102q-61 0 -87.5 26t-26.5 76v15q0 87 75 103q-29 11 -29 36t30 36q-61 18 -61 114v156q0 58 21 88t77 30q26 0 45 -8q19 56 67 56q17 0 30 -5v-16q-15 5 -30 5q-41 0 -55 -45q41 -24 41 -105v-156
q0 -58 -21 -88t-77 -30zM154 134q46 0 63 25.5t17 76.5v156q0 51 -17 76.5t-63 25.5t-63 -25.5t-17 -76.5v-156q0 -51 17 -76.5t63 -25.5zM155 -154q96 0 96 86v15q0 45 -22 68t-75 23q-95 0 -95 -91v-15q0 -43 22.5 -64.5t73.5 -21.5zM138 623h30v-38h-30v38z" />
    <glyph glyph-name="Gcommaaccent" unicode="&#x122;" horiz-adv-x="331" 
d="M253 109v236h-85v16h103v-252q0 -58 -23 -88.5t-80 -30.5t-80 30.5t-23 88.5v482q0 58 23 88.5t80 30.5t80 -30.5t23 -88.5v-81h-18v81q0 51 -19 77t-66 26t-66 -26t-19 -77v-482q0 -51 19 -77t66 -26t66 26t19 77zM159 -48h33l-17 -122h-16v122z" />
    <glyph glyph-name="gcommaaccent" unicode="&#x123;" horiz-adv-x="326" 
d="M154 118h-6q-45 -3 -45 -32t46 -32h5q115 0 115 -107v-15q0 -102 -114 -102q-61 0 -87.5 26t-26.5 76v15q0 87 75 103q-29 11 -29 36t30 36q-61 18 -61 114v156q0 58 21 88t77 30q26 0 45 -8q19 56 67 56q17 0 30 -5v-16q-15 5 -30 5q-41 0 -55 -45q41 -24 41 -105v-156
q0 -58 -21 -88t-77 -30zM154 134q46 0 63 25.5t17 76.5v156q0 51 -17 76.5t-63 25.5t-63 -25.5t-17 -76.5v-156q0 -51 17 -76.5t63 -25.5zM155 -154q96 0 96 86v15q0 45 -22 68t-75 23q-95 0 -95 -91v-15q0 -43 22.5 -64.5t73.5 -21.5zM171 549h-33l17 122h16v-122z" />
    <glyph glyph-name="Hcircumflex" unicode="&#x124;" horiz-adv-x="346" 
d="M88 345v-345h-18v700h18v-339h170v339h18v-700h-18v345h-170zM162 870h22l56 -120h-16l-51 100l-51 -100h-16z" />
    <glyph glyph-name="hcircumflex" unicode="&#x125;" 
d="M256 0h-18v398q0 49 -18.5 72.5t-61.5 23.5q-38 0 -59 -28t-21 -70v-396h-18v710h18v-256q23 56 82 56q52 0 74 -27.5t22 -84.5v-398zM167 670h22l56 -120h-16l-51 100l-51 -100h-16z" />
    <glyph glyph-name="Hbar" unicode="&#x126;" horiz-adv-x="346" 
d="M30 516v16h40v168h18v-168h170v168h18v-168h40v-16h-40v-516h-18v345h-170v-345h-18v516h-40zM88 361h170v155h-170v-155z" />
    <glyph glyph-name="hbar" unicode="&#x127;" 
d="M256 0h-18v398q0 49 -18.5 72.5t-61.5 23.5q-38 0 -59 -28t-21 -70v-396h-18v710h18v-96h160v-16h-160v-144q23 56 82 56q52 0 74 -27.5t22 -84.5v-398z" />
    <glyph glyph-name="Itilde" unicode="&#x128;" horiz-adv-x="158" 
d="M70 0v700h18v-700h-18zM161 812h18q0 -32 -12 -47t-40 -15t-51.5 28t-43.5 28q-22 0 -28.5 -11t-6.5 -35h-18q0 62 52 62q22 0 36.5 -14t27.5 -28t31 -14q22 0 28.5 10.5t6.5 35.5z" />
    <glyph glyph-name="itilde" unicode="&#x129;" horiz-adv-x="144" 
d="M63 500h18v-500h-18v500zM154 622h18q0 -32 -12 -47t-40 -15t-51.5 28t-43.5 28q-22 0 -28.5 -11t-6.5 -35h-18q0 62 52 62q22 0 36.5 -14t27.5 -28t31 -14q22 0 28.5 10.5t6.5 35.5z" />
    <glyph glyph-name="Imacron" unicode="&#x12a;" horiz-adv-x="158" 
d="M70 0v700h18v-700h-18zM-6 750v16h170v-16h-170z" />
    <glyph glyph-name="imacron" unicode="&#x12b;" horiz-adv-x="144" 
d="M63 500h18v-500h-18v500zM-13 578v16h170v-16h-170z" />
    <glyph glyph-name="Ibreve" unicode="&#x12c;" horiz-adv-x="158" 
d="M70 0v700h18v-700h-18zM136 836h16q0 -96 -73 -96t-73 96h16q0 -78 57 -78t57 78z" />
    <glyph glyph-name="ibreve" unicode="&#x12d;" horiz-adv-x="144" 
d="M63 500h18v-500h-18v500zM129 636h16q0 -96 -73 -96t-73 96h16q0 -78 57 -78t57 78z" />
    <glyph glyph-name="Iogonek" unicode="&#x12e;" horiz-adv-x="158" 
d="M88 -170h-12q-33 0 -49 13.5t-16 45.5q0 27 16 58t43 53v700h18v-700q-26 -19 -43 -50t-17 -60q0 -25 11.5 -34.5t35.5 -9.5h13v-16z" />
    <glyph glyph-name="iogonek" unicode="&#x12f;" horiz-adv-x="144" 
d="M81 -170h-12q-66 0 -66 59q0 28 16 58.5t44 52.5v500h18v-500q-26 -19 -43 -50t-17 -60q0 -25 11.5 -34.5t35.5 -9.5h13v-16zM60 644h24v-32h-24v32z" />
    <glyph glyph-name="Idotaccent" unicode="&#x130;" horiz-adv-x="158" 
d="M70 0v700h18v-700h-18zM64 788h30v-38h-30v38z" />
    <glyph glyph-name="dotlessi" unicode="&#x131;" horiz-adv-x="144" 
d="M63 500h18v-500h-18v500z" />
    <glyph glyph-name="Jcircumflex" unicode="&#x134;" horiz-adv-x="310" 
d="M222 700h18v-589q0 -62 -20.5 -91.5t-79.5 -29.5t-79.5 30.5t-20.5 90.5v89h18v-89q0 -54 17 -79.5t65 -25.5t65 25.5t17 79.5v589zM218 870h22l56 -120h-16l-51 100l-51 -100h-16z" />
    <glyph glyph-name="jcircumflex" unicode="&#x135;" horiz-adv-x="156" 
d="M-35 -165v16q12 -5 32 -5q39 0 52.5 17.5t13.5 68.5v568h18v-569q0 -57 -17.5 -79t-66.5 -22q-19 0 -32 5zM61 670h22l56 -120h-16l-51 100l-51 -100h-16z" />
    <glyph glyph-name="Kcommaaccent" unicode="&#x136;" horiz-adv-x="311" 
d="M88 700v-337l169 337h22l-175 -344l182 -356h-22l-176 348v-348h-18v700h18zM139 -48h33l-17 -122h-16v122z" />
    <glyph glyph-name="kcommaaccent" unicode="&#x137;" horiz-adv-x="271" 
d="M78 710v-440l141 230h22l-148 -238l158 -262h-22l-151 254v-254h-18v710h18zM119 -48h33l-17 -122h-16v122z" />
    <glyph glyph-name="kgreenlandic" unicode="&#x138;" horiz-adv-x="271" 
d="M78 500v-230l141 230h22l-148 -238l158 -262h-22l-151 254v-254h-18v500h18z" />
    <glyph glyph-name="Lacute" unicode="&#x139;" horiz-adv-x="250" 
d="M70 0v700h18v-684h132v-16h-150zM128 870h22l-62 -120h-15z" />
    <glyph glyph-name="lacute" unicode="&#x13a;" horiz-adv-x="138" 
d="M60 710h18v-710h-18v710zM118 870h22l-62 -120h-15z" />
    <glyph glyph-name="Lcommaaccent" unicode="&#x13b;" horiz-adv-x="250" 
d="M70 0v700h18v-684h132v-16h-150zM124 -48h33l-17 -122h-16v122z" />
    <glyph glyph-name="lcommaaccent" unicode="&#x13c;" horiz-adv-x="138" 
d="M60 710h18v-710h-18v710zM52 -48h33l-17 -122h-16v122z" />
    <glyph glyph-name="Lcaron" unicode="&#x13d;" horiz-adv-x="250" 
d="M70 0v700h18v-684h132v-16h-150zM128 710h31l-19 -160h-12v160z" />
    <glyph glyph-name="lcaron" unicode="&#x13e;" horiz-adv-x="138" 
d="M60 710h18v-710h-18v710zM123 710h31l-19 -160h-12v160z" />
    <glyph glyph-name="Ldot" unicode="&#x13f;" horiz-adv-x="250" 
d="M70 0v700h18v-684h132v-16h-150zM135 302h34v-44h-34v44z" />
    <glyph glyph-name="ldot" unicode="&#x140;" horiz-adv-x="156" 
d="M60 710h18v-710h-18v710zM122 302h34v-44h-34v44z" />
    <glyph glyph-name="Lslash" unicode="&#x141;" horiz-adv-x="250" 
d="M15 248v16l55 24v412h18v-404l56 24v-16l-56 -24v-264h132v-16h-150v272z" />
    <glyph glyph-name="lslash" unicode="&#x142;" horiz-adv-x="138" 
d="M60 710h18v-414l56 24v-16l-56 -24v-280h-18v272l-55 -24v16l55 24v422z" />
    <glyph glyph-name="Nacute" unicode="&#x143;" horiz-adv-x="366" 
d="M88 655v-655h-18v700h24l184 -655v655h18v-700h-24zM226 870h22l-62 -120h-15z" />
    <glyph glyph-name="nacute" unicode="&#x144;" 
d="M256 0h-18v398q0 49 -18.5 72.5t-61.5 23.5q-38 0 -59 -28t-21 -70v-396h-18v500h10l7 -46q23 56 83 56q52 0 74 -27.5t22 -84.5v-398zM208 670h22l-62 -120h-15z" />
    <glyph glyph-name="Ncommaaccent" unicode="&#x145;" horiz-adv-x="366" 
d="M88 655v-655h-18v700h24l184 -655v655h18v-700h-24zM166 -48h33l-17 -122h-16v122z" />
    <glyph glyph-name="ncommaaccent" unicode="&#x146;" 
d="M256 0h-18v398q0 49 -18.5 72.5t-61.5 23.5q-38 0 -59 -28t-21 -70v-396h-18v500h10l7 -46q23 56 83 56q52 0 74 -27.5t22 -84.5v-398zM141 -48h33l-17 -122h-16v122z" />
    <glyph glyph-name="Ncaron" unicode="&#x147;" horiz-adv-x="366" 
d="M88 655v-655h-18v700h24l184 -655v655h18v-700h-24zM194 750h-22l-56 120h16l51 -100l51 100h16z" />
    <glyph glyph-name="ncaron" unicode="&#x148;" 
d="M256 0h-18v398q0 49 -18.5 72.5t-61.5 23.5q-38 0 -59 -28t-21 -70v-396h-18v500h10l7 -46q23 56 83 56q52 0 74 -27.5t22 -84.5v-398zM169 550h-22l-56 120h16l51 -100l51 100h16z" />
    <glyph glyph-name="Eng" unicode="&#x14a;" horiz-adv-x="366" 
d="M180 -165v16q12 -5 32 -5q39 0 52.5 17.5t13.5 68.5v68h-6l-184 660v-660h-18v700h24l184 -660v660h18v-769q0 -57 -17.5 -79t-66.5 -22q-19 0 -32 5z" />
    <glyph glyph-name="eng" unicode="&#x14b;" 
d="M140 -165v16q12 -5 32 -5q39 0 52.5 17.5t13.5 68.5v466q0 49 -18.5 72.5t-61.5 23.5q-38 0 -59 -28t-21 -70v-396h-18v500h10l7 -46q23 56 83 56q52 0 74 -27.5t22 -84.5v-467q0 -57 -17.5 -79t-66.5 -22q-19 0 -32 5z" />
    <glyph glyph-name="Omacron" unicode="&#x14c;" horiz-adv-x="326" 
d="M163 -10q-57 0 -80 31.5t-23 89.5v478q0 58 23 89.5t80 31.5t80 -31.5t23 -89.5v-478q0 -58 -23 -89.5t-80 -31.5zM163 6q47 0 66 27t19 78v478q0 51 -19 78t-66 27t-66 -27t-19 -78v-478q0 -51 19 -78t66 -27zM78 750v16h170v-16h-170z" />
    <glyph glyph-name="omacron" unicode="&#x14d;" horiz-adv-x="306" 
d="M153 6q46 0 63 25.5t17 76.5v284q0 51 -17 76.5t-63 25.5t-63 -25.5t-17 -76.5v-284q0 -51 17 -76.5t63 -25.5zM153 -10q-56 0 -77 30t-21 88v284q0 58 21 88t77 30t77 -30t21 -88v-284q0 -58 -21 -88t-77 -30zM68 578v16h170v-16h-170z" />
    <glyph glyph-name="Obreve" unicode="&#x14e;" horiz-adv-x="326" 
d="M163 -10q-57 0 -80 31.5t-23 89.5v478q0 58 23 89.5t80 31.5t80 -31.5t23 -89.5v-478q0 -58 -23 -89.5t-80 -31.5zM163 6q47 0 66 27t19 78v478q0 51 -19 78t-66 27t-66 -27t-19 -78v-478q0 -51 19 -78t66 -27zM220 836h16q0 -96 -73 -96t-73 96h16q0 -78 57 -78t57 78z
" />
    <glyph glyph-name="obreve" unicode="&#x14f;" horiz-adv-x="306" 
d="M153 6q46 0 63 25.5t17 76.5v284q0 51 -17 76.5t-63 25.5t-63 -25.5t-17 -76.5v-284q0 -51 17 -76.5t63 -25.5zM153 -10q-56 0 -77 30t-21 88v284q0 58 21 88t77 30t77 -30t21 -88v-284q0 -58 -21 -88t-77 -30zM210 636h16q0 -96 -73 -96t-73 96h16q0 -78 57 -78t57 78z
" />
    <glyph glyph-name="Ohungarumlaut" unicode="&#x150;" horiz-adv-x="326" 
d="M163 -10q-57 0 -80 31.5t-23 89.5v478q0 58 23 89.5t80 31.5t80 -31.5t23 -89.5v-478q0 -58 -23 -89.5t-80 -31.5zM163 6q47 0 66 27t19 78v478q0 51 -19 78t-66 27t-66 -27t-19 -78v-478q0 -51 19 -78t66 -27zM139 870h22l-32 -120h-14zM227 870h22l-42 -120h-14z" />
    <glyph glyph-name="ohungarumlaut" unicode="&#x151;" horiz-adv-x="306" 
d="M153 6q46 0 63 25.5t17 76.5v284q0 51 -17 76.5t-63 25.5t-63 -25.5t-17 -76.5v-284q0 -51 17 -76.5t63 -25.5zM153 -10q-56 0 -77 30t-21 88v284q0 58 21 88t77 30t77 -30t21 -88v-284q0 -58 -21 -88t-77 -30zM131 670h22l-32 -120h-14zM219 670h22l-42 -120h-14z" />
    <glyph glyph-name="OE" unicode="&#x152;" horiz-adv-x="472" 
d="M266 345v-329h161v-16h-179v32q-22 -42 -85 -42q-57 0 -80 31.5t-23 89.5v478q0 58 23 89.5t80 31.5q63 0 85 -43v33h179v-16h-161v-323h138v-16h-138zM163 6q82 0 85 95v497q-3 96 -85 96q-47 0 -66 -27t-19 -78v-478q0 -51 19 -78t66 -27z" />
    <glyph glyph-name="oe" unicode="&#x153;" horiz-adv-x="479" 
d="M411 172h18v-64q0 -58 -21 -88t-77 -30q-74 0 -89 63q-15 -63 -89 -63q-56 0 -77 30t-21 88v284q0 58 21 88t77 30q75 0 89 -64q14 64 89 64q56 0 77 -30t21 -88v-128h-178v-156q0 -51 17 -76.5t63 -25.5t63 25.5t17 76.5v64zM153 6q46 0 63 25.5t17 76.5v284
q0 51 -17 76.5t-63 25.5t-63 -25.5t-17 -76.5v-284q0 -51 17 -76.5t63 -25.5zM251 392v-112h160v112q0 51 -17 76.5t-63 25.5t-63 -25.5t-17 -76.5z" />
    <glyph glyph-name="Racute" unicode="&#x154;" 
d="M70 0v700h76q68 0 94 -30.5t26 -89.5v-151q0 -54 -23 -84t-77 -35l125 -310h-19l-124 310h-60v-310h-18zM88 684v-358h56q58 0 81 26.5t23 76.5v151q0 51 -22 77.5t-80 26.5h-58zM191 870h22l-62 -120h-15z" />
    <glyph glyph-name="racute" unicode="&#x155;" horiz-adv-x="192" 
d="M162 510v-17q-40 0 -62 -26.5t-22 -70.5v-396h-18v500h10l7 -46q23 56 85 56zM145 670h22l-62 -120h-15z" />
    <glyph glyph-name="Rcommaaccent" unicode="&#x156;" 
d="M70 0v700h76q68 0 94 -30.5t26 -89.5v-151q0 -54 -23 -84t-77 -35l125 -310h-19l-124 310h-60v-310h-18zM88 684v-358h56q58 0 81 26.5t23 76.5v151q0 51 -22 77.5t-80 26.5h-58zM141 -48h33l-17 -122h-16v122z" />
    <glyph glyph-name="rcommaaccent" unicode="&#x157;" horiz-adv-x="192" 
d="M162 510v-17q-40 0 -62 -26.5t-22 -70.5v-396h-18v500h10l7 -46q23 56 85 56zM55 -48h33l-17 -122h-16v122z" />
    <glyph glyph-name="Rcaron" unicode="&#x158;" 
d="M70 0v700h76q68 0 94 -30.5t26 -89.5v-151q0 -54 -23 -84t-77 -35l125 -310h-19l-124 310h-60v-310h-18zM88 684v-358h56q58 0 81 26.5t23 76.5v151q0 51 -22 77.5t-80 26.5h-58zM157 750h-22l-56 120h16l51 -100l51 100h16z" />
    <glyph glyph-name="rcaron" unicode="&#x159;" horiz-adv-x="192" 
d="M162 510v-17q-40 0 -62 -26.5t-22 -70.5v-396h-18v500h10l7 -46q23 56 85 56zM123 550h-22l-56 120h16l51 -100l51 100h16z" />
    <glyph glyph-name="Sacute" unicode="&#x15a;" horiz-adv-x="312" 
d="M257 510h-18v77q0 54 -16.5 80.5t-65.5 26.5t-66 -27t-17 -80v-56q0 -50 19 -81.5t45.5 -49.5t53.5 -38t46 -60.5t19 -103.5v-85q0 -62 -20 -92.5t-80 -30.5t-80.5 31t-20.5 92v87h18v-87q0 -53 17 -80t66 -27t65 26.5t17 80.5v84q0 52 -13 88t-34 53.5t-44.5 35.5
t-44.5 33.5t-34 47.5t-13 78v54q0 61 20.5 92t80.5 31t80 -30.5t20 -92.5v-77zM207 870h22l-62 -120h-15z" />
    <glyph glyph-name="sacute" unicode="&#x15b;" horiz-adv-x="288" 
d="M220 101v38q0 38 -17.5 61.5t-42.5 35.5t-50 25t-42.5 40.5t-17.5 71.5v25q0 56 20.5 84t73.5 28t73.5 -27.5t20.5 -84.5v-60h-18v60q0 49 -16 72.5t-60 23.5q-43 0 -59.5 -23.5t-16.5 -72.5v-25q0 -42 17.5 -67t42.5 -37l50 -24t42.5 -38t17.5 -68v-38q0 -57 -19.5 -84
t-74.5 -27q-54 0 -74 27t-20 84v71h18v-71q0 -50 15.5 -72.5t60.5 -22.5t60.5 22.5t15.5 72.5zM193 670h22l-62 -120h-15z" />
    <glyph glyph-name="Scircumflex" unicode="&#x15c;" horiz-adv-x="312" 
d="M257 510h-18v77q0 54 -16.5 80.5t-65.5 26.5t-66 -27t-17 -80v-56q0 -50 19 -81.5t45.5 -49.5t53.5 -38t46 -60.5t19 -103.5v-85q0 -62 -20 -92.5t-80 -30.5t-80.5 31t-20.5 92v87h18v-87q0 -53 17 -80t66 -27t65 26.5t17 80.5v84q0 52 -13 88t-34 53.5t-44.5 35.5
t-44.5 33.5t-34 47.5t-13 78v54q0 61 20.5 92t80.5 31t80 -30.5t20 -92.5v-77zM145 870h22l56 -120h-16l-51 100l-51 -100h-16z" />
    <glyph glyph-name="scircumflex" unicode="&#x15d;" horiz-adv-x="288" 
d="M220 101v38q0 38 -17.5 61.5t-42.5 35.5t-50 25t-42.5 40.5t-17.5 71.5v25q0 56 20.5 84t73.5 28t73.5 -27.5t20.5 -84.5v-60h-18v60q0 49 -16 72.5t-60 23.5q-43 0 -59.5 -23.5t-16.5 -72.5v-25q0 -42 17.5 -67t42.5 -37l50 -24t42.5 -38t17.5 -68v-38q0 -57 -19.5 -84
t-74.5 -27q-54 0 -74 27t-20 84v71h18v-71q0 -50 15.5 -72.5t60.5 -22.5t60.5 22.5t15.5 72.5zM133 670h22l56 -120h-16l-51 100l-51 -100h-16z" />
    <glyph glyph-name="Scedilla" unicode="&#x15e;" horiz-adv-x="312" 
d="M135 -59l12 49q-54 3 -72.5 33.5t-18.5 89.5v87h18v-87q0 -53 17 -80t66 -27t65 26.5t17 80.5v84q0 52 -13 88t-34 53.5t-44.5 35.5t-44.5 33.5t-34 47.5t-13 78v54q0 61 20.5 92t80.5 31t80 -30.5t20 -92.5v-77h-18v77q0 54 -16.5 80.5t-65.5 26.5t-66 -27t-17 -80v-56
q0 -50 19 -81.5t45.5 -49.5t53.5 -38t46 -60.5t19 -103.5v-85q0 -60 -18.5 -90.5t-75.5 -32.5l-8 -33q75 -5 75 -63q0 -64 -86 -64q-22 0 -42 6v17q16 -7 42 -7q68 0 68 48q0 47 -68 47h-9z" />
    <glyph glyph-name="scedilla" unicode="&#x15f;" horiz-adv-x="288" 
d="M119 -61l14 51q-48 3 -65.5 30t-17.5 81v71h18v-71q0 -50 15.5 -72.5t60.5 -22.5t60.5 22.5t15.5 72.5v38q0 38 -17.5 61.5t-42.5 35.5t-50 25t-42.5 40.5t-17.5 71.5v25q0 56 20.5 84t73.5 28t73.5 -27.5t20.5 -84.5v-60h-18v60q0 49 -16 72.5t-60 23.5
q-43 0 -59.5 -23.5t-16.5 -72.5v-25q0 -42 17.5 -67t42.5 -37l50 -24t42.5 -38t17.5 -68v-38q0 -56 -19 -83t-71 -28l-9 -36q73 -4 73 -62q0 -62 -82 -62h-40l4 16h36q64 0 64 46q0 47 -64 47h-11z" />
    <glyph glyph-name="Scaron" unicode="&#x160;" horiz-adv-x="312" 
d="M257 510h-18v77q0 54 -16.5 80.5t-65.5 26.5t-66 -27t-17 -80v-56q0 -50 19 -81.5t45.5 -49.5t53.5 -38t46 -60.5t19 -103.5v-85q0 -62 -20 -92.5t-80 -30.5t-80.5 31t-20.5 92v87h18v-87q0 -53 17 -80t66 -27t65 26.5t17 80.5v84q0 52 -13 88t-34 53.5t-44.5 35.5
t-44.5 33.5t-34 47.5t-13 78v54q0 61 20.5 92t80.5 31t80 -30.5t20 -92.5v-77zM167 750h-22l-56 120h16l51 -100l51 100h16z" />
    <glyph glyph-name="scaron" unicode="&#x161;" horiz-adv-x="288" 
d="M220 101v38q0 38 -17.5 61.5t-42.5 35.5t-50 25t-42.5 40.5t-17.5 71.5v25q0 56 20.5 84t73.5 28t73.5 -27.5t20.5 -84.5v-60h-18v60q0 49 -16 72.5t-60 23.5q-43 0 -59.5 -23.5t-16.5 -72.5v-25q0 -42 17.5 -67t42.5 -37l50 -24t42.5 -38t17.5 -68v-38q0 -57 -19.5 -84
t-74.5 -27q-54 0 -74 27t-20 84v71h18v-71q0 -50 15.5 -72.5t60.5 -22.5t60.5 22.5t15.5 72.5zM155 550h-22l-56 120h16l51 -100l51 100h16z" />
    <glyph glyph-name="Tcommaaccent" unicode="&#x162;" horiz-adv-x="260" 
d="M139 684v-684h-18v684h-91v16h200v-16h-91zM113 -48h33l-17 -122h-16v122z" />
    <glyph glyph-name="tcommaaccent" unicode="&#x163;" horiz-adv-x="228" 
d="M193 11v-16q-13 -5 -32 -5q-49 0 -66.5 22t-17.5 79v393h-47v16h47v135l18 5v-140h85v-16h-85v-393q0 -50 13.5 -67.5t52.5 -17.5q20 0 32 5zM118 -48h33l-17 -122h-16v122z" />
    <glyph glyph-name="Tcaron" unicode="&#x164;" horiz-adv-x="260" 
d="M139 684v-684h-18v684h-91v16h200v-16h-91zM141 750h-22l-56 120h16l51 -100l51 100h16z" />
    <glyph glyph-name="tcaron" unicode="&#x165;" horiz-adv-x="228" 
d="M193 11v-16q-13 -5 -32 -5q-49 0 -66.5 22t-17.5 79v393h-47v16h47v135l18 5v-140h85v-16h-85v-393q0 -50 13.5 -67.5t52.5 -17.5q20 0 32 5zM168 710h31l-19 -160h-12v160z" />
    <glyph glyph-name="Tbar" unicode="&#x166;" horiz-adv-x="260" 
d="M65 346v16h56v322h-91v16h200v-16h-91v-322h56v-16h-56v-346h-18v346h-56z" />
    <glyph glyph-name="tbar" unicode="&#x167;" horiz-adv-x="228" 
d="M32 256v16h45v212h-47v16h47v135l18 5v-140h85v-16h-85v-212h68v-16h-68v-165q0 -50 13.5 -67.5t52.5 -17.5q20 0 32 5v-16q-13 -5 -32 -5q-49 0 -66.5 22t-17.5 79v165h-45z" />
    <glyph glyph-name="Utilde" unicode="&#x168;" horiz-adv-x="332" 
d="M249 700h18v-585q0 -62 -20.5 -93.5t-80.5 -31.5t-80.5 31.5t-20.5 93.5v585h18v-585q0 -54 17 -81.5t66 -27.5t66 27.5t17 81.5v585zM248 812h18q0 -32 -12 -47t-40 -15t-51.5 28t-43.5 28q-22 0 -28.5 -11t-6.5 -35h-18q0 62 52 62q22 0 36.5 -14t27.5 -28t31 -14
q22 0 28.5 10.5t6.5 35.5z" />
    <glyph glyph-name="utilde" unicode="&#x169;" 
d="M60 500h18v-398q0 -49 18.5 -72.5t61.5 -23.5q38 0 59 28t21 70v396h18v-500h-10l-7 46q-23 -56 -83 -56q-52 0 -74 27.5t-22 84.5v398zM240 622h18q0 -32 -12 -47t-40 -15t-51.5 28t-43.5 28q-22 0 -28.5 -11t-6.5 -35h-18q0 62 52 62q22 0 36.5 -14t27.5 -28t31 -14
q22 0 28.5 10.5t6.5 35.5z" />
    <glyph glyph-name="Umacron" unicode="&#x16a;" horiz-adv-x="332" 
d="M249 700h18v-585q0 -62 -20.5 -93.5t-80.5 -31.5t-80.5 31.5t-20.5 93.5v585h18v-585q0 -54 17 -81.5t66 -27.5t66 27.5t17 81.5v585zM81 750v16h170v-16h-170z" />
    <glyph glyph-name="umacron" unicode="&#x16b;" 
d="M60 500h18v-398q0 -49 18.5 -72.5t61.5 -23.5q38 0 59 28t21 70v396h18v-500h-10l-7 46q-23 -56 -83 -56q-52 0 -74 27.5t-22 84.5v398zM73 578v16h170v-16h-170z" />
    <glyph glyph-name="Ubreve" unicode="&#x16c;" horiz-adv-x="332" 
d="M249 700h18v-585q0 -62 -20.5 -93.5t-80.5 -31.5t-80.5 31.5t-20.5 93.5v585h18v-585q0 -54 17 -81.5t66 -27.5t66 27.5t17 81.5v585zM223 836h16q0 -96 -73 -96t-73 96h16q0 -78 57 -78t57 78z" />
    <glyph glyph-name="ubreve" unicode="&#x16d;" 
d="M60 500h18v-398q0 -49 18.5 -72.5t61.5 -23.5q38 0 59 28t21 70v396h18v-500h-10l-7 46q-23 -56 -83 -56q-52 0 -74 27.5t-22 84.5v398zM215 636h16q0 -96 -73 -96t-73 96h16q0 -78 57 -78t57 78z" />
    <glyph glyph-name="Uring" unicode="&#x16e;" horiz-adv-x="332" 
d="M249 700h18v-585q0 -62 -20.5 -93.5t-80.5 -31.5t-80.5 31.5t-20.5 93.5v585h18v-585q0 -54 17 -81.5t66 -27.5t66 27.5t17 81.5v585zM212 814q0 59 -46 59t-46 -59q0 -58 46 -58t46 58zM230 814q0 -74 -64 -74t-64 74q0 75 64 75t64 -75z" />
    <glyph glyph-name="uring" unicode="&#x16f;" 
d="M60 500h18v-398q0 -49 18.5 -72.5t61.5 -23.5q38 0 59 28t21 70v396h18v-500h-10l-7 46q-23 -56 -83 -56q-52 0 -74 27.5t-22 84.5v398zM204 615q0 59 -46 59t-46 -59q0 -58 46 -58t46 58zM222 615q0 -74 -64 -74t-64 74q0 75 64 75t64 -75z" />
    <glyph glyph-name="Uhungarumlaut" unicode="&#x170;" horiz-adv-x="332" 
d="M249 700h18v-585q0 -62 -20.5 -93.5t-80.5 -31.5t-80.5 31.5t-20.5 93.5v585h18v-585q0 -54 17 -81.5t66 -27.5t66 27.5t17 81.5v585zM142 870h22l-32 -120h-14zM230 870h22l-42 -120h-14z" />
    <glyph glyph-name="uhungarumlaut" unicode="&#x171;" 
d="M60 500h18v-398q0 -49 18.5 -72.5t61.5 -23.5q38 0 59 28t21 70v396h18v-500h-10l-7 46q-23 -56 -83 -56q-52 0 -74 27.5t-22 84.5v398zM135 670h22l-32 -120h-14zM223 670h22l-42 -120h-14z" />
    <glyph glyph-name="Uogonek" unicode="&#x172;" horiz-adv-x="332" 
d="M217 -170h-12q-66 0 -66 59q0 55 48 103q-12 -2 -21 -2q-60 0 -80.5 31.5t-20.5 93.5v585h18v-585q0 -54 17 -81.5t66 -27.5t66 27.5t17 81.5v585h18v-585q0 -98 -54 -118q-24 -19 -40 -49t-16 -58q0 -25 11.5 -34.5t35.5 -9.5h13v-16z" />
    <glyph glyph-name="uogonek" unicode="&#x173;" 
d="M256 -170h-12q-66 0 -66 59t58 110l9 8l-6 39q-23 -56 -83 -56q-52 0 -74 27.5t-22 84.5v398h18v-398q0 -49 18.5 -72.5t61.5 -23.5q38 0 59 28t21 70v396h18v-500q-26 -19 -43 -50t-17 -60q0 -25 11.5 -34.5t35.5 -9.5h13v-16z" />
    <glyph glyph-name="Wcircumflex" unicode="&#x174;" horiz-adv-x="522" 
d="M361 0l-100 644l-100 -644h-18l-103 700h20l92 -640l100 640h18l99 -640l93 640h20l-103 -700h-18zM250 870h22l56 -120h-16l-51 100l-51 -100h-16z" />
    <glyph glyph-name="wcircumflex" unicode="&#x175;" horiz-adv-x="446" 
d="M308 0l-85 462l-85 -462h-17l-86 500h19l76 -460l83 460h20l83 -460l76 460h19l-86 -500h-17zM212 670h22l56 -120h-16l-51 100l-51 -100h-16z" />
    <glyph glyph-name="Ycircumflex" unicode="&#x176;" horiz-adv-x="293" 
d="M155 0h-18v310l-107 390h19l97 -364l98 364h19l-108 -390v-310zM135 870h22l56 -120h-16l-51 100l-51 -100h-16z" />
    <glyph glyph-name="ycircumflex" unicode="&#x177;" horiz-adv-x="305" 
d="M40 500h20l97 -458l98 458h20l-126 -583q-10 -45 -31 -66t-62 -21q-18 0 -31 5v17q12 -6 31 -6q61 0 76 75l16 79zM147 670h22l56 -120h-16l-51 100l-51 -100h-16z" />
    <glyph glyph-name="Ydieresis" unicode="&#x178;" horiz-adv-x="293" 
d="M155 0h-18v310l-107 390h19l97 -364l98 364h19l-108 -390v-310zM82 788h30v-38h-30v38zM180 788h30v-38h-30v38z" />
    <glyph glyph-name="Zacute" unicode="&#x179;" horiz-adv-x="266" 
d="M226 0h-186v10l165 674h-162v16h183v-10l-165 -674h165v-16zM179 870h22l-62 -120h-15z" />
    <glyph glyph-name="zacute" unicode="&#x17a;" horiz-adv-x="261" 
d="M221 0h-181v10l155 475h-147v15h167v-10l-155 -475h161v-15zM177 670h22l-62 -120h-15z" />
    <glyph glyph-name="Zdotaccent" unicode="&#x17b;" horiz-adv-x="266" 
d="M226 0h-186v10l165 674h-162v16h183v-10l-165 -674h165v-16zM118 788h30v-38h-30v38z" />
    <glyph glyph-name="zdotaccent" unicode="&#x17c;" horiz-adv-x="261" 
d="M221 0h-181v10l155 475h-147v15h167v-10l-155 -475h161v-15zM115 623h30v-38h-30v38z" />
    <glyph glyph-name="Zcaron" unicode="&#x17d;" horiz-adv-x="266" 
d="M226 0h-186v10l165 674h-162v16h183v-10l-165 -674h165v-16zM144 750h-22l-56 120h16l51 -100l51 100h16z" />
    <glyph glyph-name="zcaron" unicode="&#x17e;" horiz-adv-x="261" 
d="M221 0h-181v10l155 475h-147v15h167v-10l-155 -475h161v-15zM141 550h-22l-56 120h16l51 -100l51 100h16z" />
    <glyph glyph-name="florin" unicode="&#x192;" horiz-adv-x="233" 
d="M-6 -105v15q12 -5 32 -5q39 0 52.5 17.5t13.5 68.5v493h-47v16h47v119q0 57 17.5 79t66.5 22q19 0 32 -5v-15q-12 5 -32 5q-39 0 -52.5 -17.5t-13.5 -68.5v-119h85v-16h-85v-493q0 -57 -17.5 -79t-66.5 -22q-19 0 -32 5z" />
    <glyph glyph-name="Scommaaccent" unicode="&#x218;" horiz-adv-x="312" 
d="M257 510h-18v77q0 54 -16.5 80.5t-65.5 26.5t-66 -27t-17 -80v-56q0 -50 19 -81.5t45.5 -49.5t53.5 -38t46 -60.5t19 -103.5v-85q0 -62 -20 -92.5t-80 -30.5t-80.5 31t-20.5 92v87h18v-87q0 -53 17 -80t66 -27t65 26.5t17 80.5v84q0 52 -13 88t-34 53.5t-44.5 35.5
t-44.5 33.5t-34 47.5t-13 78v54q0 61 20.5 92t80.5 31t80 -30.5t20 -92.5v-77zM139 -48h33l-17 -122h-16v122z" />
    <glyph glyph-name="scommaaccent" unicode="&#x219;" horiz-adv-x="288" 
d="M220 101v38q0 38 -17.5 61.5t-42.5 35.5t-50 25t-42.5 40.5t-17.5 71.5v25q0 56 20.5 84t73.5 28t73.5 -27.5t20.5 -84.5v-60h-18v60q0 49 -16 72.5t-60 23.5q-43 0 -59.5 -23.5t-16.5 -72.5v-25q0 -42 17.5 -67t42.5 -37l50 -24t42.5 -38t17.5 -68v-38q0 -57 -19.5 -84
t-74.5 -27q-54 0 -74 27t-20 84v71h18v-71q0 -50 15.5 -72.5t60.5 -22.5t60.5 22.5t15.5 72.5zM127 -48h33l-17 -122h-16v122z" />
    <glyph glyph-name="circumflex" unicode="&#x2c6;" horiz-adv-x="234" 
d="M106 670h22l56 -120h-16l-51 100l-51 -100h-16z" />
    <glyph glyph-name="caron" unicode="&#x2c7;" horiz-adv-x="234" 
d="M128 550h-22l-56 120h16l51 -100l51 100h16z" />
    <glyph glyph-name="breve" unicode="&#x2d8;" horiz-adv-x="246" 
d="M180 636h16q0 -96 -73 -96t-73 96h16q0 -78 57 -78t57 78z" />
    <glyph glyph-name="dotaccent" unicode="&#x2d9;" horiz-adv-x="134" 
d="M52 623h30v-38h-30v38z" />
    <glyph glyph-name="ring" unicode="&#x2da;" horiz-adv-x="228" 
d="M160 615q0 59 -46 59t-46 -59q0 -58 46 -58t46 58zM178 615q0 -74 -64 -74t-64 74q0 75 64 75t64 -75z" />
    <glyph glyph-name="ogonek" unicode="&#x2db;" horiz-adv-x="202" 
d="M141 -170h-12q-66 0 -66 59q0 27 16 58t42 53h20q-26 -19 -43 -50t-17 -60q0 -25 11.5 -34.5t35.5 -9.5h13v-16z" />
    <glyph glyph-name="tilde" unicode="&#x2dc;" horiz-adv-x="300" 
d="M232 622h18q0 -32 -12 -47t-40 -15t-51.5 28t-43.5 28q-22 0 -28.5 -11t-6.5 -35h-18q0 62 52 62q22 0 36.5 -14t27.5 -28t31 -14q22 0 28.5 10.5t6.5 35.5z" />
    <glyph glyph-name="hungarumlaut" unicode="&#x2dd;" horiz-adv-x="234" 
d="M74 670h22l-32 -120h-14zM162 670h22l-42 -120h-14z" />
    <glyph glyph-name="pi" unicode="&#x3c0;" horiz-adv-x="310" 
d="M275 500v-16h-51v-484h-18v484h-102v-484h-18v484h-51v16h240z" />
    <glyph glyph-name="Bdotaccent" unicode="&#x1e02;" horiz-adv-x="336" 
d="M70 0v700h85q65 0 90 -25.5t25 -81.5v-146q0 -40 -16 -63t-53 -31q41 -7 58 -30.5t17 -65.5v-145q0 -58 -25 -85t-93 -27h-88zM88 345v-329h70q58 0 79 23t21 73v145q0 44 -22.5 66t-76.5 22h-71zM88 684v-323h63q55 0 78 21.5t23 64.5v146q0 48 -20.5 69.5t-76.5 21.5
h-67zM140 788h30v-38h-30v38z" />
    <glyph glyph-name="bdotaccent" unicode="&#x1e03;" horiz-adv-x="311" 
d="M238 102v293q0 52 -16.5 75.5t-59.5 23.5q-41 0 -62.5 -27.5t-21.5 -77.5v-285q0 -42 21 -70t59 -28q43 0 61.5 23.5t18.5 72.5zM256 395v-293q0 -57 -22 -84.5t-74 -27.5q-60 0 -83 56l-7 -46h-10v710h18v-254q23 54 84 54q52 0 73 -27.5t21 -87.5zM150 623h30v-38h-30
v38z" />
    <glyph glyph-name="Ddotaccent" unicode="&#x1e0a;" horiz-adv-x="341" 
d="M70 0v700h84q68 0 95 -31t27 -90v-458q0 -59 -26 -90t-94 -31h-86zM88 684v-668h68q58 0 80 27t22 78v458q0 51 -23 78t-81 27h-66zM142 788h30v-38h-30v38z" />
    <glyph glyph-name="ddotaccent" unicode="&#x1e0b;" 
d="M78 395v-293q0 -49 18.5 -72.5t61.5 -23.5q38 0 59 28t21 70v285q0 50 -21.5 77.5t-62.5 27.5q-43 0 -59.5 -23.5t-16.5 -75.5zM60 102v293q0 60 21 87.5t73 27.5q61 0 84 -54v254h18v-710h-10l-7 46q-23 -56 -83 -56q-52 0 -74 27.5t-22 84.5zM133 623h30v-38h-30v38z
" />
    <glyph glyph-name="Fdotaccent" unicode="&#x1e1e;" horiz-adv-x="280" 
d="M88 0h-18v700h170v-16h-152v-323h132v-16h-132v-345zM144 788h30v-38h-30v38z" />
    <glyph glyph-name="fdotaccent" unicode="&#x1e1f;" horiz-adv-x="218" 
d="M193 715v-16q-12 5 -32 5q-39 0 -52.5 -17t-13.5 -68v-119h85v-16h-85v-484h-18v484h-47v16h47v119q0 57 17.5 79t66.5 22q19 0 32 -5zM124 823h30v-38h-30v38z" />
    <glyph glyph-name="Mdotaccent" unicode="&#x1e40;" horiz-adv-x="432" 
d="M226 0h-20l-125 649v-649h-18v700h28l125 -659l125 659h28v-700h-18v649zM201 788h30v-38h-30v38z" />
    <glyph glyph-name="mdotaccent" unicode="&#x1e41;" horiz-adv-x="494" 
d="M256 0h-18v398q0 49 -18.5 72.5t-61.5 23.5q-38 0 -59 -28t-21 -70v-396h-18v500h10l7 -46q23 56 83 56q72 0 89 -58q21 58 88 58q51 0 74 -27t23 -85v-398h-18v398q0 49 -19 72.5t-62 23.5q-38 0 -58.5 -25t-20.5 -71v-398zM232 623h30v-38h-30v38z" />
    <glyph glyph-name="Pdotaccent" unicode="&#x1e56;" horiz-adv-x="311" 
d="M70 0v700h76q68 0 94 -31t26 -90v-150q0 -58 -27 -88.5t-95 -30.5h-56v-310h-18zM88 684v-358h56q58 0 81 26.5t23 76.5v150q0 51 -22 78t-80 27h-58zM140 788h30v-38h-30v38z" />
    <glyph glyph-name="pdotaccent" unicode="&#x1e57;" 
d="M238 105v293q0 49 -18.5 72.5t-61.5 23.5q-38 0 -59 -28t-21 -70v-285q0 -50 21.5 -77.5t62.5 -27.5q43 0 59.5 23.5t16.5 75.5zM256 398v-293q0 -60 -21 -87.5t-73 -27.5q-61 0 -84 54v-204h-18v660h10l7 -46q23 56 83 56q52 0 74 -27.5t22 -84.5zM143 623h30v-38h-30
v38z" />
    <glyph glyph-name="Sdotaccent" unicode="&#x1e60;" horiz-adv-x="312" 
d="M257 510h-18v77q0 54 -16.5 80.5t-65.5 26.5t-66 -27t-17 -80v-56q0 -50 19 -81.5t45.5 -49.5t53.5 -38t46 -60.5t19 -103.5v-85q0 -62 -20 -92.5t-80 -30.5t-80.5 31t-20.5 92v87h18v-87q0 -53 17 -80t66 -27t65 26.5t17 80.5v84q0 52 -13 88t-34 53.5t-44.5 35.5
t-44.5 33.5t-34 47.5t-13 78v54q0 61 20.5 92t80.5 31t80 -30.5t20 -92.5v-77zM141 788h30v-38h-30v38z" />
    <glyph glyph-name="sdotaccent" unicode="&#x1e61;" horiz-adv-x="288" 
d="M220 101v38q0 38 -17.5 61.5t-42.5 35.5t-50 25t-42.5 40.5t-17.5 71.5v25q0 56 20.5 84t73.5 28t73.5 -27.5t20.5 -84.5v-60h-18v60q0 49 -16 72.5t-60 23.5q-43 0 -59.5 -23.5t-16.5 -72.5v-25q0 -42 17.5 -67t42.5 -37l50 -24t42.5 -38t17.5 -68v-38q0 -57 -19.5 -84
t-74.5 -27q-54 0 -74 27t-20 84v71h18v-71q0 -50 15.5 -72.5t60.5 -22.5t60.5 22.5t15.5 72.5zM129 623h30v-38h-30v38z" />
    <glyph glyph-name="Tdotaccent" unicode="&#x1e6a;" horiz-adv-x="260" 
d="M139 684v-684h-18v684h-91v16h200v-16h-91zM115 788h30v-38h-30v38z" />
    <glyph glyph-name="tdotaccent" unicode="&#x1e6b;" horiz-adv-x="228" 
d="M193 11v-16q-13 -5 -32 -5q-49 0 -66.5 22t-17.5 79v393h-47v16h47v135l18 5v-140h85v-16h-85v-393q0 -50 13.5 -67.5t52.5 -17.5q20 0 32 5zM73 726h30v-38h-30v38z" />
    <glyph glyph-name="Wgrave" unicode="&#x1e80;" horiz-adv-x="522" 
d="M361 0l-100 644l-100 -644h-18l-103 700h20l92 -640l100 640h18l99 -640l93 640h20l-103 -700h-18zM189 870h22l55 -120h-15z" />
    <glyph glyph-name="wgrave" unicode="&#x1e81;" horiz-adv-x="446" 
d="M308 0l-85 462l-85 -462h-17l-86 500h19l76 -460l83 460h20l83 -460l76 460h19l-86 -500h-17zM184 670h22l55 -120h-15z" />
    <glyph glyph-name="Wacute" unicode="&#x1e82;" horiz-adv-x="522" 
d="M361 0l-100 644l-100 -644h-18l-103 700h20l92 -640l100 640h18l99 -640l93 640h20l-103 -700h-18zM307 870h22l-62 -120h-15z" />
    <glyph glyph-name="wacute" unicode="&#x1e83;" horiz-adv-x="446" 
d="M308 0l-85 462l-85 -462h-17l-86 500h19l76 -460l83 460h20l83 -460l76 460h19l-86 -500h-17zM271 670h22l-62 -120h-15z" />
    <glyph glyph-name="Wdieresis" unicode="&#x1e84;" horiz-adv-x="522" 
d="M361 0l-100 644l-100 -644h-18l-103 700h20l92 -640l100 640h18l99 -640l93 640h20l-103 -700h-18zM197 788h30v-38h-30v38zM295 788h30v-38h-30v38z" />
    <glyph glyph-name="wdieresis" unicode="&#x1e85;" horiz-adv-x="446" 
d="M308 0l-85 462l-85 -462h-17l-86 500h19l76 -460l83 460h20l83 -460l76 460h19l-86 -500h-17zM159 623h30v-38h-30v38zM257 623h30v-38h-30v38z" />
    <glyph glyph-name="Ygrave" unicode="&#x1ef2;" horiz-adv-x="293" 
d="M155 0h-18v310l-107 390h19l97 -364l98 364h19l-108 -390v-310zM79 870h22l55 -120h-15z" />
    <glyph glyph-name="ygrave" unicode="&#x1ef3;" horiz-adv-x="305" 
d="M40 500h20l97 -458l98 458h20l-126 -583q-10 -45 -31 -66t-62 -21q-18 0 -31 5v17q12 -6 31 -6q61 0 76 75l16 79zM114 670h22l55 -120h-15z" />
    <glyph glyph-name="endash" unicode="&#x2013;" horiz-adv-x="370" 
d="M50 272v16h270v-16h-270z" />
    <glyph glyph-name="emdash" unicode="&#x2014;" horiz-adv-x="530" 
d="M50 272v16h430v-16h-430z" />
    <glyph glyph-name="quoteleft" unicode="&#x2018;" horiz-adv-x="134" 
d="M48 710h36v-180h-12z" />
    <glyph glyph-name="quoteright" unicode="&#x2019;" horiz-adv-x="131" 
d="M50 710h36l-24 -180h-12v180z" />
    <glyph glyph-name="quotesinglbase" unicode="&#x201a;" horiz-adv-x="154" 
d="M60 95h36l-24 -180h-12v180z" />
    <glyph glyph-name="quotedblleft" unicode="&#x201c;" horiz-adv-x="235" 
d="M50 710h36v-180h-12zM149 710h36v-180h-12z" />
    <glyph glyph-name="quotedblright" unicode="&#x201d;" horiz-adv-x="235" 
d="M149 710h36l-24 -180h-12v180zM50 710h36l-24 -180h-12v180z" />
    <glyph glyph-name="quotedblbase" unicode="&#x201e;" horiz-adv-x="251" 
d="M157 95h36l-24 -180h-12v180zM58 95h36l-24 -180h-12v180z" />
    <glyph glyph-name="dagger" unicode="&#x2020;" horiz-adv-x="258" 
d="M50 589v16h70v105h18v-105h70v-16h-70v-241h-18v241h-70z" />
    <glyph glyph-name="daggerdbl" unicode="&#x2021;" horiz-adv-x="258" 
d="M50 453v16h70v120h-70v16h70v105h18v-105h70v-16h-70v-120h70v-16h-70v-105h-18v105h-70z" />
    <glyph glyph-name="bullet" unicode="&#x2022;" horiz-adv-x="270" 
d="M50 283q0 35 25 60t60 25t60 -25t25 -60t-25 -60t-60 -25t-60 25t-25 60z" />
    <glyph glyph-name="ellipsis" unicode="&#x2026;" horiz-adv-x="378" 
d="M60 44h34v-44h-34v44zM172 44h34v-44h-34v44zM284 44h34v-44h-34v44z" />
    <glyph glyph-name="perthousand" unicode="&#x2030;" horiz-adv-x="567" 
d="M435 -10q-54 0 -65 43q-13 -43 -65 -43q-42 0 -58 22.5t-16 74.5v81q0 52 16 74.5t58 22.5q52 0 65 -43q12 43 65 43q42 0 58 -22.5t16 -74.5v-81q0 -52 -16 -74.5t-58 -22.5zM134 435q-42 0 -58 22.5t-16 74.5v81q0 52 16 74.5t58 22.5t58 -22.5t16 -74.5v-81
q0 -52 -16 -74.5t-58 -22.5zM435 6q32 0 44 18t12 63v81q0 45 -12 63t-44 18t-44 -18t-12 -63v-81q0 -45 12 -63t44 -18zM305 6q32 0 44 18t12 63v81q0 45 -12 63t-44 18t-44 -18t-12 -63v-81q0 -45 12 -63t44 -18zM134 451q32 0 44 18t12 63v81q0 45 -12 63t-44 18t-44 -18
t-12 -63v-81q0 -45 12 -63t44 -18zM377 700l-295 -700h-20l295 700h20z" />
    <glyph glyph-name="guilsinglleft" unicode="&#x2039;" horiz-adv-x="233" 
d="M50 250l107 185h26l-107 -185l107 -185h-26z" />
    <glyph glyph-name="guilsinglright" unicode="&#x203a;" horiz-adv-x="233" 
d="M76 435l107 -185l-107 -185h-26l107 185l-107 185h26z" />
    <glyph glyph-name="Euro" unicode="&#x20ac;" horiz-adv-x="366" 
d="M40 304h50v102h-50v16h50v167q0 58 23 89.5t80 31.5t80 -31.5t23 -89.5v-79h-18v79q0 51 -19 78t-66 27t-66 -27t-19 -78v-167h154l-4 -16h-150v-102h124l-5 -16h-119v-177q0 -51 19 -78t66 -27t66 27t19 78v89h18v-89q0 -58 -23 -89.5t-80 -31.5t-80 31.5t-23 89.5v177
h-50v16z" />
    <glyph glyph-name="trademark" unicode="&#x2122;" horiz-adv-x="357" 
d="M107 686v-186h-16v186h-41v14h97v-14h-40zM244 553h-14l-37 105v-158h-16v200h16l44 -125l44 125h16v-200h-16v158z" />
    <glyph glyph-name="onethird" unicode="&#x2153;" horiz-adv-x="239" 
d="M169 103v-51q0 -56 -48 -56t-48 56v27h15v-27q0 -41 33 -41t33 41v51q0 19 -6 28.5t-24 9.5h-19v15h19q17 0 22 9t5 28v50q0 40 -31 40q-32 0 -32 -40v-34h-15v34q0 55 47 55t47 -55v-50q0 -31 -19 -44q21 -13 21 -46zM45 358h149v-16h-149v16zM127 700v-279h27v-15h-70
v15h27v239h-29v11q19 0 25.5 6t6.5 23h13z" />
    <glyph glyph-name="twothirds" unicode="&#x2154;" horiz-adv-x="239" 
d="M45 358h149v-16h-149v16zM74 406v43q0 31 12 56t26.5 38.5t26.5 34t12 44.5v26q0 41 -31 41t-31 -41v-38h-16v38q0 28 10 42t37 14q47 0 47 -56v-25q0 -28 -12 -50t-26.5 -35.5t-26.5 -37t-12 -52.5v-27h81v-15h-97zM169 103v-51q0 -56 -48 -56t-48 56v27h15v-27
q0 -41 33 -41t33 41v51q0 19 -6 28.5t-24 9.5h-19v15h19q17 0 22 9t5 28v50q0 40 -31 40q-32 0 -32 -40v-34h-15v34q0 55 47 55t47 -55v-50q0 -31 -19 -44q21 -13 21 -46z" />
    <glyph glyph-name="oneeighth" unicode="&#x215b;" horiz-adv-x="239" 
d="M45 358h149v-16h-149v16zM120 -4q-48 0 -48 54v55q0 31 21 44q-19 13 -19 42v53q0 27 10 40.5t36 13.5t36 -13.5t10 -40.5v-53q0 -30 -18 -42q20 -12 20 -44v-55q0 -54 -48 -54zM120 283q-30 0 -30 -39v-53q0 -37 30 -37t30 37v53q0 39 -30 39zM120 142q-33 0 -33 -38
v-55q0 -39 33 -39t33 39v55q0 38 -33 38zM127 700v-279h27v-15h-70v15h27v239h-29v11q19 0 25.5 6t6.5 23h13z" />
    <glyph glyph-name="threeeighths" unicode="&#x215c;" horiz-adv-x="239" 
d="M45 358h149v-16h-149v16zM120 -4q-48 0 -48 54v55q0 31 21 44q-19 13 -19 42v53q0 27 10 40.5t36 13.5t36 -13.5t10 -40.5v-53q0 -30 -18 -42q20 -12 20 -44v-55q0 -54 -48 -54zM120 283q-30 0 -30 -39v-53q0 -37 30 -37t30 37v53q0 39 -30 39zM120 142q-33 0 -33 -38
v-55q0 -39 33 -39t33 39v55q0 38 -33 38zM169 509v-51q0 -56 -48 -56t-48 56v27h15v-27q0 -41 33 -41t33 41v51q0 19 -6 28.5t-24 9.5h-19v15h19q17 0 22 9t5 28v50q0 40 -31 40q-32 0 -32 -40v-34h-15v34q0 55 47 55t47 -55v-50q0 -31 -19 -44q21 -13 21 -46z" />
    <glyph glyph-name="fiveeighths" unicode="&#x215d;" horiz-adv-x="239" 
d="M45 358h149v-16h-149v16zM99 684l-7 -113q13 16 35 16q41 0 41 -55v-74q0 -56 -48 -56t-48 56v37h16v-37q0 -41 32 -41t32 41v74q0 40 -27 40q-22 0 -36 -20h-14l9 148h80v-16h-65zM120 -4q-48 0 -48 54v55q0 31 21 44q-19 13 -19 42v53q0 27 10 40.5t36 13.5t36 -13.5
t10 -40.5v-53q0 -30 -18 -42q20 -12 20 -44v-55q0 -54 -48 -54zM120 283q-30 0 -30 -39v-53q0 -37 30 -37t30 37v53q0 39 -30 39zM120 142q-33 0 -33 -38v-55q0 -39 33 -39t33 39v55q0 38 -33 38z" />
    <glyph glyph-name="seveneighths" unicode="&#x215e;" horiz-adv-x="239" 
d="M45 358h149v-16h-149v16zM126 406h-19q0 87 9.5 146.5t36.5 131.5h-81v16h100v-11q-29 -77 -37.5 -129.5t-8.5 -153.5zM120 -4q-48 0 -48 54v55q0 31 21 44q-19 13 -19 42v53q0 27 10 40.5t36 13.5t36 -13.5t10 -40.5v-53q0 -30 -18 -42q20 -12 20 -44v-55q0 -54 -48 -54
zM120 283q-30 0 -30 -39v-53q0 -37 30 -37t30 37v53q0 39 -30 39zM120 142q-33 0 -33 -38v-55q0 -39 33 -39t33 39v55q0 38 -33 38z" />
    <glyph glyph-name="partialdiff" unicode="&#x2202;" horiz-adv-x="327" 
d="M159 393q-44 0 -62.5 -23.5t-18.5 -77.5v-181q0 -51 19 -78t66 -27t66 27t19 78v235q-34 47 -89 47zM266 365v-254q0 -58 -23 -89.5t-80 -31.5t-80 31.5t-23 89.5v181q0 60 22.5 88.5t76.5 28.5q53 0 89 -44q0 110 -27.5 183.5t-94.5 151.5h22q65 -77 91.5 -151.5
t26.5 -183.5z" />
    <glyph glyph-name="minus" unicode="&#x2212;" horiz-adv-x="380" 
d="M60 288h260v-16h-260v16z" />
    <glyph glyph-name="integral" unicode="&#x222b;" horiz-adv-x="234" 
d="M88 -9v628q0 57 17.5 79t66.5 22q19 0 32 -5v-15q-12 5 -32 5q-39 0 -52.5 -17.5t-13.5 -68.5v-628q0 -57 -17.5 -79t-66.5 -22q-19 0 -32 5v15q12 -5 32 -5q39 0 52.5 17.5t13.5 68.5z" />
    <glyph glyph-name="approxequal" unicode="&#x2248;" horiz-adv-x="380" 
d="M60 340v16q26 26 65 26q31 0 64 -19t66 -19q37 0 65 28v-16q-28 -28 -65 -28q-33 0 -66 19t-64 19q-39 0 -65 -26zM60 188v16q26 26 65 26q31 0 64 -19t66 -19q37 0 65 28v-16q-28 -28 -65 -28q-33 0 -66 19t-64 19q-39 0 -65 -26z" />
    <glyph glyph-name="notequal" unicode="&#x2260;" horiz-adv-x="380" 
d="M320 196h-147l-46 -150h-18l46 150h-95v16h100l42 136h-142v16h147l46 150h18l-46 -150h95v-16h-100l-42 -136h142v-16z" />
    <glyph glyph-name="lessequal" unicode="&#x2264;" horiz-adv-x="281" 
d="M50 106h171v-16h-171v16zM50 338l145 145h24l-145 -145l145 -145h-24z" />
    <glyph glyph-name="greaterequal" unicode="&#x2265;" horiz-adv-x="281" 
d="M60 106h171v-16h-171v16zM86 483l145 -145l-145 -145h-24l145 145l-145 145h24z" />
    <glyph glyph-name="CR" horiz-adv-x="180" 
 />
    <glyph glyph-name="at.case" horiz-adv-x="534" 
d="M353 147h-11l-7 37q-19 -49 -68 -49q-90 0 -90 96v46q0 49 35 78.5t123 52.5v63q0 41 -13.5 61t-54.5 20q-39 0 -54 -21t-15 -59v-18h-18v18q0 96 87 96q49 0 67.5 -25.5t18.5 -71.5v-324zM195 277v-46q0 -80 72 -80q34 0 51 24t17 60v158q-82 -22 -111 -48t-29 -68z
M267 -4q189 0 189 211v286q0 211 -189 211t-189 -211v-286q0 -211 189 -211zM267 -20q-207 0 -207 227v286q0 227 207 227t207 -227v-286q0 -227 -207 -227z" />
    <glyph glyph-name="caron.salt" horiz-adv-x="131" 
d="M50 710h31l-19 -160h-12v160z" />
    <glyph glyph-name="commaaccent" horiz-adv-x="133" 
d="M50 -48h33l-17 -122h-16v122z" />
    <glyph glyph-name="acute.case" horiz-adv-x="200" 
d="M116 870h22l-62 -120h-15z" />
    <glyph glyph-name="grave.case" horiz-adv-x="200" 
d="M61 870h22l55 -120h-15z" />
    <glyph glyph-name="circumflex.case" horiz-adv-x="200" 
d="M89 870h22l56 -120h-16l-51 100l-51 -100h-16z" />
    <glyph glyph-name="dieresis.case" horiz-adv-x="200" 
d="M36 788h30v-38h-30v38zM134 788h30v-38h-30v38z" />
    <glyph glyph-name="tilde.case" horiz-adv-x="200" 
d="M182 812h18q0 -32 -12 -47t-40 -15t-51.5 28t-43.5 28q-22 0 -28.5 -11t-6.5 -35h-18q0 62 52 62q22 0 36.5 -14t27.5 -28t31 -14q22 0 28.5 10.5t6.5 35.5z" />
    <glyph glyph-name="caron.case" horiz-adv-x="200" 
d="M111 750h-22l-56 120h16l51 -100l51 100h16z" />
    <glyph glyph-name="ring.case" horiz-adv-x="200" 
d="M146 814q0 59 -46 59t-46 -59q0 -58 46 -58t46 58zM164 814q0 -74 -64 -74t-64 74q0 75 64 75t64 -75z" />
    <glyph glyph-name="breve.case" horiz-adv-x="200" 
d="M157 836h16q0 -96 -73 -96t-73 96h16q0 -78 57 -78t57 78z" />
    <glyph glyph-name="macron.case" horiz-adv-x="200" 
d="M15 750v16h170v-16h-170z" />
    <glyph glyph-name="dotaccent.case" horiz-adv-x="200" 
d="M85 788h30v-38h-30v38z" />
    <glyph glyph-name="hungarumlaut.case" horiz-adv-x="200" 
d="M57 870h22l-32 -120h-14zM145 870h22l-42 -120h-14z" />
    <glyph glyph-name="one.tnum" horiz-adv-x="330" 
d="M174 700v-684h61v-16h-140v16h61v603h-68v12q43 0 58.5 14t15.5 55h12z" />
    <glyph glyph-name="two.tnum" horiz-adv-x="330" 
d="M62 0v100q0 63 19 112.5t46 82t54 62.5t46 70.5t19 90.5v69q0 53 -17 80t-66 27t-66 -27t-17 -80v-77h-18v77q0 61 20.5 92t80.5 31t80.5 -31t20.5 -92v-67q0 -54 -19 -97t-46 -73.5t-54 -62.5t-46 -79.5t-19 -108.5v-83h189v-16h-207z" />
    <glyph glyph-name="three.tnum" horiz-adv-x="330" 
d="M269 246v-135q0 -58 -23 -89.5t-80 -31.5t-80 31.5t-23 89.5v89h18v-89q0 -51 19 -78t66 -27t66 27t19 78v135q0 50 -17.5 74.5t-67.5 24.5h-27v16h27q46 0 62.5 24.5t16.5 73.5v132q0 51 -18.5 77t-63.5 26t-63.5 -26t-18.5 -77v-81h-18v81q0 58 22.5 88.5t77.5 30.5
t77.5 -30.5t22.5 -88.5v-132q0 -89 -61 -106q67 -15 67 -107z" />
    <glyph glyph-name="four.tnum" horiz-adv-x="330" 
d="M216 0v174h-174v21l173 505h19v-510h49v-16h-49v-174h-18zM59 190h157v465z" />
    <glyph glyph-name="five.tnum" horiz-adv-x="330" 
d="M253 111v189q0 54 -15.5 79t-58.5 25q-55 0 -89 -52h-17l16 348h171v-16h-154l-15 -309q39 45 89 45q51 0 71 -29t20 -91v-189q0 -58 -23 -89.5t-80 -31.5t-80 31.5t-23 89.5v89h18v-89q0 -51 19 -78t66 -27t66 27t19 78z" />
    <glyph glyph-name="six.tnum" horiz-adv-x="330" 
d="M87 589v-224q36 44 89 44q54 0 76.5 -28.5t22.5 -88.5v-181q0 -58 -23 -89.5t-80 -31.5t-80 31.5t-23 89.5v478q0 58 23 89.5t80 31.5t80 -31.5t23 -89.5v-79h-18v79q0 51 -19 78t-66 27t-66 -27t-19 -78zM176 393q-55 0 -89 -47v-235q0 -51 19 -78t66 -27t66 27t19 78
v181q0 54 -18.5 77.5t-62.5 23.5z" />
    <glyph glyph-name="seven.tnum" horiz-adv-x="330" 
d="M155 0h-20q0 210 24 360.5t90 323.5h-204v16h222v-12q-67 -185 -89.5 -320t-22.5 -368z" />
    <glyph glyph-name="eight.tnum" horiz-adv-x="330" 
d="M165 -10q-57 0 -80 31.5t-23 89.5v135q0 92 67 107q-61 17 -61 106v132q0 59 21.5 89t75.5 30t75.5 -30t21.5 -89v-132q0 -89 -61 -106q67 -15 67 -107v-135q0 -58 -23 -89.5t-80 -31.5zM165 694q-45 0 -62 -26t-17 -77v-132q0 -49 16.5 -73.5t62.5 -24.5t62.5 24.5
t16.5 73.5v132q0 51 -17 77t-62 26zM165 345q-50 0 -67.5 -24.5t-17.5 -74.5v-135q0 -51 19 -78t66 -27t66 27t19 78v135q0 50 -17.5 74.5t-67.5 24.5z" />
    <glyph glyph-name="nine.tnum" horiz-adv-x="330" 
d="M254 111v234q-36 -44 -89 -44q-54 0 -76.5 28.5t-22.5 88.5v171q0 58 23 89.5t80 31.5t80 -31.5t23 -89.5v-478q0 -58 -23 -89.5t-80 -31.5t-80 31.5t-23 89.5v89h18v-89q0 -51 19 -78t66 -27t66 27t19 78zM165 317q55 0 89 47v225q0 51 -19 78t-66 27t-66 -27t-19 -78
v-171q0 -54 18.5 -77.5t62.5 -23.5z" />
    <glyph glyph-name="zero.tnum" horiz-adv-x="330" 
d="M169 -10q-57 0 -80 31.5t-23 89.5v478q0 58 23 89.5t80 31.5t80 -31.5t23 -89.5v-478q0 -58 -23 -89.5t-80 -31.5zM169 6q47 0 66 27t19 78v478q0 51 -19 78t-66 27t-66 -27t-19 -78v-478q0 -51 19 -78t66 -27z" />
    <glyph glyph-name="a.smcp" horiz-adv-x="296" 
d="M157 595l104 -595h-19l-27 153h-135l-26 -153h-19l104 595h18zM147 551l-64 -381h129z" />
    <glyph glyph-name="b.smcp" horiz-adv-x="328" 
d="M70 0v595h82q62 0 86 -22.5t24 -70.5v-119q0 -71 -66 -83q72 -11 72 -85v-118q0 -50 -24 -73.5t-89 -23.5h-85zM87 292v-276h68q55 0 75.5 19.5t20.5 61.5v118q0 38 -21.5 57.5t-73.5 19.5h-69zM87 579v-271h61q53 0 75 19t22 56v119q0 41 -19.5 59t-73.5 18h-65z" />
    <glyph glyph-name="c.smcp" horiz-adv-x="307" 
d="M239 170h18v-69q0 -110 -99 -110q-98 0 -98 110v391q0 111 98 111q99 0 99 -111v-59h-18v59q0 95 -81 95q-80 0 -80 -95v-391q0 -94 80 -94q81 0 81 94v69z" />
    <glyph glyph-name="d.smcp" horiz-adv-x="333" 
d="M70 0v595h81q65 0 91 -26.5t26 -76.5v-389q0 -50 -25 -76.5t-90 -26.5h-83zM88 579v-563h65q54 0 75.5 22t21.5 65v389q0 42 -22 64.5t-77 22.5h-63z" />
    <glyph glyph-name="e.smcp" horiz-adv-x="287" 
d="M88 292v-276h154v-16h-172v595h172v-16h-154v-271h132v-16h-132z" />
    <glyph glyph-name="f.smcp" horiz-adv-x="273" 
d="M88 0h-18v595h163v-16h-145v-271h126v-16h-126v-292z" />
    <glyph glyph-name="g.smcp" horiz-adv-x="323" 
d="M245 100v192h-81v16h99v-208q0 -109 -99 -109t-99 109v393q0 110 99 110t99 -110v-60h-18v60q0 94 -81 94q-80 0 -80 -94v-393q0 -93 80 -93q45 0 63 24t18 69z" />
    <glyph glyph-name="h.smcp" horiz-adv-x="338" 
d="M88 292v-292h-18v595h18v-287h162v287h18v-595h-18v292h-162z" />
    <glyph glyph-name="i.smcp" horiz-adv-x="157" 
d="M70 0v595h18v-595h-18z" />
    <glyph glyph-name="j.smcp" horiz-adv-x="302" 
d="M214 595h18v-493q0 -54 -20 -82.5t-76 -28.5q-55 0 -75.5 29.5t-20.5 81.5v68h18v-68q0 -47 16.5 -70.5t61.5 -23.5q46 0 62 23.5t16 70.5v493z" />
    <glyph glyph-name="k.smcp" horiz-adv-x="303" 
d="M87 595v-284l162 284h22l-168 -292l175 -303h-23l-168 294v-294h-18v595h18z" />
    <glyph glyph-name="l.smcp" horiz-adv-x="244" 
d="M70 0v595h18v-579h126v-16h-144z" />
    <glyph glyph-name="m.smcp" horiz-adv-x="420" 
d="M219 0h-18l-120 552v-552h-18v595h27l120 -560l120 560h27v-595h-18v552z" />
    <glyph glyph-name="n.smcp" horiz-adv-x="357" 
d="M88 557v-557h-18v595h23l176 -557v557h18v-595h-23z" />
    <glyph glyph-name="o.smcp" horiz-adv-x="317" 
d="M158 -9q-98 0 -98 111v392q0 109 98 109q99 0 99 -109v-392q0 -111 -99 -111zM158 8q81 0 81 94v392q0 93 -81 93q-80 0 -80 -93v-392q0 -94 80 -94z" />
    <glyph glyph-name="p.smcp" horiz-adv-x="303" 
d="M70 0v595h73q64 0 89.5 -28t25.5 -79v-119q0 -51 -26 -78.5t-91 -27.5h-53v-263h-18zM88 579v-300h53q56 0 77.5 23t21.5 67v119q0 44 -21 67.5t-76 23.5h-55z" />
    <glyph glyph-name="q.smcp" horiz-adv-x="317" 
d="M240 -77h-8q-78 0 -81 68q-91 4 -91 112v389q0 111 98 111q99 0 99 -111v-389q0 -108 -91 -112q2 -28 18 -40t48 -12h12zM158 8q82 0 82 95v389q0 95 -82 95q-81 0 -81 -95v-389q0 -95 81 -95z" />
    <glyph glyph-name="r.smcp" horiz-adv-x="307" 
d="M70 0v595h73q64 0 89.5 -28t25.5 -79v-117q0 -100 -96 -108l120 -263h-20l-118 263h-56v-263h-18zM88 579v-300h53q55 0 77 24t22 68v117q0 44 -21 67.5t-76 23.5h-55z" />
    <glyph glyph-name="s.smcp" horiz-adv-x="304" 
d="M249 433h-18v57q0 47 -15.5 72t-62.5 25t-63 -25.5t-16 -71.5v-39q0 -35 13 -60t32.5 -37.5t42 -28t42 -31.5t32.5 -48.5t13 -77.5v-63q0 -54 -19.5 -84t-76.5 -30q-58 0 -77.5 30t-19.5 84v65h18v-65q0 -47 16 -72t63 -25t62 24.5t16 72.5v62q0 44 -13 75t-32.5 45.5
t-42.5 30t-42.5 29t-32 40.5t-12.5 66v37q0 54 19.5 83.5t77.5 29.5q57 0 76.5 -29.5t19.5 -83.5v-57z" />
    <glyph glyph-name="t.smcp" horiz-adv-x="252" 
d="M135 579v-579h-18v579h-87v16h192v-16h-87z" />
    <glyph glyph-name="u.smcp" horiz-adv-x="324" 
d="M241 595h18v-488q0 -54 -20 -85t-77 -31t-77 31t-20 85v488h18v-488q0 -47 16 -73t63 -26t63 25.5t16 73.5v488z" />
    <glyph glyph-name="v.smcp" horiz-adv-x="296" 
d="M262 595l-105 -595h-18l-105 595h20l94 -548l94 548h20z" />
    <glyph glyph-name="w.smcp" horiz-adv-x="505" 
d="M254 549l-96 -549h-18l-100 595h20l90 -544l95 544h19l95 -544l89 544h20l-99 -595h-18z" />
    <glyph glyph-name="x.smcp" horiz-adv-x="288" 
d="M56 595l88 -264l88 264h20l-98 -288l104 -307h-19l-95 283l-95 -283h-19l104 307l-97 288h19z" />
    <glyph glyph-name="y.smcp" horiz-adv-x="283" 
d="M151 0h-18v263l-104 332h19l94 -309l94 309h19l-104 -332v-263z" />
    <glyph glyph-name="z.smcp" horiz-adv-x="259" 
d="M219 0h-179v10l159 569h-156v16h176v-11l-158 -568h158v-16z" />
    <glyph glyph-name="one.smcp" horiz-adv-x="231" 
d="M128 595v-579h58v-16h-134v16h58v507h-65v13q42 0 56.5 12t14.5 47h12z" />
    <glyph glyph-name="two.smcp" horiz-adv-x="299" 
d="M55 0v85q0 54 18 96t44 70t52 54t44 60.5t18 76.5v49q0 46 -16 71.5t-63 25.5t-63.5 -25.5t-16.5 -71.5v-58h-17v58q0 54 19.5 83t77.5 29q57 0 77 -29.5t20 -82.5v-49q0 -34 -10 -62.5t-25.5 -49t-34 -40t-37.5 -39.5t-34.5 -42.5t-25.5 -54.5t-10 -70v-68h182v-16h-199
z" />
    <glyph glyph-name="three.smcp" horiz-adv-x="318" 
d="M253 206v-106q0 -109 -99 -109q-100 0 -100 109v70h18v-70q0 -93 82 -93q81 0 81 93v106q0 43 -16.5 64.5t-64.5 21.5h-26v16h26q44 0 60 21.5t16 63.5v102q0 92 -79 92t-79 -92v-62h-18v62q0 108 97 108t97 -108v-102q0 -78 -60 -93q65 -13 65 -94z" />
    <glyph glyph-name="four.smcp" horiz-adv-x="301" 
d="M202 0v146h-167v20l164 429h21v-434h46v-15h-46v-146h-18zM52 161h150v396z" />
    <glyph glyph-name="five.smcp" horiz-adv-x="317" 
d="M239 101v154q0 47 -14.5 67.5t-55.5 20.5q-52 0 -85 -44h-17l16 296h164v-16h-147l-14 -258q38 38 84 38q49 0 68 -25.5t19 -78.5v-154q0 -110 -99 -110q-98 0 -98 110v69h18v-69q0 -94 80 -94q81 0 81 94z" />
    <glyph glyph-name="six.smcp" horiz-adv-x="323" 
d="M83 494v-184q37 40 85 40q51 0 73 -25t22 -77v-148q0 -109 -99 -109t-99 109v394q0 109 99 109t99 -109v-61h-17v61q0 93 -82 93q-81 0 -81 -93zM168 334q-53 0 -85 -40v-194q0 -93 81 -93q82 0 82 93v148q0 46 -17.5 66t-60.5 20z" />
    <glyph glyph-name="seven.smcp" horiz-adv-x="263" 
d="M132 0h-21q0 183 21 309t83 270h-185v16h203v-12q-63 -153 -82 -266.5t-19 -316.5z" />
    <glyph glyph-name="eight.smcp" horiz-adv-x="317" 
d="M158 -9q-98 0 -98 108v105q0 83 64 96q-59 14 -59 95v102q0 51 21 78.5t72 27.5q52 0 73 -27.5t21 -78.5v-102q0 -81 -59 -95q64 -13 64 -96v-105q0 -108 -99 -108zM158 587q-42 0 -58.5 -23t-16.5 -67v-102q0 -43 15.5 -65.5t59.5 -22.5t60 22.5t16 65.5v102
q0 44 -16.5 67t-59.5 23zM158 293q-48 0 -64.5 -23t-16.5 -66v-105q0 -92 81 -92q82 0 82 92v105q0 43 -17 66t-65 23z" />
    <glyph glyph-name="nine.smcp" horiz-adv-x="317" 
d="M240 100v193q-37 -39 -85 -39q-52 0 -73.5 25t-21.5 76v139q0 109 98 109q99 0 99 -109v-394q0 -109 -99 -109q-98 0 -98 109v70h17v-70q0 -93 81 -93q82 0 82 93zM155 269q51 0 85 40v185q0 93 -82 93q-81 0 -81 -93v-139q0 -46 17.5 -66t60.5 -20z" />
    <glyph glyph-name="zero.smcp" horiz-adv-x="317" 
d="M158 -9q-98 0 -98 109v393q0 110 98 110q99 0 99 -110v-393q0 -109 -99 -109zM158 7q82 0 82 93v393q0 94 -82 94q-81 0 -81 -94v-393q0 -93 81 -93z" />
    <glyph glyph-name="exclam.smcp" horiz-adv-x="148" 
d="M58 595h32l-8 -400h-16zM57 44h34v-44h-34v44z" />
    <glyph glyph-name="exclamdown.smcp" horiz-adv-x="148" 
d="M90 0h-32l8 400h16zM91 551h-34v44h34v-44z" />
    <glyph glyph-name="question.smcp" horiz-adv-x="310" 
d="M233 446v42q0 47 -15.5 72.5t-62.5 25.5t-62.5 -25.5t-15.5 -72.5v-55h-19v55q0 54 20 84.5t77 30.5t77 -30.5t20 -84.5v-42q0 -41 -9.5 -67t-22.5 -40t-26 -28.5t-22.5 -43t-9.5 -72.5h-16q0 47 9 77.5t22 45.5t25.5 28t21.5 37.5t9 62.5zM138 44h34v-44h-34v44z" />
    <glyph glyph-name="questiondown.smcp" horiz-adv-x="310" 
d="M79 149v-42q0 -47 15.5 -72.5t62.5 -25.5t62.5 25.5t15.5 72.5v55h19v-55q0 -54 -20 -84.5t-77 -30.5t-77 30.5t-20 84.5v42q0 41 9.5 67t22.5 40t26 28.5t22.5 43t9.5 72.5h16q0 -47 -9 -77.5t-22 -45.5t-25.5 -28t-21.5 -37.5t-9 -62.5zM174 551h-34v44h34v-44z" />
    <glyph glyph-name="ampersand.smcp" horiz-adv-x="388" 
d="M70 96v110q0 83 78 94q-78 11 -78 95v100q0 108 99 108t99 -108v-62h-17v62q0 93 -82 93t-82 -93v-100q0 -42 21 -64.5t71 -22.5h159v-16h-70v-214q0 -31 19.5 -46.5t50.5 -15.5v-16q-65 0 -80 47q-14 -56 -89 -56q-99 0 -99 105zM169 7q45 0 63.5 23t18.5 66v196h-72
q-50 0 -71 -22.5t-21 -63.5v-110q0 -43 18.5 -66t63.5 -23z" />
    <glyph glyph-name="slash.smcp" horiz-adv-x="247" 
d="M38 -26l154 646h19l-153 -646h-20z" />
    <glyph glyph-name="backslash.smcp" horiz-adv-x="247" 
d="M58 620l153 -646h-19l-154 646h20z" />
    <glyph glyph-name="dollar.smcp" horiz-adv-x="321" 
d="M233 178v33q0 32 -17 51.5t-40.5 30t-47.5 21.5t-41 34.5t-17 61.5v21q0 47 18 72.5t64 27.5v64h17v-64q45 -2 63.5 -28t18.5 -72v-36h-18v36q0 43 -15.5 64t-57.5 21q-41 0 -57 -21.5t-16 -63.5v-21q0 -34 17 -55.5t41 -32l48 -21t41 -32.5t17 -58v-33
q0 -46 -17.5 -70.5t-64.5 -26.5v-81h-17v81q-47 2 -64.5 26.5t-17.5 70.5v48h17v-48q0 -42 15.5 -62t57.5 -20q43 0 58 20t15 62z" />
    <glyph glyph-name="cent.smcp" horiz-adv-x="328" 
d="M240 240h18v-55q0 -48 -18.5 -76t-66.5 -30v-79h-17v79q-48 2 -67 29.5t-19 76.5v242q0 103 86 105v63h17v-63q85 -2 85 -105v-46h-18v46q0 44 -16 67t-60 23t-60 -23t-16 -67v-242q0 -44 16 -67t60 -23t60 23t16 67v55z" />
    <glyph glyph-name="sterling.smcp" horiz-adv-x="384" 
d="M54 292v16h76v182q0 54 19.5 83.5t77.5 29.5q57 0 76.5 -29.5t19.5 -83.5v-57h-18v57q0 47 -15.5 72t-62.5 25t-63 -25t-16 -72v-182h82v-16h-82v-183q0 -46 15.5 -69.5t63.5 -23.5h97v-16h-97q-70 0 -89 54q-19 -54 -88 -54v16q47 0 63.5 24t16.5 69v183h-76z" />
    <glyph glyph-name="Euro.smcp" horiz-adv-x="356" 
d="M40 261h48v84h-48v16h48v132q0 110 99 110t99 -110v-60h-17v60q0 94 -82 94q-81 0 -81 -94v-132h128l-6 -16h-122v-84h99l-5 -16h-94v-143q0 -94 81 -94q82 0 82 94v68h17v-68q0 -111 -99 -111t-99 111v143h-48v16z" />
    <glyph glyph-name="yen.smcp" horiz-adv-x="324" 
d="M171 0h-18v116h-91v15h91v79h-91v15h91v38l-103 332h20l91 -307l94 307h19l-103 -332v-38h92v-15h-92v-79h92v-15h-92v-116z" />
    <glyph glyph-name="numbersign.smcp" horiz-adv-x="364" 
d="M324 425v-18h-67l-14 -219h68v-17h-68l-11 -171h-18l9 171h-100l-10 -171h-19l11 171h-65v17h66l13 219h-67v18h68l11 170h19l-11 -170h100l10 170h20l-11 -170h66zM137 407l-12 -219h99l14 219h-101z" />
    <glyph glyph-name="percent.smcp" horiz-adv-x="426" 
d="M364 595l-283 -595h-19l283 595h19zM131 359q30 0 41.5 17t11.5 56v83q0 39 -11.5 56t-41.5 17q-31 0 -42.5 -17t-11.5 -56v-83q0 -39 11.5 -56t42.5 -17zM131 344q-40 0 -55.5 21.5t-15.5 66.5v83q0 45 15.5 66.5t55.5 21.5t55.5 -21.5t15.5 -66.5v-83
q0 -45 -15.5 -66.5t-55.5 -21.5zM295 6q30 0 41.5 17t11.5 56v83q0 39 -11.5 56t-41.5 17q-31 0 -42.5 -17t-11.5 -56v-83q0 -39 11.5 -56t42.5 -17zM295 -9q-40 0 -55.5 21.5t-15.5 66.5v83q0 45 15.5 66.5t55.5 21.5t55.5 -21.5t15.5 -66.5v-83q0 -45 -15.5 -66.5
t-55.5 -21.5z" />
    <glyph glyph-name="acute.smcp" horiz-adv-x="177" 
d="M105 760h22l-62 -120h-15z" />
    <glyph glyph-name="grave.smcp" horiz-adv-x="177" 
d="M50 760h22l55 -120h-15z" />
    <glyph glyph-name="circumflex.smcp" horiz-adv-x="234" 
d="M106 760h22l56 -120h-16l-51 100l-51 -100h-16z" />
    <glyph glyph-name="dieresis.smcp" horiz-adv-x="236" 
d="M54 713h30v-38h-30v38zM152 713h30v-38h-30v38z" />
    <glyph glyph-name="tilde.smcp" horiz-adv-x="300" 
d="M232 712h18q0 -32 -12 -47t-40 -15t-51.5 28t-43.5 28q-22 0 -28.5 -11t-6.5 -35h-18q0 62 52 62q22 0 36.5 -14t27.5 -28t31 -14q22 0 28.5 10.5t6.5 35.5z" />
    <glyph glyph-name="caron.smcp" horiz-adv-x="234" 
d="M128 640h-22l-56 120h16l51 -100l51 100h16z" />
    <glyph glyph-name="ring.smcp" horiz-adv-x="228" 
d="M160 705q0 59 -46 59t-46 -59q0 -58 46 -58t46 58zM178 705q0 -74 -64 -74t-64 74q0 75 64 75t64 -75z" />
    <glyph glyph-name="breve.smcp" horiz-adv-x="246" 
d="M180 726h16q0 -96 -73 -96t-73 96h16q0 -78 57 -78t57 78z" />
    <glyph glyph-name="macron.smcp" horiz-adv-x="270" 
d="M50 668v16h170v-16h-170z" />
    <glyph glyph-name="dotaccent.smcp" horiz-adv-x="134" 
d="M52 713h30v-38h-30v38z" />
    <glyph glyph-name="hungarumlaut.smcp" horiz-adv-x="234" 
d="M74 760h22l-32 -120h-14zM162 760h22l-42 -120h-14z" />
    <glyph glyph-name="aacute.smcp" horiz-adv-x="296" 
d="M157 595l104 -595h-19l-27 153h-135l-26 -153h-19l104 595h18zM147 551l-64 -381h129zM197 760h22l-62 -120h-15z" />
    <glyph glyph-name="agrave.smcp" horiz-adv-x="296" 
d="M157 595l104 -595h-19l-27 153h-135l-26 -153h-19l104 595h18zM147 551l-64 -381h129zM79 760h22l55 -120h-15z" />
    <glyph glyph-name="acircumflex.smcp" horiz-adv-x="296" 
d="M157 595l104 -595h-19l-27 153h-135l-26 -153h-19l104 595h18zM147 551l-64 -381h129zM137 760h22l56 -120h-16l-51 100l-51 -100h-16z" />
    <glyph glyph-name="adieresis.smcp" horiz-adv-x="296" 
d="M157 595l104 -595h-19l-27 153h-135l-26 -153h-19l104 595h18zM147 551l-64 -381h129zM84 713h30v-38h-30v38zM182 713h30v-38h-30v38z" />
    <glyph glyph-name="atilde.smcp" horiz-adv-x="296" 
d="M157 595l104 -595h-19l-27 153h-135l-26 -153h-19l104 595h18zM147 551l-64 -381h129zM230 712h18q0 -32 -12 -47t-40 -15t-51.5 28t-43.5 28q-22 0 -28.5 -11t-6.5 -35h-18q0 62 52 62q22 0 36.5 -14t27.5 -28t31 -14q22 0 28.5 10.5t6.5 35.5z" />
    <glyph glyph-name="aring.smcp" horiz-adv-x="296" 
d="M157 595l104 -595h-19l-27 153h-135l-26 -153h-19l104 595h18zM147 551l-64 -381h129zM194 705q0 59 -46 59t-46 -59q0 -58 46 -58t46 58zM212 705q0 -74 -64 -74t-64 74q0 75 64 75t64 -75z" />
    <glyph glyph-name="amacron.smcp" horiz-adv-x="296" 
d="M157 595l104 -595h-19l-27 153h-135l-26 -153h-19l104 595h18zM147 551l-64 -381h129zM63 668v16h170v-16h-170z" />
    <glyph glyph-name="abreve.smcp" horiz-adv-x="296" 
d="M157 595l104 -595h-19l-27 153h-135l-26 -153h-19l104 595h18zM147 551l-64 -381h129zM205 726h16q0 -96 -73 -96t-73 96h16q0 -78 57 -78t57 78z" />
    <glyph glyph-name="aogonek.smcp" horiz-adv-x="296" 
d="M261 -170h-12q-66 0 -66 59q0 27 16 58t43 53l-27 153h-135l-26 -153h-19l104 595h18l104 -595q-26 -19 -43 -50t-17 -60q0 -25 11.5 -34.5t35.5 -9.5h13v-16zM147 551l-64 -381h129z" />
    <glyph glyph-name="ae.smcp" horiz-adv-x="434" 
d="M35 0l174 595h180v-16h-155v-271h133v-16h-133v-276h155v-16h-172v154h-117l-45 -154h-20zM104 170h113v392z" />
    <glyph glyph-name="bdotaccent.smcp" horiz-adv-x="328" 
d="M70 0v595h82q62 0 86 -22.5t24 -70.5v-119q0 -71 -66 -83q72 -11 72 -85v-118q0 -50 -24 -73.5t-89 -23.5h-85zM87 292v-276h68q55 0 75.5 19.5t20.5 61.5v118q0 38 -21.5 57.5t-73.5 19.5h-69zM87 579v-271h61q53 0 75 19t22 56v119q0 41 -19.5 59t-73.5 18h-65z
M137 713h30v-38h-30v38z" />
    <glyph glyph-name="cacute.smcp" horiz-adv-x="307" 
d="M239 170h18v-69q0 -110 -99 -110q-98 0 -98 110v391q0 111 98 111q99 0 99 -111v-59h-18v59q0 95 -81 95q-80 0 -80 -95v-391q0 -94 80 -94q81 0 81 94v69zM203 760h22l-62 -120h-15z" />
    <glyph glyph-name="ccircumflex.smcp" horiz-adv-x="307" 
d="M239 170h18v-69q0 -110 -99 -110q-98 0 -98 110v391q0 111 98 111q99 0 99 -111v-59h-18v59q0 95 -81 95q-80 0 -80 -95v-391q0 -94 80 -94q81 0 81 94v69zM145 760h22l56 -120h-16l-51 100l-51 -100h-16z" />
    <glyph glyph-name="ccaron.smcp" horiz-adv-x="307" 
d="M239 170h18v-69q0 -110 -99 -110q-98 0 -98 110v391q0 111 98 111q99 0 99 -111v-59h-18v59q0 95 -81 95q-80 0 -80 -95v-391q0 -94 80 -94q81 0 81 94v69zM168 640h-22l-56 120h16l51 -100l51 100h16z" />
    <glyph glyph-name="ccedilla.smcp" horiz-adv-x="307" 
d="M134 -61l14 53q-88 5 -88 109v391q0 111 98 111q99 0 99 -111v-59h-18v59q0 95 -81 95q-80 0 -80 -95v-391q0 -94 80 -94q81 0 81 94v69h18v-69q0 -106 -94 -110l-9 -37q73 -4 73 -62q0 -62 -82 -62h-40l4 16h36q64 0 64 46q0 47 -64 47h-11z" />
    <glyph glyph-name="cdotaccent.smcp" horiz-adv-x="307" 
d="M239 170h18v-69q0 -110 -99 -110q-98 0 -98 110v391q0 111 98 111q99 0 99 -111v-59h-18v59q0 95 -81 95q-80 0 -80 -95v-391q0 -94 80 -94q81 0 81 94v69zM142 713h30v-38h-30v38z" />
    <glyph glyph-name="dcaron.smcp" horiz-adv-x="333" 
d="M70 0v595h81q65 0 91 -26.5t26 -76.5v-389q0 -50 -25 -76.5t-90 -26.5h-83zM88 579v-563h65q54 0 75.5 22t21.5 65v389q0 42 -22 64.5t-77 22.5h-63zM166 640h-22l-56 120h16l51 -100l51 100h16z" />
    <glyph glyph-name="ddotaccent.smcp" horiz-adv-x="333" 
d="M70 0v595h81q65 0 91 -26.5t26 -76.5v-389q0 -50 -25 -76.5t-90 -26.5h-83zM88 579v-563h65q54 0 75.5 22t21.5 65v389q0 42 -22 64.5t-77 22.5h-63zM140 713h30v-38h-30v38z" />
    <glyph glyph-name="dcroat.smcp" horiz-adv-x="333" 
d="M21 292v16h49v287h81q65 0 91 -26.5t26 -76.5v-389q0 -50 -25 -76.5t-90 -26.5h-83v292h-49zM88 579v-271h72v-16h-72v-276h65q54 0 75.5 22t21.5 65v389q0 42 -22 64.5t-77 22.5h-63z" />
    <glyph glyph-name="eth.smcp" horiz-adv-x="333" 
d="M21 292v16h49v287h81q65 0 91 -26.5t26 -76.5v-389q0 -50 -25 -76.5t-90 -26.5h-83v292h-49zM88 579v-271h72v-16h-72v-276h65q54 0 75.5 22t21.5 65v389q0 42 -22 64.5t-77 22.5h-63z" />
    <glyph glyph-name="eacute.smcp" horiz-adv-x="287" 
d="M88 292v-276h154v-16h-172v595h172v-16h-154v-271h132v-16h-132zM200 760h22l-62 -120h-15z" />
    <glyph glyph-name="egrave.smcp" horiz-adv-x="287" 
d="M88 292v-276h154v-16h-172v595h172v-16h-154v-271h132v-16h-132zM105 760h22l55 -120h-15z" />
    <glyph glyph-name="ecircumflex.smcp" horiz-adv-x="287" 
d="M88 292v-276h154v-16h-172v595h172v-16h-154v-271h132v-16h-132zM143 760h22l56 -120h-16l-51 100l-51 -100h-16z" />
    <glyph glyph-name="edieresis.smcp" horiz-adv-x="287" 
d="M88 292v-276h154v-16h-172v595h172v-16h-154v-271h132v-16h-132zM92 713h30v-38h-30v38zM190 713h30v-38h-30v38z" />
    <glyph glyph-name="ecaron.smcp" horiz-adv-x="287" 
d="M88 292v-276h154v-16h-172v595h172v-16h-154v-271h132v-16h-132zM170 640h-22l-56 120h16l51 -100l51 100h16z" />
    <glyph glyph-name="emacron.smcp" horiz-adv-x="287" 
d="M88 292v-276h154v-16h-172v595h172v-16h-154v-271h132v-16h-132zM71 668v16h170v-16h-170z" />
    <glyph glyph-name="ebreve.smcp" horiz-adv-x="287" 
d="M88 292v-276h154v-16h-172v595h172v-16h-154v-271h132v-16h-132zM213 726h16q0 -96 -73 -96t-73 96h16q0 -78 57 -78t57 78z" />
    <glyph glyph-name="eogonek.smcp" horiz-adv-x="287" 
d="M242 -170h-12q-66 0 -66 59q0 27 16 58t42 53h-152v595h172v-16h-154v-271h132v-16h-132v-276h154v-16q-26 -19 -43 -50t-17 -60q0 -25 11.5 -34.5t35.5 -9.5h13v-16z" />
    <glyph glyph-name="edotaccent.smcp" horiz-adv-x="287" 
d="M88 292v-276h154v-16h-172v595h172v-16h-154v-271h132v-16h-132zM141 713h30v-38h-30v38z" />
    <glyph glyph-name="fdotaccent.smcp" horiz-adv-x="273" 
d="M88 0h-18v595h163v-16h-145v-271h126v-16h-126v-292zM140 713h30v-38h-30v38z" />
    <glyph glyph-name="gcircumflex.smcp" horiz-adv-x="323" 
d="M245 100v192h-81v16h99v-208q0 -109 -99 -109t-99 109v393q0 110 99 110t99 -110v-60h-18v60q0 94 -81 94q-80 0 -80 -94v-393q0 -93 80 -93q45 0 63 24t18 69zM150 760h22l56 -120h-16l-51 100l-51 -100h-16z" />
    <glyph glyph-name="gbreve.smcp" horiz-adv-x="323" 
d="M245 100v192h-81v16h99v-208q0 -109 -99 -109t-99 109v393q0 110 99 110t99 -110v-60h-18v60q0 94 -81 94q-80 0 -80 -94v-393q0 -93 80 -93q45 0 63 24t18 69zM218 726h16q0 -96 -73 -96t-73 96h16q0 -78 57 -78t57 78z" />
    <glyph glyph-name="gdotaccent.smcp" horiz-adv-x="323" 
d="M245 100v192h-81v16h99v-208q0 -109 -99 -109t-99 109v393q0 110 99 110t99 -110v-60h-18v60q0 94 -81 94q-80 0 -80 -94v-393q0 -93 80 -93q45 0 63 24t18 69zM150 713h30v-38h-30v38z" />
    <glyph glyph-name="gcommaaccent.smcp" horiz-adv-x="323" 
d="M245 100v192h-81v16h99v-208q0 -109 -99 -109t-99 109v393q0 110 99 110t99 -110v-60h-18v60q0 94 -81 94q-80 0 -80 -94v-393q0 -93 80 -93q45 0 63 24t18 69zM145 -48h33l-17 -122h-16v122z" />
    <glyph glyph-name="hcircumflex.smcp" horiz-adv-x="338" 
d="M88 292v-292h-18v595h18v-287h162v287h18v-595h-18v292h-162zM158 760h22l56 -120h-16l-51 100l-51 -100h-16z" />
    <glyph glyph-name="hbar.smcp" horiz-adv-x="338" 
d="M30 454v16h41v125h18v-125h161v125h18v-125h41v-16h-41v-454h-18v292h-161v-292h-18v454h-41zM89 308h161v146h-161v-146z" />
    <glyph glyph-name="iacute.smcp" horiz-adv-x="157" 
d="M70 0v595h18v-595h-18zM124 760h22l-62 -120h-15z" />
    <glyph glyph-name="igrave.smcp" horiz-adv-x="157" 
d="M70 0v595h18v-595h-18zM10 760h22l55 -120h-15z" />
    <glyph glyph-name="icircumflex.smcp" horiz-adv-x="157" 
d="M70 0v595h18v-595h-18zM68 760h22l56 -120h-16l-51 100l-51 -100h-16z" />
    <glyph glyph-name="idieresis.smcp" horiz-adv-x="157" 
d="M70 0v595h18v-595h-18zM15 713h30v-38h-30v38zM113 713h30v-38h-30v38z" />
    <glyph glyph-name="itilde.smcp" horiz-adv-x="157" 
d="M70 0v595h18v-595h-18zM161 712h18q0 -32 -12 -47t-40 -15t-51.5 28t-43.5 28q-22 0 -28.5 -11t-6.5 -35h-18q0 62 52 62q22 0 36.5 -14t27.5 -28t31 -14q22 0 28.5 10.5t6.5 35.5z" />
    <glyph glyph-name="imacron.smcp" horiz-adv-x="157" 
d="M70 0v595h18v-595h-18zM-6 668v16h170v-16h-170z" />
    <glyph glyph-name="ibreve.smcp" horiz-adv-x="157" 
d="M70 0v595h18v-595h-18zM136 726h16q0 -96 -73 -96t-73 96h16q0 -78 57 -78t57 78z" />
    <glyph glyph-name="iogonek.smcp" horiz-adv-x="157" 
d="M88 -170h-12q-66 0 -66 59q0 27 16.5 58t43.5 53v595h18v-595q-26 -19 -43 -50t-17 -60q0 -25 11.5 -34.5t35.5 -9.5h13v-16z" />
    <glyph glyph-name="jcircumflex.smcp" horiz-adv-x="302" 
d="M214 595h18v-493q0 -54 -20 -82.5t-76 -28.5q-55 0 -75.5 29.5t-20.5 81.5v68h18v-68q0 -47 16.5 -70.5t61.5 -23.5q46 0 62 23.5t16 70.5v493zM211 760h22l56 -120h-16l-51 100l-51 -100h-16z" />
    <glyph glyph-name="kcommaaccent.smcp" horiz-adv-x="303" 
d="M87 595v-284l162 284h22l-168 -292l175 -303h-23l-168 294v-294h-18v595h18zM144 -48h33l-17 -122h-16v122z" />
    <glyph glyph-name="lacute.smcp" horiz-adv-x="244" 
d="M70 0v595h18v-579h126v-16h-144zM125 760h22l-62 -120h-15z" />
    <glyph glyph-name="lcaron.smcp" horiz-adv-x="244" 
d="M70 0v595h18v-579h126v-16h-144zM144 595h27l-18 -150h-9v150z" />
    <glyph glyph-name="lcommaaccent.smcp" horiz-adv-x="244" 
d="M70 0v595h18v-579h126v-16h-144zM124 -48h33l-17 -122h-16v122z" />
    <glyph glyph-name="ldot.smcp" horiz-adv-x="244" 
d="M70 0v595h18v-579h126v-16h-144zM142 302h34v-44h-34v44z" />
    <glyph glyph-name="lslash.smcp" horiz-adv-x="244" 
d="M154 284l-66 -29v-239h126v-16h-144v247l-45 -19v16l45 19v332h18v-324l66 29v-16z" />
    <glyph glyph-name="mdotaccent.smcp" horiz-adv-x="420" 
d="M219 0h-18l-120 552v-552h-18v595h27l120 -560l120 560h27v-595h-18v552zM195 713h30v-38h-30v38z" />
    <glyph glyph-name="nacute.smcp" horiz-adv-x="357" 
d="M88 557v-557h-18v595h23l176 -557v557h18v-595h-23zM225 760h22l-62 -120h-15z" />
    <glyph glyph-name="ntilde.smcp" horiz-adv-x="357" 
d="M88 557v-557h-18v595h23l176 -557v557h18v-595h-23zM260 712h18q0 -32 -12 -47t-40 -15t-51.5 28t-43.5 28q-22 0 -28.5 -11t-6.5 -35h-18q0 62 52 62q22 0 36.5 -14t27.5 -28t31 -14q22 0 28.5 10.5t6.5 35.5z" />
    <glyph glyph-name="ncaron.smcp" horiz-adv-x="357" 
d="M88 557v-557h-18v595h23l176 -557v557h18v-595h-23zM189 640h-22l-56 120h16l51 -100l51 100h16z" />
    <glyph glyph-name="ncommaaccent.smcp" horiz-adv-x="357" 
d="M88 557v-557h-18v595h23l176 -557v557h18v-595h-23zM162 -48h33l-17 -122h-16v122z" />
    <glyph glyph-name="eng.smcp" horiz-adv-x="357" 
d="M176 -140v18q14 -6 31 -6q37 0 50 15t12 58v40l-181 574v-559h-18v595h23l176 -557v557h18v-651q0 -49 -17 -69t-63 -20q-19 0 -31 5z" />
    <glyph glyph-name="oacute.smcp" horiz-adv-x="317" 
d="M158 -9q-98 0 -98 111v392q0 109 98 109q99 0 99 -109v-392q0 -111 -99 -111zM158 8q81 0 81 94v392q0 93 -81 93q-80 0 -80 -93v-392q0 -94 80 -94zM205 760h22l-62 -120h-15z" />
    <glyph glyph-name="ograve.smcp" horiz-adv-x="317" 
d="M158 -9q-98 0 -98 111v392q0 109 98 109q99 0 99 -109v-392q0 -111 -99 -111zM158 8q81 0 81 94v392q0 93 -81 93q-80 0 -80 -93v-392q0 -94 80 -94zM92 760h22l55 -120h-15z" />
    <glyph glyph-name="ocircumflex.smcp" horiz-adv-x="317" 
d="M158 -9q-98 0 -98 111v392q0 109 98 109q99 0 99 -109v-392q0 -111 -99 -111zM158 8q81 0 81 94v392q0 93 -81 93q-80 0 -80 -93v-392q0 -94 80 -94zM147 760h22l56 -120h-16l-51 100l-51 -100h-16z" />
    <glyph glyph-name="odieresis.smcp" horiz-adv-x="317" 
d="M158 -9q-98 0 -98 111v392q0 109 98 109q99 0 99 -109v-392q0 -111 -99 -111zM158 8q81 0 81 94v392q0 93 -81 93q-80 0 -80 -93v-392q0 -94 80 -94zM94 713h30v-38h-30v38zM192 713h30v-38h-30v38z" />
    <glyph glyph-name="otilde.smcp" horiz-adv-x="317" 
d="M158 -9q-98 0 -98 111v392q0 109 98 109q99 0 99 -109v-392q0 -111 -99 -111zM158 8q81 0 81 94v392q0 93 -81 93q-80 0 -80 -93v-392q0 -94 80 -94zM240 712h18q0 -32 -12 -47t-40 -15t-51.5 28t-43.5 28q-22 0 -28.5 -11t-6.5 -35h-18q0 62 52 62q22 0 36.5 -14
t27.5 -28t31 -14q22 0 28.5 10.5t6.5 35.5z" />
    <glyph glyph-name="obreve.smcp" horiz-adv-x="317" 
d="M158 -9q-98 0 -98 111v392q0 109 98 109q99 0 99 -109v-392q0 -111 -99 -111zM158 8q81 0 81 94v392q0 93 -81 93q-80 0 -80 -93v-392q0 -94 80 -94zM215 726h16q0 -96 -73 -96t-73 96h16q0 -78 57 -78t57 78z" />
    <glyph glyph-name="omacron.smcp" horiz-adv-x="317" 
d="M158 -9q-98 0 -98 111v392q0 109 98 109q99 0 99 -109v-392q0 -111 -99 -111zM158 8q81 0 81 94v392q0 93 -81 93q-80 0 -80 -93v-392q0 -94 80 -94zM73 668v16h170v-16h-170z" />
    <glyph glyph-name="ohungarumlaut.smcp" horiz-adv-x="317" 
d="M158 -9q-98 0 -98 111v392q0 109 98 109q99 0 99 -109v-392q0 -111 -99 -111zM158 8q81 0 81 94v392q0 93 -81 93q-80 0 -80 -93v-392q0 -94 80 -94zM133 760h22l-32 -120h-14zM221 760h22l-42 -120h-14z" />
    <glyph glyph-name="oslash.smcp" horiz-adv-x="317" 
d="M70 -30l12 51q-22 27 -22 81v392q0 109 98 109q39 0 62 -17l10 40h16l-13 -51q24 -27 24 -81v-392q0 -111 -99 -111q-38 0 -63 17l-9 -38h-16zM158 8q81 0 81 94v392q0 36 -11 57l-128 -523q20 -20 58 -20zM78 494v-392q0 -36 10 -57l128 523q-21 19 -58 19
q-80 0 -80 -93z" />
    <glyph glyph-name="oe.smcp" horiz-adv-x="456" 
d="M158 8q81 0 81 94v392q0 93 -81 93q-80 0 -80 -93v-392q0 -94 80 -94zM257 292v-276h154v-16h-172v31q-22 -40 -81 -40q-98 0 -98 111v392q0 109 98 109q58 0 81 -39v31h172v-16h-154v-271h132v-16h-132z" />
    <glyph glyph-name="thorn.smcp" horiz-adv-x="303" 
d="M70 0v595h18v-122h55q64 0 89.5 -28t25.5 -79v-119q0 -51 -26 -78.5t-91 -27.5h-53v-141h-18zM88 457v-300h53q56 0 77.5 23t21.5 67v119q0 44 -21 67.5t-76 23.5h-55z" />
    <glyph glyph-name="pdotaccent.smcp" horiz-adv-x="303" 
d="M70 0v595h73q64 0 89.5 -28t25.5 -79v-119q0 -51 -26 -78.5t-91 -27.5h-53v-263h-18zM88 579v-300h53q56 0 77.5 23t21.5 67v119q0 44 -21 67.5t-76 23.5h-55zM136 713h30v-38h-30v38z" />
    <glyph glyph-name="racute.smcp" horiz-adv-x="307" 
d="M70 0v595h73q64 0 89.5 -28t25.5 -79v-117q0 -100 -96 -108l120 -263h-20l-118 263h-56v-263h-18zM88 579v-300h53q55 0 77 24t22 68v117q0 44 -21 67.5t-76 23.5h-55zM197 760h22l-62 -120h-15z" />
    <glyph glyph-name="rcaron.smcp" horiz-adv-x="307" 
d="M70 0v595h73q64 0 89.5 -28t25.5 -79v-117q0 -100 -96 -108l120 -263h-20l-118 263h-56v-263h-18zM88 579v-300h53q55 0 77 24t22 68v117q0 44 -21 67.5t-76 23.5h-55zM164 640h-22l-56 120h16l51 -100l51 100h16z" />
    <glyph glyph-name="rcommaaccent.smcp" horiz-adv-x="307" 
d="M70 0v595h73q64 0 89.5 -28t25.5 -79v-117q0 -100 -96 -108l120 -263h-20l-118 263h-56v-263h-18zM88 579v-300h53q55 0 77 24t22 68v117q0 44 -21 67.5t-76 23.5h-55zM137 -48h33l-17 -122h-16v122z" />
    <glyph glyph-name="sacute.smcp" horiz-adv-x="304" 
d="M249 433h-18v57q0 47 -15.5 72t-62.5 25t-63 -25.5t-16 -71.5v-39q0 -35 13 -60t32.5 -37.5t42 -28t42 -31.5t32.5 -48.5t13 -77.5v-63q0 -54 -19.5 -84t-76.5 -30q-58 0 -77.5 30t-19.5 84v65h18v-65q0 -47 16 -72t63 -25t62 24.5t16 72.5v62q0 44 -13 75t-32.5 45.5
t-42.5 30t-42.5 29t-32 40.5t-12.5 66v37q0 54 19.5 83.5t77.5 29.5q57 0 76.5 -29.5t19.5 -83.5v-57zM200 760h22l-62 -120h-15z" />
    <glyph glyph-name="scircumflex.smcp" horiz-adv-x="304" 
d="M249 433h-18v57q0 47 -15.5 72t-62.5 25t-63 -25.5t-16 -71.5v-39q0 -35 13 -60t32.5 -37.5t42 -28t42 -31.5t32.5 -48.5t13 -77.5v-63q0 -54 -19.5 -84t-76.5 -30q-58 0 -77.5 30t-19.5 84v65h18v-65q0 -47 16 -72t63 -25t62 24.5t16 72.5v62q0 44 -13 75t-32.5 45.5
t-42.5 30t-42.5 29t-32 40.5t-12.5 66v37q0 54 19.5 83.5t77.5 29.5q57 0 76.5 -29.5t19.5 -83.5v-57zM141 760h22l56 -120h-16l-51 100l-51 -100h-16z" />
    <glyph glyph-name="scaron.smcp" horiz-adv-x="304" 
d="M249 433h-18v57q0 47 -15.5 72t-62.5 25t-63 -25.5t-16 -71.5v-39q0 -35 13 -60t32.5 -37.5t42 -28t42 -31.5t32.5 -48.5t13 -77.5v-63q0 -54 -19.5 -84t-76.5 -30q-58 0 -77.5 30t-19.5 84v65h18v-65q0 -47 16 -72t63 -25t62 24.5t16 72.5v62q0 44 -13 75t-32.5 45.5
t-42.5 30t-42.5 29t-32 40.5t-12.5 66v37q0 54 19.5 83.5t77.5 29.5q57 0 76.5 -29.5t19.5 -83.5v-57zM163 640h-22l-56 120h16l51 -100l51 100h16z" />
    <glyph glyph-name="sdotaccent.smcp" horiz-adv-x="304" 
d="M249 433h-18v57q0 47 -15.5 72t-62.5 25t-63 -25.5t-16 -71.5v-39q0 -35 13 -60t32.5 -37.5t42 -28t42 -31.5t32.5 -48.5t13 -77.5v-63q0 -54 -19.5 -84t-76.5 -30q-58 0 -77.5 30t-19.5 84v65h18v-65q0 -47 16 -72t63 -25t62 24.5t16 72.5v62q0 44 -13 75t-32.5 45.5
t-42.5 30t-42.5 29t-32 40.5t-12.5 66v37q0 54 19.5 83.5t77.5 29.5q57 0 76.5 -29.5t19.5 -83.5v-57zM137 713h30v-38h-30v38z" />
    <glyph glyph-name="scedilla.smcp" horiz-adv-x="304" 
d="M127 -61l14 53q-50 3 -67.5 32.5t-17.5 80.5v65h18v-65q0 -47 16 -72t63 -25t62 24.5t16 72.5v62q0 44 -13 75t-32.5 45.5t-42.5 30t-42.5 29t-32 40.5t-12.5 66v37q0 54 19.5 83.5t77.5 29.5q57 0 76.5 -29.5t19.5 -83.5v-57h-18v57q0 47 -15.5 72t-62.5 25t-63 -25.5
t-16 -71.5v-39q0 -35 13 -60t32.5 -37.5t42 -28t42 -31.5t32.5 -48.5t13 -77.5v-63q0 -53 -19 -83t-74 -31l-9 -37q73 -4 73 -62q0 -62 -82 -62h-40l4 16h36q64 0 64 46q0 47 -64 47h-11z" />
    <glyph glyph-name="scommaaccent.smcp" horiz-adv-x="304" 
d="M249 433h-18v57q0 47 -15.5 72t-62.5 25t-63 -25.5t-16 -71.5v-39q0 -35 13 -60t32.5 -37.5t42 -28t42 -31.5t32.5 -48.5t13 -77.5v-63q0 -54 -19.5 -84t-76.5 -30q-58 0 -77.5 30t-19.5 84v65h18v-65q0 -47 16 -72t63 -25t62 24.5t16 72.5v62q0 44 -13 75t-32.5 45.5
t-42.5 30t-42.5 29t-32 40.5t-12.5 66v37q0 54 19.5 83.5t77.5 29.5q57 0 76.5 -29.5t19.5 -83.5v-57zM135 -48h33l-17 -122h-16v122z" />
    <glyph glyph-name="germandbls.smcp" horiz-adv-x="608" 
d="M249 433h-18v57q0 47 -15.5 72t-62.5 25t-63 -25.5t-16 -71.5v-39q0 -35 13 -60t32.5 -37.5t42 -28t42 -31.5t32.5 -48.5t13 -77.5v-63q0 -54 -19.5 -84t-76.5 -30q-58 0 -77.5 30t-19.5 84v65h18v-65q0 -47 16 -72t63 -25t62 24.5t16 72.5v62q0 44 -13 75t-32.5 45.5
t-42.5 30t-42.5 29t-32 40.5t-12.5 66v37q0 54 19.5 83.5t77.5 29.5q57 0 76.5 -29.5t19.5 -83.5v-57zM553 433h-18v57q0 47 -15.5 72t-62.5 25t-63 -25.5t-16 -71.5v-39q0 -35 13 -60t32.5 -37.5t42 -28t42 -31.5t32.5 -48.5t13 -77.5v-63q0 -54 -19.5 -84t-76.5 -30
q-58 0 -77.5 30t-19.5 84v65h18v-65q0 -47 16 -72t63 -25t62 24.5t16 72.5v62q0 44 -13 75t-32.5 45.5t-42.5 30t-42.5 29t-32 40.5t-12.5 66v37q0 54 19.5 83.5t77.5 29.5q57 0 76.5 -29.5t19.5 -83.5v-57z" />
    <glyph glyph-name="tcaron.smcp" horiz-adv-x="252" 
d="M135 579v-579h-18v579h-87v16h192v-16h-87zM137 640h-22l-56 120h16l51 -100l51 100h16z" />
    <glyph glyph-name="tdotaccent.smcp" horiz-adv-x="252" 
d="M135 579v-579h-18v579h-87v16h192v-16h-87zM111 713h30v-38h-30v38z" />
    <glyph glyph-name="tcommaaccent.smcp" horiz-adv-x="252" 
d="M135 579v-579h-18v579h-87v16h192v-16h-87zM109 -48h33l-17 -122h-16v122z" />
    <glyph glyph-name="tbar.smcp" horiz-adv-x="252" 
d="M51 287v16h66v276h-87v16h192v-16h-87v-276h66v-16h-66v-287h-18v287h-66z" />
    <glyph glyph-name="uacute.smcp" horiz-adv-x="324" 
d="M241 595h18v-488q0 -54 -20 -85t-77 -31t-77 31t-20 85v488h18v-488q0 -47 16 -73t63 -26t63 25.5t16 73.5v488zM213 760h22l-62 -120h-15z" />
    <glyph glyph-name="ugrave.smcp" horiz-adv-x="324" 
d="M241 595h18v-488q0 -54 -20 -85t-77 -31t-77 31t-20 85v488h18v-488q0 -47 16 -73t63 -26t63 25.5t16 73.5v488zM102 760h22l55 -120h-15z" />
    <glyph glyph-name="ucircumflex.smcp" horiz-adv-x="324" 
d="M241 595h18v-488q0 -54 -20 -85t-77 -31t-77 31t-20 85v488h18v-488q0 -47 16 -73t63 -26t63 25.5t16 73.5v488zM151 760h22l56 -120h-16l-51 100l-51 -100h-16z" />
    <glyph glyph-name="udieresis.smcp" horiz-adv-x="324" 
d="M241 595h18v-488q0 -54 -20 -85t-77 -31t-77 31t-20 85v488h18v-488q0 -47 16 -73t63 -26t63 25.5t16 73.5v488zM98 713h30v-38h-30v38zM196 713h30v-38h-30v38z" />
    <glyph glyph-name="utilde.smcp" horiz-adv-x="324" 
d="M241 595h18v-488q0 -54 -20 -85t-77 -31t-77 31t-20 85v488h18v-488q0 -47 16 -73t63 -26t63 25.5t16 73.5v488zM244 712h18q0 -32 -12 -47t-40 -15t-51.5 28t-43.5 28q-22 0 -28.5 -11t-6.5 -35h-18q0 62 52 62q22 0 36.5 -14t27.5 -28t31 -14q22 0 28.5 10.5t6.5 35.5z
" />
    <glyph glyph-name="uring.smcp" horiz-adv-x="324" 
d="M241 595h18v-488q0 -54 -20 -85t-77 -31t-77 31t-20 85v488h18v-488q0 -47 16 -73t63 -26t63 25.5t16 73.5v488zM208 705q0 59 -46 59t-46 -59q0 -58 46 -58t46 58zM226 705q0 -74 -64 -74t-64 74q0 75 64 75t64 -75z" />
    <glyph glyph-name="ubreve.smcp" horiz-adv-x="324" 
d="M241 595h18v-488q0 -54 -20 -85t-77 -31t-77 31t-20 85v488h18v-488q0 -47 16 -73t63 -26t63 25.5t16 73.5v488zM219 726h16q0 -96 -73 -96t-73 96h16q0 -78 57 -78t57 78z" />
    <glyph glyph-name="umacron.smcp" horiz-adv-x="324" 
d="M241 595h18v-488q0 -54 -20 -85t-77 -31t-77 31t-20 85v488h18v-488q0 -47 16 -73t63 -26t63 25.5t16 73.5v488zM77 668v16h170v-16h-170z" />
    <glyph glyph-name="uhungarumlaut.smcp" horiz-adv-x="324" 
d="M241 595h18v-488q0 -54 -20 -85t-77 -31t-77 31t-20 85v488h18v-488q0 -47 16 -73t63 -26t63 25.5t16 73.5v488zM143 760h22l-32 -120h-14zM231 760h22l-42 -120h-14z" />
    <glyph glyph-name="uogonek.smcp" horiz-adv-x="324" 
d="M201 -170h-12q-66 0 -66 59q0 55 48 103q-1 0 -4 -0.5t-5 -0.5q-57 0 -77 31t-20 85v488h18v-488q0 -47 16 -73t63 -26t63 25.5t16 73.5v488h18v-488q0 -99 -65 -113q-23 -20 -38 -48.5t-15 -55.5q0 -25 11.5 -34.5t35.5 -9.5h13v-16z" />
    <glyph glyph-name="wacute.smcp" horiz-adv-x="505" 
d="M254 549l-96 -549h-18l-100 595h20l90 -544l95 544h19l95 -544l89 544h20l-99 -595h-18zM301 760h22l-62 -120h-15z" />
    <glyph glyph-name="wgrave.smcp" horiz-adv-x="505" 
d="M254 549l-96 -549h-18l-100 595h20l90 -544l95 544h19l95 -544l89 544h20l-99 -595h-18zM186 760h22l55 -120h-15z" />
    <glyph glyph-name="wcircumflex.smcp" horiz-adv-x="505" 
d="M254 549l-96 -549h-18l-100 595h20l90 -544l95 544h19l95 -544l89 544h20l-99 -595h-18zM241 760h22l56 -120h-16l-51 100l-51 -100h-16z" />
    <glyph glyph-name="wdieresis.smcp" horiz-adv-x="505" 
d="M254 549l-96 -549h-18l-100 595h20l90 -544l95 544h19l95 -544l89 544h20l-99 -595h-18zM188 713h30v-38h-30v38zM286 713h30v-38h-30v38z" />
    <glyph glyph-name="yacute.smcp" horiz-adv-x="283" 
d="M151 0h-18v263l-104 332h19l94 -309l94 309h19l-104 -332v-263zM193 760h22l-62 -120h-15z" />
    <glyph glyph-name="ygrave.smcp" horiz-adv-x="283" 
d="M151 0h-18v263l-104 332h19l94 -309l94 309h19l-104 -332v-263zM76 760h22l55 -120h-15z" />
    <glyph glyph-name="ycircumflex.smcp" horiz-adv-x="283" 
d="M151 0h-18v263l-104 332h19l94 -309l94 309h19l-104 -332v-263zM130 760h22l56 -120h-16l-51 100l-51 -100h-16z" />
    <glyph glyph-name="ydieresis.smcp" horiz-adv-x="283" 
d="M151 0h-18v263l-104 332h19l94 -309l94 309h19l-104 -332v-263zM77 713h30v-38h-30v38zM175 713h30v-38h-30v38z" />
    <glyph glyph-name="zacute.smcp" horiz-adv-x="259" 
d="M219 0h-179v10l159 569h-156v16h176v-11l-158 -568h158v-16zM178 760h22l-62 -120h-15z" />
    <glyph glyph-name="zcaron.smcp" horiz-adv-x="259" 
d="M219 0h-179v10l159 569h-156v16h176v-11l-158 -568h158v-16zM140 640h-22l-56 120h16l51 -100l51 100h16z" />
    <glyph glyph-name="zdotaccent.smcp" horiz-adv-x="259" 
d="M219 0h-179v10l159 569h-156v16h176v-11l-158 -568h158v-16zM114 713h30v-38h-30v38z" />
    </font>
</defs>
</svg>
