<?xml version="1.0" standalone="no"?>
<!DOCTYPE svg PUBLIC "-//W3C//DTD SVG 1.1//EN" "http://www.w3.org/Graphics/SVG/1.1/DTD/svg11.dtd" >
<svg xmlns="http://www.w3.org/2000/svg" xmlns:xlink="http://www.w3.org/1999/xlink" version="1.1">
<metadata>
Created by FontForge 20161003 at Thu Jul 19 08:53:22 2018
 By www-data
Copyright (c) 2008 by Silas Dilworth. All rights reserved.
</metadata>
<defs>
<font id="HeroicCondensedHeavyOblique" horiz-adv-x="337" >
  <font-face 
    font-family="HeroicCondensedHeavyOblique"
    font-weight="400"
    font-style="oblique"
    font-stretch="normal"
    units-per-em="1000"
    panose-1="2 0 5 6 5 0 0 2 0 4"
    ascent="750"
    descent="-250"
    x-height="500"
    cap-height="700"
    bbox="-105 -210 644.441 896"
    underline-thickness="50"
    underline-position="-150"
    unicode-range="U+0020-2265"
  />
<missing-glyph horiz-adv-x="200" 
 />
    <glyph glyph-name=".notdef" horiz-adv-x="200" 
 />
    <glyph glyph-name=".null" horiz-adv-x="0" 
 />
    <glyph glyph-name="nonmarkingreturn" horiz-adv-x="333" 
 />
    <glyph glyph-name="space" unicode=" " horiz-adv-x="170" 
 />
    <glyph glyph-name="exclam" unicode="!" horiz-adv-x="211" 
d="M91 700h126l-94 -480h-74zM21 114h102l-16 -114h-102z" />
    <glyph glyph-name="quotedbl" unicode="&#x22;" horiz-adv-x="302" 
d="M78 710h108l-52 -225h-66zM203 710h108l-52 -225h-66z" />
    <glyph glyph-name="numbersign" unicode="#" horiz-adv-x="347" 
d="M326 700l-28 -142h47l-9 -61h-50l-28 -144h48l-8 -61h-52l-27 -142h-68l27 142h-43l-27 -142h-68l27 142h-46l8 61h50l28 144h-48l9 61h51l28 142h68l-28 -142h43l28 142h68zM175 497l-28 -144h43l28 144h-43z" />
    <glyph glyph-name="dollar" unicode="$" horiz-adv-x="349" 
d="M140 276l-8 -60q-4 -27 19 -27t27 27l5 40q4 29 -8 49.5t-31.5 34.5t-38.5 30t-30 45.5t-5 71.5l2 17q14 103 109 115l12 81h63l-12 -81q89 -13 74 -116l-6 -47h-100l6 49q4 28 -19 28t-26 -27l-3 -21q-4 -27 8.5 -47t32 -34t38.5 -29.5t30 -44.5t5 -70l-6 -43
q-14 -100 -106 -114l-14 -103h-63l14 102q-50 6 -67 35t-10 80l8 59h100z" />
    <glyph glyph-name="percent" unicode="%" horiz-adv-x="429" 
d="M437 700l-378 -700h-69l378 700h69zM165 710q47 0 63 -24.5t9 -74.5l-12 -90q-7 -50 -29.5 -74t-70.5 -24t-63.5 24t-8.5 74l12 90q7 50 30 74.5t70 24.5zM134 490q19 0 23 30l13 92q3 31 -14 31q-19 0 -22 -31l-13 -92q-4 -30 13 -30zM261 -10q-47 0 -63 24.5t-9 74.5
l13 90q7 50 29.5 74t69.5 24q48 0 64 -24t9 -74l-13 -90q-7 -50 -30 -74.5t-70 -24.5zM292 210q-18 0 -22 -30l-13 -92q-4 -31 14 -31t22 31l13 92q4 30 -14 30z" />
    <glyph glyph-name="ampersand" unicode="&#x26;" horiz-adv-x="393" 
d="M294 0q-49 0 -72 20q-29 -29 -87 -29q-133 0 -115 123l22 162q8 51 58 80q-41 24 -32 80l21 148q8 61 41 93.5t107 32.5t98 -32.5t16 -93.5l-14 -94h-105l14 94q3 29 -22 29q-27 0 -30 -29l-23 -158q-3 -22 19 -22h175l-14 -100h-40l-24 -171q-3 -29 21 -29h15l-14 -104
h-15zM149 88q24 0 29 29l26 187h-28q-22 0 -25 -23l-23 -164q-5 -29 21 -29z" />
    <glyph glyph-name="quotesingle" unicode="'" horiz-adv-x="165" 
d="M78 710h108l-52 -225h-66z" />
    <glyph glyph-name="parenleft" unicode="(" horiz-adv-x="255" 
d="M157 -30h-77q-64 187 -37 379t144 381h77q-107 -190 -134 -381q-27 -188 27 -379z" />
    <glyph glyph-name="parenright" unicode=")" horiz-adv-x="255" 
d="M66 -30h-77q108 190 135 379q26 186 -28 381h77q64 -190 38 -381q-27 -189 -145 -379z" />
    <glyph glyph-name="asterisk" unicode="*" horiz-adv-x="343" 
d="M215 584l119 73l15 -89q-24 -2 -71.5 -3.5t-60.5 -2.5q11 -10 43.5 -37.5t48.5 -42.5l-83 -55q-25 110 -27 122l-17.5 -35t-24 -47t-19.5 -40l-70 55q12 8 54.5 37.5t59.5 42.5q-13 1 -59.5 2.5t-69.5 3.5l41 89l99 -73q-3 14 -19 126h94q-8 -18 -27 -63.5t-26 -62.5z
" />
    <glyph glyph-name="plus" unicode="+" horiz-adv-x="392" 
d="M33 242l10 76h107l15 107h76l-15 -107h107l-10 -76h-107l-16 -107h-76l16 107h-107z" />
    <glyph glyph-name="comma" unicode="," horiz-adv-x="168" 
d="M0 114h106l-73 -202h-62z" />
    <glyph glyph-name="hyphen" unicode="-" horiz-adv-x="237" 
d="M18 242l10 76h170l-10 -76h-170z" />
    <glyph glyph-name="period" unicode="." horiz-adv-x="167" 
d="M-1 114h102l-16 -114h-102z" />
    <glyph glyph-name="slash" unicode="/" horiz-adv-x="285" 
d="M-31 -30l267 760h78l-267 -760h-78z" />
    <glyph glyph-name="zero" unicode="0" horiz-adv-x="359" 
d="M142 87q28 0 32 31l65 465q5 30 -23 30t-33 -30l-65 -465q-4 -31 24 -31zM128 -10q-75 0 -100.5 33.5t-17.5 93.5l65 466q9 60 44 93.5t110 33.5q137 0 118 -127l-65 -466q-17 -127 -154 -127z" />
    <glyph glyph-name="one" unicode="1" horiz-adv-x="287" 
d="M246 700l-84 -598h61l-14 -102h-230l14 102h61l64 458h-57l11 75q38 0 59 18.5t25 46.5h90z" />
    <glyph glyph-name="two" unicode="2" horiz-adv-x="336" 
d="M336 584l-12 -81q-8 -59 -30.5 -102.5t-49.5 -71.5t-54 -54.5t-49 -67t-29 -93.5l-2 -12h162l-14 -102h-270l14 103q10 71 33.5 122.5t51 81t54 55t47.5 60t28 79.5l12 83q3 29 -24 29q-29 0 -32 -29l-12 -84h-106l12 84q8 60 42.5 93t108.5 33q75 0 101 -33t18 -93z" />
    <glyph glyph-name="three" unicode="3" horiz-adv-x="352" 
d="M210 426l23 158q3 29 -24 29q-29 0 -32 -29l-12 -84h-106l12 84q8 60 42.5 93t108.5 33q75 0 100 -33t17 -93l-21 -148q-9 -58 -58 -80q46 -25 37 -80l-22 -160q-17 -126 -154 -126q-74 0 -99 33t-17 93l13 94h106l-13 -92q-4 -31 24 -31t32 30l23 164q3 23 -19 23h-42
l14 100h42q22 0 25 22z" />
    <glyph glyph-name="four" unicode="4" horiz-adv-x="335" 
d="M120 0l19 139h-151l15 109l168 452h153l-65 -463h41l-14 -98h-41l-19 -139h-106zM87 237h66l16 117q19 135 37 237z" />
    <glyph glyph-name="five" unicode="5" horiz-adv-x="347" 
d="M167 117l28 198q3 22 -19 22q-25 0 -48 -21h-88l73 384h234l-14 -102h-140l-34 -182q26 11 50 11q57 0 79.5 -26.5t14.5 -84.5l-28 -200q-17 -126 -154 -126q-74 0 -99 33t-17 93l13 94h106l-13 -92q-4 -31 24 -31t32 30z" />
    <glyph glyph-name="six" unicode="6" horiz-adv-x="359" 
d="M217 613q-29 0 -33 -29l-27 -189q25 14 59 14q107 0 91 -114l-25 -177q-18 -128 -154 -128t-118 128l65 465q18 127 154 127q134 0 116 -127l-11 -83h-106l12 84q4 29 -23 29zM142 287l-24 -171q-5 -29 24 -29q27 0 32 29l24 171q3 29 -24 29q-29 0 -32 -29z" />
    <glyph glyph-name="seven" unicode="7" horiz-adv-x="284" 
d="M147 0h-119q48 343 170 598h-145l14 102h247l-12 -84q-70 -173 -96.5 -279.5t-58.5 -336.5z" />
    <glyph glyph-name="eight" unicode="8" horiz-adv-x="359" 
d="M128 -10q-75 0 -100.5 33t-17.5 93l22 160q9 56 61 80q-45 23 -36 80l21 148q8 60 42.5 93t108.5 33q75 0 100 -33t17 -93l-21 -148q-9 -58 -58 -80q46 -25 37 -80l-22 -160q-17 -126 -154 -126zM184 584l-22 -156q-5 -29 24 -29q27 0 32 29l22 156q3 29 -24 29
q-29 0 -32 -29zM141 281l-23 -165q-5 -29 24 -29q27 0 32 29l23 165q3 29 -24 29q-29 0 -32 -29z" />
    <glyph glyph-name="nine" unicode="9" horiz-adv-x="359" 
d="M141 87q29 0 33 29l28 199q-24 -14 -59 -14q-107 0 -91 114l23 167q18 128 154 128t118 -128l-65 -465q-18 -127 -154 -127t-118 127l13 93h108l-13 -94q-4 -29 23 -29zM217 423l23 161q3 29 -24 29q-29 0 -32 -29l-23 -161q-3 -29 24 -29q29 0 32 29z" />
    <glyph glyph-name="colon" unicode=":" horiz-adv-x="187" 
d="M9 114h102l-16 -114h-102zM50 411h102l-16 -114h-102z" />
    <glyph glyph-name="semicolon" unicode=";" horiz-adv-x="188" 
d="M10 114h106l-73 -202h-62zM50 411h102l-16 -114h-102z" />
    <glyph glyph-name="less" unicode="&#x3c;" horiz-adv-x="310" 
d="M139 -30l-106 380l213 380h83l-213 -380l106 -380h-83z" />
    <glyph glyph-name="equal" unicode="=" horiz-adv-x="347" 
d="M277 166h-260l11 76h260zM298 318h-260l11 76h260z" />
    <glyph glyph-name="greater" unicode="&#x3e;" horiz-adv-x="310" 
d="M276 350l-214 -380h-83l214 380l-107 380h83z" />
    <glyph glyph-name="question" unicode="?" horiz-adv-x="343" 
d="M218 517l10 67q3 29 -21 29q-26 0 -29 -29l-11 -74h-108l11 77q18 123 150 123q134 0 116 -123l-9 -67q-7 -45 -20 -74.5t-28 -46.5t-31 -34.5t-32.5 -54t-27.5 -90.5h-72q-2 55 6 94.5t22 62.5t29 41t28 43t17 56zM86 114h102l-16 -114h-102z" />
    <glyph glyph-name="at" unicode="@" horiz-adv-x="519" 
d="M270 321l8 57q2 19 -15 19t-19 -19l-5 -30h-72l5 30q12 90 102 90q51 0 68 -23.5t10 -67.5l-46 -329h-44q-1 2 -4.5 7t-6.5 8q-20 -26 -53 -26q-78 0 -66 87l11 81q7 48 32 71.5t95 44.5zM218 205l-11 -79q-3 -21 15 -21q17 0 20 21l19 137q-36 -17 -43 -58zM203 -44
q85 0 122.5 43.5t48.5 122.5l36 256q11 79 -13.5 122.5t-110.5 43.5q-45 0 -77 -12.5t-50 -36.5t-28 -51.5t-15 -65.5l-36 -256q-11 -80 13.5 -123t109.5 -43zM194 -110q-119 0 -159 61.5t-24 170.5l36 256q15 110 72.5 171t175.5 61q117 0 158 -61t26 -171l-36 -256
q-16 -109 -73 -170.5t-176 -61.5z" />
    <glyph glyph-name="A" unicode="A" horiz-adv-x="340" 
d="M-31 0l180 700h139l-16 -700h-109l9 136h-65l-29 -136h-109zM152 339l-21 -103h45l7 103q12 174 20 245h-1q-30 -153 -50 -245z" />
    <glyph glyph-name="B" unicode="B" horiz-adv-x="364" 
d="M-1 0l98 700h148q71 0 92.5 -26t12.5 -84l-21 -153q-8 -56 -51 -81q38 -25 31 -84l-21 -151q-9 -60 -38.5 -90.5t-96.5 -30.5h-154zM149 304l-28 -202h38q18 0 21 20l22 159q3 23 -19 23h-34zM191 598l-28 -194h35q21 0 25 24l21 151q3 19 -16 19h-37z" />
    <glyph glyph-name="C" unicode="C" horiz-adv-x="352" 
d="M188 220h106l-14 -102q-8 -61 -43 -94.5t-109 -33.5q-136 0 -118 128l65 464q19 128 154 128q74 0 99.5 -34t16.5 -94l-13 -92h-106l13 92q5 31 -23 31t-33 -31l-65 -463q-5 -32 24 -32q27 0 32 32z" />
    <glyph glyph-name="D" unicode="D" horiz-adv-x="369" 
d="M-1 0l98 700h146q73 0 95.5 -30t12.5 -95l-63 -450q-10 -67 -39.5 -96t-100.5 -29h-149zM191 598l-70 -496h35q21 0 24 22l63 450q4 24 -19 24h-33z" />
    <glyph glyph-name="E" unicode="E" horiz-adv-x="303" 
d="M149 304l-28 -202h113l-14 -102h-221l98 700h221l-14 -102h-113l-28 -194h99l-14 -100h-99z" />
    <glyph glyph-name="F" unicode="F" horiz-adv-x="294" 
d="M107 0h-108l98 700h217l-14 -102h-109l-28 -194h93l-14 -100h-93z" />
    <glyph glyph-name="G" unicode="G" horiz-adv-x="359" 
d="M172 304l14 100h136l-40 -286q-18 -128 -154 -128t-118 128l65 464q19 128 154 128q137 0 118 -128l-13 -92h-108l14 94q3 29 -24 29q-29 0 -32 -29l-66 -465q-5 -32 24 -32q27 0 32 32l26 185h-28z" />
    <glyph glyph-name="H" unicode="H" horiz-adv-x="369" 
d="M149 304l-42 -304h-108l98 700h108l-42 -296h56l42 296h108l-98 -700h-108l42 304h-56z" />
    <glyph glyph-name="I" unicode="I" horiz-adv-x="205" 
d="M-1 0l98 700h108l-98 -700h-108z" />
    <glyph glyph-name="J" unicode="J" horiz-adv-x="333" 
d="M230 700h108l-82 -582q-8 -61 -42.5 -94.5t-108.5 -33.5t-98.5 33.5t-16.5 94.5l14 102h106l-14 -101q-5 -32 22 -32q25 0 30 32z" />
    <glyph glyph-name="K" unicode="K" horiz-adv-x="351" 
d="M205 700l-46 -310l108 310h118l-145 -347l53 -353h-117l-27 318l-42 -318h-108l98 700h108z" />
    <glyph glyph-name="L" unicode="L" horiz-adv-x="265" 
d="M-1 0l98 700h108l-84 -598h90l-14 -102h-198z" />
    <glyph glyph-name="M" unicode="M" horiz-adv-x="503" 
d="M235 700l-4 -488l134 488h141l-98 -700h-101l85 522l-148 -522h-84l-2 522l-61 -522h-101l98 700h141z" />
    <glyph glyph-name="N" unicode="N" horiz-adv-x="386" 
d="M187 0l-38 450q-19 -209 -38 -349l-14 -101h-103l98 700h109l36 -441q11 154 34 318l17 123h103l-98 -700h-106z" />
    <glyph glyph-name="O" unicode="O" horiz-adv-x="359" 
d="M142 87q27 0 32 32l65 463q5 31 -23 31t-33 -31l-65 -463q-5 -32 24 -32zM128 -10q-136 0 -118 128l65 463q18 129 154 129t118 -129l-65 -463q-18 -128 -154 -128z" />
    <glyph glyph-name="P" unicode="P" horiz-adv-x="347" 
d="M-1 0l98 700h153q67 0 87.5 -29.5t12.5 -89.5l-24 -172q-9 -61 -39 -89.5t-98 -28.5h-42l-40 -291h-108zM191 598l-30 -207h35q21 0 25 22l22 161q4 24 -19 24h-33z" />
    <glyph glyph-name="Q" unicode="Q" horiz-adv-x="359" 
d="M188 -92q-55 0 -79.5 20t-20.5 65q-94 16 -78 125l65 464q19 128 154 128q137 0 118 -128l-65 -464q-16 -111 -115 -125q0 -25 30 -25h37l-24 -60h-22zM142 87q27 0 32 32l65 463q5 31 -23 31t-33 -31l-65 -463q-4 -32 24 -32z" />
    <glyph glyph-name="R" unicode="R" horiz-adv-x="357" 
d="M-1 0l98 700h153q67 0 87.5 -29.5t12.5 -89.5l-24 -174q-7 -48 -22.5 -74t-48.5 -37l49 -296h-115l-35 292h-6l-41 -292h-108zM191 598l-30 -207h35q21 0 25 22l22 161q4 24 -19 24h-33z" />
    <glyph glyph-name="S" unicode="S" horiz-adv-x="349" 
d="M127 220l-14 -102q-5 -31 24 -31q27 0 32 31l10 70q7 52 -5 85.5t-33.5 53t-42.5 39.5t-32.5 59t-3.5 98l9 61q17 126 153 126t119 -126l-14 -94h-108l13 93q5 30 -23 30t-33 -30l-8 -57q-6 -44 7 -73t34.5 -46.5t42.5 -39t31.5 -66t1.5 -111.5l-10 -74
q-17 -126 -154 -126q-135 0 -118 126l14 104h108z" />
    <glyph glyph-name="T" unicode="T" horiz-adv-x="297" 
d="M237 598l-84 -598h-108l84 598h-76l14 102h260l-14 -102h-76z" />
    <glyph glyph-name="U" unicode="U" horiz-adv-x="369" 
d="M97 700h108l-82 -583q-4 -30 24 -30t32 30l82 583h108l-82 -584q-17 -126 -154 -126q-75 0 -100.5 33t-17.5 93z" />
    <glyph glyph-name="V" unicode="V" horiz-adv-x="335" 
d="M366 700l-183 -700h-131l14 700h111l-19 -298l-20 -255l52 255l65 298h111z" />
    <glyph glyph-name="W" unicode="W" horiz-adv-x="547" 
d="M295 508l-116 -508h-131l24 700h109l-41 -518l125 518h114l-21 -518l105 518h109l-171 -700h-132z" />
    <glyph glyph-name="X" unicode="X" 
d="M189 499l60 201h116l-136 -336l45 -364h-116l-7 229l-71 -229h-116l147 364l-42 336h116z" />
    <glyph glyph-name="Y" unicode="Y" horiz-adv-x="311" 
d="M160 0h-108l36 257l-26 443h113l-11 -281l69 281h113l-150 -443z" />
    <glyph glyph-name="Z" unicode="Z" horiz-adv-x="304" 
d="M226 0h-239l9 70l190 528h-118l14 102h236l-10 -70l-189 -528h121z" />
    <glyph glyph-name="bracketleft" unicode="[" horiz-adv-x="263" 
d="M-3 -120l119 850h156l-11 -76h-69l-98 -698h69l-10 -76h-156z" />
    <glyph glyph-name="backslash" unicode="\" horiz-adv-x="285" 
d="M154 730l53 -760h-78l-53 760h78z" />
    <glyph glyph-name="bracketright" unicode="]" horiz-adv-x="263" 
d="M252 730l-119 -850h-156l10 76h69l98 698h-69l11 76h156z" />
    <glyph glyph-name="asciicircum" unicode="^" horiz-adv-x="223" 
d="M191 700l19 -200h-63l2 122l-32 -122h-63l74 200h63z" />
    <glyph glyph-name="underscore" unicode="_" horiz-adv-x="357" 
d="M-6 0l10 75h270l-10 -75h-270z" />
    <glyph glyph-name="grave" unicode="`" horiz-adv-x="214" 
d="M95 685h97l1 -135h-60z" />
    <glyph glyph-name="a" unicode="a" horiz-adv-x="317" 
d="M172 327l10 68q4 27 -18 27q-20 0 -24 -27l-5 -39h-100l5 42q17 112 137 112q123 0 107 -116l-55 -394h-57l-14 24q-28 -34 -81 -34q-52 0 -71.5 29t-11.5 89l10 76q7 52 45.5 83t122.5 60zM107 186l-11 -78q-4 -30 17 -30q15 0 20.5 7t8.5 23l20 143q-28 -16 -40 -28
t-15 -37z" />
    <glyph glyph-name="b" unicode="b" horiz-adv-x="332" 
d="M156 105l41 289q4 28 -19 28q-22 0 -27 -26l-41 -291q-3 -27 19 -27q23 0 27 27zM299 395l-40 -287q-9 -61 -36 -89.5t-79 -28.5q-56 0 -73 34l-20 -24h-57l99 710h102l-31 -220q25 20 57 20q53 0 70 -27t8 -88z" />
    <glyph glyph-name="c" unicode="c" horiz-adv-x="319" 
d="M162 182h99l-10 -74q-8 -58 -39 -88t-100 -30q-70 0 -93 30.5t-15 87.5l40 285q8 57 40.5 87t100.5 30q67 0 90.5 -30t15.5 -87l-9 -65h-99l9 67q4 27 -19 27t-27 -27l-41 -290q-4 -27 19 -27t27 27z" />
    <glyph glyph-name="d" unicode="d" horiz-adv-x="327" 
d="M146 394l-41 -289q-4 -27 19 -27q24 0 27 27l41 291q5 26 -19 26q-23 0 -27 -28zM3 106l41 290q9 61 32.5 87.5t75.5 26.5q35 0 53 -20l31 220h102l-99 -710h-57l-14 24q-26 -34 -85 -34q-52 0 -70 27.5t-10 88.5z" />
    <glyph glyph-name="e" unicode="e" horiz-adv-x="324" 
d="M123 234l-18 -129q-4 -27 19 -27t27 27l11 77h99l-10 -72q-8 -58 -39 -89t-100 -31q-70 0 -93 31t-15 89l39 281q17 119 142 119q67 0 90 -31t15 -88l-22 -157h-145zM146 395l-12 -85h46l12 85q4 27 -19 27t-27 -27z" />
    <glyph glyph-name="f" unicode="f" horiz-adv-x="240" 
d="M237 720q23 0 45 -8l-13 -88q-18 8 -41 8q-31 0 -34 -34l-14 -98h61l-13 -90h-61l-57 -410h-102l57 410h-44l13 90h44l14 98q9 62 41.5 92t103.5 30z" />
    <glyph glyph-name="g" unicode="g" horiz-adv-x="318" 
d="M121 109q-33 0 -37 -25q-3 -26 30 -26q73 0 99 -28.5t19 -82.5v-3q-7 -51 -43.5 -82.5t-105.5 -31.5q-70 0 -97.5 31t-20.5 83v3q10 67 63 95q-22 16 -19 41q5 28 35 42q-42 26 -32 99l24 168q15 118 141 118q25 0 47 -5q29 60 82 60q19 0 27 -3l-10 -76q-18 6 -35 6
q-16 0 -26 -7q32 -29 24 -93l-24 -168q-8 -56 -40.5 -85.5t-100.5 -29.5zM165 422q-23 0 -27 -29l-26 -180q-4 -30 19 -30t27 30l26 180q4 29 -19 29zM106 -4q-35 0 -40 -35v-2q-6 -38 29 -38t40 38v2q6 35 -29 35z" />
    <glyph glyph-name="h" unicode="h" horiz-adv-x="327" 
d="M239 0h-102l55 394q4 28 -19 28q-22 0 -27 -26l-55 -396h-102l99 710h102l-31 -220q25 20 57 20q53 0 70 -27t8 -88z" />
    <glyph glyph-name="i" unicode="i" horiz-adv-x="179" 
d="M59 500h102l-70 -500h-102zM82 666h102l-16 -114h-102z" />
    <glyph glyph-name="j" unicode="j" horiz-adv-x="179" 
d="M161 500l-77 -548q-9 -62 -41.5 -92t-102.5 -30q-24 0 -45 8l12 88q18 -8 41 -8q29 0 34 34l77 548h102zM82 666h102l-16 -114h-102z" />
    <glyph glyph-name="k" unicode="k" horiz-adv-x="322" 
d="M195 710l-58 -416l81 206h111l-113 -243l53 -257h-112l-31 215l-30 -215h-102l99 710h102z" />
    <glyph glyph-name="l" unicode="l" horiz-adv-x="179" 
d="M88 710h102l-99 -710h-102z" />
    <glyph glyph-name="m" unicode="m" horiz-adv-x="475" 
d="M239 0h-102l55 396q3 26 -19 26q-24 0 -27 -26l-55 -396h-102l70 500h57l13 -24q32 34 85 34q47 0 68 -29q32 29 78 29q52 0 71 -27.5t11 -88.5l-55 -394h-102l55 395q4 27 -19 27q-24 0 -27 -27z" />
    <glyph glyph-name="n" unicode="n" 
d="M244 0h-102l55 395q4 27 -19 27q-24 0 -27 -27l-55 -395h-102l70 500h57l13 -24q32 34 87 34q52 0 69 -27.5t9 -88.5z" />
    <glyph glyph-name="o" unicode="o" horiz-adv-x="327" 
d="M124 78q23 0 27 27l41 290q4 27 -19 27t-27 -27l-41 -290q-4 -27 19 -27zM112 -10q-70 0 -93 30.5t-15 87.5l40 285q8 57 40.5 87t100.5 30t92.5 -30.5t16.5 -86.5l-40 -285q-8 -57 -40 -87.5t-102 -30.5z" />
    <glyph glyph-name="p" unicode="p" 
d="M156 106l41 289q4 27 -19 27q-24 0 -27 -27l-41 -291q-3 -26 19 -26q24 0 27 28zM299 392l-41 -287q-9 -61 -33 -88t-77 -27q-33 0 -51 20l-24 -170h-102l93 660h57l13 -24q26 34 83 34q52 0 71 -28.5t11 -89.5z" />
    <glyph glyph-name="q" unicode="q" horiz-adv-x="332" 
d="M141 395l-41 -289q-3 -28 19 -28q24 0 27 26l41 291q3 27 -19 27q-23 0 -27 -27zM-2 105l41 287q8 61 35 89.5t79 28.5q56 0 73 -34l21 24h57l-93 -660h-102l24 170q-25 -20 -57 -20q-53 0 -70 27t-8 88z" />
    <glyph glyph-name="r" unicode="r" horiz-adv-x="234" 
d="M233 517l-15 -108q-68 11 -78 -57l-49 -352h-102l70 500h57l13 -24q39 41 104 41z" />
    <glyph glyph-name="s" unicode="s" horiz-adv-x="308" 
d="M102 164l-9 -59q-4 -27 19 -27t27 27l6 40q4 29 -8 49.5t-31.5 34.5t-39 30t-30.5 45.5t-5 71.5l3 17q16 117 139 117q67 0 91 -30t16 -88l-7 -46h-100l7 48q4 28 -19 28t-27 -27l-3 -21q-4 -27 8.5 -47t32 -34t38.5 -29.5t30 -44.5t5 -70l-6 -43q-8 -58 -40.5 -87
t-99.5 -29t-90.5 29t-15.5 87l9 58h100z" />
    <glyph glyph-name="t" unicode="t" horiz-adv-x="252" 
d="M103 627l106 28l-22 -155h67l-13 -90h-67l-42 -303q-4 -29 21 -29q19 0 43 9l-12 -87q-22 -10 -49 -10q-70 0 -92 29t-13 88l42 303h-51l13 90h51z" />
    <glyph glyph-name="u" unicode="u" 
d="M64 500h102l-56 -395q-4 -27 19 -27q24 0 27 27l56 395h102l-70 -500h-57l-14 24q-26 -34 -85 -34q-52 0 -70 27.5t-10 88.5z" />
    <glyph glyph-name="v" unicode="v" horiz-adv-x="311" 
d="M315 500l-152 -500h-114l-12 500h106l-19 -369l85 369h106z" />
    <glyph glyph-name="w" unicode="w" horiz-adv-x="484" 
d="M228 0l12 344l-83 -344h-121l-2 500h104l-22 -374l94 374h104l-12 -374l84 374h105l-143 -500h-120z" />
    <glyph glyph-name="x" unicode="x" horiz-adv-x="308" 
d="M315 500l-126 -248l61 -252h-106l-20 144l-60 -144h-105l129 252l-54 248h105l15 -140l55 140h106z" />
    <glyph glyph-name="y" unicode="y" horiz-adv-x="299" 
d="M-15 -170q-28 0 -44 8l11 89q24 -8 44 -8q30 0 42 42l12 39l-16 500h105l-16 -330l78 330h105l-167 -541q-22 -71 -55.5 -100t-98.5 -29z" />
    <glyph glyph-name="z" unicode="z" horiz-adv-x="259" 
d="M186 0h-212l9 68l149 338h-99l13 94h207l-10 -68l-146 -338h102z" />
    <glyph glyph-name="braceleft" unicode="{" horiz-adv-x="271" 
d="M104 231q2 18 -6.5 27t-31.5 9h-35l11 76h35q42 0 48 36q8 61 -7 135t-8 121q13 95 142 95h28l-11 -76h-27q-23 0 -32.5 -8.5t-12.5 -31.5q-5 -35 1 -110.5t0 -118.5q-9 -61 -49 -80q34 -20 26 -80q-6 -43 -33 -118.5t-32 -110.5q-4 -24 3.5 -32t30.5 -8h27l-10 -76h-28
q-65 0 -94 22.5t-22 72.5q7 46 43 120.5t44 135.5z" />
    <glyph glyph-name="bar" unicode="|" horiz-adv-x="205" 
d="M-3 -120l119 850h78l-119 -850h-78z" />
    <glyph glyph-name="braceright" unicode="}" horiz-adv-x="271" 
d="M132 231q-8 -61 7 -135t8 -121q-14 -95 -142 -95h-28l10 76h27q23 0 32.5 8t13.5 32q5 34 -1 110t0 119q8 58 48 80q-34 20 -25 80q6 43 33 118.5t32 110.5q3 23 -4.5 31.5t-30.5 8.5h-27l11 76h28q65 0 94 -22.5t22 -72.5q-7 -46 -43 -120.5t-44 -135.5q-3 -18 6 -27
t32 -9h35l-11 -76h-35q-44 0 -48 -36z" />
    <glyph glyph-name="asciitilde" unicode="~" horiz-adv-x="312" 
d="M231 608q-28 0 -50.5 17.5t-35.5 17.5q-17 0 -22 -25h-51q7 50 24.5 71t54.5 21q29 0 51 -17.5t35 -17.5q19 0 22 25h51q-7 -50 -24.5 -71t-54.5 -21z" />
    <glyph glyph-name="nbspace" unicode="&#xa0;" horiz-adv-x="80" 
 />
    <glyph glyph-name="exclamdown" unicode="&#xa1;" horiz-adv-x="211" 
d="M90 -200h-126l94 480h74zM75 500h102l-16 -114h-102z" />
    <glyph glyph-name="cent" unicode="&#xa2;" horiz-adv-x="354" 
d="M193 292h99l-11 -74q-7 -51 -31.5 -80.5t-75.5 -35.5l-14 -102h-63l14 102q-51 6 -67.5 35.5t-9.5 80.5l40 285q15 102 109 115l12 82h63l-12 -82q90 -13 75 -115l-9 -65h-99l9 67q5 27 -19 27q-22 0 -27 -27l-40 -290q-4 -27 19 -27t27 27z" />
    <glyph glyph-name="sterling" unicode="&#xa3;" horiz-adv-x="377" 
d="M27 325l8 58h37l29 202q17 125 151 125q67 0 94.5 -34t19.5 -91l-11 -75h-105l11 75q3 28 -22 28q-12 0 -20 -8t-10 -20l-29 -202h68l-8 -58h-68l-27 -193q-4 -30 28 -30h125l-14 -102h-129q-58 0 -81 33q-32 -33 -90 -33l14 102q34 0 39 30l27 193h-37z" />
    <glyph glyph-name="currency" unicode="&#xa4;" horiz-adv-x="324" 
d="M140 125q-13 0 -19 1l-44 -126h-98l64 162q-19 29 -11 84l32 230q8 54 35 82l-17 142h98l8 -105q3 0 9 0.5t9 0.5t9 -0.5t8 -0.5l39 105h98l-58 -142q20 -30 12 -82l-32 -230q-8 -56 -35 -84l20 -162h-98l-11 126q-6 -1 -18 -1zM152 213q23 0 27 27l34 241q4 27 -19 27
t-27 -27l-34 -241q-4 -27 19 -27z" />
    <glyph glyph-name="yen" unicode="&#xa5;" horiz-adv-x="348" 
d="M178 0h-108l15 112h-65l8 54h65l7 49h-65l7 54h65q-4 72 -12.5 215.5t-12.5 215.5h113q-2 -47 -6.5 -139t-5.5 -138l66 277h114q-24 -72 -73.5 -215.5t-74.5 -215.5h67l-7 -54h-67l-7 -49h67l-8 -54h-67z" />
    <glyph glyph-name="brokenbar" unicode="&#xa6;" horiz-adv-x="205" 
d="M-3 -120l53 378h78l-53 -378h-78zM63 352l53 378h78l-53 -378h-78z" />
    <glyph glyph-name="section" unicode="&#xa7;" horiz-adv-x="342" 
d="M158 175q14 17 18 48l5 39q11 72 -23 100q-13 -17 -17 -48l-6 -39q-9 -72 23 -100zM26 268l7 47q8 65 59 102q-38 49 -27 129l5 35q18 129 150 129t114 -129l-8 -61h-108l9 65q4 28 -20 28t-28 -28l-6 -41q-5 -35 3.5 -56.5t24.5 -30.5t34.5 -21t34 -27.5t22 -49.5
t-0.5 -87l-7 -47q-8 -65 -58 -102q37 -47 26 -129l-5 -35q-18 -129 -150 -129t-114 129l8 61h108l-9 -65q-4 -28 20 -28t28 28l6 41q5 35 -3.5 56.5t-24.5 30.5t-34.5 21t-34 27.5t-22 49.5t0.5 87z" />
    <glyph glyph-name="dieresis" unicode="&#xa8;" horiz-adv-x="295" 
d="M91 658h84l-15 -106h-84zM205 658h84l-15 -106h-84z" />
    <glyph glyph-name="copyright" unicode="&#xa9;" horiz-adv-x="531" 
d="M245 199q19 0 21 21l11 72h71l-10 -66q-6 -44 -29 -68t-73 -24q-51 0 -67.5 24t-10.5 69l35 246q7 45 30 69t74 24q50 0 66.5 -24t9.5 -68l-8 -55h-71l9 62q3 20 -15 20q-19 0 -21 -20l-37 -262q-2 -20 15 -20zM223 56q85 0 122.5 43.5t48.5 122.5l36 256
q11 79 -13.5 122.5t-110.5 43.5q-45 0 -77 -12.5t-50 -36.5t-28 -51.5t-15 -65.5l-36 -256q-11 -80 13.5 -123t109.5 -43zM214 -10q-119 0 -159 61.5t-24 170.5l36 256q16 110 73 171t175 61q217 0 184 -232l-36 -256q-16 -109 -73 -170.5t-176 -61.5z" />
    <glyph glyph-name="ordfeminine" unicode="&#xaa;" horiz-adv-x="274" 
d="M206 184h-177l9 61h177zM185 563l8 57q2 19 -15 19t-19 -19l-5 -30h-75l5 30q12 90 104 90q51 0 68.5 -23.5t10.5 -67.5l-46 -329h-44q-1 2 -4.5 7t-6.5 8q-20 -26 -53 -26q-78 0 -66 87l11 81q7 48 32 71.5t95 44.5zM133 447l-11 -79q-3 -21 15 -21q17 0 20 21l19 137
q-36 -17 -43 -58z" />
    <glyph glyph-name="guillemotleft" unicode="&#xab;" horiz-adv-x="414" 
d="M19 250l131 185h95l-128 -185l76 -185h-95zM166 250l131 185h95l-128 -185l76 -185h-95z" />
    <glyph glyph-name="logicalnot" unicode="&#xac;" horiz-adv-x="347" 
d="M206 196l13 92h-185l11 76h260l-24 -168h-75z" />
    <glyph glyph-name="uni00AD" unicode="&#xad;" horiz-adv-x="237" 
d="M18 242l10 76h170l-10 -76h-170z" />
    <glyph glyph-name="registered" unicode="&#xae;" horiz-adv-x="531" 
d="M374 477l-13 -91q-9 -61 -50 -72l42 -173h-76l-34 168h-2l-24 -168h-71l59 420h98q47 0 62 -21.5t9 -62.5zM267 492l-17 -122h24q15 0 18 17l12 87q3 18 -13 18h-24zM223 56q85 0 122.5 43.5t48.5 122.5l36 256q11 79 -13.5 122.5t-110.5 43.5q-45 0 -77 -12.5t-50 -36.5
t-28 -51.5t-15 -65.5l-36 -256q-11 -80 13.5 -123t109.5 -43zM214 -10q-119 0 -159 61.5t-24 170.5l36 256q16 110 73 171t175 61q217 0 184 -232l-36 -256q-16 -109 -73 -170.5t-176 -61.5z" />
    <glyph glyph-name="macron" unicode="&#xaf;" horiz-adv-x="267" 
d="M76 552l11 76h170l-11 -76h-170z" />
    <glyph glyph-name="degree" unicode="&#xb0;" horiz-adv-x="233" 
d="M146 494q-53 0 -69 27.5t-9 80.5t31 80.5t77 27.5t69 -27.5t9 -80.5t-31 -80.5t-77 -27.5zM154 553q30 0 37 49t-23 49t-37 -49t23 -49z" />
    <glyph glyph-name="plusminus" unicode="&#xb1;" horiz-adv-x="392" 
d="M22 166h290l-11 -76h-290zM41 300l10 76h107l15 107h76l-15 -107h107l-10 -76h-107l-15 -107h-76l15 107h-107z" />
    <glyph glyph-name="acute" unicode="&#xb4;" horiz-adv-x="214" 
d="M115 685h97l-76 -135h-60z" />
    <glyph glyph-name="mu" unicode="&#xb5;" 
d="M212 500h102l-56 -395q-9 -61 -33 -88t-77 -27q-33 0 -51 20l-24 -170h-102l93 660h102l-56 -396q-3 -26 19 -26q24 0 27 28z" />
    <glyph glyph-name="mu" unicode="&#x3bc;" 
d="M212 500h102l-56 -395q-9 -61 -33 -88t-77 -27q-33 0 -51 20l-24 -170h-102l93 660h102l-56 -396q-3 -26 19 -26q24 0 27 28z" />
    <glyph glyph-name="paragraph" unicode="&#xb6;" horiz-adv-x="388" 
d="M383 700l-121 -860h-108l49 350h-61q-68 0 -90.5 30t-14.5 89l38 270q8 59 38.5 90t98.5 31h171z" />
    <glyph glyph-name="periodcentered" unicode="&#xb7;" horiz-adv-x="187" 
d="M40 337h102l-16 -114h-102z" />
    <glyph glyph-name="cedilla" unicode="&#xb8;" horiz-adv-x="242" 
d="M12 -81l35 81h51l-16 -39q55 -11 47 -62q-4 -33 -25 -51t-71 -18h-58l24 61h29q20 0 21 14q1 7 -2.5 10.5t-14.5 3.5h-20z" />
    <glyph glyph-name="ordmasculine" unicode="&#xba;" horiz-adv-x="269" 
d="M267 619l-35 -250q-12 -90 -104 -90t-79 91l35 250q12 90 104 90t79 -91zM201 184h-174l9 61h174zM159 620l-36 -251q-2 -19 15 -19t19 19l36 251q2 19 -15 19t-19 -19z" />
    <glyph glyph-name="guillemotright" unicode="&#xbb;" horiz-adv-x="414" 
d="M287 435l79 -185l-131 -185h-95l128 185l-76 185h95zM140 435l79 -185l-131 -185h-95l128 185l-76 185h95z" />
    <glyph glyph-name="onequarter" unicode="&#xbc;" horiz-adv-x="222" 
d="M183 700l-35 -251h25l-6 -43h-96l6 43h25l27 192h-24l4 32q32 0 36 27h38zM62 0l8 57h-63l6 45l72 192h64l-28 -195h17l-5 -42h-17l-8 -57h-46zM49 99h26l9 62q2 17 7.5 46t7.5 41zM45 368h135l-5 -37h-135z" />
    <glyph glyph-name="onehalf" unicode="&#xbd;" horiz-adv-x="222" 
d="M45 368h135l-5 -37h-135zM153 245l-5 -34q-4 -30 -17.5 -51.5t-27.5 -33t-27.5 -31.5t-17.5 -47v-5h69l-6 -43h-114l6 43q5 36 19 61.5t27.5 36.5t26.5 28.5t16 40.5l5 35q2 12 -9 12q-12 0 -14 -12l-5 -35h-45l5 35q7 53 64 53t50 -53zM183 700l-35 -251h25l-6 -43h-96
l6 43h25l27 192h-24l4 32q32 0 36 27h38z" />
    <glyph glyph-name="threequarters" unicode="&#xbe;" horiz-adv-x="222" 
d="M62 0l8 57h-63l6 45l72 192h64l-28 -195h17l-5 -42h-17l-8 -57h-46zM49 99h26l9 62q2 17 7.5 46t7.5 41zM45 368h135l-5 -37h-135zM155 585l9 66q2 12 -9 12q-12 0 -14 -12l-5 -35h-45l5 35q7 53 64 53q56 0 49 -53l-9 -62q-3 -24 -24 -33q19 -11 16 -34l-10 -67
q-7 -53 -64 -53q-56 0 -49 53l6 39h44l-5 -38q-3 -13 10 -13q11 0 12 12l10 69q2 10 -7 10h-18l5 42h18q10 0 11 9z" />
    <glyph glyph-name="questiondown" unicode="&#xbf;" horiz-adv-x="343" 
d="M93 -17l-9 -67q-5 -29 21 -29q24 0 29 29l10 74h108l-11 -77q-18 -123 -150 -123q-134 0 -116 123l10 67q6 45 19 74.5t28.5 46.5t31 34.5t32 54t27.5 90.5h72q0 -56 -3 -78q-7 -49 -29 -83t-43 -64.5t-27 -71.5zM226 386h-102l16 114h102z" />
    <glyph glyph-name="Agrave" unicode="&#xc0;" horiz-adv-x="340" 
d="M-31 0l180 700h139l-16 -700h-109l9 136h-65l-29 -136h-109zM152 339l-21 -103h45l7 103q12 174 20 245h-1q-30 -153 -50 -245zM162 885h97l1 -135h-60z" />
    <glyph glyph-name="Aacute" unicode="&#xc1;" horiz-adv-x="340" 
d="M-31 0l180 700h139l-16 -700h-109l9 136h-65l-29 -136h-109zM152 339l-21 -103h45l7 103q12 174 20 245h-1q-30 -153 -50 -245zM229 885h97l-76 -135h-60z" />
    <glyph glyph-name="Acircumflex" unicode="&#xc2;" horiz-adv-x="340" 
d="M-31 0l180 700h139l-16 -700h-109l9 136h-65l-29 -136h-109zM152 339l-21 -103h45l7 103q12 174 20 245h-1q-30 -153 -50 -245zM202 885h82l36 -135h-72l-17 49l-31 -49h-71z" />
    <glyph glyph-name="Atilde" unicode="&#xc3;" horiz-adv-x="340" 
d="M-31 0l180 700h139l-16 -700h-109l9 136h-65l-29 -136h-109zM152 339l-21 -103h45l7 103q12 174 20 245h-1q-30 -153 -50 -245zM273 749q-27 0 -49 16.5t-35 16.5q-17 0 -20 -24h-57q7 55 23 77.5t57 22.5q27 0 48.5 -16.5t34.5 -16.5q18 0 21 24h57q-7 -53 -23.5 -76.5
t-56.5 -23.5z" />
    <glyph glyph-name="Adieresis" unicode="&#xc4;" horiz-adv-x="340" 
d="M-31 0l180 700h139l-16 -700h-109l9 136h-65l-29 -136h-109zM152 339l-21 -103h45l7 103q12 174 20 245h-1q-30 -153 -50 -245zM141 856h84l-15 -106h-84zM255 856h84l-15 -106h-84z" />
    <glyph glyph-name="Aring" unicode="&#xc5;" horiz-adv-x="340" 
d="M-31 0l180 700h139l-16 -700h-109l9 136h-65l-29 -136h-109zM152 339l-21 -103h45l7 103q12 174 20 245h-1q-30 -153 -50 -245zM308 818q-10 -77 -85 -77q-74 0 -64 77q12 78 85 78q76 0 64 -78zM250 818q4 24 -13 24q-15 0 -20 -24q-3 -23 13 -23q17 0 20 23z" />
    <glyph glyph-name="AE" unicode="&#xc6;" horiz-adv-x="485" 
d="M123 136l-42 -136h-112l238 700h290l-14 -102h-110l-28 -194h96l-14 -100h-96l-28 -202h110l-14 -102h-218l19 136h-77zM155 236h59l51 363q-21 -64 -57.5 -187.5t-52.5 -175.5z" />
    <glyph glyph-name="Ccedilla" unicode="&#xc7;" horiz-adv-x="352" 
d="M67 -81l30 73q-103 12 -87 126l65 464q19 128 154 128q74 0 99.5 -34t16.5 -94l-13 -92h-106l13 92q5 31 -23 31t-33 -31l-65 -463q-5 -32 24 -32q27 0 32 32l14 101h106l-14 -102q-16 -118 -132 -127l-11 -30q55 -11 47 -62q-4 -33 -25 -51t-71 -18h-58l24 61h29
q20 0 21 14q1 7 -2.5 10.5t-14.5 3.5h-20z" />
    <glyph glyph-name="Egrave" unicode="&#xc8;" horiz-adv-x="303" 
d="M149 304l-28 -202h113l-14 -102h-221l98 700h221l-14 -102h-113l-28 -194h99l-14 -100h-99zM167 885h97l1 -135h-60z" />
    <glyph glyph-name="Eacute" unicode="&#xc9;" horiz-adv-x="303" 
d="M149 304l-28 -202h113l-14 -102h-221l98 700h221l-14 -102h-113l-28 -194h99l-14 -100h-99zM215 885h97l-76 -135h-60z" />
    <glyph glyph-name="Ecircumflex" unicode="&#xca;" horiz-adv-x="303" 
d="M149 304l-28 -202h113l-14 -102h-221l98 700h221l-14 -102h-113l-28 -194h99l-14 -100h-99zM189 885h82l36 -135h-72l-17 49l-31 -49h-71z" />
    <glyph glyph-name="Edieresis" unicode="&#xcb;" horiz-adv-x="303" 
d="M149 304l-28 -202h113l-14 -102h-221l98 700h221l-14 -102h-113l-28 -194h99l-14 -100h-99zM130 856h84l-15 -106h-84zM244 856h84l-15 -106h-84z" />
    <glyph glyph-name="Igrave" unicode="&#xcc;" horiz-adv-x="205" 
d="M-1 0l98 700h108l-98 -700h-108zM94 885h97l1 -135h-60z" />
    <glyph glyph-name="Iacute" unicode="&#xcd;" horiz-adv-x="205" 
d="M-1 0l98 700h108l-98 -700h-108zM166 885h97l-76 -135h-60z" />
    <glyph glyph-name="Icircumflex" unicode="&#xce;" horiz-adv-x="205" 
d="M-1 0l98 700h108l-98 -700h-108zM135 885h82l36 -135h-72l-17 49l-31 -49h-71z" />
    <glyph glyph-name="Idieresis" unicode="&#xcf;" horiz-adv-x="205" 
d="M-1 0l98 700h108l-98 -700h-108zM74 856h84l-15 -106h-84zM188 856h84l-15 -106h-84z" />
    <glyph glyph-name="Eth" unicode="&#xd0;" horiz-adv-x="369" 
d="M-1 0l44 316h-27l11 76h27l43 308h146q73 0 95.5 -30t12.5 -95l-63 -450q-10 -67 -39.5 -96t-100.5 -29h-149zM191 598l-29 -206h28l-11 -76h-28l-30 -214h35q21 0 24 22l63 450q4 24 -19 24h-33z" />
    <glyph glyph-name="Ntilde" unicode="&#xd1;" horiz-adv-x="386" 
d="M187 0l-38 450q-19 -209 -38 -349l-14 -101h-103l98 700h109l36 -441q11 154 34 318l17 123h103l-98 -700h-106zM296 749q-28 0 -50 16.5t-34 16.5q-17 0 -20 -24h-57q7 55 23 77.5t57 22.5q27 0 48.5 -16.5t34.5 -16.5q18 0 21 24h57q-7 -53 -23.5 -76.5t-56.5 -23.5z
" />
    <glyph glyph-name="Ograve" unicode="&#xd2;" horiz-adv-x="359" 
d="M142 87q27 0 32 32l65 463q5 31 -23 31t-33 -31l-65 -463q-5 -32 24 -32zM128 -10q-136 0 -118 128l65 463q18 129 154 129t118 -129l-65 -463q-18 -128 -154 -128zM166 885h97l1 -135h-60z" />
    <glyph glyph-name="Oacute" unicode="&#xd3;" horiz-adv-x="359" 
d="M142 87q27 0 32 32l65 463q5 31 -23 31t-33 -31l-65 -463q-5 -32 24 -32zM128 -10q-136 0 -118 128l65 463q18 129 154 129t118 -129l-65 -463q-18 -128 -154 -128zM245 885h97l-76 -135h-60z" />
    <glyph glyph-name="Ocircumflex" unicode="&#xd4;" horiz-adv-x="359" 
d="M142 87q27 0 32 32l65 463q5 31 -23 31t-33 -31l-65 -463q-5 -32 24 -32zM128 -10q-136 0 -118 128l65 463q18 129 154 129t118 -129l-65 -463q-18 -128 -154 -128zM212 885h82l36 -135h-72l-17 49l-31 -49h-71z" />
    <glyph glyph-name="Otilde" unicode="&#xd5;" horiz-adv-x="359" 
d="M142 87q27 0 32 32l65 463q5 31 -23 31t-33 -31l-65 -463q-5 -32 24 -32zM128 -10q-136 0 -118 128l65 463q18 129 154 129t118 -129l-65 -463q-18 -128 -154 -128zM282 749q-28 0 -50 16.5t-34 16.5q-17 0 -20 -24h-57q7 55 23 77.5t57 22.5q27 0 48.5 -16.5t34.5 -16.5
q18 0 21 24h57q-7 -53 -23.5 -76.5t-56.5 -23.5z" />
    <glyph glyph-name="Odieresis" unicode="&#xd6;" horiz-adv-x="359" 
d="M142 87q27 0 32 32l65 463q5 31 -23 31t-33 -31l-65 -463q-5 -32 24 -32zM128 -10q-136 0 -118 128l65 463q18 129 154 129t118 -129l-65 -463q-18 -128 -154 -128zM150 856h84l-15 -106h-84zM264 856h84l-15 -106h-84z" />
    <glyph glyph-name="multiply" unicode="&#xd7;" horiz-adv-x="367" 
d="M63 140l-43 50l102 90l-77 89l58 51l77 -90l102 90l43 -51l-102 -89l77 -90l-58 -50l-76 89z" />
    <glyph glyph-name="Oslash" unicode="&#xd8;" horiz-adv-x="359" 
d="M142 87q27 0 32 32l65 463q5 31 -23 31t-33 -31l-65 -463q-5 -32 24 -32zM6 -30l20 56q-24 31 -16 92l65 463q18 129 154 129q19 0 36 -3l8 23h78l-20 -56q24 -31 16 -93l-65 -463q-18 -128 -154 -128q-21 0 -36 3l-8 -23h-78z" />
    <glyph glyph-name="Ugrave" unicode="&#xd9;" horiz-adv-x="369" 
d="M97 700h108l-82 -583q-4 -30 24 -30t32 30l82 583h108l-82 -584q-17 -126 -154 -126q-75 0 -100.5 33t-17.5 93zM168 885h97l1 -135h-60z" />
    <glyph glyph-name="Uacute" unicode="&#xda;" horiz-adv-x="369" 
d="M97 700h108l-82 -583q-4 -30 24 -30t32 30l82 583h108l-82 -584q-17 -126 -154 -126q-75 0 -100.5 33t-17.5 93zM250 885h97l-76 -135h-60z" />
    <glyph glyph-name="Ucircumflex" unicode="&#xdb;" horiz-adv-x="369" 
d="M97 700h108l-82 -583q-4 -30 24 -30t32 30l82 583h108l-82 -584q-17 -126 -154 -126q-75 0 -100.5 33t-17.5 93zM217 885h82l36 -135h-72l-17 49l-31 -49h-71z" />
    <glyph glyph-name="Udieresis" unicode="&#xdc;" horiz-adv-x="369" 
d="M97 700h108l-82 -583q-4 -30 24 -30t32 30l82 583h108l-82 -584q-17 -126 -154 -126q-75 0 -100.5 33t-17.5 93zM155 856h84l-15 -106h-84zM269 856h84l-15 -106h-84z" />
    <glyph glyph-name="Yacute" unicode="&#xdd;" horiz-adv-x="311" 
d="M160 0h-108l36 257l-26 443h113l-11 -281l69 281h113l-150 -443zM220 885h97l-76 -135h-60z" />
    <glyph glyph-name="Thorn" unicode="&#xde;" horiz-adv-x="353" 
d="M-1 0l98 700h108l-20 -141h45q67 0 87.5 -29.5t12.5 -89.5l-24 -172q-9 -61 -38.5 -89.5t-97.5 -28.5h-42l-21 -150h-108zM171 457l-29 -207h35q21 0 24 22l22 161q4 24 -19 24h-33z" />
    <glyph glyph-name="germandbls" unicode="&#xdf;" horiz-adv-x="334" 
d="M107 -8l14 97q6 -2 15 -2q25 0 29 30l29 208q3 23 -19 23h-16l14 100h12q23 0 26 22l17 124q3 29 -24 29q-29 0 -32 -29l-83 -594h-100l83 594q8 61 40 93.5t106 32.5t96 -32t14 -94l-16 -114q-9 -58 -58 -80q50 -21 41 -80l-28 -204q-10 -66 -40 -96t-103 -30
q-7 0 -17 2z" />
    <glyph glyph-name="agrave" unicode="&#xe0;" horiz-adv-x="317" 
d="M172 327l10 68q4 27 -18 27q-20 0 -24 -27l-5 -39h-100l5 42q17 112 137 112q123 0 107 -116l-55 -394h-57l-14 24q-28 -34 -81 -34q-52 0 -71.5 29t-11.5 89l10 76q7 52 45.5 83t122.5 60zM107 186l-11 -78q-4 -30 17 -30q15 0 20.5 7t8.5 23l20 143q-28 -16 -40 -28
t-15 -37zM116 685h97l1 -135h-60z" />
    <glyph glyph-name="aacute" unicode="&#xe1;" horiz-adv-x="317" 
d="M172 327l10 68q4 27 -18 27q-20 0 -24 -27l-5 -39h-100l5 42q17 112 137 112q123 0 107 -116l-55 -394h-57l-14 24q-28 -34 -81 -34q-52 0 -71.5 29t-11.5 89l10 76q7 52 45.5 83t122.5 60zM107 186l-11 -78q-4 -30 17 -30q15 0 20.5 7t8.5 23l20 143q-28 -16 -40 -28
t-15 -37zM186 685h97l-76 -135h-60z" />
    <glyph glyph-name="acircumflex" unicode="&#xe2;" horiz-adv-x="317" 
d="M172 327l10 68q4 27 -18 27q-20 0 -24 -27l-5 -39h-100l5 42q17 112 137 112q123 0 107 -116l-55 -394h-57l-14 24q-28 -34 -81 -34q-52 0 -71.5 29t-11.5 89l10 76q7 52 45.5 83t122.5 60zM107 186l-11 -78q-4 -30 17 -30q15 0 20.5 7t8.5 23l20 143q-28 -16 -40 -28
t-15 -37zM163 687h82l36 -135h-72l-17 49l-31 -49h-71z" />
    <glyph glyph-name="atilde" unicode="&#xe3;" horiz-adv-x="317" 
d="M172 327l10 68q4 27 -18 27q-20 0 -24 -27l-5 -39h-100l5 42q17 112 137 112q123 0 107 -116l-55 -394h-57l-14 24q-28 -34 -81 -34q-52 0 -71.5 29t-11.5 89l10 76q7 52 45.5 83t122.5 60zM107 186l-11 -78q-4 -30 17 -30q15 0 20.5 7t8.5 23l20 143q-28 -16 -40 -28
t-15 -37zM234 549q-28 0 -50 16.5t-34 16.5q-17 0 -20 -24h-57q7 55 23 77.5t57 22.5q27 0 48.5 -16.5t34.5 -16.5q18 0 21 24h57q-8 -54 -24 -77t-56 -23z" />
    <glyph glyph-name="adieresis" unicode="&#xe4;" horiz-adv-x="317" 
d="M172 327l10 68q4 27 -18 27q-20 0 -24 -27l-5 -39h-100l5 42q17 112 137 112q123 0 107 -116l-55 -394h-57l-14 24q-28 -34 -81 -34q-52 0 -71.5 29t-11.5 89l10 76q7 52 45.5 83t122.5 60zM107 186l-11 -78q-4 -30 17 -30q15 0 20.5 7t8.5 23l20 143q-28 -16 -40 -28
t-15 -37zM101 658h84l-15 -106h-84zM215 658h84l-15 -106h-84z" />
    <glyph glyph-name="aring" unicode="&#xe5;" horiz-adv-x="317" 
d="M172 327l10 68q4 27 -18 27q-20 0 -24 -27l-5 -39h-100l5 42q17 112 137 112q123 0 107 -116l-55 -394h-57l-14 24q-28 -34 -81 -34q-52 0 -71.5 29t-11.5 89l10 76q7 52 45.5 83t122.5 60zM107 186l-11 -78q-4 -30 17 -30q15 0 20.5 7t8.5 23l20 143q-28 -16 -40 -28
t-15 -37zM269 615q-11 -77 -86 -77q-74 0 -63 77q12 78 85 78q76 0 64 -78zM211 615q3 24 -14 24q-16 0 -19 -24q-3 -23 13 -23q17 0 20 23z" />
    <glyph glyph-name="ae" unicode="&#xe6;" horiz-adv-x="461" 
d="M107 186l-11 -78q-4 -30 17 -30q15 0 20.5 7t8.5 23l20 143q-28 -16 -40 -28t-15 -37zM285 395l-12 -85h46l12 85q4 27 -19 27t-27 -27zM-6 110l10 74q7 52 45.5 83t122.5 60l10 68q4 27 -19 27q-21 0 -25 -27l-5 -39h-100l5 42q17 112 138 112q46 0 71 -19q28 19 77 19
q67 0 89 -30.5t14 -88.5l-22 -157h-143l-18 -129q-4 -27 19 -27t27 27l11 77h97l-10 -72q-8 -58 -38 -89t-99 -31q-48 0 -73 19q-32 -19 -79 -19q-69 0 -91 31t-14 89z" />
    <glyph glyph-name="ccedilla" unicode="&#xe7;" horiz-adv-x="319" 
d="M50 -81l30 73q-50 6 -66.5 36t-9.5 80l40 285q8 57 40.5 87t100.5 30q67 0 90.5 -30t15.5 -87l-9 -65h-99l9 67q4 27 -19 27t-27 -27l-41 -290q-4 -27 19 -27t27 27l11 77h99l-10 -74q-7 -53 -34 -83t-86 -34l-11 -30q55 -11 47 -62q-4 -33 -25 -51t-71 -18h-58l24 61h29
q20 0 21 14q1 7 -2.5 10.5t-14.5 3.5h-20z" />
    <glyph glyph-name="egrave" unicode="&#xe8;" horiz-adv-x="324" 
d="M123 234l-18 -129q-4 -27 19 -27t27 27l11 77h99l-10 -72q-8 -58 -39 -89t-100 -31q-70 0 -93 31t-15 89l39 281q17 119 142 119q67 0 90 -31t15 -88l-22 -157h-145zM146 395l-12 -85h46l12 85q4 27 -19 27t-27 -27zM126 685h97l1 -135h-60z" />
    <glyph glyph-name="eacute" unicode="&#xe9;" horiz-adv-x="324" 
d="M123 234l-18 -129q-4 -27 19 -27t27 27l11 77h99l-10 -72q-8 -58 -39 -89t-100 -31q-70 0 -93 31t-15 89l39 281q17 119 142 119q67 0 90 -31t15 -88l-22 -157h-145zM146 395l-12 -85h46l12 85q4 27 -19 27t-27 -27zM196 685h97l-76 -135h-60z" />
    <glyph glyph-name="ecircumflex" unicode="&#xea;" horiz-adv-x="324" 
d="M123 234l-18 -129q-4 -27 19 -27t27 27l11 77h99l-10 -72q-8 -58 -39 -89t-100 -31q-70 0 -93 31t-15 89l39 281q17 119 142 119q67 0 90 -31t15 -88l-22 -157h-145zM146 395l-12 -85h46l12 85q4 27 -19 27t-27 -27zM166 687h82l36 -135h-72l-17 49l-31 -49h-71z" />
    <glyph glyph-name="edieresis" unicode="&#xeb;" horiz-adv-x="324" 
d="M123 234l-18 -129q-4 -27 19 -27t27 27l11 77h99l-10 -72q-8 -58 -39 -89t-100 -31q-70 0 -93 31t-15 89l39 281q17 119 142 119q67 0 90 -31t15 -88l-22 -157h-145zM146 395l-12 -85h46l12 85q4 27 -19 27t-27 -27zM105 658h84l-15 -106h-84zM219 658h84l-15 -106h-84z
" />
    <glyph glyph-name="igrave" unicode="&#xec;" horiz-adv-x="179" 
d="M59 500h102l-70 -500h-102zM46 685h97l1 -135h-60z" />
    <glyph glyph-name="iacute" unicode="&#xed;" horiz-adv-x="179" 
d="M59 500h102l-70 -500h-102zM128 685h97l-76 -135h-60z" />
    <glyph glyph-name="icircumflex" unicode="&#xee;" horiz-adv-x="179" 
d="M59 500h102l-70 -500h-102zM94 687h82l36 -135h-72l-17 49l-31 -49h-71z" />
    <glyph glyph-name="idieresis" unicode="&#xef;" horiz-adv-x="179" 
d="M59 500h102l-70 -500h-102zM33 658h84l-15 -106h-84zM147 658h84l-15 -106h-84z" />
    <glyph glyph-name="eth" unicode="&#xf0;" horiz-adv-x="352" 
d="M208 405q7 66 -2 121l-48 -20l-19 63l50 20q-19 52 -61 111h110q27 -39 42 -74l53 22l19 -63l-50 -20q20 -80 3 -200l-35 -251q-18 -124 -145 -124t-109 124l26 188q16 117 113 117q32 0 53 -14zM143 297l-25 -183q-5 -29 20 -29t30 29l25 183q5 29 -22 29q-24 0 -28 -29
z" />
    <glyph glyph-name="ntilde" unicode="&#xf1;" 
d="M244 0h-102l55 395q4 27 -19 27q-24 0 -27 -27l-55 -395h-102l70 500h57l13 -24q32 34 87 34q52 0 69 -27.5t9 -88.5zM243 549q-27 0 -49 16.5t-35 16.5q-17 0 -20 -24h-57q7 55 23 77.5t57 22.5q27 0 48.5 -16.5t34.5 -16.5q18 0 21 24h57q-8 -54 -24 -77t-56 -23z" />
    <glyph glyph-name="ograve" unicode="&#xf2;" horiz-adv-x="327" 
d="M124 78q23 0 27 27l41 290q4 27 -19 27t-27 -27l-41 -290q-4 -27 19 -27zM112 -10q-70 0 -93 30.5t-15 87.5l40 285q8 57 40.5 87t100.5 30t92.5 -30.5t16.5 -86.5l-40 -285q-8 -57 -40 -87.5t-102 -30.5zM119 685h97l1 -135h-60z" />
    <glyph glyph-name="oacute" unicode="&#xf3;" horiz-adv-x="327" 
d="M124 78q23 0 27 27l41 290q4 27 -19 27t-27 -27l-41 -290q-4 -27 19 -27zM112 -10q-70 0 -93 30.5t-15 87.5l40 285q8 57 40.5 87t100.5 30t92.5 -30.5t16.5 -86.5l-40 -285q-8 -57 -40 -87.5t-102 -30.5zM198 685h97l-76 -135h-60z" />
    <glyph glyph-name="ocircumflex" unicode="&#xf4;" horiz-adv-x="327" 
d="M124 78q23 0 27 27l41 290q4 27 -19 27t-27 -27l-41 -290q-4 -27 19 -27zM112 -10q-70 0 -93 30.5t-15 87.5l40 285q8 57 40.5 87t100.5 30t92.5 -30.5t16.5 -86.5l-40 -285q-8 -57 -40 -87.5t-102 -30.5zM168 687h82l36 -135h-72l-17 49l-31 -49h-71z" />
    <glyph glyph-name="otilde" unicode="&#xf5;" horiz-adv-x="327" 
d="M124 78q23 0 27 27l41 290q4 27 -19 27t-27 -27l-41 -290q-4 -27 19 -27zM112 -10q-70 0 -93 30.5t-15 87.5l40 285q8 57 40.5 87t100.5 30t92.5 -30.5t16.5 -86.5l-40 -285q-8 -57 -40 -87.5t-102 -30.5zM238 549q-28 0 -50 16.5t-34 16.5q-17 0 -20 -24h-57
q7 55 23 77.5t57 22.5q27 0 48.5 -16.5t34.5 -16.5q18 0 21 24h57q-8 -54 -24 -77t-56 -23z" />
    <glyph glyph-name="odieresis" unicode="&#xf6;" horiz-adv-x="327" 
d="M124 78q23 0 27 27l41 290q4 27 -19 27t-27 -27l-41 -290q-4 -27 19 -27zM112 -10q-70 0 -93 30.5t-15 87.5l40 285q8 57 40.5 87t100.5 30t92.5 -30.5t16.5 -86.5l-40 -285q-8 -57 -40 -87.5t-102 -30.5zM106 658h84l-15 -106h-84zM220 658h84l-15 -106h-84z" />
    <glyph glyph-name="divide" unicode="&#xf7;" horiz-adv-x="377" 
d="M38 318h290l-10 -76h-290zM122 204h90l-14 -100h-90zM158 456h90l-14 -100h-90z" />
    <glyph glyph-name="oslash" unicode="&#xf8;" horiz-adv-x="327" 
d="M124 78q23 0 27 27l41 290q4 27 -19 27t-27 -27l-41 -290q-4 -27 19 -27zM-10 -30l24 56q-18 27 -10 82l40 285q8 57 40.5 87t100.5 30q19 0 34 -3l10 23h78l-25 -57q18 -28 12 -80l-40 -285q-8 -57 -40 -87.5t-102 -30.5q-13 0 -35 2l-9 -22h-78z" />
    <glyph glyph-name="ugrave" unicode="&#xf9;" 
d="M64 500h102l-56 -395q-4 -27 19 -27q24 0 27 27l56 395h102l-70 -500h-57l-14 24q-26 -34 -85 -34q-52 0 -70 27.5t-10 88.5zM134 685h97l1 -135h-60z" />
    <glyph glyph-name="uacute" unicode="&#xfa;" 
d="M64 500h102l-56 -395q-4 -27 19 -27q24 0 27 27l56 395h102l-70 -500h-57l-14 24q-26 -34 -85 -34q-52 0 -70 27.5t-10 88.5zM200 685h97l-76 -135h-60z" />
    <glyph glyph-name="ucircumflex" unicode="&#xfb;" 
d="M64 500h102l-56 -395q-4 -27 19 -27q24 0 27 27l56 395h102l-70 -500h-57l-14 24q-26 -34 -85 -34q-52 0 -70 27.5t-10 88.5zM173 687h82l36 -135h-72l-17 49l-31 -49h-71z" />
    <glyph glyph-name="udieresis" unicode="&#xfc;" 
d="M64 500h102l-56 -395q-4 -27 19 -27q24 0 27 27l56 395h102l-70 -500h-57l-14 24q-26 -34 -85 -34q-52 0 -70 27.5t-10 88.5zM111 658h84l-15 -106h-84zM225 658h84l-15 -106h-84z" />
    <glyph glyph-name="yacute" unicode="&#xfd;" horiz-adv-x="299" 
d="M-15 -170q-28 0 -44 8l11 89q24 -8 44 -8q30 0 42 42l12 39l-16 500h105l-16 -330l78 330h105l-167 -541q-22 -71 -55.5 -100t-98.5 -29zM184 685h97l-76 -135h-60z" />
    <glyph glyph-name="thorn" unicode="&#xfe;" 
d="M156 106l41 288q4 28 -19 28q-22 0 -27 -26l-41 -292q-3 -26 19 -26q24 0 27 28zM-29 -160l122 870h102l-31 -220q25 20 57 20q53 0 70 -27t8 -88l-41 -290q-9 -61 -33 -88t-77 -27q-33 0 -51 20l-24 -170h-102z" />
    <glyph glyph-name="ydieresis" unicode="&#xff;" horiz-adv-x="299" 
d="M-15 -170q-28 0 -44 8l11 89q24 -8 44 -8q30 0 42 42l12 39l-16 500h105l-16 -330l78 330h105l-167 -541q-22 -71 -55.5 -100t-98.5 -29zM92 658h84l-15 -106h-84zM206 658h84l-15 -106h-84z" />
    <glyph glyph-name="Amacron" unicode="&#x100;" horiz-adv-x="340" 
d="M-31 0l180 700h139l-16 -700h-109l9 136h-65l-29 -136h-109zM152 339l-21 -103h45l7 103q12 174 20 245h-1q-30 -153 -50 -245zM140 750l11 76h170l-11 -76h-170z" />
    <glyph glyph-name="amacron" unicode="&#x101;" horiz-adv-x="317" 
d="M172 327l10 68q4 27 -18 27q-20 0 -24 -27l-5 -39h-100l5 42q17 112 137 112q123 0 107 -116l-55 -394h-57l-14 24q-28 -34 -81 -34q-52 0 -71.5 29t-11.5 89l10 76q7 52 45.5 83t122.5 60zM107 186l-11 -78q-4 -30 17 -30q15 0 20.5 7t8.5 23l20 143q-28 -16 -40 -28
t-15 -37zM100 552l11 76h170l-11 -76h-170z" />
    <glyph glyph-name="Abreve" unicode="&#x102;" horiz-adv-x="340" 
d="M-31 0l180 700h139l-16 -700h-109l9 136h-65l-29 -136h-109zM152 339l-21 -103h45l7 103q12 174 20 245h-1q-30 -153 -50 -245zM264 850h63q-15 -108 -104 -108q-88 0 -73 108h61q-4 -34 22 -34q27 0 31 34z" />
    <glyph glyph-name="abreve" unicode="&#x103;" horiz-adv-x="317" 
d="M172 327l10 68q4 27 -18 27q-20 0 -24 -27l-5 -39h-100l5 42q17 112 137 112q123 0 107 -116l-55 -394h-57l-14 24q-28 -34 -81 -34q-52 0 -71.5 29t-11.5 89l10 76q7 52 45.5 83t122.5 60zM107 186l-11 -78q-4 -30 17 -30q15 0 20.5 7t8.5 23l20 143q-28 -16 -40 -28
t-15 -37zM225 652h63q-15 -108 -104 -108q-88 0 -73 108h61q-4 -34 22 -34q27 0 31 34z" />
    <glyph glyph-name="Aogonek" unicode="&#x104;" horiz-adv-x="340" 
d="M248 -170h-12q-51 0 -73.5 21t-17.5 54q9 59 70 95h-52l9 136h-65l-29 -136h-109l180 700h139l-16 -700q-37 -28 -42 -57q-1 -9 4.5 -14.5t16.5 -5.5h10zM152 339l-21 -103h45l7 103q13 183 20 248h-1q-35 -180 -50 -248z" />
    <glyph glyph-name="aogonek" unicode="&#x105;" horiz-adv-x="317" 
d="M205 -170h-12q-51 0 -73.5 21t-17.5 54q9 59 70 95l-14 24q-28 -34 -81 -34q-52 0 -71.5 29t-11.5 89l10 76q7 52 45.5 83t122.5 60l10 68q4 27 -18 27q-20 0 -24 -27l-5 -39h-100l5 42q17 112 137 112q123 0 107 -116l-55 -394q-37 -28 -42 -57q-1 -9 4.5 -14.5
t16.5 -5.5h10zM107 186l-11 -78q-4 -30 17 -30q15 0 20.5 7t8.5 23l20 143q-28 -16 -40 -28t-15 -37z" />
    <glyph glyph-name="Cacute" unicode="&#x106;" horiz-adv-x="352" 
d="M188 220h106l-14 -102q-8 -61 -43 -94.5t-109 -33.5q-136 0 -118 128l65 464q19 128 154 128q74 0 99.5 -34t16.5 -94l-13 -92h-106l13 92q5 31 -23 31t-33 -31l-65 -463q-5 -32 24 -32q27 0 32 32zM234 885h97l-76 -135h-60z" />
    <glyph glyph-name="cacute" unicode="&#x107;" horiz-adv-x="319" 
d="M162 182h99l-10 -74q-8 -58 -39 -88t-100 -30q-70 0 -93 30.5t-15 87.5l40 285q8 57 40.5 87t100.5 30q67 0 90.5 -30t15.5 -87l-9 -65h-99l9 67q4 27 -19 27t-27 -27l-41 -290q-4 -27 19 -27t27 27zM194 685h97l-76 -135h-60z" />
    <glyph glyph-name="Ccircumflex" unicode="&#x108;" horiz-adv-x="352" 
d="M188 220h106l-14 -102q-8 -61 -43 -94.5t-109 -33.5q-136 0 -118 128l65 464q19 128 154 128q74 0 99.5 -34t16.5 -94l-13 -92h-106l13 92q5 31 -23 31t-33 -31l-65 -463q-5 -32 24 -32q27 0 32 32zM208 885h82l36 -135h-72l-17 49l-31 -49h-71z" />
    <glyph glyph-name="ccircumflex" unicode="&#x109;" horiz-adv-x="319" 
d="M162 182h99l-10 -74q-8 -58 -39 -88t-100 -30q-70 0 -93 30.5t-15 87.5l40 285q8 57 40.5 87t100.5 30q67 0 90.5 -30t15.5 -87l-9 -65h-99l9 67q4 27 -19 27t-27 -27l-41 -290q-4 -27 19 -27t27 27zM168 687h82l36 -135h-72l-17 49l-31 -49h-71z" />
    <glyph glyph-name="Cdotaccent" unicode="&#x10a;" horiz-adv-x="352" 
d="M188 220h106l-14 -102q-8 -61 -43 -94.5t-109 -33.5q-136 0 -118 128l65 464q19 128 154 128q74 0 99.5 -34t16.5 -94l-13 -92h-106l13 92q5 31 -23 31t-33 -31l-65 -463q-5 -32 24 -32q27 0 32 32zM196 864h102l-16 -114h-102z" />
    <glyph glyph-name="cdotaccent" unicode="&#x10b;" horiz-adv-x="319" 
d="M162 182h99l-10 -74q-8 -58 -39 -88t-100 -30q-70 0 -93 30.5t-15 87.5l40 285q8 57 40.5 87t100.5 30q67 0 90.5 -30t15.5 -87l-9 -65h-99l9 67q4 27 -19 27t-27 -27l-41 -290q-4 -27 19 -27t27 27zM151 666h102l-16 -114h-102z" />
    <glyph glyph-name="Ccaron" unicode="&#x10c;" horiz-adv-x="352" 
d="M188 220h106l-14 -102q-8 -61 -43 -94.5t-109 -33.5q-136 0 -118 128l65 464q19 128 154 128q74 0 99.5 -34t16.5 -94l-13 -92h-106l13 92q5 31 -23 31t-33 -31l-65 -463q-5 -32 24 -32q27 0 32 32zM271 750h-82l-35 135h71l17 -49l31 49h72z" />
    <glyph glyph-name="ccaron" unicode="&#x10d;" horiz-adv-x="319" 
d="M162 182h99l-10 -74q-8 -58 -39 -88t-100 -30q-70 0 -93 30.5t-15 87.5l40 285q8 57 40.5 87t100.5 30q67 0 90.5 -30t15.5 -87l-9 -65h-99l9 67q4 27 -19 27t-27 -27l-41 -290q-4 -27 19 -27t27 27zM227 552h-82l-35 135h71l17 -49l31 49h72z" />
    <glyph glyph-name="Dcaron" unicode="&#x10e;" horiz-adv-x="369" 
d="M-1 0l98 700h146q73 0 95.5 -30t12.5 -95l-63 -450q-10 -67 -39.5 -96t-100.5 -29h-149zM191 598l-70 -496h35q21 0 24 22l63 450q4 24 -19 24h-33zM266 750h-82l-35 135h71l17 -49l31 49h72z" />
    <glyph glyph-name="dcaron" unicode="&#x10f;" horiz-adv-x="378" 
d="M146 394l-41 -289q-4 -27 19 -27q24 0 27 27l41 291q5 26 -19 26q-23 0 -27 -28zM3 106l41 290q9 61 32.5 87.5t75.5 26.5q35 0 53 -20l31 220h102l-99 -710h-57l-14 24q-26 -34 -85 -34q-52 0 -70 27.5t-10 88.5zM361 710h76l-56 -160h-42z" />
    <glyph glyph-name="Dcroat" unicode="&#x110;" horiz-adv-x="369" 
d="M-1 0l44 316h-27l11 76h27l43 308h146q73 0 95.5 -30t12.5 -95l-63 -450q-10 -67 -39.5 -96t-100.5 -29h-149zM191 598l-29 -206h28l-11 -76h-28l-30 -214h35q21 0 24 22l63 450q4 24 -19 24h-33z" />
    <glyph glyph-name="dcroat" unicode="&#x111;" horiz-adv-x="327" 
d="M146 394l-41 -289q-4 -27 19 -27q24 0 27 27l41 291q5 26 -19 26q-23 0 -27 -28zM140 578l9 66h78l9 66h102l-99 -710h-57l-14 24q-26 -34 -85 -34q-52 0 -70 27.5t-10 88.5l41 290q9 61 32.5 87.5t75.5 26.5q35 0 53 -20l13 88h-78z" />
    <glyph glyph-name="Emacron" unicode="&#x112;" horiz-adv-x="303" 
d="M149 304l-28 -202h113l-14 -102h-221l98 700h221l-14 -102h-113l-28 -194h99l-14 -100h-99zM129 750l11 76h170l-11 -76h-170z" />
    <glyph glyph-name="emacron" unicode="&#x113;" horiz-adv-x="324" 
d="M123 234l-18 -129q-4 -27 19 -27t27 27l11 77h99l-10 -72q-8 -58 -39 -89t-100 -31q-70 0 -93 31t-15 89l39 281q17 119 142 119q67 0 90 -31t15 -88l-22 -157h-145zM146 395l-12 -85h46l12 85q4 27 -19 27t-27 -27zM104 552l11 76h170l-11 -76h-170z" />
    <glyph glyph-name="Ebreve" unicode="&#x114;" horiz-adv-x="303" 
d="M149 304l-28 -202h113l-14 -102h-221l98 700h221l-14 -102h-113l-28 -194h99l-14 -100h-99zM254 850h63q-15 -108 -104 -108q-88 0 -73 108h61q-4 -34 22 -34q27 0 31 34z" />
    <glyph glyph-name="ebreve" unicode="&#x115;" horiz-adv-x="324" 
d="M123 234l-18 -129q-4 -27 19 -27t27 27l11 77h99l-10 -72q-8 -58 -39 -89t-100 -31q-70 0 -93 31t-15 89l39 281q17 119 142 119q67 0 90 -31t15 -88l-22 -157h-145zM146 395l-12 -85h46l12 85q4 27 -19 27t-27 -27zM228 652h63q-15 -108 -104 -108q-88 0 -73 108h61
q-4 -34 22 -34q27 0 31 34z" />
    <glyph glyph-name="Edotaccent" unicode="&#x116;" horiz-adv-x="303" 
d="M149 304l-28 -202h113l-14 -102h-221l98 700h221l-14 -102h-113l-28 -194h99l-14 -100h-99zM179 864h102l-16 -114h-102z" />
    <glyph glyph-name="edotaccent" unicode="&#x117;" horiz-adv-x="324" 
d="M123 234l-18 -129q-4 -27 19 -27t27 27l11 77h99l-10 -72q-8 -58 -39 -89t-100 -31q-70 0 -93 31t-15 89l39 281q17 119 142 119q67 0 90 -31t15 -88l-22 -157h-145zM146 395l-12 -85h46l12 85q4 27 -19 27t-27 -27zM154 666h102l-16 -114h-102z" />
    <glyph glyph-name="Eogonek" unicode="&#x118;" horiz-adv-x="303" 
d="M196 -170h-12q-51 0 -73.5 21t-17.5 54q9 59 70 95h-164l98 700h221l-14 -102h-113l-28 -194h99l-14 -100h-99l-28 -202h113l-14 -102q-37 -28 -42 -57q-1 -9 4.5 -14.5t16.5 -5.5h10z" />
    <glyph glyph-name="eogonek" unicode="&#x119;" horiz-adv-x="324" 
d="M173 -159h-12q-51 0 -73 20.5t-17 54.5q5 42 41 74q-70 0 -93 31t-15 89l39 281q17 119 142 119q67 0 90 -31t15 -88l-22 -157h-145l-18 -129q-4 -27 19 -27t27 27l11 77h99l-10 -72q-12 -78 -61 -104q-29 -25 -34 -52q-3 -20 20 -20h10zM146 395l-12 -85h46l12 85
q4 27 -19 27t-27 -27z" />
    <glyph glyph-name="Ecaron" unicode="&#x11a;" horiz-adv-x="303" 
d="M149 304l-28 -202h113l-14 -102h-221l98 700h221l-14 -102h-113l-28 -194h99l-14 -100h-99zM255 750h-82l-35 135h71l17 -49l31 49h72z" />
    <glyph glyph-name="ecaron" unicode="&#x11b;" horiz-adv-x="324" 
d="M123 234l-18 -129q-4 -27 19 -27t27 27l11 77h99l-10 -72q-8 -58 -39 -89t-100 -31q-70 0 -93 31t-15 89l39 281q17 119 142 119q67 0 90 -31t15 -88l-22 -157h-145zM146 395l-12 -85h46l12 85q4 27 -19 27t-27 -27zM229 552h-82l-35 135h71l17 -49l31 49h72z" />
    <glyph glyph-name="Gcircumflex" unicode="&#x11c;" horiz-adv-x="359" 
d="M172 304l14 100h136l-40 -286q-18 -128 -154 -128t-118 128l65 464q19 128 154 128q137 0 118 -128l-13 -92h-108l14 94q3 29 -24 29q-29 0 -32 -29l-66 -465q-5 -32 24 -32q27 0 32 32l26 185h-28zM212 885h82l36 -135h-72l-17 49l-31 -49h-71z" />
    <glyph glyph-name="gcircumflex" unicode="&#x11d;" horiz-adv-x="318" 
d="M160 687h82l34 -128q14 6 30 6q19 0 27 -3l-10 -76q-18 6 -35 6q-16 0 -26 -7q32 -29 24 -93l-24 -168q-8 -56 -40.5 -85.5t-100.5 -29.5q-33 0 -37 -25q-3 -26 30 -26q73 0 99 -28.5t19 -82.5v-3q-7 -51 -43.5 -82.5t-105.5 -31.5q-70 0 -97.5 31t-20.5 83v3
q10 67 63 95q-22 16 -19 41q5 28 35 42q-42 26 -32 99l24 168q15 118 141 118q25 0 47 -5q15 32 38 47h-56l-17 49l-31 -49h-71zM165 422q-23 0 -27 -29l-26 -180q-4 -30 19 -30t27 30l26 180q4 29 -19 29zM106 -4q-35 0 -40 -35v-2q-6 -38 29 -38t40 38v2q6 35 -29 35z" />
    <glyph glyph-name="Gbreve" unicode="&#x11e;" horiz-adv-x="359" 
d="M172 304l14 100h136l-40 -286q-18 -128 -154 -128t-118 128l65 464q19 128 154 128q137 0 118 -128l-13 -92h-108l14 94q3 29 -24 29q-29 0 -32 -29l-66 -465q-5 -32 24 -32q27 0 32 32l26 185h-28zM274 850h63q-15 -108 -104 -108q-88 0 -73 108h61q-4 -34 22 -34
q27 0 31 34z" />
    <glyph glyph-name="gbreve" unicode="&#x11f;" horiz-adv-x="318" 
d="M121 109q-33 0 -37 -25q-3 -26 30 -26q73 0 99 -28.5t19 -82.5v-3q-7 -51 -43.5 -82.5t-105.5 -31.5q-70 0 -97.5 31t-20.5 83v3q10 67 63 95q-22 16 -19 41q5 28 35 42q-42 26 -32 99l24 168q15 118 141 118q25 0 47 -5q29 60 82 60q19 0 27 -3l-10 -76q-18 6 -35 6
q-16 0 -26 -7q32 -29 24 -93l-24 -168q-8 -56 -40.5 -85.5t-100.5 -29.5zM165 422q-23 0 -27 -29l-26 -180q-4 -30 19 -30t27 30l26 180q4 29 -19 29zM106 -4q-35 0 -40 -35v-2q-6 -38 29 -38t40 38v2q6 35 -29 35zM220 652h63q-15 -108 -104 -108q-88 0 -73 108h61
q-4 -34 22 -34q27 0 31 34z" />
    <glyph glyph-name="Gdotaccent" unicode="&#x120;" horiz-adv-x="359" 
d="M172 304l14 100h136l-40 -286q-18 -128 -154 -128t-118 128l65 464q19 128 154 128q137 0 118 -128l-13 -92h-108l14 94q3 29 -24 29q-29 0 -32 -29l-66 -465q-5 -32 24 -32q27 0 32 32l26 185h-28zM199 864h102l-16 -114h-102z" />
    <glyph glyph-name="gdotaccent" unicode="&#x121;" horiz-adv-x="318" 
d="M121 109q-33 0 -37 -25q-3 -26 30 -26q73 0 99 -28.5t19 -82.5v-3q-7 -51 -43.5 -82.5t-105.5 -31.5q-70 0 -97.5 31t-20.5 83v3q10 67 63 95q-22 16 -19 41q5 28 35 42q-42 26 -32 99l24 168q15 118 141 118q25 0 47 -5q29 60 82 60q19 0 27 -3l-10 -76q-18 6 -35 6
q-16 0 -26 -7q32 -29 24 -93l-24 -168q-8 -56 -40.5 -85.5t-100.5 -29.5zM165 422q-23 0 -27 -29l-26 -180q-4 -30 19 -30t27 30l26 180q4 29 -19 29zM106 -4q-35 0 -40 -35v-2q-6 -38 29 -38t40 38v2q6 35 -29 35zM147 666h102l-16 -114h-102z" />
    <glyph glyph-name="Gcommaaccent" unicode="&#x122;" horiz-adv-x="359" 
d="M172 304l14 100h136l-40 -286q-18 -128 -154 -128t-118 128l65 464q19 128 154 128q137 0 118 -128l-13 -92h-108l14 94q3 29 -24 29q-29 0 -32 -29l-66 -465q-5 -32 24 -32q27 0 32 32l26 185h-28zM76 -48h93l-52 -122h-58z" />
    <glyph glyph-name="gcommaaccent" unicode="&#x123;" horiz-adv-x="318" 
d="M121 109q-33 0 -37 -25q-3 -26 30 -26q73 0 99 -28.5t19 -82.5v-3q-7 -51 -43.5 -82.5t-105.5 -31.5q-70 0 -97.5 31t-20.5 83v3q10 67 63 95q-22 16 -19 41q5 28 35 42q-42 26 -32 99l24 168q15 118 141 118q25 0 47 -5q29 60 82 60q19 0 27 -3l-10 -76q-18 6 -35 6
q-16 0 -26 -7q32 -29 24 -93l-24 -168q-8 -56 -40.5 -85.5t-100.5 -29.5zM165 422q-23 0 -27 -29l-26 -180q-4 -30 19 -30t27 30l26 180q4 29 -19 29zM106 -4q-35 0 -40 -35v-2q-6 -38 29 -38t40 38v2q6 35 -29 35zM262 548h-93l52 122h58z" />
    <glyph glyph-name="Hcircumflex" unicode="&#x124;" horiz-adv-x="369" 
d="M149 304l-42 -304h-108l98 700h108l-42 -296h56l42 296h108l-98 -700h-108l42 304h-56zM217 885h82l36 -135h-72l-17 49l-31 -49h-71z" />
    <glyph glyph-name="hcircumflex" unicode="&#x125;" horiz-adv-x="327" 
d="M239 0h-102l55 394q4 28 -19 28q-22 0 -27 -26l-55 -396h-102l99 710h102l-31 -220q25 20 57 20q53 0 70 -27t8 -88zM124 886h82l36 -135h-72l-17 49l-31 -49h-71z" />
    <glyph glyph-name="Hbar" unicode="&#x126;" horiz-adv-x="369" 
d="M41 528l7 52h32l17 120h108l-17 -120h56l17 120h108l-17 -120h32l-7 -52h-32l-74 -528h-108l42 304h-56l-42 -304h-108l74 528h-32zM163 404h56l18 124h-56z" />
    <glyph glyph-name="hbar" unicode="&#x127;" horiz-adv-x="327" 
d="M239 0h-102l55 394q4 28 -19 28q-22 0 -27 -26l-55 -396h-102l99 710h102l-9 -66h145l-11 -76h-145l-11 -78q25 20 57 20q53 0 70 -27t8 -88z" />
    <glyph glyph-name="Itilde" unicode="&#x128;" horiz-adv-x="205" 
d="M-1 0l98 700h108l-98 -700h-108zM206 749q-28 0 -50 16.5t-34 16.5q-17 0 -20 -24h-57q7 55 23 77.5t57 22.5q27 0 48.5 -16.5t34.5 -16.5q18 0 21 24h57q-7 -53 -23.5 -76.5t-56.5 -23.5z" />
    <glyph glyph-name="itilde" unicode="&#x129;" horiz-adv-x="179" 
d="M59 500h102l-70 -500h-102zM165 549q-27 0 -49 16.5t-35 16.5q-17 0 -20 -24h-57q7 55 23 77.5t57 22.5q27 0 48.5 -16.5t34.5 -16.5q18 0 21 24h57q-8 -54 -24 -77t-56 -23z" />
    <glyph glyph-name="Imacron" unicode="&#x12a;" horiz-adv-x="205" 
d="M-1 0l98 700h108l-98 -700h-108zM73 750l11 76h170l-11 -76h-170z" />
    <glyph glyph-name="imacron" unicode="&#x12b;" horiz-adv-x="179" 
d="M59 500h102l-70 -500h-102zM32 552l11 76h170l-11 -76h-170z" />
    <glyph glyph-name="Ibreve" unicode="&#x12c;" horiz-adv-x="205" 
d="M-1 0l98 700h108l-98 -700h-108zM197 850h63q-15 -108 -104 -108q-88 0 -73 108h61q-4 -34 22 -34q27 0 31 34z" />
    <glyph glyph-name="ibreve" unicode="&#x12d;" horiz-adv-x="179" 
d="M59 500h102l-70 -500h-102zM156 652h63q-15 -108 -104 -108q-88 0 -73 108h61q-4 -34 22 -34q27 0 31 34z" />
    <glyph glyph-name="Iogonek" unicode="&#x12e;" horiz-adv-x="205" 
d="M-1 0l98 700h108l-98 -700q-37 -28 -42 -57q-1 -9 4.5 -14.5t16.5 -5.5h10l-13 -93h-12q-51 0 -73.5 21t-17.5 54q9 59 70 95h-51z" />
    <glyph glyph-name="iogonek" unicode="&#x12f;" horiz-adv-x="179" 
d="M67 -170h-12q-51 0 -73.5 21t-17.5 54q9 59 70 95h-45l70 500h102l-70 -500q-37 -28 -42 -57q-1 -9 4.5 -14.5t16.5 -5.5h10zM82 666h102l-16 -114h-102z" />
    <glyph glyph-name="Idotaccent" unicode="&#x130;" horiz-adv-x="205" 
d="M-1 0l98 700h108l-98 -700h-108zM122 864h102l-16 -114h-102z" />
    <glyph glyph-name="dotlessi" unicode="&#x131;" horiz-adv-x="179" 
d="M59 500h102l-70 -500h-102z" />
    <glyph glyph-name="Jcircumflex" unicode="&#x134;" horiz-adv-x="333" 
d="M230 700h108l-82 -582q-8 -61 -42.5 -94.5t-108.5 -33.5t-98.5 33.5t-16.5 94.5l14 102h106l-14 -101q-5 -32 22 -32q25 0 30 32zM266 885h82l36 -135h-72l-17 49l-31 -49h-71z" />
    <glyph glyph-name="jcircumflex" unicode="&#x135;" horiz-adv-x="179" 
d="M161 500l-77 -548q-9 -62 -41.5 -92t-102.5 -30q-24 0 -45 8l12 88q18 -8 41 -8q29 0 34 34l77 548h102zM94 687h82l36 -135h-72l-17 49l-31 -49h-71z" />
    <glyph glyph-name="Kcommaaccent" unicode="&#x136;" horiz-adv-x="351" 
d="M205 700l-46 -310l108 310h118l-145 -347l53 -353h-117l-27 318l-42 -318h-108l98 700h108zM86 -48h93l-52 -122h-58z" />
    <glyph glyph-name="kcommaaccent" unicode="&#x137;" horiz-adv-x="322" 
d="M195 710l-58 -416l81 206h111l-113 -243l53 -257h-112l-31 215l-30 -215h-102l99 710h102zM69 -48h93l-52 -122h-58z" />
    <glyph glyph-name="kgreenlandic" unicode="&#x138;" horiz-adv-x="322" 
d="M166 500l-29 -206l81 206h111l-113 -243l53 -257h-112l-31 215l-30 -215h-102l70 500h102z" />
    <glyph glyph-name="Lacute" unicode="&#x139;" horiz-adv-x="265" 
d="M-1 0l98 700h108l-84 -598h90l-14 -102h-198zM164 885h97l-76 -135h-60z" />
    <glyph glyph-name="lacute" unicode="&#x13a;" horiz-adv-x="179" 
d="M88 710h102l-99 -710h-102zM156 885h97l-76 -135h-60z" />
    <glyph glyph-name="Lcommaaccent" unicode="&#x13b;" horiz-adv-x="265" 
d="M-1 0l98 700h108l-84 -598h90l-14 -102h-198zM39 -48h93l-52 -122h-58z" />
    <glyph glyph-name="lcommaaccent" unicode="&#x13c;" horiz-adv-x="179" 
d="M88 710h102l-99 -710h-102zM-14 -48h93l-52 -122h-58z" />
    <glyph glyph-name="Lcaron" unicode="&#x13d;" horiz-adv-x="265" 
d="M-1 0l98 700h108l-84 -598h90l-14 -102h-198zM238 710h76l-56 -160h-42z" />
    <glyph glyph-name="lcaron" unicode="&#x13e;" horiz-adv-x="230" 
d="M88 710h102l-99 -710h-102zM213 710h76l-56 -160h-42z" />
    <glyph glyph-name="Ldot" unicode="&#x13f;" horiz-adv-x="265" 
d="M-1 0l98 700h108l-84 -598h90l-14 -102h-198zM178 337h69l-11 -114h-69z" />
    <glyph glyph-name="ldot" unicode="&#x140;" horiz-adv-x="271" 
d="M88 710h102l-99 -710h-102zM168 337h102l-16 -114h-102z" />
    <glyph glyph-name="Lslash" unicode="&#x141;" horiz-adv-x="265" 
d="M-1 0l35 250l-53 -17l11 76l52 17l53 374h108l-47 -337l51 17l-11 -76l-51 -17l-26 -185h90l-14 -102h-198z" />
    <glyph glyph-name="lslash" unicode="&#x142;" horiz-adv-x="179" 
d="M88 710h102l-49 -353l37 13l-11 -76l-37 -13l-39 -281h-102l34 245l-37 -12l11 76l37 12z" />
    <glyph glyph-name="Nacute" unicode="&#x143;" horiz-adv-x="386" 
d="M187 0l-38 450q-19 -209 -38 -349l-14 -101h-103l98 700h109l36 -441q11 154 34 318l17 123h103l-98 -700h-106zM253 885h97l-76 -135h-60z" />
    <glyph glyph-name="nacute" unicode="&#x144;" 
d="M244 0h-102l55 395q4 27 -19 27q-24 0 -27 -27l-55 -395h-102l70 500h57l13 -24q32 34 87 34q52 0 69 -27.5t9 -88.5zM203 685h97l-76 -135h-60z" />
    <glyph glyph-name="Ncommaaccent" unicode="&#x145;" horiz-adv-x="386" 
d="M187 0l-38 450q-19 -209 -38 -349l-14 -101h-103l98 700h109l36 -441q11 154 34 318l17 123h103l-98 -700h-106zM89 -48h93l-52 -122h-58z" />
    <glyph glyph-name="ncommaaccent" unicode="&#x146;" 
d="M244 0h-102l55 395q4 27 -19 27q-24 0 -27 -27l-55 -395h-102l70 500h57l13 -24q32 34 87 34q52 0 69 -27.5t9 -88.5zM65 -48h93l-52 -122h-58z" />
    <glyph glyph-name="Ncaron" unicode="&#x147;" horiz-adv-x="386" 
d="M187 0l-38 450q-19 -209 -38 -349l-14 -101h-103l98 700h109l36 -441q11 154 34 318l17 123h103l-98 -700h-106zM288 750h-82l-35 135h71l17 -49l31 49h72z" />
    <glyph glyph-name="ncaron" unicode="&#x148;" 
d="M244 0h-102l55 395q4 27 -19 27q-24 0 -27 -27l-55 -395h-102l70 500h57l13 -24q32 34 87 34q52 0 69 -27.5t9 -88.5zM236 552h-82l-35 135h71l17 -49l31 49h72z" />
    <glyph glyph-name="Eng" unicode="&#x14a;" horiz-adv-x="386" 
d="M187 0l-38 450q-19 -209 -38 -349l-14 -101h-103l98 700h109l36 -441q11 154 34 318l17 123h103l-105 -748q-8 -59 -40.5 -90.5t-104.5 -31.5q-24 0 -45 8l12 88q16 -8 38 -8q16 0 23.5 8t10.5 26z" />
    <glyph glyph-name="eng" unicode="&#x14b;" 
d="M299 394l-62 -442q-9 -62 -41.5 -92t-103.5 -30q-24 0 -45 8l12 88q18 -8 41 -8q30 0 35 34l62 443q4 27 -19 27q-24 0 -27 -27l-55 -395h-102l70 500h57l13 -24q32 34 87 34q52 0 69 -27.5t9 -88.5z" />
    <glyph glyph-name="Omacron" unicode="&#x14c;" horiz-adv-x="359" 
d="M142 87q27 0 32 32l65 463q5 31 -23 31t-33 -31l-65 -463q-5 -32 24 -32zM128 -10q-136 0 -118 128l65 463q18 129 154 129t118 -129l-65 -463q-18 -128 -154 -128zM149 750l11 76h170l-11 -76h-170z" />
    <glyph glyph-name="omacron" unicode="&#x14d;" horiz-adv-x="327" 
d="M124 78q23 0 27 27l41 290q4 27 -19 27t-27 -27l-41 -290q-4 -27 19 -27zM112 -10q-70 0 -93 30.5t-15 87.5l40 285q8 57 40.5 87t100.5 30t92.5 -30.5t16.5 -86.5l-40 -285q-8 -57 -40 -87.5t-102 -30.5zM105 552l11 76h170l-11 -76h-170z" />
    <glyph glyph-name="Obreve" unicode="&#x14e;" horiz-adv-x="359" 
d="M142 87q27 0 32 32l65 463q5 31 -23 31t-33 -31l-65 -463q-5 -32 24 -32zM128 -10q-136 0 -118 128l65 463q18 129 154 129t118 -129l-65 -463q-18 -128 -154 -128zM274 850h63q-15 -108 -104 -108q-88 0 -73 108h61q-4 -34 22 -34q27 0 31 34z" />
    <glyph glyph-name="obreve" unicode="&#x14f;" horiz-adv-x="327" 
d="M124 78q23 0 27 27l41 290q4 27 -19 27t-27 -27l-41 -290q-4 -27 19 -27zM112 -10q-70 0 -93 30.5t-15 87.5l40 285q8 57 40.5 87t100.5 30t92.5 -30.5t16.5 -86.5l-40 -285q-8 -57 -40 -87.5t-102 -30.5zM230 652h63q-15 -108 -104 -108q-88 0 -73 108h61q-4 -34 22 -34
q27 0 31 34z" />
    <glyph glyph-name="Ohungarumlaut" unicode="&#x150;" horiz-adv-x="359" 
d="M142 87q27 0 32 32l65 463q5 31 -23 31t-33 -31l-65 -463q-5 -32 24 -32zM128 -10q-136 0 -118 128l65 463q18 129 154 129t118 -129l-65 -463q-18 -128 -154 -128zM185 885h97l-72 -135h-56zM307 885h97l-86 -135h-57z" />
    <glyph glyph-name="ohungarumlaut" unicode="&#x151;" horiz-adv-x="327" 
d="M124 78q23 0 27 27l41 290q4 27 -19 27t-27 -27l-41 -290q-4 -27 19 -27zM112 -10q-70 0 -93 30.5t-15 87.5l40 285q8 57 40.5 87t100.5 30t92.5 -30.5t16.5 -86.5l-40 -285q-8 -57 -40 -87.5t-102 -30.5zM142 685h97l-72 -135h-56zM264 685h97l-86 -135h-57z" />
    <glyph glyph-name="OE" unicode="&#x152;" horiz-adv-x="452" 
d="M142 87q27 0 32 32l65 463q5 31 -23 31t-33 -31l-65 -463q-5 -32 24 -32zM308 304l-28 -202h113l-14 -102h-189q-28 -10 -62 -10q-136 0 -118 128l65 463q18 129 154 129q33 0 58 -10h190l-14 -102h-113l-28 -194h99l-14 -100h-99z" />
    <glyph glyph-name="oe" unicode="&#x153;" horiz-adv-x="472" 
d="M124 78q23 0 27 27l41 290q4 27 -19 27t-27 -27l-41 -290q-4 -27 19 -27zM294 395l-12 -85h46l12 85q4 27 -19 27t-27 -27zM271 234l-18 -129q-4 -27 19 -27t27 27l10 67h99l-9 -62q-8 -58 -39 -89t-100 -31q-44 0 -72 15q-30 -15 -76 -15q-70 0 -93 30.5t-15 87.5
l40 285q8 57 40.5 87t100.5 30q46 0 72 -16q30 16 76 16q67 0 90 -31t15 -88l-22 -157h-145z" />
    <glyph glyph-name="Racute" unicode="&#x154;" horiz-adv-x="357" 
d="M-1 0l98 700h153q67 0 87.5 -29.5t12.5 -89.5l-24 -174q-7 -48 -22.5 -74t-48.5 -37l49 -296h-115l-35 292h-6l-41 -292h-108zM191 598l-30 -207h35q21 0 25 22l22 161q4 24 -19 24h-33zM237 885h97l-76 -135h-60z" />
    <glyph glyph-name="racute" unicode="&#x155;" horiz-adv-x="234" 
d="M233 517l-15 -108q-68 11 -78 -57l-49 -352h-102l70 500h57l13 -24q39 41 104 41zM155 685h97l-76 -135h-60z" />
    <glyph glyph-name="Rcommaaccent" unicode="&#x156;" horiz-adv-x="357" 
d="M-1 0l98 700h153q67 0 87.5 -29.5t12.5 -89.5l-24 -174q-7 -48 -22.5 -74t-48.5 -37l49 -296h-115l-35 292h-6l-41 -292h-108zM191 598l-30 -207h35q21 0 25 22l22 161q4 24 -19 24h-33zM75 -48h93l-52 -122h-58z" />
    <glyph glyph-name="rcommaaccent" unicode="&#x157;" horiz-adv-x="234" 
d="M233 517l-15 -108q-68 11 -78 -57l-49 -352h-102l70 500h57l13 -24q39 41 104 41zM-16 -48h93l-52 -122h-58z" />
    <glyph glyph-name="Rcaron" unicode="&#x158;" horiz-adv-x="357" 
d="M-1 0l98 700h153q67 0 87.5 -29.5t12.5 -89.5l-24 -174q-7 -48 -22.5 -74t-48.5 -37l49 -296h-115l-35 292h-6l-41 -292h-108zM191 598l-30 -207h35q21 0 25 22l22 161q4 24 -19 24h-33zM261 750h-82l-35 135h71l17 -49l31 49h72z" />
    <glyph glyph-name="rcaron" unicode="&#x159;" horiz-adv-x="234" 
d="M233 517l-15 -108q-68 11 -78 -57l-49 -352h-102l70 500h57l13 -24q39 41 104 41zM198 552h-82l-35 135h71l17 -49l31 49h72z" />
    <glyph glyph-name="Sacute" unicode="&#x15a;" horiz-adv-x="349" 
d="M127 220l-14 -102q-5 -31 24 -31q27 0 32 31l10 70q7 52 -5 85.5t-33.5 53t-42.5 39.5t-32.5 59t-3.5 98l9 61q17 126 153 126t119 -126l-14 -94h-108l13 93q5 30 -23 30t-33 -30l-8 -57q-6 -44 7 -73t34.5 -46.5t42.5 -39t31.5 -66t1.5 -111.5l-10 -74
q-17 -126 -154 -126q-135 0 -118 126l14 104h108zM239 885h97l-76 -135h-60z" />
    <glyph glyph-name="sacute" unicode="&#x15b;" horiz-adv-x="302" 
d="M102 164l-9 -59q-4 -27 19 -27t27 27l6 40q4 29 -8 49.5t-31.5 34.5t-39 30t-30.5 45.5t-5 71.5l3 17q16 117 139 117q67 0 91 -30t16 -88l-7 -46h-100l7 48q4 28 -19 28t-27 -27l-3 -21q-4 -27 8.5 -47t32 -34t38.5 -29.5t30 -44.5t5 -70l-6 -43q-8 -58 -40.5 -87
t-99.5 -29t-90.5 29t-15.5 87l9 58h100zM180 685h97l-76 -135h-60z" />
    <glyph glyph-name="Scircumflex" unicode="&#x15c;" horiz-adv-x="349" 
d="M127 220l-14 -102q-5 -31 24 -31q27 0 32 31l10 70q7 52 -5 85.5t-33.5 53t-42.5 39.5t-32.5 59t-3.5 98l9 61q17 126 153 126t119 -126l-14 -94h-108l13 93q5 30 -23 30t-33 -30l-8 -57q-6 -44 7 -73t34.5 -46.5t42.5 -39t31.5 -66t1.5 -111.5l-10 -74
q-17 -126 -154 -126q-135 0 -118 126l14 104h108zM207 885h82l36 -135h-72l-17 49l-31 -49h-71z" />
    <glyph glyph-name="scircumflex" unicode="&#x15d;" horiz-adv-x="308" 
d="M102 164l-9 -59q-4 -27 19 -27t27 27l6 40q4 29 -8 49.5t-31.5 34.5t-39 30t-30.5 45.5t-5 71.5l3 17q16 117 139 117q67 0 91 -30t16 -88l-7 -46h-100l7 48q4 28 -19 28t-27 -27l-3 -21q-4 -27 8.5 -47t32 -34t38.5 -29.5t30 -44.5t5 -70l-6 -43q-8 -58 -40.5 -87
t-99.5 -29t-90.5 29t-15.5 87l9 58h100zM158 687h82l36 -135h-72l-17 49l-31 -49h-71z" />
    <glyph glyph-name="Scedilla" unicode="&#x15e;" horiz-adv-x="349" 
d="M65 -81l30 73q-106 11 -90 124l14 104h108l-14 -102q-5 -31 24 -31q27 0 32 31l10 70q7 52 -5 85.5t-33.5 53t-42.5 39.5t-32.5 59t-3.5 98l9 61q17 126 153 126t119 -126l-14 -94h-108l13 93q5 30 -23 30t-33 -30l-8 -57q-6 -44 7 -73t34.5 -46.5t42.5 -39t31.5 -66
t1.5 -111.5l-10 -74q-16 -114 -131 -125l-11 -30q55 -11 47 -62q-4 -33 -25 -51t-71 -18h-58l24 61h29q20 0 21 14q1 7 -2.5 10.5t-14.5 3.5h-20z" />
    <glyph glyph-name="scedilla" unicode="&#x15f;" horiz-adv-x="308" 
d="M34 -81l32 74q-47 6 -63 34.5t-10 78.5l9 58h100l-9 -59q-4 -27 19 -27t27 27l6 40q4 29 -8 49.5t-31.5 34.5t-39 30t-30.5 45.5t-5 71.5l3 17q16 117 139 117q67 0 91 -30t16 -88l-7 -46h-100l7 48q4 28 -19 28t-27 -27l-3 -21q-4 -27 8.5 -47t32 -34t38.5 -29.5
t30 -44.5t5 -70l-6 -43q-7 -54 -36 -82.5t-88 -32.5l-11 -30q55 -11 47 -62q-4 -33 -25 -51t-71 -18h-58l24 61h29q20 0 21 14q1 7 -2.5 10.5t-14.5 3.5h-20z" />
    <glyph glyph-name="Scaron" unicode="&#x160;" horiz-adv-x="349" 
d="M127 220l-14 -102q-5 -31 24 -31q27 0 32 31l10 70q7 52 -5 85.5t-33.5 53t-42.5 39.5t-32.5 59t-3.5 98l9 61q17 126 153 126t119 -126l-14 -94h-108l13 93q5 30 -23 30t-33 -30l-8 -57q-6 -44 7 -73t34.5 -46.5t42.5 -39t31.5 -66t1.5 -111.5l-10 -74
q-17 -126 -154 -126q-135 0 -118 126l14 104h108zM270 750h-82l-35 135h71l17 -49l31 49h72z" />
    <glyph glyph-name="scaron" unicode="&#x161;" horiz-adv-x="308" 
d="M102 164l-9 -59q-4 -27 19 -27t27 27l6 40q4 29 -8 49.5t-31.5 34.5t-39 30t-30.5 45.5t-5 71.5l3 17q16 117 139 117q67 0 91 -30t16 -88l-7 -46h-100l7 48q4 28 -19 28t-27 -27l-3 -21q-4 -27 8.5 -47t32 -34t38.5 -29.5t30 -44.5t5 -70l-6 -43q-8 -58 -40.5 -87
t-99.5 -29t-90.5 29t-15.5 87l9 58h100zM221 552h-82l-35 135h71l17 -49l31 49h72z" />
    <glyph glyph-name="Tcommaaccent" unicode="&#x162;" horiz-adv-x="297" 
d="M237 598l-84 -598h-108l84 598h-76l14 102h260l-14 -102h-76zM45 -48h93l-52 -122h-58z" />
    <glyph glyph-name="tcommaaccent" unicode="&#x163;" horiz-adv-x="252" 
d="M103 627l106 28l-22 -155h67l-13 -90h-67l-42 -303q-4 -29 21 -29q19 0 43 9l-12 -87q-22 -10 -49 -10q-70 0 -92 29t-13 88l42 303h-51l13 90h51zM47 -48h93l-52 -122h-58z" />
    <glyph glyph-name="Tcaron" unicode="&#x164;" horiz-adv-x="297" 
d="M237 598l-84 -598h-108l84 598h-76l14 102h260l-14 -102h-76zM244 750h-82l-35 135h71l17 -49l31 49h72z" />
    <glyph glyph-name="tcaron" unicode="&#x165;" horiz-adv-x="252" 
d="M103 627l106 28l-22 -155h67l-13 -90h-67l-42 -303q-4 -29 21 -29q19 0 43 9l-12 -87q-22 -10 -49 -10q-70 0 -92 29t-13 88l42 303h-51l13 90h51zM241 710h76l-56 -160h-42z" />
    <glyph glyph-name="Tbar" unicode="&#x166;" horiz-adv-x="297" 
d="M33 316l11 76h56l29 206h-76l14 102h260l-14 -102h-76l-29 -206h56l-11 -76h-56l-44 -316h-108l44 316h-56z" />
    <glyph glyph-name="tbar" unicode="&#x167;" horiz-adv-x="252" 
d="M103 627l106 28l-22 -155h67l-13 -90h-67l-17 -122h47l-11 -76h-47l-14 -105q-4 -29 21 -29q19 0 43 9l-12 -87q-22 -10 -49 -10q-70 0 -92 29t-13 88l14 105h-33l11 76h33l17 122h-51l13 90h51z" />
    <glyph glyph-name="Utilde" unicode="&#x168;" horiz-adv-x="369" 
d="M97 700h108l-82 -583q-4 -30 24 -30t32 30l82 583h108l-82 -584q-17 -126 -154 -126q-75 0 -100.5 33t-17.5 93zM287 749q-27 0 -49 16.5t-35 16.5q-17 0 -20 -24h-57q7 55 23 77.5t57 22.5q27 0 48.5 -16.5t34.5 -16.5q18 0 21 24h57q-7 -53 -23.5 -76.5t-56.5 -23.5z
" />
    <glyph glyph-name="utilde" unicode="&#x169;" 
d="M64 500h102l-56 -395q-4 -27 19 -27q24 0 27 27l56 395h102l-70 -500h-57l-14 24q-26 -34 -85 -34q-52 0 -70 27.5t-10 88.5zM243 549q-27 0 -49 16.5t-35 16.5q-17 0 -20 -24h-57q7 55 23 77.5t57 22.5q27 0 48.5 -16.5t34.5 -16.5q18 0 21 24h57q-8 -54 -24 -77
t-56 -23z" />
    <glyph glyph-name="Umacron" unicode="&#x16a;" horiz-adv-x="369" 
d="M97 700h108l-82 -583q-4 -30 24 -30t32 30l82 583h108l-82 -584q-17 -126 -154 -126q-75 0 -100.5 33t-17.5 93zM154 750l11 76h170l-11 -76h-170z" />
    <glyph glyph-name="umacron" unicode="&#x16b;" 
d="M64 500h102l-56 -395q-4 -27 19 -27q24 0 27 27l56 395h102l-70 -500h-57l-14 24q-26 -34 -85 -34q-52 0 -70 27.5t-10 88.5zM110 552l11 76h170l-11 -76h-170z" />
    <glyph glyph-name="Ubreve" unicode="&#x16c;" horiz-adv-x="369" 
d="M97 700h108l-82 -583q-4 -30 24 -30t32 30l82 583h108l-82 -584q-17 -126 -154 -126q-75 0 -100.5 33t-17.5 93zM279 850h63q-15 -108 -104 -108q-88 0 -73 108h61q-4 -34 22 -34q27 0 31 34z" />
    <glyph glyph-name="ubreve" unicode="&#x16d;" 
d="M64 500h102l-56 -395q-4 -27 19 -27q24 0 27 27l56 395h102l-70 -500h-57l-14 24q-26 -34 -85 -34q-52 0 -70 27.5t-10 88.5zM235 652h63q-15 -108 -104 -108q-88 0 -73 108h61q-4 -34 22 -34q27 0 31 34z" />
    <glyph glyph-name="Uring" unicode="&#x16e;" horiz-adv-x="369" 
d="M97 700h108l-82 -583q-4 -30 24 -30t32 30l82 583h108l-82 -584q-17 -126 -154 -126q-75 0 -100.5 33t-17.5 93zM323 818q-10 -77 -85 -77q-74 0 -64 77q12 78 85 78q76 0 64 -78zM265 818q5 24 -13 24q-16 0 -20 -24q-3 -23 13 -23q17 0 20 23z" />
    <glyph glyph-name="uring" unicode="&#x16f;" 
d="M64 500h102l-56 -395q-4 -27 19 -27q24 0 27 27l56 395h102l-70 -500h-57l-14 24q-26 -34 -85 -34q-52 0 -70 27.5t-10 88.5zM279 615q-11 -77 -86 -77q-74 0 -63 77q12 78 85 78q76 0 64 -78zM221 615q3 24 -14 24q-16 0 -19 -24q-3 -23 13 -23q17 0 20 23z" />
    <glyph glyph-name="Uhungarumlaut" unicode="&#x170;" horiz-adv-x="369" 
d="M97 700h108l-82 -583q-4 -30 24 -30t32 30l82 583h108l-82 -584q-17 -126 -154 -126q-75 0 -100.5 33t-17.5 93zM191 885h97l-72 -135h-56zM313 885h97l-86 -135h-57z" />
    <glyph glyph-name="uhungarumlaut" unicode="&#x171;" 
d="M64 500h102l-56 -395q-4 -27 19 -27q24 0 27 27l56 395h102l-70 -500h-57l-14 24q-26 -34 -85 -34q-52 0 -70 27.5t-10 88.5zM147 685h97l-72 -135h-56zM269 685h97l-86 -135h-57z" />
    <glyph glyph-name="Uogonek" unicode="&#x172;" horiz-adv-x="369" 
d="M177 -170h-12q-51 0 -73.5 21t-17.5 54q8 52 55 85q-73 1 -97.5 34t-16.5 92l82 584h108l-82 -583q-4 -30 24 -30t32 30l82 583h108l-82 -584q-14 -94 -89 -117q-34 -26 -39 -56q-1 -9 4.5 -14.5t16.5 -5.5h10z" />
    <glyph glyph-name="uogonek" unicode="&#x173;" 
d="M220 -170h-12q-51 0 -73.5 21t-17.5 54q9 59 70 95l-14 24q-26 -34 -85 -34q-52 0 -70 27.5t-10 88.5l56 394h102l-56 -395q-4 -27 19 -27q24 0 27 27l56 395h102l-70 -500q-37 -28 -42 -57q-1 -9 4.5 -14.5t16.5 -5.5h10z" />
    <glyph glyph-name="Wcircumflex" unicode="&#x174;" horiz-adv-x="547" 
d="M295 508l-116 -508h-131l24 700h109l-41 -518l125 518h114l-21 -518l105 518h109l-171 -700h-132zM306 885h82l36 -135h-72l-17 49l-31 -49h-71z" />
    <glyph glyph-name="wcircumflex" unicode="&#x175;" horiz-adv-x="484" 
d="M228 0l12 344l-83 -344h-121l-2 500h104l-22 -374l94 374h104l-12 -374l84 374h105l-143 -500h-120zM246 687h82l36 -135h-72l-17 49l-31 -49h-71z" />
    <glyph glyph-name="Ycircumflex" unicode="&#x176;" horiz-adv-x="311" 
d="M160 0h-108l36 257l-26 443h113l-11 -281l69 281h113l-150 -443zM188 885h82l36 -135h-72l-17 49l-31 -49h-71z" />
    <glyph glyph-name="ycircumflex" unicode="&#x177;" horiz-adv-x="299" 
d="M-15 -170q-28 0 -44 8l11 89q24 -8 44 -8q30 0 42 42l12 39l-16 500h105l-16 -330l78 330h105l-167 -541q-22 -71 -55.5 -100t-98.5 -29zM154 687h82l36 -135h-72l-17 49l-31 -49h-71z" />
    <glyph glyph-name="Ydieresis" unicode="&#x178;" horiz-adv-x="311" 
d="M160 0h-108l36 257l-26 443h113l-11 -281l69 281h113l-150 -443zM126 856h84l-15 -106h-84zM240 856h84l-15 -106h-84z" />
    <glyph glyph-name="Zacute" unicode="&#x179;" horiz-adv-x="304" 
d="M226 0h-239l9 70l190 528h-118l14 102h236l-10 -70l-189 -528h121zM219 885h97l-76 -135h-60z" />
    <glyph glyph-name="zacute" unicode="&#x17a;" horiz-adv-x="259" 
d="M186 0h-212l9 68l149 338h-99l13 94h207l-10 -68l-146 -338h102zM160 685h97l-76 -135h-60z" />
    <glyph glyph-name="Zdotaccent" unicode="&#x17b;" horiz-adv-x="304" 
d="M226 0h-239l9 70l190 528h-118l14 102h236l-10 -70l-189 -528h121zM172 864h102l-16 -114h-102z" />
    <glyph glyph-name="zdotaccent" unicode="&#x17c;" horiz-adv-x="259" 
d="M186 0h-212l9 68l149 338h-99l13 94h207l-10 -68l-146 -338h102zM121 666h102l-16 -114h-102z" />
    <glyph glyph-name="Zcaron" unicode="&#x17d;" horiz-adv-x="304" 
d="M226 0h-239l9 70l190 528h-118l14 102h236l-10 -70l-189 -528h121zM247 750h-82l-35 135h71l17 -49l31 49h72z" />
    <glyph glyph-name="zcaron" unicode="&#x17e;" horiz-adv-x="259" 
d="M186 0h-212l9 68l149 338h-99l13 94h207l-10 -68l-146 -338h102zM197 552h-82l-35 135h71l17 -49l31 49h72z" />
    <glyph glyph-name="florin" unicode="&#x192;" horiz-adv-x="273" 
d="M16 -32l62 442h-44l13 90h44l14 98q9 62 41.5 92t103.5 30q23 0 45 -8l-13 -88q-18 8 -41 8q-31 0 -34 -34l-14 -98h61l-13 -90h-61l-62 -442q-9 -62 -41.5 -92t-103.5 -30q-23 0 -44 8l12 88q18 -8 40 -8q30 0 35 34z" />
    <glyph glyph-name="Scommaaccent" unicode="&#x218;" horiz-adv-x="349" 
d="M127 220l-14 -102q-5 -31 24 -31q27 0 32 31l10 70q7 52 -5 85.5t-33.5 53t-42.5 39.5t-32.5 59t-3.5 98l9 61q17 126 153 126t119 -126l-14 -94h-108l13 93q5 30 -23 30t-33 -30l-8 -57q-6 -44 7 -73t34.5 -46.5t42.5 -39t31.5 -66t1.5 -111.5l-10 -74
q-17 -126 -154 -126q-135 0 -118 126l14 104h108zM71 -48h93l-52 -122h-58z" />
    <glyph glyph-name="scommaaccent" unicode="&#x219;" horiz-adv-x="308" 
d="M102 164l-9 -59q-4 -27 19 -27t27 27l6 40q4 29 -8 49.5t-31.5 34.5t-39 30t-30.5 45.5t-5 71.5l3 17q16 117 139 117q67 0 91 -30t16 -88l-7 -46h-100l7 48q4 28 -19 28t-27 -27l-3 -21q-4 -27 8.5 -47t32 -34t38.5 -29.5t30 -44.5t5 -70l-6 -43q-8 -58 -40.5 -87
t-99.5 -29t-90.5 29t-15.5 87l9 58h100zM50 -48h93l-52 -122h-58z" />
    <glyph glyph-name="circumflex" unicode="&#x2c6;" horiz-adv-x="288" 
d="M149 687h82l36 -135h-72l-17 49l-31 -49h-71z" />
    <glyph glyph-name="caron" unicode="&#x2c7;" horiz-adv-x="288" 
d="M212 552h-82l-35 135h71l17 -49l31 49h72z" />
    <glyph glyph-name="breve" unicode="&#x2d8;" horiz-adv-x="274" 
d="M204 652h63q-15 -108 -104 -108q-88 0 -73 108h61q-4 -34 22 -34q27 0 31 34z" />
    <glyph glyph-name="dotaccent" unicode="&#x2d9;" horiz-adv-x="199" 
d="M92 666h102l-16 -114h-102z" />
    <glyph glyph-name="ring" unicode="&#x2da;" horiz-adv-x="246" 
d="M234 615q-11 -77 -86 -77q-74 0 -63 77q12 78 85 78q76 0 64 -78zM176 615q3 24 -14 24q-16 0 -19 -24q-3 -23 13 -23q17 0 20 23z" />
    <glyph glyph-name="ogonek" unicode="&#x2db;" horiz-adv-x="210" 
d="M88 -170h-12q-51 0 -73.5 21t-17.5 54q9 59 70 95h57q-37 -28 -42 -57q-1 -9 4.5 -14.5t16.5 -5.5h10z" />
    <glyph glyph-name="tilde" unicode="&#x2dc;" horiz-adv-x="325" 
d="M238 549q-28 0 -50 16.5t-34 16.5q-17 0 -20 -24h-57q7 55 23 77.5t57 22.5q27 0 48.5 -16.5t34.5 -16.5q18 0 21 24h57q-8 -54 -24 -77t-56 -23z" />
    <glyph glyph-name="hungarumlaut" unicode="&#x2dd;" horiz-adv-x="333" 
d="M112 685h97l-72 -135h-56zM234 685h97l-86 -135h-57z" />
    <glyph glyph-name="pi" unicode="&#x3c0;" horiz-adv-x="382" 
d="M384 500l-13 -90h-37l-57 -410h-102l57 410h-67l-57 -410h-102l57 410h-37l13 90h345z" />
    <glyph glyph-name="Bdotaccent" unicode="&#x1e02;" horiz-adv-x="364" 
d="M-1 0l98 700h148q71 0 92.5 -26t12.5 -84l-21 -153q-8 -56 -51 -81q38 -25 31 -84l-21 -151q-9 -60 -38.5 -90.5t-96.5 -30.5h-154zM149 304l-28 -202h38q18 0 21 20l22 159q3 23 -19 23h-34zM191 598l-28 -194h35q21 0 25 24l21 151q3 19 -16 19h-37zM191 864h102
l-16 -114h-102z" />
    <glyph glyph-name="bdotaccent" unicode="&#x1e03;" horiz-adv-x="332" 
d="M156 105l41 289q4 28 -19 28q-22 0 -27 -26l-41 -291q-3 -27 19 -27q23 0 27 27zM299 395l-40 -287q-9 -61 -36 -89.5t-79 -28.5q-56 0 -73 34l-20 -24h-57l99 710h102l-31 -220q25 20 57 20q53 0 70 -27t8 -88zM221 666h102l-16 -114h-102z" />
    <glyph glyph-name="Ddotaccent" unicode="&#x1e0a;" horiz-adv-x="369" 
d="M-1 0l98 700h146q73 0 95.5 -30t12.5 -95l-63 -450q-10 -67 -39.5 -96t-100.5 -29h-149zM191 598l-70 -496h35q21 0 24 22l63 450q4 24 -19 24h-33zM187 864h102l-16 -114h-102z" />
    <glyph glyph-name="ddotaccent" unicode="&#x1e0b;" horiz-adv-x="327" 
d="M146 394l-41 -289q-4 -27 19 -27q24 0 27 27l41 291q5 26 -19 26q-23 0 -27 -28zM3 106l41 290q9 61 32.5 87.5t75.5 26.5q35 0 53 -20l31 220h102l-99 -710h-57l-14 24q-26 -34 -85 -34q-52 0 -70 27.5t-10 88.5zM104 666h102l-16 -114h-102z" />
    <glyph glyph-name="Fdotaccent" unicode="&#x1e1e;" horiz-adv-x="294" 
d="M107 0h-108l98 700h217l-14 -102h-109l-28 -194h93l-14 -100h-93zM175 864h102l-16 -114h-102z" />
    <glyph glyph-name="fdotaccent" unicode="&#x1e1f;" horiz-adv-x="240" 
d="M237 720q23 0 45 -8l-13 -88q-18 8 -41 8q-31 0 -34 -34l-14 -98h61l-13 -90h-61l-57 -410h-102l57 410h-44l13 90h44l14 98q9 62 41.5 92t103.5 30zM142 866h102l-16 -114h-102z" />
    <glyph glyph-name="Mdotaccent" unicode="&#x1e40;" horiz-adv-x="503" 
d="M235 700l-4 -488l134 488h141l-98 -700h-101l85 522l-148 -522h-84l-2 522l-61 -522h-101l98 700h141zM271 864h102l-16 -114h-102z" />
    <glyph glyph-name="mdotaccent" unicode="&#x1e41;" horiz-adv-x="475" 
d="M239 0h-102l55 396q3 26 -19 26q-24 0 -27 -26l-55 -396h-102l70 500h57l13 -24q32 34 85 34q47 0 68 -29q32 29 78 29q52 0 71 -27.5t11 -88.5l-55 -394h-102l55 395q4 27 -19 27q-24 0 -27 -27zM229 666h102l-16 -114h-102z" />
    <glyph glyph-name="Pdotaccent" unicode="&#x1e56;" horiz-adv-x="347" 
d="M-1 0l98 700h153q67 0 87.5 -29.5t12.5 -89.5l-24 -172q-9 -61 -39 -89.5t-98 -28.5h-42l-40 -291h-108zM191 598l-30 -207h35q21 0 25 22l22 161q4 24 -19 24h-33zM193 864h102l-16 -114h-102z" />
    <glyph glyph-name="pdotaccent" unicode="&#x1e57;" 
d="M156 106l41 289q4 27 -19 27q-24 0 -27 -27l-41 -291q-3 -26 19 -26q24 0 27 28zM299 392l-41 -287q-9 -61 -33 -88t-77 -27q-33 0 -51 20l-24 -170h-102l93 660h57l13 -24q26 34 83 34q52 0 71 -28.5t11 -89.5zM161 666h102l-16 -114h-102z" />
    <glyph glyph-name="Sdotaccent" unicode="&#x1e60;" horiz-adv-x="349" 
d="M127 220l-14 -102q-5 -31 24 -31q27 0 32 31l10 70q7 52 -5 85.5t-33.5 53t-42.5 39.5t-32.5 59t-3.5 98l9 61q17 126 153 126t119 -126l-14 -94h-108l13 93q5 30 -23 30t-33 -30l-8 -57q-6 -44 7 -73t34.5 -46.5t42.5 -39t31.5 -66t1.5 -111.5l-10 -74
q-17 -126 -154 -126q-135 0 -118 126l14 104h108zM194 864h102l-16 -114h-102z" />
    <glyph glyph-name="sdotaccent" unicode="&#x1e61;" horiz-adv-x="308" 
d="M102 164l-9 -59q-4 -27 19 -27t27 27l6 40q4 29 -8 49.5t-31.5 34.5t-39 30t-30.5 45.5t-5 71.5l3 17q16 117 139 117q67 0 91 -30t16 -88l-7 -46h-100l7 48q4 28 -19 28t-27 -27l-3 -21q-4 -27 8.5 -47t32 -34t38.5 -29.5t30 -44.5t5 -70l-6 -43q-8 -58 -40.5 -87
t-99.5 -29t-90.5 29t-15.5 87l9 58h100zM146 666h102l-16 -114h-102z" />
    <glyph glyph-name="Tdotaccent" unicode="&#x1e6a;" horiz-adv-x="297" 
d="M237 598l-84 -598h-108l84 598h-76l14 102h260l-14 -102h-76zM168 864h102l-16 -114h-102z" />
    <glyph glyph-name="tdotaccent" unicode="&#x1e6b;" horiz-adv-x="257" 
d="M108 627l106 28l-22 -155h67l-13 -90h-67l-42 -303q-4 -29 21 -29q19 0 43 9l-12 -87q-22 -10 -49 -10q-70 0 -92 29t-13 88l42 303h-51l13 90h51zM131 791h102l-16 -114h-102z" />
    <glyph glyph-name="Wgrave" unicode="&#x1e80;" horiz-adv-x="547" 
d="M295 508l-116 -508h-131l24 700h109l-41 -518l125 518h114l-21 -518l105 518h109l-171 -700h-132zM263 885h97l1 -135h-60z" />
    <glyph glyph-name="wgrave" unicode="&#x1e81;" horiz-adv-x="484" 
d="M228 0l12 344l-83 -344h-121l-2 500h104l-22 -374l94 374h104l-12 -374l84 374h105l-143 -500h-120zM199 685h97l1 -135h-60z" />
    <glyph glyph-name="Wacute" unicode="&#x1e82;" horiz-adv-x="547" 
d="M295 508l-116 -508h-131l24 700h109l-41 -518l125 518h114l-21 -518l105 518h109l-171 -700h-132zM334 885h97l-76 -135h-60z" />
    <glyph glyph-name="wacute" unicode="&#x1e83;" horiz-adv-x="484" 
d="M228 0l12 344l-83 -344h-121l-2 500h104l-22 -374l94 374h104l-12 -374l84 374h105l-143 -500h-120zM275 685h97l-76 -135h-60z" />
    <glyph glyph-name="Wdieresis" unicode="&#x1e84;" horiz-adv-x="547" 
d="M295 508l-116 -508h-131l24 700h109l-41 -518l125 518h114l-21 -518l105 518h109l-171 -700h-132zM244 856h84l-15 -106h-84zM358 856h84l-15 -106h-84z" />
    <glyph glyph-name="wdieresis" unicode="&#x1e85;" horiz-adv-x="484" 
d="M228 0l12 344l-83 -344h-121l-2 500h104l-22 -374l94 374h104l-12 -374l84 374h105l-143 -500h-120zM185 658h84l-15 -106h-84zM299 658h84l-15 -106h-84z" />
    <glyph glyph-name="Ygrave" unicode="&#x1ef2;" horiz-adv-x="311" 
d="M160 0h-108l36 257l-26 443h113l-11 -281l69 281h113l-150 -443zM141 885h97l1 -135h-60z" />
    <glyph glyph-name="ygrave" unicode="&#x1ef3;" horiz-adv-x="299" 
d="M-15 -170q-28 0 -44 8l11 89q24 -8 44 -8q30 0 42 42l12 39l-16 500h105l-16 -330l78 330h105l-167 -541q-22 -71 -55.5 -100t-98.5 -29zM111 685h97l1 -135h-60z" />
    <glyph glyph-name="endash" unicode="&#x2013;" 
d="M18 242l10 76h270l-10 -76h-270z" />
    <glyph glyph-name="emdash" unicode="&#x2014;" horiz-adv-x="497" 
d="M19 254l8 52h430l-8 -52h-430z" />
    <glyph glyph-name="quoteleft" unicode="&#x2018;" horiz-adv-x="170" 
d="M81 710h105l-31 -225h-60z" />
    <glyph glyph-name="quoteright" unicode="&#x2019;" horiz-adv-x="167" 
d="M83 710h105l-76 -225h-60z" />
    <glyph glyph-name="quotesinglbase" unicode="&#x201a;" horiz-adv-x="190" 
d="M10 117h105l-77 -225h-60z" />
    <glyph glyph-name="quotedblleft" unicode="&#x201c;" horiz-adv-x="292" 
d="M83 710h105l-31 -225h-60zM203 710h105l-31 -225h-60z" />
    <glyph glyph-name="quotedblright" unicode="&#x201d;" horiz-adv-x="292" 
d="M203 710h105l-76 -225h-60zM83 710h105l-76 -225h-60z" />
    <glyph glyph-name="quotedblbase" unicode="&#x201e;" horiz-adv-x="308" 
d="M128 117h105l-77 -225h-60zM8 117h105l-77 -225h-60z" />
    <glyph glyph-name="dagger" unicode="&#x2020;" horiz-adv-x="225" 
d="M64 572l7 48h54l12 90h51l-12 -90h54l-7 -48h-54l-32 -224h-51l32 224h-54z" />
    <glyph glyph-name="daggerdbl" unicode="&#x2021;" horiz-adv-x="225" 
d="M45 438l7 48h54l12 86h-54l7 48h54l12 90h51l-12 -90h54l-7 -48h-54l-12 -86h54l-7 -48h-54l-13 -90h-51l13 90h-54z" />
    <glyph glyph-name="bullet" unicode="&#x2022;" horiz-adv-x="237" 
d="M23 283q5 35 33.5 60t63.5 25t56.5 -25t16.5 -60q-4 -35 -33 -60t-64 -25t-56.5 25t-16.5 60z" />
    <glyph glyph-name="ellipsis" unicode="&#x2026;" horiz-adv-x="501" 
d="M10 114h102l-16 -114h-102zM171 114h102l-16 -114h-102zM332 114h102l-16 -114h-102z" />
    <glyph glyph-name="perthousand" unicode="&#x2030;" horiz-adv-x="533" 
d="M437 700l-378 -700h-69l378 700h69zM165 710q47 0 63 -24.5t9 -74.5l-12 -90q-7 -50 -29.5 -74t-70.5 -24t-63.5 24t-8.5 74l12 90q7 50 30 74.5t70 24.5zM134 490q19 0 23 30l13 92q3 31 -14 31q-19 0 -22 -31l-13 -92q-4 -30 13 -30zM292 210q-18 0 -22 -30l-13 -92
q-4 -31 14 -31t22 31l13 92q4 30 -14 30zM396 210q-18 0 -22 -30l-13 -92q-4 -31 14 -31t22 31l13 92q4 30 -14 30zM365 -10q-33 0 -50 17q-20 -17 -54 -17q-47 0 -63 24.5t-9 74.5l13 90q7 50 29.5 74t69.5 24q35 0 50 -17q22 17 54 17q48 0 64 -24t9 -74l-13 -90
q-7 -50 -30 -74.5t-70 -24.5z" />
    <glyph glyph-name="guilsinglleft" unicode="&#x2039;" horiz-adv-x="267" 
d="M19 250l131 185h95l-128 -185l76 -185h-95z" />
    <glyph glyph-name="guilsinglright" unicode="&#x203a;" horiz-adv-x="267" 
d="M140 435l79 -185l-131 -185h-95l128 185l-76 185h95z" />
    <glyph glyph-name="Euro" unicode="&#x20ac;" horiz-adv-x="390" 
d="M256 376h-75l-6 -46h65l-19 -54h-54l-22 -157q-5 -32 24 -32q27 0 32 32l14 101h106l-14 -102q-8 -61 -43 -94.5t-109 -33.5q-136 0 -118 128l22 158h-33l8 54h33l6 46h-33l8 54h33l21 152q19 128 154 128q74 0 99.5 -34t16.5 -94l-13 -92h-106l13 92q5 31 -23 31
t-33 -31l-21 -152h88z" />
    <glyph glyph-name="trademark" unicode="&#x2122;" horiz-adv-x="333" 
d="M139 669l-24 -169h-31l24 169h-35l4 31h100l-4 -31h-34zM256 536h-16l-16 92l-18 -128h-30l28 200h33l19 -107l49 107h33l-28 -200h-30l18 128z" />
    <glyph glyph-name="onethird" unicode="&#x2153;" horiz-adv-x="222" 
d="M45 368h135l-5 -37h-135zM99 179l9 66q2 12 -9 12q-12 0 -14 -12l-5 -35h-45l5 35q7 53 64 53q56 0 49 -53l-9 -62q-3 -24 -24 -33q19 -11 16 -34l-10 -67q-7 -53 -64 -53q-56 0 -49 53l6 39h44l-5 -38q-3 -13 10 -13q11 0 12 12l10 69q2 10 -8 10h-18l6 42h18q10 0 11 9
zM183 700l-35 -251h25l-6 -43h-96l6 43h25l27 192h-24l4 32q32 0 36 27h38z" />
    <glyph glyph-name="twothirds" unicode="&#x2154;" horiz-adv-x="222" 
d="M45 368h135l-5 -37h-135zM210 651l-5 -34q-4 -30 -17.5 -51.5t-27.5 -33t-27.5 -31.5t-17.5 -47v-5h69l-6 -43h-114l6 43q5 36 19 61.5t27.5 36.5t26.5 28.5t16 40.5l5 35q2 12 -9 12q-12 0 -14 -12l-5 -35h-45l5 35q7 53 64 53t50 -53zM99 179l9 66q2 12 -9 12
q-12 0 -14 -12l-5 -35h-45l5 35q7 53 64 53q56 0 49 -53l-9 -62q-3 -24 -24 -33q19 -11 16 -34l-10 -67q-7 -53 -64 -53q-56 0 -49 53l6 39h44l-5 -38q-3 -13 10 -13q11 0 12 12l10 69q2 10 -8 10h-18l6 42h18q10 0 11 9z" />
    <glyph glyph-name="oneeighth" unicode="&#x215b;" horiz-adv-x="222" 
d="M45 368h136l-5 -37h-136zM183 700l-35 -251h25l-6 -43h-96l6 43h25l27 192h-24l4 32q32 0 36 27h38zM61 -4q-57 0 -50 53l10 67q3 22 25 34q-18 8 -15 33l9 62q7 53 63 53t49 -53l-9 -62q-3 -24 -23 -33q18 -11 15 -34l-10 -67q-7 -53 -64 -53zM84 245l-9 -65
q-2 -12 10 -12t14 12l9 65q2 12 -10 12t-14 -12zM66 118l-10 -69q-2 -12 11 -12q11 0 13 12l10 69q2 12 -10 12t-14 -12z" />
    <glyph glyph-name="threeeighths" unicode="&#x215c;" horiz-adv-x="222" 
d="M45 368h135l-5 -37h-135zM155 585l9 66q2 12 -9 12q-12 0 -14 -12l-5 -35h-45l5 35q7 53 64 53q56 0 49 -53l-9 -62q-3 -24 -24 -33q19 -11 16 -34l-10 -67q-7 -53 -64 -53q-56 0 -49 53l6 39h44l-5 -38q-3 -13 10 -13q11 0 12 12l10 69q2 10 -7 10h-18l5 42h18
q10 0 11 9zM61 -4q-57 0 -50 53l10 67q3 22 25 34q-18 8 -15 33l9 62q7 53 63 53t49 -53l-9 -62q-3 -24 -23 -33q18 -11 15 -34l-10 -67q-7 -53 -64 -53zM84 245l-9 -65q-2 -12 10 -12t14 12l9 65q2 12 -10 12t-14 -12zM66 118l-10 -69q-2 -12 11 -12q11 0 13 12l10 69
q2 12 -10 12t-14 -12z" />
    <glyph glyph-name="fiveeighths" unicode="&#x215d;" horiz-adv-x="222" 
d="M47 368h135l-5 -37h-135zM134 455l12 83q2 10 -7 10q-10 0 -21 -9h-37l31 161h98l-6 -43h-58l-15 -76q10 4 21 4q47 0 40 -46l-12 -84q-7 -53 -64 -53t-50 53l6 39h45l-5 -38q-3 -13 10 -13q11 0 12 12zM62 -4q-57 0 -50 53l10 67q3 22 25 34q-18 8 -15 33l9 62
q7 53 63 53t49 -53l-9 -62q-3 -24 -23 -33q18 -11 15 -34l-10 -67q-7 -53 -64 -53zM85 245l-9 -65q-2 -12 10 -12t14 12l9 65q2 12 -10 12t-14 -12zM67 118l-10 -69q-2 -12 11 -12q11 0 13 12l10 69q2 12 -10 12t-14 -12z" />
    <glyph glyph-name="seveneighths" unicode="&#x215e;" horiz-adv-x="222" 
d="M45 368h135l-5 -37h-135zM139 406h-50q18 134 74 251h-64l6 43h106l-5 -35q-30 -76 -42 -121t-25 -138zM62 -4q-57 0 -50 53l10 67q3 22 25 34q-18 8 -15 33l9 62q7 53 63 53t49 -53l-9 -62q-3 -24 -23 -33q18 -11 15 -34l-10 -67q-7 -53 -64 -53zM85 245l-9 -65
q-2 -12 10 -12t14 12l9 65q2 12 -10 12t-14 -12zM67 118l-10 -69q-2 -12 11 -12q11 0 13 12l10 69q2 12 -10 12t-14 -12z" />
    <glyph glyph-name="partialdiff" unicode="&#x2202;" horiz-adv-x="352" 
d="M143 297l-25 -183q-5 -29 20 -29t30 29l25 183q5 29 -22 29q-24 0 -28 -29zM208 405q9 92 -10 157t-70 138h110q53 -75 67.5 -150t-0.5 -185l-35 -251q-18 -124 -145 -124t-109 124l26 188q16 117 113 117q32 0 53 -14z" />
    <glyph glyph-name="minus" unicode="&#x2212;" horiz-adv-x="347" 
d="M298 318l-10 -76h-260l10 76h260z" />
    <glyph glyph-name="integral" unicode="&#x222b;" horiz-adv-x="276" 
d="M223 598l-89 -630q-9 -62 -41.5 -92t-102.5 -30q-24 0 -45 8l12 88q19 -8 41 -8q29 0 34 34l89 630q9 62 41.5 92t103.5 30q23 0 45 -8l-13 -88q-18 8 -41 8q-31 0 -34 -34z" />
    <glyph glyph-name="approxequal" unicode="&#x2248;" horiz-adv-x="347" 
d="M37 311l11 76q29 26 69 26q31 0 61 -19t63 -19q37 0 69 28l-11 -76q-32 -28 -68 -28q-33 0 -63.5 19t-61.5 19q-40 0 -69 -26zM16 158l10 76q29 26 69 26q31 0 61.5 -19t63.5 -19q37 0 69 28l-11 -76q-32 -28 -69 -28q-33 0 -63.5 19t-61.5 19q-39 0 -68 -26z" />
    <glyph glyph-name="notequal" unicode="&#x2260;" horiz-adv-x="347" 
d="M277 166h-134q-11 -23 -29.5 -66.5t-22.5 -53.5h-63q4 10 23 53.5t29 66.5h-63l11 76h86l33 76h-109l11 76h132l54 120h63l-54 -120h65l-11 -76h-88l-33 -76h111z" />
    <glyph glyph-name="lessequal" unicode="&#x2264;" horiz-adv-x="263" 
d="M12 166h181l-11 -76h-181zM31 338l114 145h90l-114 -145l74 -145h-90z" />
    <glyph glyph-name="greaterequal" unicode="&#x2265;" horiz-adv-x="263" 
d="M17 166h181l-11 -76h-181zM153 483l74 -145l-114 -145h-90l114 145l-74 145h90z" />
    <glyph glyph-name="CR" horiz-adv-x="0" 
 />
    <glyph glyph-name="at.case" horiz-adv-x="519" 
d="M284 421l8 57q2 19 -15 19t-19 -19l-5 -30h-72l5 30q12 90 102 90q51 0 68 -23.5t11 -67.5l-47 -329h-44q-1 2 -4.5 7t-6.5 8q-20 -26 -53 -26q-78 0 -66 87l11 81q7 48 32 71.5t95 44.5zM232 305l-11 -79q-3 -21 15 -21q17 0 20 21l20 137q-37 -17 -44 -58zM216 46
q85 0 122 43.5t48 122.5l39 276q11 79 -13.5 122.5t-110.5 43.5q-45 0 -77 -12.5t-50 -36.5t-28 -51.5t-15 -65.5l-39 -276q-11 -80 14 -123t110 -43zM207 -20q-119 0 -159 61t-25 171l39 276q16 110 73.5 171t175.5 61q117 0 158 -61t25 -171l-39 -276q-15 -109 -72 -170.5
t-176 -61.5z" />
    <glyph glyph-name="caron.salt" horiz-adv-x="173" 
d="M98 710h76l-56 -160h-42z" />
    <glyph glyph-name="commaaccent" horiz-adv-x="190" 
d="M-8 -48h93l-52 -122h-58z" />
    <glyph glyph-name="acute.case" horiz-adv-x="214" 
d="M143 885h97l-76 -135h-60z" />
    <glyph glyph-name="grave.case" horiz-adv-x="214" 
d="M123 885h97l1 -135h-60z" />
    <glyph glyph-name="circumflex.case" horiz-adv-x="288" 
d="M177 885h82l36 -135h-72l-17 49l-31 -49h-71z" />
    <glyph glyph-name="dieresis.case" horiz-adv-x="295" 
d="M119 856h84l-15 -106h-84zM233 856h84l-15 -106h-84z" />
    <glyph glyph-name="tilde.case" horiz-adv-x="325" 
d="M266 749q-28 0 -50 16.5t-34 16.5q-17 0 -20 -24h-57q7 55 23 77.5t57 22.5q27 0 48.5 -16.5t34.5 -16.5q18 0 21 24h57q-7 -53 -23.5 -76.5t-56.5 -23.5z" />
    <glyph glyph-name="caron.case" horiz-adv-x="288" 
d="M240 750h-82l-35 135h71l17 -49l31 49h72z" />
    <glyph glyph-name="ring.case" horiz-adv-x="246" 
d="M262 818q-10 -77 -85 -77q-74 0 -64 77q12 78 85 78q76 0 64 -78zM204 818q4 24 -13 24q-15 0 -20 -24q-3 -23 13 -23q17 0 20 23z" />
    <glyph glyph-name="breve.case" horiz-adv-x="274" 
d="M232 850h63q-15 -108 -104 -108q-88 0 -73 108h61q-4 -34 22 -34q27 0 31 34z" />
    <glyph glyph-name="macron.case" horiz-adv-x="267" 
d="M104 750l11 76h170l-11 -76h-170z" />
    <glyph glyph-name="dotaccent.case" horiz-adv-x="199" 
d="M120 864h102l-16 -114h-102z" />
    <glyph glyph-name="hungarumlaut.case" horiz-adv-x="333" 
d="M140 885h97l-72 -135h-56zM262 885h97l-86 -135h-57z" />
    <glyph glyph-name="one.tnum" horiz-adv-x="360" 
d="M286 700l-84 -598h61l-14 -102h-230l14 102h61l64 458h-57l11 75q38 0 59 18.5t25 46.5h90z" />
    <glyph glyph-name="two.tnum" horiz-adv-x="360" 
d="M346 584l-12 -81q-8 -59 -30.5 -102.5t-49.5 -71.5t-54 -54.5t-49 -67t-29 -93.5l-2 -12h162l-14 -102h-270l14 103q10 71 33.5 122.5t51 81t54 55t47.5 60t28 79.5l12 83q3 29 -24 29q-29 0 -32 -29l-12 -84h-106l12 84q8 60 42.5 93t108.5 33q75 0 101 -33t18 -93z" />
    <glyph glyph-name="three.tnum" horiz-adv-x="360" 
d="M216 426l23 158q3 29 -24 29q-29 0 -32 -29l-12 -84h-106l12 84q8 60 42.5 93t108.5 33q75 0 100 -33t17 -93l-21 -148q-9 -58 -58 -80q46 -25 37 -80l-22 -160q-17 -126 -154 -126q-74 0 -99 33t-17 93l13 94h106l-13 -92q-4 -31 24 -31t32 30l23 164q3 23 -19 23h-42
l14 100h42q22 0 25 22z" />
    <glyph glyph-name="four.tnum" horiz-adv-x="360" 
d="M133 0l19 139h-151l15 109l168 452h153l-65 -463h41l-14 -98h-41l-19 -139h-106zM100 237h66l16 117q19 135 37 237z" />
    <glyph glyph-name="five.tnum" horiz-adv-x="360" 
d="M173 117l28 198q3 22 -19 22q-25 0 -48 -21h-88l73 384h234l-14 -102h-140l-34 -182q26 11 50 11q57 0 79.5 -26.5t14.5 -84.5l-28 -200q-17 -126 -154 -126q-74 0 -99 33t-17 93l13 94h106l-13 -92q-4 -31 24 -31t32 30z" />
    <glyph glyph-name="six.tnum" horiz-adv-x="360" 
d="M221 613q-29 0 -33 -29l-27 -189q25 14 59 14q107 0 91 -114l-25 -177q-18 -128 -154 -128t-118 128l65 465q18 127 154 127q134 0 116 -127l-11 -83h-106l12 84q4 29 -23 29zM146 287l-24 -171q-5 -29 24 -29q27 0 32 29l24 171q3 29 -24 29q-29 0 -32 -29z" />
    <glyph glyph-name="seven.tnum" horiz-adv-x="360" 
d="M179 0h-119q45 323 177 598h-155l14 102h257l-12 -84q-74 -183 -103 -289.5t-59 -326.5z" />
    <glyph glyph-name="eight.tnum" horiz-adv-x="360" 
d="M129 -10q-75 0 -100.5 33t-17.5 93l22 160q9 56 61 80q-45 23 -36 80l21 148q8 60 42.5 93t108.5 33q75 0 100 -33t17 -93l-21 -148q-9 -58 -58 -80q46 -25 37 -80l-22 -160q-17 -126 -154 -126zM185 584l-22 -156q-5 -29 24 -29q27 0 32 29l22 156q3 29 -24 29
q-29 0 -32 -29zM142 281l-23 -165q-5 -29 24 -29q27 0 32 29l23 165q3 29 -24 29q-29 0 -32 -29z" />
    <glyph glyph-name="nine.tnum" horiz-adv-x="360" 
d="M142 87q29 0 33 29l28 199q-25 -14 -59 -14q-107 0 -91 114l23 167q18 128 154 128t118 -128l-65 -465q-18 -127 -154 -127t-118 127l13 93h108l-13 -94q-4 -29 23 -29zM218 423l23 161q3 29 -24 29q-29 0 -32 -29l-23 -161q-3 -29 24 -29q29 0 32 29z" />
    <glyph glyph-name="zero.tnum" horiz-adv-x="360" 
d="M143 87q28 0 32 31l65 465q5 30 -23 30t-33 -30l-65 -465q-4 -31 24 -31zM129 -10q-75 0 -100.5 33.5t-17.5 93.5l65 466q9 60 44 93.5t110 33.5q137 0 118 -127l-65 -466q-17 -127 -154 -127z" />
    <glyph glyph-name="a.smcp" horiz-adv-x="328" 
d="M-31 0l160 595h137l-6 -595h-105l6 113h-63l-24 -113h-105zM140 288l-19 -84h43l5 84q7 121 15 208h-1q-32 -159 -43 -208z" />
    <glyph glyph-name="b.smcp" horiz-adv-x="353" 
d="M-1 0l83 595h142q67 0 88 -23.5t14 -73.5l-17 -127q-7 -47 -48 -68q38 -23 31 -72l-18 -125q-7 -51 -35 -78.5t-92 -27.5h-148zM138 255l-22 -160h36q18 0 19 17l18 124q3 19 -19 19h-32zM173 500l-22 -154h33q20 0 23 21l17 117q1 16 -16 16h-35z" />
    <glyph glyph-name="c.smcp" horiz-adv-x="336" 
d="M173 187h101l-11 -77q-17 -119 -145 -119q-131 0 -114 119l53 375q15 118 147 118q127 0 112 -118l-10 -69h-101l10 69q2 11 -4 19.5t-19 8.5t-21 -8.5t-10 -19.5l-53 -374q-3 -29 23 -29q28 0 31 29z" />
    <glyph glyph-name="d.smcp" horiz-adv-x="358" 
d="M-1 0l83 595h140q70 0 92 -26t14 -81l-52 -372q-8 -58 -37.5 -87t-96.5 -29h-143zM173 500l-57 -405h33q21 0 22 18l52 367q3 20 -19 20h-31z" />
    <glyph glyph-name="e.smcp" horiz-adv-x="299" 
d="M138 255l-22 -160h108l-13 -95h-212l83 595h212l-13 -95h-108l-22 -154h95l-13 -91h-95z" />
    <glyph glyph-name="f.smcp" horiz-adv-x="290" 
d="M103 0h-104l83 595h208l-13 -95h-104l-22 -154h89l-13 -91h-89z" />
    <glyph glyph-name="g.smcp" horiz-adv-x="348" 
d="M160 255l13 91h130l-33 -236q-17 -119 -147 -119q-131 0 -114 119l53 375q15 118 147 118q129 0 114 -118l-10 -69h-103l10 70q4 27 -23 27t-31 -27l-53 -375q-3 -29 23 -29q28 0 31 29l20 144h-27z" />
    <glyph glyph-name="h.smcp" horiz-adv-x="358" 
d="M138 255l-35 -255h-104l83 595h104l-35 -249h53l35 249h104l-83 -595h-104l35 255h-53z" />
    <glyph glyph-name="i.smcp" horiz-adv-x="201" 
d="M-1 0l83 595h104l-83 -595h-104z" />
    <glyph glyph-name="j.smcp" horiz-adv-x="327" 
d="M214 595h103l-68 -485q-17 -119 -144 -119q-128 0 -111 119l11 77h102l-11 -76q-3 -29 21 -29q26 0 29 29z" />
    <glyph glyph-name="k.smcp" horiz-adv-x="344" 
d="M186 595l-39 -264l98 264h113l-130 -295l53 -300h-112l-31 270l-35 -270h-104l83 595h104z" />
    <glyph glyph-name="l.smcp" horiz-adv-x="257" 
d="M-1 0l83 595h104l-70 -500h86l-13 -95h-190z" />
    <glyph glyph-name="m.smcp" horiz-adv-x="493" 
d="M217 595l5 -412l120 412h136l-83 -595h-97l72 437l-133 -437h-80l-11 437l-50 -437h-97l83 595h135z" />
    <glyph glyph-name="n.smcp" horiz-adv-x="384" 
d="M184 0l-43 379q-14 -167 -31 -293l-12 -86h-99l83 595h105l42 -372q8 133 26 267l15 105h99l-83 -595h-102z" />
    <glyph glyph-name="o.smcp" horiz-adv-x="348" 
d="M136 82q28 0 31 29l53 374q4 28 -23 28t-31 -28l-53 -374q-3 -29 23 -29zM123 -9q-131 0 -114 119l53 374q15 119 147 119q129 0 114 -119l-53 -374q-17 -119 -147 -119z" />
    <glyph glyph-name="p.smcp" horiz-adv-x="336" 
d="M-1 0l83 595h147q65 0 85 -25.5t13 -75.5l-21 -152q-8 -52 -36.5 -76.5t-93.5 -24.5h-40l-33 -241h-104zM173 500l-24 -168h33q20 0 23 19l18 129q3 20 -19 20h-31z" />
    <glyph glyph-name="q.smcp" horiz-adv-x="348" 
d="M202 -82h-21q-52 0 -76 18.5t-21 57.5q-89 13 -75 116l53 375q15 118 147 118q129 0 114 -118l-53 -375q-15 -104 -110 -116q1 -21 30 -21h35zM136 82q28 0 31 29l53 374q4 28 -23 28t-31 -28l-53 -374q-5 -29 23 -29z" />
    <glyph glyph-name="r.smcp" horiz-adv-x="345" 
d="M-1 0l83 595h147q64 0 84 -28.5t13 -80.5l-20 -140q-6 -43 -19.5 -66t-45.5 -32l51 -248h-111l-39 244h-5l-34 -244h-104zM173 500l-24 -168h33q20 0 23 19l18 129q3 20 -19 20h-31z" />
    <glyph glyph-name="s.smcp" horiz-adv-x="329" 
d="M114 187l-11 -79q-5 -28 23 -28q26 0 31 28l7 52q6 44 -6.5 73t-33.5 45t-41.5 33.5t-32 50.5t-4.5 83l6 43q7 51 43 83t104 32t95 -32t20 -83l-10 -72h-104l10 72q4 27 -23 27t-31 -27l-6 -41q-4 -32 4.5 -55t24 -35t34 -27.5t33.5 -33.5t22 -52t0 -83l-7 -54
q-7 -51 -43.5 -83.5t-104.5 -32.5t-94.5 32.5t-19.5 83.5l11 80h104z" />
    <glyph glyph-name="t.smcp" horiz-adv-x="287" 
d="M216 500l-70 -500h-104l70 500h-73l13 95h250l-13 -95h-73z" />
    <glyph glyph-name="u.smcp" horiz-adv-x="358" 
d="M82 595h104l-68 -486q-5 -27 23 -27q25 0 30 27l68 486h104l-68 -486q-17 -118 -147 -118q-131 0 -114 118z" />
    <glyph glyph-name="v.smcp" horiz-adv-x="323" 
d="M339 595l-164 -595h-126l2 595h107l-13 -253l-16 -217l47 217l57 253h106z" />
    <glyph glyph-name="w.smcp" horiz-adv-x="527" 
d="M274 432l-103 -432h-126l12 595h105l-32 -440l112 440h110l-12 -440l92 440h105l-153 -595h-127z" />
    <glyph glyph-name="x.smcp" horiz-adv-x="315" 
d="M166 414l56 181h111l-125 -286l49 -309h-111l-10 205l-65 -205h-112l136 309l-46 286h111z" />
    <glyph glyph-name="y.smcp" horiz-adv-x="300" 
d="M153 0h-104l30 218l-32 377h109l-7 -249l63 249h108l-137 -377z" />
    <glyph glyph-name="z.smcp" horiz-adv-x="294" 
d="M216 0h-230l9 67l172 433h-113l13 95h226l-9 -68l-171 -432h116z" />
    <glyph glyph-name="one.smcp" horiz-adv-x="278" 
d="M224 595l-70 -500h59l-13 -95h-221l13 95h58l52 373h-54l10 72q36 0 56.5 15.5t23.5 39.5h86z" />
    <glyph glyph-name="two.smcp" horiz-adv-x="325" 
d="M311 486l-8 -58q-7 -50 -28 -87t-46.5 -59.5t-51 -44.5t-46 -55.5t-26.5 -78.5l-1 -8h156l-13 -95h-260l13 96q8 60 30 103t47.5 67t50.5 44t45 48.5t25 67.5l9 60q4 27 -23 27t-31 -27l-9 -61h-101l9 61q17 117 144 117q132 0 115 -117z" />
    <glyph glyph-name="three.smcp" horiz-adv-x="342" 
d="M196 365l17 121q4 27 -23 27t-31 -27l-9 -61h-102l9 61q17 117 145 117q130 0 113 -117l-16 -115q-7 -49 -55 -68q44 -22 38 -68l-18 -126q-17 -118 -148 -118q-129 0 -112 118l10 69h102l-10 -68q-5 -28 23 -28q26 0 31 27l18 127q2 19 -19 19h-41l13 91h41q21 0 24 19z
" />
    <glyph glyph-name="four.smcp" horiz-adv-x="323" 
d="M114 0l16 115h-145l14 99l153 381h147l-55 -391h39l-12 -89h-39l-16 -115h-102zM79 204h63l14 97q15 112 31 201z" />
    <glyph glyph-name="five.smcp" 
d="M160 109l22 159q3 18 -18 18q-26 0 -46 -17h-85l64 326h225l-13 -95h-136l-27 -140q25 9 48 9q54 0 77 -22.5t16 -71.5l-23 -166q-17 -118 -148 -118q-129 0 -112 118l10 69h102l-10 -68q-5 -28 23 -28q26 0 31 27z" />
    <glyph glyph-name="six.smcp" horiz-adv-x="348" 
d="M198 513q-29 0 -32 -27l-21 -149q22 12 57 12q102 0 88 -95l-20 -144q-7 -53 -43.5 -86t-103.5 -33t-94 33t-20 86l53 376q7 52 43.5 84.5t103.5 32.5q66 0 92.5 -32.5t19.5 -84.5l-9 -61h-101l9 61q1 13 -5.5 20t-16.5 7zM131 240l-18 -131q-4 -27 23 -27t31 27l18 131
q2 11 -4 19t-19 8q-27 0 -31 -27z" />
    <glyph glyph-name="seven.smcp" horiz-adv-x="274" 
d="M140 0h-114q39 282 152 500h-139l13 95h237l-11 -79q-65 -149 -88 -235.5t-50 -280.5z" />
    <glyph glyph-name="eight.smcp" horiz-adv-x="348" 
d="M123 -9q-131 0 -114 118l17 123q8 50 57 71q-43 19 -35 72l16 111q17 117 145 117q129 0 112 -117l-16 -111q-8 -54 -55 -72q45 -22 37 -71l-17 -123q-17 -118 -147 -118zM166 486l-17 -118q-4 -27 23 -27t31 27l17 118q4 27 -23 27t-31 -27zM131 235l-18 -126
q-4 -27 23 -27t31 27l18 126q2 26 -24 26q-13 0 -21 -7.5t-9 -18.5z" />
    <glyph glyph-name="nine.smcp" horiz-adv-x="348" 
d="M135 82q28 0 32 27l22 158q-24 -12 -57 -12q-103 0 -89 97l19 133q7 53 43.5 85.5t103.5 32.5t94 -32.5t20 -85.5l-53 -376q-7 -52 -43.5 -85t-103.5 -33t-94 33t-20 85l10 69h104l-10 -69q-4 -27 22 -27zM203 363l17 123q4 27 -23 27t-31 -27l-17 -123q-2 -12 4 -20
t19 -8q25 0 31 28z" />
    <glyph glyph-name="zero.smcp" horiz-adv-x="348" 
d="M136 82q26 0 31 28l53 376q2 11 -4 19t-19 8q-27 0 -31 -27l-53 -376q-5 -28 23 -28zM123 -9q-131 0 -114 118l53 377q17 117 147 117q131 0 114 -117l-53 -377q-17 -118 -147 -118z" />
    <glyph glyph-name="exclam.smcp" horiz-adv-x="211" 
d="M78 595h121l-82 -408h-71zM21 114h102l-16 -114h-102z" />
    <glyph glyph-name="exclamdown.smcp" horiz-adv-x="211" 
d="M116 0h-121l82 408h71zM174 481h-102l16 114h102z" />
    <glyph glyph-name="question.smcp" horiz-adv-x="343" 
d="M203 439l5 37q4 25 -20 25q-23 0 -28 -25l-6 -43h-104l7 50q17 120 145 120q65 0 92 -32t19 -88l-5 -41q-6 -39 -18 -63.5t-26.5 -39t-29.5 -30t-30 -46t-24 -76.5h-69q-4 57 8 96t28.5 55.5t34 42.5t21.5 58zM86 114h102l-16 -114h-102z" />
    <glyph glyph-name="questiondown.smcp" horiz-adv-x="343" 
d="M121 156l-5 -37q-3 -25 21 -25t27 25l6 43h104l-7 -50q-17 -120 -145 -120q-65 0 -92 32t-19 88l6 41q6 39 17.5 63.5t26 39t29.5 30t30 46t25 76.5h69q1 -39 -3 -67q-4 -33 -17.5 -58.5t-27.5 -39.5t-27.5 -37t-17.5 -50zM239 481h-102l16 114h102z" />
    <glyph glyph-name="ampersand.smcp" horiz-adv-x="381" 
d="M282 0q-47 0 -69 17q-28 -25 -84 -25q-65 0 -91.5 31.5t-18.5 83.5l18 128q5 41 53 68q-38 19 -31 68l16 115q17 117 141 117q127 0 110 -117l-10 -70h-101l10 70q4 27 -21 27t-29 -27l-17 -121q-3 -19 19 -19h168l-13 -91h-39l-18 -132q-4 -27 20 -27h15l-13 -96h-15z
M142 83q25 0 28 26l20 146h-26q-22 0 -24 -19l-18 -127q-3 -26 20 -26z" />
    <glyph glyph-name="slash.smcp" horiz-adv-x="275" 
d="M-31 -26l245 646h77l-245 -646h-77z" />
    <glyph glyph-name="backslash.smcp" horiz-adv-x="275" 
d="M133 620l63 -646h-73l-63 646h73z" />
    <glyph glyph-name="dollar.smcp" horiz-adv-x="339" 
d="M131 235l-8 -51q-3 -24 19 -24t25 24l5 34q3 23 -9 40t-30.5 29t-37 26t-29.5 39.5t-6 61.5l2 14q12 91 103 102l9 65h61l-9 -65q84 -11 72 -102l-6 -40h-96l6 41q3 25 -19 25t-25 -24l-3 -18q-3 -21 9 -37.5t31 -28.5t38 -26t30 -39t6 -60l-6 -37q-11 -88 -100 -99
l-11 -85h-61l11 84q-87 9 -75 100l8 51h96z" />
    <glyph glyph-name="cent.smcp" horiz-adv-x="344" 
d="M180 248h95l-8 -63q-14 -92 -102 -101l-11 -84h-61l11 84q-88 9 -74 101l34 243q12 90 103 101l9 66h61l-9 -66q85 -10 73 -101l-8 -56h-95l8 57q3 24 -19 24t-25 -24l-35 -246q-3 -24 19 -24t25 24z" />
    <glyph glyph-name="sterling.smcp" horiz-adv-x="365" 
d="M20 273l8 56h35l22 158q17 116 145 116q64 0 90.5 -33t19.5 -83l-8 -54h-101l8 54q2 11 -3.5 18.5t-17.5 7.5q-25 0 -29 -26l-22 -158h65l-8 -56h-65l-22 -153q-2 -11 5 -18t23 -7h120l-13 -95h-124q-57 0 -79 28q-28 -28 -85 -28l13 95q33 0 36 25l22 153h-35z" />
    <glyph glyph-name="Euro.smcp" horiz-adv-x="378" 
d="M240 320h-72l-5 -40h62l-16 -45h-52l-18 -124q-3 -29 23 -29q28 0 31 29l11 76h101l-11 -77q-17 -119 -145 -119q-131 0 -114 119l18 125h-32l6 45h32l5 40h-32l7 45h32l17 120q15 118 147 118q127 0 112 -118l-10 -69h-101l10 69q2 11 -4 19.5t-19 8.5q-27 0 -31 -28
l-17 -120h84z" />
    <glyph glyph-name="yen.smcp" horiz-adv-x="336" 
d="M170 0h-104l13 95h-62l6 46h62l6 42h-62l7 46h62q-22 244 -31 366h108q-1 -40 -4 -118t-3 -117l59 235h109q-22 -61 -67 -183t-67 -183h64l-7 -46h-64l-6 -42h64l-6 -46h-64z" />
    <glyph glyph-name="numbersign.smcp" horiz-adv-x="348" 
d="M309 595l-30 -154h50l-8 -58h-53l-33 -172h51l-8 -58h-56l-28 -153h-56l28 153h-59l-28 -153h-57l28 153h-49l8 58h54l33 172h-52l8 58h55l30 154h56l-30 -154h59l30 154h57zM152 383l-33 -172h59l33 172h-59z" />
    <glyph glyph-name="percent.smcp" horiz-adv-x="440" 
d="M421 595l-363 -595h-55l363 595h55zM160 604q77 0 66 -81l-13 -94q-11 -81 -89 -81q-42 0 -56.5 20t-8.5 61l13 94q6 40 26 60.5t62 20.5zM131 397q24 0 28 31l13 96q2 17 -1.5 24t-16.5 7q-24 0 -28 -31l-13 -96q-2 -17 1.5 -24t16.5 -7zM263 -9q-42 0 -56.5 20.5
t-8.5 60.5l13 94q6 41 26 61t62 20t57 -20.5t9 -60.5l-13 -94q-11 -81 -89 -81zM292 198q-13 0 -19 -7t-8 -24l-14 -96q-2 -17 2 -24t17 -7q24 0 27 31l14 96q2 17 -2 24t-17 7z" />
    <glyph glyph-name="acute.smcp" horiz-adv-x="214" 
d="M127 775h97l-76 -135h-60z" />
    <glyph glyph-name="grave.smcp" horiz-adv-x="214" 
d="M107 775h97l1 -135h-60z" />
    <glyph glyph-name="circumflex.smcp" horiz-adv-x="288" 
d="M162 777h82l36 -135h-72l-17 49l-31 -49h-71z" />
    <glyph glyph-name="dieresis.smcp" horiz-adv-x="295" 
d="M104 748h84l-15 -106h-84zM218 748h84l-15 -106h-84z" />
    <glyph glyph-name="tilde.smcp" horiz-adv-x="325" 
d="M250 639q-28 0 -49 16.5t-34 16.5q-17 0 -20 -24h-57q7 55 23 77.5t57 22.5q27 0 48.5 -16.5t34.5 -16.5q17 0 20 24h57q-7 -53 -23.5 -76.5t-56.5 -23.5z" />
    <glyph glyph-name="caron.smcp" horiz-adv-x="288" 
d="M225 642h-82l-35 135h71l17 -49l31 49h72z" />
    <glyph glyph-name="ring.smcp" horiz-adv-x="246" 
d="M247 705q-11 -77 -86 -77q-74 0 -63 77q10 78 85 78q74 0 64 -78zM189 705q3 24 -14 24q-16 0 -19 -24q-4 -23 12 -23q17 0 21 23z" />
    <glyph glyph-name="breve.smcp" horiz-adv-x="274" 
d="M217 742h63q-15 -108 -104 -108q-88 0 -73 108h61q-6 -34 22 -34q25 0 31 34z" />
    <glyph glyph-name="macron.smcp" horiz-adv-x="267" 
d="M89 642l10 76h170l-10 -76h-170z" />
    <glyph glyph-name="dotaccent.smcp" horiz-adv-x="199" 
d="M105 756h102l-16 -114h-102z" />
    <glyph glyph-name="hungarumlaut.smcp" horiz-adv-x="333" 
d="M124 775h97l-72 -135h-56zM246 775h97l-83 -135h-60z" />
    <glyph glyph-name="aacute.smcp" horiz-adv-x="328" 
d="M-31 0l160 595h137l-6 -595h-105l6 113h-63l-24 -113h-105zM140 288l-19 -84h43l5 84q7 121 15 208h-1q-32 -159 -43 -208zM205 775h97l-76 -135h-60z" />
    <glyph glyph-name="agrave.smcp" horiz-adv-x="328" 
d="M-31 0l160 595h137l-6 -595h-105l6 113h-63l-24 -113h-105zM140 288l-19 -84h43l5 84q7 121 15 208h-1q-32 -159 -43 -208zM138 775h97l1 -135h-60z" />
    <glyph glyph-name="acircumflex.smcp" horiz-adv-x="328" 
d="M-31 0l160 595h137l-6 -595h-105l6 113h-63l-24 -113h-105zM140 288l-19 -84h43l5 84q7 121 15 208h-1q-32 -159 -43 -208zM181 777h82l36 -135h-72l-17 49l-31 -49h-71z" />
    <glyph glyph-name="adieresis.smcp" horiz-adv-x="328" 
d="M-31 0l160 595h137l-6 -595h-105l6 113h-63l-24 -113h-105zM140 288l-19 -84h43l5 84q7 121 15 208h-1q-32 -159 -43 -208zM120 748h84l-15 -106h-84zM234 748h84l-15 -106h-84z" />
    <glyph glyph-name="atilde.smcp" horiz-adv-x="328" 
d="M-31 0l160 595h137l-6 -595h-105l6 113h-63l-24 -113h-105zM140 288l-19 -84h43l5 84q7 121 15 208h-1q-32 -159 -43 -208zM251 639q-28 0 -49.5 16.5t-33.5 16.5q-17 0 -20 -24h-57q7 55 23 77.5t57 22.5q27 0 48.5 -16.5t34.5 -16.5q17 0 20 24h57q-7 -53 -23.5 -76.5
t-56.5 -23.5z" />
    <glyph glyph-name="aring.smcp" horiz-adv-x="328" 
d="M-31 0l160 595h137l-6 -595h-105l6 113h-63l-24 -113h-105zM140 288l-19 -84h43l5 84q7 121 15 208h-1q-32 -159 -43 -208zM287 705q-11 -77 -86 -77q-74 0 -63 77q10 78 85 78q74 0 64 -78zM229 705q3 24 -14 24q-16 0 -19 -24q-4 -23 12 -23q17 0 21 23z" />
    <glyph glyph-name="amacron.smcp" horiz-adv-x="328" 
d="M-31 0l160 595h137l-6 -595h-105l6 113h-63l-24 -113h-105zM140 288l-19 -84h43l5 84q7 121 15 208h-1q-32 -159 -43 -208zM119 642l10 76h170l-10 -76h-170z" />
    <glyph glyph-name="abreve.smcp" horiz-adv-x="328" 
d="M-31 0l160 595h137l-6 -595h-105l6 113h-63l-24 -113h-105zM140 288l-19 -84h43l5 84q7 121 15 208h-1q-32 -159 -43 -208zM243 742h63q-15 -108 -104 -108q-88 0 -73 108h61q-6 -34 22 -34q25 0 31 34z" />
    <glyph glyph-name="aogonek.smcp" horiz-adv-x="328" 
d="M236 -170h-12q-51 0 -73.5 21t-17.5 54q9 59 70 95h-48l6 113h-63l-24 -113h-105l160 595h137l-6 -595q-37 -28 -42 -57q-1 -9 4.5 -14.5t16.5 -5.5h10zM140 288l-19 -84h43l5 84q7 121 15 208h-1q-32 -159 -43 -208z" />
    <glyph glyph-name="ae.smcp" horiz-adv-x="464" 
d="M115 110l-37 -110h-110l218 595h278l-13 -95h-106l-22 -154h93l-13 -91h-93l-22 -160h106l-13 -95h-209l15 110h-72zM145 201h55l43 308q-17 -50 -49 -154t-49 -154z" />
    <glyph glyph-name="bdotaccent.smcp" horiz-adv-x="353" 
d="M-1 0l83 595h142q67 0 88 -23.5t14 -73.5l-17 -127q-7 -47 -48 -68q38 -23 31 -72l-18 -125q-7 -51 -35 -78.5t-92 -27.5h-148zM138 255l-22 -160h36q18 0 19 17l18 124q3 19 -19 19h-32zM173 500l-22 -154h33q20 0 23 21l17 117q1 16 -16 16h-35zM181 756h102l-16 -114
h-102z" />
    <glyph glyph-name="cacute.smcp" horiz-adv-x="336" 
d="M173 187h101l-11 -77q-17 -119 -145 -119q-131 0 -114 119l53 375q15 118 147 118q127 0 112 -118l-10 -69h-101l10 69q2 11 -4 19.5t-19 8.5t-21 -8.5t-10 -19.5l-53 -374q-3 -29 23 -29q28 0 31 29zM211 775h97l-76 -135h-60z" />
    <glyph glyph-name="ccircumflex.smcp" horiz-adv-x="336" 
d="M173 187h101l-11 -77q-17 -119 -145 -119q-131 0 -114 119l53 375q15 118 147 118q127 0 112 -118l-10 -69h-101l10 69q2 11 -4 19.5t-19 8.5t-21 -8.5t-10 -19.5l-53 -374q-3 -29 23 -29q28 0 31 29zM185 777h82l36 -135h-72l-17 49l-31 -49h-71z" />
    <glyph glyph-name="ccaron.smcp" horiz-adv-x="336" 
d="M173 187h101l-11 -77q-17 -119 -145 -119q-131 0 -114 119l53 375q15 118 147 118q127 0 112 -118l-10 -69h-101l10 69q2 11 -4 19.5t-19 8.5t-21 -8.5t-10 -19.5l-53 -374q-3 -29 23 -29q28 0 31 29zM248 642h-82l-35 135h71l17 -49l31 49h72z" />
    <glyph glyph-name="ccedilla.smcp" horiz-adv-x="336" 
d="M56 -81l32 74q-99 13 -84 117l53 375q15 118 147 118q127 0 112 -118l-10 -69h-101l10 69q2 11 -4 19.5t-19 8.5t-21 -8.5t-10 -19.5l-53 -374q-3 -29 23 -29q28 0 31 29l11 76h101l-11 -77q-15 -109 -125 -118l-12 -31q55 -11 47 -62q-4 -33 -25 -51t-71 -18h-58l24 61
h29q20 0 21 14q1 7 -2.5 10.5t-14.5 3.5h-20z" />
    <glyph glyph-name="cdotaccent.smcp" horiz-adv-x="336" 
d="M173 187h101l-11 -77q-17 -119 -145 -119q-131 0 -114 119l53 375q15 118 147 118q127 0 112 -118l-10 -69h-101l10 69q2 11 -4 19.5t-19 8.5t-21 -8.5t-10 -19.5l-53 -374q-3 -29 23 -29q28 0 31 29zM173 756h102l-16 -114h-102z" />
    <glyph glyph-name="dcaron.smcp" horiz-adv-x="358" 
d="M-1 0l83 595h140q70 0 92 -26t14 -81l-52 -372q-8 -58 -37.5 -87t-96.5 -29h-143zM173 500l-57 -405h33q21 0 22 18l52 367q3 20 -19 20h-31zM248 642h-82l-35 135h71l17 -49l31 49h72z" />
    <glyph glyph-name="ddotaccent.smcp" horiz-adv-x="358" 
d="M-1 0l83 595h140q70 0 92 -26t14 -81l-52 -372q-8 -58 -37.5 -87t-96.5 -29h-143zM173 500l-57 -405h33q21 0 22 18l52 367q3 20 -19 20h-31zM184 756h102l-16 -114h-102z" />
    <glyph glyph-name="dcroat.smcp" horiz-adv-x="358" 
d="M8 260l11 75h27l36 260h140q70 0 92 -26t14 -81l-52 -372q-8 -58 -37.5 -87t-96.5 -29h-143l36 260h-27zM173 500l-23 -165h26l-11 -75h-26l-23 -165h33q21 0 22 18l52 367q3 20 -19 20h-31z" />
    <glyph glyph-name="eth.smcp" horiz-adv-x="358" 
d="M8 260l11 75h27l36 260h140q70 0 92 -26t14 -81l-52 -372q-8 -58 -37.5 -87t-96.5 -29h-143l36 260h-27zM173 500l-23 -165h26l-11 -75h-26l-23 -165h33q21 0 22 18l52 367q3 20 -19 20h-31z" />
    <glyph glyph-name="eacute.smcp" horiz-adv-x="299" 
d="M138 255l-22 -160h108l-13 -95h-212l83 595h212l-13 -95h-108l-22 -154h95l-13 -91h-95zM194 775h97l-76 -135h-60z" />
    <glyph glyph-name="egrave.smcp" horiz-adv-x="299" 
d="M138 255l-22 -160h108l-13 -95h-212l83 595h212l-13 -95h-108l-22 -154h95l-13 -91h-95zM149 775h97l1 -135h-60z" />
    <glyph glyph-name="ecircumflex.smcp" horiz-adv-x="299" 
d="M138 255l-22 -160h108l-13 -95h-212l83 595h212l-13 -95h-108l-22 -154h95l-13 -91h-95zM172 777h82l36 -135h-72l-17 49l-31 -49h-71z" />
    <glyph glyph-name="edieresis.smcp" horiz-adv-x="299" 
d="M138 255l-22 -160h108l-13 -95h-212l83 595h212l-13 -95h-108l-22 -154h95l-13 -91h-95zM110 748h84l-15 -106h-84zM224 748h84l-15 -106h-84z" />
    <glyph glyph-name="ecaron.smcp" horiz-adv-x="299" 
d="M138 255l-22 -160h108l-13 -95h-212l83 595h212l-13 -95h-108l-22 -154h95l-13 -91h-95zM236 642h-82l-35 135h71l17 -49l31 49h72z" />
    <glyph glyph-name="emacron.smcp" horiz-adv-x="299" 
d="M138 255l-22 -160h108l-13 -95h-212l83 595h212l-13 -95h-108l-22 -154h95l-13 -91h-95zM108 642l10 76h170l-10 -76h-170z" />
    <glyph glyph-name="ebreve.smcp" horiz-adv-x="299" 
d="M138 255l-22 -160h108l-13 -95h-212l83 595h212l-13 -95h-108l-22 -154h95l-13 -91h-95zM234 742h63q-15 -108 -104 -108q-88 0 -73 108h61q-6 -34 22 -34q25 0 31 34z" />
    <glyph glyph-name="eogonek.smcp" horiz-adv-x="299" 
d="M187 -170h-12q-51 0 -73.5 21t-17.5 54q9 59 70 95h-155l83 595h212l-13 -95h-108l-22 -154h95l-13 -91h-95l-22 -160h108l-13 -95q-37 -28 -42 -57q-1 -9 4.5 -14.5t16.5 -5.5h10z" />
    <glyph glyph-name="edotaccent.smcp" horiz-adv-x="299" 
d="M138 255l-22 -160h108l-13 -95h-212l83 595h212l-13 -95h-108l-22 -154h95l-13 -91h-95zM154 756h102l-16 -114h-102z" />
    <glyph glyph-name="fdotaccent.smcp" horiz-adv-x="290" 
d="M103 0h-104l83 595h208l-13 -95h-104l-22 -154h89l-13 -91h-89zM150 756h102l-16 -114h-102z" />
    <glyph glyph-name="gcircumflex.smcp" horiz-adv-x="348" 
d="M160 255l13 91h130l-33 -236q-17 -119 -147 -119q-131 0 -114 119l53 375q15 118 147 118q129 0 114 -118l-10 -69h-103l10 70q4 27 -23 27t-31 -27l-53 -375q-3 -29 23 -29q28 0 31 29l20 144h-27zM191 777h82l36 -135h-72l-17 49l-31 -49h-71z" />
    <glyph glyph-name="gbreve.smcp" horiz-adv-x="348" 
d="M160 255l13 91h130l-33 -236q-17 -119 -147 -119q-131 0 -114 119l53 375q15 118 147 118q129 0 114 -118l-10 -69h-103l10 70q4 27 -23 27t-31 -27l-53 -375q-3 -29 23 -29q28 0 31 29l20 144h-27zM253 742h63q-15 -108 -104 -108q-88 0 -73 108h61q-6 -34 22 -34
q25 0 31 34z" />
    <glyph glyph-name="gdotaccent.smcp" horiz-adv-x="348" 
d="M160 255l13 91h130l-33 -236q-17 -119 -147 -119q-131 0 -114 119l53 375q15 118 147 118q129 0 114 -118l-10 -69h-103l10 70q4 27 -23 27t-31 -27l-53 -375q-3 -29 23 -29q28 0 31 29l20 144h-27zM179 756h102l-16 -114h-102z" />
    <glyph glyph-name="gcommaaccent.smcp" horiz-adv-x="348" 
d="M160 255l13 91h130l-33 -236q-17 -119 -147 -119q-131 0 -114 119l53 375q15 118 147 118q129 0 114 -118l-10 -69h-103l10 70q4 27 -23 27t-31 -27l-53 -375q-3 -29 23 -29q28 0 31 29l20 144h-27zM70 -48h93l-52 -122h-58z" />
    <glyph glyph-name="hcircumflex.smcp" horiz-adv-x="358" 
d="M138 255l-35 -255h-104l83 595h104l-35 -249h53l35 249h104l-83 -595h-104l35 255h-53zM196 777h82l36 -135h-72l-17 49l-31 -49h-71z" />
    <glyph glyph-name="hbar.smcp" horiz-adv-x="358" 
d="M25 441l7 46h35l15 108h104l-15 -108h53l15 108h104l-15 -108h35l-7 -46h-35l-61 -441h-104l35 255h-53l-35 -255h-104l61 441h-35zM151 346h53l13 95h-53z" />
    <glyph glyph-name="iacute.smcp" horiz-adv-x="201" 
d="M-1 0l83 595h104l-83 -595h-104zM142 775h97l-76 -135h-60z" />
    <glyph glyph-name="igrave.smcp" horiz-adv-x="201" 
d="M-1 0l83 595h104l-83 -595h-104zM75 775h97l1 -135h-60z" />
    <glyph glyph-name="icircumflex.smcp" horiz-adv-x="201" 
d="M-1 0l83 595h104l-83 -595h-104zM118 777h82l36 -135h-72l-17 49l-31 -49h-71z" />
    <glyph glyph-name="idieresis.smcp" horiz-adv-x="201" 
d="M-1 0l83 595h104l-83 -595h-104zM57 748h84l-15 -106h-84zM171 748h84l-15 -106h-84z" />
    <glyph glyph-name="itilde.smcp" horiz-adv-x="201" 
d="M-1 0l83 595h104l-83 -595h-104zM188 639q-28 0 -49 16.5t-34 16.5q-17 0 -20 -24h-57q7 55 23 77.5t57 22.5q27 0 48.5 -16.5t34.5 -16.5q17 0 20 24h57q-7 -53 -23.5 -76.5t-56.5 -23.5z" />
    <glyph glyph-name="imacron.smcp" horiz-adv-x="201" 
d="M-1 0l83 595h104l-83 -595h-104zM56 642l10 76h170l-10 -76h-170z" />
    <glyph glyph-name="ibreve.smcp" horiz-adv-x="201" 
d="M-1 0l83 595h104l-83 -595h-104zM180 742h63q-15 -108 -104 -108q-88 0 -73 108h61q-6 -34 22 -34q25 0 31 34z" />
    <glyph glyph-name="iogonek.smcp" horiz-adv-x="201" 
d="M-1 0l83 595h104l-83 -595q-37 -28 -42 -57q-1 -9 4.5 -14.5t16.5 -5.5h10l-13 -93h-12q-51 0 -73.5 21t-17.5 54q9 59 70 95h-47z" />
    <glyph glyph-name="jcircumflex.smcp" horiz-adv-x="327" 
d="M214 595h103l-68 -485q-17 -119 -144 -119q-128 0 -111 119l11 77h102l-11 -76q-3 -29 21 -29q26 0 29 29zM247 777h82l36 -135h-72l-17 49l-31 -49h-71z" />
    <glyph glyph-name="kcommaaccent.smcp" horiz-adv-x="344" 
d="M186 595l-39 -264l98 264h113l-130 -295l53 -300h-112l-31 270l-35 -270h-104l83 595h104zM68 -48h93l-52 -122h-58z" />
    <glyph glyph-name="lacute.smcp" horiz-adv-x="257" 
d="M-1 0l83 595h104l-70 -500h86l-13 -95h-190zM144 775h97l-76 -135h-60z" />
    <glyph glyph-name="lcaron.smcp" horiz-adv-x="260" 
d="M-1 0l83 595h104l-70 -500h86l-13 -95h-190zM217 595h77l-59 -188h-44z" />
    <glyph glyph-name="lcommaaccent.smcp" horiz-adv-x="257" 
d="M-1 0l83 595h104l-70 -500h86l-13 -95h-190zM36 -48h93l-52 -122h-58z" />
    <glyph glyph-name="ldot.smcp" horiz-adv-x="260" 
d="M-1 0l83 595h104l-70 -500h86l-13 -95h-190zM176 338h75l-14 -100h-75z" />
    <glyph glyph-name="lslash.smcp" horiz-adv-x="257" 
d="M-9 232l10 67l41 13l40 283h104l-35 -248l54 17l-10 -67l-53 -17l-26 -185h86l-13 -95h-190l34 245z" />
    <glyph glyph-name="mdotaccent.smcp" horiz-adv-x="493" 
d="M217 595l5 -412l120 412h136l-83 -595h-97l72 437l-133 -437h-80l-11 437l-50 -437h-97l83 595h135zM251 756h102l-16 -114h-102z" />
    <glyph glyph-name="nacute.smcp" horiz-adv-x="384" 
d="M184 0l-43 379q-14 -167 -31 -293l-12 -86h-99l83 595h105l42 -372q8 133 26 267l15 105h99l-83 -595h-102zM229 775h97l-76 -135h-60z" />
    <glyph glyph-name="ntilde.smcp" horiz-adv-x="384" 
d="M184 0l-43 379q-14 -167 -31 -293l-12 -86h-99l83 595h105l42 -372q8 133 26 267l15 105h99l-83 -595h-102zM279 639q-27 0 -49 16.5t-34 16.5q-17 0 -20 -24h-57q7 55 23 77.5t57 22.5q27 0 48.5 -16.5t34.5 -16.5q17 0 20 24h57q-7 -53 -23.5 -76.5t-56.5 -23.5z" />
    <glyph glyph-name="ncaron.smcp" horiz-adv-x="384" 
d="M184 0l-43 379q-14 -167 -31 -293l-12 -86h-99l83 595h105l42 -372q8 133 26 267l15 105h99l-83 -595h-102zM272 642h-82l-35 135h71l17 -49l31 49h72z" />
    <glyph glyph-name="ncommaaccent.smcp" horiz-adv-x="384" 
d="M184 0l-43 379q-14 -167 -31 -293l-12 -86h-99l83 595h105l42 -372q8 133 26 267l15 105h99l-83 -595h-102zM88 -48h93l-52 -122h-58z" />
    <glyph glyph-name="eng.smcp" horiz-adv-x="384" 
d="M184 0l-43 382q-15 -176 -31 -296l-12 -86h-99l83 595h105l41 -375q7 125 27 270l15 105h99l-89 -636q-7 -53 -38.5 -82t-100.5 -29q-19 0 -43 7l12 83q17 -7 37 -7q27 0 31 29z" />
    <glyph glyph-name="oacute.smcp" horiz-adv-x="348" 
d="M136 82q28 0 31 29l53 374q4 28 -23 28t-31 -28l-53 -374q-3 -29 23 -29zM123 -9q-131 0 -114 119l53 374q15 119 147 119q129 0 114 -119l-53 -374q-17 -119 -147 -119zM215 775h97l-76 -135h-60z" />
    <glyph glyph-name="ograve.smcp" horiz-adv-x="348" 
d="M136 82q28 0 31 29l53 374q4 28 -23 28t-31 -28l-53 -374q-3 -29 23 -29zM123 -9q-131 0 -114 119l53 374q15 119 147 119q129 0 114 -119l-53 -374q-17 -119 -147 -119zM150 775h97l1 -135h-60z" />
    <glyph glyph-name="ocircumflex.smcp" horiz-adv-x="348" 
d="M136 82q28 0 31 29l53 374q4 28 -23 28t-31 -28l-53 -374q-3 -29 23 -29zM123 -9q-131 0 -114 119l53 374q15 119 147 119q129 0 114 -119l-53 -374q-17 -119 -147 -119zM191 777h82l36 -135h-72l-17 49l-31 -49h-71z" />
    <glyph glyph-name="odieresis.smcp" horiz-adv-x="348" 
d="M136 82q28 0 31 29l53 374q4 28 -23 28t-31 -28l-53 -374q-3 -29 23 -29zM123 -9q-131 0 -114 119l53 374q15 119 147 119q129 0 114 -119l-53 -374q-17 -119 -147 -119zM130 748h84l-15 -106h-84zM244 748h84l-15 -106h-84z" />
    <glyph glyph-name="otilde.smcp" horiz-adv-x="348" 
d="M136 82q28 0 31 29l53 374q4 28 -23 28t-31 -28l-53 -374q-3 -29 23 -29zM123 -9q-131 0 -114 119l53 374q15 119 147 119q129 0 114 -119l-53 -374q-17 -119 -147 -119zM261 639q-27 0 -49 16.5t-34 16.5q-17 0 -20 -24h-57q7 55 23 77.5t57 22.5q27 0 48.5 -16.5
t34.5 -16.5q17 0 20 24h57q-7 -53 -23.5 -76.5t-56.5 -23.5z" />
    <glyph glyph-name="obreve.smcp" horiz-adv-x="348" 
d="M136 82q28 0 31 29l53 374q4 28 -23 28t-31 -28l-53 -374q-3 -29 23 -29zM123 -9q-131 0 -114 119l53 374q15 119 147 119q129 0 114 -119l-53 -374q-17 -119 -147 -119zM253 742h63q-15 -108 -104 -108q-88 0 -73 108h61q-6 -34 22 -34q25 0 31 34z" />
    <glyph glyph-name="omacron.smcp" horiz-adv-x="348" 
d="M136 82q28 0 31 29l53 374q4 28 -23 28t-31 -28l-53 -374q-3 -29 23 -29zM123 -9q-131 0 -114 119l53 374q15 119 147 119q129 0 114 -119l-53 -374q-17 -119 -147 -119zM129 642l10 76h170l-10 -76h-170z" />
    <glyph glyph-name="ohungarumlaut.smcp" horiz-adv-x="348" 
d="M136 82q28 0 31 29l53 374q4 28 -23 28t-31 -28l-53 -374q-3 -29 23 -29zM123 -9q-131 0 -114 119l53 374q15 119 147 119q129 0 114 -119l-53 -374q-17 -119 -147 -119zM158 775h97l-72 -135h-56zM280 775h97l-83 -135h-60z" />
    <glyph glyph-name="oslash.smcp" horiz-adv-x="348" 
d="M136 82q28 0 31 29l53 374q4 28 -23 28t-31 -28l-53 -374q-3 -29 23 -29zM123 -9q-19 0 -34 3l-7 -20h-74l19 50q-26 31 -18 86l53 374q15 119 147 119q20 0 35 -3l8 20h75l-21 -52q24 -29 17 -84l-53 -374q-17 -119 -147 -119z" />
    <glyph glyph-name="oe.smcp" horiz-adv-x="447" 
d="M136 82q28 0 31 29l53 374q4 28 -23 28t-31 -28l-53 -374q-3 -29 23 -29zM291 255l-22 -160h108l-13 -95h-178q-27 -9 -63 -9q-131 0 -114 119l53 374q15 119 147 119q33 0 57 -8h181l-13 -95h-108l-22 -154h95l-13 -91h-95z" />
    <glyph glyph-name="thorn.smcp" horiz-adv-x="336" 
d="M-1 0l83 595h104l-17 -120h43q65 0 85 -25.5t13 -75.5l-21 -152q-8 -53 -36 -77t-93 -24h-40l-17 -121h-104zM156 380l-24 -168h33q20 0 23 19l18 129q3 20 -19 20h-31z" />
    <glyph glyph-name="pdotaccent.smcp" horiz-adv-x="336" 
d="M-1 0l83 595h147q65 0 85 -25.5t13 -75.5l-21 -152q-8 -52 -36.5 -76.5t-93.5 -24.5h-40l-33 -241h-104zM173 500l-24 -168h33q20 0 23 19l18 129q3 20 -19 20h-31zM173 756h102l-16 -114h-102z" />
    <glyph glyph-name="racute.smcp" horiz-adv-x="345" 
d="M-1 0l83 595h147q64 0 84 -28.5t13 -80.5l-20 -140q-6 -43 -19.5 -66t-45.5 -32l51 -248h-111l-39 244h-5l-34 -244h-104zM173 500l-24 -168h33q20 0 23 19l18 129q3 20 -19 20h-31zM204 775h97l-76 -135h-60z" />
    <glyph glyph-name="rcaron.smcp" horiz-adv-x="345" 
d="M-1 0l83 595h147q64 0 84 -28.5t13 -80.5l-20 -140q-6 -43 -19.5 -66t-45.5 -32l51 -248h-111l-39 244h-5l-34 -244h-104zM173 500l-24 -168h33q20 0 23 19l18 129q3 20 -19 20h-31zM253 642h-82l-35 135h71l17 -49l31 49h72z" />
    <glyph glyph-name="rcommaaccent.smcp" horiz-adv-x="345" 
d="M-1 0l83 595h147q64 0 84 -28.5t13 -80.5l-20 -140q-6 -43 -19.5 -66t-45.5 -32l51 -248h-111l-39 244h-5l-34 -244h-104zM173 500l-24 -168h33q20 0 23 19l18 129q3 20 -19 20h-31zM69 -48h93l-52 -122h-58z" />
    <glyph glyph-name="sacute.smcp" horiz-adv-x="329" 
d="M114 187l-11 -79q-5 -28 23 -28q26 0 31 28l7 52q6 44 -6.5 73t-33.5 45t-41.5 33.5t-32 50.5t-4.5 83l6 43q7 51 43 83t104 32t95 -32t20 -83l-10 -72h-104l10 72q4 27 -23 27t-31 -27l-6 -41q-4 -32 4.5 -55t24 -35t34 -27.5t33.5 -33.5t22 -52t0 -83l-7 -54
q-7 -51 -43.5 -83.5t-104.5 -32.5t-94.5 32.5t-19.5 83.5l11 80h104zM203 775h97l-76 -135h-60z" />
    <glyph glyph-name="scircumflex.smcp" horiz-adv-x="329" 
d="M114 187l-11 -79q-5 -28 23 -28q26 0 31 28l7 52q6 44 -6.5 73t-33.5 45t-41.5 33.5t-32 50.5t-4.5 83l6 43q7 51 43 83t104 32t95 -32t20 -83l-10 -72h-104l10 72q4 27 -23 27t-31 -27l-6 -41q-4 -32 4.5 -55t24 -35t34 -27.5t33.5 -33.5t22 -52t0 -83l-7 -54
q-7 -51 -43.5 -83.5t-104.5 -32.5t-94.5 32.5t-19.5 83.5l11 80h104zM182 777h82l36 -135h-72l-17 49l-31 -49h-71z" />
    <glyph glyph-name="scaron.smcp" horiz-adv-x="329" 
d="M114 187l-11 -79q-5 -28 23 -28q26 0 31 28l7 52q6 44 -6.5 73t-33.5 45t-41.5 33.5t-32 50.5t-4.5 83l6 43q7 51 43 83t104 32t95 -32t20 -83l-10 -72h-104l10 72q4 27 -23 27t-31 -27l-6 -41q-4 -32 4.5 -55t24 -35t34 -27.5t33.5 -33.5t22 -52t0 -83l-7 -54
q-7 -51 -43.5 -83.5t-104.5 -32.5t-94.5 32.5t-19.5 83.5l11 80h104zM245 642h-82l-35 135h71l17 -49l31 49h72z" />
    <glyph glyph-name="sdotaccent.smcp" horiz-adv-x="329" 
d="M114 187l-11 -79q-5 -28 23 -28q26 0 31 28l7 52q6 44 -6.5 73t-33.5 45t-41.5 33.5t-32 50.5t-4.5 83l6 43q7 51 43 83t104 32t95 -32t20 -83l-10 -72h-104l10 72q4 27 -23 27t-31 -27l-6 -41q-4 -32 4.5 -55t24 -35t34 -27.5t33.5 -33.5t22 -52t0 -83l-7 -54
q-7 -51 -43.5 -83.5t-104.5 -32.5t-94.5 32.5t-19.5 83.5l11 80h104zM169 756h102l-16 -114h-102z" />
    <glyph glyph-name="scedilla.smcp" horiz-adv-x="329" 
d="M55 -81l32 74q-53 6 -74 37t-14 77l11 80h104l-11 -79q-5 -28 23 -28q26 0 31 28l7 52q6 44 -6.5 73t-33.5 45t-41.5 33.5t-32 50.5t-4.5 83l6 43q7 51 43 83t104 32t95 -32t20 -83l-10 -72h-104l10 72q4 27 -23 27t-31 -27l-6 -41q-4 -32 4.5 -55t24 -35t34 -27.5
t33.5 -33.5t22 -52t0 -83l-7 -54q-6 -46 -36.5 -77t-86.5 -37l-13 -32q55 -11 47 -62q-4 -33 -25 -51t-71 -18h-58l24 61h29q20 0 21 14q1 7 -2.5 10.5t-14.5 3.5h-20z" />
    <glyph glyph-name="scommaaccent.smcp" horiz-adv-x="329" 
d="M114 187l-11 -79q-5 -28 23 -28q26 0 31 28l7 52q6 44 -6.5 73t-33.5 45t-41.5 33.5t-32 50.5t-4.5 83l6 43q7 51 43 83t104 32t95 -32t20 -83l-10 -72h-104l10 72q4 27 -23 27t-31 -27l-6 -41q-4 -32 4.5 -55t24 -35t34 -27.5t33.5 -33.5t22 -52t0 -83l-7 -54
q-7 -51 -43.5 -83.5t-104.5 -32.5t-94.5 32.5t-19.5 83.5l11 80h104zM61 -48h93l-52 -122h-58z" />
    <glyph glyph-name="germandbls.smcp" horiz-adv-x="658" 
d="M114 187l-11 -79q-5 -28 23 -28q26 0 31 28l7 52q6 44 -6.5 73t-33.5 45t-41.5 33.5t-32 50.5t-4.5 83l6 43q7 51 43 83t104 32t95 -32t20 -83l-10 -72h-104l10 72q4 27 -23 27t-31 -27l-6 -41q-4 -32 4.5 -55t24 -35t34 -27.5t33.5 -33.5t22 -52t0 -83l-7 -54
q-7 -51 -43.5 -83.5t-104.5 -32.5t-94.5 32.5t-19.5 83.5l11 80h104zM443 187l-11 -79q-5 -28 23 -28q26 0 31 28l7 52q6 44 -6.5 73t-33.5 45t-41.5 33.5t-32 50.5t-4.5 83l6 43q7 51 43 83t104 32t95 -32t20 -83l-10 -72h-104l10 72q4 27 -23 27t-31 -27l-6 -41
q-4 -32 4.5 -55t24 -35t34 -27.5t33.5 -33.5t22 -52t0 -83l-7 -54q-7 -51 -43.5 -83.5t-104.5 -32.5t-94.5 32.5t-19.5 83.5l11 80h104z" />
    <glyph glyph-name="tcaron.smcp" horiz-adv-x="287" 
d="M216 500l-70 -500h-104l70 500h-73l13 95h250l-13 -95h-73zM224 642h-82l-35 135h71l17 -49l31 49h72z" />
    <glyph glyph-name="tdotaccent.smcp" horiz-adv-x="287" 
d="M216 500l-70 -500h-104l70 500h-73l13 95h250l-13 -95h-73zM148 756h102l-16 -114h-102z" />
    <glyph glyph-name="tcommaaccent.smcp" horiz-adv-x="287" 
d="M216 500l-70 -500h-104l70 500h-73l13 95h250l-13 -95h-73zM40 -48h93l-52 -122h-58z" />
    <glyph glyph-name="tbar.smcp" horiz-adv-x="287" 
d="M32 242l9 66h44l27 192h-73l13 95h250l-13 -95h-73l-27 -192h42l-9 -66h-42l-34 -242h-104l34 242h-44z" />
    <glyph glyph-name="uacute.smcp" horiz-adv-x="358" 
d="M82 595h104l-68 -486q-5 -27 23 -27q25 0 30 27l68 486h104l-68 -486q-17 -118 -147 -118q-131 0 -114 118zM220 775h97l-76 -135h-60z" />
    <glyph glyph-name="ugrave.smcp" horiz-adv-x="358" 
d="M82 595h104l-68 -486q-5 -27 23 -27q25 0 30 27l68 486h104l-68 -486q-17 -118 -147 -118q-131 0 -114 118zM153 775h97l1 -135h-60z" />
    <glyph glyph-name="ucircumflex.smcp" horiz-adv-x="358" 
d="M82 595h104l-68 -486q-5 -27 23 -27q25 0 30 27l68 486h104l-68 -486q-17 -118 -147 -118q-131 0 -114 118zM196 777h82l36 -135h-72l-17 49l-31 -49h-71z" />
    <glyph glyph-name="udieresis.smcp" horiz-adv-x="358" 
d="M82 595h104l-68 -486q-5 -27 23 -27q25 0 30 27l68 486h104l-68 -486q-17 -118 -147 -118q-131 0 -114 118zM135 748h84l-15 -106h-84zM249 748h84l-15 -106h-84z" />
    <glyph glyph-name="utilde.smcp" horiz-adv-x="358" 
d="M82 595h104l-68 -486q-5 -27 23 -27q25 0 30 27l68 486h104l-68 -486q-17 -118 -147 -118q-131 0 -114 118zM266 639q-27 0 -48.5 16.5t-34.5 16.5q-17 0 -20 -24h-57q7 55 23 77.5t57 22.5q27 0 48.5 -16.5t34.5 -16.5q17 0 20 24h57q-7 -53 -23.5 -76.5t-56.5 -23.5z
" />
    <glyph glyph-name="uring.smcp" horiz-adv-x="358" 
d="M82 595h104l-68 -486q-5 -27 23 -27q25 0 30 27l68 486h104l-68 -486q-17 -118 -147 -118q-131 0 -114 118zM302 705q-11 -77 -86 -77q-74 0 -63 77q10 78 85 78q74 0 64 -78zM244 705q3 24 -14 24q-16 0 -19 -24q-4 -23 12 -23q17 0 21 23z" />
    <glyph glyph-name="ubreve.smcp" horiz-adv-x="358" 
d="M82 595h104l-68 -486q-5 -27 23 -27q25 0 30 27l68 486h104l-68 -486q-17 -118 -147 -118q-131 0 -114 118zM258 742h63q-15 -108 -104 -108q-88 0 -73 108h61q-6 -34 22 -34q25 0 31 34z" />
    <glyph glyph-name="umacron.smcp" horiz-adv-x="358" 
d="M82 595h104l-68 -486q-5 -27 23 -27q25 0 30 27l68 486h104l-68 -486q-17 -118 -147 -118q-131 0 -114 118zM134 642l10 76h170l-10 -76h-170z" />
    <glyph glyph-name="uhungarumlaut.smcp" horiz-adv-x="358" 
d="M82 595h104l-68 -486q-5 -27 23 -27q25 0 30 27l68 486h104l-68 -486q-17 -118 -147 -118q-131 0 -114 118zM171 775h97l-72 -135h-56zM293 775h97l-83 -135h-60z" />
    <glyph glyph-name="uogonek.smcp" horiz-adv-x="358" 
d="M162 -170h-12q-51 0 -73.5 21t-17.5 54q8 52 56 87q-118 5 -101 117l68 486h104l-68 -486q-5 -27 23 -27q25 0 30 27l68 486h104l-68 -486q-13 -90 -93 -111q-33 -26 -38 -55q-1 -9 4.5 -14.5t16.5 -5.5h10z" />
    <glyph glyph-name="wacute.smcp" horiz-adv-x="527" 
d="M274 432l-103 -432h-126l12 595h105l-32 -440l112 440h110l-12 -440l92 440h105l-153 -595h-127zM304 775h97l-76 -135h-60z" />
    <glyph glyph-name="wgrave.smcp" horiz-adv-x="527" 
d="M274 432l-103 -432h-126l12 595h105l-32 -440l112 440h110l-12 -440l92 440h105l-153 -595h-127zM236 775h97l1 -135h-60z" />
    <glyph glyph-name="wcircumflex.smcp" horiz-adv-x="527" 
d="M274 432l-103 -432h-126l12 595h105l-32 -440l112 440h110l-12 -440l92 440h105l-153 -595h-127zM281 777h82l36 -135h-72l-17 49l-31 -49h-71z" />
    <glyph glyph-name="wdieresis.smcp" horiz-adv-x="527" 
d="M274 432l-103 -432h-126l12 595h105l-32 -440l112 440h110l-12 -440l92 440h105l-153 -595h-127zM219 748h84l-15 -106h-84zM333 748h84l-15 -106h-84z" />
    <glyph glyph-name="yacute.smcp" horiz-adv-x="300" 
d="M153 0h-104l30 218l-32 377h109l-7 -249l63 249h108l-137 -377zM193 775h97l-76 -135h-60z" />
    <glyph glyph-name="ygrave.smcp" horiz-adv-x="300" 
d="M153 0h-104l30 218l-32 377h109l-7 -249l63 249h108l-137 -377zM123 775h97l1 -135h-60z" />
    <glyph glyph-name="ycircumflex.smcp" horiz-adv-x="300" 
d="M153 0h-104l30 218l-32 377h109l-7 -249l63 249h108l-137 -377zM167 777h82l36 -135h-72l-17 49l-31 -49h-71z" />
    <glyph glyph-name="ydieresis.smcp" horiz-adv-x="300" 
d="M153 0h-104l30 218l-32 377h109l-7 -249l63 249h108l-137 -377zM106 748h84l-15 -106h-84zM220 748h84l-15 -106h-84z" />
    <glyph glyph-name="zacute.smcp" horiz-adv-x="294" 
d="M216 0h-230l9 67l172 433h-113l13 95h226l-9 -68l-171 -432h116zM188 775h97l-76 -135h-60z" />
    <glyph glyph-name="zcaron.smcp" horiz-adv-x="294" 
d="M216 0h-230l9 67l172 433h-113l13 95h226l-9 -68l-171 -432h116zM227 642h-82l-35 135h71l17 -49l31 49h72z" />
    <glyph glyph-name="zdotaccent.smcp" horiz-adv-x="294" 
d="M216 0h-230l9 67l172 433h-113l13 95h226l-9 -68l-171 -432h116zM152 756h102l-16 -114h-102z" />
    </font>
</defs>
</svg>
