<?xml version="1.0" standalone="no"?>
<!DOCTYPE svg PUBLIC "-//W3C//DTD SVG 1.1//EN" "http://www.w3.org/Graphics/SVG/1.1/DTD/svg11.dtd" >
<svg xmlns="http://www.w3.org/2000/svg" xmlns:xlink="http://www.w3.org/1999/xlink" version="1.1">
<metadata>
Created by FontForge 20161003 at Thu Jul 19 08:51:40 2018
 By www-data
Copyright (c) 2008 by Silas Dilworth. All rights reserved.
</metadata>
<defs>
<font id="HeroicCondensedBlackOblique" horiz-adv-x="324" >
  <font-face 
    font-family="HeroicCondensedBlackOblique"
    font-weight="400"
    font-style="oblique"
    font-stretch="normal"
    units-per-em="1000"
    panose-1="2 0 5 6 2 0 0 2 0 4"
    ascent="750"
    descent="-250"
    x-height="500"
    cap-height="700"
    bbox="-102 -210 641.418 895"
    underline-thickness="50"
    underline-position="-150"
    unicode-range="U+0020-2265"
  />
<missing-glyph horiz-adv-x="200" 
 />
    <glyph glyph-name=".notdef" horiz-adv-x="200" 
 />
    <glyph glyph-name=".null" horiz-adv-x="0" 
 />
    <glyph glyph-name="nonmarkingreturn" horiz-adv-x="333" 
 />
    <glyph glyph-name="space" unicode=" " horiz-adv-x="167" 
 />
    <glyph glyph-name="exclam" unicode="!" horiz-adv-x="200" 
d="M78 700h140l-94 -480h-88zM9 128h116l-17 -128h-116z" />
    <glyph glyph-name="quotedbl" unicode="&#x22;" horiz-adv-x="293" 
d="M74 710h114l-56 -239h-68zM203 710h114l-56 -239h-68z" />
    <glyph glyph-name="numbersign" unicode="#" horiz-adv-x="347" 
d="M326 700l-28 -142h47l-9 -61h-50l-28 -144h48l-8 -61h-52l-27 -142h-68l27 142h-43l-27 -142h-68l27 142h-46l8 61h50l28 144h-48l9 61h51l28 142h68l-28 -142h43l28 142h68zM175 497l-28 -144h43l28 144h-43z" />
    <glyph glyph-name="dollar" unicode="$" horiz-adv-x="340" 
d="M142 276l-7 -53q-3 -20 13 -20t19 20l3 26q4 26 -8 46t-31.5 35t-38.5 32.5t-29.5 48.5t-4.5 73l1 13q16 110 117 122l12 81h63l-12 -81q96 -14 80 -123l-5 -40h-114l5 42q3 21 -13 21t-18 -20l-3 -21q-4 -26 8.5 -44.5t32 -32t39 -29.5t30 -45.5t4.5 -71.5l-4 -31
q-16 -108 -114 -121l-14 -103h-63l14 102q-53 6 -72 37t-11 85l7 52h114z" />
    <glyph glyph-name="percent" unicode="%" horiz-adv-x="429" 
d="M437 700l-375 -700h-72l375 700h72zM135 492q18 0 22 30l12 87q4 31 -14 31t-22 -31l-12 -87q-4 -30 14 -30zM292 208q-19 0 -22 -30l-13 -87q-4 -31 14 -31t22 31l13 87q3 30 -14 30zM165 710q49 0 65.5 -25.5t9.5 -76.5l-12 -85q-7 -51 -30.5 -76t-72.5 -25t-65.5 25
t-9.5 76l12 85q7 51 30.5 76.5t72.5 25.5zM261 -10q-49 0 -65.5 25.5t-9.5 76.5l12 85q8 51 31.5 76t72.5 25t65.5 -25t8.5 -76l-12 -85q-7 -51 -30.5 -76.5t-72.5 -25.5z" />
    <glyph glyph-name="ampersand" unicode="&#x26;" horiz-adv-x="389" 
d="M287 0q-46 0 -71 18q-28 -27 -88 -27q-140 0 -121 130l21 155q7 50 52 80q-33 26 -26 80l20 141q8 64 43 98.5t113 34.5t103 -34.5t17 -98.5l-13 -87h-119l13 87q2 22 -16 22q-20 0 -22 -22l-22 -151q-1 -15 13 -15h182l-16 -114h-40l-22 -159q-3 -22 15 -22h22l-16 -116
h-22zM144 102q18 0 21 22l24 173h-21q-15 0 -17 -16l-22 -157q-3 -22 15 -22z" />
    <glyph glyph-name="quotesingle" unicode="'" horiz-adv-x="164" 
d="M74 710h114l-56 -239h-68z" />
    <glyph glyph-name="parenleft" unicode="(" horiz-adv-x="251" 
d="M166 -30h-89q-65 190 -38 379q27 191 145 381h89q-107 -192 -133 -381q-27 -190 26 -379z" />
    <glyph glyph-name="parenright" unicode=")" horiz-adv-x="251" 
d="M64 -30h-89q107 188 134 379t-27 381h89q66 -191 39 -381q-27 -192 -146 -379z" />
    <glyph glyph-name="asterisk" unicode="*" horiz-adv-x="356" 
d="M221 584l119 73l15 -89q-24 -2 -71.5 -3.5t-60.5 -2.5q11 -10 43.5 -37.5t48.5 -42.5l-83 -55q-25 110 -27 122l-61 -122l-70 55q12 8 54.5 37.5t59.5 42.5q-13 1 -59.5 2.5t-69.5 3.5l41 89l99 -73q-3 14 -19 126h94q-8 -18 -27 -63.5t-26 -62.5z" />
    <glyph glyph-name="plus" unicode="+" horiz-adv-x="370" 
d="M23 235l12 90h100l14 100h90l-14 -100h100l-12 -90h-100l-15 -100h-90l15 100h-100z" />
    <glyph glyph-name="comma" unicode="," horiz-adv-x="192" 
d="M7 128h122l-77 -216h-75z" />
    <glyph glyph-name="hyphen" unicode="-" horiz-adv-x="240" 
d="M18 235l12 90h170l-12 -90h-170z" />
    <glyph glyph-name="period" unicode="." horiz-adv-x="196" 
d="M7 128h116l-17 -128h-116z" />
    <glyph glyph-name="slash" unicode="/" horiz-adv-x="278" 
d="M-35 -30l253 760h92l-253 -760h-92z" />
    <glyph glyph-name="zero" unicode="0" horiz-adv-x="366" 
d="M147 101q21 0 24 25l63 449q3 24 -17 24q-22 0 -25 -24l-63 -449q-3 -25 18 -25zM131 -10q-143 0 -124 135l63 449q19 136 162 136t124 -136l-63 -449q-19 -135 -162 -135z" />
    <glyph glyph-name="one" unicode="1" horiz-adv-x="294" 
d="M256 700l-82 -584h61l-16 -116h-244l16 116h61l60 430h-61l13 89q38 0 61 18.5t27 46.5h104z" />
    <glyph glyph-name="two" unicode="2" horiz-adv-x="343" 
d="M345 577l-11 -74q-8 -60 -30.5 -104t-49.5 -71.5t-53.5 -53.5t-48 -64t-28.5 -89l-1 -5h161l-16 -116h-284l15 110q10 70 33.5 121t50.5 79.5t54 53t48 58.5t27 79l11 76q2 22 -18 22q-22 0 -24 -22l-11 -77h-120l11 77q8 64 44 98.5t115 34.5q78 0 105.5 -35t19.5 -98z
" />
    <glyph glyph-name="three" unicode="3" horiz-adv-x="359" 
d="M206 426l22 151q2 22 -18 22q-22 0 -24 -22l-11 -77h-120l11 77q8 64 44 98.5t115 34.5t105 -34.5t18 -98.5l-20 -141q-7 -54 -51 -80q37 -28 30 -80l-21 -153q-19 -133 -162 -133q-79 0 -105 34.5t-17 98.5l12 87h120l-12 -85q-3 -24 18 -24t24 23l22 157q2 16 -13 16
h-49l16 114h49q15 0 17 15z" />
    <glyph glyph-name="four" unicode="4" horiz-adv-x="342" 
d="M116 0l18 134h-151l16 114l169 452h166l-64 -458h41l-16 -108h-41l-18 -134h-120zM100 242h50l15 112q3 23 35 203z" />
    <glyph glyph-name="five" unicode="5" horiz-adv-x="354" 
d="M164 124l27 191q2 17 -15 17q-21 0 -43 -20h-98l74 388h248l-16 -116h-144l-31 -164q22 11 52 11q60 0 82 -26.5t13 -88.5l-27 -193q-19 -133 -162 -133q-79 0 -105 34.5t-17 98.5l12 87h120l-12 -85q-3 -24 18 -24t24 23z" />
    <glyph glyph-name="six" unicode="6" horiz-adv-x="366" 
d="M218 599q-22 0 -25 -22l-25 -173q28 12 58 12q57 0 78.5 -30.5t12.5 -90.5l-24 -170q-18 -135 -162 -135q-142 0 -124 135l63 451q20 134 162 134q144 0 124 -134l-10 -76h-122l11 77q3 22 -17 22zM152 287l-23 -164q-3 -22 18 -22t24 22l23 164q3 22 -18 22t-24 -22z
" />
    <glyph glyph-name="seven" unicode="7" horiz-adv-x="292" 
d="M156 0h-134q44 315 173 584h-148l16 116h262l-14 -98q-70 -174 -97.5 -278t-57.5 -324z" />
    <glyph glyph-name="eight" unicode="8" horiz-adv-x="366" 
d="M131 -10q-78 0 -105.5 35t-18.5 98l21 153q7 53 54 80q-36 25 -29 80l20 141q8 64 44 98.5t115 34.5t105 -34.5t18 -98.5l-20 -141q-7 -54 -51 -80q37 -28 30 -80l-21 -153q-19 -133 -162 -133zM193 577l-22 -152q-3 -22 18 -22t24 22l22 152q2 22 -18 22q-22 0 -24 -22z
M151 284l-22 -161q-3 -22 18 -22t24 22l22 161q3 22 -17 22q-22 0 -25 -22z" />
    <glyph glyph-name="nine" unicode="9" horiz-adv-x="366" 
d="M146 101q21 0 25 22l25 180q-21 -9 -51 -9q-114 0 -97 121l22 160q20 135 162 135q144 0 124 -135l-63 -451q-18 -134 -162 -134q-142 0 -124 134l12 86h122l-12 -87q-4 -22 17 -22zM213 423l22 154q2 22 -18 22q-22 0 -24 -22l-22 -154q-3 -22 18 -22t24 22z" />
    <glyph glyph-name="colon" unicode=":" horiz-adv-x="196" 
d="M48 418h116l-18 -128h-116zM7 128h116l-17 -128h-116z" />
    <glyph glyph-name="semicolon" unicode=";" horiz-adv-x="202" 
d="M7 128h122l-77 -216h-75zM48 418h116l-18 -128h-116z" />
    <glyph glyph-name="less" unicode="&#x3c;" horiz-adv-x="303" 
d="M121 -30l-92 380l199 380h97l-199 -380l92 -380h-97z" />
    <glyph glyph-name="equal" unicode="=" horiz-adv-x="340" 
d="M272 159h-260l12 90h260zM293 311h-260l13 90h260z" />
    <glyph glyph-name="greater" unicode="&#x3e;" horiz-adv-x="303" 
d="M272 350l-200 -380h-97l200 380l-93 380h97z" />
    <glyph glyph-name="question" unicode="?" horiz-adv-x="340" 
d="M211 520l8 57q3 22 -15 22t-21 -22l-10 -67h-122l10 70q18 130 158 130t122 -130l-8 -57q-7 -46 -19.5 -75t-28 -45t-31 -34t-32 -55t-28.5 -94h-85q-2 43 3 85q6 39 21 69.5t30 46.5t29 42t19 57zM79 128h116l-17 -128h-116z" />
    <glyph glyph-name="at" unicode="@" horiz-adv-x="526" 
d="M263 48l-9 13q-21 -24 -53 -24q-45 0 -62 22.5t-10 69.5l8 62q8 51 34 78t94 47l8 55q1 12 -9 12t-11 -12l-4 -27h-86l4 27q13 97 110 97q55 0 73.5 -25t11.5 -73l-46 -322h-53zM227 196l-9 -63q-1 -14 9 -14t12 14l16 111q-24 -16 -28 -48zM208 -30q80 0 116 41.5
t47 117.5l34 242q5 45 1 80.5t-33.5 57t-85.5 21.5q-82 0 -117 -41.5t-45 -117.5l-34 -242q-11 -76 12.5 -117.5t104.5 -41.5zM197 -110q-123 0 -164 63t-25 176l34 242q16 113 75.5 176t180.5 63q62 0 104.5 -18t62 -50t26 -75.5t-2.5 -95.5l-34 -242
q-16 -112 -75.5 -175.5t-181.5 -63.5z" />
    <glyph glyph-name="A" unicode="A" horiz-adv-x="349" 
d="M-35 0l179 700h157l-17 -700h-123l9 136h-53l-29 -136h-123zM159 338l-17 -95h33l9 95q16 170 20 224h-3q-6 -32 -20 -107t-22 -117z" />
    <glyph glyph-name="B" unicode="B" horiz-adv-x="361" 
d="M-10 0l98 700h157q71 0 92.5 -26t12.5 -84l-21 -153q-8 -56 -51 -81q38 -25 31 -84l-21 -151q-9 -60 -38.5 -90.5t-96.5 -30.5h-163zM148 297l-25 -181h24q18 0 21 20l19 138q3 23 -19 23h-20zM189 584l-25 -173h21q21 0 25 24l18 130q3 19 -16 19h-23z" />
    <glyph glyph-name="C" unicode="C" horiz-adv-x="365" 
d="M188 244h121l-17 -119q-9 -64 -45.5 -99.5t-115.5 -35.5q-143 0 -124 135l63 450q19 135 162 135q79 0 105.5 -35.5t17.5 -99.5l-15 -109h-121l15 109q4 24 -17 24t-25 -24l-63 -449q-3 -25 18 -25t24 25z" />
    <glyph glyph-name="D" unicode="D" horiz-adv-x="368" 
d="M-10 0l98 700h161q73 0 96 -30t13 -95l-63 -450q-9 -66 -39.5 -95.5t-101.5 -29.5h-164zM195 584l-66 -468h21q21 0 24 22l59 422q4 24 -19 24h-19z" />
    <glyph glyph-name="E" unicode="E" horiz-adv-x="306" 
d="M154 297l-25 -181h108l-16 -116h-231l98 700h231l-16 -116h-108l-25 -173h94l-16 -114h-94z" />
    <glyph glyph-name="F" unicode="F" horiz-adv-x="287" 
d="M113 0h-123l98 700h222l-16 -116h-99l-25 -173h83l-16 -114h-83z" />
    <glyph glyph-name="G" unicode="G" horiz-adv-x="366" 
d="M174 297l16 114h143l-40 -286q-19 -135 -162 -135t-124 135l63 450q19 135 162 135t124 -135l-14 -102h-122l15 104q2 22 -18 22q-22 0 -24 -22l-64 -451q-3 -25 18 -25t24 25l24 171h-21z" />
    <glyph glyph-name="H" unicode="H" horiz-adv-x="368" 
d="M154 297l-41 -297h-123l98 700h123l-41 -289h42l41 289h123l-98 -700h-123l41 297h-42z" />
    <glyph glyph-name="I" unicode="I" horiz-adv-x="213" 
d="M-5 0l98 700h123l-98 -700h-123z" />
    <glyph glyph-name="J" unicode="J" horiz-adv-x="340" 
d="M226 700h122l-81 -575q-9 -64 -45 -99.5t-114 -35.5t-104 35.5t-17 99.5l15 109h120l-15 -108q-3 -25 16 -25t22 25z" />
    <glyph glyph-name="K" unicode="K" horiz-adv-x="356" 
d="M210 700l-41 -289q14 40 45.5 146t44.5 143h134l-141 -347l49 -353h-133l-14 303q-7 -50 -22.5 -161.5t-19.5 -141.5h-122l98 700h122z" />
    <glyph glyph-name="L" unicode="L" horiz-adv-x="271" 
d="M-10 0l98 700h123l-82 -584h88l-16 -116h-211z" />
    <glyph glyph-name="M" unicode="M" horiz-adv-x="500" 
d="M244 700l-11 -461q21 78 63.5 244t55.5 217h156l-98 -700h-113l83 484l-134 -484h-92l2 490l-53 -490h-113l98 700h156z" />
    <glyph glyph-name="N" unicode="N" horiz-adv-x="383" 
d="M181 0l-29 393q-7 -76 -22 -183l-29 -210h-111l98 700h113l29 -394q9 103 20 183l30 211h111l-98 -700h-112z" />
    <glyph glyph-name="O" unicode="O" horiz-adv-x="358" 
d="M143 101q21 0 24 25l63 449q3 24 -17 24q-22 0 -25 -24l-63 -449q-3 -25 18 -25zM127 -10q-144 0 -125 135l63 449q19 136 163 136t125 -136l-63 -449q-19 -135 -163 -135z" />
    <glyph glyph-name="P" unicode="P" horiz-adv-x="353" 
d="M-10 0l98 700h171q68 0 88 -30.5t11 -94.5l-24 -176q-9 -66 -39.5 -95.5t-98.5 -29.5h-45l-38 -274h-123zM195 584l-28 -196h21q21 0 24 22l21 150q4 24 -19 24h-19z" />
    <glyph glyph-name="Q" unicode="Q" horiz-adv-x="366" 
d="M356 574l-63 -449q-16 -113 -115 -131q3 -21 30 -21h36l-27 -65h-34q-52 0 -77 22t-23 65q-91 18 -76 130l63 449q19 136 162 136t124 -136zM147 101q21 0 24 25l63 449q3 24 -17 24q-22 0 -25 -24l-63 -449q-3 -25 18 -25z" />
    <glyph glyph-name="R" unicode="R" horiz-adv-x="363" 
d="M178 0l-29 282h-2l-39 -282h-118l98 700h166q68 0 88 -30.5t11 -94.5l-24 -176q-7 -45 -21.5 -70t-40.5 -37l41 -292h-130zM190 584l-28 -196h21q21 0 24 22l21 150q4 24 -19 24h-19z" />
    <glyph glyph-name="S" unicode="S" horiz-adv-x="338" 
d="M128 220l-13 -95q-3 -24 18 -24t24 24l9 63q7 51 -4.5 85t-32.5 53.5t-41.5 40.5t-31.5 60t-3 98l8 52q17 133 157 133q139 0 121 -133l-13 -87h-118l12 86q3 23 -17 23q-22 0 -25 -23l-7 -50q-5 -37 3 -63t24 -40.5t34 -33t33 -39.5t21 -61.5t-2 -98.5l-9 -67
q-19 -133 -158 -133t-120 133l13 97h118z" />
    <glyph glyph-name="T" unicode="T" horiz-adv-x="295" 
d="M241 584l-82 -584h-123l82 584h-71l16 116h265l-16 -116h-71z" />
    <glyph glyph-name="U" unicode="U" horiz-adv-x="366" 
d="M88 700h122l-81 -576q-3 -23 18 -23t24 23l81 576h122l-81 -577q-19 -133 -162 -133q-78 0 -105.5 35t-18.5 98z" />
    <glyph glyph-name="V" unicode="V" horiz-adv-x="340" 
d="M378 700l-183 -700h-151l14 700h128l-21 -261l-20 -255l52 255l53 261h128z" />
    <glyph glyph-name="W" unicode="W" horiz-adv-x="556" 
d="M297 497l-106 -497h-143l20 700h124l-41 -482l112 482h126l-24 -482l95 482h124l-175 -700h-144z" />
    <glyph glyph-name="X" unicode="X" horiz-adv-x="348" 
d="M194 495l54 205h131l-132 -336l41 -364h-131l1 238h-2l-65 -238h-131l143 364l-38 336h131l-4 -205h2z" />
    <glyph glyph-name="Y" unicode="Y" 
d="M174 0h-123l34 247l-27 453h128l-14 -271l62 271h128l-154 -453z" />
    <glyph glyph-name="Z" unicode="Z" horiz-adv-x="311" 
d="M236 0h-253l10 78l185 506h-116l16 116h250l-11 -78l-184 -506h119z" />
    <glyph glyph-name="bracketleft" unicode="[" horiz-adv-x="270" 
d="M-7 -120l119 850h170l-13 -90h-69l-94 -670h69l-12 -90h-170z" />
    <glyph glyph-name="backslash" unicode="\" horiz-adv-x="278" 
d="M164 730l39 -760h-92l-39 760h92z" />
    <glyph glyph-name="bracketright" unicode="]" horiz-adv-x="270" 
d="M262 730l-119 -850h-170l12 90h69l94 670h-69l13 90h170z" />
    <glyph glyph-name="asciicircum" unicode="^" horiz-adv-x="236" 
d="M207 700l19 -200h-73l2 122l-32 -122h-73l74 200h83z" />
    <glyph glyph-name="underscore" unicode="_" horiz-adv-x="350" 
d="M-10 0l12 89h270l-12 -89h-270z" />
    <glyph glyph-name="grave" unicode="`" horiz-adv-x="217" 
d="M126 550l-40 135h107l1 -135h-68z" />
    <glyph glyph-name="a" unicode="a" 
d="M168 322l9 67q3 19 -13 19t-19 -19l-6 -44h-110l6 46q17 119 145 119q130 0 113 -123l-54 -387h-68l-13 20q-30 -30 -78 -30q-56 0 -77 30.5t-12 94.5l8 59q8 55 46.5 87t122.5 61zM116 179l-9 -64q-4 -23 12 -23t20 23l17 121q-35 -22 -40 -57z" />
    <glyph glyph-name="b" unicode="b" horiz-adv-x="339" 
d="M153 112l39 275q3 21 -13 21t-19 -19l-39 -277q-3 -20 13 -20q17 0 19 20zM308 389l-39 -276q-9 -65 -37 -94t-83 -29q-50 0 -73 31l-18 -21h-68l99 710h116l-30 -214q30 14 51 14q56 0 73.5 -28t8.5 -93z" />
    <glyph glyph-name="c" unicode="c" horiz-adv-x="326" 
d="M159 185h113l-10 -70q-9 -61 -41.5 -93t-105.5 -32q-74 0 -98.5 32t-15.5 93l38 271q8 60 42.5 92t106.5 32q71 0 95.5 -32t16.5 -92l-9 -61h-113l9 63q3 20 -13 20t-19 -20l-39 -276q-2 -20 13 -20q17 0 19 20z" />
    <glyph glyph-name="d" unicode="d" horiz-adv-x="339" 
d="M155 387l-39 -275q-2 -20 13 -20q16 0 19 20l39 277q3 19 -13 19t-19 -21zM0 113l39 276q9 65 34.5 93t81.5 28q21 0 47 -14l30 214h116l-99 -710h-68l-14 21q-29 -31 -81 -31q-56 0 -75.5 29t-10.5 94z" />
    <glyph glyph-name="e" unicode="e" horiz-adv-x="331" 
d="M133 228l-17 -116q-2 -20 13 -20q17 0 19 20l11 73h113l-10 -68q-8 -61 -41 -94t-106 -33q-74 0 -98 33t-16 94l37 267q9 60 43.5 93t106.5 33q71 0 95.5 -33t15.5 -93l-21 -156h-145zM155 388l-10 -73h32l10 73q3 20 -13 20t-19 -20z" />
    <glyph glyph-name="f" unicode="f" horiz-adv-x="255" 
d="M245 720q26 0 50 -8l-15 -103q-19 9 -46 9q-23 0 -26 -27l-13 -91h61l-14 -101h-61l-56 -399h-116l56 399h-44l14 101h44l13 91q9 65 43.5 97t109.5 32z" />
    <glyph glyph-name="g" unicode="g" horiz-adv-x="326" 
d="M167 408q-16 0 -19 -22l-25 -173q-3 -23 13 -23t19 23l25 173q3 22 -13 22zM124 106q-29 0 -32 -22q-1 -11 6 -17t20 -6q78 0 105.5 -29t19.5 -88q-18 -114 -156 -114q-75 0 -104 30.5t-21 86.5q8 61 61 95q-20 16 -17 41q5 29 32 43q-38 29 -29 98l23 161
q17 125 149 125q17 0 43 -4q31 59 86 59q20 0 34 -5l-12 -85q-23 8 -43 8q-8 0 -14 -3q29 -28 21 -95l-23 -161q-8 -58 -42.5 -88t-106.5 -30zM109 -11q-30 0 -34 -30q-4 -31 25 -31q30 0 34 33q4 28 -25 28z" />
    <glyph glyph-name="h" unicode="h" horiz-adv-x="339" 
d="M254 0h-116l54 387q3 21 -13 21t-19 -20l-54 -388h-116l99 710h116l-30 -215q22 15 51 15q56 0 73.5 -28.5t8.5 -93.5z" />
    <glyph glyph-name="i" unicode="i" horiz-adv-x="196" 
d="M60 500h116l-70 -500h-116zM85 677h116l-18 -128h-116z" />
    <glyph glyph-name="j" unicode="j" horiz-adv-x="198" 
d="M87 677h116l-18 -128h-116zM178 500l-76 -541q-10 -65 -44 -97t-108 -32q-29 0 -52 10l15 106q24 -11 46 -11q24 0 27 27l76 538h116z" />
    <glyph glyph-name="k" unicode="k" horiz-adv-x="332" 
d="M205 710l-54 -386l64 176h127l-115 -243l55 -257h-128l-22 192l-26 -192h-116l99 710h116z" />
    <glyph glyph-name="l" unicode="l" horiz-adv-x="196" 
d="M89 710h116l-99 -710h-116z" />
    <glyph glyph-name="m" unicode="m" horiz-adv-x="487" 
d="M254 0h-116l54 389q3 19 -13 19t-19 -19l-54 -389h-116l70 500h68l14 -21q34 31 82 31q41 0 67 -29q36 29 79 29q56 0 75.5 -29t10.5 -94l-54 -387h-116l54 388q4 20 -13 20q-16 0 -19 -20z" />
    <glyph glyph-name="n" unicode="n" horiz-adv-x="339" 
d="M254 0h-116l54 388q4 20 -13 20q-16 0 -19 -20l-54 -388h-116l70 500h68l14 -21q34 31 84 31q55 0 73 -29t9 -94z" />
    <glyph glyph-name="o" unicode="o" 
d="M124 92q16 0 19 20l39 276q2 20 -13 20q-17 0 -19 -20l-39 -276q-3 -20 13 -20zM110 -10q-74 0 -98.5 32t-15.5 93l38 271q8 60 42.5 92t106.5 32t97.5 -32t17.5 -92l-38 -271q-9 -61 -42.5 -93t-107.5 -32z" />
    <glyph glyph-name="p" unicode="p" horiz-adv-x="339" 
d="M153 113l39 275q4 20 -13 20q-16 0 -19 -20l-39 -277q-3 -19 13 -19t19 21zM308 387l-39 -276q-9 -65 -34.5 -93t-81.5 -28q-21 0 -47 14l-23 -164h-116l93 660h68l13 -21q29 31 81 31q56 0 75.5 -29t10.5 -94z" />
    <glyph glyph-name="q" unicode="q" horiz-adv-x="339" 
d="M155 388l-39 -275q-3 -21 13 -21t19 19l39 277q3 20 -13 20q-15 0 -19 -20zM0 111l39 276q9 65 37 94t83 29q50 0 73 -31l19 21h68l-93 -660h-116l23 164q-30 -14 -51 -14q-56 0 -73.5 28t-8.5 93z" />
    <glyph glyph-name="r" unicode="r" horiz-adv-x="246" 
d="M248 517l-17 -123q-16 2 -21 2q-49 0 -56 -51l-48 -345h-116l70 500h68l11 -20q42 37 109 37z" />
    <glyph glyph-name="s" unicode="s" horiz-adv-x="310" 
d="M112 165l-8 -53q-2 -20 13 -20q17 0 19 20l4 26q4 26 -8.5 46t-32 35t-38 32.5t-29.5 48.5t-5 73l2 13q9 61 43.5 92.5t103.5 31.5q70 0 95.5 -32t17.5 -93l-6 -40h-114l6 42q3 21 -13 21t-19 -20l-3 -21q-4 -26 8.5 -44.5t32.5 -32t39 -29.5t30 -45.5t5 -71.5l-5 -31
q-8 -61 -42.5 -92t-105.5 -31q-70 0 -95 31t-17 92l8 52h114z" />
    <glyph glyph-name="t" unicode="t" horiz-adv-x="269" 
d="M103 626l121 31l-22 -157h67l-15 -102h-67l-39 -284q-4 -22 17 -22t48 9l-14 -98q-26 -13 -56 -13q-74 0 -97 30.5t-14 93.5l39 284h-51l15 102h51z" />
    <glyph glyph-name="u" unicode="u" horiz-adv-x="344" 
d="M60 500h116l-55 -388q-2 -20 13 -20q16 0 19 20l55 388h116l-70 -500h-68l-13 19q-27 -29 -82 -29q-56 0 -75.5 29t-10.5 94z" />
    <glyph glyph-name="v" unicode="v" horiz-adv-x="312" 
d="M322 500l-152 -500h-128l-12 500h120l-23 -349l75 349h120z" />
    <glyph glyph-name="w" unicode="w" horiz-adv-x="488" 
d="M239 334l-79 -334h-130v500h117l-24 -336l88 336h106l-7 -338l71 338h117l-140 -500h-130l13 334h-2z" />
    <glyph glyph-name="x" unicode="x" horiz-adv-x="317" 
d="M329 500l-128 -248q44 -185 61 -252h-125l-11 133l-47 -133h-124l129 252l-56 248h123l9 -126q9 21 23.5 64.5t21.5 61.5h124z" />
    <glyph glyph-name="y" unicode="y" horiz-adv-x="312" 
d="M-9 -170q-33 0 -51 11l14 103q27 -11 50 -11q26 0 38 33l10 33l-22 501h121l-15 -281h2l63 281h121l-167 -535q-24 -74 -60 -104.5t-104 -30.5z" />
    <glyph glyph-name="z" unicode="z" horiz-adv-x="266" 
d="M196 0h-226l10 77l144 315h-97l15 108h221l-11 -77l-140 -315h99z" />
    <glyph glyph-name="braceleft" unicode="{" horiz-adv-x="278" 
d="M100 231q2 15 -5.5 22t-26.5 7h-42l13 90h42q35 0 40 29q8 56 -7.5 128t-8.5 121q14 102 150 102h35l-13 -90h-34q-19 0 -27 -7.5t-10 -27.5q-5 -33 1.5 -104t0.5 -116q-8 -55 -43 -80q28 -25 20 -80q-6 -47 -32.5 -117.5t-31.5 -102.5q-2 -20 3.5 -27.5t24.5 -7.5h34
l-12 -90h-35q-68 0 -98.5 24t-23.5 78q7 49 42.5 121t43.5 128z" />
    <glyph glyph-name="bar" unicode="|" horiz-adv-x="212" 
d="M-7 -120l119 850h92l-119 -850h-92z" />
    <glyph glyph-name="braceright" unicode="}" horiz-adv-x="278" 
d="M142 231q-8 -56 7.5 -128t8.5 -121q-14 -102 -150 -102h-35l12 90h34q19 0 27.5 8t10.5 27q5 33 -1.5 103.5t-0.5 116.5q8 57 42 80q-27 24 -19 80q6 45 32.5 116t31.5 104q2 20 -4 27.5t-25 7.5h-34l13 90h35q68 0 98.5 -24t23.5 -78q-7 -49 -42.5 -121t-43.5 -128
q-2 -15 5.5 -22t26.5 -7h42l-13 -90h-42q-35 0 -40 -29z" />
    <glyph glyph-name="asciitilde" unicode="~" horiz-adv-x="298" 
d="M236 602q-30 0 -54.5 17.5t-34.5 17.5q-15 0 -18 -25h-63q8 58 24 81t56 23q30 0 54 -17.5t35 -17.5q14 0 19 25h63q-9 -58 -25.5 -81t-55.5 -23z" />
    <glyph glyph-name="nbspace" unicode="&#xa0;" horiz-adv-x="77" 
 />
    <glyph glyph-name="exclamdown" unicode="&#xa1;" horiz-adv-x="200" 
d="M91 -200h-140l94 480h88zM160 372h-116l18 128h116z" />
    <glyph glyph-name="cent" unicode="&#xa2;" horiz-adv-x="341" 
d="M179 296h113l-10 -71q-7 -55 -33.5 -86.5t-83.5 -37.5l-14 -101h-63l14 102q-54 7 -71 38t-10 85l38 271q15 108 115 121l12 83h63l-12 -82q54 -6 72 -37.5t11 -84.5l-9 -62h-113l9 64q4 20 -13 20q-15 0 -19 -20l-38 -276q-4 -20 13 -20q15 0 19 20z" />
    <glyph glyph-name="sterling" unicode="&#xa3;" horiz-adv-x="396" 
d="M34 318l10 72h37l27 188q17 132 159 132q71 0 99.5 -35.5t20.5 -96.5l-11 -75h-119l11 75q2 21 -16 21q-20 0 -22 -21l-27 -188h68l-10 -72h-68l-25 -179q-4 -23 22 -23h132l-16 -116h-136q-56 0 -81 30q-33 -30 -97 -30l16 116q35 0 38 23l25 179h-37z" />
    <glyph glyph-name="currency" unicode="&#xa4;" horiz-adv-x="374" 
d="M165 125h-23l-44 -125h-108l63 160q-22 28 -13 91l31 221q8 60 39 88l-17 140h108l8 -104h21l39 104h108l-57 -140q23 -30 15 -88l-31 -221q-8 -61 -40 -91l20 -160h-108zM169 228q15 0 18 20l32 226q3 20 -13 20t-19 -20l-32 -226q-3 -20 14 -20z" />
    <glyph glyph-name="yen" unicode="&#xa5;" horiz-adv-x="355" 
d="M188 0h-122l15 112h-58l8 54h58l7 49h-58l7 54h58l-25 431h120l-12 -277l66 277h121l-148 -431h60l-7 -54h-60l-7 -49h60l-8 -54h-60z" />
    <glyph glyph-name="brokenbar" unicode="&#xa6;" horiz-adv-x="212" 
d="M-7 -120l53 378h92l-53 -378h-92zM59 352l53 378h92l-53 -378h-92z" />
    <glyph glyph-name="section" unicode="&#xa7;" horiz-adv-x="358" 
d="M27 268l7 47q8 63 56 102q-35 49 -24 129l4 28q20 136 158 136q140 0 120 -136l-7 -54h-122l8 58q2 21 -14 21q-18 0 -20 -21l-5 -34q-5 -33 4 -54t25 -30t34.5 -21.5t33.5 -28t21.5 -50t-0.5 -88.5l-7 -47q-8 -64 -55 -102q34 -50 23 -129l-4 -28q-20 -136 -158 -136
q-140 0 -120 136l7 54h122l-8 -58q-2 -21 14 -21q18 0 20 21l5 34q5 33 -4 54t-25 30t-34.5 21t-33.5 28t-22 50.5t1 88.5zM156 314l-6 -39q-9 -64 16 -89q7 13 11 37l5 39q9 60 -15 89q-9 -17 -11 -37z" />
    <glyph glyph-name="dieresis" unicode="&#xa8;" horiz-adv-x="298" 
d="M83 663h94l-17 -116h-94zM207 663h94l-17 -116h-94z" />
    <glyph glyph-name="copyright" unicode="&#xa9;" horiz-adv-x="526" 
d="M222 70q80 0 116 41.5t47 117.5l34 242q5 45 1 80.5t-33.5 57t-85.5 21.5q-82 0 -117 -41.5t-45 -117.5l-34 -242q-11 -76 12.5 -117.5t104.5 -41.5zM211 -10q-123 0 -164 63t-25 176l34 242q16 113 75.5 176t180.5 63q62 0 104.5 -18t62 -50t26 -75.5t-2.5 -95.5
l-34 -242q-16 -112 -75.5 -175.5t-181.5 -63.5zM244 213q12 0 13 14l11 72h85l-10 -66q-7 -48 -31.5 -73.5t-78.5 -25.5q-55 0 -73 26t-11 74l33 232q7 48 32 74t80 26q54 0 71.5 -25.5t10.5 -73.5l-8 -55h-85l9 62q3 13 -9 13q-11 0 -13 -13l-35 -248q-1 -13 9 -13z" />
    <glyph glyph-name="ordfeminine" unicode="&#xaa;" horiz-adv-x="277" 
d="M212 178h-189l10 73h189zM178 562l8 52q2 13 -9 13t-13 -13l-5 -36h-87l5 36q13 96 111 96q55 0 73.5 -25t11.5 -72l-46 -323h-50l-9 11q-24 -22 -55 -22q-85 0 -71 93l9 69q8 50 33.5 75t93.5 46zM138 441l-9 -67q-1 -15 10 -15t13 15l16 115q-24 -16 -30 -48z" />
    <glyph glyph-name="guillemotleft" unicode="&#xab;" horiz-adv-x="407" 
d="M15 250l117 185h109l-114 -185l62 -185h-109zM162 250l117 185h109l-114 -185l62 -185h-109z" />
    <glyph glyph-name="logicalnot" unicode="&#xac;" horiz-adv-x="340" 
d="M187 189l13 92h-171l13 90h260l-26 -182h-89z" />
    <glyph glyph-name="uni00AD" unicode="&#xad;" horiz-adv-x="240" 
d="M18 235l12 90h170l-12 -90h-170z" />
    <glyph glyph-name="registered" unicode="&#xae;" horiz-adv-x="526" 
d="M222 70q80 0 116 41.5t47 117.5l34 242q5 45 1 80.5t-33.5 57t-85.5 21.5q-82 0 -117 -41.5t-45 -117.5l-34 -242q-11 -76 12.5 -117.5t104.5 -41.5zM211 -10q-123 0 -164 63t-25 176l34 242q16 113 75.5 176t180.5 63q62 0 104.5 -18t62 -50t26 -75.5t-2.5 -95.5
l-34 -242q-16 -112 -75.5 -175.5t-181.5 -63.5zM369 470l-13 -92q-5 -33 -13 -48t-27 -22l29 -167h-81l-24 165l-24 -165h-78l59 420h98q50 0 65 -23t9 -68zM264 478l-15 -107h17q9 0 10 10l12 86q2 11 -7 11h-17z" />
    <glyph glyph-name="macron" unicode="&#xaf;" horiz-adv-x="270" 
d="M76 547l12 86h170l-12 -86h-170z" />
    <glyph glyph-name="degree" unicode="&#xb0;" horiz-adv-x="276" 
d="M156 484q-56 0 -73 29t-10 84q8 55 33.5 84t80.5 29q56 0 73 -29t9 -84q-7 -55 -32 -84t-81 -29zM165 553q26 0 31 44q7 44 -18 44t-32 -44q-5 -44 19 -44z" />
    <glyph glyph-name="plusminus" unicode="&#xb1;" horiz-adv-x="370" 
d="M13 166h290l-13 -91h-290zM31 293l12 90h100l14 100h90l-14 -100h100l-12 -90h-100l-14 -100h-90l14 100h-100z" />
    <glyph glyph-name="acute" unicode="&#xb4;" horiz-adv-x="217" 
d="M223 685l-78 -135h-68l39 135h107z" />
    <glyph glyph-name="mu" unicode="&#xb5;" horiz-adv-x="344" 
d="M208 500h116l-55 -388q-9 -65 -34.5 -93.5t-81.5 -28.5q-27 0 -47 15l-23 -165h-116l93 660h116l-55 -388q-2 -20 13 -20q16 0 19 21z" />
    <glyph glyph-name="mu" unicode="&#x3bc;" horiz-adv-x="344" 
d="M208 500h116l-55 -388q-9 -65 -34.5 -93.5t-81.5 -28.5q-27 0 -47 15l-23 -165h-116l93 660h116l-55 -388q-2 -20 13 -20q16 0 19 21z" />
    <glyph glyph-name="paragraph" unicode="&#xb6;" horiz-adv-x="386" 
d="M384 700l-121 -860h-123l49 350h-61q-68 0 -90.5 30t-14.5 89l38 270q8 59 38.5 90t98.5 31h186z" />
    <glyph glyph-name="periodcentered" unicode="&#xb7;" horiz-adv-x="196" 
d="M38 344h116l-18 -128h-116z" />
    <glyph glyph-name="cedilla" unicode="&#xb8;" horiz-adv-x="245" 
d="M8 -81l35 81h61l-16 -39q53 -11 45 -62q-4 -33 -26.5 -51t-74.5 -18h-61l24 61h34q15 0 16 14q3 14 -12 14h-25z" />
    <glyph glyph-name="ordmasculine" unicode="&#xba;" horiz-adv-x="276" 
d="M207 178h-188l10 73h188zM272 613l-34 -238q-13 -96 -111 -96t-85 97l34 238q13 96 111 96t85 -97zM163 614l-34 -239q-2 -13 9 -13t13 13l34 239q2 13 -9 13t-13 -13z" />
    <glyph glyph-name="guillemotright" unicode="&#xbb;" horiz-adv-x="407" 
d="M297 435l65 -185l-117 -185h-109l114 185l-62 185h109zM150 435l65 -185l-117 -185h-109l114 185l-62 185h109z" />
    <glyph glyph-name="onequarter" unicode="&#xbc;" horiz-adv-x="216" 
d="M43 372h135l-7 -45h-135zM183 700l-35 -245h25l-6 -49h-102l6 49h25l26 180h-24l5 38q32 0 36 27h44zM54 0l7 56h-64l7 48l71 190h70l-27 -192h17l-7 -46h-17l-7 -56h-50zM47 102h21l6 47q3 16 7.5 43.5t6.5 41.5z" />
    <glyph glyph-name="onehalf" unicode="&#xbd;" horiz-adv-x="215" 
d="M42 372h135l-7 -45h-135zM153 242l-5 -31q-4 -30 -17.5 -52.5t-27.5 -33t-27 -29.5t-16 -45l-1 -2h67l-6 -49h-119l6 46q5 36 19 60.5t28 35.5t27 28t16 40l5 32q0 9 -8 9q-10 0 -10 -9l-5 -32h-50l5 32q7 56 66 56q60 0 53 -56zM182 700l-35 -245h25l-6 -49h-102l6 49
h25l26 180h-24l5 38q32 0 36 27h44z" />
    <glyph glyph-name="threequarters" unicode="&#xbe;" horiz-adv-x="216" 
d="M43 372h135l-7 -45h-135zM150 585l9 63q0 10 -7 10q-10 0 -10 -10l-5 -32h-51l5 32q7 56 67 56q59 0 52 -56l-9 -59q-3 -23 -21 -33q16 -13 13 -34l-9 -64q-8 -56 -68 -56t-52 56l5 36h51l-5 -36q-2 -10 7 -10t10 10l9 66q2 7 -5 7h-20l7 48h20q5 0 7 6zM54 0l7 56h-64
l7 48l71 190h70l-27 -192h17l-7 -46h-17l-7 -56h-50zM47 102h21l6 47q3 16 7.5 43.5t6.5 41.5z" />
    <glyph glyph-name="questiondown" unicode="&#xbf;" horiz-adv-x="340" 
d="M99 -20l-8 -57q-3 -22 15 -22t21 22l9 67h122l-10 -70q-18 -130 -158 -130t-122 130l8 57q7 46 19.5 75t28 45t31.5 34t32.5 55t27.5 94h85q2 -43 -3 -85q-6 -39 -21 -69.5t-29.5 -46.5t-29 -42t-18.5 -57zM230 372h-116l18 128h116z" />
    <glyph glyph-name="Agrave" unicode="&#xc0;" horiz-adv-x="349" 
d="M-35 0l179 700h157l-17 -700h-123l9 136h-53l-29 -136h-123zM159 338l-17 -95h33l9 95q16 170 20 224h-3q-6 -32 -20 -107t-22 -117zM195 740l-41 135h107l2 -135h-68z" />
    <glyph glyph-name="Aacute" unicode="&#xc1;" horiz-adv-x="349" 
d="M-35 0l179 700h157l-17 -700h-123l9 136h-53l-29 -136h-123zM159 338l-17 -95h33l9 95q16 170 20 224h-3q-6 -32 -20 -107t-22 -117zM338 875l-77 -135h-68l38 135h107z" />
    <glyph glyph-name="Acircumflex" unicode="&#xc2;" horiz-adv-x="349" 
d="M-35 0l179 700h157l-17 -700h-123l9 136h-53l-29 -136h-123zM159 338l-17 -95h33l9 95q16 170 20 224h-3q-6 -32 -20 -107t-22 -117zM195 875h102l37 -135h-82l-18 49l-30 -49h-81z" />
    <glyph glyph-name="Atilde" unicode="&#xc3;" horiz-adv-x="349" 
d="M-35 0l179 700h157l-17 -700h-123l9 136h-53l-29 -136h-123zM159 338l-17 -95h33l9 95q16 170 20 224h-3q-6 -32 -20 -107t-22 -117zM278 732q-27 0 -50 15.5t-34 15.5q-15 0 -18 -22h-69q8 59 27 86.5t58 27.5q25 0 48.5 -15.5t35.5 -15.5q15 0 18 22h69
q-8 -59 -27.5 -86.5t-57.5 -27.5z" />
    <glyph glyph-name="Adieresis" unicode="&#xc4;" horiz-adv-x="349" 
d="M-35 0l179 700h157l-17 -700h-123l9 136h-53l-29 -136h-123zM159 338l-17 -95h33l9 95q16 170 20 224h-3q-6 -32 -20 -107t-22 -117zM135 856h94l-16 -116h-94zM259 856h94l-16 -116h-94z" />
    <glyph glyph-name="Aring" unicode="&#xc5;" horiz-adv-x="349" 
d="M-35 0l179 700h157l-17 -700h-123l9 136h-53l-29 -136h-123zM159 338l-17 -95h33l9 95q16 170 20 224h-3q-6 -32 -20 -107t-22 -117zM254 810q4 24 -13 24q-16 0 -20 -24q-3 -23 13 -23q17 0 20 23zM319 810q-12 -84 -93 -84q-82 0 -70 84q13 85 93 85q83 0 70 -85z" />
    <glyph glyph-name="AE" unicode="&#xc6;" horiz-adv-x="491" 
d="M133 129l-41 -129h-127l241 700h303l-16 -116h-110l-25 -173h96l-16 -114h-96l-25 -181h110l-16 -116h-232l18 129h-64zM170 243h43l41 294l-34 -121q-10 -32 -26 -89t-24 -84z" />
    <glyph glyph-name="Ccedilla" unicode="&#xc7;" horiz-adv-x="360" 
d="M66 -81l30 73q-106 14 -89 133l63 450q19 135 162 135q79 0 105.5 -35.5t17.5 -99.5l-15 -109h-121l15 109q4 24 -17 24t-25 -24l-63 -449q-3 -25 18 -25t24 25l17 118h121l-17 -119q-8 -59 -39 -93.5t-96 -40.5l-11 -30q53 -11 45 -62q-4 -33 -26.5 -51t-74.5 -18h-61
l24 61h34q15 0 16 14q3 14 -12 14h-25z" />
    <glyph glyph-name="Egrave" unicode="&#xc8;" horiz-adv-x="306" 
d="M154 297l-25 -181h108l-16 -116h-231l98 700h231l-16 -116h-108l-25 -173h94l-16 -114h-94zM181 740l-41 135h107l2 -135h-68z" />
    <glyph glyph-name="Eacute" unicode="&#xc9;" horiz-adv-x="306" 
d="M154 297l-25 -181h108l-16 -116h-231l98 700h231l-16 -116h-108l-25 -173h94l-16 -114h-94zM318 875l-77 -135h-68l38 135h107z" />
    <glyph glyph-name="Ecircumflex" unicode="&#xca;" horiz-adv-x="306" 
d="M154 297l-25 -181h108l-16 -116h-231l98 700h231l-16 -116h-108l-25 -173h94l-16 -114h-94zM173 875h102l37 -135h-82l-18 49l-30 -49h-81z" />
    <glyph glyph-name="Edieresis" unicode="&#xcb;" horiz-adv-x="306" 
d="M154 297l-25 -181h108l-16 -116h-231l98 700h231l-16 -116h-108l-25 -173h94l-16 -114h-94zM114 856h94l-16 -116h-94zM238 856h94l-16 -116h-94z" />
    <glyph glyph-name="Igrave" unicode="&#xcc;" horiz-adv-x="213" 
d="M-5 0l98 700h123l-98 -700h-123zM129 740l-41 135h107l2 -135h-68z" />
    <glyph glyph-name="Iacute" unicode="&#xcd;" horiz-adv-x="213" 
d="M-5 0l98 700h123l-98 -700h-123zM274 875l-77 -135h-68l38 135h107z" />
    <glyph glyph-name="Icircumflex" unicode="&#xce;" horiz-adv-x="213" 
d="M-5 0l98 700h123l-98 -700h-123zM127 875h102l37 -135h-82l-18 49l-30 -49h-81z" />
    <glyph glyph-name="Idieresis" unicode="&#xcf;" horiz-adv-x="213" 
d="M-5 0l98 700h123l-98 -700h-123zM68 856h94l-16 -116h-94zM192 856h94l-16 -116h-94z" />
    <glyph glyph-name="Eth" unicode="&#xd0;" horiz-adv-x="368" 
d="M-10 0l43 311h-22l12 86h22l43 303h161q73 0 96 -30t13 -95l-63 -450q-9 -66 -39.5 -95.5t-101.5 -29.5h-164zM195 584l-27 -187h21l-12 -86h-21l-27 -195h21q21 0 24 22l59 422q4 24 -19 24h-19z" />
    <glyph glyph-name="Ntilde" unicode="&#xd1;" horiz-adv-x="383" 
d="M181 0l-29 393q-7 -76 -22 -183l-29 -210h-111l98 700h113l29 -394q9 103 20 183l30 211h111l-98 -700h-112zM295 732q-27 0 -50 15.5t-34 15.5q-15 0 -18 -22h-69q8 59 27 86.5t58 27.5q25 0 48.5 -15.5t35.5 -15.5q15 0 18 22h69q-8 -59 -27.5 -86.5t-57.5 -27.5z" />
    <glyph glyph-name="Ograve" unicode="&#xd2;" horiz-adv-x="358" 
d="M143 101q21 0 24 25l63 449q3 24 -17 24q-22 0 -25 -24l-63 -449q-3 -25 18 -25zM127 -10q-144 0 -125 135l63 449q19 136 163 136t125 -136l-63 -449q-19 -135 -163 -135zM201 740l-41 135h107l2 -135h-68z" />
    <glyph glyph-name="Oacute" unicode="&#xd3;" horiz-adv-x="358" 
d="M143 101q21 0 24 25l63 449q3 24 -17 24q-22 0 -25 -24l-63 -449q-3 -25 18 -25zM127 -10q-144 0 -125 135l63 449q19 136 163 136t125 -136l-63 -449q-19 -135 -163 -135zM345 875l-77 -135h-68l38 135h107z" />
    <glyph glyph-name="Ocircumflex" unicode="&#xd4;" horiz-adv-x="358" 
d="M143 101q21 0 24 25l63 449q3 24 -17 24q-22 0 -25 -24l-63 -449q-3 -25 18 -25zM127 -10q-144 0 -125 135l63 449q19 136 163 136t125 -136l-63 -449q-19 -135 -163 -135zM199 875h102l37 -135h-82l-18 49l-30 -49h-81z" />
    <glyph glyph-name="Otilde" unicode="&#xd5;" horiz-adv-x="358" 
d="M143 101q21 0 24 25l63 449q3 24 -17 24q-22 0 -25 -24l-63 -449q-3 -25 18 -25zM127 -10q-144 0 -125 135l63 449q19 136 163 136t125 -136l-63 -449q-19 -135 -163 -135zM283 732q-27 0 -50 15.5t-34 15.5q-15 0 -18 -22h-69q8 59 27 86.5t58 27.5q25 0 48.5 -15.5
t35.5 -15.5q15 0 18 22h69q-8 -59 -27.5 -86.5t-57.5 -27.5z" />
    <glyph glyph-name="Odieresis" unicode="&#xd6;" horiz-adv-x="358" 
d="M143 101q21 0 24 25l63 449q3 24 -17 24q-22 0 -25 -24l-63 -449q-3 -25 18 -25zM127 -10q-144 0 -125 135l63 449q19 136 163 136t125 -136l-63 -449q-19 -135 -163 -135zM140 856h94l-16 -116h-94zM264 856h94l-16 -116h-94z" />
    <glyph glyph-name="multiply" unicode="&#xd7;" horiz-adv-x="368" 
d="M72 136l-55 63l92 81l-69 81l72 63l70 -80l92 80l54 -63l-91 -81l68 -81l-71 -63l-70 80z" />
    <glyph glyph-name="Oslash" unicode="&#xd8;" horiz-adv-x="358" 
d="M143 101q21 0 24 25l63 449q3 24 -17 24q-22 0 -25 -24l-63 -449q-3 -25 18 -25zM0 -30l20 57q-27 35 -18 98l63 449q19 136 163 136q11 0 27 -2l8 22h92l-20 -58q28 -34 18 -98l-63 -449q-19 -135 -163 -135q-10 0 -28 2l-7 -22h-92z" />
    <glyph glyph-name="Ugrave" unicode="&#xd9;" horiz-adv-x="366" 
d="M88 700h122l-81 -576q-3 -23 18 -23t24 23l81 576h122l-81 -577q-19 -133 -162 -133q-78 0 -105.5 35t-18.5 98zM205 740l-41 135h107l2 -135h-68z" />
    <glyph glyph-name="Uacute" unicode="&#xda;" horiz-adv-x="366" 
d="M88 700h122l-81 -576q-3 -23 18 -23t24 23l81 576h122l-81 -577q-19 -133 -162 -133q-78 0 -105.5 35t-18.5 98zM347 875l-77 -135h-68l38 135h107z" />
    <glyph glyph-name="Ucircumflex" unicode="&#xdb;" horiz-adv-x="366" 
d="M88 700h122l-81 -576q-3 -23 18 -23t24 23l81 576h122l-81 -577q-19 -133 -162 -133q-78 0 -105.5 35t-18.5 98zM203 875h102l37 -135h-82l-18 49l-30 -49h-81z" />
    <glyph glyph-name="Udieresis" unicode="&#xdc;" horiz-adv-x="366" 
d="M88 700h122l-81 -576q-3 -23 18 -23t24 23l81 576h122l-81 -577q-19 -133 -162 -133q-78 0 -105.5 35t-18.5 98zM144 856h94l-16 -116h-94zM268 856h94l-16 -116h-94z" />
    <glyph glyph-name="Yacute" unicode="&#xdd;" 
d="M51 0h123l34 247l154 453h-128l-62 -271l14 271h-128l27 -453zM331 875l-77 -135h-68l38 135h107z" />
    <glyph glyph-name="Thorn" unicode="&#xde;" horiz-adv-x="349" 
d="M-10 0l98 700h122l-19 -134h38q72 0 93.5 -31.5t12.5 -94.5l-24 -172q-9 -65 -40.5 -95t-103.5 -30h-35l-20 -143h-122zM175 450l-27 -193h28q13 0 16 15l22 161q3 17 -13 17h-26z" />
    <glyph glyph-name="germandbls" unicode="&#xdf;" horiz-adv-x="337" 
d="M118 -10l15 109q14 0 19.5 5t7.5 20l28 201q3 16 -13 16h-10l16 114h6q15 0 18 15l16 117q3 22 -18 22t-24 -22l-82 -587h-114l82 585q9 65 42.5 100t111.5 35t101.5 -35t14.5 -100l-15 -105q-7 -55 -50 -80q42 -25 33 -80l-27 -197q-10 -70 -41.5 -101.5t-109.5 -31.5
h-7z" />
    <glyph glyph-name="agrave" unicode="&#xe0;" 
d="M168 322l9 67q3 19 -13 19t-19 -19l-6 -44h-110l6 46q17 119 145 119q130 0 113 -123l-54 -387h-68l-13 20q-30 -30 -78 -30q-56 0 -77 30.5t-12 94.5l8 59q8 55 46.5 87t122.5 61zM116 179l-9 -64q-4 -23 12 -23t20 23l17 121q-35 -22 -40 -57zM166 550l-40 135h107
l1 -135h-68z" />
    <glyph glyph-name="aacute" unicode="&#xe1;" 
d="M168 322l9 67q3 19 -13 19t-19 -19l-6 -44h-110l6 46q17 119 145 119q130 0 113 -123l-54 -387h-68l-13 20q-30 -30 -78 -30q-56 0 -77 30.5t-12 94.5l8 59q8 55 46.5 87t122.5 61zM116 179l-9 -64q-4 -23 12 -23t20 23l17 121q-35 -22 -40 -57zM291 685l-78 -135h-68
l39 135h107z" />
    <glyph glyph-name="acircumflex" unicode="&#xe2;" 
d="M168 322l9 67q3 19 -13 19t-19 -19l-6 -44h-110l6 46q17 119 145 119q130 0 113 -123l-54 -387h-68l-13 20q-30 -30 -78 -30q-56 0 -77 30.5t-12 94.5l8 59q8 55 46.5 87t122.5 61zM116 179l-9 -64q-4 -23 12 -23t20 23l17 121q-35 -22 -40 -57zM155 682h102l36 -135h-82
l-17 49l-31 -49h-81z" />
    <glyph glyph-name="atilde" unicode="&#xe3;" 
d="M168 322l9 67q3 19 -13 19t-19 -19l-6 -44h-110l6 46q17 119 145 119q130 0 113 -123l-54 -387h-68l-13 20q-30 -30 -78 -30q-56 0 -77 30.5t-12 94.5l8 59q8 55 46.5 87t122.5 61zM116 179l-9 -64q-4 -23 12 -23t20 23l17 121q-35 -22 -40 -57zM240 542
q-27 0 -50.5 15.5t-34.5 15.5q-15 0 -18 -22h-69q8 59 27 86.5t58 27.5q25 0 49 -15.5t36 -15.5q15 0 18 22h69q-9 -59 -28 -86.5t-57 -27.5z" />
    <glyph glyph-name="adieresis" unicode="&#xe4;" 
d="M168 322l9 67q3 19 -13 19t-19 -19l-6 -44h-110l6 46q17 119 145 119q130 0 113 -123l-54 -387h-68l-13 20q-30 -30 -78 -30q-56 0 -77 30.5t-12 94.5l8 59q8 55 46.5 87t122.5 61zM116 179l-9 -64q-4 -23 12 -23t20 23l17 121q-35 -22 -40 -57zM96 663h94l-17 -116h-94z
M220 663h94l-17 -116h-94z" />
    <glyph glyph-name="aring" unicode="&#xe5;" 
d="M168 322l9 67q3 19 -13 19t-19 -19l-6 -44h-110l6 46q17 119 145 119q130 0 113 -123l-54 -387h-68l-13 20q-30 -30 -78 -30q-56 0 -77 30.5t-12 94.5l8 59q8 55 46.5 87t122.5 61zM116 179l-9 -64q-4 -23 12 -23t20 23l17 121q-35 -22 -40 -57zM214 615q3 24 -14 24
q-16 0 -19 -24q-3 -23 13 -23q17 0 20 23zM279 615q-12 -84 -94 -84q-81 0 -69 84q12 85 93 85q82 0 70 -85z" />
    <glyph glyph-name="ae" unicode="&#xe6;" horiz-adv-x="469" 
d="M115 176l-8 -62q-3 -22 13 -22t19 23l17 121q-36 -23 -41 -60zM293 388l-10 -73h32l10 73q3 20 -13 20t-19 -20zM271 228l-17 -116q-2 -20 13 -20q17 0 19 20l9 60h113l-8 -55q-8 -61 -41 -94t-106 -33q-45 0 -73 15q-32 -15 -76 -15q-73 0 -97.5 32t-15.5 93l8 59
q8 55 46.5 87t122.5 61l9 66q3 20 -12 20q-13 0 -16 -20l-4 -26h-114l4 29q17 119 145 119q44 0 70 -17q29 17 76 17q71 0 95.5 -33t15.5 -93l-21 -156h-145z" />
    <glyph glyph-name="ccedilla" unicode="&#xe7;" horiz-adv-x="326" 
d="M49 -81l32 74q-54 7 -70.5 38t-9.5 84l38 271q8 60 42.5 92t106.5 32q71 0 95.5 -32t16.5 -92l-9 -62h-113l9 64q3 20 -13 20t-19 -20l-39 -276q-2 -20 13 -20q17 0 19 20l11 74h113l-10 -71q-8 -56 -35 -86.5t-86 -36.5l-12 -31q53 -11 45 -62q-4 -33 -26.5 -51
t-74.5 -18h-61l24 61h34q15 0 16 14q3 14 -12 14h-25z" />
    <glyph glyph-name="egrave" unicode="&#xe8;" horiz-adv-x="331" 
d="M133 228l-17 -116q-2 -20 13 -20q17 0 19 20l11 73h113l-10 -68q-8 -61 -41 -94t-106 -33q-74 0 -98 33t-16 94l37 267q9 60 43.5 93t106.5 33q71 0 95.5 -33t15.5 -93l-21 -156h-145zM155 388l-10 -73h32l10 73q3 20 -13 20t-19 -20zM168 550l-40 135h107l1 -135h-68z
" />
    <glyph glyph-name="eacute" unicode="&#xe9;" horiz-adv-x="331" 
d="M133 228l-17 -116q-2 -20 13 -20q17 0 19 20l11 73h113l-10 -68q-8 -61 -41 -94t-106 -33q-74 0 -98 33t-16 94l37 267q9 60 43.5 93t106.5 33q71 0 95.5 -33t15.5 -93l-21 -156h-145zM155 388l-10 -73h32l10 73q3 20 -13 20t-19 -20zM300 685l-78 -135h-68l39 135h107z
" />
    <glyph glyph-name="ecircumflex" unicode="&#xea;" horiz-adv-x="331" 
d="M133 228l-17 -116q-2 -20 13 -20q17 0 19 20l11 73h113l-10 -68q-8 -61 -41 -94t-106 -33q-74 0 -98 33t-16 94l37 267q9 60 43.5 93t106.5 33q71 0 95.5 -33t15.5 -93l-21 -156h-145zM155 388l-10 -73h32l10 73q3 20 -13 20t-19 -20zM159 682h102l36 -135h-82l-17 49
l-31 -49h-81z" />
    <glyph glyph-name="edieresis" unicode="&#xeb;" horiz-adv-x="331" 
d="M133 228l-17 -116q-2 -20 13 -20q17 0 19 20l11 73h113l-10 -68q-8 -61 -41 -94t-106 -33q-74 0 -98 33t-16 94l37 267q9 60 43.5 93t106.5 33q71 0 95.5 -33t15.5 -93l-21 -156h-145zM155 388l-10 -73h32l10 73q3 20 -13 20t-19 -20zM99 663h94l-17 -116h-94zM223 663
h94l-17 -116h-94z" />
    <glyph glyph-name="igrave" unicode="&#xec;" horiz-adv-x="196" 
d="M60 500h116l-70 -500h-116zM94 550l-40 135h107l1 -135h-68z" />
    <glyph glyph-name="iacute" unicode="&#xed;" horiz-adv-x="196" 
d="M60 500h116l-70 -500h-116zM234 685l-78 -135h-68l39 135h107z" />
    <glyph glyph-name="icircumflex" unicode="&#xee;" horiz-adv-x="196" 
d="M60 500h116l-70 -500h-116zM92 682h102l36 -135h-82l-17 49l-31 -49h-81z" />
    <glyph glyph-name="idieresis" unicode="&#xef;" horiz-adv-x="196" 
d="M60 500h116l-70 -500h-116zM32 663h94l-17 -116h-94zM156 663h94l-17 -116h-94z" />
    <glyph glyph-name="eth" unicode="&#xf0;" horiz-adv-x="355" 
d="M140 569l39 15q-23 56 -65 116h128q30 -47 42 -72l50 20l19 -63l-46 -19q23 -84 5 -208l-33 -237q-19 -131 -153 -131t-115 131l24 174q18 124 121 124q24 0 46 -10q4 59 -5 112l-38 -15zM150 290l-23 -169q-4 -22 14 -22q19 0 22 22l23 169q3 22 -16 22q-16 0 -20 -22z
" />
    <glyph glyph-name="ntilde" unicode="&#xf1;" horiz-adv-x="339" 
d="M254 0h-116l54 388q4 20 -13 20q-16 0 -19 -20l-54 -388h-116l70 500h68l14 -21q34 31 84 31q55 0 73 -29t9 -94zM250 542q-27 0 -50.5 15.5t-34.5 15.5q-15 0 -18 -22h-69q8 59 27 86.5t58 27.5q25 0 49 -15.5t36 -15.5q15 0 18 22h69q-9 -59 -28 -86.5t-57 -27.5z" />
    <glyph glyph-name="ograve" unicode="&#xf2;" 
d="M124 92q16 0 19 20l39 276q2 20 -13 20q-17 0 -19 -20l-39 -276q-3 -20 13 -20zM110 -10q-74 0 -98.5 32t-15.5 93l38 271q8 60 42.5 92t106.5 32t97.5 -32t17.5 -92l-38 -271q-9 -61 -42.5 -93t-107.5 -32zM184 550l-40 135h107l1 -135h-68z" />
    <glyph glyph-name="oacute" unicode="&#xf3;" 
d="M124 92q16 0 19 20l39 276q2 20 -13 20q-17 0 -19 -20l-39 -276q-3 -20 13 -20zM110 -10q-74 0 -98.5 32t-15.5 93l38 271q8 60 42.5 92t106.5 32t97.5 -32t17.5 -92l-38 -271q-9 -61 -42.5 -93t-107.5 -32zM295 685l-78 -135h-68l39 135h107z" />
    <glyph glyph-name="ocircumflex" unicode="&#xf4;" 
d="M124 92q16 0 19 20l39 276q2 20 -13 20q-17 0 -19 -20l-39 -276q-3 -20 13 -20zM110 -10q-74 0 -98.5 32t-15.5 93l38 271q8 60 42.5 92t106.5 32t97.5 -32t17.5 -92l-38 -271q-9 -61 -42.5 -93t-107.5 -32zM155 682h102l36 -135h-82l-17 49l-31 -49h-81z" />
    <glyph glyph-name="otilde" unicode="&#xf5;" 
d="M124 92q16 0 19 20l39 276q2 20 -13 20q-17 0 -19 -20l-39 -276q-3 -20 13 -20zM110 -10q-74 0 -98.5 32t-15.5 93l38 271q8 60 42.5 92t106.5 32t97.5 -32t17.5 -92l-38 -271q-9 -61 -42.5 -93t-107.5 -32zM240 542q-27 0 -50.5 15.5t-34.5 15.5q-15 0 -18 -22h-69
q8 59 27 86.5t58 27.5q25 0 49 -15.5t36 -15.5q15 0 18 22h69q-9 -59 -28 -86.5t-57 -27.5z" />
    <glyph glyph-name="odieresis" unicode="&#xf6;" 
d="M124 92q16 0 19 20l39 276q2 20 -13 20q-17 0 -19 -20l-39 -276q-3 -20 13 -20zM110 -10q-74 0 -98.5 32t-15.5 93l38 271q8 60 42.5 92t106.5 32t97.5 -32t17.5 -92l-38 -271q-9 -61 -42.5 -93t-107.5 -32zM96 663h94l-17 -116h-94zM220 663h94l-17 -116h-94z" />
    <glyph glyph-name="divide" unicode="&#xf7;" horiz-adv-x="370" 
d="M35 325h290l-12 -90h-290zM111 204h104l-15 -107h-104zM148 463h104l-15 -107h-104z" />
    <glyph glyph-name="oslash" unicode="&#xf8;" 
d="M124 92q16 0 19 20l39 276q2 20 -13 20q-17 0 -19 -20l-39 -276q-3 -20 13 -20zM-12 -30l22 54q-24 29 -14 91l38 271q8 60 42.5 92t106.5 32q3 0 10 -0.5t11 -0.5l9 21h92l-23 -55q24 -31 16 -89l-38 -271q-9 -61 -42.5 -93t-107.5 -32q-4 0 -11.5 0.5t-10.5 0.5l-8 -21
h-92z" />
    <glyph glyph-name="ugrave" unicode="&#xf9;" horiz-adv-x="344" 
d="M60 500h116l-55 -388q-2 -20 13 -20q16 0 19 20l55 388h116l-70 -500h-68l-13 19q-27 -29 -82 -29q-56 0 -75.5 29t-10.5 94zM174 550l-40 135h107l1 -135h-68z" />
    <glyph glyph-name="uacute" unicode="&#xfa;" horiz-adv-x="344" 
d="M60 500h116l-55 -388q-2 -20 13 -20q16 0 19 20l55 388h116l-70 -500h-68l-13 19q-27 -29 -82 -29q-56 0 -75.5 29t-10.5 94zM304 685l-78 -135h-68l39 135h107z" />
    <glyph glyph-name="ucircumflex" unicode="&#xfb;" horiz-adv-x="344" 
d="M60 500h116l-55 -388q-2 -20 13 -20q16 0 19 20l55 388h116l-70 -500h-68l-13 19q-27 -29 -82 -29q-56 0 -75.5 29t-10.5 94zM165 682h102l36 -135h-82l-17 49l-31 -49h-81z" />
    <glyph glyph-name="udieresis" unicode="&#xfc;" horiz-adv-x="344" 
d="M60 500h116l-55 -388q-2 -20 13 -20q16 0 19 20l55 388h116l-70 -500h-68l-13 19q-27 -29 -82 -29q-56 0 -75.5 29t-10.5 94zM106 663h94l-17 -116h-94zM230 663h94l-17 -116h-94z" />
    <glyph glyph-name="yacute" unicode="&#xfd;" horiz-adv-x="312" 
d="M-9 -170q-33 0 -51 11l14 103q27 -11 50 -11q26 0 38 33l10 33l-22 501h121l-15 -281h2l63 281h121l-167 -535q-24 -74 -60 -104.5t-104 -30.5zM290 685l-78 -135h-68l39 135h107z" />
    <glyph glyph-name="thorn" unicode="&#xfe;" horiz-adv-x="339" 
d="M153 113l39 275q4 20 -13 20q-16 0 -19 -20l-39 -277q-3 -19 13 -19t19 21zM-33 -160l122 870h116l-30 -214q30 14 51 14q56 0 73.5 -28t8.5 -93l-39 -278q-9 -65 -34.5 -93t-81.5 -28q-21 0 -47 14l-23 -164h-116z" />
    <glyph glyph-name="ydieresis" unicode="&#xff;" horiz-adv-x="312" 
d="M-9 -170q-33 0 -51 11l14 103q27 -11 50 -11q26 0 38 33l10 33l-22 501h121l-15 -281h2l63 281h121l-167 -535q-24 -74 -60 -104.5t-104 -30.5zM90 663h94l-17 -116h-94zM214 663h94l-17 -116h-94z" />
    <glyph glyph-name="Amacron" unicode="&#x100;" horiz-adv-x="349" 
d="M-35 0l179 700h157l-17 -700h-123l9 136h-53l-29 -136h-123zM159 338l-17 -95h33l9 95q16 170 20 224h-3q-6 -32 -20 -107t-22 -117zM143 740l12 86h170l-12 -86h-170z" />
    <glyph glyph-name="amacron" unicode="&#x101;" 
d="M168 322l9 67q3 19 -13 19t-19 -19l-6 -44h-110l6 46q17 119 145 119q130 0 113 -123l-54 -387h-68l-13 20q-30 -30 -78 -30q-56 0 -77 30.5t-12 94.5l8 59q8 55 46.5 87t122.5 61zM116 179l-9 -64q-4 -23 12 -23t20 23l17 121q-35 -22 -40 -57zM103 547l12 86h170
l-12 -86h-170z" />
    <glyph glyph-name="Abreve" unicode="&#x102;" horiz-adv-x="349" 
d="M-35 0l179 700h157l-17 -700h-123l9 136h-53l-29 -136h-123zM159 338l-17 -95h33l9 95q16 170 20 224h-3q-6 -32 -20 -107t-22 -117zM262 847h77q-9 -62 -36.5 -90.5t-76.5 -28.5t-68 28.5t-10 90.5h75q-6 -34 15 -34q18 0 24 34z" />
    <glyph glyph-name="abreve" unicode="&#x103;" 
d="M168 322l9 67q3 19 -13 19t-19 -19l-6 -44h-110l6 46q17 119 145 119q130 0 113 -123l-54 -387h-68l-13 20q-30 -30 -78 -30q-56 0 -77 30.5t-12 94.5l8 59q8 55 46.5 87t122.5 61zM116 179l-9 -64q-4 -23 12 -23t20 23l17 121q-35 -22 -40 -57zM219 659h77
q-8 -61 -35.5 -90t-77.5 -29q-49 0 -67.5 28.5t-10.5 90.5h75q-4 -34 15 -34q20 0 24 34z" />
    <glyph glyph-name="Aogonek" unicode="&#x104;" horiz-adv-x="349" 
d="M260 -170h-22q-51 0 -73.5 21t-17.5 54q9 59 70 95h-56l9 136h-53l-29 -136h-123l179 700h157l-17 -700q-37 -28 -42 -57q-1 -9 4.5 -14.5t16.5 -5.5h10zM159 338l-17 -95h33l9 95q16 170 20 224h-3q-6 -32 -20 -107t-22 -117z" />
    <glyph glyph-name="aogonek" unicode="&#x105;" 
d="M215 -170h-22q-51 0 -73.5 21t-17.5 54q9 58 69 95l-13 20q-30 -30 -78 -30q-56 0 -77 30.5t-12 94.5l8 59q8 55 46.5 87t122.5 61l9 66q3 20 -12 20q-13 0 -16 -20l-4 -26h-114l4 29q17 119 145 119q130 0 113 -123l-54 -387q-37 -28 -42 -57q-1 -9 4.5 -14.5t16.5 -5.5
h10zM115 176l-8 -62q-3 -22 13 -22t19 23l17 121q-36 -23 -41 -60z" />
    <glyph glyph-name="Cacute" unicode="&#x106;" horiz-adv-x="365" 
d="M188 244h121l-17 -119q-9 -64 -45.5 -99.5t-115.5 -35.5q-143 0 -124 135l63 450q19 135 162 135q79 0 105.5 -35.5t17.5 -99.5l-15 -109h-121l15 109q4 24 -17 24t-25 -24l-63 -449q-3 -25 18 -25t24 25zM348 875l-77 -135h-68l38 135h107z" />
    <glyph glyph-name="cacute" unicode="&#x107;" horiz-adv-x="326" 
d="M159 185h113l-10 -70q-9 -61 -41.5 -93t-105.5 -32q-74 0 -98.5 32t-15.5 93l38 271q8 60 42.5 92t106.5 32q71 0 95.5 -32t16.5 -92l-9 -61h-113l9 63q3 20 -13 20t-19 -20l-39 -276q-2 -20 13 -20q17 0 19 20zM296 685l-78 -135h-68l39 135h107z" />
    <glyph glyph-name="Ccircumflex" unicode="&#x108;" horiz-adv-x="365" 
d="M188 244h121l-17 -119q-9 -64 -45.5 -99.5t-115.5 -35.5q-143 0 -124 135l63 450q19 135 162 135q79 0 105.5 -35.5t17.5 -99.5l-15 -109h-121l15 109q4 24 -17 24t-25 -24l-63 -449q-3 -25 18 -25t24 25zM203 875h102l37 -135h-82l-18 49l-30 -49h-81z" />
    <glyph glyph-name="ccircumflex" unicode="&#x109;" horiz-adv-x="326" 
d="M159 185h113l-10 -70q-9 -61 -41.5 -93t-105.5 -32q-74 0 -98.5 32t-15.5 93l38 271q8 60 42.5 92t106.5 32q71 0 95.5 -32t16.5 -92l-9 -61h-113l9 63q3 20 -13 20t-19 -20l-39 -276q-2 -20 13 -20q17 0 19 20zM156 682h102l36 -135h-82l-17 49l-31 -49h-81z" />
    <glyph glyph-name="Cdotaccent" unicode="&#x10a;" horiz-adv-x="365" 
d="M188 244h121l-17 -119q-9 -64 -45.5 -99.5t-115.5 -35.5q-143 0 -124 135l63 450q19 135 162 135q79 0 105.5 -35.5t17.5 -99.5l-15 -109h-121l15 109q4 24 -17 24t-25 -24l-63 -449q-3 -25 18 -25t24 25zM197 864h112l-17 -124h-112z" />
    <glyph glyph-name="cdotaccent" unicode="&#x10b;" horiz-adv-x="326" 
d="M159 185h113l-10 -70q-9 -61 -41.5 -93t-105.5 -32q-74 0 -98.5 32t-15.5 93l38 271q8 60 42.5 92t106.5 32q71 0 95.5 -32t16.5 -92l-9 -61h-113l9 63q3 20 -13 20t-19 -20l-39 -276q-2 -20 13 -20q17 0 19 20zM151 671h112l-18 -124h-112z" />
    <glyph glyph-name="Ccaron" unicode="&#x10c;" horiz-adv-x="365" 
d="M188 244h121l-17 -119q-9 -64 -45.5 -99.5t-115.5 -35.5q-143 0 -124 135l63 450q19 135 162 135q79 0 105.5 -35.5t17.5 -99.5l-15 -109h-121l15 109q4 24 -17 24t-25 -24l-63 -449q-3 -25 18 -25t24 25zM287 740h-102l-36 135h81l18 -49l30 49h82z" />
    <glyph glyph-name="ccaron" unicode="&#x10d;" horiz-adv-x="326" 
d="M159 185h113l-10 -70q-9 -61 -41.5 -93t-105.5 -32q-74 0 -98.5 32t-15.5 93l38 271q8 60 42.5 92t106.5 32q71 0 95.5 -32t16.5 -92l-9 -61h-113l9 63q3 20 -13 20t-19 -20l-39 -276q-2 -20 13 -20q17 0 19 20zM239 547h-102l-35 135h81l17 -49l31 49h82z" />
    <glyph glyph-name="Dcaron" unicode="&#x10e;" horiz-adv-x="368" 
d="M-10 0l98 700h161q73 0 96 -30t13 -95l-63 -450q-9 -66 -39.5 -95.5t-101.5 -29.5h-164zM195 584l-66 -468h21q21 0 24 22l59 422q4 24 -19 24h-19zM274 740h-102l-36 135h81l18 -49l30 49h82z" />
    <glyph glyph-name="dcaron" unicode="&#x10f;" horiz-adv-x="389" 
d="M155 387l-39 -275q-2 -20 13 -20q16 0 19 20l39 277q3 19 -13 19t-19 -21zM0 113l39 276q9 65 34.5 93t81.5 28q21 0 47 -14l30 214h116l-99 -710h-68l-14 21q-29 -31 -81 -31q-56 0 -75.5 29t-10.5 94zM372 710h86l-53 -160h-55z" />
    <glyph glyph-name="Dcroat" unicode="&#x110;" horiz-adv-x="368" 
d="M-10 0l43 311h-22l12 86h22l43 303h161q73 0 96 -30t13 -95l-63 -450q-9 -66 -39.5 -95.5t-101.5 -29.5h-164zM195 584l-27 -187h21l-12 -86h-21l-27 -195h21q21 0 24 22l59 422q4 24 -19 24h-19z" />
    <glyph glyph-name="dcroat" unicode="&#x111;" horiz-adv-x="339" 
d="M141 567l12 86h71l8 57h116l-99 -710h-68l-14 21q-29 -31 -81 -31q-56 0 -75.5 29t-10.5 94l39 276q9 65 34.5 93t81.5 28q21 0 47 -14l10 71h-71zM155 387l-39 -275q-2 -20 13 -20q16 0 19 20l39 277q3 19 -13 19t-19 -21z" />
    <glyph glyph-name="Emacron" unicode="&#x112;" horiz-adv-x="306" 
d="M154 297l-25 -181h108l-16 -116h-231l98 700h231l-16 -116h-108l-25 -173h94l-16 -114h-94zM122 740l12 86h170l-12 -86h-170z" />
    <glyph glyph-name="emacron" unicode="&#x113;" horiz-adv-x="331" 
d="M133 228l-17 -116q-2 -20 13 -20q17 0 19 20l11 73h113l-10 -68q-8 -61 -41 -94t-106 -33q-74 0 -98 33t-16 94l37 267q9 60 43.5 93t106.5 33q71 0 95.5 -33t15.5 -93l-21 -156h-145zM155 388l-10 -73h32l10 73q3 20 -13 20t-19 -20zM106 547l12 86h170l-12 -86h-170z
" />
    <glyph glyph-name="Ebreve" unicode="&#x114;" horiz-adv-x="306" 
d="M154 297l-25 -181h108l-16 -116h-231l98 700h231l-16 -116h-108l-25 -173h94l-16 -114h-94zM240 847h77q-9 -62 -36.5 -90.5t-76.5 -28.5t-68 28.5t-10 90.5h75q-6 -34 15 -34q18 0 24 34z" />
    <glyph glyph-name="ebreve" unicode="&#x115;" horiz-adv-x="331" 
d="M133 228l-17 -116q-2 -20 13 -20q17 0 19 20l11 73h113l-10 -68q-8 -61 -41 -94t-106 -33q-74 0 -98 33t-16 94l37 267q9 60 43.5 93t106.5 33q71 0 95.5 -33t15.5 -93l-21 -156h-145zM155 388l-10 -73h32l10 73q3 20 -13 20t-19 -20zM226 659h77q-8 -61 -35.5 -90
t-77.5 -29q-49 0 -67.5 28.5t-10.5 90.5h75q-4 -34 15 -34q20 0 24 34z" />
    <glyph glyph-name="Edotaccent" unicode="&#x116;" horiz-adv-x="306" 
d="M154 297l-25 -181h108l-16 -116h-231l98 700h231l-16 -116h-108l-25 -173h94l-16 -114h-94zM168 864h112l-17 -124h-112z" />
    <glyph glyph-name="edotaccent" unicode="&#x117;" horiz-adv-x="331" 
d="M133 228l-17 -116q-2 -20 13 -20q17 0 19 20l11 73h113l-10 -68q-8 -61 -41 -94t-106 -33q-74 0 -98 33t-16 94l37 267q9 60 43.5 93t106.5 33q71 0 95.5 -33t15.5 -93l-21 -156h-145zM155 388l-10 -73h32l10 73q3 20 -13 20t-19 -20zM153 671h112l-18 -124h-112z" />
    <glyph glyph-name="Eogonek" unicode="&#x118;" horiz-adv-x="306" 
d="M197 -170h-22q-51 0 -73.5 21t-17.5 54q9 59 70 95h-164l98 700h231l-16 -116h-108l-25 -173h94l-16 -114h-94l-25 -181h108l-16 -116q-37 -28 -42 -57q-1 -9 4.5 -14.5t16.5 -5.5h10z" />
    <glyph glyph-name="eogonek" unicode="&#x119;" horiz-adv-x="331" 
d="M180 -157h-22q-51 0 -73 20.5t-17 54.5q6 43 38 72q-68 2 -90.5 35t-14.5 92l37 267q9 60 43.5 93t106.5 33q71 0 95.5 -33t15.5 -93l-21 -156h-145l-17 -116q-2 -20 13 -20q17 0 19 20l9 60h113l-8 -55q-12 -84 -68 -112q-26 -21 -31 -49q-1 -9 4.5 -14.5t16.5 -5.5h10z
M155 388l-10 -73h32l10 73q3 20 -13 20t-19 -20z" />
    <glyph glyph-name="Ecaron" unicode="&#x11a;" horiz-adv-x="306" 
d="M154 297l-25 -181h108l-16 -116h-231l98 700h231l-16 -116h-108l-25 -173h94l-16 -114h-94zM257 740h-102l-36 135h81l18 -49l30 49h82z" />
    <glyph glyph-name="ecaron" unicode="&#x11b;" horiz-adv-x="331" 
d="M133 228l-17 -116q-2 -20 13 -20q17 0 19 20l11 73h113l-10 -68q-8 -61 -41 -94t-106 -33q-74 0 -98 33t-16 94l37 267q9 60 43.5 93t106.5 33q71 0 95.5 -33t15.5 -93l-21 -156h-145zM155 388l-10 -73h32l10 73q3 20 -13 20t-19 -20zM242 547h-102l-35 135h81l17 -49
l31 49h82z" />
    <glyph glyph-name="Gcircumflex" unicode="&#x11c;" horiz-adv-x="366" 
d="M174 297l16 114h143l-40 -286q-19 -135 -162 -135t-124 135l63 450q19 135 162 135t124 -135l-14 -102h-122l15 104q2 22 -18 22q-22 0 -24 -22l-64 -451q-3 -25 18 -25t24 25l24 171h-21zM203 875h102l37 -135h-82l-18 49l-30 -49h-81z" />
    <glyph glyph-name="gcircumflex" unicode="&#x11d;" horiz-adv-x="326" 
d="M151 682h102l32 -120q12 3 25 3q20 0 34 -5l-12 -85q-23 8 -43 8q-8 0 -14 -3q29 -28 21 -95l-23 -161q-8 -58 -42.5 -88t-106.5 -30q-29 0 -32 -22q-1 -11 6 -17t20 -6q78 0 105.5 -29t19.5 -88q-18 -114 -156 -114q-75 0 -104 30.5t-21 86.5q8 61 61 95q-20 16 -17 41
q5 29 32 43q-38 29 -29 98l23 161q17 125 149 125q17 0 43 -4q14 26 32 41h-49l-17 49l-31 -49h-81zM167 408q-16 0 -19 -22l-25 -173q-3 -23 13 -23t19 23l25 173q3 22 -13 22zM109 -11q-30 0 -34 -30q-4 -31 25 -31q30 0 34 33q4 28 -25 28z" />
    <glyph glyph-name="Gbreve" unicode="&#x11e;" horiz-adv-x="366" 
d="M174 297l16 114h143l-40 -286q-19 -135 -162 -135t-124 135l63 450q19 135 162 135t124 -135l-14 -102h-122l15 104q2 22 -18 22q-22 0 -24 -22l-64 -451q-3 -25 18 -25t24 25l24 171h-21zM270 847h77q-9 -62 -36.5 -90.5t-76.5 -28.5t-68 28.5t-10 90.5h75
q-6 -34 15 -34q18 0 24 34z" />
    <glyph glyph-name="gbreve" unicode="&#x11f;" horiz-adv-x="326" 
d="M167 408q-16 0 -19 -22l-25 -173q-3 -23 13 -23t19 23l25 173q3 22 -13 22zM124 106q-29 0 -32 -22q-1 -11 6 -17t20 -6q78 0 105.5 -29t19.5 -88q-18 -114 -156 -114q-75 0 -104 30.5t-21 86.5q8 61 61 95q-20 16 -17 41q5 29 32 43q-38 29 -29 98l23 161
q17 125 149 125q17 0 43 -4q31 59 86 59q20 0 34 -5l-12 -85q-23 8 -43 8q-8 0 -14 -3q29 -28 21 -95l-23 -161q-8 -58 -42.5 -88t-106.5 -30zM109 -11q-30 0 -34 -30q-4 -31 25 -31q30 0 34 33q4 28 -25 28zM219 659h77q-8 -61 -35.5 -90t-77.5 -29q-49 0 -67.5 28.5
t-10.5 90.5h75q-4 -34 15 -34q20 0 24 34z" />
    <glyph glyph-name="Gdotaccent" unicode="&#x120;" horiz-adv-x="366" 
d="M174 297l16 114h143l-40 -286q-19 -135 -162 -135t-124 135l63 450q19 135 162 135t124 -135l-14 -102h-122l15 104q2 22 -18 22q-22 0 -24 -22l-64 -451q-3 -25 18 -25t24 25l24 171h-21zM198 864h112l-17 -124h-112z" />
    <glyph glyph-name="gdotaccent" unicode="&#x121;" horiz-adv-x="326" 
d="M167 408q-16 0 -19 -22l-25 -173q-3 -23 13 -23t19 23l25 173q3 22 -13 22zM124 106q-29 0 -32 -22q-1 -11 6 -17t20 -6q78 0 105.5 -29t19.5 -88q-18 -114 -156 -114q-75 0 -104 30.5t-21 86.5q8 61 61 95q-20 16 -17 41q5 29 32 43q-38 29 -29 98l23 161
q17 125 149 125q17 0 43 -4q31 59 86 59q20 0 34 -5l-12 -85q-23 8 -43 8q-8 0 -14 -3q29 -28 21 -95l-23 -161q-8 -58 -42.5 -88t-106.5 -30zM109 -11q-30 0 -34 -30q-4 -31 25 -31q30 0 34 33q4 28 -25 28zM147 671h112l-18 -124h-112z" />
    <glyph glyph-name="Gcommaaccent" unicode="&#x122;" horiz-adv-x="366" 
d="M174 297l16 114h143l-40 -286q-19 -135 -162 -135t-124 135l63 450q19 135 162 135t124 -135l-14 -102h-122l15 104q2 22 -18 22q-22 0 -24 -22l-64 -451q-3 -25 18 -25t24 25l24 171h-21zM74 -48h103l-52 -122h-68z" />
    <glyph glyph-name="gcommaaccent" unicode="&#x123;" horiz-adv-x="326" 
d="M167 408q-16 0 -19 -22l-25 -173q-3 -23 13 -23t19 23l25 173q3 22 -13 22zM124 106q-29 0 -32 -22q-1 -11 6 -17t20 -6q78 0 105.5 -29t19.5 -88q-18 -114 -156 -114q-75 0 -104 30.5t-21 86.5q8 61 61 95q-20 16 -17 41q5 29 32 43q-38 29 -29 98l23 161
q17 125 149 125q17 0 43 -4q31 59 86 59q20 0 34 -5l-12 -85q-23 8 -43 8q-8 0 -14 -3q29 -28 21 -95l-23 -161q-8 -58 -42.5 -88t-106.5 -30zM109 -11q-30 0 -34 -30q-4 -31 25 -31q30 0 34 33q4 28 -25 28zM262 549h-103l52 122h68z" />
    <glyph glyph-name="Hcircumflex" unicode="&#x124;" horiz-adv-x="368" 
d="M154 297l-41 -297h-123l98 700h123l-41 -289h42l41 289h123l-98 -700h-123l41 297h-42zM204 875h102l37 -135h-82l-18 49l-30 -49h-81z" />
    <glyph glyph-name="hcircumflex" unicode="&#x125;" horiz-adv-x="339" 
d="M254 0h-116l54 387q3 21 -13 21t-19 -20l-54 -388h-116l99 710h116l-30 -215q22 15 51 15q56 0 73.5 -28.5t8.5 -93.5zM94 877h102l36 -135h-82l-17 49l-31 -49h-81z" />
    <glyph glyph-name="Hbar" unicode="&#x126;" horiz-adv-x="368" 
d="M157 297l-41 -297h-123l74 528h-33l7 52h33l17 120h123l-17 -120h42l17 120h123l-17 -120h27l-7 -52h-27l-74 -528h-123l41 297h-42zM173 411h42l17 117h-42z" />
    <glyph glyph-name="hbar" unicode="&#x127;" horiz-adv-x="339" 
d="M254 0h-116l54 387q3 21 -13 21t-19 -20l-54 -388h-116l99 710h116l-8 -61h141l-12 -86h-141l-10 -68q22 15 51 15q56 0 73.5 -28.5t8.5 -93.5z" />
    <glyph glyph-name="Itilde" unicode="&#x128;" horiz-adv-x="213" 
d="M-5 0l98 700h123l-98 -700h-123zM211 732q-27 0 -50 15.5t-34 15.5q-15 0 -18 -22h-69q8 59 27 86.5t58 27.5q25 0 48.5 -15.5t35.5 -15.5q15 0 18 22h69q-8 -59 -27.5 -86.5t-57.5 -27.5z" />
    <glyph glyph-name="itilde" unicode="&#x129;" horiz-adv-x="196" 
d="M60 500h116l-70 -500h-116zM176 542q-27 0 -50.5 15.5t-34.5 15.5q-15 0 -18 -22h-69q8 59 27 86.5t58 27.5q25 0 49 -15.5t36 -15.5q15 0 18 22h69q-9 -59 -28 -86.5t-57 -27.5z" />
    <glyph glyph-name="Imacron" unicode="&#x12a;" horiz-adv-x="213" 
d="M-5 0l98 700h123l-98 -700h-123zM76 740l12 86h170l-12 -86h-170z" />
    <glyph glyph-name="imacron" unicode="&#x12b;" horiz-adv-x="196" 
d="M60 500h116l-70 -500h-116zM39 547l12 86h170l-12 -86h-170z" />
    <glyph glyph-name="Ibreve" unicode="&#x12c;" horiz-adv-x="213" 
d="M-5 0l98 700h123l-98 -700h-123zM194 847h77q-9 -62 -36.5 -90.5t-76.5 -28.5t-68 28.5t-10 90.5h75q-6 -34 15 -34q18 0 24 34z" />
    <glyph glyph-name="ibreve" unicode="&#x12d;" horiz-adv-x="196" 
d="M60 500h116l-70 -500h-116zM159 659h77q-8 -61 -35.5 -90t-77.5 -29q-49 0 -67.5 28.5t-10.5 90.5h75q-4 -34 15 -34q20 0 24 34z" />
    <glyph glyph-name="Iogonek" unicode="&#x12e;" horiz-adv-x="213" 
d="M-5 0l98 700h123l-98 -700q-37 -28 -42 -57q-1 -9 4.5 -14.5t16.5 -5.5h10l-13 -93h-22q-51 0 -73.5 21t-17.5 54q9 59 70 95h-56z" />
    <glyph glyph-name="iogonek" unicode="&#x12f;" horiz-adv-x="196" 
d="M82 -170h-22q-51 0 -73.5 21t-17.5 54q9 59 70 95h-49l70 500h116l-70 -500q-37 -28 -42 -57q-1 -9 4.5 -14.5t16.5 -5.5h10zM85 677h116l-18 -128h-116z" />
    <glyph glyph-name="Idotaccent" unicode="&#x130;" horiz-adv-x="213" 
d="M-5 0l98 700h123l-98 -700h-123zM121 864h112l-17 -124h-112z" />
    <glyph glyph-name="dotlessi" unicode="&#x131;" horiz-adv-x="196" 
d="M60 500h116l-70 -500h-116z" />
    <glyph glyph-name="Jcircumflex" unicode="&#x134;" horiz-adv-x="340" 
d="M226 700h122l-81 -575q-9 -64 -45 -99.5t-114 -35.5t-104 35.5t-17 99.5l15 109h120l-15 -108q-3 -25 16 -25t22 25zM254 875h102l37 -135h-82l-18 49l-30 -49h-81z" />
    <glyph glyph-name="jcircumflex" unicode="&#x135;" horiz-adv-x="198" 
d="M178 500l-76 -541q-10 -65 -44 -97t-108 -32q-29 0 -52 10l15 106q24 -11 46 -11q24 0 27 27l76 538h116zM93 682h102l36 -135h-82l-17 49l-31 -49h-81z" />
    <glyph glyph-name="Kcommaaccent" unicode="&#x136;" horiz-adv-x="356" 
d="M210 700l-41 -289q14 40 45.5 146t44.5 143h134l-141 -347l49 -353h-133l-14 303q-7 -50 -22.5 -161.5t-19.5 -141.5h-122l98 700h122zM67 -48h103l-52 -122h-68z" />
    <glyph glyph-name="kcommaaccent" unicode="&#x137;" horiz-adv-x="332" 
d="M205 710l-54 -386l64 176h127l-115 -243l55 -257h-128l-22 192l-26 -192h-116l99 710h116zM57 -48h103l-52 -122h-68z" />
    <glyph glyph-name="kgreenlandic" unicode="&#x138;" horiz-adv-x="332" 
d="M176 500l-25 -174l64 174h127l-115 -243l55 -257h-128l-22 190l-26 -190h-116l70 500h116z" />
    <glyph glyph-name="Lacute" unicode="&#x139;" horiz-adv-x="271" 
d="M-10 0l98 700h123l-82 -584h88l-16 -116h-211zM271 875l-77 -135h-68l38 135h107z" />
    <glyph glyph-name="lacute" unicode="&#x13a;" horiz-adv-x="196" 
d="M89 710h116l-99 -710h-116zM233 885l-78 -135h-68l39 135h107z" />
    <glyph glyph-name="Lcommaaccent" unicode="&#x13b;" horiz-adv-x="271" 
d="M-10 0l98 700h123l-82 -584h88l-16 -116h-211zM37 -48h103l-52 -122h-68z" />
    <glyph glyph-name="lcommaaccent" unicode="&#x13c;" horiz-adv-x="196" 
d="M89 710h116l-99 -710h-116zM-12 -48h103l-52 -122h-68z" />
    <glyph glyph-name="Lcaron" unicode="&#x13d;" horiz-adv-x="271" 
d="M-10 0l98 700h123l-82 -584h88l-16 -116h-211zM238 710h86l-53 -160h-55z" />
    <glyph glyph-name="lcaron" unicode="&#x13e;" horiz-adv-x="243" 
d="M89 710h116l-99 -710h-116zM226 710h86l-53 -160h-55z" />
    <glyph glyph-name="Ldot" unicode="&#x13f;" horiz-adv-x="271" 
d="M186 337h82l-16 -114h-82zM-10 0l98 700h123l-82 -584h88l-16 -116h-211z" />
    <glyph glyph-name="ldot" unicode="&#x140;" horiz-adv-x="301" 
d="M89 710h116l-99 -710h-116zM173 344h116l-18 -128h-116z" />
    <glyph glyph-name="Lslash" unicode="&#x141;" horiz-adv-x="271" 
d="M-10 0l34 246l-39 -13l11 76l39 13l53 378h123l-47 -333l38 13l-11 -76l-38 -13l-24 -175h88l-16 -116h-211z" />
    <glyph glyph-name="lslash" unicode="&#x142;" horiz-adv-x="196" 
d="M89 710h116l-49 -351l30 11l-11 -76l-30 -11l-39 -283h-116l34 242l-30 -9l11 76l29 9z" />
    <glyph glyph-name="Nacute" unicode="&#x143;" horiz-adv-x="383" 
d="M181 0l-29 393q-7 -76 -22 -183l-29 -210h-111l98 700h113l29 -394q9 103 20 183l30 211h111l-98 -700h-112zM348 875l-77 -135h-68l38 135h107z" />
    <glyph glyph-name="nacute" unicode="&#x144;" horiz-adv-x="339" 
d="M254 0h-116l54 388q4 20 -13 20q-16 0 -19 -20l-54 -388h-116l70 500h68l14 -21q34 31 84 31q55 0 73 -29t9 -94zM305 685l-78 -135h-68l39 135h107z" />
    <glyph glyph-name="Ncommaaccent" unicode="&#x145;" horiz-adv-x="383" 
d="M181 0l-29 393q-7 -76 -22 -183l-29 -210h-111l98 700h113l29 -394q9 103 20 183l30 211h111l-98 -700h-112zM83 -48h103l-52 -122h-68z" />
    <glyph glyph-name="ncommaaccent" unicode="&#x146;" horiz-adv-x="339" 
d="M254 0h-116l54 388q4 20 -13 20q-16 0 -19 -20l-54 -388h-116l70 500h68l14 -21q34 31 84 31q55 0 73 -29t9 -94zM63 -48h103l-52 -122h-68z" />
    <glyph glyph-name="Ncaron" unicode="&#x147;" horiz-adv-x="383" 
d="M181 0l-29 393q-7 -76 -22 -183l-29 -210h-111l98 700h113l29 -394q9 103 20 183l30 211h111l-98 -700h-112zM296 740h-102l-36 135h81l18 -49l30 49h82z" />
    <glyph glyph-name="ncaron" unicode="&#x148;" horiz-adv-x="339" 
d="M254 0h-116l54 388q4 20 -13 20q-16 0 -19 -20l-54 -388h-116l70 500h68l14 -21q34 31 84 31q55 0 73 -29t9 -94zM248 547h-102l-35 135h81l17 -49l31 49h82z" />
    <glyph glyph-name="Eng" unicode="&#x14a;" horiz-adv-x="383" 
d="M181 0l-29 393q-7 -76 -22 -183l-29 -210h-111l98 700h113l29 -394q9 103 20 183l30 211h111l-106 -748q-8 -59 -40.5 -90.5t-104.5 -31.5q-27 0 -45 7l14 103q16 -8 36 -8q25 0 31 34z" />
    <glyph glyph-name="eng" unicode="&#x14b;" horiz-adv-x="339" 
d="M308 387l-60 -428q-10 -65 -44 -97t-109 -32q-29 0 -52 10l15 106q24 -11 47 -11q24 0 27 27l60 426q4 20 -13 20q-16 0 -19 -20l-54 -388h-116l70 500h68l14 -21q34 31 84 31q55 0 73 -29t9 -94z" />
    <glyph glyph-name="Omacron" unicode="&#x14c;" horiz-adv-x="358" 
d="M143 101q21 0 24 25l63 449q3 24 -17 24q-22 0 -25 -24l-63 -449q-3 -25 18 -25zM127 -10q-144 0 -125 135l63 449q19 136 163 136t125 -136l-63 -449q-19 -135 -163 -135zM148 740l12 86h170l-12 -86h-170z" />
    <glyph glyph-name="omacron" unicode="&#x14d;" 
d="M124 92q16 0 19 20l39 276q2 20 -13 20q-17 0 -19 -20l-39 -276q-3 -20 13 -20zM110 -10q-74 0 -98.5 32t-15.5 93l38 271q8 60 42.5 92t106.5 32t97.5 -32t17.5 -92l-38 -271q-9 -61 -42.5 -93t-107.5 -32zM103 547l12 86h170l-12 -86h-170z" />
    <glyph glyph-name="Obreve" unicode="&#x14e;" horiz-adv-x="358" 
d="M143 101q21 0 24 25l63 449q3 24 -17 24q-22 0 -25 -24l-63 -449q-3 -25 18 -25zM127 -10q-144 0 -125 135l63 449q19 136 163 136t125 -136l-63 -449q-19 -135 -163 -135zM266 847h77q-9 -62 -36.5 -90.5t-76.5 -28.5t-68 28.5t-10 90.5h75q-6 -34 15 -34q18 0 24 34z
" />
    <glyph glyph-name="obreve" unicode="&#x14f;" 
d="M124 92q16 0 19 20l39 276q2 20 -13 20q-17 0 -19 -20l-39 -276q-3 -20 13 -20zM110 -10q-74 0 -98.5 32t-15.5 93l38 271q8 60 42.5 92t106.5 32t97.5 -32t17.5 -92l-38 -271q-9 -61 -42.5 -93t-107.5 -32zM222 659h77q-8 -61 -35.5 -90t-77.5 -29q-49 0 -67.5 28.5
t-10.5 90.5h75q-4 -34 15 -34q20 0 24 34z" />
    <glyph glyph-name="Ohungarumlaut" unicode="&#x150;" horiz-adv-x="358" 
d="M143 101q21 0 24 25l63 449q3 24 -17 24q-22 0 -25 -24l-63 -449q-3 -25 18 -25zM127 -10q-144 0 -125 135l63 449q19 136 163 136t125 -136l-63 -449q-19 -135 -163 -135zM176 875h92l-58 -135h-59zM296 875h95l-75 -135h-65z" />
    <glyph glyph-name="ohungarumlaut" unicode="&#x151;" horiz-adv-x="335" 
d="M124 92q16 0 19 20l39 276q2 20 -13 20q-17 0 -19 -20l-39 -276q-3 -20 13 -20zM110 -10q-74 0 -98.5 32t-15.5 93l38 271q8 60 42.5 92t106.5 32t97.5 -32t17.5 -92l-38 -271q-9 -61 -42.5 -93t-107.5 -32zM136 685h92l-59 -135h-59zM256 685h95l-76 -135h-65z" />
    <glyph glyph-name="OE" unicode="&#x152;" horiz-adv-x="466" 
d="M143 101q21 0 24 25l63 449q3 24 -17 24q-22 0 -25 -24l-63 -449q-3 -25 18 -25zM314 297l-25 -181h108l-16 -116h-184q-33 -10 -70 -10q-144 0 -125 135l63 449q19 136 163 136q37 0 67 -10h184l-16 -116h-108l-25 -173h94l-16 -114h-94z" />
    <glyph glyph-name="oe" unicode="&#x153;" horiz-adv-x="469" 
d="M124 92q16 0 19 20l39 276q2 20 -13 20q-17 0 -19 -20l-39 -276q-3 -20 13 -20zM298 388l-10 -73h32l10 73q2 20 -13 20q-17 0 -19 -20zM276 228l-17 -116q-3 -20 13 -20t19 20l9 60h113l-8 -55q-8 -61 -41 -94t-106 -33q-45 0 -72 16q-30 -16 -76 -16q-74 0 -98.5 32
t-15.5 93l38 271q8 60 42.5 92t106.5 32q45 0 72 -18q31 18 76 18q71 0 95.5 -33t15.5 -93l-21 -156h-145z" />
    <glyph glyph-name="Racute" unicode="&#x154;" horiz-adv-x="363" 
d="M178 0l-29 282h-2l-39 -282h-118l98 700h166q68 0 88 -30.5t11 -94.5l-24 -176q-7 -45 -21.5 -70t-40.5 -37l41 -292h-130zM190 584l-28 -196h21q21 0 24 22l21 150q4 24 -19 24h-19zM332 875l-77 -135h-68l38 135h107z" />
    <glyph glyph-name="racute" unicode="&#x155;" horiz-adv-x="246" 
d="M248 517l-17 -123q-16 2 -21 2q-49 0 -56 -51l-48 -345h-116l70 500h68l11 -20q42 37 109 37zM265 685l-78 -135h-68l39 135h107z" />
    <glyph glyph-name="Rcommaaccent" unicode="&#x156;" horiz-adv-x="363" 
d="M178 0l-29 282h-2l-39 -282h-118l98 700h166q68 0 88 -30.5t11 -94.5l-24 -176q-7 -45 -21.5 -70t-40.5 -37l41 -292h-130zM190 584l-28 -196h21q21 0 24 22l21 150q4 24 -19 24h-19zM65 -48h103l-52 -122h-68z" />
    <glyph glyph-name="rcommaaccent" unicode="&#x157;" horiz-adv-x="246" 
d="M248 517l-17 -123q-16 2 -21 2q-49 0 -56 -51l-48 -345h-116l70 500h68l11 -20q42 37 109 37zM-10 -48h103l-52 -122h-68z" />
    <glyph glyph-name="Rcaron" unicode="&#x158;" horiz-adv-x="363" 
d="M178 0l-29 282h-2l-39 -282h-118l98 700h166q68 0 88 -30.5t11 -94.5l-24 -176q-7 -45 -21.5 -70t-40.5 -37l41 -292h-130zM190 584l-28 -196h21q21 0 24 22l21 150q4 24 -19 24h-19zM274 740h-102l-36 135h81l18 -49l30 49h82z" />
    <glyph glyph-name="rcaron" unicode="&#x159;" horiz-adv-x="246" 
d="M264 517l-17 -123q-16 2 -21 2q-49 0 -56 -51l-48 -345h-116l70 500h68l11 -20q42 37 109 37zM222 547h-102l-35 135h81l17 -49l31 49h82z" />
    <glyph glyph-name="Sacute" unicode="&#x15a;" horiz-adv-x="338" 
d="M128 220l-13 -95q-3 -24 18 -24t24 24l9 63q7 51 -4.5 85t-32.5 53.5t-41.5 40.5t-31.5 60t-3 98l8 52q17 133 157 133q139 0 121 -133l-13 -87h-118l12 86q3 23 -17 23q-22 0 -25 -23l-7 -50q-5 -37 3 -63t24 -40.5t34 -33t33 -39.5t21 -61.5t-2 -98.5l-9 -67
q-19 -133 -158 -133t-120 133l13 97h118zM333 875l-77 -135h-68l38 135h107z" />
    <glyph glyph-name="sacute" unicode="&#x15b;" horiz-adv-x="310" 
d="M112 165l-8 -53q-2 -20 13 -20q17 0 19 20l4 26q4 26 -8.5 46t-32 35t-38 32.5t-29.5 48.5t-5 73l2 13q9 61 43.5 92.5t103.5 31.5q70 0 95.5 -32t17.5 -93l-6 -40h-114l6 42q3 21 -13 21t-19 -20l-3 -21q-4 -26 8.5 -44.5t32.5 -32t39 -29.5t30 -45.5t5 -71.5l-5 -31
q-8 -61 -42.5 -92t-105.5 -31q-70 0 -95 31t-17 92l8 52h114zM287 685l-78 -135h-68l39 135h107z" />
    <glyph glyph-name="Scircumflex" unicode="&#x15c;" horiz-adv-x="338" 
d="M128 220l-13 -95q-3 -24 18 -24t24 24l9 63q7 51 -4.5 85t-32.5 53.5t-41.5 40.5t-31.5 60t-3 98l8 52q17 133 157 133q139 0 121 -133l-13 -87h-118l12 86q3 23 -17 23q-22 0 -25 -23l-7 -50q-5 -37 3 -63t24 -40.5t34 -33t33 -39.5t21 -61.5t-2 -98.5l-9 -67
q-19 -133 -158 -133t-120 133l13 97h118zM189 875h102l37 -135h-82l-18 49l-30 -49h-81z" />
    <glyph glyph-name="scircumflex" unicode="&#x15d;" horiz-adv-x="310" 
d="M112 165l-8 -53q-2 -20 13 -20q17 0 19 20l4 26q4 26 -8.5 46t-32 35t-38 32.5t-29.5 48.5t-5 73l2 13q9 61 43.5 92.5t103.5 31.5q70 0 95.5 -32t17.5 -93l-6 -40h-114l6 42q3 21 -13 21t-19 -20l-3 -21q-4 -26 8.5 -44.5t32.5 -32t39 -29.5t30 -45.5t5 -71.5l-5 -31
q-8 -61 -42.5 -92t-105.5 -31q-70 0 -95 31t-17 92l8 52h114zM148 682h102l36 -135h-82l-17 49l-31 -49h-81z" />
    <glyph glyph-name="Scedilla" unicode="&#x15e;" horiz-adv-x="338" 
d="M55 -81l30 73q-105 13 -88 131l13 97h118l-13 -95q-3 -24 18 -24t24 24l9 63q7 51 -4.5 85t-32.5 53.5t-41.5 40.5t-31.5 60t-3 98l8 52q17 133 157 133q139 0 121 -133l-13 -87h-118l12 86q3 23 -17 23q-22 0 -25 -23l-7 -50q-5 -37 3 -63t24 -40.5t34 -33t33 -39.5
t21 -61.5t-2 -98.5l-9 -67q-17 -119 -128 -131l-12 -31q53 -11 45 -62q-4 -33 -26.5 -51t-74.5 -18h-61l24 61h34q15 0 16 14q3 14 -12 14h-25z" />
    <glyph glyph-name="scedilla" unicode="&#x15f;" horiz-adv-x="310" 
d="M41 -81l30 73q-52 6 -70 36t-11 85l8 52h114l-8 -53q-2 -20 13 -20q17 0 19 20l4 26q4 26 -8.5 46t-32 35t-38 32.5t-29.5 48.5t-5 73l2 13q9 61 43.5 92.5t103.5 31.5q70 0 95.5 -32t17.5 -93l-6 -40h-114l6 42q3 21 -13 21t-19 -20l-3 -21q-4 -26 8.5 -44.5t32.5 -32
t39 -29.5t30 -45.5t5 -71.5l-5 -31q-14 -109 -117 -121l-12 -31q53 -11 45 -62q-4 -33 -26.5 -51t-74.5 -18h-61l24 61h34q15 0 16 14q3 14 -12 14h-25z" />
    <glyph glyph-name="Scaron" unicode="&#x160;" horiz-adv-x="338" 
d="M128 220l-13 -95q-3 -24 18 -24t24 24l9 63q7 51 -4.5 85t-32.5 53.5t-41.5 40.5t-31.5 60t-3 98l8 52q17 133 157 133q139 0 121 -133l-13 -87h-118l12 86q3 23 -17 23q-22 0 -25 -23l-7 -50q-5 -37 3 -63t24 -40.5t34 -33t33 -39.5t21 -61.5t-2 -98.5l-9 -67
q-19 -133 -158 -133t-120 133l13 97h118zM273 740h-102l-36 135h81l18 -49l30 49h82z" />
    <glyph glyph-name="scaron" unicode="&#x161;" horiz-adv-x="310" 
d="M112 165l-8 -53q-2 -20 13 -20q17 0 19 20l4 26q4 26 -8.5 46t-32 35t-38 32.5t-29.5 48.5t-5 73l2 13q9 61 43.5 92.5t103.5 31.5q70 0 95.5 -32t17.5 -93l-6 -40h-114l6 42q3 21 -13 21t-19 -20l-3 -21q-4 -26 8.5 -44.5t32.5 -32t39 -29.5t30 -45.5t5 -71.5l-5 -31
q-8 -61 -42.5 -92t-105.5 -31q-70 0 -95 31t-17 92l8 52h114zM231 547h-102l-35 135h81l17 -49l31 49h82z" />
    <glyph glyph-name="Tcommaaccent" unicode="&#x162;" horiz-adv-x="295" 
d="M241 584l-82 -584h-123l82 584h-71l16 116h265l-16 -116h-71zM39 -48h103l-52 -122h-68z" />
    <glyph glyph-name="tcommaaccent" unicode="&#x163;" horiz-adv-x="269" 
d="M103 626l121 31l-22 -157h67l-15 -102h-67l-39 -284q-4 -22 17 -22t48 9l-14 -98q-26 -13 -56 -13q-74 0 -97 30.5t-14 93.5l39 284h-51l15 102h51zM43 -48h103l-52 -122h-68z" />
    <glyph glyph-name="Tcaron" unicode="&#x164;" horiz-adv-x="295" 
d="M241 584l-82 -584h-123l82 584h-71l16 116h265l-16 -116h-71zM252 740h-102l-36 135h81l18 -49l30 49h82z" />
    <glyph glyph-name="tcaron" unicode="&#x165;" horiz-adv-x="269" 
d="M103 626l121 31l-22 -157h67l-15 -102h-67l-39 -284q-4 -22 17 -22t48 9l-14 -98q-26 -13 -56 -13q-74 0 -97 30.5t-14 93.5l39 284h-51l15 102h51zM255 710h86l-53 -160h-55z" />
    <glyph glyph-name="Tbar" unicode="&#x166;" horiz-adv-x="295" 
d="M27 283l12 80h48l31 221h-71l16 116h265l-16 -116h-71l-31 -221h49l-12 -80h-49l-39 -283h-123l39 283h-48z" />
    <glyph glyph-name="tbar" unicode="&#x167;" horiz-adv-x="269" 
d="M103 626l121 31l-22 -157h67l-15 -102h-67l-14 -105h38l-12 -86h-38l-13 -93q-4 -22 17 -22t48 9l-14 -98q-26 -13 -56 -13q-74 0 -97 30.5t-14 93.5l13 93h-31l12 86h31l14 105h-51l15 102h51z" />
    <glyph glyph-name="Utilde" unicode="&#x168;" horiz-adv-x="366" 
d="M88 700h122l-81 -576q-3 -23 18 -23t24 23l81 576h122l-81 -577q-19 -133 -162 -133q-78 0 -105.5 35t-18.5 98zM287 732q-27 0 -50 15.5t-34 15.5q-15 0 -18 -22h-69q8 59 27 86.5t58 27.5q25 0 48.5 -15.5t35.5 -15.5q15 0 18 22h69q-8 -59 -27.5 -86.5t-57.5 -27.5z
" />
    <glyph glyph-name="utilde" unicode="&#x169;" horiz-adv-x="344" 
d="M60 500h116l-55 -388q-2 -20 13 -20q16 0 19 20l55 388h116l-70 -500h-68l-13 19q-27 -29 -82 -29q-56 0 -75.5 29t-10.5 94zM250 542q-27 0 -50.5 15.5t-34.5 15.5q-15 0 -18 -22h-69q8 59 27 86.5t58 27.5q25 0 49 -15.5t36 -15.5q15 0 18 22h69q-9 -59 -28 -86.5
t-57 -27.5z" />
    <glyph glyph-name="Umacron" unicode="&#x16a;" horiz-adv-x="366" 
d="M88 700h122l-81 -576q-3 -23 18 -23t24 23l81 576h122l-81 -577q-19 -133 -162 -133q-78 0 -105.5 35t-18.5 98zM152 740l12 86h170l-12 -86h-170z" />
    <glyph glyph-name="umacron" unicode="&#x16b;" horiz-adv-x="344" 
d="M60 500h116l-55 -388q-2 -20 13 -20q16 0 19 20l55 388h116l-70 -500h-68l-13 19q-27 -29 -82 -29q-56 0 -75.5 29t-10.5 94zM113 547l12 86h170l-12 -86h-170z" />
    <glyph glyph-name="Ubreve" unicode="&#x16c;" horiz-adv-x="366" 
d="M88 700h122l-81 -576q-3 -23 18 -23t24 23l81 576h122l-81 -577q-19 -133 -162 -133q-78 0 -105.5 35t-18.5 98zM270 847h77q-9 -62 -36.5 -90.5t-76.5 -28.5t-68 28.5t-10 90.5h75q-6 -34 15 -34q18 0 24 34z" />
    <glyph glyph-name="ubreve" unicode="&#x16d;" horiz-adv-x="344" 
d="M60 500h116l-55 -388q-2 -20 13 -20q16 0 19 20l55 388h116l-70 -500h-68l-13 19q-27 -29 -82 -29q-56 0 -75.5 29t-10.5 94zM232 659h77q-8 -61 -35.5 -90t-77.5 -29q-49 0 -67.5 28.5t-10.5 90.5h75q-4 -34 15 -34q20 0 24 34z" />
    <glyph glyph-name="Uring" unicode="&#x16e;" horiz-adv-x="366" 
d="M88 700h122l-81 -576q-3 -23 18 -23t24 23l81 576h122l-81 -577q-19 -133 -162 -133q-78 0 -105.5 35t-18.5 98zM262 810q4 24 -13 24q-15 0 -20 -24q-3 -23 13 -23q17 0 20 23zM327 810q-12 -84 -93 -84q-82 0 -70 84q13 85 93 85q83 0 70 -85z" />
    <glyph glyph-name="uring" unicode="&#x16f;" horiz-adv-x="344" 
d="M60 500h116l-55 -388q-2 -20 13 -20q16 0 19 20l55 388h116l-70 -500h-68l-13 19q-27 -29 -82 -29q-56 0 -75.5 29t-10.5 94zM224 615q3 24 -14 24q-16 0 -19 -24q-3 -23 13 -23q17 0 20 23zM289 615q-12 -84 -94 -84q-81 0 -69 84q12 85 93 85q82 0 70 -85z" />
    <glyph glyph-name="Uhungarumlaut" unicode="&#x170;" horiz-adv-x="366" 
d="M88 700h122l-81 -576q-3 -23 18 -23t24 23l81 576h122l-81 -577q-19 -133 -162 -133q-78 0 -105.5 35t-18.5 98zM181 875h92l-58 -135h-59zM301 875h95l-75 -135h-65z" />
    <glyph glyph-name="uhungarumlaut" unicode="&#x171;" horiz-adv-x="344" 
d="M60 500h116l-55 -388q-2 -20 13 -20q16 0 19 20l55 388h116l-70 -500h-68l-13 19q-27 -29 -82 -29q-56 0 -75.5 29t-10.5 94zM141 685h92l-59 -135h-59zM261 685h95l-76 -135h-65z" />
    <glyph glyph-name="Uogonek" unicode="&#x172;" horiz-adv-x="366" 
d="M175 -170h-22q-51 0 -73.5 21t-17.5 54q8 51 55 86q-129 5 -110 132l81 577h122l-81 -576q-3 -23 18 -23t24 23l81 576h122l-81 -577q-15 -102 -98 -125q-33 -26 -38 -55q-1 -9 4.5 -14.5t16.5 -5.5h10z" />
    <glyph glyph-name="uogonek" unicode="&#x173;" horiz-adv-x="344" 
d="M230 -170h-22q-51 0 -73.5 21t-17.5 54q9 59 70 95h-1l-13 19q-27 -29 -82 -29q-56 0 -75.5 29t-10.5 94l55 387h116l-55 -388q-2 -20 13 -20q16 0 19 20l55 388h116l-70 -500q-37 -28 -42 -57q-1 -9 4.5 -14.5t16.5 -5.5h10z" />
    <glyph glyph-name="Wcircumflex" unicode="&#x174;" horiz-adv-x="556" 
d="M297 497l-106 -497h-143l20 700h124l-41 -482l112 482h126l-24 -482l95 482h124l-175 -700h-144zM298 875h102l37 -135h-82l-18 49l-30 -49h-81z" />
    <glyph glyph-name="wcircumflex" unicode="&#x175;" horiz-adv-x="508" 
d="M249 334l-79 -334h-130v500h117l-24 -336l88 336h106l-7 -338l71 338h117l-140 -500h-130l13 334h-2zM247 682h102l36 -135h-82l-17 49l-31 -49h-81z" />
    <glyph glyph-name="Ycircumflex" unicode="&#x176;" 
d="M51 0h123l34 247l154 453h-128l-62 -271l14 271h-128l27 -453zM182 875h102l37 -135h-82l-18 49l-30 -49h-81z" />
    <glyph glyph-name="ycircumflex" unicode="&#x177;" horiz-adv-x="312" 
d="M-9 -170q-33 0 -51 11l14 103q27 -11 50 -11q26 0 38 33l10 33l-22 501h121l-15 -281h2l63 281h121l-167 -535q-24 -74 -60 -104.5t-104 -30.5zM150 682h102l36 -135h-82l-17 49l-31 -49h-81z" />
    <glyph glyph-name="Ydieresis" unicode="&#x178;" 
d="M51 0h123l34 247l154 453h-128l-62 -271l14 271h-128l27 -453zM123 856h94l-16 -116h-94zM247 856h94l-16 -116h-94z" />
    <glyph glyph-name="Zacute" unicode="&#x179;" horiz-adv-x="311" 
d="M236 0h-253l10 78l185 506h-116l16 116h250l-11 -78l-184 -506h119zM318 875l-77 -135h-68l38 135h107z" />
    <glyph glyph-name="zacute" unicode="&#x17a;" horiz-adv-x="266" 
d="M196 0h-226l10 77l144 315h-97l15 108h221l-11 -77l-140 -315h99zM262 685l-78 -135h-68l39 135h107z" />
    <glyph glyph-name="Zdotaccent" unicode="&#x17b;" horiz-adv-x="311" 
d="M236 0h-253l10 78l185 506h-116l16 116h250l-11 -78l-184 -506h119zM170 864h112l-17 -124h-112z" />
    <glyph glyph-name="zdotaccent" unicode="&#x17c;" horiz-adv-x="266" 
d="M196 0h-226l10 77l144 315h-97l15 108h221l-11 -77l-140 -315h99zM121 671h112l-18 -124h-112z" />
    <glyph glyph-name="Zcaron" unicode="&#x17d;" horiz-adv-x="311" 
d="M236 0h-253l10 78l185 506h-116l16 116h250l-11 -78l-184 -506h119zM260 740h-102l-36 135h81l18 -49l30 49h82z" />
    <glyph glyph-name="zcaron" unicode="&#x17e;" horiz-adv-x="266" 
d="M196 0h-226l10 77l144 315h-97l15 108h221l-11 -77l-140 -315h99zM210 547h-102l-35 135h81l17 -49l31 49h82z" />
    <glyph glyph-name="florin" unicode="&#x192;" horiz-adv-x="310" 
d="M28 -25l59 423h-44l15 102h44l13 91q9 65 43.5 97t109.5 32q23 0 51 -10l-14 -103q-24 11 -48 11q-23 0 -26 -27l-13 -91h61l-15 -102h-61l-59 -423q-10 -65 -44 -97t-109 -32q-24 0 -51 10l14 103q24 -11 47 -11q24 0 27 27z" />
    <glyph glyph-name="Scommaaccent" unicode="&#x218;" horiz-adv-x="338" 
d="M128 220l-13 -95q-3 -24 18 -24t24 24l9 63q7 51 -4.5 85t-32.5 53.5t-41.5 40.5t-31.5 60t-3 98l8 52q17 133 157 133q139 0 121 -133l-13 -87h-118l12 86q3 23 -17 23q-22 0 -25 -23l-7 -50q-5 -37 3 -63t24 -40.5t34 -33t33 -39.5t21 -61.5t-2 -98.5l-9 -67
q-19 -133 -158 -133t-120 133l13 97h118zM60 -48h103l-52 -122h-68z" />
    <glyph glyph-name="scommaaccent" unicode="&#x219;" horiz-adv-x="310" 
d="M112 165l-8 -53q-2 -20 13 -20q17 0 19 20l4 26q4 26 -8.5 46t-32 35t-38 32.5t-29.5 48.5t-5 73l2 13q9 61 43.5 92.5t103.5 31.5q70 0 95.5 -32t17.5 -93l-6 -40h-114l6 42q3 21 -13 21t-19 -20l-3 -21q-4 -26 8.5 -44.5t32.5 -32t39 -29.5t30 -45.5t5 -71.5l-5 -31
q-8 -61 -42.5 -92t-105.5 -31q-70 0 -95 31t-17 92l8 52h114zM46 -48h103l-52 -122h-68z" />
    <glyph glyph-name="circumflex" unicode="&#x2c6;" horiz-adv-x="291" 
d="M139 682h102l36 -135h-82l-17 49l-31 -49h-81z" />
    <glyph glyph-name="caron" unicode="&#x2c7;" horiz-adv-x="291" 
d="M222 547h-102l-35 135h81l17 -49l31 49h82z" />
    <glyph glyph-name="breve" unicode="&#x2d8;" horiz-adv-x="277" 
d="M199 659h77q-8 -61 -35.5 -90t-77.5 -29q-49 0 -67.5 28.5t-10.5 90.5h75q-4 -34 15 -34q20 0 24 34z" />
    <glyph glyph-name="dotaccent" unicode="&#x2d9;" horiz-adv-x="202" 
d="M89 671h112l-18 -124h-112z" />
    <glyph glyph-name="ring" unicode="&#x2da;" horiz-adv-x="249" 
d="M177 615q3 24 -14 24q-16 0 -19 -24q-3 -23 13 -23q17 0 20 23zM242 615q-12 -84 -94 -84q-81 0 -69 84q12 85 93 85q82 0 70 -85z" />
    <glyph glyph-name="ogonek" unicode="&#x2db;" horiz-adv-x="213" 
d="M89 -170h-22q-51 0 -73.5 21t-17.5 54q9 59 70 95h67q-37 -28 -42 -57q-1 -9 4.5 -14.5t16.5 -5.5h10z" />
    <glyph glyph-name="tilde" unicode="&#x2dc;" horiz-adv-x="328" 
d="M242 542q-27 0 -50.5 15.5t-34.5 15.5q-15 0 -18 -22h-69q8 59 27 86.5t58 27.5q25 0 49 -15.5t36 -15.5q15 0 18 22h69q-9 -59 -28 -86.5t-57 -27.5z" />
    <glyph glyph-name="hungarumlaut" unicode="&#x2dd;" horiz-adv-x="336" 
d="M115 685h92l-59 -135h-59zM235 685h95l-76 -135h-65z" />
    <glyph glyph-name="pi" unicode="&#x3c0;" horiz-adv-x="439" 
d="M419 500l-15 -104h-40l-55 -396h-116l55 396h-47l-55 -396h-116l55 396h-40l15 104h359z" />
    <glyph glyph-name="Bdotaccent" unicode="&#x1e02;" horiz-adv-x="361" 
d="M-10 0l98 700h157q71 0 92.5 -26t12.5 -84l-21 -153q-8 -56 -51 -81q38 -25 31 -84l-21 -151q-9 -60 -38.5 -90.5t-96.5 -30.5h-163zM148 297l-25 -181h24q18 0 21 20l19 138q3 23 -19 23h-20zM189 584l-25 -173h21q21 0 25 24l18 130q3 19 -16 19h-23zM182 864h112
l-17 -124h-112z" />
    <glyph glyph-name="bdotaccent" unicode="&#x1e03;" horiz-adv-x="339" 
d="M153 112l39 275q3 21 -13 21t-19 -19l-39 -277q-3 -20 13 -20q17 0 19 20zM308 389l-39 -276q-9 -65 -37 -94t-83 -29q-50 0 -73 31l-18 -21h-68l99 710h116l-30 -214q30 14 51 14q56 0 73.5 -28t8.5 -93zM218 671h112l-18 -124h-112z" />
    <glyph glyph-name="Ddotaccent" unicode="&#x1e0a;" horiz-adv-x="368" 
d="M-10 0l98 700h161q73 0 96 -30t13 -95l-63 -450q-9 -66 -39.5 -95.5t-101.5 -29.5h-164zM195 584l-66 -468h21q21 0 24 22l59 422q4 24 -19 24h-19zM187 864h112l-17 -124h-112z" />
    <glyph glyph-name="ddotaccent" unicode="&#x1e0b;" horiz-adv-x="339" 
d="M155 387l-39 -275q-2 -20 13 -20q16 0 19 20l39 277q3 19 -13 19t-19 -21zM0 113l39 276q9 65 34.5 93t81.5 28q21 0 47 -14l30 214h116l-99 -710h-68l-14 21q-29 -31 -81 -31q-56 0 -75.5 29t-10.5 94zM103 671h98l-16 -124h-98z" />
    <glyph glyph-name="Fdotaccent" unicode="&#x1e1e;" horiz-adv-x="287" 
d="M113 0h-123l98 700h222l-16 -116h-99l-25 -173h83l-16 -114h-83zM158 864h112l-17 -124h-112z" />
    <glyph glyph-name="fdotaccent" unicode="&#x1e1f;" horiz-adv-x="255" 
d="M245 720q26 0 50 -8l-15 -103q-19 9 -46 9q-23 0 -26 -27l-13 -91h61l-14 -101h-61l-56 -399h-116l56 399h-44l14 101h44l13 91q9 65 43.5 97t109.5 32zM145 871h112l-18 -124h-112z" />
    <glyph glyph-name="Mdotaccent" unicode="&#x1e40;" horiz-adv-x="500" 
d="M244 700l-11 -461q21 78 63.5 244t55.5 217h156l-98 -700h-113l83 484l-134 -484h-92l2 490l-53 -490h-113l98 700h156zM265 864h112l-17 -124h-112z" />
    <glyph glyph-name="mdotaccent" unicode="&#x1e41;" horiz-adv-x="487" 
d="M254 0h-116l54 389q3 19 -13 19t-19 -19l-54 -389h-116l70 500h68l14 -21q34 31 82 31q41 0 67 -29q36 29 79 29q56 0 75.5 -29t10.5 -94l-54 -387h-116l54 388q4 20 -13 20q-16 0 -19 -20zM234 671h112l-18 -124h-112z" />
    <glyph glyph-name="Pdotaccent" unicode="&#x1e56;" horiz-adv-x="353" 
d="M-10 0l98 700h171q68 0 88 -30.5t11 -94.5l-24 -176q-9 -66 -39.5 -95.5t-98.5 -29.5h-45l-38 -274h-123zM195 584l-28 -196h21q21 0 24 22l21 150q4 24 -19 24h-19zM191 864h112l-17 -124h-112z" />
    <glyph glyph-name="pdotaccent" unicode="&#x1e57;" horiz-adv-x="339" 
d="M153 113l39 275q4 20 -13 20q-16 0 -19 -20l-39 -277q-3 -19 13 -19t19 21zM308 387l-39 -276q-9 -65 -34.5 -93t-81.5 -28q-21 0 -47 14l-23 -164h-116l93 660h68l13 -21q29 31 81 31q56 0 75.5 -29t10.5 -94zM160 671h112l-18 -124h-112z" />
    <glyph glyph-name="Sdotaccent" unicode="&#x1e60;" horiz-adv-x="338" 
d="M128 220l-13 -95q-3 -24 18 -24t24 24l9 63q7 51 -4.5 85t-32.5 53.5t-41.5 40.5t-31.5 60t-3 98l8 52q17 133 157 133q139 0 121 -133l-13 -87h-118l12 86q3 23 -17 23q-22 0 -25 -23l-7 -50q-5 -37 3 -63t24 -40.5t34 -33t33 -39.5t21 -61.5t-2 -98.5l-9 -67
q-19 -133 -158 -133t-120 133l13 97h118zM184 864h112l-17 -124h-112z" />
    <glyph glyph-name="sdotaccent" unicode="&#x1e61;" horiz-adv-x="310" 
d="M112 165l-8 -53q-2 -20 13 -20q17 0 19 20l4 26q4 26 -8.5 46t-32 35t-38 32.5t-29.5 48.5t-5 73l2 13q9 61 43.5 92.5t103.5 31.5q70 0 95.5 -32t17.5 -93l-6 -40h-114l6 42q3 21 -13 21t-19 -20l-3 -21q-4 -26 8.5 -44.5t32.5 -32t39 -29.5t30 -45.5t5 -71.5l-5 -31
q-8 -61 -42.5 -92t-105.5 -31q-70 0 -95 31t-17 92l8 52h114zM142 671h112l-18 -124h-112z" />
    <glyph glyph-name="Tdotaccent" unicode="&#x1e6a;" horiz-adv-x="295" 
d="M241 584l-82 -584h-123l82 584h-71l16 116h265l-16 -116h-71zM162 864h112l-17 -124h-112z" />
    <glyph glyph-name="tdotaccent" unicode="&#x1e6b;" horiz-adv-x="269" 
d="M103 626l121 31l-22 -157h67l-15 -102h-67l-39 -284q-4 -22 17 -22t48 9l-14 -98q-26 -13 -56 -13q-74 0 -97 30.5t-14 93.5l39 284h-51l15 102h51zM112 806h112l-18 -124h-112z" />
    <glyph glyph-name="Wgrave" unicode="&#x1e80;" horiz-adv-x="556" 
d="M297 497l-106 -497h-143l20 700h124l-41 -482l112 482h126l-24 -482l95 482h124l-175 -700h-144zM295 740l-41 135h107l2 -135h-68z" />
    <glyph glyph-name="wgrave" unicode="&#x1e81;" horiz-adv-x="508" 
d="M249 334l-79 -334h-130v500h117l-24 -336l88 336h106l-7 -338l71 338h117l-140 -500h-130l13 334h-2zM256 550l-40 135h107l1 -135h-68z" />
    <glyph glyph-name="Wacute" unicode="&#x1e82;" horiz-adv-x="556" 
d="M297 497l-106 -497h-143l20 700h124l-41 -482l112 482h126l-24 -482l95 482h124l-175 -700h-144zM440 875l-77 -135h-68l38 135h107z" />
    <glyph glyph-name="wacute" unicode="&#x1e83;" horiz-adv-x="508" 
d="M249 334l-79 -334h-130v500h117l-24 -336l88 336h106l-7 -338l71 338h117l-140 -500h-130l13 334h-2zM387 685l-78 -135h-68l39 135h107z" />
    <glyph glyph-name="Wdieresis" unicode="&#x1e84;" horiz-adv-x="556" 
d="M297 497l-106 -497h-143l20 700h124l-41 -482l112 482h126l-24 -482l95 482h124l-175 -700h-144zM239 856h94l-16 -116h-94zM363 856h94l-16 -116h-94z" />
    <glyph glyph-name="wdieresis" unicode="&#x1e85;" horiz-adv-x="508" 
d="M249 334l-79 -334h-130v500h117l-24 -336l88 336h106l-7 -338l71 338h117l-140 -500h-130l13 334h-2zM187 663h94l-17 -116h-94zM311 663h94l-17 -116h-94z" />
    <glyph glyph-name="Ygrave" unicode="&#x1ef2;" 
d="M51 0h123l34 247l154 453h-128l-62 -271l14 271h-128l27 -453zM179 740l-41 135h107l2 -135h-68z" />
    <glyph glyph-name="ygrave" unicode="&#x1ef3;" horiz-adv-x="312" 
d="M-9 -170q-33 0 -51 11l14 103q27 -11 50 -11q26 0 38 33l10 33l-22 501h121l-15 -281h2l63 281h121l-167 -535q-24 -74 -60 -104.5t-104 -30.5zM159 550l-40 135h107l1 -135h-68z" />
    <glyph glyph-name="endash" unicode="&#x2013;" horiz-adv-x="340" 
d="M18 235l12 90h270l-12 -90h-270z" />
    <glyph glyph-name="emdash" unicode="&#x2014;" horiz-adv-x="500" 
d="M19 247l9 66h430l-9 -66h-430z" />
    <glyph glyph-name="quoteleft" unicode="&#x2018;" horiz-adv-x="161" 
d="M69 710h111l-33 -239h-63z" />
    <glyph glyph-name="quoteright" unicode="&#x2019;" horiz-adv-x="161" 
d="M79 710h111l-81 -239h-63z" />
    <glyph glyph-name="quotesinglbase" unicode="&#x201a;" horiz-adv-x="171" 
d="M-3 124h111l-82 -239h-63z" />
    <glyph glyph-name="quotedblleft" unicode="&#x201c;" horiz-adv-x="286" 
d="M69 710h111l-33 -239h-63zM194 710h111l-33 -239h-63z" />
    <glyph glyph-name="quotedblright" unicode="&#x201d;" horiz-adv-x="286" 
d="M204 710h111l-81 -239h-63zM79 710h111l-81 -239h-63z" />
    <glyph glyph-name="quotedblbase" unicode="&#x201e;" horiz-adv-x="306" 
d="M132 123h111l-82 -239h-63zM7 123h111l-82 -239h-63z" />
    <glyph glyph-name="dagger" unicode="&#x2020;" horiz-adv-x="219" 
d="M60 572l7 48h54l12 90h51l-12 -90h54l-7 -48h-54l-32 -224h-51l32 224h-54z" />
    <glyph glyph-name="daggerdbl" unicode="&#x2021;" horiz-adv-x="219" 
d="M41 438l7 48h54l12 86h-54l7 48h54l12 90h51l-12 -90h54l-7 -48h-54l-12 -86h54l-7 -48h-54l-13 -90h-51l13 90h-54z" />
    <glyph glyph-name="bullet" unicode="&#x2022;" horiz-adv-x="250" 
d="M29 283q5 35 33.5 60t63.5 25t56.5 -25t16.5 -60q-4 -35 -33 -60t-64 -25t-56.5 25t-16.5 60z" />
    <glyph glyph-name="ellipsis" unicode="&#x2026;" horiz-adv-x="498" 
d="M7 128h116l-17 -128h-116zM157 128h116l-17 -128h-116zM309 128h116l-17 -128h-116z" />
    <glyph glyph-name="perthousand" unicode="&#x2030;" horiz-adv-x="533" 
d="M292 208q-19 0 -22 -30l-13 -87q-4 -31 14 -31t22 31l13 87q3 30 -14 30zM396 208q-19 0 -22 -30l-13 -87q-4 -31 14 -31t22 31l13 87q3 30 -14 30zM437 700l-375 -700h-72l375 700h72zM135 492q18 0 22 30l12 87q4 31 -14 31t-22 -31l-12 -87q-4 -30 14 -30zM165 710
q49 0 65.5 -25.5t9.5 -76.5l-12 -85q-7 -51 -30.5 -76t-72.5 -25t-65.5 25t-9.5 76l12 85q7 51 30.5 76.5t72.5 25.5zM365 -10q-31 0 -50 16q-22 -16 -54 -16q-49 0 -65.5 25.5t-9.5 76.5l12 85q8 51 31.5 76t72.5 25q31 0 49 -16q24 16 55 16q49 0 65.5 -25t8.5 -76
l-12 -85q-7 -51 -30.5 -76.5t-72.5 -25.5z" />
    <glyph glyph-name="guilsinglleft" unicode="&#x2039;" horiz-adv-x="260" 
d="M15 250l117 185h109l-114 -185l62 -185h-109z" />
    <glyph glyph-name="guilsinglright" unicode="&#x203a;" horiz-adv-x="260" 
d="M150 435l65 -185l-117 -185h-109l114 185l-62 185h109z" />
    <glyph glyph-name="Euro" unicode="&#x20ac;" horiz-adv-x="388" 
d="M239 330l-19 -54h-47l-21 -150q-3 -25 18 -25t24 25l14 98h121l-14 -99q-9 -64 -45.5 -99.5t-115.5 -35.5q-143 0 -124 135l21 151h-33l8 54h33l6 46h-33l8 54h33l20 145q19 135 162 135q79 0 105.5 -35.5t17.5 -99.5l-12 -89h-121l12 89q4 24 -17 24t-25 -24l-20 -145
h81l-21 -54h-68l-6 -46h58z" />
    <glyph glyph-name="trademark" unicode="&#x2122;" horiz-adv-x="331" 
d="M140 669l-24 -169h-31l24 169h-35l4 31h100l-4 -31h-34zM257 536h-16l-16 92l-18 -128h-30l28 200h33l19 -107l49 107h33l-28 -200h-30l18 128z" />
    <glyph glyph-name="onethird" unicode="&#x2153;" horiz-adv-x="215" 
d="M42 372h135l-7 -45h-135zM182 700l-35 -245h25l-6 -49h-102l6 49h25l26 180h-24l5 38q32 0 36 27h44zM92 179l9 63q0 10 -7 10q-10 0 -10 -10l-5 -32h-51l5 32q7 56 67 56q59 0 52 -56l-9 -59q-3 -23 -21 -33q16 -14 13 -34l-9 -64q-8 -56 -68 -56t-52 56l5 36h51l-5 -36
q-2 -10 7 -10t10 10l9 66q2 7 -5 7h-20l7 48h20q5 0 7 6z" />
    <glyph glyph-name="twothirds" unicode="&#x2154;" horiz-adv-x="215" 
d="M209 648l-5 -31q-4 -30 -17.5 -52.5t-27.5 -33t-26.5 -29.5t-16.5 -45l-1 -2h67l-6 -49h-119l6 46q5 36 19 60.5t28 35.5t27 28t16 40l5 32q0 9 -8 9q-10 0 -10 -9l-5 -32h-50l5 32q7 56 66 56q60 0 53 -56zM42 372h135l-7 -45h-135zM92 179l9 63q0 10 -7 10
q-10 0 -10 -10l-5 -32h-51l5 32q7 56 67 56q59 0 52 -56l-9 -59q-3 -23 -21 -33q16 -14 13 -34l-9 -64q-8 -56 -68 -56t-52 56l5 36h51l-5 -36q-2 -10 7 -10t10 10l9 66q2 7 -5 7h-20l7 48h20q5 0 7 6z" />
    <glyph glyph-name="oneeighth" unicode="&#x215b;" horiz-adv-x="215" 
d="M42 372h135l-7 -45h-135zM182 700l-35 -245h25l-6 -49h-102l6 49h25l26 180h-24l5 38q32 0 36 27h44zM57 -4q-60 0 -52 56l9 64q3 21 22 34q-15 10 -12 33l9 59q7 56 66 56t52 -56l-9 -59q-3 -23 -21 -33q16 -14 13 -34l-9 -64q-8 -56 -68 -56zM83 242l-9 -64q-2 -9 7 -9
t11 9l9 64q0 10 -8 10q-10 0 -10 -10zM65 119l-9 -67q-2 -10 7 -10t11 10l9 67q2 10 -7 10t-11 -10z" />
    <glyph glyph-name="threeeighths" unicode="&#x215c;" horiz-adv-x="215" 
d="M149 585l9 63q0 10 -7 10q-10 0 -10 -10l-5 -32h-51l5 32q7 56 67 56q59 0 52 -56l-9 -59q-3 -23 -21 -33q16 -13 13 -34l-9 -64q-8 -56 -68 -56t-52 56l5 36h51l-5 -36q-2 -10 7 -10t10 10l9 66q2 7 -5 7h-20l7 48h20q6 0 7 6zM42 372h135l-7 -45h-135zM57 -4
q-60 0 -52 56l9 64q3 21 22 34q-15 10 -12 33l9 59q7 56 66 56t52 -56l-9 -59q-3 -23 -21 -33q16 -14 13 -34l-9 -64q-8 -56 -68 -56zM83 242l-9 -64q-2 -9 7 -9t11 9l9 64q0 10 -8 10q-10 0 -10 -10zM65 119l-9 -67q-2 -10 7 -10t11 10l9 67q2 10 -7 10t-11 -10z" />
    <glyph glyph-name="fiveeighths" unicode="&#x215d;" horiz-adv-x="215" 
d="M42 372h135l-7 -45h-135zM57 -4q-60 0 -52 56l9 64q3 21 22 34q-15 10 -12 33l9 59q7 56 66 56t52 -56l-9 -59q-3 -23 -21 -33q16 -14 13 -34l-9 -64q-8 -56 -68 -56zM83 242l-9 -64q-2 -9 7 -9t11 9l9 64q0 10 -8 10q-10 0 -10 -10zM65 119l-9 -67q-2 -10 7 -10t11 10
l9 67q2 10 -7 10t-11 -10zM128 458l11 80q2 7 -6 7t-18 -8h-41l31 163h104l-7 -49h-59q-1 -5 -5.5 -29t-6.5 -38q10 4 19 4q25 0 34.5 -11.5t5.5 -37.5l-11 -81q-8 -56 -68 -56q-33 0 -44 14.5t-7 41.5l5 36h50l-5 -36q-2 -10 7 -10q10 0 11 10z" />
    <glyph glyph-name="seveneighths" unicode="&#x215e;" horiz-adv-x="215" 
d="M42 372h135l-7 -45h-135zM57 -4q-60 0 -52 56l9 64q3 21 22 34q-15 10 -12 33l9 59q7 56 66 56t52 -56l-9 -59q-3 -23 -21 -33q16 -14 13 -34l-9 -64q-8 -56 -68 -56zM83 242l-9 -64q-2 -9 7 -9t11 9l9 64q0 10 -8 10q-10 0 -10 -10zM65 119l-9 -67q-2 -10 7 -10t11 10
l9 67q2 10 -7 10t-11 -10zM141 406h-57q18 134 70 245h-62l7 49h110l-6 -41q-27 -69 -37.5 -112t-24.5 -141z" />
    <glyph glyph-name="partialdiff" unicode="&#x2202;" horiz-adv-x="348" 
d="M152 419q24 0 46 -10q7 86 -14 151t-74 140h128q55 -79 70.5 -155t-0.5 -187l-33 -237q-19 -131 -153 -131t-115 131l24 174q18 124 121 124zM146 290l-23 -169q-4 -22 14 -22q19 0 22 22l23 169q3 22 -16 22q-16 0 -20 -22z" />
    <glyph glyph-name="minus" unicode="&#x2212;" horiz-adv-x="340" 
d="M295 325l-12 -90h-260l12 90h260z" />
    <glyph glyph-name="integral" unicode="&#x222b;" horiz-adv-x="340" 
d="M261 591l-87 -616q-10 -65 -44 -97t-109 -32q-24 0 -52 10l15 103q24 -11 47 -11q24 0 27 27l87 616q9 65 43.5 97t109.5 32q23 0 51 -10l-14 -103q-24 11 -48 11q-23 0 -26 -27z" />
    <glyph glyph-name="approxequal" unicode="&#x2248;" horiz-adv-x="340" 
d="M32 304l13 90q29 26 69 26q31 0 61 -19t63 -19q37 0 69 28l-13 -90q-32 -28 -68 -28q-33 0 -63.5 19t-61.5 19q-40 0 -69 -26zM11 151l12 90q29 26 69 26q31 0 61.5 -19t63.5 -19q37 0 69 28l-13 -90q-32 -28 -69 -28q-33 0 -63.5 19t-61.5 19q-39 0 -68 -26z" />
    <glyph glyph-name="notequal" unicode="&#x2260;" horiz-adv-x="340" 
d="M293 311h-90l-28 -62h109l-12 -90h-137q-40 -95 -48 -113h-63q8 18 48 113h-60l12 90h88l28 62h-107l13 90h134l51 113h63l-51 -113h63z" />
    <glyph glyph-name="lessequal" unicode="&#x2264;" horiz-adv-x="279" 
d="M18 166h194l-13 -90h-194zM37 338l114 145h103l-114 -145l74 -145h-103z" />
    <glyph glyph-name="greaterequal" unicode="&#x2265;" horiz-adv-x="279" 
d="M13 166h194l-13 -90h-194zM162 483l74 -145l-114 -145h-103l114 145l-74 145h103z" />
    <glyph glyph-name="CR" horiz-adv-x="0" 
 />
    <glyph glyph-name="at.case" horiz-adv-x="526" 
d="M277 148l-9 13q-21 -24 -53 -24q-45 0 -62 22.5t-10 69.5l8 62q8 51 34 78t94 47l8 55q1 12 -9 12t-11 -12l-4 -27h-86l4 27q13 97 110 97q55 0 73.5 -25t11.5 -73l-46 -322h-53zM241 296l-9 -63q-1 -14 9 -14t12 14l16 111q-24 -16 -28 -48zM221 60q81 0 116.5 41.5
t45.5 117.5l37 262q5 45 1 80.5t-33.5 57t-85.5 21.5q-82 0 -117 -41.5t-45 -117.5l-37 -262q-10 -76 13.5 -117.5t104.5 -41.5zM210 -20q-123 0 -164.5 63t-25.5 176l37 262q16 113 75.5 176t181.5 63q62 0 104 -18t61.5 -50t26 -75.5t-2.5 -95.5l-37 -262
q-16 -112 -75 -175.5t-181 -63.5z" />
    <glyph glyph-name="caron.salt" horiz-adv-x="176" 
d="M99 710h86l-53 -160h-55z" />
    <glyph glyph-name="commaaccent" horiz-adv-x="193" 
d="M-7 -48h103l-52 -122h-68z" />
    <glyph glyph-name="acute.case" horiz-adv-x="217" 
d="M249 875l-77 -135h-68l38 135h107z" />
    <glyph glyph-name="grave.case" horiz-adv-x="217" 
d="M153 740l-41 135h107l2 -135h-68z" />
    <glyph glyph-name="circumflex.case" horiz-adv-x="291" 
d="M166 875h102l37 -135h-82l-18 49l-30 -49h-81z" />
    <glyph glyph-name="dieresis.case" horiz-adv-x="298" 
d="M110 856h94l-16 -116h-94zM234 856h94l-16 -116h-94z" />
    <glyph glyph-name="tilde.case" horiz-adv-x="328" 
d="M268 732q-27 0 -50 15.5t-34 15.5q-15 0 -18 -22h-69q8 59 27 86.5t58 27.5q25 0 48.5 -15.5t35.5 -15.5q15 0 18 22h69q-8 -59 -27.5 -86.5t-57.5 -27.5z" />
    <glyph glyph-name="caron.case" horiz-adv-x="291" 
d="M250 740h-102l-36 135h81l18 -49l30 49h82z" />
    <glyph glyph-name="ring.case" horiz-adv-x="249" 
d="M204 810q4 24 -13 24q-15 0 -20 -24q-3 -23 13 -23q17 0 20 23zM269 810q-12 -84 -93 -84q-82 0 -70 84q13 85 93 85q83 0 70 -85z" />
    <glyph glyph-name="breve.case" horiz-adv-x="277" 
d="M226 847h77q-9 -62 -36.5 -90.5t-76.5 -28.5t-68 28.5t-10 90.5h75q-6 -34 15 -34q18 0 24 34z" />
    <glyph glyph-name="macron.case" horiz-adv-x="270" 
d="M104 740l12 86h170l-12 -86h-170z" />
    <glyph glyph-name="dotaccent.case" horiz-adv-x="202" 
d="M116 864h112l-17 -124h-112z" />
    <glyph glyph-name="hungarumlaut.case" horiz-adv-x="336" 
d="M141 875h92l-58 -135h-59zM261 875h95l-75 -135h-65z" />
    <glyph glyph-name="one.tnum" horiz-adv-x="370" 
d="M294 700l-82 -584h61l-16 -116h-244l16 116h61l60 430h-61l13 89q38 0 61 18.5t27 46.5h104z" />
    <glyph glyph-name="two.tnum" horiz-adv-x="370" 
d="M357 577l-11 -74q-8 -60 -30.5 -104t-49.5 -71.5t-53.5 -53.5t-48 -64t-28.5 -89l-1 -5h161l-16 -116h-284l15 110q10 70 33.5 121t50.5 79.5t54 53t48 58.5t27 79l11 76q2 22 -18 22q-22 0 -24 -22l-11 -77h-120l11 77q8 64 44 98.5t115 34.5q78 0 105.5 -35t19.5 -98z
" />
    <glyph glyph-name="three.tnum" horiz-adv-x="370" 
d="M213 426l22 151q2 22 -18 22q-22 0 -24 -22l-11 -77h-120l11 77q8 64 44 98.5t115 34.5t105 -34.5t18 -98.5l-20 -141q-7 -54 -51 -80q37 -28 30 -80l-21 -153q-19 -133 -162 -133q-79 0 -105 34.5t-17 98.5l12 87h120l-12 -85q-3 -24 18 -24t24 23l22 157q2 16 -13 16
h-49l16 114h49q16 0 17 15z" />
    <glyph glyph-name="four.tnum" horiz-adv-x="370" 
d="M132 0l18 134h-151l16 114l169 452h166l-64 -458h41l-16 -108h-41l-18 -134h-120zM116 242h50l15 112q3 23 35 203z" />
    <glyph glyph-name="five.tnum" horiz-adv-x="370" 
d="M172 124l27 191q2 17 -15 17q-21 0 -43 -20h-98l74 388h248l-16 -116h-144l-31 -164q22 11 52 11q60 0 82 -26.5t13 -88.5l-27 -193q-19 -133 -162 -133q-79 0 -105 34.5t-17 98.5l12 87h120l-12 -85q-3 -24 18 -24t24 23z" />
    <glyph glyph-name="six.tnum" horiz-adv-x="370" 
d="M222 599q-22 0 -25 -22l-25 -173q28 12 58 12q57 0 78.5 -30.5t12.5 -90.5l-24 -170q-18 -135 -162 -135q-142 0 -124 135l63 451q20 134 162 134q144 0 124 -134l-10 -76h-122l11 77q3 22 -17 22zM156 287l-23 -164q-3 -22 18 -22t24 22l23 164q3 22 -18 22t-24 -22z
" />
    <glyph glyph-name="seven.tnum" horiz-adv-x="370" 
d="M192 0h-134q46 330 176 584h-157l16 116h273l-14 -98q-71 -176 -101 -287t-59 -315z" />
    <glyph glyph-name="eight.tnum" horiz-adv-x="370" 
d="M133 -10q-78 0 -105.5 35t-18.5 98l21 153q7 53 54 80q-36 25 -29 80l20 141q8 64 44 98.5t115 34.5t105 -34.5t18 -98.5l-20 -141q-7 -54 -51 -80q37 -28 30 -80l-21 -153q-19 -133 -162 -133zM195 577l-22 -152q-3 -22 18 -22t24 22l22 152q2 22 -18 22q-22 0 -24 -22z
M153 284l-22 -161q-3 -22 18 -22t24 22l22 161q3 22 -17 22q-22 0 -25 -22z" />
    <glyph glyph-name="nine.tnum" horiz-adv-x="370" 
d="M148 101q21 0 25 22l25 180q-21 -9 -51 -9q-114 0 -97 121l22 160q20 135 162 135q144 0 124 -135l-63 -451q-18 -134 -162 -134q-142 0 -124 134l12 86h122l-12 -87q-4 -22 17 -22zM215 423l22 154q2 22 -18 22q-22 0 -24 -22l-22 -154q-3 -22 18 -22t24 22z" />
    <glyph glyph-name="zero.tnum" horiz-adv-x="370" 
d="M149 101q21 0 24 25l63 449q3 24 -17 24q-22 0 -25 -24l-63 -449q-3 -25 18 -25zM133 -10q-143 0 -124 135l63 449q19 136 162 136t124 -136l-63 -449q-19 -135 -162 -135z" />
    <glyph glyph-name="a.smcp" horiz-adv-x="337" 
d="M-35 0l160 595h153l-6 -595h-118l5 112h-51l-25 -112h-118zM147 285l-15 -74h31l7 74q3 38 8.5 102.5t7.5 87.5h-3q-6 -31 -18 -94t-18 -96z" />
    <glyph glyph-name="b.smcp" horiz-adv-x="350" 
d="M-10 0l83 595h151q68 0 89 -22t14 -72l-18 -130q-7 -47 -48 -68q38 -23 31 -72l-18 -128q-7 -51 -35 -77t-92 -26h-157zM137 248l-19 -141h23q16 0 19 17l15 105q3 19 -19 19h-19zM171 488l-19 -135h20q20 0 23 21l14 98q1 16 -16 16h-22z" />
    <glyph glyph-name="c.smcp" horiz-adv-x="354" 
d="M177 207h116l-13 -87q-18 -129 -154 -129q-75 0 -101.5 34t-18.5 95l50 355q19 128 156 128t118 -128l-11 -79h-116l12 81q2 22 -17 22q-21 0 -23 -22l-51 -358q-3 -23 17 -23t23 23z" />
    <glyph glyph-name="d.smcp" horiz-adv-x="357" 
d="M-10 0l83 595h155q70 0 92.5 -25.5t14.5 -80.5l-54 -383q-8 -56 -36.5 -81t-96.5 -25h-158zM176 488l-53 -381h21q19 0 22 18l48 343q3 20 -19 20h-19z" />
    <glyph glyph-name="e.smcp" horiz-adv-x="297" 
d="M142 249l-19 -142h104l-15 -107h-222l83 595h222l-15 -107h-104l-19 -136h91l-15 -103h-91z" />
    <glyph glyph-name="f.smcp" horiz-adv-x="279" 
d="M108 0h-118l83 595h214l-15 -107h-96l-19 -136h80l-15 -103h-80z" />
    <glyph glyph-name="g.smcp" horiz-adv-x="355" 
d="M163 252l14 97h137l-33 -229q-18 -129 -155 -129q-138 0 -120 129l50 355q18 128 156 128q76 0 101.5 -34t17.5 -94l-10 -73h-117l11 76q2 21 -17 21q-21 0 -23 -21l-51 -359q-3 -23 17 -23t23 23l19 133h-20z" />
    <glyph glyph-name="h.smcp" horiz-adv-x="357" 
d="M142 249l-34 -249h-118l83 595h118l-34 -243h41l34 243h118l-83 -595h-118l34 249h-41z" />
    <glyph glyph-name="i.smcp" horiz-adv-x="208" 
d="M-5 0l83 595h118l-83 -595h-118z" />
    <glyph glyph-name="j.smcp" horiz-adv-x="329" 
d="M205 595h117l-67 -475q-8 -61 -42.5 -95t-109.5 -34q-76 0 -100.5 33.5t-16.5 95.5l11 79h115l-11 -80q-3 -23 16 -23q18 0 21 23z" />
    <glyph glyph-name="k.smcp" horiz-adv-x="344" 
d="M191 595l-34 -243q11 31 39.5 120t41.5 123h128l-126 -295l49 -300h-128l-18 255q-5 -41 -18 -132t-17 -123h-118l83 595h118z" />
    <glyph glyph-name="l.smcp" horiz-adv-x="263" 
d="M-10 0l83 595h118l-68 -488h85l-15 -107h-203z" />
    <glyph glyph-name="m.smcp" horiz-adv-x="484" 
d="M223 595l-3 -392q20 70 61.5 223.5t45.5 168.5h150l-83 -595h-109l72 411l-121 -411h-88l-6 416l-43 -416h-109l83 595h150z" />
    <glyph glyph-name="n.smcp" horiz-adv-x="371" 
d="M174 0l-35 334q-5 -67 -17 -156l-25 -178h-107l83 595h109l34 -335q4 63 17 156l25 179h106l-83 -595h-107z" />
    <glyph glyph-name="o.smcp" horiz-adv-x="346" 
d="M136 96q20 0 23 23l51 358q2 22 -17 22q-21 0 -23 -22l-51 -358q-3 -23 17 -23zM121 -9q-138 0 -120 129l50 354q18 129 156 129t120 -129l-50 -354q-18 -129 -156 -129z" />
    <glyph glyph-name="p.smcp" horiz-adv-x="342" 
d="M-10 0l83 595h165q66 0 84.5 -29.5t10.5 -90.5l-18 -127q-8 -59 -37 -88t-94 -29h-44l-32 -231h-118zM176 486l-22 -153h21q21 0 23 22l16 109q3 22 -19 22h-19z" />
    <glyph glyph-name="q.smcp" horiz-adv-x="355" 
d="M177 -78q-50 0 -74.5 18.5t-22.5 55.5q-88 18 -74 124l50 354q18 129 156 129t120 -129l-50 -354q-14 -106 -111 -125q3 -18 29 -18h34l-24 -55h-33zM141 96q20 0 23 23l51 358q2 22 -17 22q-21 0 -23 -22l-51 -358q-3 -23 17 -23z" />
    <glyph glyph-name="r.smcp" horiz-adv-x="351" 
d="M171 0l-32 237h-2l-33 -237h-114l83 595h160q64 0 84 -29.5t12 -84.5l-19 -139q-6 -42 -19.5 -64t-39.5 -33l45 -245h-125zM172 488l-22 -155h20q20 0 23 18l16 117q3 20 -19 20h-18z" />
    <glyph glyph-name="s.smcp" horiz-adv-x="327" 
d="M119 187l-9 -59q-3 -24 17 -24t23 24l5 32q4 30 -1 53t-16.5 37t-26 28t-29 26t-25.5 32t-15.5 45t0.5 65l3 22q9 65 43 100t109 35t99.5 -35.5t15.5 -99.5l-7 -52h-114l7 53q3 22 -16 22q-21 0 -24 -22l-3 -22q-5 -34 8 -57.5t33.5 -39t40 -35t30 -58.5t2.5 -96l-5 -34
q-8 -64 -43 -100t-110 -36t-98.5 35.5t-15.5 100.5l9 60h113z" />
    <glyph glyph-name="t.smcp" horiz-adv-x="285" 
d="M220 488l-68 -488h-118l68 488h-69l15 107h255l-15 -107h-68z" />
    <glyph glyph-name="u.smcp" horiz-adv-x="355" 
d="M73 595h118l-67 -480q-3 -21 17 -21t23 21l67 480h117l-67 -478q-17 -126 -155 -126t-120 126z" />
    <glyph glyph-name="v.smcp" horiz-adv-x="327" 
d="M351 595l-163 -595h-148l3 595h123l-31 -439l93 439h123z" />
    <glyph glyph-name="w.smcp" horiz-adv-x="536" 
d="M277 422l-95 -422h-137l8 595h119l-31 -410l99 410h121l-14 -410l83 410h119l-157 -595h-139z" />
    <glyph glyph-name="x.smcp" horiz-adv-x="334" 
d="M177 421l48 174h126l-122 -286l45 -309h-125l-3 202h-2l-59 -202h-125l131 309l-42 286h126v-174h2z" />
    <glyph glyph-name="y.smcp" horiz-adv-x="311" 
d="M165 0h-118l29 210l-33 385h122l-8 -230l55 230h122l-140 -385z" />
    <glyph glyph-name="z.smcp" horiz-adv-x="301" 
d="M226 0h-243l10 78l166 406h-111l15 111h240l-11 -78l-166 -406h115z" />
    <glyph glyph-name="one.smcp" horiz-adv-x="284" 
d="M234 595l-68 -488h58l-15 -107h-234l15 107h59l49 349h-59l11 84q37 0 59 15.5t25 39.5h100z" />
    <glyph glyph-name="two.smcp" horiz-adv-x="331" 
d="M318 476l-6 -48q-7 -51 -28 -88.5t-46 -60t-50.5 -44t-45 -52.5t-25.5 -72v-4h154l-15 -107h-272l14 101q8 60 29.5 103t47 66.5t50.5 44t44.5 47.5t24.5 64l8 52q2 21 -17 21q-21 0 -23 -21l-8 -53h-115l7 51q9 61 42.5 94t110.5 33t102.5 -33.5t16.5 -93.5z" />
    <glyph glyph-name="three.smcp" horiz-adv-x="347" 
d="M190 362l17 117q2 21 -17 21q-21 0 -23 -21l-8 -54h-115l8 52q8 61 41.5 93.5t110.5 32.5t101.5 -33t16.5 -93l-15 -106q-7 -47 -48 -68q37 -24 31 -68l-17 -116q-18 -128 -155 -128q-75 0 -100 34t-17 94l9 59h115l-9 -61q-4 -23 17 -23q20 0 23 22l17 123q2 13 -12 13
h-47l14 97h47q13 0 15 13z" />
    <glyph glyph-name="four.smcp" horiz-adv-x="330" 
d="M112 0l15 111h-147l15 103l154 381h160l-54 -386h39l-14 -98h-39l-15 -111h-114zM91 209h50l13 92q9 68 30 184z" />
    <glyph glyph-name="five.smcp" horiz-adv-x="342" 
d="M156 115l21 154q2 14 -14 14q-21 0 -41 -17h-94l65 329h238l-15 -107h-139l-25 -130q26 11 50 11q57 0 78.5 -22.5t14.5 -74.5l-22 -155q-8 -60 -43 -93t-112 -33t-101 32.5t-16 93.5l9 61h115l-9 -62q-3 -22 17 -22t23 21z" />
    <glyph glyph-name="six.smcp" horiz-adv-x="355" 
d="M199 501q-21 0 -24 -21l-19 -134q29 11 55 11q55 0 75.5 -26t13.5 -77l-19 -136q-17 -127 -155 -127q-137 0 -120 127l51 360q17 125 155 125q137 0 120 -125l-8 -53h-117l8 55q3 21 -16 21zM141 239l-17 -124q-4 -21 17 -21q19 0 23 21l17 124q2 9 -3 15t-14 6
q-19 0 -23 -21z" />
    <glyph glyph-name="seven.smcp" horiz-adv-x="282" 
d="M149 0h-129q35 256 155 488h-142l15 107h252l-13 -91q-64 -148 -88 -232.5t-50 -271.5z" />
    <glyph glyph-name="eight.smcp" horiz-adv-x="355" 
d="M126 -9q-77 0 -102.5 33t-17.5 93l16 115q6 46 51 71q-35 21 -29 71l15 106q8 60 41.5 91.5t111.5 31.5q77 0 101.5 -31.5t16.5 -91.5l-15 -106q-6 -49 -48 -71q36 -24 30 -71l-16 -115q-8 -60 -43.5 -93t-111.5 -33zM175 480l-16 -116q-4 -21 17 -21q19 0 23 21l16 116
q2 9 -3 15t-14 6q-19 0 -23 -21zM141 238l-17 -123q-4 -21 17 -21q19 0 23 21l17 123q2 22 -17 22q-21 0 -23 -22z" />
    <glyph glyph-name="nine.smcp" horiz-adv-x="355" 
d="M140 94q21 0 24 22l19 139q-19 -8 -49 -8q-111 0 -95 103l18 127q17 126 155 126q137 0 120 -126l-51 -361q-19 -125 -155 -125q-139 0 -120 125l9 62h118l-9 -62q-3 -22 16 -22zM199 365l16 115q2 9 -3 15t-14 6q-19 0 -23 -21l-16 -115q-4 -22 17 -22q19 0 23 22z" />
    <glyph glyph-name="zero.smcp" horiz-adv-x="355" 
d="M141 94q20 0 23 23l51 362q2 9 -3 15.5t-14 6.5q-19 0 -23 -22l-51 -362q-3 -23 17 -23zM126 -9q-77 0 -102.5 33.5t-17.5 93.5l50 358q8 60 43.5 93.5t112.5 33.5q76 0 101.5 -33.5t17.5 -93.5l-50 -358q-8 -59 -43.5 -93t-111.5 -34z" />
    <glyph glyph-name="exclam.smcp" horiz-adv-x="200" 
d="M65 595h134l-82 -408h-84zM9 128h116l-17 -128h-116z" />
    <glyph glyph-name="exclamdown.smcp" horiz-adv-x="200" 
d="M116 0h-134l82 408h84zM173 467h-116l18 128h116z" />
    <glyph glyph-name="question.smcp" horiz-adv-x="340" 
d="M196 442l4 31q3 19 -14 19t-20 -19l-6 -40h-117l6 43q19 127 152 127q69 0 97.5 -34t19.5 -93l-4 -31q-6 -39 -17.5 -64t-26 -38.5t-29.5 -28.5t-30.5 -46.5t-25.5 -80.5h-81q-4 41 1 72q6 42 26 71t40 54t25 58zM79 128h116l-17 -128h-116z" />
    <glyph glyph-name="questiondown.smcp" horiz-adv-x="340" 
d="M122 153l-4 -31q-3 -19 14 -19t20 19l5 40h117l-6 -43q-17 -127 -152 -127q-68 0 -96.5 34t-20.5 93l5 31q6 39 17.5 64t26 38.5t29.5 28.5t30.5 46.5t25.5 80.5h81q2 -39 -1 -72q-7 -52 -46.5 -98.5t-44.5 -84.5zM238 467h-116l18 128h116z" />
    <glyph glyph-name="ampersand.smcp" horiz-adv-x="389" 
d="M295 0h-23q-45 0 -67 17q-30 -25 -86 -25q-71 0 -97.5 31t-18.5 90l18 122q5 41 48 68q-33 22 -26 68l15 107q8 61 40.5 93t109.5 32t100 -32t15 -93l-9 -62h-114l9 64q4 21 -15 21q-17 0 -21 -21l-16 -115q-2 -13 12 -13h175l-15 -103h-39l-17 -122q-2 -20 16 -20h21z
M136 95q17 0 20 20l18 134h-20q-13 0 -15 -14l-17 -120q-3 -20 14 -20z" />
    <glyph glyph-name="slash.smcp" horiz-adv-x="267" 
d="M-35 -26l231 646h91l-231 -646h-91z" />
    <glyph glyph-name="backslash.smcp" horiz-adv-x="267" 
d="M143 620l49 -646h-87l-49 646h87z" />
    <glyph glyph-name="dollar.smcp" horiz-adv-x="330" 
d="M132 229l-7 -45q-3 -19 13 -19q15 0 18 19l3 22q3 21 -9 37.5t-31 29.5t-37.5 28t-29.5 41.5t-6 62.5l2 11q14 99 111 110l10 69h61l-10 -69q92 -11 78 -110l-5 -34h-109l5 35q3 19 -13 19q-15 0 -18 -18l-2 -18q-3 -21 9 -36t31 -27t37.5 -25.5t29.5 -39.5t6 -61l-4 -27
q-14 -97 -108 -108l-10 -76h-61l10 75q-95 9 -81 109l7 45h110z" />
    <glyph glyph-name="cent.smcp" horiz-adv-x="331" 
d="M166 247h109l-8 -61q-14 -102 -112 -111l-10 -75h-61l10 76q-92 10 -78 110l32 231q14 97 109 108l10 70h61l-10 -69q95 -9 81 -109l-7 -53h-109l7 54q3 19 -12 19t-18 -19l-33 -234q-3 -19 13 -19q14 0 17 19z" />
    <glyph glyph-name="sterling.smcp" horiz-adv-x="384" 
d="M27 267l9 67h36l21 147q17 122 152 122q68 0 96 -33t20 -89l-7 -53h-114l7 53q2 8 -2.5 14t-13.5 6q-17 0 -21 -20l-21 -147h65l-9 -67h-65l-20 -139q-1 -9 4.5 -15t17.5 -6h127l-15 -107h-131q-54 0 -78 25q-33 -25 -93 -25l15 107q34 0 36 21l20 139h-36z" />
    <glyph glyph-name="Euro.smcp" horiz-adv-x="375" 
d="M223 280l-16 -45h-45l-17 -118q-3 -23 17 -23t23 23l10 73h116l-10 -72q-8 -60 -42.5 -93.5t-111.5 -33.5t-102.5 33.5t-17.5 93.5l17 117h-31l6 45h31l5 40h-31l7 45h31l16 112q8 60 43 93t112 33t102 -33t17 -93l-9 -64h-116l9 66q2 22 -17 22q-21 0 -23 -22l-16 -114
h77l-19 -45h-65l-5 -40h55z" />
    <glyph glyph-name="yen.smcp" horiz-adv-x="343" 
d="M179 0h-117l13 95h-55l6 46h55l6 42h-55l7 46h55l-31 366h115l-7 -235l59 235h116l-135 -366h58l-7 -46h-58l-6 -42h58l-6 -46h-58z" />
    <glyph glyph-name="numbersign.smcp" horiz-adv-x="349" 
d="M313 595l-29 -152h47l-9 -61h-50l-33 -169h48l-9 -61h-52l-28 -152h-62l28 152h-55l-28 -152h-62l28 152h-46l9 61h50l33 169h-48l9 61h51l29 152h62l-29 -152h55l29 152h62zM155 382l-33 -169h55l33 169h-55z" />
    <glyph glyph-name="percent.smcp" horiz-adv-x="414" 
d="M407 595l-351 -595h-67l352 595h66zM146 603q46 0 61.5 -20.5t9.5 -63.5l-12 -92q-6 -42 -27.5 -62.5t-67.5 -20.5q-45 0 -60.5 20.5t-9.5 62.5l12 92q6 43 27.5 63.5t66.5 20.5zM249 -9q-45 0 -60.5 21t-9.5 64l13 92q6 42 27.5 62.5t66.5 20.5q46 0 61.5 -20.5
t9.5 -62.5l-13 -92q-6 -43 -27.5 -64t-67.5 -21zM118 405q18 0 21 21l14 94q3 23 -15 23q-17 0 -20 -23l-14 -94q-3 -21 14 -21zM277 190q-17 0 -20 -21l-13 -94q-3 -23 14 -23q18 0 21 23l13 94q3 21 -15 21z" />
    <glyph glyph-name="acute.smcp" horiz-adv-x="217" 
d="M235 775l-68 -135h-78l39 135h107z" />
    <glyph glyph-name="grave.smcp" horiz-adv-x="217" 
d="M128 640l-30 135h107l1 -135h-78z" />
    <glyph glyph-name="circumflex.smcp" horiz-adv-x="291" 
d="M152 772h102l36 -135h-82l-17 49l-31 -49h-81z" />
    <glyph glyph-name="dieresis.smcp" horiz-adv-x="298" 
d="M95 753h94l-16 -116h-94zM219 753h94l-16 -116h-94z" />
    <glyph glyph-name="tilde.smcp" horiz-adv-x="328" 
d="M254 632q-27 0 -50 15.5t-34 15.5q-15 0 -18 -22h-69q8 59 27 86.5t58 27.5q25 0 48.5 -15.5t35.5 -15.5q15 0 18 22h69q-8 -59 -27.5 -86.5t-57.5 -27.5z" />
    <glyph glyph-name="caron.smcp" horiz-adv-x="291" 
d="M235 637h-102l-35 135h81l17 -49l31 49h82z" />
    <glyph glyph-name="ring.smcp" horiz-adv-x="249" 
d="M190 705q3 24 -14 24q-16 0 -19 -24q-4 -23 12 -23q17 0 21 23zM255 705q-13 -84 -94 -84q-82 0 -69 84q12 85 93 85q82 0 70 -85z" />
    <glyph glyph-name="breve.smcp" horiz-adv-x="277" 
d="M212 749h77q-9 -62 -36.5 -90.5t-76.5 -28.5t-68 28.5t-10 90.5h75q-6 -34 15 -34q18 0 24 34z" />
    <glyph glyph-name="macron.smcp" horiz-adv-x="270" 
d="M89 637l12 86h170l-12 -86h-170z" />
    <glyph glyph-name="dotaccent.smcp" horiz-adv-x="202" 
d="M101 761h112l-17 -124h-112z" />
    <glyph glyph-name="hungarumlaut.smcp" horiz-adv-x="336" 
d="M127 775h92l-59 -135h-59zM247 775h95l-76 -135h-65z" />
    <glyph glyph-name="aacute.smcp" horiz-adv-x="337" 
d="M-35 0l160 595h153l-6 -595h-118l5 112h-51l-25 -112h-118zM147 285l-15 -74h31l7 74q3 38 8.5 102.5t7.5 87.5h-3q-6 -31 -18 -94t-18 -96zM314 775l-68 -135h-78l39 135h107z" />
    <glyph glyph-name="agrave.smcp" horiz-adv-x="337" 
d="M-35 0l160 595h153l-6 -595h-118l5 112h-51l-25 -112h-118zM147 285l-15 -74h31l7 74q3 38 8.5 102.5t7.5 87.5h-3q-6 -31 -18 -94t-18 -96zM168 640l-30 135h107l1 -135h-78z" />
    <glyph glyph-name="acircumflex.smcp" horiz-adv-x="337" 
d="M-35 0l160 595h153l-6 -595h-118l5 112h-51l-25 -112h-118zM147 285l-15 -74h31l7 74q3 38 8.5 102.5t7.5 87.5h-3q-6 -31 -18 -94t-18 -96zM175 772h102l36 -135h-82l-17 49l-31 -49h-81z" />
    <glyph glyph-name="adieresis.smcp" horiz-adv-x="337" 
d="M-35 0l160 595h153l-6 -595h-118l5 112h-51l-25 -112h-118zM147 285l-15 -74h31l7 74q3 38 8.5 102.5t7.5 87.5h-3q-6 -31 -18 -94t-18 -96zM114 753h94l-16 -116h-94zM238 753h94l-16 -116h-94z" />
    <glyph glyph-name="atilde.smcp" horiz-adv-x="337" 
d="M-35 0l160 595h153l-6 -595h-118l5 112h-51l-25 -112h-118zM147 285l-15 -74h31l7 74q3 38 8.5 102.5t7.5 87.5h-3q-6 -31 -18 -94t-18 -96zM258 632q-27 0 -50 15.5t-34 15.5q-15 0 -18 -22h-69q8 59 27 86.5t58 27.5q25 0 48.5 -15.5t35.5 -15.5q15 0 18 22h69
q-8 -59 -27.5 -86.5t-57.5 -27.5z" />
    <glyph glyph-name="aring.smcp" horiz-adv-x="337" 
d="M-35 0l160 595h153l-6 -595h-118l5 112h-51l-25 -112h-118zM147 285l-15 -74h31l7 74q3 38 8.5 102.5t7.5 87.5h-3q-6 -31 -18 -94t-18 -96zM234 705q3 24 -14 24q-16 0 -19 -24q-4 -23 12 -23q17 0 21 23zM299 705q-13 -84 -94 -84q-82 0 -69 84q12 85 93 85
q82 0 70 -85z" />
    <glyph glyph-name="amacron.smcp" horiz-adv-x="337" 
d="M-35 0l160 595h153l-6 -595h-118l5 112h-51l-25 -112h-118zM147 285l-15 -74h31l7 74q3 38 8.5 102.5t7.5 87.5h-3q-6 -31 -18 -94t-18 -96zM122 637l12 86h170l-12 -86h-170z" />
    <glyph glyph-name="abreve.smcp" horiz-adv-x="337" 
d="M-35 0l160 595h153l-6 -595h-118l5 112h-51l-25 -112h-118zM147 285l-15 -74h31l7 74q3 38 8.5 102.5t7.5 87.5h-3q-6 -31 -18 -94t-18 -96zM242 749h77q-9 -62 -36.5 -90.5t-76.5 -28.5t-68 28.5t-10 90.5h75q-6 -34 15 -34q18 0 24 34z" />
    <glyph glyph-name="aogonek.smcp" horiz-adv-x="337" 
d="M248 -170h-22q-51 0 -73.5 21t-17.5 54q9 59 70 95h-51l5 112h-51l-25 -112h-118l160 595h153l-6 -595q-37 -28 -42 -57q-1 -9 4.5 -14.5t16.5 -5.5h10zM147 285l-15 -74h31l7 74l16 190h-3q-6 -31 -18 -94t-18 -96z" />
    <glyph glyph-name="ae.smcp" horiz-adv-x="474" 
d="M124 107l-37 -107h-122l221 595h291l-15 -107h-106l-19 -136h92l-15 -103h-92l-19 -142h106l-15 -107h-223l15 107h-62zM159 210h41l39 278h-2z" />
    <glyph glyph-name="bdotaccent.smcp" horiz-adv-x="350" 
d="M-10 0l83 595h151q68 0 89 -22t14 -72l-18 -130q-7 -47 -48 -68q38 -23 31 -72l-18 -128q-7 -51 -35 -77t-92 -26h-157zM137 248l-19 -141h23q16 0 19 17l15 105q3 19 -19 19h-19zM171 488l-19 -135h20q20 0 23 21l14 98q1 16 -16 16h-22zM169 761h112l-17 -124h-112z
" />
    <glyph glyph-name="cacute.smcp" horiz-adv-x="354" 
d="M177 207h116l-13 -87q-18 -129 -154 -129q-75 0 -101.5 34t-18.5 95l50 355q19 128 156 128t118 -128l-11 -79h-116l12 81q2 22 -17 22q-21 0 -23 -22l-51 -358q-3 -23 17 -23t23 23zM322 775l-68 -135h-78l39 135h107z" />
    <glyph glyph-name="ccircumflex.smcp" horiz-adv-x="354" 
d="M177 207h116l-13 -87q-18 -129 -154 -129q-75 0 -101.5 34t-18.5 95l50 355q19 128 156 128t118 -128l-11 -79h-116l12 81q2 22 -17 22q-21 0 -23 -22l-51 -358q-3 -23 17 -23t23 23zM183 772h102l36 -135h-82l-17 49l-31 -49h-81z" />
    <glyph glyph-name="ccaron.smcp" horiz-adv-x="354" 
d="M177 207h116l-13 -87q-18 -129 -154 -129q-75 0 -101.5 34t-18.5 95l50 355q19 128 156 128t118 -128l-11 -79h-116l12 81q2 22 -17 22q-21 0 -23 -22l-51 -358q-3 -23 17 -23t23 23zM266 637h-102l-35 135h81l17 -49l31 49h82z" />
    <glyph glyph-name="ccedilla.smcp" horiz-adv-x="354" 
d="M63 -81l32 74q-105 13 -89 127l50 355q19 128 156 128t118 -128l-11 -79h-116l12 81q2 22 -17 22q-21 0 -23 -22l-51 -358q-3 -23 17 -23t23 23l13 88h116l-13 -87q-16 -115 -124 -127l-13 -32q53 -11 45 -62q-4 -33 -26.5 -51t-74.5 -18h-61l24 61h34q15 0 16 14
q3 14 -12 14h-25z" />
    <glyph glyph-name="cdotaccent.smcp" horiz-adv-x="354" 
d="M177 207h116l-13 -87q-18 -129 -154 -129q-75 0 -101.5 34t-18.5 95l50 355q19 128 156 128t118 -128l-11 -79h-116l12 81q2 22 -17 22q-21 0 -23 -22l-51 -358q-3 -23 17 -23t23 23zM177 761h112l-17 -124h-112z" />
    <glyph glyph-name="dcaron.smcp" horiz-adv-x="357" 
d="M-10 0l83 595h155q70 0 92.5 -25.5t14.5 -80.5l-54 -383q-8 -56 -36.5 -81t-96.5 -25h-158zM176 488l-53 -381h21q19 0 22 18l48 343q3 20 -19 20h-19zM261 637h-102l-35 135h81l17 -49l31 49h82z" />
    <glyph glyph-name="ddotaccent.smcp" horiz-adv-x="357" 
d="M-10 0l83 595h155q70 0 92.5 -25.5t14.5 -80.5l-54 -383q-8 -56 -36.5 -81t-96.5 -25h-158zM176 488l-53 -381h21q19 0 22 18l48 343q3 20 -19 20h-19zM170 761h112l-17 -124h-112z" />
    <glyph glyph-name="dcroat.smcp" horiz-adv-x="357" 
d="M3 257l12 86h23l35 252h155q70 0 92.5 -25.5t14.5 -80.5l-54 -383q-8 -56 -36.5 -81t-96.5 -25h-158l36 257h-23zM176 488l-20 -145h21l-12 -86h-21l-21 -150h21q19 0 22 18l48 343q3 20 -19 20h-19z" />
    <glyph glyph-name="eth.smcp" horiz-adv-x="357" 
d="M3 257l12 86h23l35 252h155q70 0 92.5 -25.5t14.5 -80.5l-54 -383q-8 -56 -36.5 -81t-96.5 -25h-158l36 257h-23zM176 488l-20 -145h21l-12 -86h-21l-21 -150h21q19 0 22 18l48 343q3 20 -19 20h-19z" />
    <glyph glyph-name="eacute.smcp" horiz-adv-x="297" 
d="M142 249l-19 -142h104l-15 -107h-222l83 595h222l-15 -107h-104l-19 -136h91l-15 -103h-91zM294 775l-68 -135h-78l39 135h107z" />
    <glyph glyph-name="egrave.smcp" horiz-adv-x="297" 
d="M142 249l-19 -142h104l-15 -107h-222l83 595h222l-15 -107h-104l-19 -136h91l-15 -103h-91zM164 640l-30 135h107l1 -135h-78z" />
    <glyph glyph-name="ecircumflex.smcp" horiz-adv-x="297" 
d="M142 249l-19 -142h104l-15 -107h-222l83 595h222l-15 -107h-104l-19 -136h91l-15 -103h-91zM155 772h102l36 -135h-82l-17 49l-31 -49h-81z" />
    <glyph glyph-name="edieresis.smcp" horiz-adv-x="297" 
d="M142 249l-19 -142h104l-15 -107h-222l83 595h222l-15 -107h-104l-19 -136h91l-15 -103h-91zM95 753h94l-16 -116h-94zM219 753h94l-16 -116h-94z" />
    <glyph glyph-name="ecaron.smcp" horiz-adv-x="297" 
d="M142 249l-19 -142h104l-15 -107h-222l83 595h222l-15 -107h-104l-19 -136h91l-15 -103h-91zM238 637h-102l-35 135h81l17 -49l31 49h82z" />
    <glyph glyph-name="emacron.smcp" horiz-adv-x="297" 
d="M142 249l-19 -142h104l-15 -107h-222l83 595h222l-15 -107h-104l-19 -136h91l-15 -103h-91zM102 637l12 86h170l-12 -86h-170z" />
    <glyph glyph-name="ebreve.smcp" horiz-adv-x="297" 
d="M142 249l-19 -142h104l-15 -107h-222l83 595h222l-15 -107h-104l-19 -136h91l-15 -103h-91zM222 749h77q-9 -62 -36.5 -90.5t-76.5 -28.5t-68 28.5t-10 90.5h75q-6 -34 15 -34q18 0 24 34z" />
    <glyph glyph-name="eogonek.smcp" horiz-adv-x="297" 
d="M188 -170h-22q-51 0 -73.5 21t-17.5 54q9 59 70 95h-155l83 595h222l-15 -107h-104l-19 -136h91l-15 -103h-91l-19 -142h104l-15 -107q-37 -28 -42 -57q-1 -9 4.5 -14.5t16.5 -5.5h10z" />
    <glyph glyph-name="edotaccent.smcp" horiz-adv-x="297" 
d="M142 249l-19 -142h104l-15 -107h-222l83 595h222l-15 -107h-104l-19 -136h91l-15 -103h-91zM151 761h112l-17 -124h-112z" />
    <glyph glyph-name="fdotaccent.smcp" horiz-adv-x="279" 
d="M108 0h-118l83 595h214l-15 -107h-96l-19 -136h80l-15 -103h-80zM146 761h112l-17 -124h-112z" />
    <glyph glyph-name="gcircumflex.smcp" horiz-adv-x="355" 
d="M163 252l14 97h137l-33 -229q-18 -129 -155 -129q-138 0 -120 129l50 355q18 128 156 128q76 0 101.5 -34t17.5 -94l-10 -73h-117l11 76q2 21 -17 21q-21 0 -23 -21l-51 -359q-3 -23 17 -23t23 23l19 133h-20zM185 772h102l36 -135h-82l-17 49l-31 -49h-81z" />
    <glyph glyph-name="gbreve.smcp" horiz-adv-x="355" 
d="M163 252l14 97h137l-33 -229q-18 -129 -155 -129q-138 0 -120 129l50 355q18 128 156 128q76 0 101.5 -34t17.5 -94l-10 -73h-117l11 76q2 21 -17 21q-21 0 -23 -21l-51 -359q-3 -23 17 -23t23 23l19 133h-20zM252 749h77q-9 -62 -36.5 -90.5t-76.5 -28.5t-68 28.5
t-10 90.5h75q-6 -34 15 -34q18 0 24 34z" />
    <glyph glyph-name="gdotaccent.smcp" horiz-adv-x="355" 
d="M163 252l14 97h137l-33 -229q-18 -129 -155 -129q-138 0 -120 129l50 355q18 128 156 128q76 0 101.5 -34t17.5 -94l-10 -73h-117l11 76q2 21 -17 21q-21 0 -23 -21l-51 -359q-3 -23 17 -23t23 23l19 133h-20zM178 761h112l-17 -124h-112z" />
    <glyph glyph-name="gcommaaccent.smcp" horiz-adv-x="355" 
d="M163 252l14 97h137l-33 -229q-18 -129 -155 -129q-138 0 -120 129l50 355q18 128 156 128q76 0 101.5 -34t17.5 -94l-10 -73h-117l11 76q2 21 -17 21q-21 0 -23 -21l-51 -359q-3 -23 17 -23t23 23l19 133h-20zM69 -48h103l-52 -122h-68z" />
    <glyph glyph-name="hcircumflex.smcp" horiz-adv-x="357" 
d="M142 249l-34 -249h-118l83 595h118l-34 -243h41l34 243h118l-83 -595h-118l34 249h-41zM185 772h102l36 -135h-82l-17 49l-31 -49h-81z" />
    <glyph glyph-name="hbar.smcp" horiz-adv-x="357" 
d="M27 447l8 56h25l13 92h118l-13 -92h41l13 92h118l-13 -92h25l-8 -56h-25l-62 -447h-118l34 249h-41l-34 -249h-118l62 447h-25zM157 352h41l13 95h-41z" />
    <glyph glyph-name="iacute.smcp" horiz-adv-x="208" 
d="M-5 0l83 595h118l-83 -595h-118zM250 775l-68 -135h-78l39 135h107z" />
    <glyph glyph-name="igrave.smcp" horiz-adv-x="208" 
d="M-5 0l83 595h118l-83 -595h-118zM102 640l-30 135h107l1 -135h-78z" />
    <glyph glyph-name="icircumflex.smcp" horiz-adv-x="208" 
d="M-5 0l83 595h118l-83 -595h-118zM111 772h102l36 -135h-82l-17 49l-31 -49h-81z" />
    <glyph glyph-name="idieresis.smcp" horiz-adv-x="208" 
d="M-5 0l83 595h118l-83 -595h-118zM50 753h94l-16 -116h-94zM174 753h94l-16 -116h-94z" />
    <glyph glyph-name="itilde.smcp" horiz-adv-x="208" 
d="M-5 0l83 595h118l-83 -595h-118zM194 632q-27 0 -50 15.5t-34 15.5q-15 0 -18 -22h-69q8 59 27 86.5t58 27.5q25 0 48.5 -15.5t35.5 -15.5q15 0 18 22h69q-8 -59 -27.5 -86.5t-57.5 -27.5z" />
    <glyph glyph-name="imacron.smcp" horiz-adv-x="208" 
d="M-5 0l83 595h118l-83 -595h-118zM58 637l12 86h170l-12 -86h-170z" />
    <glyph glyph-name="ibreve.smcp" horiz-adv-x="208" 
d="M-5 0l83 595h118l-83 -595h-118zM178 749h77q-9 -62 -36.5 -90.5t-76.5 -28.5t-68 28.5t-10 90.5h75q-6 -34 15 -34q18 0 24 34z" />
    <glyph glyph-name="iogonek.smcp" horiz-adv-x="208" 
d="M-5 0l83 595h118l-83 -595q-37 -28 -42 -57q-1 -9 4.5 -14.5t16.5 -5.5h10l-13 -93h-22q-51 0 -73.5 21t-17.5 54q9 59 70 95h-51z" />
    <glyph glyph-name="jcircumflex.smcp" horiz-adv-x="329" 
d="M205 595h117l-67 -475q-8 -61 -42.5 -95t-109.5 -34q-76 0 -100.5 33.5t-16.5 95.5l11 79h115l-11 -80q-3 -23 16 -23q18 0 21 23zM236 772h102l36 -135h-82l-17 49l-31 -49h-81z" />
    <glyph glyph-name="kcommaaccent.smcp" horiz-adv-x="344" 
d="M191 595l-34 -243q11 31 39.5 120t41.5 123h128l-126 -295l49 -300h-128l-18 255q-5 -41 -18 -132t-17 -123h-118l83 595h118zM63 -48h103l-52 -122h-68z" />
    <glyph glyph-name="lacute.smcp" horiz-adv-x="263" 
d="M-10 0l83 595h118l-68 -488h85l-15 -107h-203zM243 775l-68 -135h-78l39 135h107z" />
    <glyph glyph-name="lcaron.smcp" horiz-adv-x="263" 
d="M-10 0l83 595h118l-68 -488h85l-15 -107h-203zM217 595h82l-59 -200h-47z" />
    <glyph glyph-name="lcommaaccent.smcp" horiz-adv-x="263" 
d="M-10 0l83 595h118l-68 -488h85l-15 -107h-203zM33 -48h103l-52 -122h-68z" />
    <glyph glyph-name="ldot.smcp" horiz-adv-x="263" 
d="M-10 0l83 595h118l-68 -488h85l-15 -107h-203zM175 344h86l-13 -112h-86z" />
    <glyph glyph-name="lslash.smcp" horiz-adv-x="263" 
d="M-8 232l11 77l31 10l39 276h118l-33 -237l32 11l-10 -77l-33 -11l-24 -174h85l-15 -107h-203l34 242z" />
    <glyph glyph-name="mdotaccent.smcp" horiz-adv-x="484" 
d="M223 595l-3 -392q20 70 61.5 223.5t45.5 168.5h150l-83 -595h-109l72 411l-121 -411h-88l-6 416l-43 -416h-109l83 595h150zM242 761h112l-17 -124h-112z" />
    <glyph glyph-name="nacute.smcp" horiz-adv-x="371" 
d="M174 0l-35 334q-5 -67 -17 -156l-25 -178h-107l83 595h109l34 -335q4 63 17 156l25 179h106l-83 -595h-107zM323 775l-68 -135h-78l39 135h107z" />
    <glyph glyph-name="ntilde.smcp" horiz-adv-x="371" 
d="M174 0l-35 334q-5 -67 -17 -156l-25 -178h-107l83 595h109l34 -335q4 63 17 156l25 179h106l-83 -595h-107zM275 632q-27 0 -50 15.5t-34 15.5q-15 0 -18 -22h-69q8 59 27 86.5t58 27.5q25 0 48.5 -15.5t35.5 -15.5q15 0 18 22h69q-8 -59 -27.5 -86.5t-57.5 -27.5z" />
    <glyph glyph-name="ncaron.smcp" horiz-adv-x="371" 
d="M174 0l-35 334q-5 -67 -17 -156l-25 -178h-107l83 595h109l34 -335q4 63 17 156l25 179h106l-83 -595h-107zM275 637h-102l-35 135h81l17 -49l31 49h82z" />
    <glyph glyph-name="ncommaaccent.smcp" horiz-adv-x="371" 
d="M174 0l-35 334q-5 -67 -17 -156l-25 -178h-107l83 595h109l34 -335q4 63 17 156l25 179h106l-83 -595h-107zM77 -48h103l-52 -122h-68z" />
    <glyph glyph-name="eng.smcp" horiz-adv-x="371" 
d="M174 0l-35 334q-5 -67 -17 -156l-25 -178h-107l83 595h109l34 -335q4 63 17 156l25 179h106l-90 -636q-7 -50 -38 -77t-100 -27q-24 0 -43 6l13 96q18 -7 35 -7q24 0 30 29z" />
    <glyph glyph-name="oacute.smcp" horiz-adv-x="346" 
d="M136 96q20 0 23 23l51 358q2 22 -17 22q-21 0 -23 -22l-51 -358q-3 -23 17 -23zM121 -9q-138 0 -120 129l50 354q18 129 156 129t120 -129l-50 -354q-18 -129 -156 -129zM317 775l-68 -135h-78l39 135h107z" />
    <glyph glyph-name="ograve.smcp" horiz-adv-x="346" 
d="M136 96q20 0 23 23l51 358q2 22 -17 22q-21 0 -23 -22l-51 -358q-3 -23 17 -23zM121 -9q-138 0 -120 129l50 354q18 129 156 129t120 -129l-50 -354q-18 -129 -156 -129zM175 640l-30 135h107l1 -135h-78z" />
    <glyph glyph-name="ocircumflex.smcp" horiz-adv-x="346" 
d="M136 96q20 0 23 23l51 358q2 22 -17 22q-21 0 -23 -22l-51 -358q-3 -23 17 -23zM121 -9q-138 0 -120 129l50 354q18 129 156 129t120 -129l-50 -354q-18 -129 -156 -129zM179 772h102l36 -135h-82l-17 49l-31 -49h-81z" />
    <glyph glyph-name="odieresis.smcp" horiz-adv-x="346" 
d="M136 96q20 0 23 23l51 358q2 22 -17 22q-21 0 -23 -22l-51 -358q-3 -23 17 -23zM121 -9q-138 0 -120 129l50 354q18 129 156 129t120 -129l-50 -354q-18 -129 -156 -129zM119 753h94l-16 -116h-94zM243 753h94l-16 -116h-94z" />
    <glyph glyph-name="otilde.smcp" horiz-adv-x="346" 
d="M136 96q20 0 23 23l51 358q2 22 -17 22q-21 0 -23 -22l-51 -358q-3 -23 17 -23zM121 -9q-138 0 -120 129l50 354q18 129 156 129t120 -129l-50 -354q-18 -129 -156 -129zM263 632q-27 0 -50 15.5t-34 15.5q-15 0 -18 -22h-69q8 59 27 86.5t58 27.5q25 0 48.5 -15.5
t35.5 -15.5q15 0 18 22h69q-8 -59 -27.5 -86.5t-57.5 -27.5z" />
    <glyph glyph-name="obreve.smcp" horiz-adv-x="346" 
d="M136 96q20 0 23 23l51 358q2 22 -17 22q-21 0 -23 -22l-51 -358q-3 -23 17 -23zM121 -9q-138 0 -120 129l50 354q18 129 156 129t120 -129l-50 -354q-18 -129 -156 -129zM246 749h77q-9 -62 -36.5 -90.5t-76.5 -28.5t-68 28.5t-10 90.5h75q-6 -34 15 -34q18 0 24 34z" />
    <glyph glyph-name="omacron.smcp" horiz-adv-x="346" 
d="M136 96q20 0 23 23l51 358q2 22 -17 22q-21 0 -23 -22l-51 -358q-3 -23 17 -23zM121 -9q-138 0 -120 129l50 354q18 129 156 129t120 -129l-50 -354q-18 -129 -156 -129zM127 637l12 86h170l-12 -86h-170z" />
    <glyph glyph-name="ohungarumlaut.smcp" horiz-adv-x="346" 
d="M136 96q20 0 23 23l51 358q2 22 -17 22q-21 0 -23 -22l-51 -358q-3 -23 17 -23zM121 -9q-138 0 -120 129l50 354q18 129 156 129t120 -129l-50 -354q-18 -129 -156 -129zM160 775h92l-59 -135h-59zM280 775h95l-76 -135h-65z" />
    <glyph glyph-name="oslash.smcp" horiz-adv-x="346" 
d="M121 -9q-19 0 -27 1l-5 -18h-88l18 52q-27 31 -18 94l50 354q18 129 156 129q9 0 27 -2l8 19h88l-21 -53q26 -33 18 -93l-50 -354q-18 -129 -156 -129zM136 96q20 0 23 23l51 358q2 22 -17 22q-21 0 -23 -22l-51 -358q-3 -23 17 -23z" />
    <glyph glyph-name="oe.smcp" horiz-adv-x="450" 
d="M136 96q20 0 23 23l51 358q2 22 -17 22q-21 0 -23 -22l-51 -358q-3 -23 17 -23zM295 249l-19 -142h104l-15 -107h-179q-28 -9 -65 -9q-138 0 -120 129l50 354q18 129 156 129q33 0 59 -8h182l-15 -107h-104l-19 -136h91l-15 -103h-91z" />
    <glyph glyph-name="thorn.smcp" horiz-adv-x="342" 
d="M-10 0l83 595h118l-16 -115h47q66 0 84.5 -29.5t10.5 -90.5l-18 -127q-8 -59 -37 -88t-94 -29h-44l-16 -116h-118zM160 371l-22 -153h21q21 0 23 22l16 109q3 22 -19 22h-19z" />
    <glyph glyph-name="pdotaccent.smcp" horiz-adv-x="342" 
d="M-10 0l83 595h165q66 0 84.5 -29.5t10.5 -90.5l-18 -127q-8 -59 -37 -88t-94 -29h-44l-32 -231h-118zM176 486l-22 -153h21q21 0 23 22l16 109q3 22 -19 22h-19zM171 761h112l-17 -124h-112z" />
    <glyph glyph-name="racute.smcp" horiz-adv-x="351" 
d="M171 0l-32 237h-2l-33 -237h-114l83 595h160q64 0 84 -29.5t12 -84.5l-19 -139q-6 -42 -19.5 -64t-39.5 -33l45 -245h-125zM172 488l-22 -155h20q20 0 23 18l16 117q3 20 -19 20h-18zM311 775l-68 -135h-78l39 135h107z" />
    <glyph glyph-name="rcaron.smcp" horiz-adv-x="351" 
d="M171 0l-32 237h-2l-33 -237h-114l83 595h160q64 0 84 -29.5t12 -84.5l-19 -139q-6 -42 -19.5 -64t-39.5 -33l45 -245h-125zM172 488l-22 -155h20q20 0 23 18l16 117q3 20 -19 20h-18zM256 637h-102l-35 135h81l17 -49l31 49h82z" />
    <glyph glyph-name="rcommaaccent.smcp" horiz-adv-x="351" 
d="M171 0l-32 237h-2l-33 -237h-114l83 595h160q64 0 84 -29.5t12 -84.5l-19 -139q-6 -42 -19.5 -64t-39.5 -33l45 -245h-125zM172 488l-22 -155h20q20 0 23 18l16 117q3 20 -19 20h-18zM67 -48h103l-52 -122h-68z" />
    <glyph glyph-name="sacute.smcp" horiz-adv-x="327" 
d="M119 187l-9 -59q-3 -24 17 -24t23 24l5 32q4 30 -1 53t-16.5 37t-26 28t-29 26t-25.5 32t-15.5 45t0.5 65l3 22q9 65 43 100t109 35t99.5 -35.5t15.5 -99.5l-7 -52h-114l7 53q3 22 -16 22q-21 0 -24 -22l-3 -22q-5 -34 8 -57.5t33.5 -39t40 -35t30 -58.5t2.5 -96l-5 -34
q-8 -64 -43 -100t-110 -36t-98.5 35.5t-15.5 100.5l9 60h113zM310 775l-68 -135h-78l39 135h107z" />
    <glyph glyph-name="scircumflex.smcp" horiz-adv-x="327" 
d="M119 187l-9 -59q-3 -24 17 -24t23 24l5 32q4 30 -1 53t-16.5 37t-26 28t-29 26t-25.5 32t-15.5 45t0.5 65l3 22q9 65 43 100t109 35t99.5 -35.5t15.5 -99.5l-7 -52h-114l7 53q3 22 -16 22q-21 0 -24 -22l-3 -22q-5 -34 8 -57.5t33.5 -39t40 -35t30 -58.5t2.5 -96l-5 -34
q-8 -64 -43 -100t-110 -36t-98.5 35.5t-15.5 100.5l9 60h113zM170 772h102l36 -135h-82l-17 49l-31 -49h-81z" />
    <glyph glyph-name="scaron.smcp" horiz-adv-x="327" 
d="M119 187l-9 -59q-3 -24 17 -24t23 24l5 32q4 30 -1 53t-16.5 37t-26 28t-29 26t-25.5 32t-15.5 45t0.5 65l3 22q9 65 43 100t109 35t99.5 -35.5t15.5 -99.5l-7 -52h-114l7 53q3 22 -16 22q-21 0 -24 -22l-3 -22q-5 -34 8 -57.5t33.5 -39t40 -35t30 -58.5t2.5 -96l-5 -34
q-8 -64 -43 -100t-110 -36t-98.5 35.5t-15.5 100.5l9 60h113zM253 637h-102l-35 135h81l17 -49l31 49h82z" />
    <glyph glyph-name="sdotaccent.smcp" horiz-adv-x="327" 
d="M119 187l-9 -59q-3 -24 17 -24t23 24l5 32q4 30 -1 53t-16.5 37t-26 28t-29 26t-25.5 32t-15.5 45t0.5 65l3 22q9 65 43 100t109 35t99.5 -35.5t15.5 -99.5l-7 -52h-114l7 53q3 22 -16 22q-21 0 -24 -22l-3 -22q-5 -34 8 -57.5t33.5 -39t40 -35t30 -58.5t2.5 -96l-5 -34
q-8 -64 -43 -100t-110 -36t-98.5 35.5t-15.5 100.5l9 60h113zM163 761h112l-17 -124h-112z" />
    <glyph glyph-name="scedilla.smcp" horiz-adv-x="327" 
d="M45 -81l32 75q-54 8 -71 42t-9 91l9 60h113l-9 -59q-3 -24 17 -24t23 24l5 32q4 30 -1 53t-16.5 37t-26 28t-29 26t-25.5 32t-15.5 45t0.5 65l3 22q9 65 43 100t109 35t99.5 -35.5t15.5 -99.5l-7 -52h-114l7 53q3 22 -16 22q-21 0 -24 -22l-3 -22q-5 -34 8 -57.5
t33.5 -39t40 -35t30 -58.5t2.5 -96l-5 -34q-17 -124 -127 -135l-12 -31q53 -11 45 -62q-4 -33 -26.5 -51t-74.5 -18h-61l24 61h34q15 0 16 14q3 14 -12 14h-25z" />
    <glyph glyph-name="scommaaccent.smcp" horiz-adv-x="327" 
d="M119 187l-9 -59q-3 -24 17 -24t23 24l5 32q4 30 -1 53t-16.5 37t-26 28t-29 26t-25.5 32t-15.5 45t0.5 65l3 22q9 65 43 100t109 35t99.5 -35.5t15.5 -99.5l-7 -52h-114l7 53q3 22 -16 22q-21 0 -24 -22l-3 -22q-5 -34 8 -57.5t33.5 -39t40 -35t30 -58.5t2.5 -96l-5 -34
q-8 -64 -43 -100t-110 -36t-98.5 35.5t-15.5 100.5l9 60h113zM55 -48h103l-52 -122h-68z" />
    <glyph glyph-name="germandbls.smcp" horiz-adv-x="654" 
d="M119 187l-9 -59q-3 -24 17 -24t23 24l5 32q4 30 -1 53t-16.5 37t-26 28t-29 26t-25.5 32t-15.5 45t0.5 65l3 22q9 65 43 100t109 35t99.5 -35.5t15.5 -99.5l-7 -52h-114l7 53q3 22 -16 22q-21 0 -24 -22l-3 -22q-5 -34 8 -57.5t33.5 -39t40 -35t30 -58.5t2.5 -96l-5 -34
q-8 -64 -43 -100t-110 -36t-98.5 35.5t-15.5 100.5l9 60h113zM446 187l-9 -59q-3 -24 17 -24t23 24l5 32q4 30 -1 53t-16.5 37t-26 28t-29 26t-25.5 32t-15.5 45t0.5 65l3 22q9 65 43 100t109 35t99.5 -35.5t15.5 -99.5l-7 -52h-114l7 53q3 22 -16 22q-21 0 -24 -22l-3 -22
q-5 -34 8 -57.5t33.5 -39t40 -35t30 -58.5t2.5 -96l-5 -34q-8 -64 -43 -100t-110 -36t-98.5 35.5t-15.5 100.5l9 60h113z" />
    <glyph glyph-name="tcaron.smcp" horiz-adv-x="285" 
d="M220 488l-68 -488h-118l68 488h-69l15 107h255l-15 -107h-68zM232 637h-102l-35 135h81l17 -49l31 49h82z" />
    <glyph glyph-name="tdotaccent.smcp" horiz-adv-x="285" 
d="M220 488l-68 -488h-118l68 488h-69l15 107h255l-15 -107h-68zM142 761h112l-17 -124h-112z" />
    <glyph glyph-name="tcommaaccent.smcp" horiz-adv-x="285" 
d="M220 488l-68 -488h-118l68 488h-69l15 107h255l-15 -107h-68zM34 -48h103l-52 -122h-68z" />
    <glyph glyph-name="tbar.smcp" horiz-adv-x="285" 
d="M220 488l-68 -488h-118l68 488h-69l15 107h255l-15 -107h-68zM96 637l12 86h170l-12 -86h-170z" />
    <glyph glyph-name="uacute.smcp" horiz-adv-x="355" 
d="M73 595h118l-67 -480q-3 -21 17 -21t23 21l67 480h117l-67 -478q-17 -126 -155 -126t-120 126zM324 775l-68 -135h-78l39 135h107z" />
    <glyph glyph-name="ugrave.smcp" horiz-adv-x="355" 
d="M73 595h118l-67 -480q-3 -21 17 -21t23 21l67 480h117l-67 -478q-17 -126 -155 -126t-120 126zM176 640l-30 135h107l1 -135h-78z" />
    <glyph glyph-name="ucircumflex.smcp" horiz-adv-x="355" 
d="M73 595h118l-67 -480q-3 -21 17 -21t23 21l67 480h117l-67 -478q-17 -126 -155 -126t-120 126zM184 772h102l36 -135h-82l-17 49l-31 -49h-81z" />
    <glyph glyph-name="udieresis.smcp" horiz-adv-x="355" 
d="M73 595h118l-67 -480q-3 -21 17 -21t23 21l67 480h117l-67 -478q-17 -126 -155 -126t-120 126zM123 753h94l-16 -116h-94zM247 753h94l-16 -116h-94z" />
    <glyph glyph-name="utilde.smcp" horiz-adv-x="355" 
d="M73 595h118l-67 -480q-3 -21 17 -21t23 21l67 480h117l-67 -478q-17 -126 -155 -126t-120 126zM267 632q-27 0 -50 15.5t-34 15.5q-15 0 -18 -22h-69q8 59 27 86.5t58 27.5q25 0 48.5 -15.5t35.5 -15.5q15 0 18 22h69q-8 -59 -27.5 -86.5t-57.5 -27.5z" />
    <glyph glyph-name="uring.smcp" horiz-adv-x="355" 
d="M73 595h118l-67 -480q-3 -21 17 -21t23 21l67 480h117l-67 -478q-17 -126 -155 -126t-120 126zM243 705q3 24 -14 24q-16 0 -19 -24q-4 -23 12 -23q17 0 21 23zM308 705q-13 -84 -94 -84q-82 0 -69 84q12 85 93 85q82 0 70 -85z" />
    <glyph glyph-name="ubreve.smcp" horiz-adv-x="355" 
d="M73 595h118l-67 -480q-3 -21 17 -21t23 21l67 480h117l-67 -478q-17 -126 -155 -126t-120 126zM251 749h77q-9 -62 -36.5 -90.5t-76.5 -28.5t-68 28.5t-10 90.5h75q-6 -34 15 -34q18 0 24 34z" />
    <glyph glyph-name="umacron.smcp" horiz-adv-x="355" 
d="M73 595h118l-67 -480q-3 -21 17 -21t23 21l67 480h117l-67 -478q-17 -126 -155 -126t-120 126zM131 637l12 86h170l-12 -86h-170z" />
    <glyph glyph-name="uhungarumlaut.smcp" horiz-adv-x="355" 
d="M73 595h118l-67 -480q-3 -21 17 -21t23 21l67 480h117l-67 -478q-17 -126 -155 -126t-120 126zM163 775h92l-59 -135h-59zM283 775h95l-76 -135h-65z" />
    <glyph glyph-name="uogonek.smcp" horiz-adv-x="355" 
d="M165 -170h-22q-51 0 -73.5 21t-17.5 54q8 52 56 87q-119 6 -102 125l67 478h118l-67 -480q-3 -21 17 -21t23 21l67 480h117l-67 -478q-14 -97 -96 -119q-33 -26 -38 -55q-1 -9 4.5 -14.5t16.5 -5.5h10z" />
    <glyph glyph-name="wacute.smcp" horiz-adv-x="536" 
d="M277 422l-95 -422h-137l8 595h119l-31 -410l99 410h121l-14 -410l83 410h119l-157 -595h-139zM416 775l-68 -135h-78l39 135h107z" />
    <glyph glyph-name="wgrave.smcp" horiz-adv-x="536" 
d="M277 422l-95 -422h-137l8 595h119l-31 -410l99 410h121l-14 -410l83 410h119l-157 -595h-139zM264 640l-30 135h107l1 -135h-78z" />
    <glyph glyph-name="wcircumflex.smcp" horiz-adv-x="536" 
d="M277 422l-95 -422h-137l8 595h119l-31 -410l99 410h121l-14 -410l83 410h119l-157 -595h-139zM274 772h102l36 -135h-82l-17 49l-31 -49h-81z" />
    <glyph glyph-name="wdieresis.smcp" horiz-adv-x="536" 
d="M277 422l-95 -422h-137l8 595h119l-31 -410l99 410h121l-14 -410l83 410h119l-157 -595h-139zM214 753h94l-16 -116h-94zM338 753h94l-16 -116h-94z" />
    <glyph glyph-name="yacute.smcp" horiz-adv-x="311" 
d="M47 0h118l29 210l140 385h-122l-55 -230l8 230h-122l33 -385zM306 775l-68 -135h-78l39 135h107z" />
    <glyph glyph-name="ygrave.smcp" horiz-adv-x="311" 
d="M47 0h118l29 210l140 385h-122l-55 -230l8 230h-122l33 -385zM154 640l-30 135h107l1 -135h-78z" />
    <glyph glyph-name="ycircumflex.smcp" horiz-adv-x="311" 
d="M47 0h118l29 210l140 385h-122l-55 -230l8 230h-122l33 -385zM162 772h102l36 -135h-82l-17 49l-31 -49h-81z" />
    <glyph glyph-name="ydieresis.smcp" horiz-adv-x="311" 
d="M47 0h118l29 210l140 385h-122l-55 -230l8 230h-122l33 -385zM101 753h94l-16 -116h-94zM225 753h94l-16 -116h-94z" />
    <glyph glyph-name="zacute.smcp" horiz-adv-x="301" 
d="M226 0h-243l10 78l166 406h-111l15 111h240l-11 -78l-166 -406h115zM296 775l-68 -135h-78l39 135h107z" />
    <glyph glyph-name="zcaron.smcp" horiz-adv-x="301" 
d="M226 0h-243l10 78l166 406h-111l15 111h240l-11 -78l-166 -406h115zM240 637h-102l-35 135h81l17 -49l31 49h82z" />
    <glyph glyph-name="zdotaccent.smcp" horiz-adv-x="301" 
d="M226 0h-243l10 78l166 406h-111l15 111h240l-11 -78l-166 -406h115zM150 761h112l-17 -124h-112z" />
    </font>
</defs>
</svg>
