<?xml version="1.0" standalone="no"?>
<!DOCTYPE svg PUBLIC "-//W3C//DTD SVG 1.1//EN" "http://www.w3.org/Graphics/SVG/1.1/DTD/svg11.dtd" >
<svg xmlns="http://www.w3.org/2000/svg" xmlns:xlink="http://www.w3.org/1999/xlink" version="1.1">
<metadata>
Created by FontForge 20161003 at Thu Jul 19 08:54:35 2018
 By www-data
Copyright (c) 2008 by Silas Dilworth. All rights reserved.
</metadata>
<defs>
<font id="HeroicCondensedBook" horiz-adv-x="324" >
  <font-face 
    font-family="HeroicCondensedBook"
    font-weight="400"
    font-stretch="normal"
    units-per-em="1000"
    panose-1="2 0 8 6 4 0 0 2 0 4"
    ascent="750"
    descent="-250"
    x-height="500"
    cap-height="700"
    bbox="-33 -210 578 891"
    underline-thickness="50"
    underline-position="-150"
    unicode-range="U+0020-2265"
  />
<missing-glyph horiz-adv-x="200" 
 />
    <glyph glyph-name=".notdef" horiz-adv-x="200" 
 />
    <glyph glyph-name=".null" horiz-adv-x="0" 
 />
    <glyph glyph-name="nonmarkingreturn" horiz-adv-x="333" 
 />
    <glyph glyph-name="space" unicode=" " horiz-adv-x="180" 
 />
    <glyph glyph-name="exclam" unicode="!" horiz-adv-x="174" 
d="M59 66h56v-66h-56v66zM57 700h60l-13 -470h-34z" />
    <glyph glyph-name="quotedbl" unicode="&#x22;" horiz-adv-x="259" 
d="M45 710h60l-15 -195h-30zM154 710h60l-15 -195h-30z" />
    <glyph glyph-name="numbersign" unicode="#" horiz-adv-x="348" 
d="M307 550v-31h-58l-10 -189h58v-31h-60l-8 -149h-33l8 149h-75l-8 -149h-34l9 149h-57v31h58q8 126 11 189h-59v31h61l8 150h33l-8 -150h75l8 150h33l-8 -150h56zM141 519l-10 -189h75l10 189h-75z" />
    <glyph glyph-name="dollar" unicode="$" horiz-adv-x="336" 
d="M226 213v40q0 35 -16.5 57.5t-40 34.5t-47.5 26t-40.5 42t-16.5 71v21q0 52 19.5 81t67.5 33v81h33v-81q48 -4 67 -33t19 -81v-48h-45v49q0 38 -13.5 56t-44.5 18q-58 0 -58 -74v-22q0 -36 16.5 -59.5t40 -36t47.5 -25.5t40.5 -39.5t16.5 -68.5v-41q0 -53 -19 -81.5
t-67 -32.5v-100h-33v100q-49 4 -68 32.5t-19 81.5v60h45v-63q0 -39 12 -55t46 -16q31 0 44.5 17.5t13.5 55.5z" />
    <glyph glyph-name="percent" unicode="%" horiz-adv-x="443" 
d="M386 700l-294 -700h-37l295 700h36zM128 435q-44 0 -61.5 24t-17.5 78v70q0 54 17.5 78.5t61.5 24.5t61 -24t17 -79v-70q0 -54 -17 -78t-61 -24zM128 679q-25 0 -34.5 -15.5t-9.5 -55.5v-72q0 -40 9.5 -55t34.5 -15t34.5 15t9.5 55v72q0 40 -9.5 55.5t-34.5 15.5z
M314 -10q-44 0 -61.5 24t-17.5 78v70q0 54 17.5 78.5t61.5 24.5t61 -24t17 -79v-70q0 -54 -17 -78t-61 -24zM314 234q-25 0 -34.5 -15.5t-9.5 -55.5v-72q0 -40 9.5 -55t34.5 -15t34.5 15t9.5 55v72q0 40 -9.5 55.5t-34.5 15.5z" />
    <glyph glyph-name="ampersand" unicode="&#x26;" horiz-adv-x="398" 
d="M65 109v142q0 84 64 103q-64 17 -64 102v132q0 59 25.5 90.5t87.5 31.5q112 0 112 -122v-78h-47v78q0 79 -65 79t-65 -79v-139q0 -36 15.5 -55t54.5 -19h170v-44h-62v-228q0 -59 62 -59v-44q-66 0 -86 45q-19 -55 -92 -55q-61 0 -85.5 30t-24.5 89zM243 112v219h-60
q-42 0 -56 -20.5t-14 -64.5v-134q0 -79 64 -79q66 0 66 79z" />
    <glyph glyph-name="quotesingle" unicode="'" horiz-adv-x="140" 
d="M40 710h60l-15 -195h-30z" />
    <glyph glyph-name="parenleft" unicode="(" horiz-adv-x="241" 
d="M186 -30h-34q-97 201 -97 379q0 179 97 381h34q-89 -212 -89 -381q0 -170 89 -379z" />
    <glyph glyph-name="parenright" unicode=")" horiz-adv-x="241" 
d="M89 -30h-34q89 209 89 379q0 169 -89 381h34q97 -202 97 -381q0 -178 -97 -379z" />
    <glyph glyph-name="asterisk" unicode="*" horiz-adv-x="350" 
d="M183 581l116 58l16 -51l-128 -22l91 -92l-43 -32l-60 115l-60 -115l-44 32l91 92l-127 22l16 51l116 -58l-19 129h54z" />
    <glyph glyph-name="plus" unicode="+" horiz-adv-x="385" 
d="M55 262v36h119v127h37v-127h119v-36h-119v-127h-37v127h-119z" />
    <glyph glyph-name="comma" unicode="," horiz-adv-x="143" 
d="M45 66h58l-28 -154h-30v154z" />
    <glyph glyph-name="hyphen" unicode="-" horiz-adv-x="260" 
d="M45 262v36h170v-36h-170z" />
    <glyph glyph-name="period" unicode="." horiz-adv-x="146" 
d="M45 66h56v-66h-56v66z" />
    <glyph glyph-name="slash" unicode="/" horiz-adv-x="268" 
d="M35 -30l160 760h38l-160 -760h-38z" />
    <glyph glyph-name="zero" unicode="0" horiz-adv-x="336" 
d="M168 33q65 0 65 79v476q0 79 -65 79t-65 -79v-476q0 -79 65 -79zM168 710q62 0 87.5 -31.5t25.5 -90.5v-476q0 -59 -25.5 -90.5t-87.5 -31.5t-87.5 31.5t-25.5 90.5v476q0 59 25.5 90.5t87.5 31.5z" />
    <glyph glyph-name="one" unicode="1" horiz-adv-x="253" 
d="M152 700v-654h61v-46h-170v46h61v554h-64v32q40 0 57 17t17 51h38z" />
    <glyph glyph-name="two" unicode="2" horiz-adv-x="315" 
d="M50 0v100q0 65 18 115.5t43.5 82.5t51 61t43.5 68.5t18 87.5v74q0 77 -63 77q-36 0 -49.5 -20t-13.5 -57v-79h-48v79q0 59 24 90t87 31t87 -31t24 -90v-73q0 -55 -18 -98t-43.5 -73.5t-51 -61.5t-43.5 -77t-18 -104v-56h177v-46h-225z" />
    <glyph glyph-name="three" unicode="3" horiz-adv-x="333" 
d="M273 256v-144q0 -59 -25 -90.5t-87 -31.5t-86.5 31.5t-24.5 90.5v88h47v-88q0 -79 64 -79t64 79v142q0 77 -64 77h-32v44h32q34 0 47 18.5t13 53.5v144q0 75 -62 75q-61 0 -61 -75v-81h-47v81q0 58 24 88.5t84 30.5t85 -30.5t25 -88.5v-140q0 -78 -56 -97q60 -19 60 -98z
" />
    <glyph glyph-name="four" unicode="4" horiz-adv-x="320" 
d="M196 0v161h-166v50l151 489h63v-495h46v-44h-46v-161h-48zM70 205h126v127q0 50 0.5 147t0.5 151z" />
    <glyph glyph-name="five" unicode="5" horiz-adv-x="336" 
d="M173 381q-44 0 -71 -41h-40l17 360h191v-46h-148l-12 -264q32 32 74 32q53 0 75 -28.5t22 -88.5v-193q0 -59 -25.5 -90.5t-87.5 -31.5t-87.5 31.5t-25.5 90.5v88h48v-88q0 -79 65 -79t65 79v193q0 38 -13 57t-47 19z" />
    <glyph glyph-name="six" unicode="6" horiz-adv-x="341" 
d="M173 667q-65 0 -65 -79v-213q31 34 77 34q54 0 77.5 -29t23.5 -88v-180q0 -59 -26 -90.5t-87 -31.5t-87 31.5t-26 90.5v476q0 122 113 122t113 -122v-78h-48v78q0 79 -65 79zM175 367q-50 0 -67 -46v-209q0 -79 65 -79t65 79v180q0 75 -63 75z" />
    <glyph glyph-name="seven" unicode="7" horiz-adv-x="273" 
d="M152 0h-52q0 199 21.5 347.5t80.5 306.5h-177v46h223v-37q-60 -180 -78 -305t-18 -358z" />
    <glyph glyph-name="eight" unicode="8" horiz-adv-x="336" 
d="M168 710q60 0 84 -30.5t24 -88.5v-140q0 -78 -56 -97q37 -12 49 -39.5t12 -77.5v-125q0 -59 -25.5 -90.5t-87.5 -31.5t-87.5 31.5t-25.5 90.5v125q0 50 12 77.5t49 39.5q-56 19 -56 97v140q0 58 24 88.5t84 30.5zM168 33q39 0 52 23.5t13 68.5v119q0 44 -12 66.5
t-53 22.5t-53 -22.5t-12 -66.5v-119q0 -45 13 -68.5t52 -23.5zM168 667q-37 0 -49 -23t-12 -66v-119q0 -42 11.5 -63.5t49.5 -21.5t49.5 21.5t11.5 63.5v119q0 43 -12 66t-49 23z" />
    <glyph glyph-name="nine" unicode="9" horiz-adv-x="336" 
d="M168 33q65 0 65 79v223q-32 -34 -78 -34q-54 0 -77 28.5t-23 88.5v170q0 122 113 122t113 -122v-476q0 -59 -26 -90.5t-87 -31.5t-87 31.5t-26 90.5v88h48v-88q0 -39 15 -59t50 -20zM166 342q49 0 67 46v200q0 79 -65 79t-65 -79v-171q0 -75 63 -75z" />
    <glyph glyph-name="colon" unicode=":" horiz-adv-x="166" 
d="M55 387h56v-66h-56v66zM55 66h56v-66h-56v66z" />
    <glyph glyph-name="semicolon" unicode=";" horiz-adv-x="163" 
d="M55 387h56v-66h-56v66zM55 66h58l-28 -154h-30v154z" />
    <glyph glyph-name="less" unicode="&#x3c;" horiz-adv-x="290" 
d="M205 -30l-160 380l160 380h40l-160 -380l160 -380h-40z" />
    <glyph glyph-name="equal" unicode="=" horiz-adv-x="370" 
d="M315 186h-260v36h260v-36zM315 338h-260v36h260v-36z" />
    <glyph glyph-name="greater" unicode="&#x3e;" horiz-adv-x="290" 
d="M245 350l-160 -380h-40l160 380l-160 380h40z" />
    <glyph glyph-name="question" unicode="?" horiz-adv-x="330" 
d="M227 524v63q0 80 -62 80q-37 0 -49.5 -20.5t-12.5 -59.5v-77h-48v77q0 61 23 92t87 31t87 -31.5t23 -91.5v-62q0 -48 -9 -79t-22.5 -47t-27 -32.5t-23.5 -50t-11 -86.5h-35q0 60 8 99t20 56.5t24 32.5t20 40t8 66zM136 66h56v-66h-56v66z" />
    <glyph glyph-name="at" unicode="@" horiz-adv-x="530" 
d="M352 47h-26l-10 29q-17 -39 -61 -39q-82 0 -82 93v56q0 49 30.5 76.5t111.5 49.5v59q0 60 -50 60q-51 0 -51 -60v-20h-37v21q0 92 88 92q87 0 87 -93v-324zM210 186v-56q0 -61 54 -61q51 0 51 63v151q-61 -18 -83 -39.5t-22 -57.5zM265 -77q175 0 175 199v256
q0 199 -175 199t-175 -199v-256q0 -92 39 -145.5t136 -53.5zM265 -110q-210 0 -210 232v256q0 232 210 232t210 -232v-256q0 -232 -210 -232z" />
    <glyph glyph-name="A" unicode="A" horiz-adv-x="318" 
d="M188 700l100 -700h-50l-22 168h-115l-22 -168h-49l100 700h58zM159 623l-53 -411h105z" />
    <glyph glyph-name="B" unicode="B" horiz-adv-x="347" 
d="M65 0v700h104q67 0 92.5 -25.5t25.5 -82.5v-147q0 -73 -59 -91q64 -18 64 -94v-145q0 -59 -25 -87t-93 -28h-109zM113 331v-285h58q42 0 57.5 17t15.5 53v146q0 69 -72 69h-59zM113 654v-279h53q40 0 56.5 17.5t16.5 51.5v142q0 36 -16 52t-55 16h-55z" />
    <glyph glyph-name="C" unicode="C" horiz-adv-x="325" 
d="M55 112v476q0 59 25.5 90.5t87.5 31.5q113 0 113 -122v-78h-47v78q0 79 -66 79q-65 0 -65 -79v-476q0 -79 65 -79q66 0 66 79v88h47v-88q0 -122 -113 -122q-62 0 -87.5 31.5t-25.5 90.5z" />
    <glyph glyph-name="D" unicode="D" horiz-adv-x="352" 
d="M65 0v700h105q68 0 95 -31t27 -90v-458q0 -59 -26 -90t-94 -31h-107zM113 654v-608h57q42 0 58 19t16 56v458q0 37 -16.5 56t-58.5 19h-56z" />
    <glyph glyph-name="E" unicode="E" horiz-adv-x="299" 
d="M113 331v-285h144v-46h-192v700h192v-46h-144v-279h124v-44h-124z" />
    <glyph glyph-name="F" unicode="F" horiz-adv-x="285" 
d="M113 0h-48v700h185v-46h-137v-279h118v-44h-118v-331z" />
    <glyph glyph-name="G" unicode="G" horiz-adv-x="341" 
d="M238 111v220h-65v44h113v-264q0 -59 -25.5 -90t-87.5 -31t-87.5 31t-25.5 90v478q0 59 25.5 90t87.5 31q61 0 86.5 -31.5t25.5 -89.5v-79h-47v79q0 78 -65 78t-65 -78v-478q0 -78 65 -78t65 78z" />
    <glyph glyph-name="H" unicode="H" horiz-adv-x="358" 
d="M113 331v-331h-48v700h48v-325h132v325h48v-700h-48v331h-132z" />
    <glyph glyph-name="I" unicode="I" horiz-adv-x="178" 
d="M65 0v700h48v-700h-48z" />
    <glyph glyph-name="J" unicode="J" horiz-adv-x="318" 
d="M205 700h48v-589q0 -60 -23.5 -90.5t-85.5 -30.5q-61 0 -85 31t-24 90v89h48v-89q0 -38 13 -58t48 -20t48 19.5t13 58.5v589z" />
    <glyph glyph-name="K" unicode="K" horiz-adv-x="327" 
d="M113 700v-327l133 327h54l-148 -347l155 -353h-54l-140 332v-332h-48v700h48z" />
    <glyph glyph-name="L" unicode="L" horiz-adv-x="255" 
d="M65 0v700h48v-654h117v-46h-165z" />
    <glyph glyph-name="M" unicode="M" horiz-adv-x="473" 
d="M236 87h1l105 613h66v-700h-46v249q0 55 7 373l-109 -622h-47l-109 622q7 -326 7 -373v-249h-46v700h66z" />
    <glyph glyph-name="N" unicode="N" horiz-adv-x="381" 
d="M106 588q6 -363 6 -374v-214h-47v700h51l162 -589q-6 366 -6 374v215h47v-700h-51z" />
    <glyph glyph-name="O" unicode="O" horiz-adv-x="336" 
d="M168 33q65 0 65 79v476q0 79 -65 79t-65 -79v-476q0 -79 65 -79zM168 710q62 0 87.5 -31.5t25.5 -90.5v-476q0 -59 -25.5 -90.5t-87.5 -31.5t-87.5 31.5t-25.5 90.5v476q0 59 25.5 90.5t87.5 31.5z" />
    <glyph glyph-name="P" unicode="P" horiz-adv-x="326" 
d="M65 0v700h101q68 0 94 -31t26 -90v-155q0 -119 -122 -119h-51v-305h-48zM113 654v-305h50q42 0 58.5 19t16.5 56v155q0 37 -16 56t-58 19h-51z" />
    <glyph glyph-name="Q" unicode="Q" horiz-adv-x="336" 
d="M254 -90h-11q-93 0 -96 82q-51 4 -71.5 34.5t-20.5 85.5v476q0 59 25.5 90.5t87.5 31.5t87.5 -31.5t25.5 -90.5v-476q0 -112 -93 -120q1 -27 14 -38.5t41 -11.5h19zM168 33q65 0 65 79v476q0 79 -65 79t-65 -79v-476q0 -79 65 -79z" />
    <glyph glyph-name="R" unicode="R" horiz-adv-x="337" 
d="M65 0v700h102q68 0 93.5 -31t25.5 -90v-155q0 -101 -86 -117l117 -307h-53q-16 44 -53 147t-57 158h-41v-305h-48zM113 654v-305h50q42 0 58.5 19t16.5 56v155q0 37 -16 56t-58 19h-51z" />
    <glyph glyph-name="S" unicode="S" horiz-adv-x="323" 
d="M273 510h-48v77q0 80 -63 80q-37 0 -50.5 -20.5t-13.5 -59.5v-58q0 -35 9.5 -60.5t25 -41t34 -28.5t37.5 -28.5t34.5 -35.5t25 -55t9.5 -82v-85q0 -60 -23.5 -91.5t-87.5 -31.5t-88 31.5t-24 91.5v87h48v-87q0 -80 64 -80q36 0 49.5 20.5t13.5 59.5v85q0 43 -9.5 73.5
t-25 48.5t-34 32t-37.5 28t-34.5 31t-25 47t-9.5 71v58q0 60 24 91.5t88 31.5t87.5 -31.5t23.5 -91.5v-77z" />
    <glyph glyph-name="T" unicode="T" horiz-adv-x="270" 
d="M159 654v-654h-48v654h-86v46h220v-46h-86z" />
    <glyph glyph-name="U" unicode="U" horiz-adv-x="344" 
d="M236 700h48v-586q0 -60 -24.5 -92t-87.5 -32q-64 0 -88 32t-24 92v586h48v-586q0 -40 13.5 -60.5t50.5 -20.5t50.5 20.5t13.5 60.5v586z" />
    <glyph glyph-name="V" unicode="V" horiz-adv-x="318" 
d="M288 700l-102 -700h-54l-102 700h50l79 -602l79 602h50z" />
    <glyph glyph-name="W" unicode="W" horiz-adv-x="531" 
d="M349 0l-84 602l-84 -602h-52l-94 700h49l72 -601l84 601h50l84 -601l72 601h49l-94 -700h-52z" />
    <glyph glyph-name="X" unicode="X" horiz-adv-x="311" 
d="M84 700l72 -278l72 278h51l-98 -337l105 -363h-51l-79 304l-79 -304h-51l105 363l-98 337h51z" />
    <glyph glyph-name="Y" unicode="Y" horiz-adv-x="299" 
d="M173 0h-48v299l-100 401h50l74 -333l74 333h51l-101 -401v-299z" />
    <glyph glyph-name="Z" unicode="Z" horiz-adv-x="274" 
d="M239 0h-204v30l150 624h-149v46h201v-30l-150 -624h152v-46z" />
    <glyph glyph-name="bracketleft" unicode="[" horiz-adv-x="246" 
d="M75 -120v850h116v-36h-75v-778h75v-36h-116z" />
    <glyph glyph-name="backslash" unicode="\" horiz-adv-x="268" 
d="M73 730l160 -760h-38l-160 760h38z" />
    <glyph glyph-name="bracketright" unicode="]" horiz-adv-x="246" 
d="M171 730v-850h-116v36h75v778h-75v36h116z" />
    <glyph glyph-name="asciicircum" unicode="^" horiz-adv-x="246" 
d="M139 710l62 -200h-33l-45 160l-45 -160h-33l61 200h33z" />
    <glyph glyph-name="underscore" unicode="_" horiz-adv-x="380" 
d="M55 0v41h270v-41h-270z" />
    <glyph glyph-name="grave" unicode="`" horiz-adv-x="180" 
d="M45 675h47l43 -125h-33z" />
    <glyph glyph-name="a" unicode="a" horiz-adv-x="309" 
d="M259 0h-27l-13 34q-20 -44 -74 -44q-53 0 -76.5 27.5t-23.5 85.5v56q0 62 35.5 98.5t132.5 66.5v73q0 73 -59 73q-34 0 -46.5 -18.5t-12.5 -55.5v-24h-46v25q0 55 23 84t82 29t82 -29t23 -84v-397zM91 160v-57q0 -37 14 -55t47 -18q61 0 61 73v185q-72 -23 -97 -52
t-25 -76z" />
    <glyph glyph-name="b" unicode="b" horiz-adv-x="319" 
d="M101 390v-283q0 -77 63 -77q59 0 59 76v288q0 76 -59 76q-63 0 -63 -80zM269 394v-290q0 -58 -22.5 -86t-74.5 -28q-55 0 -77 46l-13 -36h-27v710h46v-242q23 42 73 42q51 0 73 -28t22 -88z" />
    <glyph glyph-name="c" unicode="c" horiz-adv-x="308" 
d="M218 172h45v-65q0 -57 -23.5 -87t-82.5 -30q-60 0 -83.5 30t-23.5 87v286q0 56 24.5 86.5t82.5 30.5q59 0 82.5 -30t23.5 -87v-55h-45v55q0 38 -13.5 57.5t-47.5 19.5t-47.5 -19t-13.5 -58v-286q0 -39 13.5 -58t47.5 -19t47.5 19.5t13.5 57.5v65z" />
    <glyph glyph-name="d" unicode="d" 
d="M223 107v283q0 80 -63 80q-59 0 -59 -76v-288q0 -76 59 -76q63 0 63 77zM55 104v290q0 60 22 88t73 28q50 0 73 -42v242h46v-710h-27l-13 36q-22 -46 -77 -46q-52 0 -74.5 28t-22.5 86z" />
    <glyph glyph-name="e" unicode="e" horiz-adv-x="314" 
d="M218 172h46v-65q0 -57 -24 -87t-83 -30q-60 0 -83.5 30t-23.5 87v286q0 57 24 87t83 30t83 -30t24 -87v-141h-168v-145q0 -39 14 -58t47 -19q34 0 47.5 19.5t13.5 57.5v65zM96 393v-103h122v91q0 46 -12.5 67.5t-48.5 21.5q-34 0 -47.5 -19t-13.5 -58z" />
    <glyph glyph-name="f" unicode="f" horiz-adv-x="226" 
d="M170 720q21 0 36 -6v-40q-14 6 -35 6q-31 0 -42.5 -14.5t-11.5 -53.5v-112h77v-40h-77v-460h-46v460h-46v40h46v112q0 57 21.5 82.5t77.5 25.5z" />
    <glyph glyph-name="g" unicode="g" 
d="M155 115q-45 0 -45 -30q0 -29 45 -29q121 0 121 -109v-11q0 -106 -120 -106q-121 0 -121 106v11q0 80 67 101q-27 12 -27 37q0 26 29 38q-56 20 -56 109v160q0 57 23.5 87.5t83.5 30.5q23 0 46 -7q19 57 69 57q18 0 29 -4v-37q-17 5 -31 5q-33 0 -46 -31q40 -27 40 -101
v-160q0 -57 -24 -87t-83 -30zM155 470q-35 0 -48 -19.5t-13 -58.5v-160q0 -39 13 -59t48 -20t48 20t13 59v160q0 39 -13 58.5t-48 19.5zM155 22q-75 0 -75 -72v-11q0 -69 76 -69q75 0 75 69v11q0 72 -76 72z" />
    <glyph glyph-name="h" unicode="h" 
d="M269 0h-46v396q0 74 -59 74q-63 0 -63 -75v-395h-46v710h46v-243q21 43 72 43t73.5 -28t22.5 -86v-396z" />
    <glyph glyph-name="i" unicode="i" horiz-adv-x="159" 
d="M56 500h46v-500h-46v500zM53 650h52v-65h-52v65z" />
    <glyph glyph-name="j" unicode="j" horiz-adv-x="159" 
d="M-33 -164v40q14 -6 35 -6q31 0 42.5 15t11.5 54v561h46v-562q0 -57 -21.5 -82.5t-77.5 -25.5q-21 0 -36 6zM53 650h52v-65h-52v65z" />
    <glyph glyph-name="k" unicode="k" horiz-adv-x="289" 
d="M101 710v-432l111 222h52l-125 -240l135 -260h-52l-121 241v-241h-46v710h46z" />
    <glyph glyph-name="l" unicode="l" horiz-adv-x="156" 
d="M55 710h46v-710h-46v710z" />
    <glyph glyph-name="m" unicode="m" horiz-adv-x="490" 
d="M269 0h-46v396q0 74 -59 74q-63 0 -63 -75v-395h-46v500h27l13 -37q23 47 78 47q61 0 81 -48q25 48 86 48q51 0 74 -27.5t23 -84.5v-398h-46v396q0 74 -59 74q-63 0 -63 -73v-397z" />
    <glyph glyph-name="n" unicode="n" 
d="M55 0v500h27l13 -37q23 47 77 47q52 0 74.5 -28t22.5 -86v-396h-46v396q0 74 -59 74q-63 0 -63 -75v-395h-46z" />
    <glyph glyph-name="o" unicode="o" horiz-adv-x="314" 
d="M157 510q58 0 82.5 -30.5t24.5 -86.5v-286q0 -57 -23.5 -87t-83.5 -30t-83.5 30t-23.5 87v286q0 56 24.5 86.5t82.5 30.5zM157 30q34 0 47.5 19t13.5 58v286q0 39 -13.5 58t-47.5 19t-47.5 -19t-13.5 -58v-286q0 -39 13.5 -58t47.5 -19z" />
    <glyph glyph-name="p" unicode="p" 
d="M101 393v-283q0 -80 63 -80q59 0 59 76v288q0 76 -59 76q-63 0 -63 -77zM269 396v-290q0 -60 -22 -88t-73 -28q-50 0 -73 42v-192h-46v660h27l13 -36q22 46 77 46q52 0 74.5 -28t22.5 -86z" />
    <glyph glyph-name="q" unicode="q" 
d="M223 110v283q0 77 -63 77q-59 0 -59 -76v-288q0 -76 59 -76q63 0 63 80zM55 106v290q0 58 22.5 86t74.5 28q55 0 77 -46l13 36h27v-660h-46v192q-23 -42 -73 -42q-51 0 -73 28t-22 88z" />
    <glyph glyph-name="r" unicode="r" horiz-adv-x="205" 
d="M180 512v-47q-41 2 -60 -19t-19 -66v-380h-46v500h31l12 -36q26 48 82 48z" />
    <glyph glyph-name="s" unicode="s" horiz-adv-x="296" 
d="M206 103v41q0 29 -12 49.5t-30 31.5t-38.5 24.5t-38.5 26.5t-30 39.5t-12 62.5v18q0 56 23 85t80 29q58 0 80.5 -28.5t22.5 -85.5v-58h-45v58q0 39 -13.5 56.5t-44.5 17.5q-32 0 -45 -17.5t-13 -56.5v-18q0 -36 16.5 -60t40 -37t47.5 -27t40.5 -41t16.5 -68v-42
q0 -57 -22.5 -85t-80.5 -28t-80.5 28t-22.5 85v69h45v-69q0 -39 13 -56t45 -17t45 17t13 56z" />
    <glyph glyph-name="t" unicode="t" horiz-adv-x="237" 
d="M207 36v-39q-16 -7 -37 -7q-54 0 -75.5 25.5t-21.5 82.5v362h-48v40h48v132q7 2 22.5 6t23.5 7v-145h81v-40h-81v-362q0 -38 11.5 -53t41.5 -15q19 0 35 6z" />
    <glyph glyph-name="u" unicode="u" 
d="M269 500v-500h-27l-13 37q-23 -47 -77 -47q-52 0 -74.5 28t-22.5 86v396h46v-396q0 -74 59 -74q63 0 63 75v395h46z" />
    <glyph glyph-name="v" unicode="v" horiz-adv-x="286" 
d="M261 500l-95 -500h-46l-95 500h48l70 -423l70 423h48z" />
    <glyph glyph-name="w" unicode="w" horiz-adv-x="463" 
d="M232 424l-69 -424h-52l-82 500h47l62 -430l69 430h50l69 -430l62 430h47l-82 -500h-52z" />
    <glyph glyph-name="x" unicode="x" horiz-adv-x="281" 
d="M256 500l-93 -248l98 -252h-49l-72 204l-72 -204h-48l97 252l-92 248h48l67 -200l67 200h49z" />
    <glyph glyph-name="y" unicode="y" horiz-adv-x="302" 
d="M56 -170q-23 0 -36 5v42q16 -7 36 -7q50 0 63 63l13 66l-102 501h48l76 -416l75 416h48l-114 -569q-11 -54 -34.5 -77.5t-72.5 -23.5z" />
    <glyph glyph-name="z" unicode="z" horiz-adv-x="261" 
d="M226 0h-191v28l137 432h-131v40h180v-29l-136 -431h141v-40z" />
    <glyph glyph-name="braceleft" unicode="{" horiz-adv-x="281" 
d="M137 241q0 23 -11 34.5t-38 11.5h-33v36h33q27 0 38 11.5t11 34.5q0 53 -26 135.5t-26 130.5q0 51 28.5 73t91.5 22h21v-36h-21q-43 0 -60.5 -15t-17.5 -51q0 -44 22.5 -127t22.5 -130q0 -53 -37 -66q37 -14 37 -66q0 -48 -22.5 -130.5t-22.5 -126.5q0 -37 17.5 -51.5
t60.5 -14.5h21v-36h-21q-63 0 -91.5 22t-28.5 73q0 48 26 130.5t26 135.5z" />
    <glyph glyph-name="bar" unicode="|" horiz-adv-x="188" 
d="M75 -120v850h38v-850h-38z" />
    <glyph glyph-name="braceright" unicode="}" horiz-adv-x="281" 
d="M144 241q0 -53 26 -135.5t26 -130.5q0 -51 -28.5 -73t-91.5 -22h-21v36h21q43 0 60.5 14.5t17.5 51.5q0 44 -22.5 126.5t-22.5 130.5q0 52 37 66q-37 13 -37 66q0 47 22.5 130t22.5 127q0 36 -17.5 51t-60.5 15h-21v36h21q63 0 91.5 -22t28.5 -73q0 -48 -26 -130.5
t-26 -135.5q0 -23 11 -34.5t38 -11.5h33v-36h-33q-27 0 -38 -11.5t-11 -34.5z" />
    <glyph glyph-name="asciitilde" unicode="~" horiz-adv-x="319" 
d="M198 627q-28 0 -52 24.5t-41 24.5t-23 -9.5t-6 -29.5h-29q0 38 12.5 55.5t43.5 17.5q28 0 52 -24.5t42 -24.5q17 0 23 9.5t6 29.5h29q0 -38 -13 -55.5t-44 -17.5z" />
    <glyph glyph-name="nbspace" unicode="&#xa0;" horiz-adv-x="90" 
 />
    <glyph glyph-name="exclamdown" unicode="&#xa1;" horiz-adv-x="174" 
d="M117 -200h-60l13 470h34zM59 500h56v-66h-56v66z" />
    <glyph glyph-name="cent" unicode="&#xa2;" horiz-adv-x="343" 
d="M233 282h45v-65q0 -54 -20 -83.5t-70 -33.5v-100h-33v100q-50 4 -70 33.5t-20 83.5v286q0 53 20 82.5t70 33.5v81h33v-81q50 -4 70 -33.5t20 -82.5v-55h-45v55q0 38 -13.5 57.5t-47.5 19.5t-47.5 -19t-13.5 -58v-286q0 -39 13.5 -58t47.5 -19t47.5 19.5t13.5 57.5v65z
" />
    <glyph glyph-name="sterling" unicode="&#xa3;" horiz-adv-x="390" 
d="M47 338v31h65v218q0 60 24 91.5t88 31.5q62 0 86 -32t24 -91v-77h-47v77q0 39 -13 59.5t-50 20.5t-50.5 -20.5t-13.5 -59.5v-218h80v-31h-80v-215q0 -38 14.5 -57.5t51.5 -19.5h109v-46h-109q-71 0 -91 48q-22 -48 -90 -48v46q38 0 52.5 19.5t14.5 57.5v215h-65z" />
    <glyph glyph-name="currency" unicode="&#xa4;" horiz-adv-x="317" 
d="M169 550q-34 0 -47.5 -19.5t-13.5 -57.5v-226q0 -38 13.5 -57.5t47.5 -19.5t47.5 19t13.5 58v226q0 39 -13.5 58t-47.5 19zM92 700l33 -118q19 8 44 8q26 0 44 -8l34 118h46l-42 -139q25 -28 25 -88v-226q0 -61 -24 -88l48 -159h-46l-39 138q-19 -8 -46 -8q-26 0 -45 8
l-39 -138h-45l46 159q-24 27 -24 88v226q0 59 25 88l-40 139h45z" />
    <glyph glyph-name="yen" unicode="&#xa5;" horiz-adv-x="339" 
d="M193 0h-48v128h-85v30h85v79h-85v30h85v29q-42 168 -100 404h50l74 -343l74 343h51q-76 -303 -101 -404v-29h87v-30h-87v-79h87v-30h-87v-128z" />
    <glyph glyph-name="brokenbar" unicode="&#xa6;" horiz-adv-x="188" 
d="M75 -120v378h38v-378h-38zM75 352v378h38v-378h-38z" />
    <glyph glyph-name="section" unicode="&#xa7;" horiz-adv-x="331" 
d="M276 251q0 -114 -63 -136q62 -40 62 -135v-27q0 -123 -110 -123t-110 123v67h48v-67q0 -42 14 -61t48 -19q36 0 49 18t13 62v29q0 35 -9.5 58.5t-24.5 37t-33.5 24t-37 23.5t-33.5 31.5t-24.5 51.5t-9.5 80q0 115 62 136q-30 19 -46 49.5t-16 86.5v27q0 123 110 123
q61 0 85.5 -32t24.5 -91v-67h-48v67q0 40 -13 60t-49 20t-49 -20t-13 -60v-29q0 -47 18 -75t43 -42.5t50.5 -31t43.5 -55.5t18 -103zM103 279q0 -60 18 -89.5t51 -49.5q25 4 38 24.5t15 39.5t2 48q0 65 -17 95t-52 51q-20 -4 -32.5 -15t-17 -33.5t-5 -33t-0.5 -37.5z" />
    <glyph glyph-name="dieresis" unicode="&#xa8;" horiz-adv-x="248" 
d="M45 650h52v-65h-52v65zM151 650h52v-65h-52v65z" />
    <glyph glyph-name="copyright" unicode="&#xa9;" horiz-adv-x="534" 
d="M267 169q50 0 50 60v62h37v-63q0 -44 -19.5 -68t-67.5 -24q-87 0 -87 93v241q0 93 87 93q48 0 67.5 -24t19.5 -68v-52h-37v52q0 60 -50 60q-29 0 -39.5 -15.5t-10.5 -45.5v-241q0 -29 10.5 -44.5t39.5 -15.5zM267 -10q-212 0 -212 232v256q0 232 212 232t212 -232v-256
q0 -232 -212 -232zM267 22q177 0 177 200v256q0 199 -177 199t-177 -199v-256q0 -200 177 -200z" />
    <glyph glyph-name="ordfeminine" unicode="&#xaa;" horiz-adv-x="287" 
d="M232 199h-174v31h174v-31zM232 294h-26l-10 28q-18 -38 -62 -38q-43 0 -61 22.5t-18 70.5v57q0 49 30 76.5t110 49.5v58q0 30 -10.5 44.5t-39.5 14.5q-28 0 -39 -14.5t-11 -43.5v-21h-37v21q0 44 19 67.5t68 23.5q50 0 68.5 -23.5t18.5 -68.5v-324zM92 434v-57
q0 -61 52 -61q25 0 38 17.5t13 44.5v152q-61 -17 -82 -38.5t-21 -57.5z" />
    <glyph glyph-name="guillemotleft" unicode="&#xab;" horiz-adv-x="386" 
d="M45 250l106 185h49l-105 -185l105 -185h-49zM186 250l106 185h49l-105 -185l105 -185h-49z" />
    <glyph glyph-name="logicalnot" unicode="&#xac;" horiz-adv-x="370" 
d="M278 196v132h-223v36h260v-168h-37z" />
    <glyph glyph-name="uni00AD" unicode="&#xad;" horiz-adv-x="260" 
d="M45 262v36h170v-36h-170z" />
    <glyph glyph-name="registered" unicode="&#xae;" horiz-adv-x="534" 
d="M267 -10q-212 0 -212 232v256q0 232 212 232t212 -232v-256q0 -232 -212 -232zM267 22q177 0 177 200v256q0 199 -177 199t-177 -199v-256q0 -200 177 -200zM182 557h80q53 0 73.5 -24t20.5 -69v-59q0 -74 -65 -85l79 -175h-39l-75 172h-37v-172h-37v412zM219 522v-171
h42q34 0 46 13t12 41v59q0 29 -12.5 43.5t-45.5 14.5h-42z" />
    <glyph glyph-name="macron" unicode="&#xaf;" horiz-adv-x="260" 
d="M45 596v36h170v-36h-170z" />
    <glyph glyph-name="degree" unicode="&#xb0;" horiz-adv-x="256" 
d="M128 494q-47 0 -65 27.5t-18 80.5t18 80.5t65 27.5t65 -27.5t18 -80.5t-18 -80.5t-65 -27.5zM128 525q29 0 39.5 19.5t10.5 57.5t-10.5 57.5t-39.5 19.5t-39.5 -19t-10.5 -58t10.5 -58t39.5 -19z" />
    <glyph glyph-name="plusminus" unicode="&#xb1;" horiz-adv-x="385" 
d="M55 126h275v-36h-275v36zM55 320v36h119v127h37v-127h119v-36h-119v-127h-37v127h-119z" />
    <glyph glyph-name="acute" unicode="&#xb4;" horiz-adv-x="180" 
d="M88 675h47l-57 -125h-33z" />
    <glyph glyph-name="mu" unicode="&#xb5;" 
d="M223 500h46v-396q0 -58 -22.5 -86t-73.5 -28t-72 43v-193h-46v660h46v-395q0 -75 63 -75q59 0 59 74v396z" />
    <glyph glyph-name="mu" unicode="&#x3bc;" 
d="M223 500h46v-396q0 -58 -22.5 -86t-73.5 -28t-72 43v-193h-46v660h46v-395q0 -75 63 -75q59 0 59 74v396z" />
    <glyph glyph-name="paragraph" unicode="&#xb6;" horiz-adv-x="361" 
d="M296 700v-860h-48v350h-71q-68 0 -95 30.5t-27 88.5v270q0 59 26 90t94 31h121z" />
    <glyph glyph-name="periodcentered" unicode="&#xb7;" horiz-adv-x="166" 
d="M55 313h56v-66h-56v66z" />
    <glyph glyph-name="cedilla" unicode="&#xb8;" horiz-adv-x="222" 
d="M74 -68l18 68h28l-11 -42q67 -7 67 -63q0 -65 -86 -65h-44l8 31h34q49 0 49 35q0 36 -50 36h-13z" />
    <glyph glyph-name="ordmasculine" unicode="&#xba;" horiz-adv-x="284" 
d="M142 710q50 0 68.5 -24t18.5 -70v-239q0 -46 -18.5 -70t-68.5 -24t-68.5 24t-18.5 70v239q0 46 18.5 70t68.5 24zM142 315q50 0 50 62v239q0 61 -50 61q-29 0 -39.5 -15.5t-10.5 -45.5v-239q0 -30 10.5 -46t39.5 -16zM229 199h-174v31h174v-31z" />
    <glyph glyph-name="guillemotright" unicode="&#xbb;" horiz-adv-x="386" 
d="M235 435l106 -185l-106 -185h-49l105 185l-105 185h49zM94 435l106 -185l-106 -185h-49l105 185l-105 185h49z" />
    <glyph glyph-name="onequarter" unicode="&#xbc;" horiz-adv-x="244" 
d="M50 361h144v-23h-144v23zM134 700v-271h26v-23h-77v23h27v226h-28v16q32 0 32 29h20zM135 0v65h-71v23q9 30 31.5 99.5t33.5 106.5h30v-207h19v-22h-19v-65h-24zM135 252l-50 -165h50v165z" />
    <glyph glyph-name="onehalf" unicode="&#xbd;" horiz-adv-x="244" 
d="M50 361h144v-23h-144v23zM74 0v37q0 33 11.5 59t25 40t25 35t11.5 44v30q0 31 -25 31q-24 0 -24 -31v-36h-25v36q0 53 49 53t49 -53v-29q0 -43 -36.5 -89t-36.5 -89v-15h75v-23h-99zM134 700v-271h26v-23h-77v23h27v226h-28v16q32 0 32 29h20z" />
    <glyph glyph-name="threequarters" unicode="&#xbe;" horiz-adv-x="244" 
d="M50 361h144v-23h-144v23zM135 0v65h-71v23q9 30 31.5 99.5t33.5 106.5h30v-207h19v-22h-19v-65h-24zM135 252l-50 -165h50v165zM172 513v-58q0 -53 -49 -53t-49 53v32h23v-26q0 -37 26 -37q25 0 25 31v53q0 35 -24 35h-17v23h17q22 0 22 28v51q0 37 -24 37q-25 0 -25 -30
v-35h-23v35q0 52 48 52t48 -52v-57q0 -30 -20 -40q22 -12 22 -42z" />
    <glyph glyph-name="questiondown" unicode="&#xbf;" horiz-adv-x="330" 
d="M103 -24v-63q0 -80 62 -80q37 0 49.5 20.5t12.5 59.5v77h48v-77q0 -61 -23 -92t-87 -31t-87 31.5t-23 91.5v62q0 48 9 79t22.5 47t27 32.5t23.5 50t11 86.5h35q0 -60 -8 -99t-20 -56.5t-24 -32.5t-20 -40t-8 -66zM194 434h-56v66h56v-66z" />
    <glyph glyph-name="Agrave" unicode="&#xc0;" horiz-adv-x="318" 
d="M188 700l100 -700h-50l-22 168h-115l-22 -168h-49l100 700h58zM159 623l-53 -411h105zM84 875h47l43 -125h-33z" />
    <glyph glyph-name="Aacute" unicode="&#xc1;" horiz-adv-x="318" 
d="M188 700l100 -700h-50l-22 168h-115l-22 -168h-49l100 700h58zM159 623l-53 -411h105zM187 875h47l-57 -125h-33z" />
    <glyph glyph-name="Acircumflex" unicode="&#xc2;" horiz-adv-x="318" 
d="M188 700l100 -700h-50l-22 168h-115l-22 -168h-49l100 700h58zM159 623l-53 -411h105zM137 875h42l56 -125h-35l-42 83l-42 -83h-34z" />
    <glyph glyph-name="Atilde" unicode="&#xc3;" horiz-adv-x="318" 
d="M188 700l100 -700h-50l-22 168h-115l-22 -168h-49l100 700h58zM159 623l-53 -411h105zM207 750q-28 0 -52.5 23.5t-41.5 23.5q-30 0 -30 -37h-31q0 38 13 56.5t46 18.5q27 0 51.5 -23.5t42.5 -23.5q17 0 23.5 9t6.5 28h31q0 -39 -13.5 -57t-45.5 -18z" />
    <glyph glyph-name="Adieresis" unicode="&#xc4;" horiz-adv-x="318" 
d="M188 700l100 -700h-50l-22 168h-115l-22 -168h-49l100 700h58zM159 623l-53 -411h105zM80 816h52v-66h-52v66zM186 816h52v-66h-52v66z" />
    <glyph glyph-name="Aring" unicode="&#xc5;" horiz-adv-x="318" 
d="M188 700l100 -700h-50l-22 168h-115l-22 -168h-49l100 700h58zM159 623l-53 -411h105zM225 815q0 -75 -67 -75q-66 0 -66 75q0 76 66 76q67 0 67 -76zM193 815q0 48 -35 48q-34 0 -34 -48q0 -47 34 -47q35 0 35 47z" />
    <glyph glyph-name="AE" unicode="&#xc6;" horiz-adv-x="462" 
d="M30 0l171 700h218v-46h-144v-279h124v-44h-124v-285h144v-46h-192v168h-108l-40 -168h-49zM128 212h99v421z" />
    <glyph glyph-name="Ccedilla" unicode="&#xc7;" horiz-adv-x="325" 
d="M137 -68l15 59q-97 6 -97 121v476q0 59 25.5 90.5t87.5 31.5q113 0 113 -122v-78h-47v78q0 79 -66 79q-65 0 -65 -79v-476q0 -79 65 -79q66 0 66 79v88h47v-88q0 -116 -101 -121l-8 -33q67 -7 67 -63q0 -65 -86 -65h-44l8 31h34q49 0 49 35q0 36 -50 36h-13z" />
    <glyph glyph-name="Egrave" unicode="&#xc8;" horiz-adv-x="299" 
d="M113 331v-285h144v-46h-192v700h192v-46h-144v-279h124v-44h-124zM104 875h47l43 -125h-33z" />
    <glyph glyph-name="Eacute" unicode="&#xc9;" horiz-adv-x="299" 
d="M113 331v-285h144v-46h-192v700h192v-46h-144v-279h124v-44h-124zM182 875h47l-57 -125h-33z" />
    <glyph glyph-name="Ecircumflex" unicode="&#xca;" horiz-adv-x="299" 
d="M113 331v-285h144v-46h-192v700h192v-46h-144v-279h124v-44h-124zM139 875h42l56 -125h-35l-42 83l-42 -83h-34z" />
    <glyph glyph-name="Edieresis" unicode="&#xcb;" horiz-adv-x="299" 
d="M113 331v-285h144v-46h-192v700h192v-46h-144v-279h124v-44h-124zM82 816h52v-66h-52v66zM188 816h52v-66h-52v66z" />
    <glyph glyph-name="Igrave" unicode="&#xcc;" horiz-adv-x="178" 
d="M65 0v700h48v-700h-48zM15 875h47l43 -125h-33z" />
    <glyph glyph-name="Iacute" unicode="&#xcd;" horiz-adv-x="178" 
d="M65 0v700h48v-700h-48zM117 875h47l-57 -125h-33z" />
    <glyph glyph-name="Icircumflex" unicode="&#xce;" horiz-adv-x="178" 
d="M65 0v700h48v-700h-48zM68 875h42l56 -125h-35l-42 83l-42 -83h-34z" />
    <glyph glyph-name="Idieresis" unicode="&#xcf;" horiz-adv-x="178" 
d="M65 0v700h48v-700h-48zM10 816h52v-66h-52v66zM116 816h52v-66h-52v66z" />
    <glyph glyph-name="Eth" unicode="&#xd0;" horiz-adv-x="352" 
d="M23 336v35h42v329h105q68 0 95 -31t27 -90v-458q0 -59 -26 -90t-94 -31h-107v336h-42zM113 654v-283h65v-35h-65v-291h57q22 0 36.5 7t22 15t11 26t4 28.5t0.5 34.5v405q0 47 -15 70t-60 23h-56z" />
    <glyph glyph-name="Ntilde" unicode="&#xd1;" horiz-adv-x="381" 
d="M106 588q6 -363 6 -374v-214h-47v700h51l162 -589q-6 366 -6 374v215h47v-700h-51zM238 750q-28 0 -52.5 23.5t-41.5 23.5q-30 0 -30 -37h-31q0 38 13 56.5t46 18.5q27 0 51.5 -23.5t42.5 -23.5q17 0 23.5 9t6.5 28h31q0 -39 -13.5 -57t-45.5 -18z" />
    <glyph glyph-name="Ograve" unicode="&#xd2;" horiz-adv-x="336" 
d="M168 33q65 0 65 79v476q0 79 -65 79t-65 -79v-476q0 -79 65 -79zM168 710q62 0 87.5 -31.5t25.5 -90.5v-476q0 -59 -25.5 -90.5t-87.5 -31.5t-87.5 31.5t-25.5 90.5v476q0 59 25.5 90.5t87.5 31.5zM95 875h47l43 -125h-33z" />
    <glyph glyph-name="Oacute" unicode="&#xd3;" horiz-adv-x="336" 
d="M168 33q65 0 65 79v476q0 79 -65 79t-65 -79v-476q0 -79 65 -79zM168 710q62 0 87.5 -31.5t25.5 -90.5v-476q0 -59 -25.5 -90.5t-87.5 -31.5t-87.5 31.5t-25.5 90.5v476q0 59 25.5 90.5t87.5 31.5zM196 875h47l-57 -125h-33z" />
    <glyph glyph-name="Ocircumflex" unicode="&#xd4;" horiz-adv-x="336" 
d="M168 33q65 0 65 79v476q0 79 -65 79t-65 -79v-476q0 -79 65 -79zM168 710q62 0 87.5 -31.5t25.5 -90.5v-476q0 -59 -25.5 -90.5t-87.5 -31.5t-87.5 31.5t-25.5 90.5v476q0 59 25.5 90.5t87.5 31.5zM146 875h42l56 -125h-35l-42 83l-42 -83h-34z" />
    <glyph glyph-name="Otilde" unicode="&#xd5;" horiz-adv-x="336" 
d="M168 33q65 0 65 79v476q0 79 -65 79t-65 -79v-476q0 -79 65 -79zM168 710q62 0 87.5 -31.5t25.5 -90.5v-476q0 -59 -25.5 -90.5t-87.5 -31.5t-87.5 31.5t-25.5 90.5v476q0 59 25.5 90.5t87.5 31.5zM216 750q-28 0 -52.5 23.5t-41.5 23.5q-30 0 -30 -37h-31q0 38 13 56.5
t46 18.5q27 0 51.5 -23.5t42.5 -23.5q17 0 23.5 9t6.5 28h31q0 -39 -13.5 -57t-45.5 -18z" />
    <glyph glyph-name="Odieresis" unicode="&#xd6;" horiz-adv-x="336" 
d="M168 33q65 0 65 79v476q0 79 -65 79t-65 -79v-476q0 -79 65 -79zM168 710q62 0 87.5 -31.5t25.5 -90.5v-476q0 -59 -25.5 -90.5t-87.5 -31.5t-87.5 31.5t-25.5 90.5v476q0 59 25.5 90.5t87.5 31.5zM89 816h52v-66h-52v66zM195 816h52v-66h-52v66z" />
    <glyph glyph-name="multiply" unicode="&#xd7;" horiz-adv-x="362" 
d="M80 154l-25 25l100 101l-100 100l25 26l101 -101l100 101l26 -26l-101 -100l101 -101l-26 -25l-100 100z" />
    <glyph glyph-name="Oslash" unicode="&#xd8;" horiz-adv-x="336" 
d="M106 -30l4 30q-55 24 -55 112v476q0 59 25.5 90.5t87.5 31.5q15 0 37 -4l4 24h21l-4 -31q55 -24 55 -111v-476q0 -59 -25.5 -90.5t-87.5 -31.5q-16 0 -38 4l-3 -24h-21zM168 33q65 0 65 79v476q0 39 -15 58l-82 -607q12 -6 32 -6zM103 588v-476q0 -38 14 -58l82 607
q-12 6 -31 6q-65 0 -65 -79z" />
    <glyph glyph-name="Ugrave" unicode="&#xd9;" horiz-adv-x="344" 
d="M236 700h48v-586q0 -60 -24.5 -92t-87.5 -32q-64 0 -88 32t-24 92v586h48v-586q0 -40 13.5 -60.5t50.5 -20.5t50.5 20.5t13.5 60.5v586zM105 875h47l43 -125h-33z" />
    <glyph glyph-name="Uacute" unicode="&#xda;" horiz-adv-x="344" 
d="M236 700h48v-586q0 -60 -24.5 -92t-87.5 -32q-64 0 -88 32t-24 92v586h48v-586q0 -40 13.5 -60.5t50.5 -20.5t50.5 20.5t13.5 60.5v586zM198 875h47l-57 -125h-33z" />
    <glyph glyph-name="Ucircumflex" unicode="&#xdb;" horiz-adv-x="344" 
d="M236 700h48v-586q0 -60 -24.5 -92t-87.5 -32q-64 0 -88 32t-24 92v586h48v-586q0 -40 13.5 -60.5t50.5 -20.5t50.5 20.5t13.5 60.5v586zM150 875h42l56 -125h-35l-42 83l-42 -83h-34z" />
    <glyph glyph-name="Udieresis" unicode="&#xdc;" horiz-adv-x="344" 
d="M236 700h48v-586q0 -60 -24.5 -92t-87.5 -32q-64 0 -88 32t-24 92v586h48v-586q0 -40 13.5 -60.5t50.5 -20.5t50.5 20.5t13.5 60.5v586zM93 816h52v-66h-52v66zM199 816h52v-66h-52v66z" />
    <glyph glyph-name="Yacute" unicode="&#xdd;" horiz-adv-x="299" 
d="M173 0h-48v299l-100 401h50l74 -333l74 333h51l-101 -401v-299zM179 875h47l-57 -125h-33z" />
    <glyph glyph-name="Thorn" unicode="&#xde;" horiz-adv-x="326" 
d="M65 0v700h48v-143h53q68 0 94 -31t26 -90v-155q0 -58 -27 -88.5t-95 -30.5h-51v-162h-48zM113 511v-305h50q45 0 60 18.5t15 62.5v143q0 45 -14.5 63t-59.5 18h-51z" />
    <glyph glyph-name="germandbls" unicode="&#xdf;" horiz-adv-x="314" 
d="M156 378h-4v44q34 0 47.5 16.5t13.5 54.5v118q0 37 -14 53t-45 16q-32 0 -45 -16.5t-13 -52.5v-611h-46v610q0 56 24 83t80 27t80.5 -27.5t24.5 -82.5v-113q0 -75 -47 -96q54 -21 54 -96v-204q0 -58 -23 -84.5t-81 -26.5q-11 0 -27 4v39q9 -3 26 -3q35 0 47 15t12 53v189
q0 47 -11.5 69t-52.5 22z" />
    <glyph glyph-name="agrave" unicode="&#xe0;" horiz-adv-x="309" 
d="M259 0h-27l-13 34q-20 -44 -74 -44q-53 0 -76.5 27.5t-23.5 85.5v56q0 62 35.5 98.5t132.5 66.5v73q0 73 -59 73q-34 0 -46.5 -18.5t-12.5 -55.5v-24h-46v25q0 55 23 84t82 29t82 -29t23 -84v-397zM91 160v-57q0 -37 14 -55t47 -18q61 0 61 73v185q-72 -23 -97 -52
t-25 -76zM94 675h47l43 -125h-33z" />
    <glyph glyph-name="aacute" unicode="&#xe1;" horiz-adv-x="309" 
d="M259 0h-27l-13 34q-20 -44 -74 -44q-53 0 -76.5 27.5t-23.5 85.5v56q0 62 35.5 98.5t132.5 66.5v73q0 73 -59 73q-34 0 -46.5 -18.5t-12.5 -55.5v-24h-46v25q0 55 23 84t82 29t82 -29t23 -84v-397zM91 160v-57q0 -37 14 -55t47 -18q61 0 61 73v185q-72 -23 -97 -52
t-25 -76zM180 675h47l-57 -125h-33z" />
    <glyph glyph-name="acircumflex" unicode="&#xe2;" horiz-adv-x="309" 
d="M259 0h-27l-13 34q-20 -44 -74 -44q-53 0 -76.5 27.5t-23.5 85.5v56q0 62 35.5 98.5t132.5 66.5v73q0 73 -59 73q-34 0 -46.5 -18.5t-12.5 -55.5v-24h-46v25q0 55 23 84t82 29t82 -29t23 -84v-397zM91 160v-57q0 -37 14 -55t47 -18q61 0 61 73v185q-72 -23 -97 -52
t-25 -76zM132 675h42l56 -125h-35l-42 83l-42 -83h-34z" />
    <glyph glyph-name="atilde" unicode="&#xe3;" horiz-adv-x="309" 
d="M259 0h-27l-13 34q-20 -44 -74 -44q-53 0 -76.5 27.5t-23.5 85.5v56q0 62 35.5 98.5t132.5 66.5v73q0 73 -59 73q-34 0 -46.5 -18.5t-12.5 -55.5v-24h-46v25q0 55 23 84t82 29t82 -29t23 -84v-397zM91 160v-57q0 -37 14 -55t47 -18q61 0 61 73v185q-72 -23 -97 -52
t-25 -76zM202 570q-28 0 -52.5 23.5t-41.5 23.5q-30 0 -30 -37h-31q0 38 13 56.5t46 18.5q27 0 51.5 -23.5t42.5 -23.5q17 0 23.5 9t6.5 28h31q0 -39 -13.5 -57t-45.5 -18z" />
    <glyph glyph-name="adieresis" unicode="&#xe4;" horiz-adv-x="309" 
d="M259 0h-27l-13 34q-20 -44 -74 -44q-53 0 -76.5 27.5t-23.5 85.5v56q0 62 35.5 98.5t132.5 66.5v73q0 73 -59 73q-34 0 -46.5 -18.5t-12.5 -55.5v-24h-46v25q0 55 23 84t82 29t82 -29t23 -84v-397zM91 160v-57q0 -37 14 -55t47 -18q61 0 61 73v185q-72 -23 -97 -52
t-25 -76zM75 650h52v-65h-52v65zM181 650h52v-65h-52v65z" />
    <glyph glyph-name="aring" unicode="&#xe5;" horiz-adv-x="309" 
d="M259 0h-27l-13 34q-20 -44 -74 -44q-53 0 -76.5 27.5t-23.5 85.5v56q0 62 35.5 98.5t132.5 66.5v73q0 73 -59 73q-34 0 -46.5 -18.5t-12.5 -55.5v-24h-46v25q0 55 23 84t82 29t82 -29t23 -84v-397zM91 160v-57q0 -37 14 -55t47 -18q61 0 61 73v185q-72 -23 -97 -52
t-25 -76zM220 624q0 -75 -67 -75q-66 0 -66 75q0 76 66 76q67 0 67 -76zM188 624q0 48 -35 48q-34 0 -34 -48q0 -47 34 -47q35 0 35 47z" />
    <glyph glyph-name="ae" unicode="&#xe6;" horiz-adv-x="478" 
d="M384 172h44v-65q0 -57 -23.5 -87t-82.5 -30q-66 0 -85 44q-20 -44 -85 -44q-60 0 -83.5 30t-23.5 87v56q0 61 35 96t133 63v75q0 37 -13 55t-47 18q-33 0 -45.5 -18.5t-12.5 -55.5v-24h-46v25q0 55 22.5 84t79.5 29q65 0 86 -43q22 43 88 43q59 0 81 -29.5t22 -87.5v-139
h-167v-147q0 -39 13.5 -58t47.5 -19q62 0 62 77v65zM213 107v180q-73 -21 -97.5 -48.5t-24.5 -74.5v-57q0 -39 13.5 -58t47.5 -19t47.5 19.5t13.5 57.5zM261 393v-103h122v103q0 38 -13.5 57.5t-47.5 19.5t-47.5 -19t-13.5 -58z" />
    <glyph glyph-name="ccedilla" unicode="&#xe7;" horiz-adv-x="308" 
d="M127 -68l15 59q-52 4 -72 33t-20 83v286q0 56 24.5 86.5t82.5 30.5q59 0 82.5 -30t23.5 -87v-55h-45v55q0 38 -13.5 57.5t-47.5 19.5t-47.5 -19t-13.5 -58v-286q0 -39 13.5 -58t47.5 -19t47.5 19.5t13.5 57.5v65h45v-65q0 -54 -20.5 -83t-72.5 -33l-8 -33q67 -7 67 -63
q0 -65 -86 -65h-44l8 31h34q49 0 49 35q0 36 -50 36h-13z" />
    <glyph glyph-name="egrave" unicode="&#xe8;" horiz-adv-x="308" 
d="M216 172h46v-65q0 -57 -24 -87t-83 -30q-60 0 -83.5 30t-23.5 87v286q0 57 24 87t83 30t83 -30t24 -87v-141h-168v-145q0 -39 14 -58t47 -19q34 0 47.5 19.5t13.5 57.5v65zM94 393v-103h122v91q0 46 -12.5 67.5t-48.5 21.5q-34 0 -47.5 -19t-13.5 -58zM108 675h47
l43 -125h-33z" />
    <glyph glyph-name="eacute" unicode="&#xe9;" horiz-adv-x="308" 
d="M216 172h46v-65q0 -57 -24 -87t-83 -30q-60 0 -83.5 30t-23.5 87v286q0 57 24 87t83 30t83 -30t24 -87v-141h-168v-145q0 -39 14 -58t47 -19q34 0 47.5 19.5t13.5 57.5v65zM94 393v-103h122v91q0 46 -12.5 67.5t-48.5 21.5q-34 0 -47.5 -19t-13.5 -58zM181 675h47
l-57 -125h-33z" />
    <glyph glyph-name="ecircumflex" unicode="&#xea;" horiz-adv-x="308" 
d="M216 172h46v-65q0 -57 -24 -87t-83 -30q-60 0 -83.5 30t-23.5 87v286q0 57 24 87t83 30t83 -30t24 -87v-141h-168v-145q0 -39 14 -58t47 -19q34 0 47.5 19.5t13.5 57.5v65zM94 393v-103h122v91q0 46 -12.5 67.5t-48.5 21.5q-34 0 -47.5 -19t-13.5 -58zM132 675h42
l56 -125h-35l-42 83l-42 -83h-34z" />
    <glyph glyph-name="edieresis" unicode="&#xeb;" horiz-adv-x="308" 
d="M216 172h46v-65q0 -57 -24 -87t-83 -30q-60 0 -83.5 30t-23.5 87v286q0 57 24 87t83 30t83 -30t24 -87v-141h-168v-145q0 -39 14 -58t47 -19q34 0 47.5 19.5t13.5 57.5v65zM94 393v-103h122v91q0 46 -12.5 67.5t-48.5 21.5q-34 0 -47.5 -19t-13.5 -58zM75 650h52v-65h-52
v65zM181 650h52v-65h-52v65z" />
    <glyph glyph-name="igrave" unicode="&#xec;" horiz-adv-x="159" 
d="M20 675h47l43 -125h-33zM56 500h46v-500h-46v500z" />
    <glyph glyph-name="iacute" unicode="&#xed;" horiz-adv-x="159" 
d="M104 675h47l-57 -125h-33zM56 500h46v-500h-46v500z" />
    <glyph glyph-name="icircumflex" unicode="&#xee;" horiz-adv-x="159" 
d="M56 500h46v-500h-46v500zM58 675h42l56 -125h-35l-42 83l-42 -83h-34z" />
    <glyph glyph-name="idieresis" unicode="&#xef;" horiz-adv-x="159" 
d="M1 650h52v-65h-52v65zM107 650h52v-65h-52v65zM56 500h46v-500h-46v500z" />
    <glyph glyph-name="eth" unicode="&#xf0;" horiz-adv-x="336" 
d="M153 533l-14 30l50 23q-27 53 -78 114h54q47 -59 65 -96l51 24l14 -29l-51 -24q37 -85 37 -218v-245q0 -59 -26 -90.5t-87 -31.5t-87 31.5t-26 90.5v180q0 59 23 88t77 29q46 0 78 -34q-1 104 -31 181zM166 367q-63 0 -63 -75v-180q0 -79 65 -79t65 79v207q-17 48 -67 48
z" />
    <glyph glyph-name="ntilde" unicode="&#xf1;" 
d="M55 0v500h27l13 -37q23 47 77 47q52 0 74.5 -28t22.5 -86v-396h-46v396q0 74 -59 74q-63 0 -63 -75v-395h-46zM209 570q-28 0 -52.5 23.5t-41.5 23.5q-30 0 -30 -37h-31q0 38 13 56.5t46 18.5q27 0 51.5 -23.5t42.5 -23.5q17 0 23.5 9t6.5 28h31q0 -39 -13.5 -57
t-45.5 -18z" />
    <glyph glyph-name="ograve" unicode="&#xf2;" horiz-adv-x="314" 
d="M157 510q58 0 82.5 -30.5t24.5 -86.5v-286q0 -57 -23.5 -87t-83.5 -30t-83.5 30t-23.5 87v286q0 56 24.5 86.5t82.5 30.5zM157 30q34 0 47.5 19t13.5 58v286q0 39 -13.5 58t-47.5 19t-47.5 -19t-13.5 -58v-286q0 -39 13.5 -58t47.5 -19zM100 675h47l43 -125h-33z" />
    <glyph glyph-name="oacute" unicode="&#xf3;" horiz-adv-x="314" 
d="M157 510q58 0 82.5 -30.5t24.5 -86.5v-286q0 -57 -23.5 -87t-83.5 -30t-83.5 30t-23.5 87v286q0 56 24.5 86.5t82.5 30.5zM157 30q34 0 47.5 19t13.5 58v286q0 39 -13.5 58t-47.5 19t-47.5 -19t-13.5 -58v-286q0 -39 13.5 -58t47.5 -19zM184 675h47l-57 -125h-33z" />
    <glyph glyph-name="ocircumflex" unicode="&#xf4;" horiz-adv-x="314" 
d="M157 510q58 0 82.5 -30.5t24.5 -86.5v-286q0 -57 -23.5 -87t-83.5 -30t-83.5 30t-23.5 87v286q0 56 24.5 86.5t82.5 30.5zM157 30q34 0 47.5 19t13.5 58v286q0 39 -13.5 58t-47.5 19t-47.5 -19t-13.5 -58v-286q0 -39 13.5 -58t47.5 -19zM135 675h42l56 -125h-35l-42 83
l-42 -83h-34z" />
    <glyph glyph-name="otilde" unicode="&#xf5;" horiz-adv-x="314" 
d="M157 510q58 0 82.5 -30.5t24.5 -86.5v-286q0 -57 -23.5 -87t-83.5 -30t-83.5 30t-23.5 87v286q0 56 24.5 86.5t82.5 30.5zM157 30q34 0 47.5 19t13.5 58v286q0 39 -13.5 58t-47.5 19t-47.5 -19t-13.5 -58v-286q0 -39 13.5 -58t47.5 -19zM204 570q-28 0 -52.5 23.5
t-41.5 23.5q-30 0 -30 -37h-31q0 38 13 56.5t46 18.5q27 0 51.5 -23.5t42.5 -23.5q17 0 23.5 9t6.5 28h31q0 -39 -13.5 -57t-45.5 -18z" />
    <glyph glyph-name="odieresis" unicode="&#xf6;" horiz-adv-x="314" 
d="M157 510q58 0 82.5 -30.5t24.5 -86.5v-286q0 -57 -23.5 -87t-83.5 -30t-83.5 30t-23.5 87v286q0 56 24.5 86.5t82.5 30.5zM157 30q34 0 47.5 19t13.5 58v286q0 39 -13.5 58t-47.5 19t-47.5 -19t-13.5 -58v-286q0 -39 13.5 -58t47.5 -19zM78 650h52v-65h-52v65zM184 650
h52v-65h-52v65z" />
    <glyph glyph-name="divide" unicode="&#xf7;" horiz-adv-x="400" 
d="M55 298h290v-36h-290v36zM172 188h56v-66h-56v66zM172 437h56v-66h-56v66z" />
    <glyph glyph-name="oslash" unicode="&#xf8;" horiz-adv-x="314" 
d="M157 510q17 0 32 -3l4 23h23l-5 -30q53 -23 53 -107v-286q0 -57 -23.5 -87t-83.5 -30q-19 0 -32 3l-4 -23h-23l5 29q-53 22 -53 108v286q0 56 24.5 86.5t82.5 30.5zM96 107q0 -42 15 -60l71 419q-14 4 -25 4q-34 0 -47.5 -19t-13.5 -58v-286zM157 30q34 0 47.5 19
t13.5 58v286q0 41 -15 60l-71 -420q11 -3 25 -3z" />
    <glyph glyph-name="ugrave" unicode="&#xf9;" 
d="M269 500v-500h-27l-13 37q-23 -47 -77 -47q-52 0 -74.5 28t-22.5 86v396h46v-396q0 -74 59 -74q63 0 63 75v395h46zM116 675h47l43 -125h-33z" />
    <glyph glyph-name="uacute" unicode="&#xfa;" 
d="M269 500v-500h-27l-13 37q-23 -47 -77 -47q-52 0 -74.5 28t-22.5 86v396h46v-396q0 -74 59 -74q63 0 63 75v395h46zM187 675h47l-57 -125h-33z" />
    <glyph glyph-name="ucircumflex" unicode="&#xfb;" 
d="M269 500v-500h-27l-13 37q-23 -47 -77 -47q-52 0 -74.5 28t-22.5 86v396h46v-396q0 -74 59 -74q63 0 63 75v395h46zM140 675h42l56 -125h-35l-42 83l-42 -83h-34z" />
    <glyph glyph-name="udieresis" unicode="&#xfc;" 
d="M269 500v-500h-27l-13 37q-23 -47 -77 -47q-52 0 -74.5 28t-22.5 86v396h46v-396q0 -74 59 -74q63 0 63 75v395h46zM83 650h52v-65h-52v65zM189 650h52v-65h-52v65z" />
    <glyph glyph-name="yacute" unicode="&#xfd;" horiz-adv-x="302" 
d="M56 -170q-23 0 -36 5v42q16 -7 36 -7q50 0 63 63l13 66l-102 501h48l76 -416l75 416h48l-114 -569q-11 -54 -34.5 -77.5t-72.5 -23.5zM182 675h47l-57 -125h-33z" />
    <glyph glyph-name="thorn" unicode="&#xfe;" 
d="M223 105v267q0 50 -11.5 74.5t-47.5 24.5q-63 0 -63 -76v-263q0 -50 13 -76t50 -26q33 0 46 18.5t13 56.5zM55 -160v870h46v-241q23 42 73 42q51 0 73 -28t22 -87v-291q0 -115 -95 -115q-50 0 -73 42v-192h-46z" />
    <glyph glyph-name="ydieresis" unicode="&#xff;" horiz-adv-x="302" 
d="M56 -170q-23 0 -36 5v42q16 -7 36 -7q50 0 63 63l13 66l-102 501h48l76 -416l75 416h48l-114 -569q-11 -54 -34.5 -77.5t-72.5 -23.5zM74 650h52v-65h-52v65zM180 650h52v-65h-52v65z" />
    <glyph glyph-name="Amacron" unicode="&#x100;" horiz-adv-x="318" 
d="M188 700l100 -700h-50l-22 168h-115l-22 -168h-49l100 700h58zM159 623l-53 -411h105zM74 750v36h170v-36h-170z" />
    <glyph glyph-name="amacron" unicode="&#x101;" horiz-adv-x="309" 
d="M259 0h-27l-13 34q-20 -44 -74 -44q-53 0 -76.5 27.5t-23.5 85.5v56q0 62 35.5 98.5t132.5 66.5v73q0 73 -59 73q-34 0 -46.5 -18.5t-12.5 -55.5v-24h-46v25q0 55 23 84t82 29t82 -29t23 -84v-397zM91 160v-57q0 -37 14 -55t47 -18q61 0 61 73v185q-72 -23 -97 -52
t-25 -76zM69 596v36h170v-36h-170z" />
    <glyph glyph-name="Abreve" unicode="&#x102;" horiz-adv-x="318" 
d="M188 700l100 -700h-50l-22 168h-115l-22 -168h-49l100 700h58zM159 623l-53 -411h105zM202 842h33q0 -99 -77 -99q-76 0 -76 99h32q0 -63 44 -63t44 63z" />
    <glyph glyph-name="abreve" unicode="&#x103;" horiz-adv-x="309" 
d="M259 0h-27l-13 34q-20 -44 -74 -44q-53 0 -76.5 27.5t-23.5 85.5v56q0 62 35.5 98.5t132.5 66.5v73q0 73 -59 73q-34 0 -46.5 -18.5t-12.5 -55.5v-24h-46v25q0 55 23 84t82 29t82 -29t23 -84v-397zM91 160v-57q0 -37 14 -55t47 -18q61 0 61 73v185q-72 -23 -97 -52
t-25 -76zM197 654h33q0 -99 -77 -99q-76 0 -76 99h32q0 -63 44 -63t44 63z" />
    <glyph glyph-name="Aogonek" unicode="&#x104;" horiz-adv-x="318" 
d="M288 -170h-12q-78 0 -78 65q0 48 42 92l-24 181h-115l-22 -168h-49l100 700h58l100 -700q-51 -38 -51 -92q0 -36 39 -36h12v-42zM159 623l-53 -411h105z" />
    <glyph glyph-name="aogonek" unicode="&#x105;" horiz-adv-x="309" 
d="M259 -170h-12q-78 0 -78 65q0 61 62 108l-12 31q-20 -44 -74 -44q-53 0 -76.5 27.5t-23.5 85.5v60q0 61 35 96t133 63v75q0 73 -59 73q-34 0 -46.5 -18.5t-12.5 -55.5v-24h-46v25q0 55 23 84t82 29t82 -29t23 -84v-397q-51 -38 -51 -92q0 -36 39 -36h12v-42zM91 164v-61
q0 -37 14 -55t47 -18q61 0 61 73v184q-73 -21 -97.5 -48.5t-24.5 -74.5z" />
    <glyph glyph-name="Cacute" unicode="&#x106;" horiz-adv-x="325" 
d="M55 112v476q0 59 25.5 90.5t87.5 31.5q113 0 113 -122v-78h-47v78q0 79 -66 79q-65 0 -65 -79v-476q0 -79 65 -79q66 0 66 79v88h47v-88q0 -122 -113 -122q-62 0 -87.5 31.5t-25.5 90.5zM194 875h47l-57 -125h-33z" />
    <glyph glyph-name="cacute" unicode="&#x107;" horiz-adv-x="308" 
d="M218 172h45v-65q0 -57 -23.5 -87t-82.5 -30q-60 0 -83.5 30t-23.5 87v286q0 56 24.5 86.5t82.5 30.5q59 0 82.5 -30t23.5 -87v-55h-45v55q0 38 -13.5 57.5t-47.5 19.5t-47.5 -19t-13.5 -58v-286q0 -39 13.5 -58t47.5 -19t47.5 19.5t13.5 57.5v65zM184 675h47l-57 -125
h-33z" />
    <glyph glyph-name="Ccircumflex" unicode="&#x108;" horiz-adv-x="325" 
d="M55 112v476q0 59 25.5 90.5t87.5 31.5q113 0 113 -122v-78h-47v78q0 79 -66 79q-65 0 -65 -79v-476q0 -79 65 -79q66 0 66 79v88h47v-88q0 -122 -113 -122q-62 0 -87.5 31.5t-25.5 90.5zM145 875h42l56 -125h-35l-42 83l-42 -83h-34z" />
    <glyph glyph-name="ccircumflex" unicode="&#x109;" horiz-adv-x="308" 
d="M218 172h45v-65q0 -57 -23.5 -87t-82.5 -30q-60 0 -83.5 30t-23.5 87v286q0 56 24.5 86.5t82.5 30.5q59 0 82.5 -30t23.5 -87v-55h-45v55q0 38 -13.5 57.5t-47.5 19.5t-47.5 -19t-13.5 -58v-286q0 -39 13.5 -58t47.5 -19t47.5 19.5t13.5 57.5v65zM132 675h42l56 -125h-35
l-42 83l-42 -83h-34z" />
    <glyph glyph-name="Cdotaccent" unicode="&#x10a;" horiz-adv-x="325" 
d="M55 112v476q0 59 25.5 90.5t87.5 31.5q113 0 113 -122v-78h-47v78q0 79 -66 79q-65 0 -65 -79v-476q0 -79 65 -79q66 0 66 79v88h47v-88q0 -122 -113 -122q-62 0 -87.5 31.5t-25.5 90.5zM141 815h52v-65h-52v65z" />
    <glyph glyph-name="cdotaccent" unicode="&#x10b;" horiz-adv-x="308" 
d="M218 172h45v-65q0 -57 -23.5 -87t-82.5 -30q-60 0 -83.5 30t-23.5 87v286q0 56 24.5 86.5t82.5 30.5q59 0 82.5 -30t23.5 -87v-55h-45v55q0 38 -13.5 57.5t-47.5 19.5t-47.5 -19t-13.5 -58v-286q0 -39 13.5 -58t47.5 -19t47.5 19.5t13.5 57.5v65zM130 650h52v-65h-52v65z
" />
    <glyph glyph-name="Ccaron" unicode="&#x10c;" horiz-adv-x="325" 
d="M55 112v476q0 59 25.5 90.5t87.5 31.5q113 0 113 -122v-78h-47v78q0 79 -66 79q-65 0 -65 -79v-476q0 -79 65 -79q66 0 66 79v88h47v-88q0 -122 -113 -122q-62 0 -87.5 31.5t-25.5 90.5zM187 750h-42l-55 125h34l42 -83l42 83h35z" />
    <glyph glyph-name="ccaron" unicode="&#x10d;" horiz-adv-x="308" 
d="M218 172h45v-65q0 -57 -23.5 -87t-82.5 -30q-60 0 -83.5 30t-23.5 87v286q0 56 24.5 86.5t82.5 30.5q59 0 82.5 -30t23.5 -87v-55h-45v55q0 38 -13.5 57.5t-47.5 19.5t-47.5 -19t-13.5 -58v-286q0 -39 13.5 -58t47.5 -19t47.5 19.5t13.5 57.5v65zM174 550h-42l-55 125h34
l42 -83l42 83h35z" />
    <glyph glyph-name="Dcaron" unicode="&#x10e;" horiz-adv-x="352" 
d="M65 0v700h105q68 0 95 -31t27 -90v-458q0 -59 -26 -90t-94 -31h-107zM113 654v-608h57q42 0 58 19t16 56v458q0 37 -16.5 56t-58.5 19h-56zM176 750h-42l-55 125h34l42 -83l42 83h35z" />
    <glyph glyph-name="dcaron" unicode="&#x10f;" 
d="M223 107v283q0 80 -63 80q-59 0 -59 -76v-288q0 -76 59 -76q63 0 63 77zM55 104v290q0 60 22 88t73 28q50 0 73 -42v242h46v-710h-27l-13 36q-22 -46 -77 -46q-52 0 -74.5 28t-22.5 86zM306 710h46l-24 -160h-22v160z" />
    <glyph glyph-name="Dcroat" unicode="&#x110;" horiz-adv-x="352" 
d="M23 336v35h42v329h105q68 0 95 -31t27 -90v-458q0 -59 -26 -90t-94 -31h-107v336h-42zM113 654v-283h65v-35h-65v-291h57q22 0 36.5 7t22 15t11 26t4 28.5t0.5 34.5v405q0 47 -15 70t-60 23h-56z" />
    <glyph glyph-name="dcroat" unicode="&#x111;" 
d="M223 107v283q0 80 -63 80q-59 0 -59 -76v-288q0 -76 59 -76q63 0 63 77zM144 588v36h79v86h46v-710h-27l-13 36q-22 -46 -77 -46q-52 0 -74.5 28t-22.5 86v290q0 60 22 88t73 28q50 0 73 -42v120h-79z" />
    <glyph glyph-name="Emacron" unicode="&#x112;" horiz-adv-x="299" 
d="M113 331v-285h144v-46h-192v700h192v-46h-144v-279h124v-44h-124zM75 750v36h170v-36h-170z" />
    <glyph glyph-name="emacron" unicode="&#x113;" horiz-adv-x="308" 
d="M216 172h46v-65q0 -57 -24 -87t-83 -30q-60 0 -83.5 30t-23.5 87v286q0 57 24 87t83 30t83 -30t24 -87v-141h-168v-145q0 -39 14 -58t47 -19q34 0 47.5 19.5t13.5 57.5v65zM94 393v-103h122v91q0 46 -12.5 67.5t-48.5 21.5q-34 0 -47.5 -19t-13.5 -58zM69 596v36h170v-36
h-170z" />
    <glyph glyph-name="Ebreve" unicode="&#x114;" horiz-adv-x="299" 
d="M113 331v-285h144v-46h-192v700h192v-46h-144v-279h124v-44h-124zM207 842h33q0 -99 -77 -99q-76 0 -76 99h32q0 -63 44 -63t44 63z" />
    <glyph glyph-name="ebreve" unicode="&#x115;" horiz-adv-x="308" 
d="M216 172h46v-65q0 -57 -24 -87t-83 -30q-60 0 -83.5 30t-23.5 87v286q0 57 24 87t83 30t83 -30t24 -87v-141h-168v-145q0 -39 14 -58t47 -19q34 0 47.5 19.5t13.5 57.5v65zM94 393v-103h122v91q0 46 -12.5 67.5t-48.5 21.5q-34 0 -47.5 -19t-13.5 -58zM197 654h33
q0 -99 -77 -99q-76 0 -76 99h32q0 -63 44 -63t44 63z" />
    <glyph glyph-name="Edotaccent" unicode="&#x116;" horiz-adv-x="299" 
d="M113 331v-285h144v-46h-192v700h192v-46h-144v-279h124v-44h-124zM135 815h52v-65h-52v65z" />
    <glyph glyph-name="edotaccent" unicode="&#x117;" horiz-adv-x="308" 
d="M216 172h46v-65q0 -57 -24 -87t-83 -30q-60 0 -83.5 30t-23.5 87v286q0 57 24 87t83 30t83 -30t24 -87v-141h-168v-145q0 -39 14 -58t47 -19q34 0 47.5 19.5t13.5 57.5v65zM94 393v-103h122v91q0 46 -12.5 67.5t-48.5 21.5q-34 0 -47.5 -19t-13.5 -58zM128 650h52v-65
h-52v65z" />
    <glyph glyph-name="Eogonek" unicode="&#x118;" horiz-adv-x="299" 
d="M257 -170h-12q-78 0 -78 65q0 61 58 105h-160v700h192v-46h-144v-279h124v-44h-124v-285h144v-46q-51 -38 -51 -92q0 -36 39 -36h12v-42z" />
    <glyph glyph-name="eogonek" unicode="&#x119;" horiz-adv-x="314" 
d="M211 -170h-12q-78 0 -78 65q0 53 46 96q-1 0 -5 -0.5t-5 -0.5q-60 0 -83.5 30t-23.5 87v286q0 57 24 87t83 30t83 -30t24 -87v-141h-168v-145q0 -39 14 -58t47 -19q34 0 47.5 19.5t13.5 57.5v65h46v-65q0 -87 -55 -108q-49 -38 -49 -91q0 -36 39 -36h12v-42zM96 393v-103
h122v91q0 46 -12.5 67.5t-48.5 21.5q-34 0 -47.5 -19t-13.5 -58z" />
    <glyph glyph-name="Ecaron" unicode="&#x11a;" horiz-adv-x="299" 
d="M113 331v-285h144v-46h-192v700h192v-46h-144v-279h124v-44h-124zM181 750h-42l-55 125h34l42 -83l42 83h35z" />
    <glyph glyph-name="ecaron" unicode="&#x11b;" horiz-adv-x="308" 
d="M216 172h46v-65q0 -57 -24 -87t-83 -30q-60 0 -83.5 30t-23.5 87v286q0 57 24 87t83 30t83 -30t24 -87v-141h-168v-145q0 -39 14 -58t47 -19q34 0 47.5 19.5t13.5 57.5v65zM94 393v-103h122v91q0 46 -12.5 67.5t-48.5 21.5q-34 0 -47.5 -19t-13.5 -58zM174 550h-42
l-55 125h34l42 -83l42 83h35z" />
    <glyph glyph-name="Gcircumflex" unicode="&#x11c;" horiz-adv-x="341" 
d="M238 111v220h-65v44h113v-264q0 -59 -25.5 -90t-87.5 -31t-87.5 31t-25.5 90v478q0 59 25.5 90t87.5 31q61 0 86.5 -31.5t25.5 -89.5v-79h-47v79q0 78 -65 78t-65 -78v-478q0 -78 65 -78t65 78zM149 875h42l56 -125h-35l-42 83l-42 -83h-34z" />
    <glyph glyph-name="gcircumflex" unicode="&#x11d;" 
d="M155 115q-45 0 -45 -30q0 -29 45 -29q121 0 121 -109v-11q0 -106 -120 -106q-121 0 -121 106v11q0 80 67 101q-27 12 -27 37q0 26 29 38q-56 20 -56 109v160q0 57 23.5 87.5t83.5 30.5q23 0 46 -7q19 57 69 57q18 0 29 -4v-37q-17 5 -31 5q-33 0 -46 -31q40 -27 40 -101
v-160q0 -57 -24 -87t-83 -30zM155 470q-35 0 -48 -19.5t-13 -58.5v-160q0 -39 13 -59t48 -20t48 20t13 59v160q0 39 -13 58.5t-48 19.5zM155 22q-75 0 -75 -72v-11q0 -69 76 -69q75 0 75 69v11q0 72 -76 72zM130 675h42l56 -125h-35l-42 83l-42 -83h-34z" />
    <glyph glyph-name="Gbreve" unicode="&#x11e;" horiz-adv-x="341" 
d="M238 111v220h-65v44h113v-264q0 -59 -25.5 -90t-87.5 -31t-87.5 31t-25.5 90v478q0 59 25.5 90t87.5 31q61 0 86.5 -31.5t25.5 -89.5v-79h-47v79q0 78 -65 78t-65 -78v-478q0 -78 65 -78t65 78zM214 842h33q0 -99 -77 -99q-76 0 -76 99h32q0 -63 44 -63t44 63z" />
    <glyph glyph-name="gbreve" unicode="&#x11f;" 
d="M155 115q-45 0 -45 -30q0 -29 45 -29q121 0 121 -109v-11q0 -106 -120 -106q-121 0 -121 106v11q0 80 67 101q-27 12 -27 37q0 26 29 38q-56 20 -56 109v160q0 57 23.5 87.5t83.5 30.5q23 0 46 -7q19 57 69 57q18 0 29 -4v-37q-17 5 -31 5q-33 0 -46 -31q40 -27 40 -101
v-160q0 -57 -24 -87t-83 -30zM155 470q-35 0 -48 -19.5t-13 -58.5v-160q0 -39 13 -59t48 -20t48 20t13 59v160q0 39 -13 58.5t-48 19.5zM155 22q-75 0 -75 -72v-11q0 -69 76 -69q75 0 75 69v11q0 72 -76 72zM197 654h33q0 -99 -77 -99q-76 0 -76 99h32q0 -63 44 -63t44 63z
" />
    <glyph glyph-name="Gdotaccent" unicode="&#x120;" horiz-adv-x="341" 
d="M238 111v220h-65v44h113v-264q0 -59 -25.5 -90t-87.5 -31t-87.5 31t-25.5 90v478q0 59 25.5 90t87.5 31q61 0 86.5 -31.5t25.5 -89.5v-79h-47v79q0 78 -65 78t-65 -78v-478q0 -78 65 -78t65 78zM144 815h52v-65h-52v65z" />
    <glyph glyph-name="gdotaccent" unicode="&#x121;" 
d="M155 115q-45 0 -45 -30q0 -29 45 -29q121 0 121 -109v-11q0 -106 -120 -106q-121 0 -121 106v11q0 80 67 101q-27 12 -27 37q0 26 29 38q-56 20 -56 109v160q0 57 23.5 87.5t83.5 30.5q23 0 46 -7q19 57 69 57q18 0 29 -4v-37q-17 5 -31 5q-33 0 -46 -31q40 -27 40 -101
v-160q0 -57 -24 -87t-83 -30zM155 470q-35 0 -48 -19.5t-13 -58.5v-160q0 -39 13 -59t48 -20t48 20t13 59v160q0 39 -13 58.5t-48 19.5zM155 22q-75 0 -75 -72v-11q0 -69 76 -69q75 0 75 69v11q0 72 -76 72zM128 650h52v-65h-52v65z" />
    <glyph glyph-name="Gcommaaccent" unicode="&#x122;" horiz-adv-x="341" 
d="M238 111v220h-65v44h113v-264q0 -59 -25.5 -90t-87.5 -31t-87.5 31t-25.5 90v478q0 59 25.5 90t87.5 31q61 0 86.5 -31.5t25.5 -89.5v-79h-47v79q0 78 -65 78t-65 -78v-478q0 -78 65 -78t65 78zM149 -48h53l-23 -122h-30v122z" />
    <glyph glyph-name="gcommaaccent" unicode="&#x123;" 
d="M155 115q-45 0 -45 -30q0 -29 45 -29q121 0 121 -109v-11q0 -106 -120 -106q-121 0 -121 106v11q0 80 67 101q-27 12 -27 37q0 26 29 38q-56 20 -56 109v160q0 57 23.5 87.5t83.5 30.5q23 0 46 -7q19 57 69 57q18 0 29 -4v-37q-17 5 -31 5q-33 0 -46 -31q40 -27 40 -101
v-160q0 -57 -24 -87t-83 -30zM155 470q-35 0 -48 -19.5t-13 -58.5v-160q0 -39 13 -59t48 -20t48 20t13 59v160q0 39 -13 58.5t-48 19.5zM155 22q-75 0 -75 -72v-11q0 -69 76 -69q75 0 75 69v11q0 72 -76 72zM180 547h-53l23 122h30v-122z" />
    <glyph glyph-name="Hcircumflex" unicode="&#x124;" horiz-adv-x="358" 
d="M113 331v-331h-48v700h48v-325h132v325h48v-700h-48v331h-132zM157 875h42l56 -125h-35l-42 83l-42 -83h-34z" />
    <glyph glyph-name="hcircumflex" unicode="&#x125;" 
d="M269 0h-46v396q0 74 -59 74q-63 0 -63 -75v-395h-46v710h46v-243q21 43 72 43t73.5 -28t22.5 -86v-396zM166 675h42l56 -125h-35l-42 83l-42 -83h-34z" />
    <glyph glyph-name="Hbar" unicode="&#x126;" horiz-adv-x="358" 
d="M27 520v28h38v152h48v-152h132v152h48v-152h37v-28h-37v-520h-48v331h-132v-331h-48v520h-38zM113 375h132v145h-132v-145z" />
    <glyph glyph-name="hbar" unicode="&#x127;" 
d="M269 0h-46v396q0 74 -61 74q-37 0 -49 -27.5t-12 -75.5v-367h-46v710h46v-86h153v-36h-153v-121q21 43 72 43t73.5 -28t22.5 -86v-396z" />
    <glyph glyph-name="Itilde" unicode="&#x128;" horiz-adv-x="178" 
d="M65 0v700h48v-700h-48zM137 750q-28 0 -52.5 23.5t-41.5 23.5q-30 0 -30 -37h-31q0 38 13 56.5t46 18.5q27 0 51.5 -23.5t42.5 -23.5q17 0 23.5 9t6.5 28h31q0 -39 -13.5 -57t-45.5 -18z" />
    <glyph glyph-name="itilde" unicode="&#x129;" horiz-adv-x="159" 
d="M128 570q-28 0 -52.5 23.5t-41.5 23.5q-30 0 -30 -37h-31q0 38 13 56.5t46 18.5q27 0 51.5 -23.5t42.5 -23.5q17 0 23.5 9t6.5 28h31q0 -39 -13.5 -57t-45.5 -18zM56 500h46v-500h-46v500z" />
    <glyph glyph-name="Imacron" unicode="&#x12a;" horiz-adv-x="178" 
d="M65 0v700h48v-700h-48zM4 750v36h170v-36h-170z" />
    <glyph glyph-name="imacron" unicode="&#x12b;" horiz-adv-x="159" 
d="M-5 596v36h170v-36h-170zM56 500h46v-500h-46v500z" />
    <glyph glyph-name="Ibreve" unicode="&#x12c;" horiz-adv-x="178" 
d="M65 0v700h48v-700h-48zM133 842h33q0 -99 -77 -99q-76 0 -76 99h32q0 -63 44 -63t44 63z" />
    <glyph glyph-name="ibreve" unicode="&#x12d;" horiz-adv-x="159" 
d="M123 654h33q0 -99 -77 -99q-76 0 -76 99h32q0 -63 44 -63t44 63zM56 500h46v-500h-46v500z" />
    <glyph glyph-name="Iogonek" unicode="&#x12e;" horiz-adv-x="178" 
d="M113 -170h-12q-78 0 -78 65q0 51 42 91v714h48v-700q-51 -38 -51 -92q0 -36 39 -36h12v-42z" />
    <glyph glyph-name="iogonek" unicode="&#x12f;" horiz-adv-x="159" 
d="M102 -170h-12q-78 0 -78 65q0 52 44 93v512h46v-500q-51 -38 -51 -92q0 -36 39 -36h12v-42zM55 654h48v-60h-48v60z" />
    <glyph glyph-name="Idotaccent" unicode="&#x130;" horiz-adv-x="178" 
d="M65 0v700h48v-700h-48zM63 815h52v-65h-52v65z" />
    <glyph glyph-name="dotlessi" unicode="&#x131;" horiz-adv-x="159" 
d="M56 500h46v-500h-46v500z" />
    <glyph glyph-name="Jcircumflex" unicode="&#x134;" horiz-adv-x="318" 
d="M205 700h48v-589q0 -60 -23.5 -90.5t-85.5 -30.5q-61 0 -85 31t-24 90v89h48v-89q0 -38 13 -58t48 -20t48 19.5t13 58.5v589zM207 875h42l56 -125h-35l-42 83l-42 -83h-34z" />
    <glyph glyph-name="jcircumflex" unicode="&#x135;" horiz-adv-x="165" 
d="M-33 -164v40q14 -6 35 -6q31 0 42.5 15t11.5 54v561h46v-562q0 -57 -21.5 -82.5t-77.5 -25.5q-21 0 -36 6zM58 675h42l56 -125h-35l-42 83l-42 -83h-34z" />
    <glyph glyph-name="Kcommaaccent" unicode="&#x136;" horiz-adv-x="327" 
d="M113 700v-327l133 327h54l-148 -347l155 -353h-54l-140 332v-332h-48v700h48zM147 -48h53l-23 -122h-30v122z" />
    <glyph glyph-name="kcommaaccent" unicode="&#x137;" horiz-adv-x="289" 
d="M101 710v-432l111 222h52l-125 -240l135 -260h-52l-121 241v-241h-46v710h46zM118 -48h53l-23 -122h-30v122z" />
    <glyph glyph-name="kgreenlandic" unicode="&#x138;" horiz-adv-x="289" 
d="M101 500v-222l111 222h52l-125 -240l135 -260h-52l-121 241v-241h-46v500h46z" />
    <glyph glyph-name="Lacute" unicode="&#x139;" horiz-adv-x="255" 
d="M65 0v700h48v-654h117v-46h-165zM116 875h47l-57 -125h-33z" />
    <glyph glyph-name="lacute" unicode="&#x13a;" horiz-adv-x="156" 
d="M55 710h46v-710h-46v710zM105 875h47l-57 -125h-33z" />
    <glyph glyph-name="Lcommaaccent" unicode="&#x13b;" horiz-adv-x="255" 
d="M65 0v700h48v-654h117v-46h-165zM118 -48h53l-23 -122h-30v122z" />
    <glyph glyph-name="lcommaaccent" unicode="&#x13c;" horiz-adv-x="156" 
d="M55 710h46v-710h-46v710zM51 -48h53l-23 -122h-30v122z" />
    <glyph glyph-name="Lcaron" unicode="&#x13d;" horiz-adv-x="255" 
d="M65 0v700h48v-654h117v-46h-165zM148 710h46l-24 -160h-22v160z" />
    <glyph glyph-name="lcaron" unicode="&#x13e;" horiz-adv-x="156" 
d="M55 710h46v-710h-46v710zM133 710h46l-24 -160h-22v160z" />
    <glyph glyph-name="Ldot" unicode="&#x13f;" horiz-adv-x="255" 
d="M65 0v700h48v-654h117v-46h-165zM146 313h56v-66h-56v66z" />
    <glyph glyph-name="ldot" unicode="&#x140;" horiz-adv-x="199" 
d="M55 710h46v-710h-46v710zM143 313h56v-66h-56v66z" />
    <glyph glyph-name="Lslash" unicode="&#x141;" horiz-adv-x="255" 
d="M21 247v36l44 17v400h48v-382l66 26v-36l-66 -26v-236h117v-46h-165v264z" />
    <glyph glyph-name="lslash" unicode="&#x142;" horiz-adv-x="156" 
d="M55 710h46v-392l56 22v-36l-56 -22v-282h-46v265l-56 -22v36l56 22v409z" />
    <glyph glyph-name="Nacute" unicode="&#x143;" horiz-adv-x="381" 
d="M106 588q6 -363 6 -374v-214h-47v700h51l162 -589q-6 366 -6 374v215h47v-700h-51zM222 875h47l-57 -125h-33z" />
    <glyph glyph-name="nacute" unicode="&#x144;" 
d="M55 0v500h27l13 -37q23 47 77 47q52 0 74.5 -28t22.5 -86v-396h-46v396q0 74 -59 74q-63 0 -63 -75v-395h-46zM191 675h47l-57 -125h-33z" />
    <glyph glyph-name="Ncommaaccent" unicode="&#x145;" horiz-adv-x="381" 
d="M106 588q6 -363 6 -374v-214h-47v700h51l162 -589q-6 366 -6 374v215h47v-700h-51zM163 -48h53l-23 -122h-30v122z" />
    <glyph glyph-name="ncommaaccent" unicode="&#x146;" 
d="M55 0v500h27l13 -37q23 47 77 47q52 0 74.5 -28t22.5 -86v-396h-46v396q0 74 -59 74q-63 0 -63 -75v-395h-46zM135 -48h53l-23 -122h-30v122z" />
    <glyph glyph-name="Ncaron" unicode="&#x147;" horiz-adv-x="381" 
d="M106 588q6 -363 6 -374v-214h-47v700h51l162 -589q-6 366 -6 374v215h47v-700h-51zM211 750h-42l-55 125h34l42 -83l42 83h35z" />
    <glyph glyph-name="ncaron" unicode="&#x148;" 
d="M55 0v500h27l13 -37q23 47 77 47q52 0 74.5 -28t22.5 -86v-396h-46v396q0 74 -59 74q-63 0 -63 -75v-395h-46zM182 550h-42l-55 125h34l42 -83l42 83h35z" />
    <glyph glyph-name="Eng" unicode="&#x14a;" horiz-adv-x="381" 
d="M182 -164v40q14 -6 35 -6q31 0 42.5 15t11.5 54v61l-164 585q5 -275 5 -329v-256h-47v700h52l158 -575q-4 224 -4 319v256h47v-762q0 -57 -21.5 -82.5t-77.5 -25.5q-22 0 -37 6z" />
    <glyph glyph-name="eng" unicode="&#x14b;" 
d="M133 -164v40q14 -6 35 -6q31 0 43 15t12 54v457q0 74 -61 74q-30 0 -45.5 -21t-15.5 -54v-395h-46v500h27l13 -37q24 47 77 47q52 0 74.5 -28t22.5 -86v-458q0 -57 -21.5 -82.5t-77.5 -25.5q-22 0 -37 6z" />
    <glyph glyph-name="Omacron" unicode="&#x14c;" horiz-adv-x="336" 
d="M168 33q65 0 65 79v476q0 79 -65 79t-65 -79v-476q0 -79 65 -79zM168 710q62 0 87.5 -31.5t25.5 -90.5v-476q0 -59 -25.5 -90.5t-87.5 -31.5t-87.5 31.5t-25.5 90.5v476q0 59 25.5 90.5t87.5 31.5zM83 750v36h170v-36h-170z" />
    <glyph glyph-name="omacron" unicode="&#x14d;" horiz-adv-x="314" 
d="M157 510q58 0 82.5 -30.5t24.5 -86.5v-286q0 -57 -23.5 -87t-83.5 -30t-83.5 30t-23.5 87v286q0 56 24.5 86.5t82.5 30.5zM157 30q34 0 47.5 19t13.5 58v286q0 39 -13.5 58t-47.5 19t-47.5 -19t-13.5 -58v-286q0 -39 13.5 -58t47.5 -19zM72 596v36h170v-36h-170z" />
    <glyph glyph-name="Obreve" unicode="&#x14e;" horiz-adv-x="336" 
d="M168 33q65 0 65 79v476q0 79 -65 79t-65 -79v-476q0 -79 65 -79zM168 710q62 0 87.5 -31.5t25.5 -90.5v-476q0 -59 -25.5 -90.5t-87.5 -31.5t-87.5 31.5t-25.5 90.5v476q0 59 25.5 90.5t87.5 31.5zM211 842h33q0 -99 -77 -99q-76 0 -76 99h32q0 -63 44 -63t44 63z" />
    <glyph glyph-name="obreve" unicode="&#x14f;" horiz-adv-x="314" 
d="M157 510q58 0 82.5 -30.5t24.5 -86.5v-286q0 -57 -23.5 -87t-83.5 -30t-83.5 30t-23.5 87v286q0 56 24.5 86.5t82.5 30.5zM157 30q34 0 47.5 19t13.5 58v286q0 39 -13.5 58t-47.5 19t-47.5 -19t-13.5 -58v-286q0 -39 13.5 -58t47.5 -19zM200 654h33q0 -99 -77 -99
q-76 0 -76 99h32q0 -63 44 -63t44 63z" />
    <glyph glyph-name="Ohungarumlaut" unicode="&#x150;" horiz-adv-x="336" 
d="M168 33q65 0 65 79v476q0 79 -65 79t-65 -79v-476q0 -79 65 -79zM168 710q62 0 87.5 -31.5t25.5 -90.5v-476q0 -59 -25.5 -90.5t-87.5 -31.5t-87.5 31.5t-25.5 90.5v476q0 59 25.5 90.5t87.5 31.5zM127 875h47l-37 -125h-33zM226 875h47l-47 -125h-33z" />
    <glyph glyph-name="ohungarumlaut" unicode="&#x151;" horiz-adv-x="314" 
d="M157 510q58 0 82.5 -30.5t24.5 -86.5v-286q0 -57 -23.5 -87t-83.5 -30t-83.5 30t-23.5 87v286q0 56 24.5 86.5t82.5 30.5zM157 30q34 0 47.5 19t13.5 58v286q0 39 -13.5 58t-47.5 19t-47.5 -19t-13.5 -58v-286q0 -39 13.5 -58t47.5 -19zM118 675h47l-37 -125h-33z
M217 675h47l-47 -125h-33z" />
    <glyph glyph-name="OE" unicode="&#x152;" horiz-adv-x="467" 
d="M281 331v-285h144v-46h-202q-32 -10 -55 -10q-62 0 -87.5 31.5t-25.5 90.5v476q0 59 25.5 90.5t87.5 31.5q23 0 55 -10h202v-46h-144v-279h124v-44h-124zM168 33q62 0 65 69v486q0 79 -65 79t-65 -79v-476q0 -79 65 -79z" />
    <glyph glyph-name="oe" unicode="&#x153;" horiz-adv-x="482" 
d="M386 172h46v-65q0 -57 -24 -87t-83 -30q-58 0 -83 38q-24 -38 -85 -38q-60 0 -83.5 30t-23.5 87v286q0 56 24.5 86.5t82.5 30.5t84 -39q25 39 84 39t83 -30t24 -87v-141h-168v-145q0 -39 14 -58t47 -19q34 0 47.5 19.5t13.5 57.5v65zM157 30q34 0 47.5 19t13.5 58v286
q0 39 -13.5 58t-47.5 19t-47.5 -19t-13.5 -58v-286q0 -39 13.5 -58t47.5 -19zM264 393v-103h122v91q0 46 -12.5 67.5t-48.5 21.5q-34 0 -47.5 -19t-13.5 -58z" />
    <glyph glyph-name="Racute" unicode="&#x154;" horiz-adv-x="337" 
d="M65 0v700h102q68 0 93.5 -31t25.5 -90v-155q0 -101 -86 -117l117 -307h-53q-16 44 -53 147t-57 158h-41v-305h-48zM113 654v-305h50q42 0 58.5 19t16.5 56v155q0 37 -16 56t-58 19h-51zM190 875h47l-57 -125h-33z" />
    <glyph glyph-name="racute" unicode="&#x155;" horiz-adv-x="205" 
d="M180 512v-47q-41 2 -60 -19t-19 -66v-380h-46v500h31l12 -36q26 48 82 48zM134 675h47l-57 -125h-33z" />
    <glyph glyph-name="Rcommaaccent" unicode="&#x156;" horiz-adv-x="337" 
d="M65 0v700h102q68 0 93.5 -31t25.5 -90v-155q0 -101 -86 -117l117 -307h-53q-16 44 -53 147t-57 158h-41v-305h-48zM113 654v-305h50q42 0 58.5 19t16.5 56v155q0 37 -16 56t-58 19h-51zM142 -48h53l-23 -122h-30v122z" />
    <glyph glyph-name="rcommaaccent" unicode="&#x157;" horiz-adv-x="205" 
d="M180 512v-47q-41 2 -60 -19t-19 -66v-380h-46v500h31l12 -36q26 48 82 48zM52 -48h53l-23 -122h-30v122z" />
    <glyph glyph-name="Rcaron" unicode="&#x158;" horiz-adv-x="337" 
d="M65 0v700h102q68 0 93.5 -31t25.5 -90v-155q0 -101 -86 -117l117 -307h-53q-16 44 -53 147t-57 158h-41v-305h-48zM113 654v-305h50q42 0 58.5 19t16.5 56v155q0 37 -16 56t-58 19h-51zM179 750h-42l-55 125h34l42 -83l42 83h35z" />
    <glyph glyph-name="rcaron" unicode="&#x159;" horiz-adv-x="205" 
d="M180 512v-47q-41 2 -60 -19t-19 -66v-380h-46v500h31l12 -36q26 48 82 48zM140 550h-42l-55 125h34l42 -83l42 83h35z" />
    <glyph glyph-name="Sacute" unicode="&#x15a;" horiz-adv-x="323" 
d="M273 510h-48v77q0 80 -63 80q-37 0 -50.5 -20.5t-13.5 -59.5v-58q0 -35 9.5 -60.5t25 -41t34 -28.5t37.5 -28.5t34.5 -35.5t25 -55t9.5 -82v-85q0 -60 -23.5 -91.5t-87.5 -31.5t-88 31.5t-24 91.5v87h48v-87q0 -80 64 -80q36 0 49.5 20.5t13.5 59.5v85q0 43 -9.5 73.5
t-25 48.5t-34 32t-37.5 28t-34.5 31t-25 47t-9.5 71v58q0 60 24 91.5t88 31.5t87.5 -31.5t23.5 -91.5v-77zM191 875h47l-57 -125h-33z" />
    <glyph glyph-name="sacute" unicode="&#x15b;" horiz-adv-x="296" 
d="M206 103v41q0 29 -12 49.5t-30 31.5t-38.5 24.5t-38.5 26.5t-30 39.5t-12 62.5v18q0 56 23 85t80 29q58 0 80.5 -28.5t22.5 -85.5v-58h-45v58q0 39 -13.5 56.5t-44.5 17.5q-32 0 -45 -17.5t-13 -56.5v-18q0 -36 16.5 -60t40 -37t47.5 -27t40.5 -41t16.5 -68v-42
q0 -57 -22.5 -85t-80.5 -28t-80.5 28t-22.5 85v69h45v-69q0 -39 13 -56t45 -17t45 17t13 56zM174 675h47l-57 -125h-33z" />
    <glyph glyph-name="Scircumflex" unicode="&#x15c;" horiz-adv-x="323" 
d="M273 510h-48v77q0 80 -63 80q-37 0 -50.5 -20.5t-13.5 -59.5v-58q0 -35 9.5 -60.5t25 -41t34 -28.5t37.5 -28.5t34.5 -35.5t25 -55t9.5 -82v-85q0 -60 -23.5 -91.5t-87.5 -31.5t-88 31.5t-24 91.5v87h48v-87q0 -80 64 -80q36 0 49.5 20.5t13.5 59.5v85q0 43 -9.5 73.5
t-25 48.5t-34 32t-37.5 28t-34.5 31t-25 47t-9.5 71v58q0 60 24 91.5t88 31.5t87.5 -31.5t23.5 -91.5v-77zM140 875h42l56 -125h-35l-42 83l-42 -83h-34z" />
    <glyph glyph-name="scircumflex" unicode="&#x15d;" horiz-adv-x="296" 
d="M206 103v41q0 29 -12 49.5t-30 31.5t-38.5 24.5t-38.5 26.5t-30 39.5t-12 62.5v18q0 56 23 85t80 29q58 0 80.5 -28.5t22.5 -85.5v-58h-45v58q0 39 -13.5 56.5t-44.5 17.5q-32 0 -45 -17.5t-13 -56.5v-18q0 -36 16.5 -60t40 -37t47.5 -27t40.5 -41t16.5 -68v-42
q0 -57 -22.5 -85t-80.5 -28t-80.5 28t-22.5 85v69h45v-69q0 -39 13 -56t45 -17t45 17t13 56zM126 675h42l56 -125h-35l-42 83l-42 -83h-34z" />
    <glyph glyph-name="Scedilla" unicode="&#x15e;" horiz-adv-x="323" 
d="M134 -68l15 59q-57 3 -78 34t-21 88v87h48v-87q0 -80 64 -80q36 0 49.5 20.5t13.5 59.5v85q0 43 -9.5 73.5t-25 48.5t-34 32t-37.5 28t-34.5 31t-25 47t-9.5 71v58q0 60 24 91.5t88 31.5t87.5 -31.5t23.5 -91.5v-77h-48v77q0 80 -63 80q-37 0 -50.5 -20.5t-13.5 -59.5
v-58q0 -35 9.5 -60.5t25 -41t34 -28.5t37.5 -28.5t34.5 -35.5t25 -55t9.5 -82v-85q0 -57 -20.5 -87.5t-75.5 -34.5l-8 -33q67 -7 67 -63q0 -65 -86 -65h-44l8 31h34q49 0 49 35q0 36 -50 36h-13z" />
    <glyph glyph-name="scedilla" unicode="&#x15f;" horiz-adv-x="296" 
d="M117 -68l15 59q-49 4 -68 31.5t-19 80.5v69h45v-69q0 -39 13 -56t45 -17t45 17t13 56v38q0 35 -16.5 57.5t-40 35.5t-47.5 27t-40.5 42.5t-16.5 71.5v21q0 56 23 85t80 29q58 0 80.5 -28.5t22.5 -85.5v-58h-45v58q0 39 -13.5 56.5t-44.5 17.5q-32 0 -45 -17.5t-13 -56.5
v-21q0 -37 16.5 -60.5t40 -36.5t47.5 -26.5t40.5 -40.5t16.5 -69v-39q0 -54 -20 -81.5t-71 -30.5l-8 -33q67 -7 67 -63q0 -65 -86 -65h-44l8 31h34q49 0 49 35q0 36 -50 36h-13z" />
    <glyph glyph-name="Scaron" unicode="&#x160;" horiz-adv-x="323" 
d="M273 510h-48v77q0 80 -63 80q-37 0 -50.5 -20.5t-13.5 -59.5v-58q0 -35 9.5 -60.5t25 -41t34 -28.5t37.5 -28.5t34.5 -35.5t25 -55t9.5 -82v-85q0 -60 -23.5 -91.5t-87.5 -31.5t-88 31.5t-24 91.5v87h48v-87q0 -80 64 -80q36 0 49.5 20.5t13.5 59.5v85q0 43 -9.5 73.5
t-25 48.5t-34 32t-37.5 28t-34.5 31t-25 47t-9.5 71v58q0 60 24 91.5t88 31.5t87.5 -31.5t23.5 -91.5v-77zM182 750h-42l-55 125h34l42 -83l42 83h35z" />
    <glyph glyph-name="scaron" unicode="&#x161;" horiz-adv-x="296" 
d="M206 103v41q0 29 -12 49.5t-30 31.5t-38.5 24.5t-38.5 26.5t-30 39.5t-12 62.5v18q0 56 23 85t80 29q58 0 80.5 -28.5t22.5 -85.5v-58h-45v58q0 39 -13.5 56.5t-44.5 17.5q-32 0 -45 -17.5t-13 -56.5v-18q0 -36 16.5 -60t40 -37t47.5 -27t40.5 -41t16.5 -68v-42
q0 -57 -22.5 -85t-80.5 -28t-80.5 28t-22.5 85v69h45v-69q0 -39 13 -56t45 -17t45 17t13 56zM168 550h-42l-55 125h34l42 -83l42 83h35z" />
    <glyph glyph-name="Tcommaaccent" unicode="&#x162;" horiz-adv-x="270" 
d="M159 654v-654h-48v654h-86v46h220v-46h-86zM108 -48h53l-23 -122h-30v122z" />
    <glyph glyph-name="tcommaaccent" unicode="&#x163;" horiz-adv-x="237" 
d="M207 36v-39q-16 -7 -37 -7q-54 0 -75.5 25.5t-21.5 82.5v362h-48v40h48v132q7 2 22.5 6t23.5 7v-145h81v-40h-81v-362q0 -38 11.5 -53t41.5 -15q19 0 35 6zM111 -48h53l-23 -122h-30v122z" />
    <glyph glyph-name="Tcaron" unicode="&#x164;" horiz-adv-x="270" 
d="M159 654v-654h-48v654h-86v46h220v-46h-86zM155 750h-42l-55 125h34l42 -83l42 83h35z" />
    <glyph glyph-name="tcaron" unicode="&#x165;" horiz-adv-x="237" 
d="M207 36v-39q-16 -7 -37 -7q-54 0 -75.5 25.5t-21.5 82.5v362h-48v40h48v132q7 2 22.5 6t23.5 7v-145h81v-40h-81v-362q0 -38 11.5 -53t41.5 -15q19 0 35 6zM178 710h46l-24 -160h-22v160z" />
    <glyph glyph-name="Tbar" unicode="&#x166;" horiz-adv-x="270" 
d="M55 336v35h56v283h-86v46h220v-46h-86v-283h56v-35h-56v-336h-48v336h-56z" />
    <glyph glyph-name="tbar" unicode="&#x167;" horiz-adv-x="237" 
d="M32 241v36h41v182h-48v41h48v132l46 13v-145h81v-41h-81v-182h61v-36h-61v-143q0 -39 11 -53.5t42 -14.5q19 0 35 6v-40q-18 -6 -37 -6q-56 0 -76.5 25t-20.5 83v143h-41z" />
    <glyph glyph-name="Utilde" unicode="&#x168;" horiz-adv-x="344" 
d="M236 700h48v-586q0 -60 -24.5 -92t-87.5 -32q-64 0 -88 32t-24 92v586h48v-586q0 -40 13.5 -60.5t50.5 -20.5t50.5 20.5t13.5 60.5v586zM220 750q-28 0 -52.5 23.5t-41.5 23.5q-30 0 -30 -37h-31q0 38 13 56.5t46 18.5q27 0 51.5 -23.5t42.5 -23.5q17 0 23.5 9t6.5 28h31
q0 -39 -13.5 -57t-45.5 -18z" />
    <glyph glyph-name="utilde" unicode="&#x169;" 
d="M269 500v-500h-27l-13 37q-23 -47 -77 -47q-52 0 -74.5 28t-22.5 86v396h46v-396q0 -74 59 -74q63 0 63 75v395h46zM209 570q-28 0 -52.5 23.5t-41.5 23.5q-30 0 -30 -37h-31q0 38 13 56.5t46 18.5q27 0 51.5 -23.5t42.5 -23.5q17 0 23.5 9t6.5 28h31q0 -39 -13.5 -57
t-45.5 -18z" />
    <glyph glyph-name="Umacron" unicode="&#x16a;" horiz-adv-x="344" 
d="M236 700h48v-586q0 -60 -24.5 -92t-87.5 -32q-64 0 -88 32t-24 92v586h48v-586q0 -40 13.5 -60.5t50.5 -20.5t50.5 20.5t13.5 60.5v586zM87 750v36h170v-36h-170z" />
    <glyph glyph-name="umacron" unicode="&#x16b;" 
d="M269 500v-500h-27l-13 37q-23 -47 -77 -47q-52 0 -74.5 28t-22.5 86v396h46v-396q0 -74 59 -74q63 0 63 75v395h46zM77 596v36h170v-36h-170z" />
    <glyph glyph-name="Ubreve" unicode="&#x16c;" horiz-adv-x="344" 
d="M236 700h48v-586q0 -60 -24.5 -92t-87.5 -32q-64 0 -88 32t-24 92v586h48v-586q0 -40 13.5 -60.5t50.5 -20.5t50.5 20.5t13.5 60.5v586zM215 842h33q0 -99 -77 -99q-76 0 -76 99h32q0 -63 44 -63t44 63z" />
    <glyph glyph-name="ubreve" unicode="&#x16d;" 
d="M269 500v-500h-27l-13 37q-23 -47 -77 -47q-52 0 -74.5 28t-22.5 86v396h46v-396q0 -74 59 -74q63 0 63 75v395h46zM205 654h33q0 -99 -77 -99q-76 0 -76 99h32q0 -63 44 -63t44 63z" />
    <glyph glyph-name="Uring" unicode="&#x16e;" horiz-adv-x="344" 
d="M236 700h48v-586q0 -60 -24.5 -92t-87.5 -32q-64 0 -88 32t-24 92v586h48v-586q0 -40 13.5 -60.5t50.5 -20.5t50.5 20.5t13.5 60.5v586zM238 815q0 -75 -67 -75q-66 0 -66 75q0 76 66 76q67 0 67 -76zM206 815q0 48 -35 48q-34 0 -34 -48q0 -47 34 -47q35 0 35 47z" />
    <glyph glyph-name="uring" unicode="&#x16f;" 
d="M269 500v-500h-27l-13 37q-23 -47 -77 -47q-52 0 -74.5 28t-22.5 86v396h46v-396q0 -74 59 -74q63 0 63 75v395h46zM228 624q0 -75 -67 -75q-66 0 -66 75q0 76 66 76q67 0 67 -76zM196 624q0 48 -35 48q-34 0 -34 -48q0 -47 34 -47q35 0 35 47z" />
    <glyph glyph-name="Uhungarumlaut" unicode="&#x170;" horiz-adv-x="344" 
d="M236 700h48v-586q0 -60 -24.5 -92t-87.5 -32q-64 0 -88 32t-24 92v586h48v-586q0 -40 13.5 -60.5t50.5 -20.5t50.5 20.5t13.5 60.5v586zM132 875h47l-37 -125h-33zM231 875h47l-47 -125h-33z" />
    <glyph glyph-name="uhungarumlaut" unicode="&#x171;" 
d="M269 500v-500h-27l-13 37q-23 -47 -77 -47q-52 0 -74.5 28t-22.5 86v396h46v-396q0 -74 59 -74q63 0 63 75v395h46zM123 675h47l-37 -125h-33zM222 675h47l-47 -125h-33z" />
    <glyph glyph-name="Uogonek" unicode="&#x172;" horiz-adv-x="344" 
d="M226 -170h-12q-78 0 -78 65q0 53 46 96q-2 0 -5 -0.5t-5 -0.5q-64 0 -88 32t-24 92v586h48v-586q0 -40 13.5 -60.5t50.5 -20.5t50.5 20.5t13.5 60.5v586h48v-586q0 -95 -61 -116q-48 -38 -48 -90q0 -36 39 -36h12v-42z" />
    <glyph glyph-name="uogonek" unicode="&#x173;" 
d="M269 -170h-12q-78 0 -78 65q0 61 62 108l-12 34q-23 -47 -77 -47q-52 0 -74.5 28t-22.5 86v396h46v-396q0 -74 59 -74q63 0 63 75v395h46v-500q-51 -38 -51 -92q0 -36 39 -36h12v-42z" />
    <glyph glyph-name="Wcircumflex" unicode="&#x174;" horiz-adv-x="531" 
d="M349 0l-84 602l-84 -602h-52l-94 700h49l72 -601l84 601h50l84 -601l72 601h49l-94 -700h-52zM244 875h42l56 -125h-35l-42 83l-42 -83h-34z" />
    <glyph glyph-name="wcircumflex" unicode="&#x175;" horiz-adv-x="463" 
d="M232 424l-69 -424h-52l-82 500h47l62 -430l69 430h50l69 -430l62 430h47l-82 -500h-52zM210 675h42l56 -125h-35l-42 83l-42 -83h-34z" />
    <glyph glyph-name="Ycircumflex" unicode="&#x176;" horiz-adv-x="299" 
d="M173 0h-48v299l-100 401h50l74 -333l74 333h51l-101 -401v-299zM128 875h42l56 -125h-35l-42 83l-42 -83h-34z" />
    <glyph glyph-name="ycircumflex" unicode="&#x177;" horiz-adv-x="302" 
d="M56 -170q-23 0 -36 5v42q16 -7 36 -7q50 0 63 63l13 66l-102 501h48l76 -416l75 416h48l-114 -569q-11 -54 -34.5 -77.5t-72.5 -23.5zM132 675h42l56 -125h-35l-42 83l-42 -83h-34z" />
    <glyph glyph-name="Ydieresis" unicode="&#x178;" horiz-adv-x="299" 
d="M173 0h-48v299l-100 401h50l74 -333l74 333h51l-101 -401v-299zM70 816h52v-66h-52v66zM176 816h52v-66h-52v66z" />
    <glyph glyph-name="Zacute" unicode="&#x179;" horiz-adv-x="274" 
d="M239 0h-204v30l150 624h-149v46h201v-30l-150 -624h152v-46zM161 875h47l-57 -125h-33z" />
    <glyph glyph-name="zacute" unicode="&#x17a;" horiz-adv-x="261" 
d="M226 0h-191v28l137 432h-131v40h180v-29l-136 -431h141v-40zM156 675h47l-57 -125h-33z" />
    <glyph glyph-name="Zdotaccent" unicode="&#x17b;" horiz-adv-x="274" 
d="M239 0h-204v30l150 624h-149v46h201v-30l-150 -624h152v-46zM111 815h52v-65h-52v65z" />
    <glyph glyph-name="zdotaccent" unicode="&#x17c;" horiz-adv-x="261" 
d="M226 0h-191v28l137 432h-131v40h180v-29l-136 -431h141v-40zM104 650h52v-65h-52v65z" />
    <glyph glyph-name="Zcaron" unicode="&#x17d;" horiz-adv-x="274" 
d="M239 0h-204v30l150 624h-149v46h201v-30l-150 -624h152v-46zM157 750h-42l-55 125h34l42 -83l42 83h35z" />
    <glyph glyph-name="zcaron" unicode="&#x17e;" horiz-adv-x="261" 
d="M226 0h-191v28l137 432h-131v40h180v-29l-136 -431h141v-40zM151 550h-42l-55 125h34l42 -83l42 83h35z" />
    <glyph glyph-name="florin" unicode="&#x192;" horiz-adv-x="234" 
d="M-11 -119v40q14 -6 35 -6q30 0 42 15t12 53v477h-46v40h46v97q0 67 20.5 95t78.5 28q22 0 37 -6v-40q-14 6 -36 6q-31 0 -42.5 -15t-11.5 -53v-112h77v-40h-77v-460q0 -69 -19.5 -97t-79.5 -28q-21 0 -36 6z" />
    <glyph glyph-name="Scommaaccent" unicode="&#x218;" horiz-adv-x="323" 
d="M273 510h-48v77q0 80 -63 80q-37 0 -50.5 -20.5t-13.5 -59.5v-58q0 -35 9.5 -60.5t25 -41t34 -28.5t37.5 -28.5t34.5 -35.5t25 -55t9.5 -82v-85q0 -60 -23.5 -91.5t-87.5 -31.5t-88 31.5t-24 91.5v87h48v-87q0 -80 64 -80q36 0 49.5 20.5t13.5 59.5v85q0 43 -9.5 73.5
t-25 48.5t-34 32t-37.5 28t-34.5 31t-25 47t-9.5 71v58q0 60 24 91.5t88 31.5t87.5 -31.5t23.5 -91.5v-77zM134 -48h53l-23 -122h-30v122z" />
    <glyph glyph-name="scommaaccent" unicode="&#x219;" horiz-adv-x="296" 
d="M206 103v41q0 29 -12 49.5t-30 31.5t-38.5 24.5t-38.5 26.5t-30 39.5t-12 62.5v18q0 56 23 85t80 29q58 0 80.5 -28.5t22.5 -85.5v-58h-45v58q0 39 -13.5 56.5t-44.5 17.5q-32 0 -45 -17.5t-13 -56.5v-18q0 -36 16.5 -60t40 -37t47.5 -27t40.5 -41t16.5 -68v-42
q0 -57 -22.5 -85t-80.5 -28t-80.5 28t-22.5 85v69h45v-69q0 -39 13 -56t45 -17t45 17t13 56zM121 -48h53l-23 -122h-30v122z" />
    <glyph glyph-name="circumflex" unicode="&#x2c6;" horiz-adv-x="243" 
d="M100 675h42l56 -125h-35l-42 83l-42 -83h-34z" />
    <glyph glyph-name="caron" unicode="&#x2c7;" horiz-adv-x="243" 
d="M142 550h-42l-55 125h34l42 -83l42 83h35z" />
    <glyph glyph-name="breve" unicode="&#x2d8;" horiz-adv-x="243" 
d="M165 654h33q0 -99 -77 -99q-76 0 -76 99h32q0 -63 44 -63t44 63z" />
    <glyph glyph-name="dotaccent" unicode="&#x2d9;" horiz-adv-x="144" 
d="M46 650h52v-65h-52v65z" />
    <glyph glyph-name="ring" unicode="&#x2da;" horiz-adv-x="223" 
d="M178 624q0 -75 -67 -75q-66 0 -66 75q0 76 66 76q67 0 67 -76zM146 624q0 48 -35 48q-34 0 -34 -48q0 -47 34 -47q35 0 35 47z" />
    <glyph glyph-name="ogonek" unicode="&#x2db;" horiz-adv-x="191" 
d="M141 -170h-12q-78 0 -78 65q0 61 58 105h32q-51 -38 -51 -92q0 -36 39 -36h12v-42z" />
    <glyph glyph-name="tilde" unicode="&#x2dc;" horiz-adv-x="304" 
d="M200 570q-28 0 -52.5 23.5t-41.5 23.5q-30 0 -30 -37h-31q0 38 13 56.5t46 18.5q27 0 51.5 -23.5t42.5 -23.5q17 0 23.5 9t6.5 28h31q0 -39 -13.5 -57t-45.5 -18z" />
    <glyph glyph-name="hungarumlaut" unicode="&#x2dd;" horiz-adv-x="259" 
d="M68 675h47l-37 -125h-33zM167 675h47l-47 -125h-33z" />
    <glyph glyph-name="pi" unicode="&#x3c0;" horiz-adv-x="335" 
d="M305 500v-40h-45v-460h-46v460h-93v-460h-46v460h-45v40h275z" />
    <glyph glyph-name="Bdotaccent" unicode="&#x1e02;" horiz-adv-x="347" 
d="M65 0v700h104q67 0 92.5 -25.5t25.5 -82.5v-147q0 -73 -59 -91q64 -18 64 -94v-145q0 -59 -25 -87t-93 -28h-109zM113 331v-285h58q42 0 57.5 17t15.5 53v146q0 69 -72 69h-59zM113 654v-279h53q40 0 56.5 17.5t16.5 51.5v142q0 36 -16 52t-55 16h-55zM134 815h52v-65
h-52v65z" />
    <glyph glyph-name="bdotaccent" unicode="&#x1e03;" horiz-adv-x="319" 
d="M101 390v-283q0 -77 63 -77q59 0 59 76v288q0 76 -59 76q-63 0 -63 -80zM269 394v-290q0 -58 -22.5 -86t-74.5 -28q-55 0 -77 46l-13 -36h-27v710h46v-242q23 42 73 42q51 0 73 -28t22 -88zM154 650h52v-65h-52v65z" />
    <glyph glyph-name="Ddotaccent" unicode="&#x1e0a;" horiz-adv-x="352" 
d="M65 0v700h105q68 0 95 -31t27 -90v-458q0 -59 -26 -90t-94 -31h-107zM113 654v-608h57q42 0 58 19t16 56v458q0 37 -16.5 56t-58.5 19h-56zM136 815h52v-65h-52v65z" />
    <glyph glyph-name="ddotaccent" unicode="&#x1e0b;" 
d="M223 107v283q0 80 -63 80q-59 0 -59 -76v-288q0 -76 59 -76q63 0 63 77zM55 104v290q0 60 22 88t73 28q50 0 73 -42v242h46v-710h-27l-13 36q-22 -46 -77 -46q-52 0 -74.5 28t-22.5 86zM116 650h52v-65h-52v65z" />
    <glyph glyph-name="Fdotaccent" unicode="&#x1e1e;" horiz-adv-x="285" 
d="M113 0h-48v700h185v-46h-137v-279h118v-44h-118v-331zM127 815h52v-65h-52v65z" />
    <glyph glyph-name="fdotaccent" unicode="&#x1e1f;" horiz-adv-x="226" 
d="M170 720q21 0 36 -6v-40q-14 6 -35 6q-31 0 -42.5 -14.5t-11.5 -53.5v-112h77v-40h-77v-460h-46v460h-46v40h46v112q0 57 21.5 82.5t77.5 25.5zM113 850h52v-65h-52v65z" />
    <glyph glyph-name="Mdotaccent" unicode="&#x1e40;" horiz-adv-x="473" 
d="M236 87h1l105 613h66v-700h-46v249q0 55 7 373l-109 -622h-47l-109 622q7 -326 7 -373v-249h-46v700h66zM210 815h52v-65h-52v65z" />
    <glyph glyph-name="mdotaccent" unicode="&#x1e41;" horiz-adv-x="490" 
d="M269 0h-46v396q0 74 -59 74q-63 0 -63 -75v-395h-46v500h27l13 -37q23 47 78 47q61 0 81 -48q25 48 86 48q51 0 74 -27.5t23 -84.5v-398h-46v396q0 74 -59 74q-63 0 -63 -73v-397zM219 650h52v-65h-52v65z" />
    <glyph glyph-name="Pdotaccent" unicode="&#x1e56;" horiz-adv-x="326" 
d="M65 0v700h101q68 0 94 -31t26 -90v-155q0 -119 -122 -119h-51v-305h-48zM113 654v-305h50q42 0 58.5 19t16.5 56v155q0 37 -16 56t-58 19h-51zM137 815h52v-65h-52v65z" />
    <glyph glyph-name="pdotaccent" unicode="&#x1e57;" 
d="M101 393v-283q0 -80 63 -80q59 0 59 76v288q0 76 -59 76q-63 0 -63 -77zM269 396v-290q0 -60 -22 -88t-73 -28q-50 0 -73 42v-192h-46v660h27l13 -36q22 46 77 46q52 0 74.5 -28t22.5 -86zM136 650h52v-65h-52v65z" />
    <glyph glyph-name="Sdotaccent" unicode="&#x1e60;" horiz-adv-x="323" 
d="M273 510h-48v77q0 80 -63 80q-37 0 -50.5 -20.5t-13.5 -59.5v-58q0 -35 9.5 -60.5t25 -41t34 -28.5t37.5 -28.5t34.5 -35.5t25 -55t9.5 -82v-85q0 -60 -23.5 -91.5t-87.5 -31.5t-88 31.5t-24 91.5v87h48v-87q0 -80 64 -80q36 0 49.5 20.5t13.5 59.5v85q0 43 -9.5 73.5
t-25 48.5t-34 32t-37.5 28t-34.5 31t-25 47t-9.5 71v58q0 60 24 91.5t88 31.5t87.5 -31.5t23.5 -91.5v-77zM135 815h52v-65h-52v65z" />
    <glyph glyph-name="sdotaccent" unicode="&#x1e61;" horiz-adv-x="296" 
d="M206 103v41q0 29 -12 49.5t-30 31.5t-38.5 24.5t-38.5 26.5t-30 39.5t-12 62.5v18q0 56 23 85t80 29q58 0 80.5 -28.5t22.5 -85.5v-58h-45v58q0 39 -13.5 56.5t-44.5 17.5q-32 0 -45 -17.5t-13 -56.5v-18q0 -36 16.5 -60t40 -37t47.5 -27t40.5 -41t16.5 -68v-42
q0 -57 -22.5 -85t-80.5 -28t-80.5 28t-22.5 85v69h45v-69q0 -39 13 -56t45 -17t45 17t13 56zM122 650h52v-65h-52v65z" />
    <glyph glyph-name="Tdotaccent" unicode="&#x1e6a;" horiz-adv-x="270" 
d="M159 654v-654h-48v654h-86v46h220v-46h-86zM109 815h52v-65h-52v65z" />
    <glyph glyph-name="tdotaccent" unicode="&#x1e6b;" horiz-adv-x="237" 
d="M207 36v-39q-16 -7 -37 -7q-54 0 -75.5 25.5t-21.5 82.5v362h-48v40h48v132q7 2 22.5 6t23.5 7v-145h81v-40h-81v-362q0 -38 11.5 -53t41.5 -15q19 0 35 6zM71 757h52v-65h-52v65z" />
    <glyph glyph-name="Wgrave" unicode="&#x1e80;" horiz-adv-x="531" 
d="M349 0l-84 602l-84 -602h-52l-94 700h49l72 -601l84 601h50l84 -601l72 601h49l-94 -700h-52zM188 875h47l43 -125h-33z" />
    <glyph glyph-name="wgrave" unicode="&#x1e81;" horiz-adv-x="463" 
d="M232 424l-69 -424h-52l-82 500h47l62 -430l69 430h50l69 -430l62 430h47l-82 -500h-52zM172 675h47l43 -125h-33z" />
    <glyph glyph-name="Wacute" unicode="&#x1e82;" horiz-adv-x="531" 
d="M349 0l-84 602l-84 -602h-52l-94 700h49l72 -601l84 601h50l84 -601l72 601h49l-94 -700h-52zM290 875h47l-57 -125h-33z" />
    <glyph glyph-name="wacute" unicode="&#x1e83;" horiz-adv-x="463" 
d="M232 424l-69 -424h-52l-82 500h47l62 -430l69 430h50l69 -430l62 430h47l-82 -500h-52zM259 675h47l-57 -125h-33z" />
    <glyph glyph-name="Wdieresis" unicode="&#x1e84;" horiz-adv-x="531" 
d="M349 0l-84 602l-84 -602h-52l-94 700h49l72 -601l84 601h50l84 -601l72 601h49l-94 -700h-52zM186 816h52v-66h-52v66zM292 816h52v-66h-52v66z" />
    <glyph glyph-name="wdieresis" unicode="&#x1e85;" horiz-adv-x="463" 
d="M232 424l-69 -424h-52l-82 500h47l62 -430l69 430h50l69 -430l62 430h47l-82 -500h-52zM152 650h52v-65h-52v65zM258 650h52v-65h-52v65z" />
    <glyph glyph-name="Ygrave" unicode="&#x1ef2;" horiz-adv-x="299" 
d="M173 0h-48v299l-100 401h50l74 -333l74 333h51l-101 -401v-299zM78 875h47l43 -125h-33z" />
    <glyph glyph-name="ygrave" unicode="&#x1ef3;" horiz-adv-x="302" 
d="M56 -170q-23 0 -36 5v42q16 -7 36 -7q50 0 63 63l13 66l-102 501h48l76 -416l75 416h48l-114 -569q-11 -54 -34.5 -77.5t-72.5 -23.5zM98 675h47l43 -125h-33z" />
    <glyph glyph-name="endash" unicode="&#x2013;" horiz-adv-x="360" 
d="M45 262v36h270v-36h-270z" />
    <glyph glyph-name="emdash" unicode="&#x2014;" horiz-adv-x="520" 
d="M45 266v28h430v-28h-430z" />
    <glyph glyph-name="quoteleft" unicode="&#x2018;" horiz-adv-x="147" 
d="M43 710h59v-195h-28z" />
    <glyph glyph-name="quoteright" unicode="&#x2019;" horiz-adv-x="144" 
d="M45 710h59l-31 -195h-28v195z" />
    <glyph glyph-name="quotesinglbase" unicode="&#x201a;" horiz-adv-x="167" 
d="M55 102h59l-31 -195h-28v195z" />
    <glyph glyph-name="quotedblleft" unicode="&#x201c;" horiz-adv-x="255" 
d="M45 710h59v-195h-28zM151 710h59v-195h-28z" />
    <glyph glyph-name="quotedblright" unicode="&#x201d;" horiz-adv-x="255" 
d="M151 710h59l-31 -195h-28v195zM45 710h59l-31 -195h-28v195z" />
    <glyph glyph-name="quotedblbase" unicode="&#x201e;" horiz-adv-x="271" 
d="M159 102h59l-31 -195h-28v195zM53 102h59l-31 -195h-28v195z" />
    <glyph glyph-name="dagger" unicode="&#x2020;" horiz-adv-x="248" 
d="M45 583v27h65v100h28v-100h65v-27h-65v-235h-28v235h-65z" />
    <glyph glyph-name="daggerdbl" unicode="&#x2021;" horiz-adv-x="248" 
d="M45 448v26h65v110h-65v26h65v100h28v-100h65v-26h-65v-110h65v-26h-65v-100h-28v100h-65z" />
    <glyph glyph-name="bullet" unicode="&#x2022;" horiz-adv-x="260" 
d="M45 283q0 35 25 60t60 25t60 -25t25 -60t-25 -60t-60 -25t-60 25t-25 60z" />
    <glyph glyph-name="ellipsis" unicode="&#x2026;" horiz-adv-x="426" 
d="M55 66h56v-66h-56v66zM185 66h56v-66h-56v66zM315 66h56v-66h-56v66z" />
    <glyph glyph-name="perthousand" unicode="&#x2030;" horiz-adv-x="566" 
d="M128 435q-44 0 -61.5 24t-17.5 78v70q0 54 17.5 78.5t61.5 24.5t61 -24t17 -79v-70q0 -54 -17 -78t-61 -24zM128 679q-25 0 -34.5 -15.5t-9.5 -55.5v-72q0 -40 9.5 -55t34.5 -15t34.5 15t9.5 55v72q0 40 -9.5 55.5t-34.5 15.5zM314 234q-25 0 -34.5 -15.5t-9.5 -55.5v-72
q0 -40 9.5 -55t34.5 -15t34.5 15t9.5 55v72q0 40 -9.5 55.5t-34.5 15.5zM439 234q-25 0 -34.5 -15.5t-9.5 -55.5v-72q0 -40 9.5 -55t34.5 -15t34.5 15t9.5 55v72q0 40 -9.5 55.5t-34.5 15.5zM313 -10q-44 0 -61 24t-17 78v70q0 55 17 79t61 24q47 0 63 -34q16 34 64 34
q44 0 60.5 -24t16.5 -79v-70q0 -54 -16.5 -78t-60.5 -24q-48 0 -64 34q-16 -34 -63 -34zM386 700l-294 -700h-37l295 700h36z" />
    <glyph glyph-name="guilsinglleft" unicode="&#x2039;" horiz-adv-x="245" 
d="M45 250l106 185h49l-105 -185l105 -185h-49z" />
    <glyph glyph-name="guilsinglright" unicode="&#x203a;" horiz-adv-x="245" 
d="M94 435l106 -185l-106 -185h-49l105 185l-105 185h49z" />
    <glyph glyph-name="Euro" unicode="&#x20ac;" horiz-adv-x="375" 
d="M35 313h50v82h-50v30h50v163q0 59 25.5 90.5t87.5 31.5q112 0 112 -122v-78h-47v78q0 79 -65 79t-65 -79v-163h125l-7 -30h-118v-82h99q-3 -10 -7 -30h-92v-172q0 -38 14 -58t51 -20q65 0 65 79v88h47v-88q0 -122 -112 -122q-62 0 -87.5 31.5t-25.5 90.5v171h-50v30z" />
    <glyph glyph-name="trademark" unicode="&#x2122;" horiz-adv-x="352" 
d="M105 680v-180h-21v180h-39v20h98v-20h-38zM242 547h-15l-34 103v-150h-21v200h22l40 -119l41 119h22v-200h-21v150z" />
    <glyph glyph-name="onethird" unicode="&#x2153;" horiz-adv-x="244" 
d="M172 107v-58q0 -53 -49 -53t-49 53v32h23v-26q0 -37 26 -37q25 0 25 31v53q0 35 -24 35h-17v23h17q22 0 22 28v51q0 37 -24 37q-25 0 -25 -30v-35h-23v35q0 52 48 52t48 -52v-57q0 -30 -20 -40q22 -12 22 -42zM50 361h144v-23h-144v23zM134 700v-271h26v-23h-77v23h27
v226h-28v16q32 0 32 29h20z" />
    <glyph glyph-name="twothirds" unicode="&#x2154;" horiz-adv-x="244" 
d="M50 361h144v-23h-144v23zM74 406v37q0 33 11.5 59t25 40t25 35t11.5 44v30q0 31 -25 31q-24 0 -24 -31v-36h-25v36q0 53 49 53t49 -53v-29q0 -43 -36.5 -89t-36.5 -89v-15h75v-23h-99zM172 107v-58q0 -53 -49 -53t-49 53v32h23v-26q0 -37 26 -37q25 0 25 31v53
q0 35 -24 35h-17v23h17q22 0 22 28v51q0 37 -24 37q-25 0 -25 -30v-35h-23v35q0 52 48 52t48 -52v-57q0 -30 -20 -40q22 -12 22 -42z" />
    <glyph glyph-name="oneeighth" unicode="&#x215b;" horiz-adv-x="244" 
d="M50 361h144v-23h-144v23zM122 -4q-50 0 -50 52v60q0 28 22 41q-20 11 -20 39v58q0 52 48 52t48 -52v-58q0 -29 -19 -39q21 -12 21 -41v-60q0 -52 -50 -52zM122 276q-24 0 -24 -35v-49q0 -34 24 -34q21 0 24 21v62q0 35 -24 35zM122 138q-26 0 -26 -35v-50q0 -36 26 -36
t26 36v50q0 35 -26 35zM134 700v-271h26v-23h-77v23h27v226h-28v16q32 0 32 29h20z" />
    <glyph glyph-name="threeeighths" unicode="&#x215c;" horiz-adv-x="244" 
d="M50 361h144v-23h-144v23zM122 -4q-50 0 -50 52v60q0 28 22 41q-20 11 -20 39v58q0 52 48 52t48 -52v-58q0 -29 -19 -39q21 -12 21 -41v-60q0 -52 -50 -52zM122 276q-24 0 -24 -35v-49q0 -34 24 -34q21 0 24 21v62q0 35 -24 35zM122 138q-26 0 -26 -35v-50q0 -36 26 -36
t26 36v50q0 35 -26 35zM172 513v-58q0 -53 -49 -53t-49 53v32h23v-26q0 -37 26 -37q25 0 25 31v53q0 35 -24 35h-17v23h17q22 0 22 28v51q0 37 -24 37q-25 0 -25 -30v-35h-23v35q0 52 48 52t48 -52v-57q0 -30 -20 -40q22 -12 22 -42z" />
    <glyph glyph-name="fiveeighths" unicode="&#x215d;" horiz-adv-x="244" 
d="M50 361h144v-23h-144v23zM105 676q-1 -17 -3 -50.5t-2 -50.5q12 12 29 12q43 0 43 -52v-79q0 -54 -50 -54t-50 54v36h24v-36q0 -32 26 -32q25 0 25 32v79q0 30 -23 30q-18 0 -29 -16h-20l8 151h84v-24h-62zM122 -4q-50 0 -50 52v60q0 28 22 41q-20 11 -20 39v58
q0 52 48 52t48 -52v-58q0 -29 -19 -39q21 -12 21 -41v-60q0 -52 -50 -52zM122 276q-24 0 -24 -35v-49q0 -34 24 -34q21 0 24 21v62q0 35 -24 35zM122 138q-26 0 -26 -35v-50q0 -36 26 -36t26 36v50q0 35 -26 35z" />
    <glyph glyph-name="seveneighths" unicode="&#x215e;" horiz-adv-x="244" 
d="M50 361h144v-23h-144v23zM132 406h-28q0 150 43 270h-74v24h99v-19q-25 -76 -32.5 -126.5t-7.5 -148.5zM122 -4q-50 0 -50 52v60q0 28 22 41q-20 11 -20 39v58q0 52 48 52t48 -52v-58q0 -29 -19 -39q21 -12 21 -41v-60q0 -52 -50 -52zM122 276q-24 0 -24 -35v-49
q0 -34 24 -34q21 0 24 21v62q0 35 -24 35zM122 138q-26 0 -26 -35v-50q0 -36 26 -36t26 36v50q0 35 -26 35z" />
    <glyph glyph-name="partialdiff" unicode="&#x2202;" horiz-adv-x="336" 
d="M166 367q-63 0 -63 -75v-180q0 -79 65 -79t65 79v207q-17 48 -67 48zM233 375q-1 105 -29 177t-93 148h54q64 -76 90 -151.5t26 -185.5v-251q0 -59 -26 -90.5t-87 -31.5t-87 31.5t-26 90.5v180q0 59 23 88t77 29q46 0 78 -34z" />
    <glyph glyph-name="minus" unicode="&#x2212;" horiz-adv-x="370" 
d="M55 298h260v-36h-260v36z" />
    <glyph glyph-name="integral" unicode="&#x222b;" horiz-adv-x="235" 
d="M120 612v-614q0 -57 -20.5 -82.5t-78.5 -25.5q-22 0 -37 6v40q13 -6 36 -6q31 0 42.5 14.5t11.5 53.5v614q0 57 20.5 82.5t78.5 25.5q22 0 37 -6v-40q-13 6 -36 6q-31 0 -42.5 -14.5t-11.5 -53.5z" />
    <glyph glyph-name="approxequal" unicode="&#x2248;" horiz-adv-x="370" 
d="M55 330v36q26 26 65 26q31 0 64 -19t66 -19q37 0 65 28v-36q-28 -28 -65 -28q-33 0 -66 19t-64 19q-39 0 -65 -26zM55 178v36q26 26 65 26q31 0 64 -19t66 -19q37 0 65 28v-36q-28 -28 -65 -28q-33 0 -66 19t-64 19q-39 0 -65 -26z" />
    <glyph glyph-name="notequal" unicode="&#x2260;" horiz-adv-x="370" 
d="M315 186h-143l-42 -140h-33l42 140h-84v36h95l36 116h-131v36h142l43 140h33l-43 -140h85v-36h-96l-36 -116h132v-36z" />
    <glyph glyph-name="lessequal" unicode="&#x2264;" horiz-adv-x="276" 
d="M50 126h171v-36h-171v36zM45 338l128 145h46l-128 -145l128 -145h-46z" />
    <glyph glyph-name="greaterequal" unicode="&#x2265;" horiz-adv-x="276" 
d="M55 126h171v-36h-171v36zM103 483l128 -145l-128 -145h-46l128 145l-128 145h46z" />
    <glyph glyph-name="CR" horiz-adv-x="0" 
 />
    <glyph glyph-name="at.case" horiz-adv-x="530" 
d="M352 147h-26l-10 29q-17 -39 -61 -39q-82 0 -82 93v56q0 49 30.5 76.5t111.5 49.5v59q0 60 -50 60q-51 0 -51 -60v-20h-37v21q0 92 88 92q87 0 87 -93v-324zM210 286v-56q0 -61 54 -61q51 0 51 63v151q-61 -18 -83 -39.5t-22 -57.5zM265 13q175 0 175 199v276
q0 199 -175 199t-175 -199v-276q0 -92 39 -145.5t136 -53.5zM265 -20q-210 0 -210 232v276q0 232 210 232t210 -232v-276q0 -232 -210 -232z" />
    <glyph glyph-name="caron.salt" horiz-adv-x="136" 
d="M45 710h46l-24 -160h-22v160z" />
    <glyph glyph-name="commaaccent" horiz-adv-x="143" 
d="M45 -48h53l-23 -122h-30v122z" />
    <glyph glyph-name="acute.case" horiz-adv-x="200" 
d="M98 875h47l-57 -125h-33z" />
    <glyph glyph-name="grave.case" horiz-adv-x="200" 
d="M55 875h47l43 -125h-33z" />
    <glyph glyph-name="circumflex.case" horiz-adv-x="200" 
d="M79 875h42l56 -125h-35l-42 83l-42 -83h-34z" />
    <glyph glyph-name="dieresis.case" horiz-adv-x="200" 
d="M21 816h52v-66h-52v66zM127 816h52v-66h-52v66z" />
    <glyph glyph-name="tilde.case" horiz-adv-x="200" 
d="M148 750q-28 0 -52.5 23.5t-41.5 23.5q-30 0 -30 -37h-31q0 38 13 56.5t46 18.5q27 0 51.5 -23.5t42.5 -23.5q17 0 23.5 9t6.5 28h31q0 -39 -13.5 -57t-45.5 -18z" />
    <glyph glyph-name="caron.case" horiz-adv-x="200" 
d="M121 750h-42l-55 125h34l42 -83l42 83h35z" />
    <glyph glyph-name="ring.case" horiz-adv-x="200" 
d="M167 815q0 -75 -67 -75q-66 0 -66 75q0 76 66 76q67 0 67 -76zM135 815q0 48 -35 48q-34 0 -34 -48q0 -47 34 -47q35 0 35 47z" />
    <glyph glyph-name="breve.case" horiz-adv-x="200" 
d="M144 842h33q0 -99 -77 -99q-76 0 -76 99h32q0 -63 44 -63t44 63z" />
    <glyph glyph-name="macron.case" horiz-adv-x="200" 
d="M15 750v36h170v-36h-170z" />
    <glyph glyph-name="dotaccent.case" horiz-adv-x="200" 
d="M74 815h52v-65h-52v65z" />
    <glyph glyph-name="hungarumlaut.case" horiz-adv-x="200" 
d="M39 875h47l-37 -125h-33zM138 875h47l-47 -125h-33z" />
    <glyph glyph-name="one.tnum" horiz-adv-x="340" 
d="M193 700v-654h61v-46h-170v46h61v554h-64v32q41 0 57.5 17t16.5 51h38z" />
    <glyph glyph-name="two.tnum" horiz-adv-x="340" 
d="M57 0v100q0 65 18 115.5t43.5 82.5t51 61t43.5 68.5t18 87.5v74q0 77 -63 77q-36 0 -49.5 -20t-13.5 -57v-79h-48v79q0 59 24 90t87 31t87 -31t24 -90v-73q0 -55 -18 -98t-43.5 -73.5t-51 -61.5t-43.5 -77t-18 -104v-56h177v-46h-225z" />
    <glyph glyph-name="three.tnum" horiz-adv-x="340" 
d="M283 256v-144q0 -59 -25 -90.5t-87 -31.5t-86.5 31.5t-24.5 90.5v88h47v-88q0 -79 64 -79t64 79v142q0 77 -64 77h-32v44h32q34 0 47 18.5t13 53.5v144q0 75 -62 75q-61 0 -61 -75v-81h-47v81q0 58 24 88.5t84 30.5t85 -30.5t25 -88.5v-140q0 -78 -56 -97q60 -19 60 -98z
" />
    <glyph glyph-name="four.tnum" horiz-adv-x="340" 
d="M201 0v161h-166v50l151 489h63v-495h46v-44h-46v-161h-48zM75 205h126v127q0 50 0.5 147t0.5 151z" />
    <glyph glyph-name="five.tnum" horiz-adv-x="340" 
d="M177 381q-44 0 -71 -41h-40l17 360h191v-46h-148l-12 -264q32 32 74 32q53 0 75 -28.5t22 -88.5v-193q0 -59 -25.5 -90.5t-87.5 -31.5t-87.5 31.5t-25.5 90.5v88h48v-88q0 -79 65 -79t65 79v193q0 38 -13 57t-47 19z" />
    <glyph glyph-name="six.tnum" horiz-adv-x="340" 
d="M174 667q-65 0 -65 -79v-213q31 34 77 34q54 0 77.5 -29t23.5 -88v-180q0 -59 -26 -90.5t-87 -31.5t-87 31.5t-26 90.5v476q0 122 113 122t113 -122v-78h-48v78q0 79 -65 79zM176 367q-50 0 -67 -46v-209q0 -79 65 -79t65 79v180q0 75 -63 75z" />
    <glyph glyph-name="seven.tnum" horiz-adv-x="340" 
d="M181 0h-52q0 194 23.5 343.5t83.5 310.5h-187v46h235v-37q-62 -187 -82.5 -312.5t-20.5 -350.5z" />
    <glyph glyph-name="eight.tnum" horiz-adv-x="340" 
d="M169 710q60 0 84 -30.5t24 -88.5v-140q0 -78 -56 -97q37 -12 49 -39.5t12 -77.5v-125q0 -59 -25.5 -90.5t-87.5 -31.5t-87.5 31.5t-25.5 90.5v125q0 50 12 77.5t49 39.5q-56 19 -56 97v140q0 58 24 88.5t84 30.5zM169 33q39 0 52 23.5t13 68.5v119q0 44 -12 66.5
t-53 22.5t-53 -22.5t-12 -66.5v-119q0 -45 13 -68.5t52 -23.5zM169 667q-37 0 -49 -23t-12 -66v-119q0 -42 11.5 -63.5t49.5 -21.5t49.5 21.5t11.5 63.5v119q0 43 -12 66t-49 23z" />
    <glyph glyph-name="nine.tnum" horiz-adv-x="340" 
d="M170 33q65 0 65 79v223q-32 -34 -78 -34q-54 0 -77 28.5t-23 88.5v170q0 122 113 122t113 -122v-476q0 -59 -26 -90.5t-87 -31.5t-87 31.5t-26 90.5v88h48v-88q0 -39 15 -59t50 -20zM168 342q49 0 67 46v200q0 79 -65 79t-65 -79v-171q0 -75 63 -75z" />
    <glyph glyph-name="zero.tnum" horiz-adv-x="340" 
d="M168 33q65 0 65 79v476q0 79 -65 79t-65 -79v-476q0 -79 65 -79zM168 710q62 0 87.5 -31.5t25.5 -90.5v-476q0 -59 -25.5 -90.5t-87.5 -31.5t-87.5 31.5t-25.5 90.5v476q0 59 25.5 90.5t87.5 31.5z" />
    <glyph glyph-name="a.smcp" horiz-adv-x="307" 
d="M181 595l96 -595h-48l-21 140h-110l-21 -140h-47l96 595h55zM154 532l-51 -352h101z" />
    <glyph glyph-name="b.smcp" horiz-adv-x="338" 
d="M65 0v595h100q64 0 89 -24t25 -73v-116q0 -66 -57 -81q61 -15 61 -84v-114q0 -51 -24 -77t-89 -26h-105zM111 279v-235h56q40 0 55 14t15 46v115q0 60 -69 60h-57zM111 551v-230h51q70 0 70 60v112q0 30 -15 44t-53 14h-53z" />
    <glyph glyph-name="c.smcp" horiz-adv-x="316" 
d="M55 103v387q0 113 108 113q109 0 109 -113v-57h-45v57q0 31 -16 51.5t-48 20.5q-62 0 -62 -72v-387q0 -70 62 -70q32 0 48 20t16 50v67h45v-67q0 -112 -109 -112q-108 0 -108 112z" />
    <glyph glyph-name="d.smcp" horiz-adv-x="343" 
d="M65 0v595h101q65 0 91 -28t26 -79v-381q0 -51 -25.5 -79t-89.5 -28h-103zM111 551v-507h55q40 0 55.5 16.5t15.5 46.5v381q0 63 -72 63h-54z" />
    <glyph glyph-name="e.smcp" horiz-adv-x="292" 
d="M111 279v-235h139v-44h-185v595h185v-44h-139v-230h120v-42h-120z" />
    <glyph glyph-name="f.smcp" horiz-adv-x="278" 
d="M111 0h-46v595h178v-44h-132v-230h114v-42h-114v-279z" />
    <glyph glyph-name="g.smcp" horiz-adv-x="332" 
d="M230 104v175h-62v42h109v-217q0 -113 -109 -113q-108 0 -108 113v387q0 112 108 112t108 -112v-58h-46v58q0 71 -62 71t-62 -71v-387q0 -71 62 -71t62 71z" />
    <glyph glyph-name="h.smcp" horiz-adv-x="349" 
d="M111 279v-279h-46v595h46v-274h127v274h46v-595h-46v279h-127z" />
    <glyph glyph-name="i.smcp" horiz-adv-x="176" 
d="M65 0v595h46v-595h-46z" />
    <glyph glyph-name="j.smcp" horiz-adv-x="309" 
d="M198 595h46v-491q0 -53 -23 -83t-82 -30q-104 0 -104 113v66h46v-66q0 -71 58 -71q59 0 59 71v491z" />
    <glyph glyph-name="k.smcp" horiz-adv-x="318" 
d="M111 595v-276l128 276h52l-142 -295l149 -300h-52l-135 280v-280h-46v595h46z" />
    <glyph glyph-name="l.smcp" horiz-adv-x="249" 
d="M65 0v595h46v-551h113v-44h-159z" />
    <glyph glyph-name="m.smcp" horiz-adv-x="460" 
d="M230 78h1l98 517h66v-595h-44v212q0 83 6 317l-104 -529h-46l-104 529q7 -277 7 -317v-212h-45v595h66z" />
    <glyph glyph-name="n.smcp" horiz-adv-x="371" 
d="M105 500q6 -309 6 -318v-182h-46v595h49l156 -501q-6 312 -6 318v183h45v-595h-49z" />
    <glyph glyph-name="o.smcp" horiz-adv-x="327" 
d="M163 33q63 0 63 72v385q0 72 -63 72q-62 0 -62 -72v-385q0 -72 62 -72zM163 603q109 0 109 -113v-385q0 -114 -109 -114q-108 0 -108 114v385q0 113 108 113z" />
    <glyph glyph-name="p.smcp" horiz-adv-x="318" 
d="M65 0v595h97q65 0 90.5 -28.5t25.5 -79.5v-127q0 -49 -28 -79t-90 -30h-49v-251h-46zM111 551v-257h48q40 0 56 17t16 49v127q0 32 -15.5 48t-55.5 16h-49z" />
    <glyph glyph-name="q.smcp" horiz-adv-x="327" 
d="M246 -82h-15q-85 0 -88 75q-88 6 -88 112v385q0 113 108 113q109 0 109 -113v-385q0 -105 -90 -112q3 -42 53 -42h19zM163 33q63 0 63 72v385q0 72 -63 72q-62 0 -62 -72v-385q0 -72 62 -72z" />
    <glyph glyph-name="r.smcp" horiz-adv-x="327" 
d="M65 0v595h98q115 0 115 -113v-117q0 -41 -20.5 -70.5t-62.5 -35.5l112 -259h-51q-17 43 -52.5 128.5t-52.5 128.5h-40v-257h-46zM111 551v-252h48q40 0 56 17t16 49v117q0 33 -15.5 51t-55.5 18h-49z" />
    <glyph glyph-name="s.smcp" horiz-adv-x="314" 
d="M264 433h-46v56q0 73 -60 73q-62 0 -62 -73v-39q0 -40 17.5 -65.5t42 -40.5t49 -32.5t42 -53t17.5 -90.5v-62q0 -115 -106 -115q-61 0 -84.5 31t-23.5 84v64h46v-64q0 -73 62 -73q60 0 60 73v62q0 40 -12.5 68.5t-31 42.5t-40.5 29.5t-40.5 29.5t-31 43t-12.5 69v39
q0 53 23.5 83.5t84.5 30.5q60 0 83 -30.5t23 -83.5v-56z" />
    <glyph glyph-name="t.smcp" horiz-adv-x="261" 
d="M154 551v-551h-46v551h-83v44h211v-44h-82z" />
    <glyph glyph-name="u.smcp" horiz-adv-x="335" 
d="M229 595h46v-488q0 -116 -108 -116q-107 0 -107 116v488h46v-488q0 -74 61 -74q62 0 62 74v488z" />
    <glyph glyph-name="v.smcp" horiz-adv-x="307" 
d="M277 595l-97 -595h-52l-98 595h48l76 -512l75 512h48z" />
    <glyph glyph-name="w.smcp" horiz-adv-x="512" 
d="M336 0l-81 512l-80 -512h-50l-90 595h47l69 -511l80 511h48l81 -511l69 511h47l-90 -595h-50z" />
    <glyph glyph-name="x.smcp" horiz-adv-x="301" 
d="M82 595l69 -236l69 236h49l-94 -286l101 -309h-49l-76 258l-76 -258h-49l101 309l-94 286h49z" />
    <glyph glyph-name="y.smcp" horiz-adv-x="289" 
d="M167 0h-46v254l-96 341h48l71 -283l71 283h49l-97 -341v-254z" />
    <glyph glyph-name="z.smcp" horiz-adv-x="265" 
d="M230 0h-195v30l144 521h-143v44h193v-31l-144 -520h145v-44z" />
    <glyph glyph-name="one.smcp" horiz-adv-x="246" 
d="M148 595v-551h58v-44h-163v44h59v463h-62v30q39 0 55 14.5t16 43.5h37z" />
    <glyph glyph-name="two.smcp" horiz-adv-x="306" 
d="M50 0v85q0 47 12.5 85t31 62t40 48t40 44t31 49.5t12.5 64.5v53q0 70 -60 70q-61 0 -61 -70v-58h-46v58q0 112 107 112q106 0 106 -112v-52q0 -40 -12.5 -73t-31 -54t-40 -45.5t-40 -46.5t-31 -56.5t-12.5 -76.5v-43h170v-44h-216z" />
    <glyph glyph-name="three.smcp" 
d="M264 215v-113q0 -111 -107 -111t-107 111v68h45v-68q0 -35 13.5 -52.5t48.5 -17.5t48 17t13 53v111q0 66 -61 66h-31v42h31q32 0 44.5 16t12.5 46v111q0 67 -59 67t-59 -67v-61h-45v61q0 109 104 109q105 0 105 -109v-108q0 -69 -54 -85q58 -16 58 -86z" />
    <glyph glyph-name="four.smcp" horiz-adv-x="309" 
d="M189 0v135h-159v46l144 414h61v-421h44v-39h-44v-135h-46zM68 174h121v108q0 42 0.5 124t0.5 128z" />
    <glyph glyph-name="five.smcp" horiz-adv-x="327" 
d="M168 324q-43 0 -68 -35h-38l16 306h183v-44h-142l-11 -216q31 28 71 28q50 0 71.5 -26t21.5 -78v-156q0 -112 -109 -112q-108 0 -108 112v67h46v-67q0 -70 62 -70q63 0 63 70v156q0 33 -13 49t-45 16z" />
    <glyph glyph-name="six.smcp" horiz-adv-x="332" 
d="M168 563q-62 0 -62 -72v-172q33 31 74 31q52 0 74.5 -25.5t22.5 -76.5v-143q0 -114 -109 -114q-108 0 -108 114v386q0 112 108 112q109 0 109 -112v-58h-47v58q0 72 -62 72zM170 312q-48 0 -64 -39v-168q0 -72 62 -72t62 72v143q0 64 -60 64z" />
    <glyph glyph-name="seven.smcp" horiz-adv-x="264" 
d="M147 0h-50q0 169 20.5 292.5t77.5 258.5h-170v44h214v-36q-58 -153 -75 -257.5t-17 -301.5z" />
    <glyph glyph-name="eight.smcp" horiz-adv-x="327" 
d="M163 603q58 0 81 -27.5t23 -77.5v-110q0 -71 -54 -87q35 -10 47 -35.5t12 -69.5v-96q0 -109 -109 -109q-108 0 -108 109v96q0 44 11.5 69.5t46.5 35.5q-53 16 -53 87v110q0 50 23 77.5t80 27.5zM163 33q35 0 49 17t14 52v100q0 25 -3 40t-18 27.5t-42 12.5
q-39 0 -50.5 -20.5t-11.5 -59.5v-100q0 -35 14 -52t48 -17zM163 562q-34 0 -46 -17t-12 -52v-98q0 -37 11 -56.5t47 -19.5q37 0 48 19.5t11 56.5v98q0 35 -12.5 52t-46.5 17z" />
    <glyph glyph-name="nine.smcp" horiz-adv-x="327" 
d="M163 33q63 0 63 69v183q-34 -32 -75 -32q-51 0 -73.5 25.5t-22.5 76.5v137q0 111 108 111q109 0 109 -111v-390q0 -111 -109 -111q-108 0 -108 111v68h46v-68q0 -69 62 -69zM161 291q47 0 65 39v162q0 70 -63 70q-62 0 -62 -70v-138q0 -63 60 -63z" />
    <glyph glyph-name="zero.smcp" horiz-adv-x="327" 
d="M163 33q63 0 63 72v385q0 72 -63 72q-62 0 -62 -72v-385q0 -72 62 -72zM163 603q109 0 109 -113v-385q0 -114 -109 -114q-108 0 -108 114v385q0 113 108 113z" />
    <glyph glyph-name="exclam.smcp" horiz-adv-x="174" 
d="M59 66h56v-66h-56v66zM58 595h57l-12 -400h-33z" />
    <glyph glyph-name="exclamdown.smcp" horiz-adv-x="174" 
d="M115 529h-56v66h56v-66zM115 0h-57l12 400h33z" />
    <glyph glyph-name="question.smcp" horiz-adv-x="330" 
d="M224 445v44q0 30 -14 51t-46 21q-34 0 -46.5 -19t-12.5 -53v-56h-46v56q0 53 22 83.5t83 30.5t83.5 -30.5t22.5 -83.5v-43q0 -41 -9 -67t-21.5 -39.5t-25.5 -28t-22.5 -43t-10.5 -73.5h-34q0 51 8 84.5t19.5 48.5t22.5 27.5t19 34t8 55.5zM136 66h56v-66h-56v66z" />
    <glyph glyph-name="questiondown.smcp" horiz-adv-x="330" 
d="M105 150v-44q0 -30 14 -51t46 -21q34 0 46.5 19t12.5 53v56h46v-56q0 -53 -22 -83.5t-83 -30.5t-83.5 30.5t-22.5 83.5v43q0 41 9 67t21.5 39.5t25.5 28t22.5 43t10.5 73.5h34q0 -51 -8 -84.5t-19 -48.5t-22.5 -27.5t-19.5 -34t-8 -55.5zM193 529h-56v66h56v-66z" />
    <glyph glyph-name="ampersand.smcp" horiz-adv-x="387" 
d="M65 103v105q0 77 62 93q-62 15 -62 92v97q0 113 109 113q107 0 107 -113v-57h-45v57q0 72 -62 72q-63 0 -63 -72v-103q0 -66 68 -66h163v-42h-60v-181q0 -25 16 -40t44 -15v-43q-63 0 -83 38q-17 -47 -88 -47q-106 0 -106 112zM236 105v174h-57q-41 0 -54.5 -18.5
t-13.5 -56.5v-99q0 -72 62 -72q63 0 63 72z" />
    <glyph glyph-name="slash.smcp" horiz-adv-x="258" 
d="M34 -26l153 646h37l-154 -646h-36z" />
    <glyph glyph-name="backslash.smcp" horiz-adv-x="258" 
d="M70 620l154 -646h-37l-153 646h36z" />
    <glyph glyph-name="dollar.smcp" horiz-adv-x="328" 
d="M220 181v34q0 28 -16 46.5t-38.5 29.5t-45.5 23t-39 36t-16 61v18q0 95 84 102v64h32v-64q82 -6 82 -102v-41h-43v42q0 33 -13 48t-43 15q-55 0 -55 -63v-19q0 -29 16 -48t38.5 -29.5t45 -22.5t38.5 -35.5t16 -58.5v-35q0 -96 -82 -102v-80h-32v80q-84 6 -84 102v51h44
v-54q0 -33 11 -46.5t44 -13.5q31 0 43.5 15t12.5 47z" />
    <glyph glyph-name="cent.smcp" horiz-adv-x="335" 
d="M227 240h43v-56q0 -98 -87 -104v-80h-31v80q-87 6 -87 104v244q0 97 87 103v64h31v-64q87 -6 87 -103v-47h-43v47q0 65 -59 65q-33 0 -45.5 -16.5t-12.5 -48.5v-244q0 -32 12.5 -48.5t45.5 -16.5q59 0 59 65v56z" />
    <glyph glyph-name="sterling.smcp" horiz-adv-x="379" 
d="M47 283v31h63v177q0 52 23 82t84 30q106 0 106 -112v-58h-45v58q0 34 -13 52.5t-48 18.5t-48 -18.5t-13 -52.5v-177h76v-31h-76v-173q0 -33 13.5 -49.5t49.5 -16.5h105v-44h-105q-69 0 -87 41q-21 -41 -87 -41v44q36 0 50.5 17t14.5 49v173h-63z" />
    <glyph glyph-name="Euro.smcp" horiz-adv-x="364" 
d="M35 266h48v66h-48v29h48v131q0 111 108 111t108 -111v-59h-46v59q0 72 -62 72t-62 -72v-131h120l-7 -29h-113v-66h95q-2 -5 -4.5 -16.5t-2.5 -12.5h-88v-135q0 -71 62 -71t62 72v67h46v-67q0 -112 -108 -112t-108 112v134h-48v29z" />
    <glyph glyph-name="yen.smcp" horiz-adv-x="329" 
d="M187 0h-46v105h-81v29h81v63h-81v30h81v25q-64 228 -96 343h48l71 -289l71 289h49q-18 -63 -51 -179t-46 -164v-25h84v-30h-84v-63h84v-29h-84v-105z" />
    <glyph glyph-name="numbersign.smcp" horiz-adv-x="355" 
d="M205 0l8 167h-84l-8 -167h-29l8 167h-70v26h72l11 209h-70v26h71l9 167h29l-9 -167h84l9 167h29l-9 -167h69v-26h-70l-11 -209h68v-26h-70l-8 -167h-29zM142 402l-11 -209h84l11 209h-84z" />
    <glyph glyph-name="percent.smcp" horiz-adv-x="431" 
d="M372 595l-280 -595h-33l280 595h33zM129 350q-42 0 -58 22.5t-16 68.5v71q0 46 16 68.5t58 22.5q41 0 57.5 -22.5t16.5 -68.5v-71q0 -46 -16.5 -68.5t-57.5 -22.5zM302 -9q-42 0 -58 22.5t-16 68.5v71q0 46 16 68.5t58 22.5q41 0 57.5 -22.5t16.5 -68.5v-71
q0 -46 -16.5 -68.5t-57.5 -22.5zM129 575q-25 0 -34 -14t-9 -49v-71q0 -35 9 -49t34 -14q24 0 33.5 14.5t9.5 48.5v71q0 34 -9.5 48.5t-33.5 14.5zM302 216q-25 0 -34 -14t-9 -49v-71q0 -35 9 -49t34 -14q24 0 33.5 14.5t9.5 48.5v71q0 34 -9.5 48.5t-33.5 14.5z" />
    <glyph glyph-name="acute.smcp" horiz-adv-x="180" 
d="M88 765h47l-57 -125h-33z" />
    <glyph glyph-name="grave.smcp" horiz-adv-x="180" 
d="M45 765h47l43 -125h-33z" />
    <glyph glyph-name="circumflex.smcp" horiz-adv-x="243" 
d="M100 765h42l56 -125h-35l-42 83l-42 -83h-34z" />
    <glyph glyph-name="dieresis.smcp" horiz-adv-x="248" 
d="M45 724h52v-66h-52v66zM151 724h52v-66h-52v66z" />
    <glyph glyph-name="tilde.smcp" horiz-adv-x="304" 
d="M200 650q-28 0 -52.5 23.5t-41.5 23.5q-30 0 -30 -37h-31q0 38 13 56.5t46 18.5q27 0 51.5 -23.5t42.5 -23.5q17 0 23.5 9t6.5 28h31q0 -39 -13.5 -57t-45.5 -18z" />
    <glyph glyph-name="caron.smcp" horiz-adv-x="243" 
d="M142 640h-42l-55 125h34l42 -83l42 83h35z" />
    <glyph glyph-name="ring.smcp" horiz-adv-x="223" 
d="M178 710q0 -75 -67 -75q-66 0 -66 75q0 76 66 76q67 0 67 -76zM146 710q0 48 -35 48q-34 0 -34 -48q0 -47 34 -47q35 0 35 47z" />
    <glyph glyph-name="breve.smcp" horiz-adv-x="243" 
d="M165 742h33q0 -99 -77 -99q-76 0 -76 99h32q0 -63 44 -63t44 63z" />
    <glyph glyph-name="macron.smcp" horiz-adv-x="260" 
d="M45 673v36h170v-36h-170z" />
    <glyph glyph-name="dotaccent.smcp" horiz-adv-x="144" 
d="M45 729h54v-66h-54v66z" />
    <glyph glyph-name="hungarumlaut.smcp" horiz-adv-x="259" 
d="M68 765h47l-37 -125h-33zM167 765h47l-47 -125h-33z" />
    <glyph glyph-name="aacute.smcp" horiz-adv-x="307" 
d="M181 595l96 -595h-48l-21 140h-110l-21 -140h-47l96 595h55zM154 532l-51 -352h101zM180 765h47l-57 -125h-33z" />
    <glyph glyph-name="agrave.smcp" horiz-adv-x="307" 
d="M181 595l96 -595h-48l-21 140h-110l-21 -140h-47l96 595h55zM154 532l-51 -352h101zM81 765h47l43 -125h-33z" />
    <glyph glyph-name="acircumflex.smcp" horiz-adv-x="307" 
d="M181 595l96 -595h-48l-21 140h-110l-21 -140h-47l96 595h55zM154 532l-51 -352h101zM132 765h42l56 -125h-35l-42 83l-42 -83h-34z" />
    <glyph glyph-name="adieresis.smcp" horiz-adv-x="307" 
d="M181 595l96 -595h-48l-21 140h-110l-21 -140h-47l96 595h55zM154 532l-51 -352h101zM74 724h52v-66h-52v66zM180 724h52v-66h-52v66z" />
    <glyph glyph-name="atilde.smcp" horiz-adv-x="307" 
d="M181 595l96 -595h-48l-21 140h-110l-21 -140h-47l96 595h55zM154 532l-51 -352h101zM201 650q-28 0 -52.5 23.5t-41.5 23.5q-30 0 -30 -37h-31q0 38 13 56.5t46 18.5q27 0 51.5 -23.5t42.5 -23.5q17 0 23.5 9t6.5 28h31q0 -39 -13.5 -57t-45.5 -18z" />
    <glyph glyph-name="aring.smcp" horiz-adv-x="307" 
d="M181 595l96 -595h-48l-21 140h-110l-21 -140h-47l96 595h55zM154 532l-51 -352h101zM220 710q0 -75 -67 -75q-66 0 -66 75q0 76 66 76q67 0 67 -76zM188 710q0 48 -35 48q-34 0 -34 -48q0 -47 34 -47q35 0 35 47z" />
    <glyph glyph-name="amacron.smcp" horiz-adv-x="307" 
d="M181 595l96 -595h-48l-21 140h-110l-21 -140h-47l96 595h55zM154 532l-51 -352h101zM68 673v36h170v-36h-170z" />
    <glyph glyph-name="abreve.smcp" horiz-adv-x="307" 
d="M181 595l96 -595h-48l-21 140h-110l-21 -140h-47l96 595h55zM154 532l-51 -352h101zM197 742h33q0 -99 -77 -99q-76 0 -76 99h32q0 -63 44 -63t44 63z" />
    <glyph glyph-name="aogonek.smcp" horiz-adv-x="307" 
d="M277 -170h-12q-78 0 -78 65q0 50 44 94l-23 151h-110l-21 -140h-47l96 595h55l96 -595q-51 -38 -51 -92q0 -36 39 -36h12v-42zM154 532l-51 -352h101z" />
    <glyph glyph-name="ae.smcp" horiz-adv-x="446" 
d="M30 0l161 595h212v-44h-138v-230h119v-42h-119v-235h138v-44h-184v139h-104l-38 -139h-47zM124 180h95v362z" />
    <glyph glyph-name="bdotaccent.smcp" horiz-adv-x="338" 
d="M65 0v595h100q64 0 89 -24t25 -73v-116q0 -66 -57 -81q61 -15 61 -84v-114q0 -51 -24 -77t-89 -26h-105zM111 279v-235h56q40 0 55 14t15 46v115q0 60 -69 60h-57zM111 551v-230h51q70 0 70 60v112q0 30 -15 44t-53 14h-53zM129 729h54v-66h-54v66z" />
    <glyph glyph-name="cacute.smcp" horiz-adv-x="316" 
d="M55 103v387q0 113 108 113q109 0 109 -113v-57h-45v57q0 31 -16 51.5t-48 20.5q-62 0 -62 -72v-387q0 -70 62 -70q32 0 48 20t16 50v67h45v-67q0 -112 -109 -112q-108 0 -108 112zM189 765h47l-57 -125h-33z" />
    <glyph glyph-name="ccircumflex.smcp" horiz-adv-x="316" 
d="M55 103v387q0 113 108 113q109 0 109 -113v-57h-45v57q0 31 -16 51.5t-48 20.5q-62 0 -62 -72v-387q0 -70 62 -70q32 0 48 20t16 50v67h45v-67q0 -112 -109 -112q-108 0 -108 112zM141 765h42l56 -125h-35l-42 83l-42 -83h-34z" />
    <glyph glyph-name="ccaron.smcp" horiz-adv-x="316" 
d="M55 103v387q0 113 108 113q109 0 109 -113v-57h-45v57q0 31 -16 51.5t-48 20.5q-62 0 -62 -72v-387q0 -70 62 -70q32 0 48 20t16 50v67h45v-67q0 -112 -109 -112q-108 0 -108 112zM183 640h-42l-55 125h34l42 -83l42 83h35z" />
    <glyph glyph-name="ccedilla.smcp" horiz-adv-x="316" 
d="M128 -68l16 60q-89 9 -89 111v387q0 113 108 113q109 0 109 -113v-57h-45v57q0 31 -16 51.5t-48 20.5q-62 0 -62 -72v-387q0 -70 62 -70q32 0 48 20t16 50v67h45v-67q0 -107 -101 -112l-8 -33q67 -7 67 -63q0 -65 -86 -65h-44l8 31h34q49 0 49 35q0 36 -50 36h-13z" />
    <glyph glyph-name="cdotaccent.smcp" horiz-adv-x="316" 
d="M55 103v387q0 113 108 113q109 0 109 -113v-57h-45v57q0 31 -16 51.5t-48 20.5q-62 0 -62 -72v-387q0 -70 62 -70q32 0 48 20t16 50v67h45v-67q0 -112 -109 -112q-108 0 -108 112zM135 729h54v-66h-54v66z" />
    <glyph glyph-name="dcaron.smcp" horiz-adv-x="343" 
d="M65 0v595h101q65 0 91 -28t26 -79v-381q0 -51 -25.5 -79t-89.5 -28h-103zM111 551v-507h55q40 0 55.5 16.5t15.5 46.5v381q0 63 -72 63h-54zM183 640h-42l-55 125h34l42 -83l42 83h35z" />
    <glyph glyph-name="ddotaccent.smcp" horiz-adv-x="343" 
d="M65 0v595h101q65 0 91 -28t26 -79v-381q0 -51 -25.5 -79t-89.5 -28h-103zM111 551v-507h55q40 0 55.5 16.5t15.5 46.5v381q0 63 -72 63h-54zM131 729h54v-66h-54v66z" />
    <glyph glyph-name="dcroat.smcp" horiz-adv-x="343" 
d="M17 285v30h48v280h101q65 0 91 -28t26 -79v-381q0 -51 -25.5 -79t-89.5 -28h-103v285h-48zM111 551v-236h66v-30h-66v-241h55q40 0 55.5 16.5t15.5 46.5v381q0 63 -72 63h-54z" />
    <glyph glyph-name="eth.smcp" horiz-adv-x="343" 
d="M17 285v30h48v280h101q65 0 91 -28t26 -79v-381q0 -51 -25.5 -79t-89.5 -28h-103v285h-48zM111 551v-236h66v-30h-66v-241h55q40 0 55.5 16.5t15.5 46.5v381q0 63 -72 63h-54z" />
    <glyph glyph-name="eacute.smcp" horiz-adv-x="292" 
d="M111 279v-235h139v-44h-185v595h185v-44h-139v-230h120v-42h-120zM180 765h47l-57 -125h-33z" />
    <glyph glyph-name="egrave.smcp" horiz-adv-x="292" 
d="M111 279v-235h139v-44h-185v595h185v-44h-139v-230h120v-42h-120zM101 765h47l43 -125h-33z" />
    <glyph glyph-name="ecircumflex.smcp" horiz-adv-x="292" 
d="M111 279v-235h139v-44h-185v595h185v-44h-139v-230h120v-42h-120zM139 765h42l56 -125h-35l-42 83l-42 -83h-34z" />
    <glyph glyph-name="edieresis.smcp" horiz-adv-x="292" 
d="M111 279v-235h139v-44h-185v595h185v-44h-139v-230h120v-42h-120zM80 724h52v-66h-52v66zM186 724h52v-66h-52v66z" />
    <glyph glyph-name="ecaron.smcp" horiz-adv-x="292" 
d="M111 279v-235h139v-44h-185v595h185v-44h-139v-230h120v-42h-120zM181 640h-42l-55 125h34l42 -83l42 83h35z" />
    <glyph glyph-name="emacron.smcp" horiz-adv-x="292" 
d="M111 279v-235h139v-44h-185v595h185v-44h-139v-230h120v-42h-120zM71 673v36h170v-36h-170z" />
    <glyph glyph-name="ebreve.smcp" horiz-adv-x="292" 
d="M111 279v-235h139v-44h-185v595h185v-44h-139v-230h120v-42h-120zM200 742h33q0 -99 -77 -99q-76 0 -76 99h32q0 -63 44 -63t44 63z" />
    <glyph glyph-name="eogonek.smcp" horiz-adv-x="292" 
d="M250 -170h-12q-78 0 -78 65q0 61 58 105h-153v595h185v-44h-139v-230h120v-42h-120v-235h139v-44q-51 -38 -51 -92q0 -36 39 -36h12v-42z" />
    <glyph glyph-name="edotaccent.smcp" horiz-adv-x="292" 
d="M111 279v-235h139v-44h-185v595h185v-44h-139v-230h120v-42h-120zM129 729h54v-66h-54v66z" />
    <glyph glyph-name="fdotaccent.smcp" horiz-adv-x="278" 
d="M111 0h-46v595h178v-44h-132v-230h114v-42h-114v-279zM122 729h54v-66h-54v66z" />
    <glyph glyph-name="gcircumflex.smcp" horiz-adv-x="332" 
d="M230 104v175h-62v42h109v-217q0 -113 -109 -113q-108 0 -108 113v387q0 112 108 112t108 -112v-58h-46v58q0 71 -62 71t-62 -71v-387q0 -71 62 -71t62 71zM144 765h42l56 -125h-35l-42 83l-42 -83h-34z" />
    <glyph glyph-name="gbreve.smcp" horiz-adv-x="332" 
d="M230 104v175h-62v42h109v-217q0 -113 -109 -113q-108 0 -108 113v387q0 112 108 112t108 -112v-58h-46v58q0 71 -62 71t-62 -71v-387q0 -71 62 -71t62 71zM209 742h33q0 -99 -77 -99q-76 0 -76 99h32q0 -63 44 -63t44 63z" />
    <glyph glyph-name="gdotaccent.smcp" horiz-adv-x="332" 
d="M230 104v175h-62v42h109v-217q0 -113 -109 -113q-108 0 -108 113v387q0 112 108 112t108 -112v-58h-46v58q0 71 -62 71t-62 -71v-387q0 -71 62 -71t62 71zM139 729h54v-66h-54v66z" />
    <glyph glyph-name="gcommaaccent.smcp" horiz-adv-x="332" 
d="M230 104v175h-62v42h109v-217q0 -113 -109 -113q-108 0 -108 113v387q0 112 108 112t108 -112v-58h-46v58q0 71 -62 71t-62 -71v-387q0 -71 62 -71t62 71zM139 -48h53l-23 -122h-30v122z" />
    <glyph glyph-name="hcircumflex.smcp" horiz-adv-x="349" 
d="M111 279v-279h-46v595h46v-274h127v274h46v-595h-46v279h-127zM153 765h42l56 -125h-35l-42 83l-42 -83h-34z" />
    <glyph glyph-name="hbar.smcp" horiz-adv-x="349" 
d="M20 445v31h45v119h46v-119h127v119h46v-119h46v-31h-46v-445h-46v279h-127v-279h-46v445h-45zM111 321h127v124h-127v-124z" />
    <glyph glyph-name="iacute.smcp" horiz-adv-x="176" 
d="M65 0v595h46v-595h-46zM114 765h47l-57 -125h-33z" />
    <glyph glyph-name="igrave.smcp" horiz-adv-x="176" 
d="M65 0v595h46v-595h-46zM13 765h47l43 -125h-33z" />
    <glyph glyph-name="icircumflex.smcp" horiz-adv-x="176" 
d="M65 0v595h46v-595h-46zM67 765h42l56 -125h-35l-42 83l-42 -83h-34z" />
    <glyph glyph-name="idieresis.smcp" horiz-adv-x="176" 
d="M65 0v595h46v-595h-46zM9 724h52v-66h-52v66zM115 724h52v-66h-52v66z" />
    <glyph glyph-name="itilde.smcp" horiz-adv-x="176" 
d="M65 0v595h46v-595h-46zM136 650q-28 0 -52.5 23.5t-41.5 23.5q-30 0 -30 -37h-31q0 38 13 56.5t46 18.5q27 0 51.5 -23.5t42.5 -23.5q17 0 23.5 9t6.5 28h31q0 -39 -13.5 -57t-45.5 -18z" />
    <glyph glyph-name="imacron.smcp" horiz-adv-x="176" 
d="M65 0v595h46v-595h-46zM3 673v36h170v-36h-170z" />
    <glyph glyph-name="ibreve.smcp" horiz-adv-x="176" 
d="M65 0v595h46v-595h-46zM132 742h33q0 -99 -77 -99q-76 0 -76 99h32q0 -63 44 -63t44 63z" />
    <glyph glyph-name="iogonek.smcp" horiz-adv-x="176" 
d="M21 -105q0 52 44 93v607h46v-595q-51 -38 -51 -92q0 -36 39 -36h12v-42h-12q-78 0 -78 65z" />
    <glyph glyph-name="jcircumflex.smcp" horiz-adv-x="309" 
d="M198 595h46v-491q0 -53 -23 -83t-82 -30q-104 0 -104 113v66h46v-66q0 -71 58 -71q59 0 59 71v491zM193 765h42l56 -125h-35l-42 83l-42 -83h-34z" />
    <glyph glyph-name="kcommaaccent.smcp" horiz-adv-x="318" 
d="M111 595v-276l128 276h52l-142 -295l149 -300h-52l-135 280v-280h-46v595h46zM141 -48h53l-23 -122h-30v122z" />
    <glyph glyph-name="lacute.smcp" horiz-adv-x="249" 
d="M65 0v595h46v-551h113v-44h-159zM117 765h47l-57 -125h-33z" />
    <glyph glyph-name="lcaron.smcp" horiz-adv-x="247" 
d="M65 0v595h46v-551h113v-44h-159zM151 595h44l-23 -163h-21v163z" />
    <glyph glyph-name="lcommaaccent.smcp" horiz-adv-x="249" 
d="M65 0v595h46v-551h113v-44h-159zM115 -48h53l-23 -122h-30v122z" />
    <glyph glyph-name="ldot.smcp" horiz-adv-x="249" 
d="M65 0v595h46v-551h113v-44h-159zM141 313h56v-66h-56v66z" />
    <glyph glyph-name="lslash.smcp" horiz-adv-x="249" 
d="M182 304l-71 -28v-232h113v-44h-159v259l-41 -16v32l41 16v304h46v-287l71 28v-32z" />
    <glyph glyph-name="mdotaccent.smcp" horiz-adv-x="460" 
d="M230 78h1l98 517h66v-595h-44v212q0 83 6 317l-104 -529h-46l-104 529q7 -277 7 -317v-212h-45v595h66zM203 729h54v-66h-54v66z" />
    <glyph glyph-name="nacute.smcp" horiz-adv-x="371" 
d="M105 500q6 -309 6 -318v-182h-46v595h49l156 -501q-6 312 -6 318v183h45v-595h-49zM216 765h47l-57 -125h-33z" />
    <glyph glyph-name="ntilde.smcp" horiz-adv-x="371" 
d="M105 500q6 -309 6 -318v-182h-46v595h49l156 -501q-6 312 -6 318v183h45v-595h-49zM233 650q-28 0 -52.5 23.5t-41.5 23.5q-30 0 -30 -37h-31q0 38 13 56.5t46 18.5q27 0 51.5 -23.5t42.5 -23.5q17 0 23.5 9t6.5 28h31q0 -39 -13.5 -57t-45.5 -18z" />
    <glyph glyph-name="ncaron.smcp" horiz-adv-x="371" 
d="M105 500q6 -309 6 -318v-182h-46v595h49l156 -501q-6 312 -6 318v183h45v-595h-49zM206 640h-42l-55 125h34l42 -83l42 83h35z" />
    <glyph glyph-name="ncommaaccent.smcp" horiz-adv-x="371" 
d="M105 500q6 -309 6 -318v-182h-46v595h49l156 -501q-6 312 -6 318v183h45v-595h-49zM159 -48h53l-23 -122h-30v122z" />
    <glyph glyph-name="eng.smcp" horiz-adv-x="371" 
d="M176 -139v39q12 -6 33 -6q30 0 41.5 13t11.5 46v47l-156 494q5 -232 5 -276v-218h-46v595h47l153 -494q-4 190 -4 276v218h45v-648q0 -49 -20.5 -70.5t-74.5 -21.5q-21 0 -35 6z" />
    <glyph glyph-name="oacute.smcp" horiz-adv-x="327" 
d="M163 33q63 0 63 72v385q0 72 -63 72q-62 0 -62 -72v-385q0 -72 62 -72zM163 603q109 0 109 -113v-385q0 -114 -109 -114q-108 0 -108 114v385q0 113 108 113zM188 765h47l-57 -125h-33z" />
    <glyph glyph-name="ograve.smcp" horiz-adv-x="327" 
d="M163 33q63 0 63 72v385q0 72 -63 72q-62 0 -62 -72v-385q0 -72 62 -72zM163 603q109 0 109 -113v-385q0 -114 -109 -114q-108 0 -108 114v385q0 113 108 113zM98 765h47l43 -125h-33z" />
    <glyph glyph-name="ocircumflex.smcp" horiz-adv-x="327" 
d="M163 33q63 0 63 72v385q0 72 -63 72q-62 0 -62 -72v-385q0 -72 62 -72zM163 603q109 0 109 -113v-385q0 -114 -109 -114q-108 0 -108 114v385q0 113 108 113zM142 765h42l56 -125h-35l-42 83l-42 -83h-34z" />
    <glyph glyph-name="odieresis.smcp" horiz-adv-x="327" 
d="M163 33q63 0 63 72v385q0 72 -63 72q-62 0 -62 -72v-385q0 -72 62 -72zM163 603q109 0 109 -113v-385q0 -114 -109 -114q-108 0 -108 114v385q0 113 108 113zM84 724h52v-66h-52v66zM190 724h52v-66h-52v66z" />
    <glyph glyph-name="otilde.smcp" horiz-adv-x="327" 
d="M163 33q63 0 63 72v385q0 72 -63 72q-62 0 -62 -72v-385q0 -72 62 -72zM163 603q109 0 109 -113v-385q0 -114 -109 -114q-108 0 -108 114v385q0 113 108 113zM211 650q-28 0 -52.5 23.5t-41.5 23.5q-30 0 -30 -37h-31q0 38 13 56.5t46 18.5q27 0 51.5 -23.5t42.5 -23.5
q17 0 23.5 9t6.5 28h31q0 -39 -13.5 -57t-45.5 -18z" />
    <glyph glyph-name="obreve.smcp" horiz-adv-x="327" 
d="M163 33q63 0 63 72v385q0 72 -63 72q-62 0 -62 -72v-385q0 -72 62 -72zM163 603q109 0 109 -113v-385q0 -114 -109 -114q-108 0 -108 114v385q0 113 108 113zM207 742h33q0 -99 -77 -99q-76 0 -76 99h32q0 -63 44 -63t44 63z" />
    <glyph glyph-name="omacron.smcp" horiz-adv-x="327" 
d="M163 33q63 0 63 72v385q0 72 -63 72q-62 0 -62 -72v-385q0 -72 62 -72zM163 603q109 0 109 -113v-385q0 -114 -109 -114q-108 0 -108 114v385q0 113 108 113zM78 673v36h170v-36h-170z" />
    <glyph glyph-name="ohungarumlaut.smcp" horiz-adv-x="327" 
d="M163 33q63 0 63 72v385q0 72 -63 72q-62 0 -62 -72v-385q0 -72 62 -72zM163 603q109 0 109 -113v-385q0 -114 -109 -114q-108 0 -108 114v385q0 113 108 113zM124 765h47l-37 -125h-33zM223 765h47l-47 -125h-33z" />
    <glyph glyph-name="oslash.smcp" horiz-adv-x="327" 
d="M82 -30l8 42q-35 28 -35 93v385q0 113 108 113q24 0 45 -7l6 28h30l-8 -41q36 -28 36 -93v-385q0 -114 -109 -114q-28 0 -46 7l-5 -28h-30zM163 33q63 0 63 72v385q0 16 -3 29l-97 -477q14 -9 37 -9zM101 105q0 -19 2 -28l96 476q-16 9 -36 9q-62 0 -62 -72v-385z" />
    <glyph glyph-name="oe.smcp" horiz-adv-x="619" 
d="M163 33q63 0 63 72v385q0 72 -63 72q-62 0 -62 -72v-385q0 -72 62 -72zM272 279v-235h139v-44h-185v5q-25 -14 -63 -14q-108 0 -108 114v385q0 113 108 113q36 0 63 -15v7h185v-44h-139v-230h120v-42h-120z" />
    <glyph glyph-name="thorn.smcp" horiz-adv-x="318" 
d="M65 0v595h46v-120h51q65 0 90.5 -28.5t25.5 -79.5v-127q0 -49 -28 -79t-90 -30h-49v-131h-46zM111 431v-257h48q40 0 56 17t16 49v127q0 32 -15.5 48t-55.5 16h-49z" />
    <glyph glyph-name="pdotaccent.smcp" horiz-adv-x="318" 
d="M65 0v595h97q65 0 90.5 -28.5t25.5 -79.5v-127q0 -49 -28 -79t-90 -30h-49v-251h-46zM111 551v-257h48q40 0 56 17t16 49v127q0 32 -15.5 48t-55.5 16h-49zM132 729h54v-66h-54v66z" />
    <glyph glyph-name="racute.smcp" horiz-adv-x="327" 
d="M65 0v595h98q115 0 115 -113v-117q0 -41 -20.5 -70.5t-62.5 -35.5l112 -259h-51q-17 43 -52.5 128.5t-52.5 128.5h-40v-257h-46zM111 551v-252h48q40 0 56 17t16 49v117q0 33 -15.5 51t-55.5 18h-49zM183 765h47l-57 -125h-33z" />
    <glyph glyph-name="rcaron.smcp" horiz-adv-x="327" 
d="M65 0v595h98q115 0 115 -113v-117q0 -41 -20.5 -70.5t-62.5 -35.5l112 -259h-51q-17 43 -52.5 128.5t-52.5 128.5h-40v-257h-46zM111 551v-252h48q40 0 56 17t16 49v117q0 33 -15.5 51t-55.5 18h-49zM181 640h-42l-55 125h34l42 -83l42 83h35z" />
    <glyph glyph-name="rcommaaccent.smcp" horiz-adv-x="327" 
d="M65 0v595h98q115 0 115 -113v-117q0 -41 -20.5 -70.5t-62.5 -35.5l112 -259h-51q-17 43 -52.5 128.5t-52.5 128.5h-40v-257h-46zM111 551v-252h48q40 0 56 17t16 49v117q0 33 -15.5 51t-55.5 18h-49zM137 -48h53l-23 -122h-30v122z" />
    <glyph glyph-name="sacute.smcp" horiz-adv-x="314" 
d="M264 433h-46v56q0 73 -60 73q-62 0 -62 -73v-39q0 -40 17.5 -65.5t42 -40.5t49 -32.5t42 -53t17.5 -90.5v-62q0 -115 -106 -115q-61 0 -84.5 31t-23.5 84v64h46v-64q0 -73 62 -73q60 0 60 73v62q0 40 -12.5 68.5t-31 42.5t-40.5 29.5t-40.5 29.5t-31 43t-12.5 69v39
q0 53 23.5 83.5t84.5 30.5q60 0 83 -30.5t23 -83.5v-56zM181 765h47l-57 -125h-33z" />
    <glyph glyph-name="scircumflex.smcp" horiz-adv-x="314" 
d="M264 433h-46v56q0 73 -60 73q-62 0 -62 -73v-39q0 -40 17.5 -65.5t42 -40.5t49 -32.5t42 -53t17.5 -90.5v-62q0 -115 -106 -115q-61 0 -84.5 31t-23.5 84v64h46v-64q0 -73 62 -73q60 0 60 73v62q0 40 -12.5 68.5t-31 42.5t-40.5 29.5t-40.5 29.5t-31 43t-12.5 69v39
q0 53 23.5 83.5t84.5 30.5q60 0 83 -30.5t23 -83.5v-56zM135 765h42l56 -125h-35l-42 83l-42 -83h-34z" />
    <glyph glyph-name="scaron.smcp" horiz-adv-x="314" 
d="M264 433h-46v56q0 73 -60 73q-62 0 -62 -73v-39q0 -40 17.5 -65.5t42 -40.5t49 -32.5t42 -53t17.5 -90.5v-62q0 -115 -106 -115q-61 0 -84.5 31t-23.5 84v64h46v-64q0 -73 62 -73q60 0 60 73v62q0 40 -12.5 68.5t-31 42.5t-40.5 29.5t-40.5 29.5t-31 43t-12.5 69v39
q0 53 23.5 83.5t84.5 30.5q60 0 83 -30.5t23 -83.5v-56zM177 640h-42l-55 125h34l42 -83l42 83h35z" />
    <glyph glyph-name="sdotaccent.smcp" horiz-adv-x="314" 
d="M264 433h-46v56q0 73 -60 73q-62 0 -62 -73v-39q0 -40 17.5 -65.5t42 -40.5t49 -32.5t42 -53t17.5 -90.5v-62q0 -115 -106 -115q-61 0 -84.5 31t-23.5 84v64h46v-64q0 -73 62 -73q60 0 60 73v62q0 40 -12.5 68.5t-31 42.5t-40.5 29.5t-40.5 29.5t-31 43t-12.5 69v39
q0 53 23.5 83.5t84.5 30.5q60 0 83 -30.5t23 -83.5v-56zM130 729h54v-66h-54v66z" />
    <glyph glyph-name="scedilla.smcp" horiz-adv-x="314" 
d="M120 -68l16 61q-86 10 -86 113v64h46v-64q0 -73 62 -73q60 0 60 73v62q0 40 -12.5 68.5t-31 42.5t-40.5 29.5t-40.5 29.5t-31 43t-12.5 69v39q0 53 23.5 83.5t84.5 30.5q60 0 83 -30.5t23 -83.5v-56h-46v56q0 73 -60 73q-62 0 -62 -73v-39q0 -40 17.5 -65.5t42 -40.5
t49 -32.5t42 -53t17.5 -90.5v-62q0 -113 -101 -115l-8 -33q67 -7 67 -63q0 -65 -86 -65h-44l8 31h34q49 0 49 35q0 36 -50 36h-13z" />
    <glyph glyph-name="scommaaccent.smcp" horiz-adv-x="314" 
d="M264 433h-46v56q0 73 -60 73q-62 0 -62 -73v-39q0 -40 17.5 -65.5t42 -40.5t49 -32.5t42 -53t17.5 -90.5v-62q0 -115 -106 -115q-61 0 -84.5 31t-23.5 84v64h46v-64q0 -73 62 -73q60 0 60 73v62q0 40 -12.5 68.5t-31 42.5t-40.5 29.5t-40.5 29.5t-31 43t-12.5 69v39
q0 53 23.5 83.5t84.5 30.5q60 0 83 -30.5t23 -83.5v-56zM130 -48h53l-23 -122h-30v122z" />
    <glyph glyph-name="germandbls.smcp" horiz-adv-x="628" 
d="M264 433h-46v56q0 73 -60 73q-62 0 -62 -73v-39q0 -40 17.5 -65.5t42 -40.5t49 -32.5t42 -53t17.5 -90.5v-62q0 -115 -106 -115q-61 0 -84.5 31t-23.5 84v64h46v-64q0 -73 62 -73q60 0 60 73v62q0 40 -12.5 68.5t-31 42.5t-40.5 29.5t-40.5 29.5t-31 43t-12.5 69v39
q0 53 23.5 83.5t84.5 30.5q60 0 83 -30.5t23 -83.5v-56zM578 433h-46v56q0 73 -60 73q-62 0 -62 -73v-39q0 -40 17.5 -65.5t42 -40.5t49 -32.5t42 -53t17.5 -90.5v-62q0 -115 -106 -115q-61 0 -84.5 31t-23.5 84v64h46v-64q0 -73 62 -73q60 0 60 73v62q0 40 -12.5 68.5
t-31 42.5t-40.5 29.5t-40.5 29.5t-31 43t-12.5 69v39q0 53 23.5 83.5t84.5 30.5q60 0 83 -30.5t23 -83.5v-56z" />
    <glyph glyph-name="tcaron.smcp" horiz-adv-x="261" 
d="M154 551v-551h-46v551h-83v44h211v-44h-82zM151 640h-42l-55 125h34l42 -83l42 83h35z" />
    <glyph glyph-name="tdotaccent.smcp" horiz-adv-x="261" 
d="M154 551v-551h-46v551h-83v44h211v-44h-82zM103 729h54v-66h-54v66z" />
    <glyph glyph-name="tcommaaccent.smcp" horiz-adv-x="261" 
d="M154 551v-551h-46v551h-83v44h211v-44h-82zM104 -48h53l-23 -122h-30v122z" />
    <glyph glyph-name="tbar.smcp" horiz-adv-x="261" 
d="M55 275v30h53v246h-83v44h211v-44h-82v-246h51v-30h-51v-275h-46v275h-53z" />
    <glyph glyph-name="uacute.smcp" horiz-adv-x="335" 
d="M229 595h46v-488q0 -116 -108 -116q-107 0 -107 116v488h46v-488q0 -74 61 -74q62 0 62 74v488zM194 765h47l-57 -125h-33z" />
    <glyph glyph-name="ugrave.smcp" horiz-adv-x="335" 
d="M229 595h46v-488q0 -116 -108 -116q-107 0 -107 116v488h46v-488q0 -74 61 -74q62 0 62 74v488zM92 765h47l43 -125h-33z" />
    <glyph glyph-name="ucircumflex.smcp" horiz-adv-x="335" 
d="M229 595h46v-488q0 -116 -108 -116q-107 0 -107 116v488h46v-488q0 -74 61 -74q62 0 62 74v488zM146 765h42l56 -125h-35l-42 83l-42 -83h-34z" />
    <glyph glyph-name="udieresis.smcp" horiz-adv-x="335" 
d="M229 595h46v-488q0 -116 -108 -116q-107 0 -107 116v488h46v-488q0 -74 61 -74q62 0 62 74v488zM88 724h52v-66h-52v66zM194 724h52v-66h-52v66z" />
    <glyph glyph-name="utilde.smcp" horiz-adv-x="335" 
d="M229 595h46v-488q0 -116 -108 -116q-107 0 -107 116v488h46v-488q0 -74 61 -74q62 0 62 74v488zM215 650q-28 0 -52.5 23.5t-41.5 23.5q-30 0 -30 -37h-31q0 38 13 56.5t46 18.5q27 0 51.5 -23.5t42.5 -23.5q17 0 23.5 9t6.5 28h31q0 -39 -13.5 -57t-45.5 -18z" />
    <glyph glyph-name="uring.smcp" horiz-adv-x="335" 
d="M229 595h46v-488q0 -116 -108 -116q-107 0 -107 116v488h46v-488q0 -74 61 -74q62 0 62 74v488zM234 710q0 -75 -67 -75q-66 0 -66 75q0 76 66 76q67 0 67 -76zM202 710q0 48 -35 48q-34 0 -34 -48q0 -47 34 -47q35 0 35 47z" />
    <glyph glyph-name="ubreve.smcp" horiz-adv-x="335" 
d="M229 595h46v-488q0 -116 -108 -116q-107 0 -107 116v488h46v-488q0 -74 61 -74q62 0 62 74v488zM211 742h33q0 -99 -77 -99q-76 0 -76 99h32q0 -63 44 -63t44 63z" />
    <glyph glyph-name="umacron.smcp" horiz-adv-x="335" 
d="M229 595h46v-488q0 -116 -108 -116q-107 0 -107 116v488h46v-488q0 -74 61 -74q62 0 62 74v488zM82 673v36h170v-36h-170z" />
    <glyph glyph-name="uhungarumlaut.smcp" horiz-adv-x="335" 
d="M229 595h46v-488q0 -116 -108 -116q-107 0 -107 116v488h46v-488q0 -74 61 -74q62 0 62 74v488zM106 765h47l-37 -125h-33zM205 765h47l-47 -125h-33z" />
    <glyph glyph-name="uogonek.smcp" horiz-adv-x="335" 
d="M229 595h46v-488q0 -116 -108 -116q-107 0 -107 116v488h46v-488q0 -74 61 -74q62 0 62 74v488zM212 -170h-12q-78 0 -78 65q0 61 58 105h32q-51 -38 -51 -92q0 -36 39 -36h12v-42z" />
    <glyph glyph-name="wacute.smcp" horiz-adv-x="512" 
d="M336 0l-81 512l-80 -512h-50l-90 595h47l69 -511l80 511h48l81 -511l69 511h47l-90 -595h-50zM282 765h47l-57 -125h-33z" />
    <glyph glyph-name="wgrave.smcp" horiz-adv-x="512" 
d="M336 0l-81 512l-80 -512h-50l-90 595h47l69 -511l80 511h48l81 -511l69 511h47l-90 -595h-50zM183 765h47l43 -125h-33z" />
    <glyph glyph-name="wcircumflex.smcp" horiz-adv-x="512" 
d="M336 0l-81 512l-80 -512h-50l-90 595h47l69 -511l80 511h48l81 -511l69 511h47l-90 -595h-50zM234 765h42l56 -125h-35l-42 83l-42 -83h-34z" />
    <glyph glyph-name="wdieresis.smcp" horiz-adv-x="512" 
d="M336 0l-81 512l-80 -512h-50l-90 595h47l69 -511l80 511h48l81 -511l69 511h47l-90 -595h-50zM177 724h52v-66h-52v66zM283 724h52v-66h-52v66z" />
    <glyph glyph-name="yacute.smcp" horiz-adv-x="289" 
d="M167 0h-46v254l-96 341h48l71 -283l71 283h49l-97 -341v-254zM167 765h47l-57 -125h-33z" />
    <glyph glyph-name="ygrave.smcp" horiz-adv-x="289" 
d="M167 0h-46v254l-96 341h48l71 -283l71 283h49l-97 -341v-254zM67 765h47l43 -125h-33z" />
    <glyph glyph-name="ycircumflex.smcp" horiz-adv-x="289" 
d="M167 0h-46v254l-96 341h48l71 -283l71 283h49l-97 -341v-254zM123 765h42l56 -125h-35l-42 83l-42 -83h-34z" />
    <glyph glyph-name="ydieresis.smcp" horiz-adv-x="289" 
d="M167 0h-46v254l-96 341h48l71 -283l71 283h49l-97 -341v-254zM65 724h52v-66h-52v66zM171 724h52v-66h-52v66z" />
    <glyph glyph-name="zacute.smcp" horiz-adv-x="265" 
d="M230 0h-195v30l144 521h-143v44h193v-31l-144 -520h145v-44zM156 765h47l-57 -125h-33z" />
    <glyph glyph-name="zcaron.smcp" horiz-adv-x="265" 
d="M230 0h-195v30l144 521h-143v44h193v-31l-144 -520h145v-44zM153 640h-42l-55 125h34l42 -83l42 83h35z" />
    <glyph glyph-name="zdotaccent.smcp" horiz-adv-x="265" 
d="M230 0h-195v30l144 521h-143v44h193v-31l-144 -520h145v-44zM105 729h54v-66h-54v66z" />
    </font>
</defs>
</svg>
