<?xml version="1.0" standalone="no"?>
<!DOCTYPE svg PUBLIC "-//W3C//DTD SVG 1.1//EN" "http://www.w3.org/Graphics/SVG/1.1/DTD/svg11.dtd" >
<svg xmlns="http://www.w3.org/2000/svg" xmlns:xlink="http://www.w3.org/1999/xlink" version="1.1">
<metadata>
Created by FontForge 20161003 at Thu Jul 19 08:54:58 2018
 By www-data
Copyright (c) 2008 by Silas Dilworth. All rights reserved.
</metadata>
<defs>
<font id="HeroicCondensedHeavy" horiz-adv-x="337" >
  <font-face 
    font-family="HeroicCondensedHeavy"
    font-weight="400"
    font-stretch="normal"
    units-per-em="1000"
    panose-1="2 0 5 6 4 0 0 2 0 4"
    ascent="750"
    descent="-250"
    x-height="500"
    cap-height="700"
    bbox="-33 -210 625 896"
    underline-thickness="50"
    underline-position="-150"
    unicode-range="U+0020-2265"
  />
<missing-glyph horiz-adv-x="200" 
 />
    <glyph glyph-name=".notdef" horiz-adv-x="200" 
 />
    <glyph glyph-name=".null" horiz-adv-x="0" 
 />
    <glyph glyph-name="nonmarkingreturn" horiz-adv-x="333" 
 />
    <glyph glyph-name="space" unicode=" " horiz-adv-x="170" 
 />
    <glyph glyph-name="exclam" unicode="!" horiz-adv-x="211" 
d="M43 700h126l-26 -480h-74zM55 114h102v-114h-102v114z" />
    <glyph glyph-name="quotedbl" unicode="&#x22;" horiz-adv-x="302" 
d="M29 710h108l-21 -225h-66zM154 710h108l-21 -225h-66z" />
    <glyph glyph-name="numbersign" unicode="#" horiz-adv-x="347" 
d="M278 700l-8 -142h47v-61h-50l-8 -144h48v-61h-52l-7 -142h-68l7 142h-43l-7 -142h-68l7 142h-46v61h50l8 144h-48v61h51l8 142h68l-8 -142h43l8 142h68zM156 497l-8 -144h43l8 144h-43z" />
    <glyph glyph-name="dollar" unicode="$" horiz-adv-x="349" 
d="M152 276v-60q0 -27 23 -27t23 27v40q0 29 -15 49.5t-36.5 34.5t-43 30t-36.5 45.5t-15 71.5v17q0 103 93 115v81h63v-81q90 -13 90 -116v-47h-100v49q0 28 -23 28t-23 -27v-21q0 -27 15 -47t36.5 -34t43 -29.5t36.5 -44.5t15 -70v-43q0 -100 -90 -114v-103h-63v102
q-50 6 -71.5 35t-21.5 80v59h100z" />
    <glyph glyph-name="percent" unicode="%" horiz-adv-x="429" 
d="M389 700l-280 -700h-69l280 700h69zM116 710q47 0 66.5 -24.5t19.5 -74.5v-90q0 -50 -19 -74t-67 -24t-67 24t-19 74v90q0 50 19.5 74.5t66.5 24.5zM116 490q18 0 18 30v92q0 31 -18 31t-18 -31v-92q0 -30 18 -30zM313 -10q-47 0 -66.5 24.5t-19.5 74.5v90q0 50 19 74
t67 24t67 -24t19 -74v-90q0 -50 -19.5 -74.5t-66.5 -24.5zM313 210q-18 0 -18 -30v-92q0 -31 18 -31t18 31v92q0 30 -18 30z" />
    <glyph glyph-name="ampersand" unicode="&#x26;" horiz-adv-x="393" 
d="M344 0q-48 0 -74 20q-26 -29 -83 -29q-133 0 -133 123v162q0 50 46 80q-43 24 -43 80v148q0 61 28.5 93.5t102.5 32.5t102.5 -32.5t28.5 -93.5v-94h-105v94q0 29 -26 29t-26 -29v-158q0 -22 22 -22h175v-100h-40v-171q0 -29 25 -29h15v-104h-15zM187 88q25 0 25 29v187
h-28q-22 0 -22 -23v-164q0 -29 25 -29z" />
    <glyph glyph-name="quotesingle" unicode="'" horiz-adv-x="165" 
d="M29 710h108l-21 -225h-66z" />
    <glyph glyph-name="parenleft" unicode="(" horiz-adv-x="255" 
d="M212 -30h-77q-91 188 -91 379t91 381h77q-81 -193 -81 -381q0 -189 81 -379z" />
    <glyph glyph-name="parenright" unicode=")" horiz-adv-x="255" 
d="M121 -30h-77q81 190 81 379q0 188 -81 381h77q91 -190 91 -381t-91 -379z" />
    <glyph glyph-name="asterisk" unicode="*" horiz-adv-x="343" 
d="M183 584l109 73l28 -89q-23 -2 -70.5 -3.5t-60.5 -2.5q12 -10 49 -38t54 -42l-76 -55q-7 19 -22.5 62.5t-21.5 59.5q-6 -16 -21.5 -59.5t-22.5 -62.5l-77 55q13 10 50.5 39t52.5 41q-13 1 -60 2.5t-70 3.5l28 89l109 -73q-16 50 -36 126h94z" />
    <glyph glyph-name="plus" unicode="+" horiz-adv-x="392" 
d="M49 242v76h107v107h76v-107h107v-76h-107v-107h-76v107h-107z" />
    <glyph glyph-name="comma" unicode="," horiz-adv-x="168" 
d="M34 114h106l-44 -202h-62v202z" />
    <glyph glyph-name="hyphen" unicode="-" horiz-adv-x="237" 
d="M34 242v76h170v-76h-170z" />
    <glyph glyph-name="period" unicode="." horiz-adv-x="167" 
d="M33 114h102v-114h-102v114z" />
    <glyph glyph-name="slash" unicode="/" horiz-adv-x="285" 
d="M24 -30l160 760h78l-160 -760h-78z" />
    <glyph glyph-name="zero" unicode="0" horiz-adv-x="359" 
d="M180 87q28 0 28 31v465q0 30 -28 30t-28 -30v-465q0 -31 28 -31zM180 -10q-75 0 -105.5 33.5t-30.5 93.5v466q0 60 30.5 93.5t105.5 33.5t105.5 -33.5t30.5 -93.5v-466q0 -60 -30.5 -93.5t-105.5 -33.5z" />
    <glyph glyph-name="one" unicode="1" horiz-adv-x="287" 
d="M198 700v-598h61v-102h-230v102h61v458h-57v75q38 0 56.5 18.5t18.5 46.5h90z" />
    <glyph glyph-name="two" unicode="2" horiz-adv-x="336" 
d="M304 584v-81q0 -59 -16.5 -102.5t-39.5 -71.5t-46 -54.5t-39.5 -67t-16.5 -93.5v-12h162v-102h-270v103q0 71 16.5 122.5t39.5 81t46 55t39.5 60t16.5 79.5v83q0 29 -28 29t-28 -29v-84h-106v84q0 60 29.5 93t104.5 33t105.5 -33t30.5 -93z" />
    <glyph glyph-name="three" unicode="3" horiz-adv-x="352" 
d="M201 426v158q0 29 -28 29t-28 -29v-84h-106v84q0 60 29.5 93t104.5 33t104.5 -33t29.5 -93v-148q0 -57 -47 -80q49 -24 49 -80v-160q0 -60 -30.5 -93t-105.5 -33t-104.5 33t-29.5 93v94h106v-92q0 -31 28 -31t28 30v164q0 23 -22 23h-42v100h42q22 0 22 22z" />
    <glyph glyph-name="four" unicode="4" horiz-adv-x="335" 
d="M170 0v139h-151v109l104 452h153v-463h41v-98h-41v-139h-106zM104 237h66v117q0 152 3 237z" />
    <glyph glyph-name="five" unicode="5" horiz-adv-x="347" 
d="M201 117v198q0 22 -22 22q-26 0 -45 -21h-88l19 384h234v-102h-140l-8 -182q24 11 48 11q57 0 83.5 -26.5t26.5 -84.5v-200q0 -60 -30.5 -93t-105.5 -33t-104.5 33t-29.5 93v94h106v-92q0 -31 28 -31t28 30z" />
    <glyph glyph-name="six" unicode="6" horiz-adv-x="359" 
d="M181 613q-29 0 -29 -29v-189q23 14 57 14q107 0 107 -114v-177q0 -128 -136 -128t-136 128v465q0 127 136 127q134 0 134 -127v-83h-106v84q0 29 -27 29zM152 287v-171q0 -29 28 -29t28 29v171q0 29 -28 29t-28 -29z" />
    <glyph glyph-name="seven" unicode="7" horiz-adv-x="284" 
d="M197 0h-119q0 341 86 598h-145v102h247v-84q-45 -173 -57 -279.5t-12 -336.5z" />
    <glyph glyph-name="eight" unicode="8" horiz-adv-x="359" 
d="M180 -10q-75 0 -105.5 33t-30.5 93v160q0 56 49 80q-47 23 -47 80v148q0 60 29.5 93t104.5 33t104.5 -33t29.5 -93v-148q0 -57 -47 -80q49 -24 49 -80v-160q0 -60 -30.5 -93t-105.5 -33zM152 584v-156q0 -29 28 -29t28 29v156q0 29 -28 29t-28 -29zM152 281v-165
q0 -29 28 -29t28 29v165q0 29 -28 29t-28 -29z" />
    <glyph glyph-name="nine" unicode="9" horiz-adv-x="359" 
d="M179 87q29 0 29 29v199q-23 -14 -57 -14q-107 0 -107 114v167q0 128 136 128t136 -128v-465q0 -127 -136 -127t-136 127v93h108v-94q0 -29 27 -29zM208 423v161q0 29 -28 29t-28 -29v-161q0 -29 28 -29t28 29z" />
    <glyph glyph-name="colon" unicode=":" horiz-adv-x="187" 
d="M43 114h102v-114h-102v114zM43 411h102v-114h-102v114z" />
    <glyph glyph-name="semicolon" unicode=";" horiz-adv-x="188" 
d="M44 114h106l-44 -202h-62v202zM43 411h102v-114h-102v114z" />
    <glyph glyph-name="less" unicode="&#x3c;" horiz-adv-x="310" 
d="M194 -30l-160 380l160 380h83l-160 -380l160 -380h-83z" />
    <glyph glyph-name="equal" unicode="=" horiz-adv-x="347" 
d="M304 166h-260v76h260v-76zM304 318h-260v76h260v-76z" />
    <glyph glyph-name="greater" unicode="&#x3e;" horiz-adv-x="310" 
d="M277 350l-160 -380h-83l160 380l-160 380h83z" />
    <glyph glyph-name="question" unicode="?" horiz-adv-x="343" 
d="M196 517v67q0 29 -25 29t-25 -29v-74h-108v77q0 123 133 123t133 -123v-67q0 -45 -8.5 -74.5t-21.5 -46.5t-26.5 -34.5t-25 -54t-14.5 -90.5h-72q-13 67 -5.5 113t22 65.5t29 50.5t14.5 68zM120 114h102v-114h-102v114z" />
    <glyph glyph-name="at" unicode="@" horiz-adv-x="519" 
d="M275 321v57q0 19 -17 19t-17 -19v-30h-72v30q0 90 90 90q51 0 71 -23.5t20 -67.5v-329h-44q-2 2 -6 7t-7 8q-18 -26 -50 -26q-78 0 -78 87v81q0 48 21.5 71.5t88.5 44.5zM240 205v-79q0 -21 18 -21q17 0 17 21v137q-35 -17 -35 -58zM260 -44q85 0 116 43.5t31 122.5v256
q0 79 -30.5 122.5t-116.5 43.5t-116.5 -43.5t-30.5 -122.5v-256q0 -80 31 -123t116 -43zM260 -110q-119 0 -167.5 61.5t-48.5 170.5v256q0 110 49 171t167 61q117 0 166.5 -61.5t49.5 -170.5v-256q0 -109 -48.5 -170.5t-167.5 -61.5z" />
    <glyph glyph-name="A" unicode="A" horiz-adv-x="340" 
d="M19 0l82 700h139l82 -700h-109l-10 136h-65l-10 -136h-109zM155 339l-7 -103h45l-7 103q-12 165 -15 245h-1q-7 -138 -15 -245z" />
    <glyph glyph-name="B" unicode="B" horiz-adv-x="364" 
d="M49 0v700h148q71 0 96 -26t25 -84v-153q0 -56 -40 -81q43 -26 43 -84v-151q0 -60 -25.5 -90.5t-92.5 -30.5h-154zM157 304v-202h38q18 0 18 20v159q0 23 -22 23h-34zM157 598v-194h35q21 0 21 24v151q0 19 -19 19h-37z" />
    <glyph glyph-name="C" unicode="C" horiz-adv-x="352" 
d="M208 220h106v-102q0 -61 -30 -94.5t-104 -33.5q-75 0 -105.5 34t-30.5 94v464q0 60 30.5 94t105.5 34q74 0 104 -33.5t30 -94.5v-92h-106v92q0 31 -28 31t-28 -31v-463q0 -32 28 -32t28 32v101z" />
    <glyph glyph-name="D" unicode="D" horiz-adv-x="369" 
d="M49 0v700h146q73 0 99.5 -30t26.5 -95v-450q0 -66 -26 -95.5t-97 -29.5h-149zM157 598v-496h35q21 0 21 22v450q0 24 -23 24h-33z" />
    <glyph glyph-name="E" unicode="E" horiz-adv-x="303" 
d="M157 304v-202h113v-102h-221v700h221v-102h-113v-194h99v-100h-99z" />
    <glyph glyph-name="F" unicode="F" horiz-adv-x="294" 
d="M157 0h-108v700h217v-102h-109v-194h93v-100h-93v-304z" />
    <glyph glyph-name="G" unicode="G" horiz-adv-x="359" 
d="M180 304v100h136v-286q0 -60 -30.5 -94t-105.5 -34t-105.5 34t-30.5 94v464q0 60 30.5 94t105.5 34t105.5 -34t30.5 -94v-92h-108v94q0 29 -28 29t-28 -29v-465q0 -32 28 -32t28 32v185h-28z" />
    <glyph glyph-name="H" unicode="H" horiz-adv-x="369" 
d="M157 304v-304h-108v700h108v-296h56v296h108v-700h-108v304h-56z" />
    <glyph glyph-name="I" unicode="I" horiz-adv-x="205" 
d="M49 0v700h108v-700h-108z" />
    <glyph glyph-name="J" unicode="J" horiz-adv-x="333" 
d="M182 700h108v-582q0 -61 -29.5 -94.5t-103.5 -33.5t-103.5 33.5t-29.5 94.5v102h106v-101q0 -32 26 -32t26 32v581z" />
    <glyph glyph-name="K" unicode="K" horiz-adv-x="351" 
d="M157 700l-2 -310l64 310h118l-96 -347l102 -353h-117l-71 318l2 -318h-108v700h108z" />
    <glyph glyph-name="L" unicode="L" horiz-adv-x="265" 
d="M49 0v700h108v-598h90v-102h-198z" />
    <glyph glyph-name="M" unicode="M" horiz-adv-x="503" 
d="M187 700l65 -488l65 488h141v-700h-101l12 522l-75 -522h-84l-75 522l12 -522h-101v700h141z" />
    <glyph glyph-name="N" unicode="N" horiz-adv-x="386" 
d="M237 0l-101 450q11 -204 11 -349v-101h-103v700h109l98 -441q-11 157 -11 318v123h103v-700h-106z" />
    <glyph glyph-name="O" unicode="O" horiz-adv-x="359" 
d="M180 87q28 0 28 32v463q0 31 -28 31t-28 -31v-463q0 -32 28 -32zM180 -10q-75 0 -105.5 34t-30.5 94v463q0 129 136 129t136 -129v-463q0 -60 -30.5 -94t-105.5 -34z" />
    <glyph glyph-name="P" unicode="P" horiz-adv-x="347" 
d="M49 0v700h153q67 0 92 -30t25 -89v-172q0 -61 -26 -89.5t-94 -28.5h-42v-291h-108zM157 598v-207h35q21 0 21 22v161q0 24 -23 24h-33z" />
    <glyph glyph-name="Q" unicode="Q" horiz-adv-x="359" 
d="M251 -92q-55 0 -82 20t-30 65q-95 16 -95 125v464q0 60 30.5 94t105.5 34t105.5 -34t30.5 -94v-464q0 -111 -98 -125q4 -25 34 -25h37l-16 -60h-22zM180 87q28 0 28 32v463q0 31 -28 31t-28 -31v-463q0 -32 28 -32z" />
    <glyph glyph-name="R" unicode="R" horiz-adv-x="357" 
d="M49 0v700h153q67 0 92 -30t25 -89v-174q0 -48 -11.5 -74t-43.5 -37l90 -296h-115l-76 292h-6v-292h-108zM157 598v-207h35q21 0 21 22v161q0 24 -23 24h-33z" />
    <glyph glyph-name="S" unicode="S" horiz-adv-x="349" 
d="M147 220v-102q0 -31 28 -31t28 31v70q0 52 -17 85.5t-41 53t-48 39.5t-41 59t-17 98v61q0 126 136 126t136 -126v-94h-108v93q0 30 -28 30t-28 -30v-57q0 -44 17 -73t41 -46.5t48 -39t41 -66t17 -111.5v-74q0 -126 -136 -126t-136 126v104h108z" />
    <glyph glyph-name="T" unicode="T" horiz-adv-x="297" 
d="M203 598v-598h-108v598h-76v102h260v-102h-76z" />
    <glyph glyph-name="U" unicode="U" horiz-adv-x="369" 
d="M49 700h108v-583q0 -30 28 -30t28 30v583h108v-584q0 -60 -30.5 -93t-105.5 -33t-105.5 33t-30.5 93v584z" />
    <glyph glyph-name="V" unicode="V" horiz-adv-x="335" 
d="M318 700l-85 -700h-131l-84 700h111l23 -298l16 -255l16 255l23 298h111z" />
    <glyph glyph-name="W" unicode="W" horiz-adv-x="547" 
d="M274 508l-45 -508h-131l-74 700h109l32 -518l52 518h114l52 -518l32 518h109l-73 -700h-132z" />
    <glyph glyph-name="X" unicode="X" 
d="M169 499l32 201h116l-89 -336l96 -364h-116l-39 229l-39 -229h-116l96 364l-89 336h116z" />
    <glyph glyph-name="Y" unicode="Y" horiz-adv-x="311" 
d="M210 0h-108v257l-88 443h113l29 -281l29 281h113l-88 -443v-257z" />
    <glyph glyph-name="Z" unicode="Z" horiz-adv-x="304" 
d="M276 0h-239v70l115 528h-118v102h236v-70l-115 -528h121v-102z" />
    <glyph glyph-name="bracketleft" unicode="[" horiz-adv-x="263" 
d="M64 -120v850h156v-76h-69v-698h69v-76h-156z" />
    <glyph glyph-name="backslash" unicode="\" horiz-adv-x="285" 
d="M102 730l160 -760h-78l-160 760h78z" />
    <glyph glyph-name="bracketright" unicode="]" horiz-adv-x="263" 
d="M200 730v-850h-156v76h69v698h-69v76h156z" />
    <glyph glyph-name="asciicircum" unicode="^" horiz-adv-x="223" 
d="M143 700l47 -200h-63l-15 122l-15 -122h-63l46 200h63z" />
    <glyph glyph-name="underscore" unicode="_" horiz-adv-x="357" 
d="M44 0v75h270v-75h-270z" />
    <glyph glyph-name="grave" unicode="`" horiz-adv-x="214" 
d="M49 685h97l20 -135h-60z" />
    <glyph glyph-name="a" unicode="a" horiz-adv-x="317" 
d="M177 327v68q0 27 -22 27q-20 0 -20 -27v-39h-100v42q0 112 121 112q123 0 123 -116v-394h-57l-17 24q-24 -34 -76 -34t-76 29t-24 89v76q0 52 34 83t114 60zM131 186v-78q0 -30 22 -30q15 0 19.5 7t4.5 23v143q-18 -12 -25.5 -17.5t-14 -18t-6.5 -29.5z" />
    <glyph glyph-name="b" unicode="b" horiz-adv-x="332" 
d="M192 105v289q0 28 -23 28t-23 -26v-291q0 -27 23 -27t23 27zM294 395v-287q0 -61 -23 -89.5t-75 -28.5q-56 0 -78 34l-17 -24h-57v710h102v-220q22 20 54 20q53 0 73.5 -27t20.5 -88z" />
    <glyph glyph-name="c" unicode="c" horiz-adv-x="319" 
d="M187 182h99v-74q0 -58 -26.5 -88t-95.5 -30q-70 0 -97.5 30.5t-27.5 87.5v285q0 57 28.5 87t96.5 30q67 0 94.5 -30t27.5 -87v-65h-99v67q0 27 -23 27t-23 -27v-290q0 -27 23 -27t23 27v77z" />
    <glyph glyph-name="d" unicode="d" horiz-adv-x="327" 
d="M141 394v-289q0 -27 23 -27t23 27v291q0 26 -23 26t-23 -28zM39 106v290q0 61 20 87.5t72 26.5q34 0 56 -20v220h102v-710h-57l-17 24q-22 -34 -80 -34q-52 0 -74 27.5t-22 88.5z" />
    <glyph glyph-name="e" unicode="e" horiz-adv-x="324" 
d="M141 234v-129q0 -27 23 -27t23 27v77h99v-72q0 -58 -26.5 -89t-95.5 -31q-70 0 -97.5 31t-27.5 89v281q0 57 28.5 88t96.5 31q67 0 94.5 -31t27.5 -88v-157h-145zM141 395v-85h46v85q0 27 -23 27t-23 -27z" />
    <glyph glyph-name="f" unicode="f" horiz-adv-x="240" 
d="M186 720q24 0 46 -8v-88q-19 8 -42 8q-30 0 -30 -34v-98h61v-90h-61v-410h-102v410h-44v90h44v98q0 62 28.5 92t99.5 30z" />
    <glyph glyph-name="g" unicode="g" horiz-adv-x="318" 
d="M156 109q-33 0 -33 -25q0 -26 33 -26q73 0 103.5 -28.5t30.5 -82.5v-3q0 -50 -32 -82t-101 -32q-134 0 -134 114v3q0 67 50 95q-25 16 -25 41q0 28 29 42q-46 26 -46 99v168q0 57 28.5 87.5t96.5 30.5q25 0 48 -5q20 60 73 60q19 0 28 -3v-76q-18 6 -36 6q-15 0 -25 -7
q37 -30 37 -93v-168q0 -56 -28.5 -85.5t-96.5 -29.5zM156 422q-23 0 -23 -29v-180q0 -30 23 -30t23 30v180q0 29 -23 29zM157 -4q-35 0 -35 -35v-2q0 -38 35 -38q34 0 34 38v2q0 35 -34 35z" />
    <glyph glyph-name="h" unicode="h" horiz-adv-x="327" 
d="M289 0h-102v394q0 28 -23 28t-23 -26v-396h-102v710h102v-220q22 20 54 20q53 0 73.5 -27t20.5 -88v-395z" />
    <glyph glyph-name="i" unicode="i" horiz-adv-x="179" 
d="M39 500h102v-500h-102v500zM39 666h102v-114h-102v114z" />
    <glyph glyph-name="j" unicode="j" horiz-adv-x="179" 
d="M141 500v-548q0 -62 -28.5 -92t-99.5 -30q-24 0 -46 8v88q19 -8 42 -8q30 0 30 34v548h102zM39 666h102v-114h-102v114z" />
    <glyph glyph-name="k" unicode="k" horiz-adv-x="322" 
d="M146 710v-416l52 206h111l-79 -243l89 -257h-112l-61 215v-215h-102v710h102z" />
    <glyph glyph-name="l" unicode="l" horiz-adv-x="179" 
d="M39 710h102v-710h-102v710z" />
    <glyph glyph-name="m" unicode="m" horiz-adv-x="475" 
d="M289 0h-102v396q0 26 -23 26t-23 -26v-396h-102v500h57l17 -24q28 34 80 34q46 0 72 -29q29 29 74 29q52 0 75 -27.5t23 -88.5v-394h-102v395q0 27 -23 27t-23 -27v-395z" />
    <glyph glyph-name="n" unicode="n" 
d="M294 0h-102v395q0 27 -23 27t-23 -27v-395h-102v500h57l17 -24q28 34 82 34q52 0 73 -27.5t21 -88.5v-394z" />
    <glyph glyph-name="o" unicode="o" horiz-adv-x="327" 
d="M164 78q23 0 23 27v290q0 27 -23 27t-23 -27v-290q0 -27 23 -27zM164 -10q-70 0 -97.5 30.5t-27.5 87.5v285q0 57 28.5 87t96.5 30t96.5 -30t28.5 -87v-285q0 -57 -27.5 -87.5t-97.5 -30.5z" />
    <glyph glyph-name="p" unicode="p" 
d="M192 106v289q0 27 -23 27t-23 -27v-291q0 -26 23 -26t23 28zM294 392v-287q0 -61 -20.5 -88t-73.5 -27q-32 0 -54 20v-170h-102v660h57l17 -24q22 34 78 34q52 0 75 -28.5t23 -89.5z" />
    <glyph glyph-name="q" unicode="q" horiz-adv-x="332" 
d="M136 395v-289q0 -28 23 -28t23 26v291q0 27 -23 27t-23 -27zM34 105v287q0 61 23 89.5t75 28.5q56 0 78 -34l17 24h57v-660h-102v170q-22 -20 -54 -20q-53 0 -73.5 27t-20.5 88z" />
    <glyph glyph-name="r" unicode="r" horiz-adv-x="234" 
d="M211 517v-108q-70 11 -70 -57v-352h-102v500h57l17 -24q33 41 98 41z" />
    <glyph glyph-name="s" unicode="s" horiz-adv-x="308" 
d="M129 164v-59q0 -27 23 -27t23 27v40q0 29 -15 49.5t-36.5 34.5t-43 30t-36.5 45.5t-15 71.5v17q0 57 28.5 87t94.5 30q67 0 95 -30t28 -88v-46h-100v48q0 28 -23 28t-23 -27v-21q0 -27 15 -47t36.5 -34t43 -29.5t36.5 -44.5t15 -70v-43q0 -58 -28.5 -87t-95.5 -29
t-94.5 29t-27.5 87v58h100z" />
    <glyph glyph-name="t" unicode="t" horiz-adv-x="252" 
d="M65 627l102 28v-155h67v-90h-67v-303q0 -29 26 -29q18 0 41 9v-87q-20 -10 -47 -10q-70 0 -96 29t-26 88v303h-51v90h51v127z" />
    <glyph glyph-name="u" unicode="u" 
d="M44 500h102v-395q0 -27 23 -27t23 27v395h102v-500h-57l-17 24q-22 -34 -80 -34q-52 0 -74 27.5t-22 88.5v394z" />
    <glyph glyph-name="v" unicode="v" horiz-adv-x="311" 
d="M295 500l-82 -500h-114l-82 500h106l33 -369l33 369h106z" />
    <glyph glyph-name="w" unicode="w" horiz-adv-x="484" 
d="M278 0l-36 344l-35 -344h-121l-72 500h104l31 -374l41 374h104l41 -374l31 374h105l-73 -500h-120z" />
    <glyph glyph-name="x" unicode="x" horiz-adv-x="308" 
d="M295 500l-91 -248l96 -252h-106l-40 144l-40 -144h-105l94 252l-89 248h105l35 -140l35 140h106z" />
    <glyph glyph-name="y" unicode="y" horiz-adv-x="299" 
d="M59 -170q-28 0 -46 8v89q24 -8 45 -8q29 0 36 42l6 39l-86 500h105l31 -330l31 330h105l-91 -541q-12 -71 -42 -100t-94 -29z" />
    <glyph glyph-name="z" unicode="z" horiz-adv-x="259" 
d="M236 0h-212v68l101 338h-99v94h207v-68l-99 -338h102v-94z" />
    <glyph glyph-name="braceleft" unicode="{" horiz-adv-x="271" 
d="M122 231q0 36 -43 36h-35v76h35q43 0 43 36q0 61 -25.5 135t-25.5 121q0 95 129 95h28v-76h-27q-23 0 -31.5 -8.5t-8.5 -31.5q0 -35 16.5 -110.5t16.5 -118.5q0 -61 -37 -80q37 -21 37 -80q0 -43 -16.5 -118.5t-16.5 -110.5q0 -24 8.5 -32t31.5 -8h27v-76h-28
q-129 0 -129 95q0 47 25.5 121t25.5 135z" />
    <glyph glyph-name="bar" unicode="|" horiz-adv-x="205" 
d="M64 -120v850h78v-850h-78z" />
    <glyph glyph-name="braceright" unicode="}" horiz-adv-x="271" 
d="M150 231q0 -61 25.5 -135t25.5 -121q0 -95 -129 -95h-28v76h27q23 0 31.5 8t8.5 32q0 35 -16.5 110.5t-16.5 118.5q0 59 37 80q-37 19 -37 80q0 43 16.5 118.5t16.5 110.5q0 23 -8.5 31.5t-31.5 8.5h-27v76h28q129 0 129 -95q0 -47 -25.5 -121t-25.5 -135q0 -36 43 -36
h35v-76h-35q-43 0 -43 -36z" />
    <glyph glyph-name="asciitilde" unicode="~" horiz-adv-x="312" 
d="M196 608q-28 0 -53 17.5t-38 17.5q-18 0 -18 -25h-51q0 50 14.5 71t51.5 21q29 0 53.5 -17.5t37.5 -17.5q18 0 18 25h51q0 -50 -14.5 -71t-51.5 -21z" />
    <glyph glyph-name="nbspace" unicode="&#xa0;" horiz-adv-x="80" 
 />
    <glyph glyph-name="exclamdown" unicode="&#xa1;" horiz-adv-x="211" 
d="M169 -200h-126l26 480h74zM55 500h102v-114h-102v114z" />
    <glyph glyph-name="cent" unicode="&#xa2;" horiz-adv-x="354" 
d="M202 292h99v-74q0 -51 -20 -80.5t-71 -35.5v-102h-63v102q-93 11 -93 116v285q0 102 93 115v82h63v-82q91 -13 91 -115v-65h-99v67q0 27 -23 27t-23 -27v-290q0 -27 23 -27t23 27v77z" />
    <glyph glyph-name="sterling" unicode="&#xa3;" horiz-adv-x="377" 
d="M32 325v58h37v202q0 59 30.5 92t103.5 33q67 0 99 -34t32 -91v-75h-105v75q0 28 -26 28t-26 -28v-202h68v-58h-68v-193q0 -30 32 -30h125v-102h-129q-58 0 -85 33q-27 -33 -86 -33v102q35 0 35 30v193h-37z" />
    <glyph glyph-name="currency" unicode="&#xa4;" horiz-adv-x="324" 
d="M173 125q-13 0 -19 1l-27 -126h-98l42 162q-23 28 -23 84v230q0 54 23 82l-37 142h98l23 -105q3 0 9 0.5t9 0.5t9 -0.5t8 -0.5l24 105h98l-38 -142q24 -30 24 -82v-230q0 -56 -23 -84l42 -162h-98l-28 126q-6 -1 -18 -1zM173 213q23 0 23 27v241q0 27 -23 27t-23 -27
v-241q0 -27 23 -27z" />
    <glyph glyph-name="yen" unicode="&#xa5;" horiz-adv-x="348" 
d="M228 0h-108v112h-65v54h65v49h-65v54h65q-64 316 -86 431h113q5 -46 13.5 -138t13.5 -139l27 277h114q-4 -21 -37 -183.5t-50 -247.5h67v-54h-67v-49h67v-54h-67v-112z" />
    <glyph glyph-name="brokenbar" unicode="&#xa6;" horiz-adv-x="205" 
d="M64 -120v378h78v-378h-78zM64 352v378h78v-378h-78z" />
    <glyph glyph-name="section" unicode="&#xa7;" horiz-adv-x="342" 
d="M184 175q11 16 11 48v39q0 72 -37 100q-11 -16 -11 -48v-39q0 -72 37 -100zM39 268v47q0 65 45 102q-45 49 -45 129v35q0 129 132 129t132 -129v-61h-108v65q0 28 -24 28t-24 -28v-41q0 -35 11.5 -56.5t29 -30.5t37.5 -21.5t37.5 -27t29 -49.5t11.5 -87v-47
q0 -66 -44 -102q44 -48 44 -129v-35q0 -129 -132 -129t-132 129v61h108v-65q0 -28 24 -28t24 28v41q0 35 -11.5 56.5t-29 30.5t-37.5 21.5t-37.5 27t-29 49.5t-11.5 87z" />
    <glyph glyph-name="dieresis" unicode="&#xa8;" horiz-adv-x="295" 
d="M49 658h84v-106h-84v106zM163 658h84v-106h-84v106z" />
    <glyph glyph-name="copyright" unicode="&#xa9;" horiz-adv-x="531" 
d="M268 199q18 0 18 21v72h71v-66q0 -45 -19.5 -68.5t-69.5 -23.5q-51 0 -71 24t-20 69v246q0 45 20 69t71 24q50 0 69.5 -23.5t19.5 -68.5v-55h-71v62q0 20 -18 20t-18 -20v-262q0 -20 18 -20zM266 56q85 0 116 43.5t31 122.5v256q0 79 -30.5 122.5t-116.5 43.5
t-116.5 -43.5t-30.5 -122.5v-256q0 -80 31 -123t116 -43zM266 -10q-119 0 -167.5 61.5t-48.5 170.5v256q0 110 49 171t167 61q117 0 166.5 -61.5t49.5 -170.5v-256q0 -109 -48.5 -170.5t-167.5 -61.5z" />
    <glyph glyph-name="ordfeminine" unicode="&#xaa;" horiz-adv-x="274" 
d="M231 184h-177v61h177v-61zM156 563v57q0 19 -17 19t-17 -19v-30h-75v30q0 90 92 90q51 0 71.5 -23.5t20.5 -67.5v-329h-44q-3 3 -7 8t-6 7q-18 -26 -50 -26q-78 0 -78 87v81q0 48 21.5 71.5t88.5 44.5zM121 447v-79q0 -21 18 -21q17 0 17 21v137q-35 -17 -35 -58z" />
    <glyph glyph-name="guillemotleft" unicode="&#xab;" horiz-adv-x="414" 
d="M34 250l105 185h95l-102 -185l102 -185h-95zM181 250l105 185h95l-102 -185l102 -185h-95z" />
    <glyph glyph-name="logicalnot" unicode="&#xac;" horiz-adv-x="347" 
d="M229 196v92h-185v76h260v-168h-75z" />
    <glyph glyph-name="uni00AD" unicode="&#xad;" horiz-adv-x="237" 
d="M34 242v76h170v-76h-170z" />
    <glyph glyph-name="registered" unicode="&#xae;" horiz-adv-x="531" 
d="M357 477v-91q0 -61 -40 -72l67 -173h-76l-58 168h-2v-168h-71v420h98q46 0 64 -21.5t18 -62.5zM248 492v-122h24q16 0 16 17v87q0 18 -16 18h-24zM266 56q85 0 116 43.5t31 122.5v256q0 79 -30.5 122.5t-116.5 43.5t-116.5 -43.5t-30.5 -122.5v-256q0 -80 31 -123
t116 -43zM266 -10q-119 0 -167.5 61.5t-48.5 170.5v256q0 110 49 171t167 61q117 0 166.5 -61.5t49.5 -170.5v-256q0 -109 -48.5 -170.5t-167.5 -61.5z" />
    <glyph glyph-name="macron" unicode="&#xaf;" horiz-adv-x="267" 
d="M49 552v76h170v-76h-170z" />
    <glyph glyph-name="degree" unicode="&#xb0;" horiz-adv-x="233" 
d="M127 494q-53 0 -73 27.5t-20 80.5t20 80.5t73 27.5t73 -27.5t20 -80.5t-20 -80.5t-73 -27.5zM127 553q30 0 30 49t-30 49t-30 -49t30 -49z" />
    <glyph glyph-name="plusminus" unicode="&#xb1;" horiz-adv-x="392" 
d="M49 166h290v-76h-290v76zM49 300v76h107v107h76v-107h107v-76h-107v-107h-76v107h-107z" />
    <glyph glyph-name="acute" unicode="&#xb4;" horiz-adv-x="214" 
d="M69 685h97l-57 -135h-60z" />
    <glyph glyph-name="mu" unicode="&#xb5;" 
d="M192 500h102v-395q0 -61 -20.5 -88t-73.5 -27q-32 0 -54 20v-170h-102v660h102v-396q0 -26 23 -26t23 28v394z" />
    <glyph glyph-name="mu" unicode="&#x3bc;" 
d="M192 500h102v-395q0 -61 -20.5 -88t-73.5 -27q-32 0 -54 20v-170h-102v660h102v-396q0 -26 23 -26t23 28v394z" />
    <glyph glyph-name="paragraph" unicode="&#xb6;" horiz-adv-x="388" 
d="M335 700v-860h-108v350h-61q-68 0 -95 30.5t-27 88.5v270q0 59 26 90t94 31h171z" />
    <glyph glyph-name="periodcentered" unicode="&#xb7;" horiz-adv-x="187" 
d="M43 337h102v-114h-102v114z" />
    <glyph glyph-name="cedilla" unicode="&#xb8;" horiz-adv-x="242" 
d="M74 -81l23 81h51l-10 -39q56 -11 56 -62q0 -33 -18.5 -51t-68.5 -18h-58l16 61h29q19 0 19 14t-19 14h-20z" />
    <glyph glyph-name="ordmasculine" unicode="&#xba;" horiz-adv-x="269" 
d="M231 619v-250q0 -90 -92 -90t-92 91v250q0 90 92 90t92 -91zM226 184h-174v61h174v-61zM122 620v-251q0 -19 17 -19t17 19v251q0 19 -17 19t-17 -19z" />
    <glyph glyph-name="guillemotright" unicode="&#xbb;" horiz-adv-x="414" 
d="M276 435l105 -185l-105 -185h-95l102 185l-102 185h95zM129 435l105 -185l-105 -185h-95l102 185l-102 185h95z" />
    <glyph glyph-name="onequarter" unicode="&#xbc;" horiz-adv-x="222" 
d="M135 700v-251h25v-43h-96v43h25v192h-24v32q32 0 32 27h38zM112 0v57h-63v45l45 192h64v-195h17v-42h-17v-57h-46zM86 99h26v62q0 17 1.5 45.5t1.5 41.5zM44 368h135v-37h-135v37z" />
    <glyph glyph-name="onehalf" unicode="&#xbd;" horiz-adv-x="222" 
d="M44 368h135v-37h-135v37zM169 245v-34q0 -45 -33.5 -84t-33.5 -79v-5h69v-43h-114v43q0 36 10.5 61.5t22.5 36.5t22.5 28.5t10.5 40.5v35q0 12 -11 12q-12 0 -12 -12v-35h-45v35q0 53 57 53t57 -53zM135 700v-251h25v-43h-96v43h25v192h-24v32q32 0 32 27h38z" />
    <glyph glyph-name="threequarters" unicode="&#xbe;" horiz-adv-x="222" 
d="M112 0v57h-63v45l45 192h64v-195h17v-42h-17v-57h-46zM86 99h26v62q0 17 1.5 45.5t1.5 41.5zM44 368h135v-37h-135v37zM123 585v66q0 12 -11 12q-12 0 -12 -12v-35h-45v35q0 53 57 53q56 0 56 -53v-62q0 -24 -20 -33q21 -11 21 -34v-67q0 -53 -57 -53q-32 0 -44 13.5
t-12 39.5v39h44v-38q0 -13 12 -13q11 0 11 12v69q0 10 -9 10h-18v42h18q9 0 9 9z" />
    <glyph glyph-name="questiondown" unicode="&#xbf;" horiz-adv-x="343" 
d="M146 -17v-67q0 -29 25 -29t25 29v74h108v-77q0 -123 -133 -123t-133 123v67q0 45 8.5 74.5t21.5 46.5t26.5 34.5t25 54t14.5 90.5h72q8 -50 8 -78q0 -49 -17 -83t-34 -64.5t-17 -71.5zM222 386h-102v114h102v-114z" />
    <glyph glyph-name="Agrave" unicode="&#xc0;" horiz-adv-x="340" 
d="M19 0l82 700h139l82 -700h-109l-10 136h-65l-10 -136h-109zM155 339l-7 -103h45l-7 103q-12 165 -15 245h-1q-7 -138 -15 -245zM88 885h97l20 -135h-60z" />
    <glyph glyph-name="Aacute" unicode="&#xc1;" horiz-adv-x="340" 
d="M19 0l82 700h139l82 -700h-109l-10 136h-65l-10 -136h-109zM155 339l-7 -103h45l-7 103q-12 165 -15 245h-1q-7 -138 -15 -245zM155 885h97l-57 -135h-60z" />
    <glyph glyph-name="Acircumflex" unicode="&#xc2;" horiz-adv-x="340" 
d="M19 0l82 700h139l82 -700h-109l-10 136h-65l-10 -136h-109zM155 339l-7 -103h45l-7 103q-12 165 -15 245h-1q-7 -138 -15 -245zM128 885h82l55 -135h-72l-24 49l-24 -49h-71z" />
    <glyph glyph-name="Atilde" unicode="&#xc3;" horiz-adv-x="340" 
d="M19 0l82 700h139l82 -700h-109l-10 136h-65l-10 -136h-109zM155 339l-7 -103h45l-7 103q-12 165 -15 245h-1q-7 -138 -15 -245zM218 749q-28 0 -52 16.5t-36 16.5q-17 0 -17 -24h-57q0 55 12.5 77.5t53.5 22.5q27 0 51 -16.5t37 -16.5q17 0 17 24h57q0 -54 -13 -77
t-53 -23z" />
    <glyph glyph-name="Adieresis" unicode="&#xc4;" horiz-adv-x="340" 
d="M19 0l82 700h139l82 -700h-109l-10 136h-65l-10 -136h-109zM155 339l-7 -103h45l-7 103q-12 165 -15 245h-1q-7 -138 -15 -245zM71 856h84v-106h-84v106zM185 856h84v-106h-84v106z" />
    <glyph glyph-name="Aring" unicode="&#xc5;" horiz-adv-x="340" 
d="M19 0l82 700h139l82 -700h-109l-10 136h-65l-10 -136h-109zM155 339l-7 -103h45l-7 103q-12 165 -15 245h-1q-7 -138 -15 -245zM244 818q0 -77 -75 -77q-74 0 -74 77q0 78 74 78q75 0 75 -78zM186 818q0 24 -17 24q-16 0 -16 -24q0 -23 16 -23q17 0 17 23z" />
    <glyph glyph-name="AE" unicode="&#xc6;" horiz-adv-x="485" 
d="M154 136l-23 -136h-112l140 700h290v-102h-110v-194h96v-100h-96v-202h110v-102h-218v136h-77zM172 236h59v363q-10 -59 -29 -181.5t-30 -181.5z" />
    <glyph glyph-name="Ccedilla" unicode="&#xc7;" horiz-adv-x="352" 
d="M129 -81l20 73q-105 12 -105 126v464q0 60 30.5 94t105.5 34q74 0 104 -33.5t30 -94.5v-92h-106v92q0 31 -28 31t-28 -31v-463q0 -32 28 -32t28 32v101h106v-102q0 -118 -114 -127l-7 -30q56 -11 56 -62q0 -33 -18.5 -51t-68.5 -18h-58l16 61h29q19 0 19 14t-19 14h-20z
" />
    <glyph glyph-name="Egrave" unicode="&#xc8;" horiz-adv-x="303" 
d="M157 304v-202h113v-102h-221v700h221v-102h-113v-194h99v-100h-99zM93 885h97l20 -135h-60z" />
    <glyph glyph-name="Eacute" unicode="&#xc9;" horiz-adv-x="303" 
d="M157 304v-202h113v-102h-221v700h221v-102h-113v-194h99v-100h-99zM141 885h97l-57 -135h-60z" />
    <glyph glyph-name="Ecircumflex" unicode="&#xca;" horiz-adv-x="303" 
d="M157 304v-202h113v-102h-221v700h221v-102h-113v-194h99v-100h-99zM115 885h82l55 -135h-72l-24 49l-24 -49h-71z" />
    <glyph glyph-name="Edieresis" unicode="&#xcb;" horiz-adv-x="303" 
d="M157 304v-202h113v-102h-221v700h221v-102h-113v-194h99v-100h-99zM60 856h84v-106h-84v106zM174 856h84v-106h-84v106z" />
    <glyph glyph-name="Igrave" unicode="&#xcc;" horiz-adv-x="205" 
d="M49 0v700h108v-700h-108zM20 885h97l20 -135h-60z" />
    <glyph glyph-name="Iacute" unicode="&#xcd;" horiz-adv-x="205" 
d="M49 0v700h108v-700h-108zM92 885h97l-57 -135h-60z" />
    <glyph glyph-name="Icircumflex" unicode="&#xce;" horiz-adv-x="205" 
d="M49 0v700h108v-700h-108zM61 885h82l55 -135h-72l-24 49l-24 -49h-71z" />
    <glyph glyph-name="Idieresis" unicode="&#xcf;" horiz-adv-x="205" 
d="M49 0v700h108v-700h-108zM4 856h84v-106h-84v106zM118 856h84v-106h-84v106z" />
    <glyph glyph-name="Eth" unicode="&#xd0;" horiz-adv-x="369" 
d="M49 0v316h-27v76h27v308h146q73 0 99.5 -30t26.5 -95v-450q0 -66 -26 -95.5t-97 -29.5h-149zM157 598v-206h28v-76h-28v-214h35q21 0 21 22v450q0 24 -23 24h-33z" />
    <glyph glyph-name="Ntilde" unicode="&#xd1;" horiz-adv-x="386" 
d="M237 0l-101 450q11 -204 11 -349v-101h-103v700h109l98 -441q-11 157 -11 318v123h103v-700h-106zM241 749q-27 0 -51 16.5t-37 16.5q-17 0 -17 -24h-57q0 55 12.5 77.5t53.5 22.5q27 0 51 -16.5t37 -16.5q17 0 17 24h57q0 -54 -13 -77t-53 -23z" />
    <glyph glyph-name="Ograve" unicode="&#xd2;" horiz-adv-x="359" 
d="M180 87q28 0 28 32v463q0 31 -28 31t-28 -31v-463q0 -32 28 -32zM180 -10q-75 0 -105.5 34t-30.5 94v463q0 129 136 129t136 -129v-463q0 -60 -30.5 -94t-105.5 -34zM92 885h97l20 -135h-60z" />
    <glyph glyph-name="Oacute" unicode="&#xd3;" horiz-adv-x="359" 
d="M180 87q28 0 28 32v463q0 31 -28 31t-28 -31v-463q0 -32 28 -32zM180 -10q-75 0 -105.5 34t-30.5 94v463q0 129 136 129t136 -129v-463q0 -60 -30.5 -94t-105.5 -34zM171 885h97l-57 -135h-60z" />
    <glyph glyph-name="Ocircumflex" unicode="&#xd4;" horiz-adv-x="359" 
d="M180 87q28 0 28 32v463q0 31 -28 31t-28 -31v-463q0 -32 28 -32zM180 -10q-75 0 -105.5 34t-30.5 94v463q0 129 136 129t136 -129v-463q0 -60 -30.5 -94t-105.5 -34zM138 885h82l55 -135h-72l-24 49l-24 -49h-71z" />
    <glyph glyph-name="Otilde" unicode="&#xd5;" horiz-adv-x="359" 
d="M180 87q28 0 28 32v463q0 31 -28 31t-28 -31v-463q0 -32 28 -32zM180 -10q-75 0 -105.5 34t-30.5 94v463q0 129 136 129t136 -129v-463q0 -60 -30.5 -94t-105.5 -34zM227 749q-27 0 -51 16.5t-37 16.5q-17 0 -17 -24h-57q0 55 12.5 77.5t53.5 22.5q27 0 51 -16.5
t37 -16.5q17 0 17 24h57q0 -54 -13 -77t-53 -23z" />
    <glyph glyph-name="Odieresis" unicode="&#xd6;" horiz-adv-x="359" 
d="M180 87q28 0 28 32v463q0 31 -28 31t-28 -31v-463q0 -32 28 -32zM180 -10q-75 0 -105.5 34t-30.5 94v463q0 129 136 129t136 -129v-463q0 -60 -30.5 -94t-105.5 -34zM80 856h84v-106h-84v106zM194 856h84v-106h-84v106z" />
    <glyph glyph-name="multiply" unicode="&#xd7;" horiz-adv-x="367" 
d="M94 140l-50 50l89 90l-89 89l50 51l90 -90l89 90l51 -51l-90 -89l90 -90l-51 -50l-89 89z" />
    <glyph glyph-name="Oslash" unicode="&#xd8;" horiz-adv-x="359" 
d="M180 87q28 0 28 32v463q0 31 -28 31t-28 -31v-463q0 -32 28 -32zM61 -30l12 56q-29 32 -29 92v463q0 129 136 129q20 0 36 -3l5 23h78l-12 -56q29 -32 29 -93v-463q0 -60 -30.5 -94t-105.5 -34q-20 0 -37 3l-4 -23h-78z" />
    <glyph glyph-name="Ugrave" unicode="&#xd9;" horiz-adv-x="369" 
d="M49 700h108v-583q0 -30 28 -30t28 30v583h108v-584q0 -60 -30.5 -93t-105.5 -33t-105.5 33t-30.5 93v584zM94 885h97l20 -135h-60z" />
    <glyph glyph-name="Uacute" unicode="&#xda;" horiz-adv-x="369" 
d="M49 700h108v-583q0 -30 28 -30t28 30v583h108v-584q0 -60 -30.5 -93t-105.5 -33t-105.5 33t-30.5 93v584zM176 885h97l-57 -135h-60z" />
    <glyph glyph-name="Ucircumflex" unicode="&#xdb;" horiz-adv-x="369" 
d="M49 700h108v-583q0 -30 28 -30t28 30v583h108v-584q0 -60 -30.5 -93t-105.5 -33t-105.5 33t-30.5 93v584zM143 885h82l55 -135h-72l-24 49l-24 -49h-71z" />
    <glyph glyph-name="Udieresis" unicode="&#xdc;" horiz-adv-x="369" 
d="M49 700h108v-583q0 -30 28 -30t28 30v583h108v-584q0 -60 -30.5 -93t-105.5 -33t-105.5 33t-30.5 93v584zM85 856h84v-106h-84v106zM199 856h84v-106h-84v106z" />
    <glyph glyph-name="Yacute" unicode="&#xdd;" horiz-adv-x="311" 
d="M210 0h-108v257l-88 443h113l29 -281l29 281h113l-88 -443v-257zM146 885h97l-57 -135h-60z" />
    <glyph glyph-name="Thorn" unicode="&#xde;" horiz-adv-x="353" 
d="M49 0v700h108v-141h45q67 0 92 -30t25 -89v-172q0 -61 -26 -89.5t-94 -28.5h-42v-150h-108zM157 457v-207h35q21 0 21 22v161q0 24 -23 24h-33z" />
    <glyph glyph-name="germandbls" unicode="&#xdf;" horiz-adv-x="334" 
d="M159 -8v97q6 -2 15 -2q25 0 25 30v208q0 23 -22 23h-16v100h12q22 0 22 22v124q0 29 -28 29t-28 -29v-594h-100v594q0 61 27 93.5t101 32.5t101 -32.5t27 -93.5v-114q0 -57 -47 -80q53 -21 53 -80v-204q0 -66 -26 -96t-99 -30q-7 0 -17 2z" />
    <glyph glyph-name="agrave" unicode="&#xe0;" horiz-adv-x="317" 
d="M177 327v68q0 27 -22 27q-20 0 -20 -27v-39h-100v42q0 112 121 112q123 0 123 -116v-394h-57l-17 24q-24 -34 -76 -34t-76 29t-24 89v76q0 52 34 83t114 60zM131 186v-78q0 -30 22 -30q15 0 19.5 7t4.5 23v143q-18 -12 -25.5 -17.5t-14 -18t-6.5 -29.5zM70 685h97
l20 -135h-60z" />
    <glyph glyph-name="aacute" unicode="&#xe1;" horiz-adv-x="317" 
d="M177 327v68q0 27 -22 27q-20 0 -20 -27v-39h-100v42q0 112 121 112q123 0 123 -116v-394h-57l-17 24q-24 -34 -76 -34t-76 29t-24 89v76q0 52 34 83t114 60zM131 186v-78q0 -30 22 -30q15 0 19.5 7t4.5 23v143q-18 -12 -25.5 -17.5t-14 -18t-6.5 -29.5zM140 685h97
l-57 -135h-60z" />
    <glyph glyph-name="acircumflex" unicode="&#xe2;" horiz-adv-x="317" 
d="M177 327v68q0 27 -22 27q-20 0 -20 -27v-39h-100v42q0 112 121 112q123 0 123 -116v-394h-57l-17 24q-24 -34 -76 -34t-76 29t-24 89v76q0 52 34 83t114 60zM131 186v-78q0 -30 22 -30q15 0 19.5 7t4.5 23v143q-18 -12 -25.5 -17.5t-14 -18t-6.5 -29.5zM117 687h82
l55 -135h-72l-24 49l-24 -49h-71z" />
    <glyph glyph-name="atilde" unicode="&#xe3;" horiz-adv-x="317" 
d="M177 327v68q0 27 -22 27q-20 0 -20 -27v-39h-100v42q0 112 121 112q123 0 123 -116v-394h-57l-17 24q-24 -34 -76 -34t-76 29t-24 89v76q0 52 34 83t114 60zM131 186v-78q0 -30 22 -30q15 0 19.5 7t4.5 23v143q-18 -12 -25.5 -17.5t-14 -18t-6.5 -29.5zM207 549
q-27 0 -51 16.5t-37 16.5q-17 0 -17 -24h-57q0 55 12.5 77.5t53.5 22.5q27 0 51 -16.5t37 -16.5q17 0 17 24h57q0 -54 -13 -77t-53 -23z" />
    <glyph glyph-name="adieresis" unicode="&#xe4;" horiz-adv-x="317" 
d="M177 327v68q0 27 -22 27q-20 0 -20 -27v-39h-100v42q0 112 121 112q123 0 123 -116v-394h-57l-17 24q-24 -34 -76 -34t-76 29t-24 89v76q0 52 34 83t114 60zM131 186v-78q0 -30 22 -30q15 0 19.5 7t4.5 23v143q-18 -12 -25.5 -17.5t-14 -18t-6.5 -29.5zM59 658h84v-106
h-84v106zM173 658h84v-106h-84v106z" />
    <glyph glyph-name="aring" unicode="&#xe5;" horiz-adv-x="317" 
d="M177 327v68q0 27 -22 27q-20 0 -20 -27v-39h-100v42q0 112 121 112q123 0 123 -116v-394h-57l-17 24q-24 -34 -76 -34t-76 29t-24 89v76q0 52 34 83t114 60zM131 186v-78q0 -30 22 -30q15 0 19.5 7t4.5 23v143q-18 -12 -25.5 -17.5t-14 -18t-6.5 -29.5zM233 615
q0 -77 -75 -77q-74 0 -74 77q0 78 74 78q75 0 75 -78zM175 615q0 24 -17 24q-16 0 -16 -24q0 -23 16 -23q17 0 17 23z" />
    <glyph glyph-name="ae" unicode="&#xe6;" horiz-adv-x="461" 
d="M131 186v-78q0 -30 22 -30q15 0 19.5 7t4.5 23v143q-18 -12 -25.5 -17.5t-14 -18t-6.5 -29.5zM280 395v-85h46v85q0 27 -23 27t-23 -27zM29 110v74q0 52 34 83t114 60v68q0 27 -23 27q-21 0 -21 -27v-39h-100v42q0 112 122 112q46 0 73 -19q27 19 75 19q67 0 93.5 -30.5
t26.5 -88.5v-157h-143v-129q0 -27 23 -27t23 27v77h97v-72q0 -58 -25.5 -89t-94.5 -31q-48 0 -76 19q-29 -19 -76 -19q-69 0 -95.5 31t-26.5 89z" />
    <glyph glyph-name="ccedilla" unicode="&#xe7;" horiz-adv-x="319" 
d="M112 -81l20 73q-93 11 -93 116v285q0 57 28.5 87t96.5 30q67 0 94.5 -30t27.5 -87v-65h-99v67q0 27 -23 27t-23 -27v-290q0 -27 23 -27t23 27v77h99v-74q0 -53 -22.5 -83t-80.5 -34l-7 -30q56 -11 56 -62q0 -33 -18.5 -51t-68.5 -18h-58l16 61h29q19 0 19 14t-19 14h-20z
" />
    <glyph glyph-name="egrave" unicode="&#xe8;" horiz-adv-x="324" 
d="M141 234v-129q0 -27 23 -27t23 27v77h99v-72q0 -58 -26.5 -89t-95.5 -31q-70 0 -97.5 31t-27.5 89v281q0 57 28.5 88t96.5 31q67 0 94.5 -31t27.5 -88v-157h-145zM141 395v-85h46v85q0 27 -23 27t-23 -27zM80 685h97l20 -135h-60z" />
    <glyph glyph-name="eacute" unicode="&#xe9;" horiz-adv-x="324" 
d="M141 234v-129q0 -27 23 -27t23 27v77h99v-72q0 -58 -26.5 -89t-95.5 -31q-70 0 -97.5 31t-27.5 89v281q0 57 28.5 88t96.5 31q67 0 94.5 -31t27.5 -88v-157h-145zM141 395v-85h46v85q0 27 -23 27t-23 -27zM150 685h97l-57 -135h-60z" />
    <glyph glyph-name="ecircumflex" unicode="&#xea;" horiz-adv-x="324" 
d="M141 234v-129q0 -27 23 -27t23 27v77h99v-72q0 -58 -26.5 -89t-95.5 -31q-70 0 -97.5 31t-27.5 89v281q0 57 28.5 88t96.5 31q67 0 94.5 -31t27.5 -88v-157h-145zM141 395v-85h46v85q0 27 -23 27t-23 -27zM120 687h82l55 -135h-72l-24 49l-24 -49h-71z" />
    <glyph glyph-name="edieresis" unicode="&#xeb;" horiz-adv-x="324" 
d="M141 234v-129q0 -27 23 -27t23 27v77h99v-72q0 -58 -26.5 -89t-95.5 -31q-70 0 -97.5 31t-27.5 89v281q0 57 28.5 88t96.5 31q67 0 94.5 -31t27.5 -88v-157h-145zM141 395v-85h46v85q0 27 -23 27t-23 -27zM63 658h84v-106h-84v106zM177 658h84v-106h-84v106z" />
    <glyph glyph-name="igrave" unicode="&#xec;" horiz-adv-x="179" 
d="M39 500h102v-500h-102v500zM0 685h97l20 -135h-60z" />
    <glyph glyph-name="iacute" unicode="&#xed;" horiz-adv-x="179" 
d="M39 500h102v-500h-102v500zM82 685h97l-57 -135h-60z" />
    <glyph glyph-name="icircumflex" unicode="&#xee;" horiz-adv-x="179" 
d="M39 500h102v-500h-102v500zM48 687h82l55 -135h-72l-24 49l-24 -49h-71z" />
    <glyph glyph-name="idieresis" unicode="&#xef;" horiz-adv-x="179" 
d="M39 500h102v-500h-102v500zM-9 658h84v-106h-84v106zM105 658h84v-106h-84v106z" />
    <glyph glyph-name="eth" unicode="&#xf0;" horiz-adv-x="352" 
d="M202 405q-3 69 -19 121l-46 -20l-27 63l47 20q-27 52 -77 111h110q30 -36 53 -74l49 22l28 -63l-47 -20q31 -80 31 -200v-251q0 -124 -127 -124t-127 124v188q0 117 97 117q31 0 55 -14zM152 297v-183q0 -29 25 -29t25 29v183q0 29 -26 29q-24 0 -24 -29z" />
    <glyph glyph-name="ntilde" unicode="&#xf1;" 
d="M294 0h-102v395q0 27 -23 27t-23 -27v-395h-102v500h57l17 -24q28 34 82 34q52 0 73 -27.5t21 -88.5v-394zM216 549q-28 0 -52 16.5t-36 16.5q-17 0 -17 -24h-57q0 55 12.5 77.5t53.5 22.5q27 0 51 -16.5t37 -16.5q17 0 17 24h57q0 -54 -13 -77t-53 -23z" />
    <glyph glyph-name="ograve" unicode="&#xf2;" horiz-adv-x="327" 
d="M164 78q23 0 23 27v290q0 27 -23 27t-23 -27v-290q0 -27 23 -27zM164 -10q-70 0 -97.5 30.5t-27.5 87.5v285q0 57 28.5 87t96.5 30t96.5 -30t28.5 -87v-285q0 -57 -27.5 -87.5t-97.5 -30.5zM73 685h97l20 -135h-60z" />
    <glyph glyph-name="oacute" unicode="&#xf3;" horiz-adv-x="327" 
d="M164 78q23 0 23 27v290q0 27 -23 27t-23 -27v-290q0 -27 23 -27zM164 -10q-70 0 -97.5 30.5t-27.5 87.5v285q0 57 28.5 87t96.5 30t96.5 -30t28.5 -87v-285q0 -57 -27.5 -87.5t-97.5 -30.5zM152 685h97l-57 -135h-60z" />
    <glyph glyph-name="ocircumflex" unicode="&#xf4;" horiz-adv-x="327" 
d="M164 78q23 0 23 27v290q0 27 -23 27t-23 -27v-290q0 -27 23 -27zM164 -10q-70 0 -97.5 30.5t-27.5 87.5v285q0 57 28.5 87t96.5 30t96.5 -30t28.5 -87v-285q0 -57 -27.5 -87.5t-97.5 -30.5zM122 687h82l55 -135h-72l-24 49l-24 -49h-71z" />
    <glyph glyph-name="otilde" unicode="&#xf5;" horiz-adv-x="327" 
d="M164 78q23 0 23 27v290q0 27 -23 27t-23 -27v-290q0 -27 23 -27zM164 -10q-70 0 -97.5 30.5t-27.5 87.5v285q0 57 28.5 87t96.5 30t96.5 -30t28.5 -87v-285q0 -57 -27.5 -87.5t-97.5 -30.5zM211 549q-27 0 -51 16.5t-37 16.5q-17 0 -17 -24h-57q0 55 12.5 77.5t53.5 22.5
q27 0 51 -16.5t37 -16.5q17 0 17 24h57q0 -54 -13 -77t-53 -23z" />
    <glyph glyph-name="odieresis" unicode="&#xf6;" horiz-adv-x="327" 
d="M164 78q23 0 23 27v290q0 27 -23 27t-23 -27v-290q0 -27 23 -27zM164 -10q-70 0 -97.5 30.5t-27.5 87.5v285q0 57 28.5 87t96.5 30t96.5 -30t28.5 -87v-285q0 -57 -27.5 -87.5t-97.5 -30.5zM64 658h84v-106h-84v106zM178 658h84v-106h-84v106z" />
    <glyph glyph-name="divide" unicode="&#xf7;" horiz-adv-x="377" 
d="M44 318h290v-76h-290v76zM144 204h90v-100h-90v100zM144 456h90v-100h-90v100z" />
    <glyph glyph-name="oslash" unicode="&#xf8;" horiz-adv-x="327" 
d="M164 78q23 0 23 27v290q0 27 -23 27t-23 -27v-290q0 -27 23 -27zM45 -30l16 56q-22 27 -22 82v285q0 57 28.5 87t96.5 30q19 0 34 -3l7 23h78l-17 -57q23 -29 23 -80v-285q0 -57 -27.5 -87.5t-97.5 -30.5q-13 0 -35 2l-6 -22h-78z" />
    <glyph glyph-name="ugrave" unicode="&#xf9;" 
d="M44 500h102v-395q0 -27 23 -27t23 27v395h102v-500h-57l-17 24q-22 -34 -80 -34q-52 0 -74 27.5t-22 88.5v394zM88 685h97l20 -135h-60z" />
    <glyph glyph-name="uacute" unicode="&#xfa;" 
d="M44 500h102v-395q0 -27 23 -27t23 27v395h102v-500h-57l-17 24q-22 -34 -80 -34q-52 0 -74 27.5t-22 88.5v394zM154 685h97l-57 -135h-60z" />
    <glyph glyph-name="ucircumflex" unicode="&#xfb;" 
d="M44 500h102v-395q0 -27 23 -27t23 27v395h102v-500h-57l-17 24q-22 -34 -80 -34q-52 0 -74 27.5t-22 88.5v394zM127 687h82l55 -135h-72l-24 49l-24 -49h-71z" />
    <glyph glyph-name="udieresis" unicode="&#xfc;" 
d="M44 500h102v-395q0 -27 23 -27t23 27v395h102v-500h-57l-17 24q-22 -34 -80 -34q-52 0 -74 27.5t-22 88.5v394zM69 658h84v-106h-84v106zM183 658h84v-106h-84v106z" />
    <glyph glyph-name="yacute" unicode="&#xfd;" horiz-adv-x="299" 
d="M59 -170q-28 0 -46 8v89q24 -8 45 -8q29 0 36 42l6 39l-86 500h105l31 -330l31 330h105l-91 -541q-12 -71 -42 -100t-94 -29zM138 685h97l-57 -135h-60z" />
    <glyph glyph-name="thorn" unicode="&#xfe;" 
d="M192 106v288q0 28 -23 28t-23 -26v-292q0 -26 23 -26t23 28zM44 -160v870h102v-220q22 20 54 20q53 0 73.5 -27t20.5 -88v-290q0 -61 -20.5 -88t-73.5 -27q-32 0 -54 20v-170h-102z" />
    <glyph glyph-name="ydieresis" unicode="&#xff;" horiz-adv-x="299" 
d="M59 -170q-28 0 -46 8v89q24 -8 45 -8q29 0 36 42l6 39l-86 500h105l31 -330l31 330h105l-91 -541q-12 -71 -42 -100t-94 -29zM50 658h84v-106h-84v106zM164 658h84v-106h-84v106z" />
    <glyph glyph-name="Amacron" unicode="&#x100;" horiz-adv-x="340" 
d="M19 0l82 700h139l82 -700h-109l-10 136h-65l-10 -136h-109zM155 339l-7 -103h45l-7 103q-12 165 -15 245h-1q-7 -138 -15 -245zM85 750v76h170v-76h-170z" />
    <glyph glyph-name="amacron" unicode="&#x101;" horiz-adv-x="317" 
d="M177 327v68q0 27 -22 27q-20 0 -20 -27v-39h-100v42q0 112 121 112q123 0 123 -116v-394h-57l-17 24q-24 -34 -76 -34t-76 29t-24 89v76q0 52 34 83t114 60zM131 186v-78q0 -30 22 -30q15 0 19.5 7t4.5 23v143q-18 -12 -25.5 -17.5t-14 -18t-6.5 -29.5zM73 552v76h170
v-76h-170z" />
    <glyph glyph-name="Abreve" unicode="&#x102;" horiz-adv-x="340" 
d="M19 0l82 700h139l82 -700h-109l-10 136h-65l-10 -136h-109zM155 339l-7 -103h45l-7 103q-12 165 -15 245h-1q-7 -138 -15 -245zM195 850h63q0 -108 -89 -108q-88 0 -88 108h61q0 -34 27 -34q26 0 26 34z" />
    <glyph glyph-name="abreve" unicode="&#x103;" horiz-adv-x="317" 
d="M177 327v68q0 27 -22 27q-20 0 -20 -27v-39h-100v42q0 112 121 112q123 0 123 -116v-394h-57l-17 24q-24 -34 -76 -34t-76 29t-24 89v76q0 52 34 83t114 60zM131 186v-78q0 -30 22 -30q15 0 19.5 7t4.5 23v143q-18 -12 -25.5 -17.5t-14 -18t-6.5 -29.5zM184 652h63
q0 -108 -89 -108q-88 0 -88 108h61q0 -34 27 -34q26 0 26 34z" />
    <glyph glyph-name="Aogonek" unicode="&#x104;" horiz-adv-x="340" 
d="M322 -170h-12q-51 0 -76 20.5t-25 54.5q0 58 56 95h-52l-10 136h-65l-10 -136h-109l82 700h139l82 -700q-33 -28 -33 -57q0 -20 23 -20h10v-93zM155 339l-7 -103h45l-7 103q-12 162 -15 248h-1q-8 -148 -15 -248z" />
    <glyph glyph-name="aogonek" unicode="&#x105;" horiz-adv-x="317" 
d="M279 -170h-12q-51 0 -76 20.5t-25 54.5q0 58 56 95l-17 24q-24 -34 -76 -34t-76 29t-24 89v76q0 52 34 83t114 60v68q0 27 -22 27q-20 0 -20 -27v-39h-100v42q0 112 121 112q123 0 123 -116v-394q-33 -28 -33 -57q0 -20 23 -20h10v-93zM131 186v-78q0 -30 22 -30
q15 0 19.5 7t4.5 23v143q-18 -12 -25.5 -17.5t-14 -18t-6.5 -29.5z" />
    <glyph glyph-name="Cacute" unicode="&#x106;" horiz-adv-x="352" 
d="M208 220h106v-102q0 -61 -30 -94.5t-104 -33.5q-75 0 -105.5 34t-30.5 94v464q0 60 30.5 94t105.5 34q74 0 104 -33.5t30 -94.5v-92h-106v92q0 31 -28 31t-28 -31v-463q0 -32 28 -32t28 32v101zM160 885h97l-57 -135h-60z" />
    <glyph glyph-name="cacute" unicode="&#x107;" horiz-adv-x="319" 
d="M187 182h99v-74q0 -58 -26.5 -88t-95.5 -30q-70 0 -97.5 30.5t-27.5 87.5v285q0 57 28.5 87t96.5 30q67 0 94.5 -30t27.5 -87v-65h-99v67q0 27 -23 27t-23 -27v-290q0 -27 23 -27t23 27v77zM148 685h97l-57 -135h-60z" />
    <glyph glyph-name="Ccircumflex" unicode="&#x108;" horiz-adv-x="352" 
d="M208 220h106v-102q0 -61 -30 -94.5t-104 -33.5q-75 0 -105.5 34t-30.5 94v464q0 60 30.5 94t105.5 34q74 0 104 -33.5t30 -94.5v-92h-106v92q0 31 -28 31t-28 -31v-463q0 -32 28 -32t28 32v101zM134 885h82l55 -135h-72l-24 49l-24 -49h-71z" />
    <glyph glyph-name="ccircumflex" unicode="&#x109;" horiz-adv-x="319" 
d="M187 182h99v-74q0 -58 -26.5 -88t-95.5 -30q-70 0 -97.5 30.5t-27.5 87.5v285q0 57 28.5 87t96.5 30q67 0 94.5 -30t27.5 -87v-65h-99v67q0 27 -23 27t-23 -27v-290q0 -27 23 -27t23 27v77zM122 687h82l55 -135h-72l-24 49l-24 -49h-71z" />
    <glyph glyph-name="Cdotaccent" unicode="&#x10a;" horiz-adv-x="352" 
d="M208 220h106v-102q0 -61 -30 -94.5t-104 -33.5q-75 0 -105.5 34t-30.5 94v464q0 60 30.5 94t105.5 34q74 0 104 -33.5t30 -94.5v-92h-106v92q0 31 -28 31t-28 -31v-463q0 -32 28 -32t28 32v101zM125 864h102v-114h-102v114z" />
    <glyph glyph-name="cdotaccent" unicode="&#x10b;" horiz-adv-x="319" 
d="M187 182h99v-74q0 -58 -26.5 -88t-95.5 -30q-70 0 -97.5 30.5t-27.5 87.5v285q0 57 28.5 87t96.5 30q67 0 94.5 -30t27.5 -87v-65h-99v67q0 27 -23 27t-23 -27v-290q0 -27 23 -27t23 27v77zM108 666h102v-114h-102v114z" />
    <glyph glyph-name="Ccaron" unicode="&#x10c;" horiz-adv-x="352" 
d="M208 220h106v-102q0 -61 -30 -94.5t-104 -33.5q-75 0 -105.5 34t-30.5 94v464q0 60 30.5 94t105.5 34q74 0 104 -33.5t30 -94.5v-92h-106v92q0 31 -28 31t-28 -31v-463q0 -32 28 -32t28 32v101zM216 750h-82l-54 135h71l24 -49l24 49h72z" />
    <glyph glyph-name="ccaron" unicode="&#x10d;" horiz-adv-x="319" 
d="M187 182h99v-74q0 -58 -26.5 -88t-95.5 -30q-70 0 -97.5 30.5t-27.5 87.5v285q0 57 28.5 87t96.5 30q67 0 94.5 -30t27.5 -87v-65h-99v67q0 27 -23 27t-23 -27v-290q0 -27 23 -27t23 27v77zM200 552h-82l-54 135h71l24 -49l24 49h72z" />
    <glyph glyph-name="Dcaron" unicode="&#x10e;" horiz-adv-x="369" 
d="M49 0v700h146q73 0 99.5 -30t26.5 -95v-450q0 -66 -26 -95.5t-97 -29.5h-149zM157 598v-496h35q21 0 21 22v450q0 24 -23 24h-33zM211 750h-82l-54 135h71l24 -49l24 49h72z" />
    <glyph glyph-name="dcaron" unicode="&#x10f;" horiz-adv-x="378" 
d="M141 394v-289q0 -27 23 -27t23 27v291q0 26 -23 26t-23 -28zM39 106v290q0 61 20 87.5t72 26.5q34 0 56 -20v220h102v-710h-57l-17 24q-22 -34 -80 -34q-52 0 -74 27.5t-22 88.5zM312 710h76l-34 -160h-42v160z" />
    <glyph glyph-name="Dcroat" unicode="&#x110;" horiz-adv-x="369" 
d="M49 0v316h-27v76h27v308h146q73 0 99.5 -30t26.5 -95v-450q0 -66 -26 -95.5t-97 -29.5h-149zM157 598v-206h28v-76h-28v-214h35q21 0 21 22v450q0 24 -23 24h-33z" />
    <glyph glyph-name="dcroat" unicode="&#x111;" horiz-adv-x="327" 
d="M141 394v-289q0 -27 23 -27t23 27v291q0 26 -23 26t-23 -28zM109 578v66h78v66h102v-710h-57l-17 24q-22 -34 -80 -34q-52 0 -74 27.5t-22 88.5v290q0 61 20 87.5t72 26.5q34 0 56 -20v88h-78z" />
    <glyph glyph-name="Emacron" unicode="&#x112;" horiz-adv-x="303" 
d="M157 304v-202h113v-102h-221v700h221v-102h-113v-194h99v-100h-99zM74 750v76h170v-76h-170z" />
    <glyph glyph-name="emacron" unicode="&#x113;" horiz-adv-x="324" 
d="M141 234v-129q0 -27 23 -27t23 27v77h99v-72q0 -58 -26.5 -89t-95.5 -31q-70 0 -97.5 31t-27.5 89v281q0 57 28.5 88t96.5 31q67 0 94.5 -31t27.5 -88v-157h-145zM141 395v-85h46v85q0 27 -23 27t-23 -27zM77 552v76h170v-76h-170z" />
    <glyph glyph-name="Ebreve" unicode="&#x114;" horiz-adv-x="303" 
d="M157 304v-202h113v-102h-221v700h221v-102h-113v-194h99v-100h-99zM185 850h63q0 -108 -89 -108q-88 0 -88 108h61q0 -34 27 -34q26 0 26 34z" />
    <glyph glyph-name="ebreve" unicode="&#x115;" horiz-adv-x="324" 
d="M141 234v-129q0 -27 23 -27t23 27v77h99v-72q0 -58 -26.5 -89t-95.5 -31q-70 0 -97.5 31t-27.5 89v281q0 57 28.5 88t96.5 31q67 0 94.5 -31t27.5 -88v-157h-145zM141 395v-85h46v85q0 27 -23 27t-23 -27zM187 652h63q0 -108 -89 -108q-88 0 -88 108h61q0 -34 27 -34
q26 0 26 34z" />
    <glyph glyph-name="Edotaccent" unicode="&#x116;" horiz-adv-x="303" 
d="M157 304v-202h113v-102h-221v700h221v-102h-113v-194h99v-100h-99zM108 864h102v-114h-102v114z" />
    <glyph glyph-name="edotaccent" unicode="&#x117;" horiz-adv-x="324" 
d="M141 234v-129q0 -27 23 -27t23 27v77h99v-72q0 -58 -26.5 -89t-95.5 -31q-70 0 -97.5 31t-27.5 89v281q0 57 28.5 88t96.5 31q67 0 94.5 -31t27.5 -88v-157h-145zM141 395v-85h46v85q0 27 -23 27t-23 -27zM111 666h102v-114h-102v114z" />
    <glyph glyph-name="Eogonek" unicode="&#x118;" horiz-adv-x="303" 
d="M270 -170h-12q-51 0 -76 20.5t-25 54.5q0 58 56 95h-164v700h221v-102h-113v-194h99v-100h-99v-202h113v-102q-33 -28 -33 -57q0 -20 23 -20h10v-93z" />
    <glyph glyph-name="eogonek" unicode="&#x119;" horiz-adv-x="324" 
d="M246 -159h-12q-51 0 -76 20.5t-25 54.5q0 43 31 74q-70 0 -97.5 31t-27.5 89v281q0 57 28.5 88t96.5 31q67 0 94.5 -31t27.5 -88v-157h-145v-129q0 -27 23 -27t23 27v77h99v-72q0 -78 -46 -104q-27 -25 -27 -52q0 -20 23 -20h10v-93zM141 395v-85h46v85q0 27 -23 27
t-23 -27z" />
    <glyph glyph-name="Ecaron" unicode="&#x11a;" horiz-adv-x="303" 
d="M157 304v-202h113v-102h-221v700h221v-102h-113v-194h99v-100h-99zM200 750h-82l-54 135h71l24 -49l24 49h72z" />
    <glyph glyph-name="ecaron" unicode="&#x11b;" horiz-adv-x="324" 
d="M141 234v-129q0 -27 23 -27t23 27v77h99v-72q0 -58 -26.5 -89t-95.5 -31q-70 0 -97.5 31t-27.5 89v281q0 57 28.5 88t96.5 31q67 0 94.5 -31t27.5 -88v-157h-145zM141 395v-85h46v85q0 27 -23 27t-23 -27zM202 552h-82l-54 135h71l24 -49l24 49h72z" />
    <glyph glyph-name="Gcircumflex" unicode="&#x11c;" horiz-adv-x="359" 
d="M180 304v100h136v-286q0 -60 -30.5 -94t-105.5 -34t-105.5 34t-30.5 94v464q0 60 30.5 94t105.5 34t105.5 -34t30.5 -94v-92h-108v94q0 29 -28 29t-28 -29v-465q0 -32 28 -32t28 32v185h-28zM138 885h82l55 -135h-72l-24 49l-24 -49h-71z" />
    <glyph glyph-name="gcircumflex" unicode="&#x11d;" horiz-adv-x="318" 
d="M114 687h82l52 -128q12 6 29 6q19 0 28 -3v-76q-18 6 -36 6q-15 0 -25 -7q37 -30 37 -93v-168q0 -56 -28.5 -85.5t-96.5 -29.5q-33 0 -33 -25q0 -26 33 -26q73 0 103.5 -28.5t30.5 -82.5v-3q0 -50 -32 -82t-101 -32q-134 0 -134 114v3q0 67 50 95q-25 16 -25 41
q0 28 29 42q-46 26 -46 99v168q0 57 28.5 87.5t96.5 30.5q25 0 48 -5q11 33 31 47h-56l-24 49l-24 -49h-71zM156 422q-23 0 -23 -29v-180q0 -30 23 -30t23 30v180q0 29 -23 29zM157 -4q-35 0 -35 -35v-2q0 -38 35 -38q34 0 34 38v2q0 35 -34 35z" />
    <glyph glyph-name="Gbreve" unicode="&#x11e;" horiz-adv-x="359" 
d="M180 304v100h136v-286q0 -60 -30.5 -94t-105.5 -34t-105.5 34t-30.5 94v464q0 60 30.5 94t105.5 34t105.5 -34t30.5 -94v-92h-108v94q0 29 -28 29t-28 -29v-465q0 -32 28 -32t28 32v185h-28zM205 850h63q0 -108 -89 -108q-88 0 -88 108h61q0 -34 27 -34q26 0 26 34z" />
    <glyph glyph-name="gbreve" unicode="&#x11f;" horiz-adv-x="318" 
d="M156 109q-33 0 -33 -25q0 -26 33 -26q73 0 103.5 -28.5t30.5 -82.5v-3q0 -50 -32 -82t-101 -32q-134 0 -134 114v3q0 67 50 95q-25 16 -25 41q0 28 29 42q-46 26 -46 99v168q0 57 28.5 87.5t96.5 30.5q25 0 48 -5q20 60 73 60q19 0 28 -3v-76q-18 6 -36 6q-15 0 -25 -7
q37 -30 37 -93v-168q0 -56 -28.5 -85.5t-96.5 -29.5zM156 422q-23 0 -23 -29v-180q0 -30 23 -30t23 30v180q0 29 -23 29zM157 -4q-35 0 -35 -35v-2q0 -38 35 -38q34 0 34 38v2q0 35 -34 35zM179 652h63q0 -108 -89 -108q-88 0 -88 108h61q0 -34 27 -34q26 0 26 34z" />
    <glyph glyph-name="Gdotaccent" unicode="&#x120;" horiz-adv-x="359" 
d="M180 304v100h136v-286q0 -60 -30.5 -94t-105.5 -34t-105.5 34t-30.5 94v464q0 60 30.5 94t105.5 34t105.5 -34t30.5 -94v-92h-108v94q0 29 -28 29t-28 -29v-465q0 -32 28 -32t28 32v185h-28zM128 864h102v-114h-102v114z" />
    <glyph glyph-name="gdotaccent" unicode="&#x121;" horiz-adv-x="318" 
d="M156 109q-33 0 -33 -25q0 -26 33 -26q73 0 103.5 -28.5t30.5 -82.5v-3q0 -50 -32 -82t-101 -32q-134 0 -134 114v3q0 67 50 95q-25 16 -25 41q0 28 29 42q-46 26 -46 99v168q0 57 28.5 87.5t96.5 30.5q25 0 48 -5q20 60 73 60q19 0 28 -3v-76q-18 6 -36 6q-15 0 -25 -7
q37 -30 37 -93v-168q0 -56 -28.5 -85.5t-96.5 -29.5zM156 422q-23 0 -23 -29v-180q0 -30 23 -30t23 30v180q0 29 -23 29zM157 -4q-35 0 -35 -35v-2q0 -38 35 -38q34 0 34 38v2q0 35 -34 35zM104 666h102v-114h-102v114z" />
    <glyph glyph-name="Gcommaaccent" unicode="&#x122;" horiz-adv-x="359" 
d="M180 304v100h136v-286q0 -60 -30.5 -94t-105.5 -34t-105.5 34t-30.5 94v464q0 60 30.5 94t105.5 34t105.5 -34t30.5 -94v-92h-108v94q0 29 -28 29t-28 -29v-465q0 -32 28 -32t28 32v185h-28zM133 -48h93l-35 -122h-58v122z" />
    <glyph glyph-name="gcommaaccent" unicode="&#x123;" horiz-adv-x="318" 
d="M156 109q-33 0 -33 -25q0 -26 33 -26q73 0 103.5 -28.5t30.5 -82.5v-3q0 -50 -32 -82t-101 -32q-134 0 -134 114v3q0 67 50 95q-25 16 -25 41q0 28 29 42q-46 26 -46 99v168q0 57 28.5 87.5t96.5 30.5q25 0 48 -5q20 60 73 60q19 0 28 -3v-76q-18 6 -36 6q-15 0 -25 -7
q37 -30 37 -93v-168q0 -56 -28.5 -85.5t-96.5 -29.5zM156 422q-23 0 -23 -29v-180q0 -30 23 -30t23 30v180q0 29 -23 29zM157 -4q-35 0 -35 -35v-2q0 -38 35 -38q34 0 34 38v2q0 35 -34 35zM205 548h-93l35 122h58v-122z" />
    <glyph glyph-name="Hcircumflex" unicode="&#x124;" horiz-adv-x="369" 
d="M157 304v-304h-108v700h108v-296h56v296h108v-700h-108v304h-56zM143 885h82l55 -135h-72l-24 49l-24 -49h-71z" />
    <glyph glyph-name="hcircumflex" unicode="&#x125;" horiz-adv-x="327" 
d="M289 0h-102v394q0 28 -23 28t-23 -26v-396h-102v710h102v-220q22 20 54 20q53 0 73.5 -27t20.5 -88v-395zM49 886h82l55 -135h-72l-24 49l-24 -49h-71z" />
    <glyph glyph-name="Hbar" unicode="&#x126;" horiz-adv-x="369" 
d="M17 528v52h32v120h108v-120h56v120h108v-120h32v-52h-32v-528h-108v304h-56v-304h-108v528h-32zM157 404h56v124h-56v-124z" />
    <glyph glyph-name="hbar" unicode="&#x127;" horiz-adv-x="327" 
d="M289 0h-102v394q0 28 -23 28t-23 -26v-396h-102v710h102v-66h145v-76h-145v-78q22 20 54 20q53 0 73.5 -27t20.5 -88v-395z" />
    <glyph glyph-name="Itilde" unicode="&#x128;" horiz-adv-x="205" 
d="M49 0v700h108v-700h-108zM151 749q-27 0 -51 16.5t-37 16.5q-17 0 -17 -24h-57q0 55 12.5 77.5t53.5 22.5q27 0 51 -16.5t37 -16.5q17 0 17 24h57q0 -54 -13 -77t-53 -23z" />
    <glyph glyph-name="itilde" unicode="&#x129;" horiz-adv-x="179" 
d="M39 500h102v-500h-102v500zM138 549q-28 0 -52 16.5t-36 16.5q-17 0 -17 -24h-57q0 55 12.5 77.5t53.5 22.5q27 0 51 -16.5t37 -16.5q17 0 17 24h57q0 -54 -13 -77t-53 -23z" />
    <glyph glyph-name="Imacron" unicode="&#x12a;" horiz-adv-x="205" 
d="M49 0v700h108v-700h-108zM18 750v76h170v-76h-170z" />
    <glyph glyph-name="imacron" unicode="&#x12b;" horiz-adv-x="179" 
d="M39 500h102v-500h-102v500zM5 552v76h170v-76h-170z" />
    <glyph glyph-name="Ibreve" unicode="&#x12c;" horiz-adv-x="205" 
d="M49 0v700h108v-700h-108zM128 850h63q0 -108 -89 -108q-88 0 -88 108h61q0 -34 27 -34q26 0 26 34z" />
    <glyph glyph-name="ibreve" unicode="&#x12d;" horiz-adv-x="179" 
d="M39 500h102v-500h-102v500zM115 652h63q0 -108 -89 -108q-88 0 -88 108h61q0 -34 27 -34q26 0 26 34z" />
    <glyph glyph-name="Iogonek" unicode="&#x12e;" horiz-adv-x="205" 
d="M49 0v700h108v-700q-33 -28 -33 -57q0 -20 23 -20h10v-93h-12q-51 0 -76 20.5t-25 54.5q0 58 56 95h-51z" />
    <glyph glyph-name="iogonek" unicode="&#x12f;" horiz-adv-x="179" 
d="M141 -170h-12q-51 0 -76 20.5t-25 54.5q0 58 56 95h-45v500h102v-500q-33 -28 -33 -57q0 -20 23 -20h10v-93zM39 666h102v-114h-102v114z" />
    <glyph glyph-name="Idotaccent" unicode="&#x130;" horiz-adv-x="205" 
d="M49 0v700h108v-700h-108zM51 864h102v-114h-102v114z" />
    <glyph glyph-name="dotlessi" unicode="&#x131;" horiz-adv-x="179" 
d="M39 500h102v-500h-102v500z" />
    <glyph glyph-name="Jcircumflex" unicode="&#x134;" horiz-adv-x="333" 
d="M182 700h108v-582q0 -61 -29.5 -94.5t-103.5 -33.5t-103.5 33.5t-29.5 94.5v102h106v-101q0 -32 26 -32t26 32v581zM192 885h82l55 -135h-72l-24 49l-24 -49h-71z" />
    <glyph glyph-name="jcircumflex" unicode="&#x135;" horiz-adv-x="179" 
d="M141 500v-548q0 -62 -28.5 -92t-99.5 -30q-24 0 -46 8v88q19 -8 42 -8q30 0 30 34v548h102zM48 687h82l55 -135h-72l-24 49l-24 -49h-71z" />
    <glyph glyph-name="Kcommaaccent" unicode="&#x136;" horiz-adv-x="351" 
d="M157 700l-2 -310l64 310h118l-96 -347l102 -353h-117l-71 318l2 -318h-108v700h108zM143 -48h93l-35 -122h-58v122z" />
    <glyph glyph-name="kcommaaccent" unicode="&#x137;" horiz-adv-x="322" 
d="M146 710v-416l52 206h111l-79 -243l89 -257h-112l-61 215v-215h-102v710h102zM126 -48h93l-35 -122h-58v122z" />
    <glyph glyph-name="kgreenlandic" unicode="&#x138;" horiz-adv-x="322" 
d="M146 500v-206l52 206h111l-79 -243l89 -257h-112l-61 215v-215h-102v500h102z" />
    <glyph glyph-name="Lacute" unicode="&#x139;" horiz-adv-x="265" 
d="M49 0v700h108v-598h90v-102h-198zM90 885h97l-57 -135h-60z" />
    <glyph glyph-name="lacute" unicode="&#x13a;" horiz-adv-x="179" 
d="M39 710h102v-710h-102v710zM78 885h97l-57 -135h-60z" />
    <glyph glyph-name="Lcommaaccent" unicode="&#x13b;" horiz-adv-x="265" 
d="M49 0v700h108v-598h90v-102h-198zM96 -48h93l-35 -122h-58v122z" />
    <glyph glyph-name="lcommaaccent" unicode="&#x13c;" horiz-adv-x="179" 
d="M39 710h102v-710h-102v710zM43 -48h93l-35 -122h-58v122z" />
    <glyph glyph-name="Lcaron" unicode="&#x13d;" horiz-adv-x="265" 
d="M49 0v700h108v-598h90v-102h-198zM189 710h76l-34 -160h-42v160z" />
    <glyph glyph-name="lcaron" unicode="&#x13e;" horiz-adv-x="230" 
d="M39 710h102v-710h-102v710zM164 710h76l-34 -160h-42v160z" />
    <glyph glyph-name="Ldot" unicode="&#x13f;" horiz-adv-x="265" 
d="M49 0v700h108v-598h90v-102h-198zM180 337h69v-114h-69v114z" />
    <glyph glyph-name="ldot" unicode="&#x140;" horiz-adv-x="271" 
d="M39 710h102v-710h-102v710zM171 337h102v-114h-102v114z" />
    <glyph glyph-name="Lslash" unicode="&#x141;" horiz-adv-x="265" 
d="M49 0v250l-50 -17v76l50 17v374h108v-337l49 17v-76l-49 -17v-185h90v-102h-198z" />
    <glyph glyph-name="lslash" unicode="&#x142;" horiz-adv-x="179" 
d="M39 710h102v-353l35 13v-76l-35 -13v-281h-102v245l-35 -12v76l35 12v389z" />
    <glyph glyph-name="Nacute" unicode="&#x143;" horiz-adv-x="386" 
d="M237 0l-101 450q11 -204 11 -349v-101h-103v700h109l98 -441q-11 157 -11 318v123h103v-700h-106zM179 885h97l-57 -135h-60z" />
    <glyph glyph-name="nacute" unicode="&#x144;" 
d="M294 0h-102v395q0 27 -23 27t-23 -27v-395h-102v500h57l17 -24q28 34 82 34q52 0 73 -27.5t21 -88.5v-394zM157 685h97l-57 -135h-60z" />
    <glyph glyph-name="Ncommaaccent" unicode="&#x145;" horiz-adv-x="386" 
d="M237 0l-101 450q11 -204 11 -349v-101h-103v700h109l98 -441q-11 157 -11 318v123h103v-700h-106zM146 -48h93l-35 -122h-58v122z" />
    <glyph glyph-name="ncommaaccent" unicode="&#x146;" 
d="M294 0h-102v395q0 27 -23 27t-23 -27v-395h-102v500h57l17 -24q28 34 82 34q52 0 73 -27.5t21 -88.5v-394zM122 -48h93l-35 -122h-58v122z" />
    <glyph glyph-name="Ncaron" unicode="&#x147;" horiz-adv-x="386" 
d="M237 0l-101 450q11 -204 11 -349v-101h-103v700h109l98 -441q-11 157 -11 318v123h103v-700h-106zM233 750h-82l-54 135h71l24 -49l24 49h72z" />
    <glyph glyph-name="ncaron" unicode="&#x148;" 
d="M294 0h-102v395q0 27 -23 27t-23 -27v-395h-102v500h57l17 -24q28 34 82 34q52 0 73 -27.5t21 -88.5v-394zM209 552h-82l-54 135h71l24 -49l24 49h72z" />
    <glyph glyph-name="Eng" unicode="&#x14a;" horiz-adv-x="386" 
d="M237 0l-101 450q11 -204 11 -349v-101h-103v700h109l98 -441q-11 157 -11 318v123h103v-748q0 -59 -28 -90.5t-100 -31.5q-24 0 -46 8v88q17 -8 39 -8q16 0 22.5 8t6.5 26v48z" />
    <glyph glyph-name="eng" unicode="&#x14b;" 
d="M294 394v-442q0 -62 -28.5 -92t-99.5 -30q-24 0 -46 8v88q19 -8 42 -8q30 0 30 34v443q0 27 -23 27t-23 -27v-395h-102v500h57l17 -24q28 34 82 34q52 0 73 -27.5t21 -88.5z" />
    <glyph glyph-name="Omacron" unicode="&#x14c;" horiz-adv-x="359" 
d="M180 87q28 0 28 32v463q0 31 -28 31t-28 -31v-463q0 -32 28 -32zM180 -10q-75 0 -105.5 34t-30.5 94v463q0 129 136 129t136 -129v-463q0 -60 -30.5 -94t-105.5 -34zM94 750v76h170v-76h-170z" />
    <glyph glyph-name="omacron" unicode="&#x14d;" horiz-adv-x="327" 
d="M164 78q23 0 23 27v290q0 27 -23 27t-23 -27v-290q0 -27 23 -27zM164 -10q-70 0 -97.5 30.5t-27.5 87.5v285q0 57 28.5 87t96.5 30t96.5 -30t28.5 -87v-285q0 -57 -27.5 -87.5t-97.5 -30.5zM78 552v76h170v-76h-170z" />
    <glyph glyph-name="Obreve" unicode="&#x14e;" horiz-adv-x="359" 
d="M180 87q28 0 28 32v463q0 31 -28 31t-28 -31v-463q0 -32 28 -32zM180 -10q-75 0 -105.5 34t-30.5 94v463q0 129 136 129t136 -129v-463q0 -60 -30.5 -94t-105.5 -34zM205 850h63q0 -108 -89 -108q-88 0 -88 108h61q0 -34 27 -34q26 0 26 34z" />
    <glyph glyph-name="obreve" unicode="&#x14f;" horiz-adv-x="327" 
d="M164 78q23 0 23 27v290q0 27 -23 27t-23 -27v-290q0 -27 23 -27zM164 -10q-70 0 -97.5 30.5t-27.5 87.5v285q0 57 28.5 87t96.5 30t96.5 -30t28.5 -87v-285q0 -57 -27.5 -87.5t-97.5 -30.5zM189 652h63q0 -108 -89 -108q-88 0 -88 108h61q0 -34 27 -34q26 0 26 34z" />
    <glyph glyph-name="Ohungarumlaut" unicode="&#x150;" horiz-adv-x="359" 
d="M180 87q28 0 28 32v463q0 31 -28 31t-28 -31v-463q0 -32 28 -32zM180 -10q-75 0 -105.5 34t-30.5 94v463q0 129 136 129t136 -129v-463q0 -60 -30.5 -94t-105.5 -34zM111 885h97l-53 -135h-56zM233 885h97l-67 -135h-57z" />
    <glyph glyph-name="ohungarumlaut" unicode="&#x151;" horiz-adv-x="327" 
d="M164 78q23 0 23 27v290q0 27 -23 27t-23 -27v-290q0 -27 23 -27zM164 -10q-70 0 -97.5 30.5t-27.5 87.5v285q0 57 28.5 87t96.5 30t96.5 -30t28.5 -87v-285q0 -57 -27.5 -87.5t-97.5 -30.5zM96 685h97l-53 -135h-56zM218 685h97l-67 -135h-57z" />
    <glyph glyph-name="OE" unicode="&#x152;" horiz-adv-x="452" 
d="M180 87q28 0 28 32v463q0 31 -28 31t-28 -31v-463q0 -32 28 -32zM316 304v-202h113v-102h-189q-27 -10 -60 -10q-75 0 -105.5 34t-30.5 94v463q0 129 136 129q32 0 59 -10h190v-102h-113v-194h99v-100h-99z" />
    <glyph glyph-name="oe" unicode="&#x153;" horiz-adv-x="472" 
d="M164 78q23 0 23 27v290q0 27 -23 27t-23 -27v-290q0 -27 23 -27zM289 395v-85h46v85q0 27 -23 27t-23 -27zM289 234v-129q0 -27 23 -27t23 27v67h99v-62q0 -58 -26.5 -89t-95.5 -31q-44 0 -74 15q-28 -15 -74 -15q-70 0 -97.5 30.5t-27.5 87.5v285q0 57 28.5 87t96.5 30
q47 0 74 -16q29 16 74 16q67 0 94.5 -31t27.5 -88v-157h-145z" />
    <glyph glyph-name="Racute" unicode="&#x154;" horiz-adv-x="357" 
d="M49 0v700h153q67 0 92 -30t25 -89v-174q0 -48 -11.5 -74t-43.5 -37l90 -296h-115l-76 292h-6v-292h-108zM157 598v-207h35q21 0 21 22v161q0 24 -23 24h-33zM163 885h97l-57 -135h-60z" />
    <glyph glyph-name="racute" unicode="&#x155;" horiz-adv-x="234" 
d="M211 517v-108q-70 11 -70 -57v-352h-102v500h57l17 -24q33 41 98 41zM109 685h97l-57 -135h-60z" />
    <glyph glyph-name="Rcommaaccent" unicode="&#x156;" horiz-adv-x="357" 
d="M49 0v700h153q67 0 92 -30t25 -89v-174q0 -48 -11.5 -74t-43.5 -37l90 -296h-115l-76 292h-6v-292h-108zM157 598v-207h35q21 0 21 22v161q0 24 -23 24h-33zM132 -48h93l-35 -122h-58v122z" />
    <glyph glyph-name="rcommaaccent" unicode="&#x157;" horiz-adv-x="234" 
d="M211 517v-108q-70 11 -70 -57v-352h-102v500h57l17 -24q33 41 98 41zM41 -48h93l-35 -122h-58v122z" />
    <glyph glyph-name="Rcaron" unicode="&#x158;" horiz-adv-x="357" 
d="M49 0v700h153q67 0 92 -30t25 -89v-174q0 -48 -11.5 -74t-43.5 -37l90 -296h-115l-76 292h-6v-292h-108zM157 598v-207h35q21 0 21 22v161q0 24 -23 24h-33zM206 750h-82l-54 135h71l24 -49l24 49h72z" />
    <glyph glyph-name="rcaron" unicode="&#x159;" horiz-adv-x="234" 
d="M211 517v-108q-70 11 -70 -57v-352h-102v500h57l17 -24q33 41 98 41zM171 552h-82l-54 135h71l24 -49l24 49h72z" />
    <glyph glyph-name="Sacute" unicode="&#x15a;" horiz-adv-x="349" 
d="M147 220v-102q0 -31 28 -31t28 31v70q0 52 -17 85.5t-41 53t-48 39.5t-41 59t-17 98v61q0 126 136 126t136 -126v-94h-108v93q0 30 -28 30t-28 -30v-57q0 -44 17 -73t41 -46.5t48 -39t41 -66t17 -111.5v-74q0 -126 -136 -126t-136 126v104h108zM165 885h97l-57 -135h-60z
" />
    <glyph glyph-name="sacute" unicode="&#x15b;" horiz-adv-x="302" 
d="M129 164v-59q0 -27 23 -27t23 27v40q0 29 -15 49.5t-36.5 34.5t-43 30t-36.5 45.5t-15 71.5v17q0 57 28.5 87t94.5 30q67 0 95 -30t28 -88v-46h-100v48q0 28 -23 28t-23 -27v-21q0 -27 15 -47t36.5 -34t43 -29.5t36.5 -44.5t15 -70v-43q0 -58 -28.5 -87t-95.5 -29
t-94.5 29t-27.5 87v58h100zM134 685h97l-57 -135h-60z" />
    <glyph glyph-name="Scircumflex" unicode="&#x15c;" horiz-adv-x="349" 
d="M147 220v-102q0 -31 28 -31t28 31v70q0 52 -17 85.5t-41 53t-48 39.5t-41 59t-17 98v61q0 126 136 126t136 -126v-94h-108v93q0 30 -28 30t-28 -30v-57q0 -44 17 -73t41 -46.5t48 -39t41 -66t17 -111.5v-74q0 -126 -136 -126t-136 126v104h108zM133 885h82l55 -135h-72
l-24 49l-24 -49h-71z" />
    <glyph glyph-name="scircumflex" unicode="&#x15d;" horiz-adv-x="308" 
d="M129 164v-59q0 -27 23 -27t23 27v40q0 29 -15 49.5t-36.5 34.5t-43 30t-36.5 45.5t-15 71.5v17q0 57 28.5 87t94.5 30q67 0 95 -30t28 -88v-46h-100v48q0 28 -23 28t-23 -27v-21q0 -27 15 -47t36.5 -34t43 -29.5t36.5 -44.5t15 -70v-43q0 -58 -28.5 -87t-95.5 -29
t-94.5 29t-27.5 87v58h100zM112 687h82l55 -135h-72l-24 49l-24 -49h-71z" />
    <glyph glyph-name="Scedilla" unicode="&#x15e;" horiz-adv-x="349" 
d="M127 -81l20 73q-108 11 -108 124v104h108v-102q0 -31 28 -31t28 31v70q0 52 -17 85.5t-41 53t-48 39.5t-41 59t-17 98v61q0 126 136 126t136 -126v-94h-108v93q0 30 -28 30t-28 -30v-57q0 -44 17 -73t41 -46.5t48 -39t41 -66t17 -111.5v-74q0 -114 -113 -125l-7 -30
q56 -11 56 -62q0 -33 -18.5 -51t-68.5 -18h-58l16 61h29q19 0 19 14t-19 14h-20z" />
    <glyph glyph-name="scedilla" unicode="&#x15f;" horiz-adv-x="308" 
d="M96 -81l21 74q-88 12 -88 113v58h100v-59q0 -27 23 -27t23 27v40q0 29 -15 49.5t-36.5 34.5t-43 30t-36.5 45.5t-15 71.5v17q0 57 28.5 87t94.5 30q67 0 95 -30t28 -88v-46h-100v48q0 28 -23 28t-23 -27v-21q0 -27 15 -47t36.5 -34t43 -29.5t36.5 -44.5t15 -70v-43
q0 -54 -25 -82.5t-83 -32.5l-7 -30q56 -11 56 -62q0 -33 -18.5 -51t-68.5 -18h-58l16 61h29q19 0 19 14t-19 14h-20z" />
    <glyph glyph-name="Scaron" unicode="&#x160;" horiz-adv-x="349" 
d="M147 220v-102q0 -31 28 -31t28 31v70q0 52 -17 85.5t-41 53t-48 39.5t-41 59t-17 98v61q0 126 136 126t136 -126v-94h-108v93q0 30 -28 30t-28 -30v-57q0 -44 17 -73t41 -46.5t48 -39t41 -66t17 -111.5v-74q0 -126 -136 -126t-136 126v104h108zM215 750h-82l-54 135h71
l24 -49l24 49h72z" />
    <glyph glyph-name="scaron" unicode="&#x161;" horiz-adv-x="308" 
d="M129 164v-59q0 -27 23 -27t23 27v40q0 29 -15 49.5t-36.5 34.5t-43 30t-36.5 45.5t-15 71.5v17q0 57 28.5 87t94.5 30q67 0 95 -30t28 -88v-46h-100v48q0 28 -23 28t-23 -27v-21q0 -27 15 -47t36.5 -34t43 -29.5t36.5 -44.5t15 -70v-43q0 -58 -28.5 -87t-95.5 -29
t-94.5 29t-27.5 87v58h100zM194 552h-82l-54 135h71l24 -49l24 49h72z" />
    <glyph glyph-name="Tcommaaccent" unicode="&#x162;" horiz-adv-x="297" 
d="M203 598v-598h-108v598h-76v102h260v-102h-76zM102 -48h93l-35 -122h-58v122z" />
    <glyph glyph-name="tcommaaccent" unicode="&#x163;" horiz-adv-x="252" 
d="M65 627l102 28v-155h67v-90h-67v-303q0 -29 26 -29q18 0 41 9v-87q-20 -10 -47 -10q-70 0 -96 29t-26 88v303h-51v90h51v127zM104 -48h93l-35 -122h-58v122z" />
    <glyph glyph-name="Tcaron" unicode="&#x164;" horiz-adv-x="297" 
d="M203 598v-598h-108v598h-76v102h260v-102h-76zM189 750h-82l-54 135h71l24 -49l24 49h72z" />
    <glyph glyph-name="tcaron" unicode="&#x165;" horiz-adv-x="252" 
d="M65 627l102 28v-155h67v-90h-67v-303q0 -29 26 -29q18 0 41 9v-87q-20 -10 -47 -10q-70 0 -96 29t-26 88v303h-51v90h51v127zM192 710h76l-34 -160h-42v160z" />
    <glyph glyph-name="Tbar" unicode="&#x166;" horiz-adv-x="297" 
d="M39 316v76h56v206h-76v102h260v-102h-76v-206h56v-76h-56v-316h-108v316h-56z" />
    <glyph glyph-name="tbar" unicode="&#x167;" horiz-adv-x="252" 
d="M65 627l102 28v-155h67v-90h-67v-122h47v-76h-47v-105q0 -29 26 -29q18 0 41 9v-87q-20 -10 -47 -10q-70 0 -96 29t-26 88v105h-33v76h33v122h-51v90h51v127z" />
    <glyph glyph-name="Utilde" unicode="&#x168;" horiz-adv-x="369" 
d="M49 700h108v-583q0 -30 28 -30t28 30v583h108v-584q0 -60 -30.5 -93t-105.5 -33t-105.5 33t-30.5 93v584zM232 749q-28 0 -52 16.5t-36 16.5q-17 0 -17 -24h-57q0 55 12.5 77.5t53.5 22.5q27 0 51 -16.5t37 -16.5q17 0 17 24h57q0 -54 -13 -77t-53 -23z" />
    <glyph glyph-name="utilde" unicode="&#x169;" 
d="M44 500h102v-395q0 -27 23 -27t23 27v395h102v-500h-57l-17 24q-22 -34 -80 -34q-52 0 -74 27.5t-22 88.5v394zM216 549q-28 0 -52 16.5t-36 16.5q-17 0 -17 -24h-57q0 55 12.5 77.5t53.5 22.5q27 0 51 -16.5t37 -16.5q17 0 17 24h57q0 -54 -13 -77t-53 -23z" />
    <glyph glyph-name="Umacron" unicode="&#x16a;" horiz-adv-x="369" 
d="M49 700h108v-583q0 -30 28 -30t28 30v583h108v-584q0 -60 -30.5 -93t-105.5 -33t-105.5 33t-30.5 93v584zM99 750v76h170v-76h-170z" />
    <glyph glyph-name="umacron" unicode="&#x16b;" 
d="M44 500h102v-395q0 -27 23 -27t23 27v395h102v-500h-57l-17 24q-22 -34 -80 -34q-52 0 -74 27.5t-22 88.5v394zM83 552v76h170v-76h-170z" />
    <glyph glyph-name="Ubreve" unicode="&#x16c;" horiz-adv-x="369" 
d="M49 700h108v-583q0 -30 28 -30t28 30v583h108v-584q0 -60 -30.5 -93t-105.5 -33t-105.5 33t-30.5 93v584zM210 850h63q0 -108 -89 -108q-88 0 -88 108h61q0 -34 27 -34q26 0 26 34z" />
    <glyph glyph-name="ubreve" unicode="&#x16d;" 
d="M44 500h102v-395q0 -27 23 -27t23 27v395h102v-500h-57l-17 24q-22 -34 -80 -34q-52 0 -74 27.5t-22 88.5v394zM194 652h63q0 -108 -89 -108q-88 0 -88 108h61q0 -34 27 -34q26 0 26 34z" />
    <glyph glyph-name="Uring" unicode="&#x16e;" horiz-adv-x="369" 
d="M49 700h108v-583q0 -30 28 -30t28 30v583h108v-584q0 -60 -30.5 -93t-105.5 -33t-105.5 33t-30.5 93v584zM259 818q0 -77 -75 -77q-74 0 -74 77q0 78 74 78q75 0 75 -78zM201 818q0 24 -17 24q-16 0 -16 -24q0 -23 16 -23q17 0 17 23z" />
    <glyph glyph-name="uring" unicode="&#x16f;" 
d="M44 500h102v-395q0 -27 23 -27t23 27v395h102v-500h-57l-17 24q-22 -34 -80 -34q-52 0 -74 27.5t-22 88.5v394zM243 615q0 -77 -75 -77q-74 0 -74 77q0 78 74 78q75 0 75 -78zM185 615q0 24 -17 24q-16 0 -16 -24q0 -23 16 -23q17 0 17 23z" />
    <glyph glyph-name="Uhungarumlaut" unicode="&#x170;" horiz-adv-x="369" 
d="M49 700h108v-583q0 -30 28 -30t28 30v583h108v-584q0 -60 -30.5 -93t-105.5 -33t-105.5 33t-30.5 93v584zM117 885h97l-53 -135h-56zM239 885h97l-67 -135h-57z" />
    <glyph glyph-name="uhungarumlaut" unicode="&#x171;" 
d="M44 500h102v-395q0 -27 23 -27t23 27v395h102v-500h-57l-17 24q-22 -34 -80 -34q-52 0 -74 27.5t-22 88.5v394zM101 685h97l-53 -135h-56zM223 685h97l-67 -135h-57z" />
    <glyph glyph-name="Uogonek" unicode="&#x172;" horiz-adv-x="369" 
d="M251 -170h-12q-51 0 -76 20.5t-25 54.5q0 51 43 85q-73 1 -102.5 34t-29.5 92v584h108v-583q0 -30 28 -30t28 30v583h108v-584q0 -93 -72 -117q-31 -26 -31 -56q0 -20 23 -20h10v-93z" />
    <glyph glyph-name="uogonek" unicode="&#x173;" 
d="M294 -170h-12q-51 0 -76 20.5t-25 54.5q0 58 56 95l-17 24q-22 -34 -80 -34q-52 0 -74 27.5t-22 88.5v394h102v-395q0 -27 23 -27t23 27v395h102v-500q-33 -28 -33 -57q0 -20 23 -20h10v-93z" />
    <glyph glyph-name="Wcircumflex" unicode="&#x174;" horiz-adv-x="547" 
d="M274 508l-45 -508h-131l-74 700h109l32 -518l52 518h114l52 -518l32 518h109l-73 -700h-132zM232 885h82l55 -135h-72l-24 49l-24 -49h-71z" />
    <glyph glyph-name="wcircumflex" unicode="&#x175;" horiz-adv-x="484" 
d="M278 0l-36 344l-35 -344h-121l-72 500h104l31 -374l41 374h104l41 -374l31 374h105l-73 -500h-120zM200 687h82l55 -135h-72l-24 49l-24 -49h-71z" />
    <glyph glyph-name="Ycircumflex" unicode="&#x176;" horiz-adv-x="311" 
d="M210 0h-108v257l-88 443h113l29 -281l29 281h113l-88 -443v-257zM114 885h82l55 -135h-72l-24 49l-24 -49h-71z" />
    <glyph glyph-name="ycircumflex" unicode="&#x177;" horiz-adv-x="299" 
d="M59 -170q-28 0 -46 8v89q24 -8 45 -8q29 0 36 42l6 39l-86 500h105l31 -330l31 330h105l-91 -541q-12 -71 -42 -100t-94 -29zM108 687h82l55 -135h-72l-24 49l-24 -49h-71z" />
    <glyph glyph-name="Ydieresis" unicode="&#x178;" horiz-adv-x="311" 
d="M210 0h-108v257l-88 443h113l29 -281l29 281h113l-88 -443v-257zM56 856h84v-106h-84v106zM170 856h84v-106h-84v106z" />
    <glyph glyph-name="Zacute" unicode="&#x179;" horiz-adv-x="304" 
d="M276 0h-239v70l115 528h-118v102h236v-70l-115 -528h121v-102zM145 885h97l-57 -135h-60z" />
    <glyph glyph-name="zacute" unicode="&#x17a;" horiz-adv-x="259" 
d="M236 0h-212v68l101 338h-99v94h207v-68l-99 -338h102v-94zM114 685h97l-57 -135h-60z" />
    <glyph glyph-name="Zdotaccent" unicode="&#x17b;" horiz-adv-x="304" 
d="M276 0h-239v70l115 528h-118v102h236v-70l-115 -528h121v-102zM101 864h102v-114h-102v114z" />
    <glyph glyph-name="zdotaccent" unicode="&#x17c;" horiz-adv-x="259" 
d="M236 0h-212v68l101 338h-99v94h207v-68l-99 -338h102v-94zM78 666h102v-114h-102v114z" />
    <glyph glyph-name="Zcaron" unicode="&#x17d;" horiz-adv-x="304" 
d="M276 0h-239v70l115 528h-118v102h236v-70l-115 -528h121v-102zM192 750h-82l-54 135h71l24 -49l24 49h72z" />
    <glyph glyph-name="zcaron" unicode="&#x17e;" horiz-adv-x="259" 
d="M236 0h-212v68l101 338h-99v94h207v-68l-99 -338h102v-94zM170 552h-82l-54 135h71l24 -49l24 49h72z" />
    <glyph glyph-name="florin" unicode="&#x192;" horiz-adv-x="273" 
d="M71 -32v442h-44v90h44v98q0 62 28.5 92t99.5 30q24 0 46 -8v-88q-19 8 -42 8q-30 0 -30 -34v-98h61v-90h-61v-442q0 -62 -28.5 -92t-99.5 -30q-24 0 -46 8v88q19 -8 42 -8q30 0 30 34z" />
    <glyph glyph-name="Scommaaccent" unicode="&#x218;" horiz-adv-x="349" 
d="M147 220v-102q0 -31 28 -31t28 31v70q0 52 -17 85.5t-41 53t-48 39.5t-41 59t-17 98v61q0 126 136 126t136 -126v-94h-108v93q0 30 -28 30t-28 -30v-57q0 -44 17 -73t41 -46.5t48 -39t41 -66t17 -111.5v-74q0 -126 -136 -126t-136 126v104h108zM128 -48h93l-35 -122h-58
v122z" />
    <glyph glyph-name="scommaaccent" unicode="&#x219;" horiz-adv-x="308" 
d="M129 164v-59q0 -27 23 -27t23 27v40q0 29 -15 49.5t-36.5 34.5t-43 30t-36.5 45.5t-15 71.5v17q0 57 28.5 87t94.5 30q67 0 95 -30t28 -88v-46h-100v48q0 28 -23 28t-23 -27v-21q0 -27 15 -47t36.5 -34t43 -29.5t36.5 -44.5t15 -70v-43q0 -58 -28.5 -87t-95.5 -29
t-94.5 29t-27.5 87v58h100zM107 -48h93l-35 -122h-58v122z" />
    <glyph glyph-name="circumflex" unicode="&#x2c6;" horiz-adv-x="288" 
d="M103 687h82l55 -135h-72l-24 49l-24 -49h-71z" />
    <glyph glyph-name="caron" unicode="&#x2c7;" horiz-adv-x="288" 
d="M185 552h-82l-54 135h71l24 -49l24 49h72z" />
    <glyph glyph-name="breve" unicode="&#x2d8;" horiz-adv-x="274" 
d="M163 652h63q0 -108 -89 -108q-88 0 -88 108h61q0 -34 27 -34q26 0 26 34z" />
    <glyph glyph-name="dotaccent" unicode="&#x2d9;" horiz-adv-x="199" 
d="M49 666h102v-114h-102v114z" />
    <glyph glyph-name="ring" unicode="&#x2da;" horiz-adv-x="246" 
d="M198 615q0 -77 -75 -77q-74 0 -74 77q0 78 74 78q75 0 75 -78zM140 615q0 24 -17 24q-16 0 -16 -24q0 -23 16 -23q17 0 17 23z" />
    <glyph glyph-name="ogonek" unicode="&#x2db;" horiz-adv-x="210" 
d="M162 -170h-12q-51 0 -76 20.5t-25 54.5q0 58 56 95h57q-33 -28 -33 -57q0 -20 23 -20h10v-93z" />
    <glyph glyph-name="tilde" unicode="&#x2dc;" horiz-adv-x="325" 
d="M211 549q-27 0 -51 16.5t-37 16.5q-17 0 -17 -24h-57q0 55 12.5 77.5t53.5 22.5q27 0 51 -16.5t37 -16.5q17 0 17 24h57q0 -54 -13 -77t-53 -23z" />
    <glyph glyph-name="hungarumlaut" unicode="&#x2dd;" horiz-adv-x="333" 
d="M66 685h97l-53 -135h-56zM188 685h97l-67 -135h-57z" />
    <glyph glyph-name="pi" unicode="&#x3c0;" horiz-adv-x="382" 
d="M364 500v-90h-37v-410h-102v410h-67v-410h-102v410h-37v90h345z" />
    <glyph glyph-name="Bdotaccent" unicode="&#x1e02;" horiz-adv-x="364" 
d="M49 0v700h148q71 0 96 -26t25 -84v-153q0 -56 -40 -81q43 -26 43 -84v-151q0 -60 -25.5 -90.5t-92.5 -30.5h-154zM157 304v-202h38q18 0 18 20v159q0 23 -22 23h-34zM157 598v-194h35q21 0 21 24v151q0 19 -19 19h-37zM120 864h102v-114h-102v114z" />
    <glyph glyph-name="bdotaccent" unicode="&#x1e03;" horiz-adv-x="332" 
d="M192 105v289q0 28 -23 28t-23 -26v-291q0 -27 23 -27t23 27zM294 395v-287q0 -61 -23 -89.5t-75 -28.5q-56 0 -78 34l-17 -24h-57v710h102v-220q22 20 54 20q53 0 73.5 -27t20.5 -88zM178 666h102v-114h-102v114z" />
    <glyph glyph-name="Ddotaccent" unicode="&#x1e0a;" horiz-adv-x="369" 
d="M49 0v700h146q73 0 99.5 -30t26.5 -95v-450q0 -66 -26 -95.5t-97 -29.5h-149zM157 598v-496h35q21 0 21 22v450q0 24 -23 24h-33zM116 864h102v-114h-102v114z" />
    <glyph glyph-name="ddotaccent" unicode="&#x1e0b;" horiz-adv-x="327" 
d="M141 394v-289q0 -27 23 -27t23 27v291q0 26 -23 26t-23 -28zM39 106v290q0 61 20 87.5t72 26.5q34 0 56 -20v220h102v-710h-57l-17 24q-22 -34 -80 -34q-52 0 -74 27.5t-22 88.5zM61 666h102v-114h-102v114z" />
    <glyph glyph-name="Fdotaccent" unicode="&#x1e1e;" horiz-adv-x="294" 
d="M157 0h-108v700h217v-102h-109v-194h93v-100h-93v-304zM104 864h102v-114h-102v114z" />
    <glyph glyph-name="fdotaccent" unicode="&#x1e1f;" horiz-adv-x="240" 
d="M186 720q24 0 46 -8v-88q-19 8 -42 8q-30 0 -30 -34v-98h61v-90h-61v-410h-102v410h-44v90h44v98q0 62 28.5 92t99.5 30zM99 866h102v-114h-102v114z" />
    <glyph glyph-name="Mdotaccent" unicode="&#x1e40;" horiz-adv-x="503" 
d="M187 700l65 -488l65 488h141v-700h-101l12 522l-75 -522h-84l-75 522l12 -522h-101v700h141zM200 864h102v-114h-102v114z" />
    <glyph glyph-name="mdotaccent" unicode="&#x1e41;" horiz-adv-x="475" 
d="M289 0h-102v396q0 26 -23 26t-23 -26v-396h-102v500h57l17 -24q28 34 80 34q46 0 72 -29q29 29 74 29q52 0 75 -27.5t23 -88.5v-394h-102v395q0 27 -23 27t-23 -27v-395zM186 666h102v-114h-102v114z" />
    <glyph glyph-name="Pdotaccent" unicode="&#x1e56;" horiz-adv-x="347" 
d="M49 0v700h153q67 0 92 -30t25 -89v-172q0 -61 -26 -89.5t-94 -28.5h-42v-291h-108zM157 598v-207h35q21 0 21 22v161q0 24 -23 24h-33zM122 864h102v-114h-102v114z" />
    <glyph glyph-name="pdotaccent" unicode="&#x1e57;" 
d="M192 106v289q0 27 -23 27t-23 -27v-291q0 -26 23 -26t23 28zM294 392v-287q0 -61 -20.5 -88t-73.5 -27q-32 0 -54 20v-170h-102v660h57l17 -24q22 34 78 34q52 0 75 -28.5t23 -89.5zM118 666h102v-114h-102v114z" />
    <glyph glyph-name="Sdotaccent" unicode="&#x1e60;" horiz-adv-x="349" 
d="M147 220v-102q0 -31 28 -31t28 31v70q0 52 -17 85.5t-41 53t-48 39.5t-41 59t-17 98v61q0 126 136 126t136 -126v-94h-108v93q0 30 -28 30t-28 -30v-57q0 -44 17 -73t41 -46.5t48 -39t41 -66t17 -111.5v-74q0 -126 -136 -126t-136 126v104h108zM123 864h102v-114h-102
v114z" />
    <glyph glyph-name="sdotaccent" unicode="&#x1e61;" horiz-adv-x="308" 
d="M129 164v-59q0 -27 23 -27t23 27v40q0 29 -15 49.5t-36.5 34.5t-43 30t-36.5 45.5t-15 71.5v17q0 57 28.5 87t94.5 30q67 0 95 -30t28 -88v-46h-100v48q0 28 -23 28t-23 -27v-21q0 -27 15 -47t36.5 -34t43 -29.5t36.5 -44.5t15 -70v-43q0 -58 -28.5 -87t-95.5 -29
t-94.5 29t-27.5 87v58h100zM103 666h102v-114h-102v114z" />
    <glyph glyph-name="Tdotaccent" unicode="&#x1e6a;" horiz-adv-x="297" 
d="M203 598v-598h-108v598h-76v102h260v-102h-76zM97 864h102v-114h-102v114z" />
    <glyph glyph-name="tdotaccent" unicode="&#x1e6b;" horiz-adv-x="257" 
d="M70 627l102 28v-155h67v-90h-67v-303q0 -29 26 -29q18 0 41 9v-87q-20 -10 -47 -10q-70 0 -96 29t-26 88v303h-51v90h51v127zM70 791h102v-114h-102v114z" />
    <glyph glyph-name="Wgrave" unicode="&#x1e80;" horiz-adv-x="547" 
d="M274 508l-45 -508h-131l-74 700h109l32 -518l52 518h114l52 -518l32 518h109l-73 -700h-132zM189 885h97l20 -135h-60z" />
    <glyph glyph-name="wgrave" unicode="&#x1e81;" horiz-adv-x="484" 
d="M278 0l-36 344l-35 -344h-121l-72 500h104l31 -374l41 374h104l41 -374l31 374h105l-73 -500h-120zM153 685h97l20 -135h-60z" />
    <glyph glyph-name="Wacute" unicode="&#x1e82;" horiz-adv-x="547" 
d="M274 508l-45 -508h-131l-74 700h109l32 -518l52 518h114l52 -518l32 518h109l-73 -700h-132zM260 885h97l-57 -135h-60z" />
    <glyph glyph-name="wacute" unicode="&#x1e83;" horiz-adv-x="484" 
d="M278 0l-36 344l-35 -344h-121l-72 500h104l31 -374l41 374h104l41 -374l31 374h105l-73 -500h-120zM229 685h97l-57 -135h-60z" />
    <glyph glyph-name="Wdieresis" unicode="&#x1e84;" horiz-adv-x="547" 
d="M274 508l-45 -508h-131l-74 700h109l32 -518l52 518h114l52 -518l32 518h109l-73 -700h-132zM174 856h84v-106h-84v106zM288 856h84v-106h-84v106z" />
    <glyph glyph-name="wdieresis" unicode="&#x1e85;" horiz-adv-x="484" 
d="M278 0l-36 344l-35 -344h-121l-72 500h104l31 -374l41 374h104l41 -374l31 374h105l-73 -500h-120zM143 658h84v-106h-84v106zM257 658h84v-106h-84v106z" />
    <glyph glyph-name="Ygrave" unicode="&#x1ef2;" horiz-adv-x="311" 
d="M210 0h-108v257l-88 443h113l29 -281l29 281h113l-88 -443v-257zM67 885h97l20 -135h-60z" />
    <glyph glyph-name="ygrave" unicode="&#x1ef3;" horiz-adv-x="299" 
d="M59 -170q-28 0 -46 8v89q24 -8 45 -8q29 0 36 42l6 39l-86 500h105l31 -330l31 330h105l-91 -541q-12 -71 -42 -100t-94 -29zM65 685h97l20 -135h-60z" />
    <glyph glyph-name="endash" unicode="&#x2013;" 
d="M34 242v76h270v-76h-270z" />
    <glyph glyph-name="emdash" unicode="&#x2014;" horiz-adv-x="497" 
d="M34 254v52h430v-52h-430z" />
    <glyph glyph-name="quoteleft" unicode="&#x2018;" horiz-adv-x="170" 
d="M32 710h105v-225h-60z" />
    <glyph glyph-name="quoteright" unicode="&#x2019;" horiz-adv-x="167" 
d="M34 710h105l-45 -225h-60v225z" />
    <glyph glyph-name="quotesinglbase" unicode="&#x201a;" horiz-adv-x="190" 
d="M44 117h105l-45 -225h-60v225z" />
    <glyph glyph-name="quotedblleft" unicode="&#x201c;" horiz-adv-x="292" 
d="M34 710h105v-225h-60zM154 710h105v-225h-60z" />
    <glyph glyph-name="quotedblright" unicode="&#x201d;" horiz-adv-x="292" 
d="M154 710h105l-45 -225h-60v225zM34 710h105l-45 -225h-60v225z" />
    <glyph glyph-name="quotedblbase" unicode="&#x201e;" horiz-adv-x="308" 
d="M162 117h105l-45 -225h-60v225zM42 117h105l-45 -225h-60v225z" />
    <glyph glyph-name="dagger" unicode="&#x2020;" horiz-adv-x="225" 
d="M34 572v48h54v90h51v-90h54v-48h-54v-224h-51v224h-54z" />
    <glyph glyph-name="daggerdbl" unicode="&#x2021;" horiz-adv-x="225" 
d="M34 438v48h54v86h-54v48h54v90h51v-90h54v-48h-54v-86h54v-48h-54v-90h-51v90h-54z" />
    <glyph glyph-name="bullet" unicode="&#x2022;" horiz-adv-x="237" 
d="M34 283q0 35 25 60t60 25t60 -25t25 -60t-25 -60t-60 -25t-60 25t-25 60z" />
    <glyph glyph-name="ellipsis" unicode="&#x2026;" horiz-adv-x="501" 
d="M44 114h102v-114h-102v114zM205 114h102v-114h-102v114zM366 114h102v-114h-102v114z" />
    <glyph glyph-name="perthousand" unicode="&#x2030;" horiz-adv-x="533" 
d="M389 700l-280 -700h-69l280 700h69zM116 710q47 0 66.5 -24.5t19.5 -74.5v-90q0 -50 -19 -74t-67 -24t-67 24t-19 74v90q0 50 19.5 74.5t66.5 24.5zM116 490q18 0 18 30v92q0 31 -18 31t-18 -31v-92q0 -30 18 -30zM313 210q-18 0 -18 -30v-92q0 -31 18 -31t18 31v92
q0 30 -18 30zM417 210q-18 0 -18 -30v-92q0 -31 18 -31t18 31v92q0 30 -18 30zM417 -10q-33 0 -52 17q-19 -17 -52 -17q-47 0 -66.5 24.5t-19.5 74.5v90q0 50 19 74t67 24q33 0 52 -17q19 17 52 17q48 0 67 -24t19 -74v-90q0 -50 -19.5 -74.5t-66.5 -24.5z" />
    <glyph glyph-name="guilsinglleft" unicode="&#x2039;" horiz-adv-x="267" 
d="M34 250l105 185h95l-102 -185l102 -185h-95z" />
    <glyph glyph-name="guilsinglright" unicode="&#x203a;" horiz-adv-x="267" 
d="M129 435l105 -185l-105 -185h-95l102 185l-102 185h95z" />
    <glyph glyph-name="Euro" unicode="&#x20ac;" horiz-adv-x="390" 
d="M254 376h-75v-46h65l-11 -54h-54v-157q0 -32 28 -32t28 32v101h106v-102q0 -61 -30 -94.5t-104 -33.5q-75 0 -105.5 34t-30.5 94v158h-33v54h33v46h-33v54h33v152q0 60 30.5 94t105.5 34q74 0 104 -33.5t30 -94.5v-92h-106v92q0 31 -28 31t-28 -31v-152h88z" />
    <glyph glyph-name="trademark" unicode="&#x2122;" horiz-adv-x="333" 
d="M95 669v-169h-31v169h-35v31h100v-31h-34zM231 536h-16l-29 92v-128h-30v200h33l34 -107l34 107h33v-200h-30v128z" />
    <glyph glyph-name="onethird" unicode="&#x2153;" horiz-adv-x="222" 
d="M44 368h135v-37h-135v37zM124 179v66q0 12 -11 12q-12 0 -12 -12v-35h-45v35q0 53 57 53q56 0 56 -53v-62q0 -24 -20 -33q21 -11 21 -34v-67q0 -53 -57 -53q-32 0 -44 13.5t-12 39.5v39h44v-38q0 -13 12 -13q11 0 11 12v69q0 10 -9 10h-18v42h18q9 0 9 9zM135 700v-251
h25v-43h-96v43h25v192h-24v32q32 0 32 27h38z" />
    <glyph glyph-name="twothirds" unicode="&#x2154;" horiz-adv-x="222" 
d="M44 368h135v-37h-135v37zM169 651v-34q0 -45 -33.5 -84t-33.5 -79v-5h69v-43h-114v43q0 36 10.5 61.5t22.5 36.5t22.5 28.5t10.5 40.5v35q0 12 -11 12q-12 0 -12 -12v-35h-45v35q0 53 57 53t57 -53zM124 179v66q0 12 -11 12q-12 0 -12 -12v-35h-45v35q0 53 57 53
q56 0 56 -53v-62q0 -24 -20 -33q21 -11 21 -34v-67q0 -53 -57 -53q-32 0 -44 13.5t-12 39.5v39h44v-38q0 -13 12 -13q11 0 11 12v69q0 10 -9 10h-18v42h18q9 0 9 9z" />
    <glyph glyph-name="oneeighth" unicode="&#x215b;" horiz-adv-x="222" 
d="M44 368h136v-37h-136v37zM135 700v-251h25v-43h-96v43h25v192h-24v32q32 0 32 27h38zM112 -4q-57 0 -57 53v67q0 22 20 34q-19 9 -19 33v62q0 26 12 39.5t44 13.5t44 -13.5t12 -39.5v-62q0 -24 -19 -33q20 -12 20 -34v-67q0 -53 -57 -53zM100 245v-65q0 -12 12 -12t12 12
v65q0 12 -12 12t-12 -12zM100 118v-69q0 -12 12 -12t12 12v69q0 12 -12 12t-12 -12z" />
    <glyph glyph-name="threeeighths" unicode="&#x215c;" horiz-adv-x="222" 
d="M44 368h135v-37h-135v37zM123 585v66q0 12 -11 12q-12 0 -12 -12v-35h-45v35q0 53 57 53q56 0 56 -53v-62q0 -24 -20 -33q21 -11 21 -34v-67q0 -53 -57 -53q-32 0 -44 13.5t-12 39.5v39h44v-38q0 -13 12 -13q11 0 11 12v69q0 10 -9 10h-18v42h18q9 0 9 9zM112 -4
q-57 0 -57 53v67q0 22 20 34q-19 9 -19 33v62q0 26 12 39.5t44 13.5t44 -13.5t12 -39.5v-62q0 -24 -19 -33q20 -12 20 -34v-67q0 -53 -57 -53zM100 245v-65q0 -12 12 -12t12 12v65q0 12 -12 12t-12 -12zM100 118v-69q0 -12 12 -12t12 12v69q0 12 -12 12t-12 -12z" />
    <glyph glyph-name="fiveeighths" unicode="&#x215d;" horiz-adv-x="222" 
d="M46 368h135v-37h-135v37zM121 455v83q0 10 -9 10q-10 0 -19 -9h-37l8 161h98v-43h-58l-4 -76q10 4 20 4q47 0 47 -46v-84q0 -53 -57 -53t-57 53v39h45v-38q0 -13 12 -13q11 0 11 12zM113 -4q-57 0 -57 53v67q0 22 20 34q-19 9 -19 33v62q0 26 12 39.5t44 13.5t44 -13.5
t12 -39.5v-62q0 -24 -19 -33q20 -12 20 -34v-67q0 -53 -57 -53zM101 245v-65q0 -12 12 -12t12 12v65q0 12 -12 12t-12 -12zM101 118v-69q0 -12 12 -12t12 12v69q0 12 -12 12t-12 -12z" />
    <glyph glyph-name="seveneighths" unicode="&#x215e;" horiz-adv-x="222" 
d="M44 368h135v-37h-135v37zM132 406h-50q0 137 39 251h-64v43h106v-35q-20 -77 -25.5 -122t-5.5 -137zM113 -4q-57 0 -57 53v67q0 22 20 34q-19 9 -19 33v62q0 26 12 39.5t44 13.5t44 -13.5t12 -39.5v-62q0 -24 -19 -33q20 -12 20 -34v-67q0 -53 -57 -53zM101 245v-65
q0 -12 12 -12t12 12v65q0 12 -12 12t-12 -12zM101 118v-69q0 -12 12 -12t12 12v69q0 12 -12 12t-12 -12z" />
    <glyph glyph-name="partialdiff" unicode="&#x2202;" horiz-adv-x="352" 
d="M152 297v-183q0 -29 25 -29t25 29v183q0 29 -26 29q-24 0 -24 -29zM202 405q-4 91 -32 156.5t-90 138.5h110q64 -76 89 -150t25 -185v-251q0 -124 -127 -124t-127 124v188q0 117 97 117q31 0 55 -14z" />
    <glyph glyph-name="minus" unicode="&#x2212;" horiz-adv-x="347" 
d="M304 318v-76h-260v76h260z" />
    <glyph glyph-name="integral" unicode="&#x222b;" horiz-adv-x="276" 
d="M189 598v-630q0 -62 -28.5 -92t-99.5 -30q-24 0 -46 8v88q19 -8 42 -8q30 0 30 34v630q0 62 28.5 92t99.5 30q24 0 46 -8v-88q-19 8 -42 8q-30 0 -30 -34z" />
    <glyph glyph-name="approxequal" unicode="&#x2248;" horiz-adv-x="347" 
d="M44 311v76q26 26 65 26q31 0 64 -19t66 -19q37 0 65 28v-76q-28 -28 -65 -28q-33 0 -66 19t-64 19q-39 0 -65 -26zM44 158v76q26 26 65 26q31 0 64 -19t66 -19q37 0 65 28v-76q-28 -28 -65 -28q-33 0 -66 19t-64 19q-39 0 -65 -26z" />
    <glyph glyph-name="notequal" unicode="&#x2260;" horiz-adv-x="347" 
d="M304 166h-134q-5 -18 -16.5 -58.5t-18.5 -61.5h-63q6 21 18 61.5t17 58.5h-63v76h86l23 76h-109v76h132l37 120h63l-37 -120h65v-76h-88l-23 -76h111v-76z" />
    <glyph glyph-name="lessequal" unicode="&#x2264;" horiz-adv-x="263" 
d="M39 166h181v-76h-181v76zM34 338l94 145h90l-94 -145l94 -145h-90z" />
    <glyph glyph-name="greaterequal" unicode="&#x2265;" horiz-adv-x="263" 
d="M44 166h181v-76h-181v76zM136 483l94 -145l-94 -145h-90l94 145l-94 145h90z" />
    <glyph glyph-name="CR" horiz-adv-x="0" 
 />
    <glyph glyph-name="at.case" horiz-adv-x="519" 
d="M275 421v57q0 19 -17 19t-17 -19v-30h-72v30q0 90 90 90q51 0 71 -23.5t20 -67.5v-329h-44q-2 2 -6 7t-7 8q-18 -26 -50 -26q-78 0 -78 87v81q0 48 21.5 71.5t88.5 44.5zM240 305v-79q0 -21 18 -21q17 0 17 21v137q-35 -17 -35 -58zM260 46q85 0 116 43.5t31 122.5v276
q0 79 -30.5 122.5t-116.5 43.5t-116.5 -43.5t-30.5 -122.5v-276q0 -80 31 -123t116 -43zM260 -20q-119 0 -167.5 61.5t-48.5 170.5v276q0 110 49 171t167 61q117 0 166.5 -61.5t49.5 -170.5v-276q0 -109 -48.5 -170.5t-167.5 -61.5z" />
    <glyph glyph-name="caron.salt" horiz-adv-x="173" 
d="M49 710h76l-34 -160h-42v160z" />
    <glyph glyph-name="commaaccent" horiz-adv-x="190" 
d="M49 -48h93l-35 -122h-58v122z" />
    <glyph glyph-name="acute.case" horiz-adv-x="214" 
d="M69 885h97l-57 -135h-60z" />
    <glyph glyph-name="grave.case" horiz-adv-x="214" 
d="M49 885h97l20 -135h-60z" />
    <glyph glyph-name="circumflex.case" horiz-adv-x="288" 
d="M103 885h82l55 -135h-72l-24 49l-24 -49h-71z" />
    <glyph glyph-name="dieresis.case" horiz-adv-x="295" 
d="M49 856h84v-106h-84v106zM163 856h84v-106h-84v106z" />
    <glyph glyph-name="tilde.case" horiz-adv-x="325" 
d="M211 749q-27 0 -51 16.5t-37 16.5q-17 0 -17 -24h-57q0 55 12.5 77.5t53.5 22.5q27 0 51 -16.5t37 -16.5q17 0 17 24h57q0 -54 -13 -77t-53 -23z" />
    <glyph glyph-name="caron.case" horiz-adv-x="288" 
d="M185 750h-82l-54 135h71l24 -49l24 49h72z" />
    <glyph glyph-name="ring.case" horiz-adv-x="246" 
d="M198 818q0 -77 -75 -77q-74 0 -74 77q0 78 74 78q75 0 75 -78zM140 818q0 24 -17 24q-16 0 -16 -24q0 -23 16 -23q17 0 17 23z" />
    <glyph glyph-name="breve.case" horiz-adv-x="274" 
d="M163 850h63q0 -108 -89 -108q-88 0 -88 108h61q0 -34 27 -34q26 0 26 34z" />
    <glyph glyph-name="macron.case" horiz-adv-x="267" 
d="M49 750v76h170v-76h-170z" />
    <glyph glyph-name="dotaccent.case" horiz-adv-x="199" 
d="M49 864h102v-114h-102v114z" />
    <glyph glyph-name="hungarumlaut.case" horiz-adv-x="333" 
d="M66 885h97l-53 -135h-56zM188 885h97l-67 -135h-57z" />
    <glyph glyph-name="one.tnum" horiz-adv-x="360" 
d="M238 700v-598h61v-102h-230v102h61v458h-57v75q38 0 56.5 18.5t18.5 46.5h90z" />
    <glyph glyph-name="two.tnum" horiz-adv-x="360" 
d="M314 584v-81q0 -59 -16.5 -102.5t-39.5 -71.5t-46 -54.5t-39.5 -67t-16.5 -93.5v-12h162v-102h-270v103q0 71 16.5 122.5t39.5 81t46 55t39.5 60t16.5 79.5v83q0 29 -28 29t-28 -29v-84h-106v84q0 60 29.5 93t104.5 33t105.5 -33t30.5 -93z" />
    <glyph glyph-name="three.tnum" horiz-adv-x="360" 
d="M207 426v158q0 29 -28 29t-28 -29v-84h-106v84q0 60 29.5 93t104.5 33t104.5 -33t29.5 -93v-148q0 -57 -47 -80q49 -24 49 -80v-160q0 -60 -30.5 -93t-105.5 -33t-104.5 33t-29.5 93v94h106v-92q0 -31 28 -31t28 30v164q0 23 -22 23h-42v100h42q22 0 22 22z" />
    <glyph glyph-name="four.tnum" horiz-adv-x="360" 
d="M183 0v139h-151v109l104 452h153v-463h41v-98h-41v-139h-106zM117 237h66v117q0 152 3 237z" />
    <glyph glyph-name="five.tnum" horiz-adv-x="360" 
d="M207 117v198q0 22 -22 22q-26 0 -45 -21h-88l19 384h234v-102h-140l-8 -182q24 11 48 11q57 0 83.5 -26.5t26.5 -84.5v-200q0 -60 -30.5 -93t-105.5 -33t-104.5 33t-29.5 93v94h106v-92q0 -31 28 -31t28 30z" />
    <glyph glyph-name="six.tnum" horiz-adv-x="360" 
d="M185 613q-29 0 -29 -29v-189q23 14 57 14q107 0 107 -114v-177q0 -128 -136 -128t-136 128v465q0 127 136 127q134 0 134 -127v-83h-106v84q0 29 -27 29zM156 287v-171q0 -29 28 -29t28 29v171q0 29 -28 29t-28 -29z" />
    <glyph glyph-name="seven.tnum" horiz-adv-x="360" 
d="M229 0h-119q0 320 93 598h-155v102h257v-84q-48 -183 -62 -289.5t-14 -326.5z" />
    <glyph glyph-name="eight.tnum" horiz-adv-x="360" 
d="M181 -10q-75 0 -105.5 33t-30.5 93v160q0 56 49 80q-47 23 -47 80v148q0 60 29.5 93t104.5 33t104.5 -33t29.5 -93v-148q0 -57 -47 -80q49 -24 49 -80v-160q0 -60 -30.5 -93t-105.5 -33zM153 584v-156q0 -29 28 -29t28 29v156q0 29 -28 29t-28 -29zM153 281v-165
q0 -29 28 -29t28 29v165q0 29 -28 29t-28 -29z" />
    <glyph glyph-name="nine.tnum" horiz-adv-x="360" 
d="M180 87q29 0 29 29v199q-23 -14 -57 -14q-107 0 -107 114v167q0 128 136 128t136 -128v-465q0 -127 -136 -127t-136 127v93h108v-94q0 -29 27 -29zM209 423v161q0 29 -28 29t-28 -29v-161q0 -29 28 -29t28 29z" />
    <glyph glyph-name="zero.tnum" horiz-adv-x="360" 
d="M181 87q28 0 28 31v465q0 30 -28 30t-28 -30v-465q0 -31 28 -31zM181 -10q-75 0 -105.5 33.5t-30.5 93.5v466q0 60 30.5 93.5t105.5 33.5t105.5 -33.5t30.5 -93.5v-466q0 -60 -30.5 -93.5t-105.5 -33.5z" />
    <glyph glyph-name="a.smcp" horiz-adv-x="328" 
d="M19 0l77 595h137l77 -595h-105l-9 113h-63l-9 -113h-105zM150 288l-7 -84h43l-7 84q-10 115 -14 208h-1q-10 -158 -14 -208z" />
    <glyph glyph-name="b.smcp" horiz-adv-x="353" 
d="M49 0v595h142q67 0 91.5 -23.5t24.5 -73.5v-127q0 -48 -38 -68q41 -23 41 -72v-125q0 -51 -24.5 -78.5t-88.5 -27.5h-148zM153 255v-160h36q17 0 17 17v124q0 19 -21 19h-32zM153 500v-154h33q20 0 20 21v117q0 16 -18 16h-35z" />
    <glyph glyph-name="c.smcp" horiz-adv-x="336" 
d="M197 187h101v-77q0 -119 -128 -119q-131 0 -131 119v375q0 118 131 118q128 0 128 -118v-69h-101v69q0 11 -7 19.5t-20 8.5t-20 -8.5t-7 -19.5v-374q0 -29 27 -29t27 29v76z" />
    <glyph glyph-name="d.smcp" horiz-adv-x="358" 
d="M49 0v595h140q70 0 95.5 -26t25.5 -81v-372q0 -58 -25.5 -87t-92.5 -29h-143zM153 500v-405h33q20 0 20 18v367q0 20 -22 20h-31z" />
    <glyph glyph-name="e.smcp" horiz-adv-x="299" 
d="M153 255v-160h108v-95h-212v595h212v-95h-108v-154h95v-91h-95z" />
    <glyph glyph-name="f.smcp" horiz-adv-x="290" 
d="M153 0h-104v595h208v-95h-104v-154h89v-91h-89v-255z" />
    <glyph glyph-name="g.smcp" horiz-adv-x="348" 
d="M175 255v91h130v-236q0 -119 -130 -119q-131 0 -131 119v375q0 118 131 118q130 0 130 -118v-69h-103v70q0 27 -27 27t-27 -27v-375q0 -29 27 -29t27 29v144h-27z" />
    <glyph glyph-name="h.smcp" horiz-adv-x="358" 
d="M153 255v-255h-104v595h104v-249h53v249h104v-595h-104v255h-53z" />
    <glyph glyph-name="i.smcp" horiz-adv-x="201" 
d="M49 0v595h104v-595h-104z" />
    <glyph glyph-name="j.smcp" horiz-adv-x="327" 
d="M181 595h103v-485q0 -119 -127 -119q-128 0 -128 119v77h102v-76q0 -29 25 -29t25 29v484z" />
    <glyph glyph-name="k.smcp" horiz-adv-x="344" 
d="M153 595l-2 -264l61 264h113l-89 -295l95 -300h-112l-68 270l2 -270h-104v595h104z" />
    <glyph glyph-name="l.smcp" horiz-adv-x="257" 
d="M49 0v595h104v-500h86v-95h-190z" />
    <glyph glyph-name="m.smcp" horiz-adv-x="493" 
d="M184 595l63 -412l62 412h136v-595h-97l11 437l-72 -437h-80l-72 437l11 -437h-97v595h135z" />
    <glyph glyph-name="n.smcp" horiz-adv-x="384" 
d="M234 0l-96 379q10 -188 10 -293v-86h-99v595h105l94 -372q-11 134 -11 267v105h99v-595h-102z" />
    <glyph glyph-name="o.smcp" horiz-adv-x="348" 
d="M175 82q27 0 27 29v374q0 28 -27 28t-27 -28v-374q0 -29 27 -29zM175 -9q-131 0 -131 119v374q0 119 131 119q130 0 130 -119v-374q0 -119 -130 -119z" />
    <glyph glyph-name="p.smcp" horiz-adv-x="336" 
d="M49 0v595h147q65 0 88.5 -25.5t23.5 -75.5v-152q0 -52 -25 -76.5t-90 -24.5h-40v-241h-104zM153 500v-168h33q20 0 20 19v129q0 20 -22 20h-31z" />
    <glyph glyph-name="q.smcp" horiz-adv-x="348" 
d="M264 -82h-21q-102 0 -108 76q-91 13 -91 116v375q0 118 131 118q130 0 130 -118v-375q0 -104 -94 -116q4 -21 33 -21h35zM175 82q27 0 27 29v374q0 28 -27 28t-27 -28v-374q0 -29 27 -29z" />
    <glyph glyph-name="r.smcp" horiz-adv-x="345" 
d="M49 0v595h147q64 0 88 -28.5t24 -80.5v-140q0 -43 -10 -66t-41 -32l85 -248h-111l-73 244h-5v-244h-104zM153 500v-168h33q20 0 20 19v129q0 20 -22 20h-31z" />
    <glyph glyph-name="s.smcp" horiz-adv-x="329" 
d="M138 187v-79q0 -28 27 -28t27 28v52q0 44 -16.5 73t-39.5 45t-46 33.5t-39.5 50.5t-16.5 83v43q0 51 31.5 83t99.5 32t99.5 -32t31.5 -83v-72h-104v72q0 27 -27 27t-27 -27v-41q0 -38 16.5 -62.5t39.5 -39.5t46 -33t39.5 -56t16.5 -95v-54q0 -51 -31.5 -83.5t-99.5 -32.5
t-99.5 32.5t-31.5 83.5v80h104z" />
    <glyph glyph-name="t.smcp" horiz-adv-x="287" 
d="M196 500v-500h-104v500h-73v95h250v-95h-73z" />
    <glyph glyph-name="u.smcp" horiz-adv-x="358" 
d="M49 595h104v-486q0 -27 27 -27q26 0 26 27v486h104v-486q0 -118 -130 -118q-131 0 -131 118v486z" />
    <glyph glyph-name="v.smcp" horiz-adv-x="323" 
d="M306 595l-81 -595h-126l-81 595h107l22 -253l15 -217l16 217l22 253h106z" />
    <glyph glyph-name="w.smcp" horiz-adv-x="527" 
d="M264 432l-43 -432h-126l-71 595h105l30 -440l50 440h110l50 -440l30 440h105l-70 -595h-127z" />
    <glyph glyph-name="x.smcp" horiz-adv-x="315" 
d="M158 414l31 181h111l-85 -286l92 -309h-111l-38 205l-37 -205h-112l93 309l-86 286h111z" />
    <glyph glyph-name="y.smcp" horiz-adv-x="300" 
d="M203 0h-104v218l-85 377h109l28 -249l28 249h108l-84 -377v-218z" />
    <glyph glyph-name="z.smcp" horiz-adv-x="294" 
d="M266 0h-230v67l111 433h-113v95h226v-68l-110 -432h116v-95z" />
    <glyph glyph-name="one.smcp" horiz-adv-x="278" 
d="M191 595v-500h59v-95h-221v95h58v373h-54v72q36 0 54 15.5t18 39.5h86z" />
    <glyph glyph-name="two.smcp" horiz-adv-x="325" 
d="M293 486v-58q0 -50 -15.5 -87t-38 -59.5t-45 -44.5t-38 -55.5t-15.5 -78.5v-8h156v-95h-260v96q0 60 15.5 103t38 67t45 44t38 48.5t15.5 67.5v60q0 27 -27 27t-27 -27v-61h-101v61q0 117 128 117q131 0 131 -117z" />
    <glyph glyph-name="three.smcp" horiz-adv-x="342" 
d="M195 365v121q0 27 -27 27t-27 -27v-61h-102v61q0 117 129 117t129 -117v-115q0 -49 -45 -68q47 -22 47 -68v-126q0 -118 -131 -118q-129 0 -129 118v69h102v-68q0 -28 27 -28t27 27v127q0 19 -21 19h-41v91h41q21 0 21 19z" />
    <glyph glyph-name="four.smcp" horiz-adv-x="323" 
d="M164 0v115h-145v99l100 381h147v-391h39v-89h-39v-115h-102zM101 204h63v97q0 129 3 201z" />
    <glyph glyph-name="five.smcp" 
d="M195 109v159q0 18 -21 18q-26 0 -43 -17h-85l18 326h225v-95h-136l-7 -140q22 9 47 9q54 0 80 -22.5t26 -71.5v-166q0 -118 -131 -118q-129 0 -129 118v69h102v-68q0 -28 27 -28t27 27z" />
    <glyph glyph-name="six.smcp" horiz-adv-x="348" 
d="M176 513q-28 0 -28 -27v-149q21 12 55 12q102 0 102 -95v-144q0 -53 -31.5 -86t-98.5 -33t-99 33t-32 86v376q0 52 32 84.5t99 32.5q66 0 97 -32.5t31 -84.5v-61h-101v61q0 13 -8 20t-18 7zM148 240v-131q0 -27 27 -27t27 27v131q0 11 -7 19t-20 8t-20 -8t-7 -19z" />
    <glyph glyph-name="seven.smcp" horiz-adv-x="274" 
d="M190 0h-114q0 281 82 500h-139v95h237v-79q-44 -149 -55 -236t-11 -280z" />
    <glyph glyph-name="eight.smcp" horiz-adv-x="348" 
d="M175 -9q-131 0 -131 118v123q0 50 47 71q-45 19 -45 72v111q0 117 129 117q128 0 128 -117v-111q0 -54 -45 -72q47 -21 47 -71v-123q0 -118 -130 -118zM148 486v-118q0 -27 27 -27t27 27v118q0 27 -27 27t-27 -27zM148 235v-126q0 -27 27 -27t27 27v126q0 26 -27 26
t-27 -26z" />
    <glyph glyph-name="nine.smcp" horiz-adv-x="348" 
d="M174 82q11 0 19.5 7t8.5 20v158q-22 -12 -55 -12q-103 0 -103 97v133q0 53 32 85.5t99 32.5t98.5 -32.5t31.5 -85.5v-376q0 -52 -32 -85t-98 -33q-67 0 -99 33t-32 85v69h104v-69q0 -27 26 -27zM202 363v123q0 27 -27 27t-27 -27v-123q0 -28 27 -28t27 28z" />
    <glyph glyph-name="zero.smcp" horiz-adv-x="348" 
d="M175 82q27 0 27 28v376q0 11 -7 19t-20 8t-20 -8t-7 -19v-376q0 -28 27 -28zM175 -9q-131 0 -131 118v377q0 117 131 117q130 0 130 -117v-377q0 -118 -130 -118z" />
    <glyph glyph-name="exclam.smcp" horiz-adv-x="211" 
d="M45 595h121l-25 -408h-71zM55 114h102v-114h-102v114z" />
    <glyph glyph-name="exclamdown.smcp" horiz-adv-x="211" 
d="M166 0h-121l25 408h71zM157 481h-102v114h102v-114z" />
    <glyph glyph-name="question.smcp" horiz-adv-x="343" 
d="M192 439v37q0 25 -24 25t-24 -25v-43h-104v50q0 56 31 88t97 32q65 0 96.5 -32t31.5 -88v-41q0 -39 -8.5 -63.5t-21 -39t-25.5 -30t-23.5 -46t-13.5 -76.5h-69q-9 52 -7 81t12.5 51.5t22 36t20.5 35.5t9 48zM120 114h102v-114h-102v114z" />
    <glyph glyph-name="questiondown.smcp" horiz-adv-x="343" 
d="M150 156v-37q0 -25 24 -25t24 25v43h104v-50q0 -56 -31 -88t-97 -32q-65 0 -96.5 32t-31.5 88v41q0 39 8.5 63.5t21 39t25.5 30t23.5 46t13.5 76.5h69q7 -36 7 -67q0 -51 -32 -98t-32 -87zM222 481h-102v114h102v-114z" />
    <glyph glyph-name="ampersand.smcp" horiz-adv-x="381" 
d="M332 0q-46 0 -71 17q-25 -25 -80 -25q-65 0 -96 31t-31 84v128q0 42 44 68q-41 19 -41 68v115q0 117 125 117q126 0 126 -117v-70h-101v70q0 27 -25 27t-25 -27v-121q0 -19 22 -19h168v-91h-39v-132q0 -27 24 -27h15v-96h-15zM181 83q24 0 24 26v146h-26q-22 0 -22 -19
v-127q0 -26 24 -26z" />
    <glyph glyph-name="slash.smcp" horiz-adv-x="275" 
d="M23 -26l154 646h75l-154 -646h-75z" />
    <glyph glyph-name="backslash.smcp" horiz-adv-x="275" 
d="M98 620l154 -646h-75l-154 646h75z" />
    <glyph glyph-name="dollar.smcp" horiz-adv-x="339" 
d="M148 235v-51q0 -24 22 -24t22 24v34q0 28 -22 48.5t-48 33t-48 42t-22 72.5v14q0 91 89 102v65h61v-65q86 -11 86 -102v-40h-96v41q0 25 -22 25t-22 -24v-18q0 -21 14.5 -37.5t35 -28.5t41 -26t35 -39t14.5 -60v-37q0 -88 -86 -99v-85h-61v84q-89 9 -89 100v51h96z" />
    <glyph glyph-name="cent.smcp" horiz-adv-x="344" 
d="M196 248h95v-63q0 -92 -87 -101v-84h-61v84q-89 9 -89 101v243q0 91 89 101v66h61v-66q87 -10 87 -101v-56h-95v57q0 24 -22 24t-22 -24v-246q0 -24 22 -24t22 24v65z" />
    <glyph glyph-name="sterling.smcp" horiz-adv-x="365" 
d="M32 273v56h35v158q0 116 129 116q63 0 94.5 -33t31.5 -83v-54h-101v54q0 11 -6.5 18.5t-18.5 7.5t-18.5 -7.5t-6.5 -18.5v-158h65v-56h-65v-153q0 -25 31 -25h120v-95h-124q-57 0 -82 28q-25 -28 -82 -28v95q33 0 33 25v153h-35z" />
    <glyph glyph-name="Euro.smcp" horiz-adv-x="378" 
d="M246 320h-72v-40h62l-10 -45h-52v-124q0 -29 27 -29t27 29v76h101v-77q0 -119 -128 -119q-131 0 -131 119v125h-32v45h32v40h-32v45h32v120q0 118 131 118q128 0 128 -118v-69h-101v69q0 11 -7 19.5t-20 8.5q-27 0 -27 -28v-120h84z" />
    <glyph glyph-name="yen.smcp" horiz-adv-x="336" 
d="M220 0h-104v95h-62v46h62v42h-62v46h62q-56 244 -82 366h108q5 -39 13 -117.5t13 -117.5l26 235h109q-13 -61 -41.5 -183t-41.5 -183h64v-46h-64v-42h64v-46h-64v-95z" />
    <glyph glyph-name="numbersign.smcp" horiz-adv-x="348" 
d="M276 595l-8 -154h50v-58h-53l-9 -172h51v-58h-56l-7 -153h-56l7 153h-59l-7 -153h-57l7 153h-49v58h54l9 172h-52v58h55l8 154h56l-8 -154h59l8 154h57zM149 383l-9 -172h59l9 172h-59z" />
    <glyph glyph-name="percent.smcp" horiz-adv-x="440" 
d="M388 595l-280 -595h-55l280 595h55zM126 604q77 0 77 -81v-94q0 -40 -17.5 -60.5t-59.5 -20.5t-59.5 20.5t-17.5 60.5v94q0 40 17.5 60.5t59.5 20.5zM126 397q13 0 18 7t5 24v96q0 31 -23 31t-23 -31v-96q0 -17 5 -24t18 -7zM315 -9q-42 0 -59.5 20.5t-17.5 60.5v94
q0 40 17.5 60.5t59.5 20.5t59.5 -20.5t17.5 -60.5v-94q0 -81 -77 -81zM315 198q-13 0 -18 -7t-5 -24v-96q0 -31 23 -31t23 31v96q0 17 -5 24t-18 7z" />
    <glyph glyph-name="acute.smcp" horiz-adv-x="214" 
d="M69 775h97l-57 -135h-60z" />
    <glyph glyph-name="grave.smcp" horiz-adv-x="214" 
d="M49 775h97l20 -135h-60z" />
    <glyph glyph-name="circumflex.smcp" horiz-adv-x="288" 
d="M103 777h82l55 -135h-72l-24 49l-24 -49h-71z" />
    <glyph glyph-name="dieresis.smcp" horiz-adv-x="295" 
d="M49 748h84v-106h-84v106zM163 748h84v-106h-84v106z" />
    <glyph glyph-name="tilde.smcp" horiz-adv-x="325" 
d="M211 639q-27 0 -51 16.5t-37 16.5q-17 0 -17 -24h-57q0 55 12.5 77.5t53.5 22.5q27 0 51 -16.5t37 -16.5q17 0 17 24h57q0 -54 -13 -77t-53 -23z" />
    <glyph glyph-name="caron.smcp" horiz-adv-x="288" 
d="M185 642h-82l-54 135h71l24 -49l24 49h72z" />
    <glyph glyph-name="ring.smcp" horiz-adv-x="246" 
d="M198 705q0 -77 -75 -77q-74 0 -74 77q0 78 74 78q75 0 75 -78zM140 705q0 24 -17 24q-16 0 -16 -24q0 -23 16 -23q17 0 17 23z" />
    <glyph glyph-name="breve.smcp" horiz-adv-x="274" 
d="M163 742h63q0 -108 -89 -108q-88 0 -88 108h61q0 -34 27 -34q26 0 26 34z" />
    <glyph glyph-name="macron.smcp" horiz-adv-x="267" 
d="M49 642v76h170v-76h-170z" />
    <glyph glyph-name="dotaccent.smcp" horiz-adv-x="199" 
d="M49 756h102v-114h-102v114z" />
    <glyph glyph-name="hungarumlaut.smcp" horiz-adv-x="333" 
d="M66 775h97l-53 -135h-56zM188 775h97l-64 -135h-60z" />
    <glyph glyph-name="aacute.smcp" horiz-adv-x="328" 
d="M19 0l77 595h137l77 -595h-105l-9 113h-63l-9 -113h-105zM150 288l-7 -84h43l-7 84q-10 115 -14 208h-1q-10 -158 -14 -208zM147 775h97l-57 -135h-60z" />
    <glyph glyph-name="agrave.smcp" horiz-adv-x="328" 
d="M19 0l77 595h137l77 -595h-105l-9 113h-63l-9 -113h-105zM150 288l-7 -84h43l-7 84q-10 115 -14 208h-1q-10 -158 -14 -208zM80 775h97l20 -135h-60z" />
    <glyph glyph-name="acircumflex.smcp" horiz-adv-x="328" 
d="M19 0l77 595h137l77 -595h-105l-9 113h-63l-9 -113h-105zM150 288l-7 -84h43l-7 84q-10 115 -14 208h-1q-10 -158 -14 -208zM122 777h82l55 -135h-72l-24 49l-24 -49h-71z" />
    <glyph glyph-name="adieresis.smcp" horiz-adv-x="328" 
d="M19 0l77 595h137l77 -595h-105l-9 113h-63l-9 -113h-105zM150 288l-7 -84h43l-7 84q-10 115 -14 208h-1q-10 -158 -14 -208zM65 748h84v-106h-84v106zM179 748h84v-106h-84v106z" />
    <glyph glyph-name="atilde.smcp" horiz-adv-x="328" 
d="M19 0l77 595h137l77 -595h-105l-9 113h-63l-9 -113h-105zM150 288l-7 -84h43l-7 84q-10 115 -14 208h-1q-10 -158 -14 -208zM212 639q-28 0 -52 16.5t-36 16.5q-17 0 -17 -24h-57q0 55 12.5 77.5t53.5 22.5q27 0 51 -16.5t37 -16.5q17 0 17 24h57q0 -54 -13 -77t-53 -23z
" />
    <glyph glyph-name="aring.smcp" horiz-adv-x="328" 
d="M19 0l77 595h137l77 -595h-105l-9 113h-63l-9 -113h-105zM150 288l-7 -84h43l-7 84q-10 115 -14 208h-1q-10 -158 -14 -208zM238 705q0 -77 -75 -77q-74 0 -74 77q0 78 74 78q75 0 75 -78zM180 705q0 24 -17 24q-16 0 -16 -24q0 -23 16 -23q17 0 17 23z" />
    <glyph glyph-name="amacron.smcp" horiz-adv-x="328" 
d="M19 0l77 595h137l77 -595h-105l-9 113h-63l-9 -113h-105zM150 288l-7 -84h43l-7 84q-10 115 -14 208h-1q-10 -158 -14 -208zM79 642v76h170v-76h-170z" />
    <glyph glyph-name="abreve.smcp" horiz-adv-x="328" 
d="M19 0l77 595h137l77 -595h-105l-9 113h-63l-9 -113h-105zM150 288l-7 -84h43l-7 84q-10 115 -14 208h-1q-10 -158 -14 -208zM189 742h63q0 -108 -89 -108q-88 0 -88 108h61q0 -34 27 -34q26 0 26 34z" />
    <glyph glyph-name="aogonek.smcp" horiz-adv-x="328" 
d="M310 -170h-12q-51 0 -76 20.5t-25 54.5q0 58 56 95h-48l-9 113h-63l-9 -113h-105l77 595h137l77 -595q-33 -28 -33 -57q0 -20 23 -20h10v-93zM150 288l-7 -84h43l-7 84q-10 115 -14 208h-1q-10 -158 -14 -208z" />
    <glyph glyph-name="ae.smcp" horiz-adv-x="464" 
d="M150 110l-22 -110h-110l135 595h278v-95h-106v-154h93v-91h-93v-160h106v-95h-209v110h-72zM167 201h55v308q-10 -50 -27.5 -154t-27.5 -154z" />
    <glyph glyph-name="bdotaccent.smcp" horiz-adv-x="353" 
d="M49 0v595h142q67 0 91.5 -23.5t24.5 -73.5v-127q0 -48 -38 -68q41 -23 41 -72v-125q0 -51 -24.5 -78.5t-88.5 -27.5h-148zM153 255v-160h36q17 0 17 17v124q0 19 -21 19h-32zM153 500v-154h33q20 0 20 21v117q0 16 -18 16h-35zM125 756h102v-114h-102v114z" />
    <glyph glyph-name="cacute.smcp" horiz-adv-x="336" 
d="M197 187h101v-77q0 -119 -128 -119q-131 0 -131 119v375q0 118 131 118q128 0 128 -118v-69h-101v69q0 11 -7 19.5t-20 8.5t-20 -8.5t-7 -19.5v-374q0 -29 27 -29t27 29v76zM153 775h97l-57 -135h-60z" />
    <glyph glyph-name="ccircumflex.smcp" horiz-adv-x="336" 
d="M197 187h101v-77q0 -119 -128 -119q-131 0 -131 119v375q0 118 131 118q128 0 128 -118v-69h-101v69q0 11 -7 19.5t-20 8.5t-20 -8.5t-7 -19.5v-374q0 -29 27 -29t27 29v76zM126 777h82l55 -135h-72l-24 49l-24 -49h-71z" />
    <glyph glyph-name="ccaron.smcp" horiz-adv-x="336" 
d="M197 187h101v-77q0 -119 -128 -119q-131 0 -131 119v375q0 118 131 118q128 0 128 -118v-69h-101v69q0 11 -7 19.5t-20 8.5t-20 -8.5t-7 -19.5v-374q0 -29 27 -29t27 29v76zM208 642h-82l-54 135h71l24 -49l24 49h72z" />
    <glyph glyph-name="ccedilla.smcp" horiz-adv-x="336" 
d="M118 -81l21 74q-100 13 -100 117v375q0 118 131 118q128 0 128 -118v-69h-101v69q0 11 -7 19.5t-20 8.5t-20 -8.5t-7 -19.5v-374q0 -29 27 -29t27 29v76h101v-77q0 -109 -108 -118l-8 -31q56 -11 56 -62q0 -33 -18.5 -51t-68.5 -18h-58l16 61h29q19 0 19 14t-19 14h-20z
" />
    <glyph glyph-name="cdotaccent.smcp" horiz-adv-x="336" 
d="M197 187h101v-77q0 -119 -128 -119q-131 0 -131 119v375q0 118 131 118q128 0 128 -118v-69h-101v69q0 11 -7 19.5t-20 8.5t-20 -8.5t-7 -19.5v-374q0 -29 27 -29t27 29v76zM117 756h102v-114h-102v114z" />
    <glyph glyph-name="dcaron.smcp" horiz-adv-x="358" 
d="M49 0v595h140q70 0 95.5 -26t25.5 -81v-372q0 -58 -25.5 -87t-92.5 -29h-143zM153 500v-405h33q20 0 20 18v367q0 20 -22 20h-31zM208 642h-82l-54 135h71l24 -49l24 49h72z" />
    <glyph glyph-name="ddotaccent.smcp" horiz-adv-x="358" 
d="M49 0v595h140q70 0 95.5 -26t25.5 -81v-372q0 -58 -25.5 -87t-92.5 -29h-143zM153 500v-405h33q20 0 20 18v367q0 20 -22 20h-31zM128 756h102v-114h-102v114z" />
    <glyph glyph-name="dcroat.smcp" horiz-adv-x="358" 
d="M22 260v75h27v260h140q70 0 95.5 -26t25.5 -81v-372q0 -58 -25.5 -87t-92.5 -29h-143v260h-27zM153 500v-165h26v-75h-26v-165h33q20 0 20 18v367q0 20 -22 20h-31z" />
    <glyph glyph-name="eth.smcp" horiz-adv-x="358" 
d="M22 260v75h27v260h140q70 0 95.5 -26t25.5 -81v-372q0 -58 -25.5 -87t-92.5 -29h-143v260h-27zM153 500v-165h26v-75h-26v-165h33q20 0 20 18v367q0 20 -22 20h-31z" />
    <glyph glyph-name="eacute.smcp" horiz-adv-x="299" 
d="M153 255v-160h108v-95h-212v595h212v-95h-108v-154h95v-91h-95zM136 775h97l-57 -135h-60z" />
    <glyph glyph-name="egrave.smcp" horiz-adv-x="299" 
d="M153 255v-160h108v-95h-212v595h212v-95h-108v-154h95v-91h-95zM91 775h97l20 -135h-60z" />
    <glyph glyph-name="ecircumflex.smcp" horiz-adv-x="299" 
d="M153 255v-160h108v-95h-212v595h212v-95h-108v-154h95v-91h-95zM113 777h82l55 -135h-72l-24 49l-24 -49h-71z" />
    <glyph glyph-name="edieresis.smcp" horiz-adv-x="299" 
d="M153 255v-160h108v-95h-212v595h212v-95h-108v-154h95v-91h-95zM55 748h84v-106h-84v106zM169 748h84v-106h-84v106z" />
    <glyph glyph-name="ecaron.smcp" horiz-adv-x="299" 
d="M153 255v-160h108v-95h-212v595h212v-95h-108v-154h95v-91h-95zM196 642h-82l-54 135h71l24 -49l24 49h72z" />
    <glyph glyph-name="emacron.smcp" horiz-adv-x="299" 
d="M153 255v-160h108v-95h-212v595h212v-95h-108v-154h95v-91h-95zM68 642v76h170v-76h-170z" />
    <glyph glyph-name="ebreve.smcp" horiz-adv-x="299" 
d="M153 255v-160h108v-95h-212v595h212v-95h-108v-154h95v-91h-95zM180 742h63q0 -108 -89 -108q-88 0 -88 108h61q0 -34 27 -34q26 0 26 34z" />
    <glyph glyph-name="eogonek.smcp" horiz-adv-x="299" 
d="M261 -170h-12q-51 0 -76 20.5t-25 54.5q0 58 56 95h-155v595h212v-95h-108v-154h95v-91h-95v-160h108v-95q-33 -28 -33 -57q0 -20 23 -20h10v-93z" />
    <glyph glyph-name="edotaccent.smcp" horiz-adv-x="299" 
d="M153 255v-160h108v-95h-212v595h212v-95h-108v-154h95v-91h-95zM98 756h102v-114h-102v114z" />
    <glyph glyph-name="fdotaccent.smcp" horiz-adv-x="290" 
d="M153 0h-104v595h208v-95h-104v-154h89v-91h-89v-255zM94 756h102v-114h-102v114z" />
    <glyph glyph-name="gcircumflex.smcp" horiz-adv-x="348" 
d="M175 255v91h130v-236q0 -119 -130 -119q-131 0 -131 119v375q0 118 131 118q130 0 130 -118v-69h-103v70q0 27 -27 27t-27 -27v-375q0 -29 27 -29t27 29v144h-27zM132 777h82l55 -135h-72l-24 49l-24 -49h-71z" />
    <glyph glyph-name="gbreve.smcp" horiz-adv-x="348" 
d="M175 255v91h130v-236q0 -119 -130 -119q-131 0 -131 119v375q0 118 131 118q130 0 130 -118v-69h-103v70q0 27 -27 27t-27 -27v-375q0 -29 27 -29t27 29v144h-27zM199 742h63q0 -108 -89 -108q-88 0 -88 108h61q0 -34 27 -34q26 0 26 34z" />
    <glyph glyph-name="gdotaccent.smcp" horiz-adv-x="348" 
d="M175 255v91h130v-236q0 -119 -130 -119q-131 0 -131 119v375q0 118 131 118q130 0 130 -118v-69h-103v70q0 27 -27 27t-27 -27v-375q0 -29 27 -29t27 29v144h-27zM123 756h102v-114h-102v114z" />
    <glyph glyph-name="gcommaaccent.smcp" horiz-adv-x="348" 
d="M175 255v91h130v-236q0 -119 -130 -119q-131 0 -131 119v375q0 118 131 118q130 0 130 -118v-69h-103v70q0 27 -27 27t-27 -27v-375q0 -29 27 -29t27 29v144h-27zM127 -48h93l-35 -122h-58v122z" />
    <glyph glyph-name="hcircumflex.smcp" horiz-adv-x="358" 
d="M153 255v-255h-104v595h104v-249h53v249h104v-595h-104v255h-53zM137 777h82l55 -135h-72l-24 49l-24 -49h-71z" />
    <glyph glyph-name="hbar.smcp" horiz-adv-x="358" 
d="M14 441v46h35v108h104v-108h53v108h104v-108h35v-46h-35v-441h-104v255h-53v-255h-104v441h-35zM153 346h53v95h-53v-95z" />
    <glyph glyph-name="iacute.smcp" horiz-adv-x="201" 
d="M49 0v595h104v-595h-104zM84 775h97l-57 -135h-60z" />
    <glyph glyph-name="igrave.smcp" horiz-adv-x="201" 
d="M49 0v595h104v-595h-104zM17 775h97l20 -135h-60z" />
    <glyph glyph-name="icircumflex.smcp" horiz-adv-x="201" 
d="M49 0v595h104v-595h-104zM59 777h82l55 -135h-72l-24 49l-24 -49h-71z" />
    <glyph glyph-name="idieresis.smcp" horiz-adv-x="201" 
d="M49 0v595h104v-595h-104zM2 748h84v-106h-84v106zM116 748h84v-106h-84v106z" />
    <glyph glyph-name="itilde.smcp" horiz-adv-x="201" 
d="M49 0v595h104v-595h-104zM149 639q-27 0 -51 16.5t-37 16.5q-17 0 -17 -24h-57q0 55 12.5 77.5t53.5 22.5q27 0 51 -16.5t37 -16.5q17 0 17 24h57q0 -54 -13 -77t-53 -23z" />
    <glyph glyph-name="imacron.smcp" horiz-adv-x="201" 
d="M49 0v595h104v-595h-104zM16 642v76h170v-76h-170z" />
    <glyph glyph-name="ibreve.smcp" horiz-adv-x="201" 
d="M49 0v595h104v-595h-104zM126 742h63q0 -108 -89 -108q-88 0 -88 108h61q0 -34 27 -34q26 0 26 34z" />
    <glyph glyph-name="iogonek.smcp" horiz-adv-x="201" 
d="M49 0v595h104v-595q-33 -28 -33 -57q0 -20 23 -20h10v-93h-12q-51 0 -76 20.5t-25 54.5q0 58 56 95h-47z" />
    <glyph glyph-name="jcircumflex.smcp" horiz-adv-x="327" 
d="M181 595h103v-485q0 -119 -127 -119q-128 0 -128 119v77h102v-76q0 -29 25 -29t25 29v484zM188 777h82l55 -135h-72l-24 49l-24 -49h-71z" />
    <glyph glyph-name="kcommaaccent.smcp" horiz-adv-x="344" 
d="M153 595l-2 -264l61 264h113l-89 -295l95 -300h-112l-68 270l2 -270h-104v595h104zM125 -48h93l-35 -122h-58v122z" />
    <glyph glyph-name="lacute.smcp" horiz-adv-x="257" 
d="M49 0v595h104v-500h86v-95h-190zM86 775h97l-57 -135h-60z" />
    <glyph glyph-name="lcaron.smcp" horiz-adv-x="260" 
d="M49 0v595h104v-500h86v-95h-190zM184 595h77l-33 -188h-44v188z" />
    <glyph glyph-name="lcommaaccent.smcp" horiz-adv-x="257" 
d="M49 0v595h104v-500h86v-95h-190zM93 -48h93l-35 -122h-58v122z" />
    <glyph glyph-name="ldot.smcp" horiz-adv-x="260" 
d="M49 0v595h104v-500h86v-95h-190zM179 338h75v-100h-75v100z" />
    <glyph glyph-name="lslash.smcp" horiz-adv-x="257" 
d="M9 232v67l40 13v283h104v-248l51 17v-67l-51 -17v-185h86v-95h-190v245z" />
    <glyph glyph-name="mdotaccent.smcp" horiz-adv-x="493" 
d="M184 595l63 -412l62 412h136v-595h-97l11 437l-72 -437h-80l-72 437l11 -437h-97v595h135zM195 756h102v-114h-102v114z" />
    <glyph glyph-name="nacute.smcp" horiz-adv-x="384" 
d="M234 0l-96 379q10 -188 10 -293v-86h-99v595h105l94 -372q-11 134 -11 267v105h99v-595h-102zM171 775h97l-57 -135h-60z" />
    <glyph glyph-name="ntilde.smcp" horiz-adv-x="384" 
d="M234 0l-96 379q10 -188 10 -293v-86h-99v595h105l94 -372q-11 134 -11 267v105h99v-595h-102zM240 639q-28 0 -52 16.5t-36 16.5q-17 0 -17 -24h-57q0 55 12.5 77.5t53.5 22.5q27 0 51 -16.5t37 -16.5q17 0 17 24h57q0 -54 -13 -77t-53 -23z" />
    <glyph glyph-name="ncaron.smcp" horiz-adv-x="384" 
d="M234 0l-96 379q10 -188 10 -293v-86h-99v595h105l94 -372q-11 134 -11 267v105h99v-595h-102zM232 642h-82l-54 135h71l24 -49l24 49h72z" />
    <glyph glyph-name="ncommaaccent.smcp" horiz-adv-x="384" 
d="M234 0l-96 379q10 -188 10 -293v-86h-99v595h105l94 -372q-11 134 -11 267v105h99v-595h-102zM145 -48h93l-35 -122h-58v122z" />
    <glyph glyph-name="eng.smcp" horiz-adv-x="384" 
d="M234 0l-96 382q10 -188 10 -296v-86h-99v595h105l94 -375q-11 134 -11 270v105h99v-636q0 -53 -27 -82t-96 -29q-19 0 -44 7v83q18 -7 38 -7q15 0 21 6.5t6 22.5v40z" />
    <glyph glyph-name="oacute.smcp" horiz-adv-x="348" 
d="M175 82q27 0 27 29v374q0 28 -27 28t-27 -28v-374q0 -29 27 -29zM175 -9q-131 0 -131 119v374q0 119 131 119q130 0 130 -119v-374q0 -119 -130 -119zM157 775h97l-57 -135h-60z" />
    <glyph glyph-name="ograve.smcp" horiz-adv-x="348" 
d="M175 82q27 0 27 29v374q0 28 -27 28t-27 -28v-374q0 -29 27 -29zM175 -9q-131 0 -131 119v374q0 119 131 119q130 0 130 -119v-374q0 -119 -130 -119zM92 775h97l20 -135h-60z" />
    <glyph glyph-name="ocircumflex.smcp" horiz-adv-x="348" 
d="M175 82q27 0 27 29v374q0 28 -27 28t-27 -28v-374q0 -29 27 -29zM175 -9q-131 0 -131 119v374q0 119 131 119q130 0 130 -119v-374q0 -119 -130 -119zM132 777h82l55 -135h-72l-24 49l-24 -49h-71z" />
    <glyph glyph-name="odieresis.smcp" horiz-adv-x="348" 
d="M175 82q27 0 27 29v374q0 28 -27 28t-27 -28v-374q0 -29 27 -29zM175 -9q-131 0 -131 119v374q0 119 131 119q130 0 130 -119v-374q0 -119 -130 -119zM75 748h84v-106h-84v106zM189 748h84v-106h-84v106z" />
    <glyph glyph-name="otilde.smcp" horiz-adv-x="348" 
d="M175 82q27 0 27 29v374q0 28 -27 28t-27 -28v-374q0 -29 27 -29zM175 -9q-131 0 -131 119v374q0 119 131 119q130 0 130 -119v-374q0 -119 -130 -119zM222 639q-28 0 -52 16.5t-36 16.5q-17 0 -17 -24h-57q0 55 12.5 77.5t53.5 22.5q27 0 51 -16.5t37 -16.5q17 0 17 24
h57q0 -54 -13 -77t-53 -23z" />
    <glyph glyph-name="obreve.smcp" horiz-adv-x="348" 
d="M175 82q27 0 27 29v374q0 28 -27 28t-27 -28v-374q0 -29 27 -29zM175 -9q-131 0 -131 119v374q0 119 131 119q130 0 130 -119v-374q0 -119 -130 -119zM199 742h63q0 -108 -89 -108q-88 0 -88 108h61q0 -34 27 -34q26 0 26 34z" />
    <glyph glyph-name="omacron.smcp" horiz-adv-x="348" 
d="M175 82q27 0 27 29v374q0 28 -27 28t-27 -28v-374q0 -29 27 -29zM175 -9q-131 0 -131 119v374q0 119 131 119q130 0 130 -119v-374q0 -119 -130 -119zM89 642v76h170v-76h-170z" />
    <glyph glyph-name="ohungarumlaut.smcp" horiz-adv-x="348" 
d="M175 82q27 0 27 29v374q0 28 -27 28t-27 -28v-374q0 -29 27 -29zM175 -9q-131 0 -131 119v374q0 119 131 119q130 0 130 -119v-374q0 -119 -130 -119zM100 775h97l-53 -135h-56zM222 775h97l-64 -135h-60z" />
    <glyph glyph-name="oslash.smcp" horiz-adv-x="348" 
d="M175 82q27 0 27 29v374q0 28 -27 28t-27 -28v-374q0 -29 27 -29zM175 -9q-19 0 -35 3l-4 -20h-74l12 50q-30 30 -30 86v374q0 119 131 119q20 0 35 -3l5 20h75l-13 -52q28 -29 28 -84v-374q0 -119 -130 -119z" />
    <glyph glyph-name="oe.smcp" horiz-adv-x="447" 
d="M175 82q27 0 27 29v374q0 28 -27 28t-27 -28v-374q0 -29 27 -29zM306 255v-160h108v-95h-178q-26 -9 -61 -9q-131 0 -131 119v374q0 119 131 119q32 0 58 -8h181v-95h-108v-154h95v-91h-95z" />
    <glyph glyph-name="thorn.smcp" horiz-adv-x="336" 
d="M49 0v595h104v-120h43q65 0 88.5 -25.5t23.5 -75.5v-152q0 -52 -25 -76.5t-90 -24.5h-40v-121h-104zM153 380v-168h33q20 0 20 19v129q0 20 -22 20h-31z" />
    <glyph glyph-name="pdotaccent.smcp" horiz-adv-x="336" 
d="M49 0v595h147q65 0 88.5 -25.5t23.5 -75.5v-152q0 -52 -25 -76.5t-90 -24.5h-40v-241h-104zM153 500v-168h33q20 0 20 19v129q0 20 -22 20h-31zM117 756h102v-114h-102v114z" />
    <glyph glyph-name="racute.smcp" horiz-adv-x="345" 
d="M49 0v595h147q64 0 88 -28.5t24 -80.5v-140q0 -43 -10 -66t-41 -32l85 -248h-111l-73 244h-5v-244h-104zM153 500v-168h33q20 0 20 19v129q0 20 -22 20h-31zM146 775h97l-57 -135h-60z" />
    <glyph glyph-name="rcaron.smcp" horiz-adv-x="345" 
d="M49 0v595h147q64 0 88 -28.5t24 -80.5v-140q0 -43 -10 -66t-41 -32l85 -248h-111l-73 244h-5v-244h-104zM153 500v-168h33q20 0 20 19v129q0 20 -22 20h-31zM213 642h-82l-54 135h71l24 -49l24 49h72z" />
    <glyph glyph-name="rcommaaccent.smcp" horiz-adv-x="345" 
d="M49 0v595h147q64 0 88 -28.5t24 -80.5v-140q0 -43 -10 -66t-41 -32l85 -248h-111l-73 244h-5v-244h-104zM153 500v-168h33q20 0 20 19v129q0 20 -22 20h-31zM126 -48h93l-35 -122h-58v122z" />
    <glyph glyph-name="sacute.smcp" horiz-adv-x="329" 
d="M138 187v-79q0 -28 27 -28t27 28v52q0 44 -16.5 73t-39.5 45t-46 33.5t-39.5 50.5t-16.5 83v43q0 51 31.5 83t99.5 32t99.5 -32t31.5 -83v-72h-104v72q0 27 -27 27t-27 -27v-41q0 -38 16.5 -62.5t39.5 -39.5t46 -33t39.5 -56t16.5 -95v-54q0 -51 -31.5 -83.5t-99.5 -32.5
t-99.5 32.5t-31.5 83.5v80h104zM145 775h97l-57 -135h-60z" />
    <glyph glyph-name="scircumflex.smcp" horiz-adv-x="329" 
d="M138 187v-79q0 -28 27 -28t27 28v52q0 44 -16.5 73t-39.5 45t-46 33.5t-39.5 50.5t-16.5 83v43q0 51 31.5 83t99.5 32t99.5 -32t31.5 -83v-72h-104v72q0 27 -27 27t-27 -27v-41q0 -38 16.5 -62.5t39.5 -39.5t46 -33t39.5 -56t16.5 -95v-54q0 -51 -31.5 -83.5t-99.5 -32.5
t-99.5 32.5t-31.5 83.5v80h104zM123 777h82l55 -135h-72l-24 49l-24 -49h-71z" />
    <glyph glyph-name="scaron.smcp" horiz-adv-x="329" 
d="M138 187v-79q0 -28 27 -28t27 28v52q0 44 -16.5 73t-39.5 45t-46 33.5t-39.5 50.5t-16.5 83v43q0 51 31.5 83t99.5 32t99.5 -32t31.5 -83v-72h-104v72q0 27 -27 27t-27 -27v-41q0 -38 16.5 -62.5t39.5 -39.5t46 -33t39.5 -56t16.5 -95v-54q0 -51 -31.5 -83.5t-99.5 -32.5
t-99.5 32.5t-31.5 83.5v80h104zM205 642h-82l-54 135h71l24 -49l24 49h72z" />
    <glyph glyph-name="sdotaccent.smcp" horiz-adv-x="329" 
d="M138 187v-79q0 -28 27 -28t27 28v52q0 44 -16.5 73t-39.5 45t-46 33.5t-39.5 50.5t-16.5 83v43q0 51 31.5 83t99.5 32t99.5 -32t31.5 -83v-72h-104v72q0 27 -27 27t-27 -27v-41q0 -38 16.5 -62.5t39.5 -39.5t46 -33t39.5 -56t16.5 -95v-54q0 -51 -31.5 -83.5t-99.5 -32.5
t-99.5 32.5t-31.5 83.5v80h104zM113 756h102v-114h-102v114z" />
    <glyph glyph-name="scedilla.smcp" horiz-adv-x="329" 
d="M117 -81l21 74q-54 6 -79 37t-25 77v80h104v-79q0 -28 27 -28t27 28v52q0 44 -16.5 73t-39.5 45t-46 33.5t-39.5 50.5t-16.5 83v43q0 51 31.5 83t99.5 32t99.5 -32t31.5 -83v-72h-104v72q0 27 -27 27t-27 -27v-41q0 -38 16.5 -62.5t39.5 -39.5t46 -33t39.5 -56t16.5 -95
v-54q0 -46 -26 -77t-81 -37l-8 -32q56 -11 56 -62q0 -33 -18.5 -51t-68.5 -18h-58l16 61h29q19 0 19 14t-19 14h-20z" />
    <glyph glyph-name="scommaaccent.smcp" horiz-adv-x="329" 
d="M138 187v-79q0 -28 27 -28t27 28v52q0 44 -16.5 73t-39.5 45t-46 33.5t-39.5 50.5t-16.5 83v43q0 51 31.5 83t99.5 32t99.5 -32t31.5 -83v-72h-104v72q0 27 -27 27t-27 -27v-41q0 -38 16.5 -62.5t39.5 -39.5t46 -33t39.5 -56t16.5 -95v-54q0 -51 -31.5 -83.5t-99.5 -32.5
t-99.5 32.5t-31.5 83.5v80h104zM118 -48h93l-35 -122h-58v122z" />
    <glyph glyph-name="germandbls.smcp" horiz-adv-x="658" 
d="M138 187v-79q0 -28 27 -28t27 28v52q0 44 -16.5 73t-39.5 45t-46 33.5t-39.5 50.5t-16.5 83v43q0 51 31.5 83t99.5 32t99.5 -32t31.5 -83v-72h-104v72q0 27 -27 27t-27 -27v-41q0 -38 16.5 -62.5t39.5 -39.5t46 -33t39.5 -56t16.5 -95v-54q0 -51 -31.5 -83.5t-99.5 -32.5
t-99.5 32.5t-31.5 83.5v80h104zM467 187v-79q0 -28 27 -28t27 28v52q0 44 -16.5 73t-39.5 45t-46 33.5t-39.5 50.5t-16.5 83v43q0 51 31.5 83t99.5 32t99.5 -32t31.5 -83v-72h-104v72q0 27 -27 27t-27 -27v-41q0 -38 16.5 -62.5t39.5 -39.5t46 -33t39.5 -56t16.5 -95v-54
q0 -51 -31.5 -83.5t-99.5 -32.5t-99.5 32.5t-31.5 83.5v80h104z" />
    <glyph glyph-name="tcaron.smcp" horiz-adv-x="287" 
d="M196 500v-500h-104v500h-73v95h250v-95h-73zM184 642h-82l-54 135h71l24 -49l24 49h72z" />
    <glyph glyph-name="tdotaccent.smcp" horiz-adv-x="287" 
d="M196 500v-500h-104v500h-73v95h250v-95h-73zM92 756h102v-114h-102v114z" />
    <glyph glyph-name="tcommaaccent.smcp" horiz-adv-x="287" 
d="M196 500v-500h-104v500h-73v95h250v-95h-73zM97 -48h93l-35 -122h-58v122z" />
    <glyph glyph-name="tbar.smcp" horiz-adv-x="287" 
d="M48 242v66h44v192h-73v95h250v-95h-73v-192h42v-66h-42v-242h-104v242h-44z" />
    <glyph glyph-name="uacute.smcp" horiz-adv-x="358" 
d="M49 595h104v-486q0 -27 27 -27q26 0 26 27v486h104v-486q0 -118 -130 -118q-131 0 -131 118v486zM162 775h97l-57 -135h-60z" />
    <glyph glyph-name="ugrave.smcp" horiz-adv-x="358" 
d="M49 595h104v-486q0 -27 27 -27q26 0 26 27v486h104v-486q0 -118 -130 -118q-131 0 -131 118v486zM95 775h97l20 -135h-60z" />
    <glyph glyph-name="ucircumflex.smcp" horiz-adv-x="358" 
d="M49 595h104v-486q0 -27 27 -27q26 0 26 27v486h104v-486q0 -118 -130 -118q-131 0 -131 118v486zM137 777h82l55 -135h-72l-24 49l-24 -49h-71z" />
    <glyph glyph-name="udieresis.smcp" horiz-adv-x="358" 
d="M49 595h104v-486q0 -27 27 -27q26 0 26 27v486h104v-486q0 -118 -130 -118q-131 0 -131 118v486zM80 748h84v-106h-84v106zM194 748h84v-106h-84v106z" />
    <glyph glyph-name="utilde.smcp" horiz-adv-x="358" 
d="M49 595h104v-486q0 -27 27 -27q26 0 26 27v486h104v-486q0 -118 -130 -118q-131 0 -131 118v486zM227 639q-27 0 -51 16.5t-37 16.5q-17 0 -17 -24h-57q0 55 12.5 77.5t53.5 22.5q27 0 51 -16.5t37 -16.5q17 0 17 24h57q0 -54 -13 -77t-53 -23z" />
    <glyph glyph-name="uring.smcp" horiz-adv-x="358" 
d="M49 595h104v-486q0 -27 27 -27q26 0 26 27v486h104v-486q0 -118 -130 -118q-131 0 -131 118v486zM253 705q0 -77 -75 -77q-74 0 -74 77q0 78 74 78q75 0 75 -78zM195 705q0 24 -17 24q-16 0 -16 -24q0 -23 16 -23q17 0 17 23z" />
    <glyph glyph-name="ubreve.smcp" horiz-adv-x="358" 
d="M49 595h104v-486q0 -27 27 -27q26 0 26 27v486h104v-486q0 -118 -130 -118q-131 0 -131 118v486zM204 742h63q0 -108 -89 -108q-88 0 -88 108h61q0 -34 27 -34q26 0 26 34z" />
    <glyph glyph-name="umacron.smcp" horiz-adv-x="358" 
d="M49 595h104v-486q0 -27 27 -27q26 0 26 27v486h104v-486q0 -118 -130 -118q-131 0 -131 118v486zM94 642v76h170v-76h-170z" />
    <glyph glyph-name="uhungarumlaut.smcp" horiz-adv-x="358" 
d="M49 595h104v-486q0 -27 27 -27q26 0 26 27v486h104v-486q0 -118 -130 -118q-131 0 -131 118v486zM113 775h97l-53 -135h-56zM235 775h97l-64 -135h-60z" />
    <glyph glyph-name="uogonek.smcp" horiz-adv-x="358" 
d="M236 -170h-12q-51 0 -76 20.5t-25 54.5q0 52 44 87q-118 5 -118 117v486h104v-486q0 -27 27 -27q26 0 26 27v486h104v-486q0 -90 -77 -111q-30 -26 -30 -55q0 -20 23 -20h10v-93z" />
    <glyph glyph-name="wacute.smcp" horiz-adv-x="527" 
d="M264 432l-43 -432h-126l-71 595h105l30 -440l50 440h110l50 -440l30 440h105l-70 -595h-127zM246 775h97l-57 -135h-60z" />
    <glyph glyph-name="wgrave.smcp" horiz-adv-x="527" 
d="M264 432l-43 -432h-126l-71 595h105l30 -440l50 440h110l50 -440l30 440h105l-70 -595h-127zM178 775h97l20 -135h-60z" />
    <glyph glyph-name="wcircumflex.smcp" horiz-adv-x="527" 
d="M264 432l-43 -432h-126l-71 595h105l30 -440l50 440h110l50 -440l30 440h105l-70 -595h-127zM222 777h82l55 -135h-72l-24 49l-24 -49h-71z" />
    <glyph glyph-name="wdieresis.smcp" horiz-adv-x="527" 
d="M264 432l-43 -432h-126l-71 595h105l30 -440l50 440h110l50 -440l30 440h105l-70 -595h-127zM164 748h84v-106h-84v106zM278 748h84v-106h-84v106z" />
    <glyph glyph-name="yacute.smcp" horiz-adv-x="300" 
d="M203 0h-104v218l-85 377h109l28 -249l28 249h108l-84 -377v-218zM135 775h97l-57 -135h-60z" />
    <glyph glyph-name="ygrave.smcp" horiz-adv-x="300" 
d="M203 0h-104v218l-85 377h109l28 -249l28 249h108l-84 -377v-218zM65 775h97l20 -135h-60z" />
    <glyph glyph-name="ycircumflex.smcp" horiz-adv-x="300" 
d="M203 0h-104v218l-85 377h109l28 -249l28 249h108l-84 -377v-218zM108 777h82l55 -135h-72l-24 49l-24 -49h-71z" />
    <glyph glyph-name="ydieresis.smcp" horiz-adv-x="300" 
d="M203 0h-104v218l-85 377h109l28 -249l28 249h108l-84 -377v-218zM51 748h84v-106h-84v106zM165 748h84v-106h-84v106z" />
    <glyph glyph-name="zacute.smcp" horiz-adv-x="294" 
d="M266 0h-230v67l111 433h-113v95h226v-68l-110 -432h116v-95zM130 775h97l-57 -135h-60z" />
    <glyph glyph-name="zcaron.smcp" horiz-adv-x="294" 
d="M266 0h-230v67l111 433h-113v95h226v-68l-110 -432h116v-95zM187 642h-82l-54 135h71l24 -49l24 49h72z" />
    <glyph glyph-name="zdotaccent.smcp" horiz-adv-x="294" 
d="M266 0h-230v67l111 433h-113v95h226v-68l-110 -432h116v-95zM96 756h102v-114h-102v114z" />
    </font>
</defs>
</svg>
